<?xml version="1.0" encoding="utf-8" standalone="no"?>
<!DOCTYPE svg PUBLIC "-//W3C//DTD SVG 1.1//EN"
  "http://www.w3.org/Graphics/SVG/1.1/DTD/svg11.dtd">
<svg xmlns:xlink="http://www.w3.org/1999/xlink" width="386.64pt" height="252.72pt" viewBox="0 0 386.64 252.72" xmlns="http://www.w3.org/2000/svg" version="1.1">
 <metadata>
  <rdf:RDF xmlns:dc="http://purl.org/dc/elements/1.1/" xmlns:cc="http://creativecommons.org/ns#" xmlns:rdf="http://www.w3.org/1999/02/22-rdf-syntax-ns#">
   <cc:Work>
    <dc:type rdf:resource="http://purl.org/dc/dcmitype/StillImage"/>
    <dc:date>2023-07-11T22:26:58.529072</dc:date>
    <dc:format>image/svg+xml</dc:format>
    <dc:creator>
     <cc:Agent>
      <dc:title>Matplotlib v3.6.2, https://matplotlib.org/</dc:title>
     </cc:Agent>
    </dc:creator>
   </cc:Work>
  </rdf:RDF>
 </metadata>
 <defs>
  <style type="text/css">*{stroke-linejoin: round; stroke-linecap: butt}</style>
 </defs>
 <g id="figure_1">
  <g id="patch_1">
   <path d="M 0 252.72 
L 386.64 252.72 
L 386.64 0 
L 0 0 
z
" style="fill: #ffffff"/>
  </g>
  <g id="axes_1">
   <g id="patch_2">
    <path d="M 100.8558 224.9208 
L 295.4502 224.9208 
L 295.4502 30.3264 
L 100.8558 30.3264 
z
" style="fill: #ffffff"/>
   </g>
   <g id="matplotlib.axis_1">
    <g id="xtick_1">
     <g id="line2d_1">
      <defs>
       <path id="m496155c5f4" d="M 0 0 
L 0 3.5 
" style="stroke: #000000; stroke-width: 0.8"/>
      </defs>
      <g>
       <use xlink:href="#m496155c5f4" x="100.8558" y="224.9208" style="stroke: #000000; stroke-width: 0.8"/>
      </g>
     </g>
     <g id="text_1">
      <!-- −0.5 -->
      <g transform="translate(88.714394 239.519237) scale(0.1 -0.1)">
       <defs>
        <path id="DejaVuSans-2212" d="M 678 2272 
L 4684 2272 
L 4684 1741 
L 678 1741 
L 678 2272 
z
" transform="scale(0.015625)"/>
        <path id="DejaVuSans-30" d="M 2034 4250 
Q 1547 4250 1301 3770 
Q 1056 3291 1056 2328 
Q 1056 1369 1301 889 
Q 1547 409 2034 409 
Q 2525 409 2770 889 
Q 3016 1369 3016 2328 
Q 3016 3291 2770 3770 
Q 2525 4250 2034 4250 
z
M 2034 4750 
Q 2819 4750 3233 4129 
Q 3647 3509 3647 2328 
Q 3647 1150 3233 529 
Q 2819 -91 2034 -91 
Q 1250 -91 836 529 
Q 422 1150 422 2328 
Q 422 3509 836 4129 
Q 1250 4750 2034 4750 
z
" transform="scale(0.015625)"/>
        <path id="DejaVuSans-2e" d="M 684 794 
L 1344 794 
L 1344 0 
L 684 0 
L 684 794 
z
" transform="scale(0.015625)"/>
        <path id="DejaVuSans-35" d="M 691 4666 
L 3169 4666 
L 3169 4134 
L 1269 4134 
L 1269 2991 
Q 1406 3038 1543 3061 
Q 1681 3084 1819 3084 
Q 2600 3084 3056 2656 
Q 3513 2228 3513 1497 
Q 3513 744 3044 326 
Q 2575 -91 1722 -91 
Q 1428 -91 1123 -41 
Q 819 9 494 109 
L 494 744 
Q 775 591 1075 516 
Q 1375 441 1709 441 
Q 2250 441 2565 725 
Q 2881 1009 2881 1497 
Q 2881 1984 2565 2268 
Q 2250 2553 1709 2553 
Q 1456 2553 1204 2497 
Q 953 2441 691 2322 
L 691 4666 
z
" transform="scale(0.015625)"/>
       </defs>
       <use xlink:href="#DejaVuSans-2212"/>
       <use xlink:href="#DejaVuSans-30" x="83.789062"/>
       <use xlink:href="#DejaVuSans-2e" x="147.412109"/>
       <use xlink:href="#DejaVuSans-35" x="179.199219"/>
      </g>
     </g>
    </g>
    <g id="xtick_2">
     <g id="line2d_2">
      <g>
       <use xlink:href="#m496155c5f4" x="133.2882" y="224.9208" style="stroke: #000000; stroke-width: 0.8"/>
      </g>
     </g>
     <g id="text_2">
      <!-- 0.0 -->
      <g transform="translate(125.336638 239.519237) scale(0.1 -0.1)">
       <use xlink:href="#DejaVuSans-30"/>
       <use xlink:href="#DejaVuSans-2e" x="63.623047"/>
       <use xlink:href="#DejaVuSans-30" x="95.410156"/>
      </g>
     </g>
    </g>
    <g id="xtick_3">
     <g id="line2d_3">
      <g>
       <use xlink:href="#m496155c5f4" x="165.7206" y="224.9208" style="stroke: #000000; stroke-width: 0.8"/>
      </g>
     </g>
     <g id="text_3">
      <!-- 0.5 -->
      <g transform="translate(157.769037 239.519237) scale(0.1 -0.1)">
       <use xlink:href="#DejaVuSans-30"/>
       <use xlink:href="#DejaVuSans-2e" x="63.623047"/>
       <use xlink:href="#DejaVuSans-35" x="95.410156"/>
      </g>
     </g>
    </g>
    <g id="xtick_4">
     <g id="line2d_4">
      <g>
       <use xlink:href="#m496155c5f4" x="198.153" y="224.9208" style="stroke: #000000; stroke-width: 0.8"/>
      </g>
     </g>
     <g id="text_4">
      <!-- 1.0 -->
      <g transform="translate(190.201437 239.519237) scale(0.1 -0.1)">
       <defs>
        <path id="DejaVuSans-31" d="M 794 531 
L 1825 531 
L 1825 4091 
L 703 3866 
L 703 4441 
L 1819 4666 
L 2450 4666 
L 2450 531 
L 3481 531 
L 3481 0 
L 794 0 
L 794 531 
z
" transform="scale(0.015625)"/>
       </defs>
       <use xlink:href="#DejaVuSans-31"/>
       <use xlink:href="#DejaVuSans-2e" x="63.623047"/>
       <use xlink:href="#DejaVuSans-30" x="95.410156"/>
      </g>
     </g>
    </g>
    <g id="xtick_5">
     <g id="line2d_5">
      <g>
       <use xlink:href="#m496155c5f4" x="230.5854" y="224.9208" style="stroke: #000000; stroke-width: 0.8"/>
      </g>
     </g>
     <g id="text_5">
      <!-- 1.5 -->
      <g transform="translate(222.633837 239.519237) scale(0.1 -0.1)">
       <use xlink:href="#DejaVuSans-31"/>
       <use xlink:href="#DejaVuSans-2e" x="63.623047"/>
       <use xlink:href="#DejaVuSans-35" x="95.410156"/>
      </g>
     </g>
    </g>
    <g id="xtick_6">
     <g id="line2d_6">
      <g>
       <use xlink:href="#m496155c5f4" x="263.0178" y="224.9208" style="stroke: #000000; stroke-width: 0.8"/>
      </g>
     </g>
     <g id="text_6">
      <!-- 2.0 -->
      <g transform="translate(255.066237 239.519237) scale(0.1 -0.1)">
       <defs>
        <path id="DejaVuSans-32" d="M 1228 531 
L 3431 531 
L 3431 0 
L 469 0 
L 469 531 
Q 828 903 1448 1529 
Q 2069 2156 2228 2338 
Q 2531 2678 2651 2914 
Q 2772 3150 2772 3378 
Q 2772 3750 2511 3984 
Q 2250 4219 1831 4219 
Q 1534 4219 1204 4116 
Q 875 4013 500 3803 
L 500 4441 
Q 881 4594 1212 4672 
Q 1544 4750 1819 4750 
Q 2544 4750 2975 4387 
Q 3406 4025 3406 3419 
Q 3406 3131 3298 2873 
Q 3191 2616 2906 2266 
Q 2828 2175 2409 1742 
Q 1991 1309 1228 531 
z
" transform="scale(0.015625)"/>
       </defs>
       <use xlink:href="#DejaVuSans-32"/>
       <use xlink:href="#DejaVuSans-2e" x="63.623047"/>
       <use xlink:href="#DejaVuSans-30" x="95.410156"/>
      </g>
     </g>
    </g>
    <g id="xtick_7">
     <g id="line2d_7">
      <g>
       <use xlink:href="#m496155c5f4" x="295.4502" y="224.9208" style="stroke: #000000; stroke-width: 0.8"/>
      </g>
     </g>
     <g id="text_7">
      <!-- 2.5 -->
      <g transform="translate(287.498637 239.519237) scale(0.1 -0.1)">
       <use xlink:href="#DejaVuSans-32"/>
       <use xlink:href="#DejaVuSans-2e" x="63.623047"/>
       <use xlink:href="#DejaVuSans-35" x="95.410156"/>
      </g>
     </g>
    </g>
    <g id="text_8">
     <!-- x(m) -->
     <g transform="translate(186.42175 253.197362) scale(0.1 -0.1)">
      <defs>
       <path id="DejaVuSans-78" d="M 3513 3500 
L 2247 1797 
L 3578 0 
L 2900 0 
L 1881 1375 
L 863 0 
L 184 0 
L 1544 1831 
L 300 3500 
L 978 3500 
L 1906 2253 
L 2834 3500 
L 3513 3500 
z
" transform="scale(0.015625)"/>
       <path id="DejaVuSans-28" d="M 1984 4856 
Q 1566 4138 1362 3434 
Q 1159 2731 1159 2009 
Q 1159 1288 1364 580 
Q 1569 -128 1984 -844 
L 1484 -844 
Q 1016 -109 783 600 
Q 550 1309 550 2009 
Q 550 2706 781 3412 
Q 1013 4119 1484 4856 
L 1984 4856 
z
" transform="scale(0.015625)"/>
       <path id="DejaVuSans-6d" d="M 3328 2828 
Q 3544 3216 3844 3400 
Q 4144 3584 4550 3584 
Q 5097 3584 5394 3201 
Q 5691 2819 5691 2113 
L 5691 0 
L 5113 0 
L 5113 2094 
Q 5113 2597 4934 2840 
Q 4756 3084 4391 3084 
Q 3944 3084 3684 2787 
Q 3425 2491 3425 1978 
L 3425 0 
L 2847 0 
L 2847 2094 
Q 2847 2600 2669 2842 
Q 2491 3084 2119 3084 
Q 1678 3084 1418 2786 
Q 1159 2488 1159 1978 
L 1159 0 
L 581 0 
L 581 3500 
L 1159 3500 
L 1159 2956 
Q 1356 3278 1631 3431 
Q 1906 3584 2284 3584 
Q 2666 3584 2933 3390 
Q 3200 3197 3328 2828 
z
" transform="scale(0.015625)"/>
       <path id="DejaVuSans-29" d="M 513 4856 
L 1013 4856 
Q 1481 4119 1714 3412 
Q 1947 2706 1947 2009 
Q 1947 1309 1714 600 
Q 1481 -109 1013 -844 
L 513 -844 
Q 928 -128 1133 580 
Q 1338 1288 1338 2009 
Q 1338 2731 1133 3434 
Q 928 4138 513 4856 
z
" transform="scale(0.015625)"/>
      </defs>
      <use xlink:href="#DejaVuSans-78"/>
      <use xlink:href="#DejaVuSans-28" x="59.179688"/>
      <use xlink:href="#DejaVuSans-6d" x="98.193359"/>
      <use xlink:href="#DejaVuSans-29" x="195.605469"/>
     </g>
    </g>
   </g>
   <g id="matplotlib.axis_2">
    <g id="ytick_1">
     <g id="line2d_8">
      <defs>
       <path id="m415d20fa0a" d="M 0 0 
L -3.5 0 
" style="stroke: #000000; stroke-width: 0.8"/>
      </defs>
      <g>
       <use xlink:href="#m415d20fa0a" x="100.8558" y="224.9208" style="stroke: #000000; stroke-width: 0.8"/>
      </g>
     </g>
     <g id="text_9">
      <!-- −0.5 -->
      <g transform="translate(69.572988 228.720019) scale(0.1 -0.1)">
       <use xlink:href="#DejaVuSans-2212"/>
       <use xlink:href="#DejaVuSans-30" x="83.789062"/>
       <use xlink:href="#DejaVuSans-2e" x="147.412109"/>
       <use xlink:href="#DejaVuSans-35" x="179.199219"/>
      </g>
     </g>
    </g>
    <g id="ytick_2">
     <g id="line2d_9">
      <g>
       <use xlink:href="#m415d20fa0a" x="100.8558" y="192.4884" style="stroke: #000000; stroke-width: 0.8"/>
      </g>
     </g>
     <g id="text_10">
      <!-- 0.0 -->
      <g transform="translate(77.952675 196.287619) scale(0.1 -0.1)">
       <use xlink:href="#DejaVuSans-30"/>
       <use xlink:href="#DejaVuSans-2e" x="63.623047"/>
       <use xlink:href="#DejaVuSans-30" x="95.410156"/>
      </g>
     </g>
    </g>
    <g id="ytick_3">
     <g id="line2d_10">
      <g>
       <use xlink:href="#m415d20fa0a" x="100.8558" y="160.056" style="stroke: #000000; stroke-width: 0.8"/>
      </g>
     </g>
     <g id="text_11">
      <!-- 0.5 -->
      <g transform="translate(77.952675 163.855219) scale(0.1 -0.1)">
       <use xlink:href="#DejaVuSans-30"/>
       <use xlink:href="#DejaVuSans-2e" x="63.623047"/>
       <use xlink:href="#DejaVuSans-35" x="95.410156"/>
      </g>
     </g>
    </g>
    <g id="ytick_4">
     <g id="line2d_11">
      <g>
       <use xlink:href="#m415d20fa0a" x="100.8558" y="127.6236" style="stroke: #000000; stroke-width: 0.8"/>
      </g>
     </g>
     <g id="text_12">
      <!-- 1.0 -->
      <g transform="translate(77.952675 131.422819) scale(0.1 -0.1)">
       <use xlink:href="#DejaVuSans-31"/>
       <use xlink:href="#DejaVuSans-2e" x="63.623047"/>
       <use xlink:href="#DejaVuSans-30" x="95.410156"/>
      </g>
     </g>
    </g>
    <g id="ytick_5">
     <g id="line2d_12">
      <g>
       <use xlink:href="#m415d20fa0a" x="100.8558" y="95.1912" style="stroke: #000000; stroke-width: 0.8"/>
      </g>
     </g>
     <g id="text_13">
      <!-- 1.5 -->
      <g transform="translate(77.952675 98.990419) scale(0.1 -0.1)">
       <use xlink:href="#DejaVuSans-31"/>
       <use xlink:href="#DejaVuSans-2e" x="63.623047"/>
       <use xlink:href="#DejaVuSans-35" x="95.410156"/>
      </g>
     </g>
    </g>
    <g id="ytick_6">
     <g id="line2d_13">
      <g>
       <use xlink:href="#m415d20fa0a" x="100.8558" y="62.7588" style="stroke: #000000; stroke-width: 0.8"/>
      </g>
     </g>
     <g id="text_14">
      <!-- 2.0 -->
      <g transform="translate(77.952675 66.558019) scale(0.1 -0.1)">
       <use xlink:href="#DejaVuSans-32"/>
       <use xlink:href="#DejaVuSans-2e" x="63.623047"/>
       <use xlink:href="#DejaVuSans-30" x="95.410156"/>
      </g>
     </g>
    </g>
    <g id="ytick_7">
     <g id="line2d_14">
      <g>
       <use xlink:href="#m415d20fa0a" x="100.8558" y="30.3264" style="stroke: #000000; stroke-width: 0.8"/>
      </g>
     </g>
     <g id="text_15">
      <!-- 2.5 -->
      <g transform="translate(77.952675 34.125619) scale(0.1 -0.1)">
       <use xlink:href="#DejaVuSans-32"/>
       <use xlink:href="#DejaVuSans-2e" x="63.623047"/>
       <use xlink:href="#DejaVuSans-35" x="95.410156"/>
      </g>
     </g>
    </g>
    <g id="text_16">
     <!-- y(m) -->
     <g transform="translate(63.4933 139.35485) rotate(-90) scale(0.1 -0.1)">
      <defs>
       <path id="DejaVuSans-79" d="M 2059 -325 
Q 1816 -950 1584 -1140 
Q 1353 -1331 966 -1331 
L 506 -1331 
L 506 -850 
L 844 -850 
Q 1081 -850 1212 -737 
Q 1344 -625 1503 -206 
L 1606 56 
L 191 3500 
L 800 3500 
L 1894 763 
L 2988 3500 
L 3597 3500 
L 2059 -325 
z
" transform="scale(0.015625)"/>
      </defs>
      <use xlink:href="#DejaVuSans-79"/>
      <use xlink:href="#DejaVuSans-28" x="59.179688"/>
      <use xlink:href="#DejaVuSans-6d" x="98.193359"/>
      <use xlink:href="#DejaVuSans-29" x="195.605469"/>
     </g>
    </g>
   </g>
   <g id="line2d_15">
    <path d="M 263.017798 127.623598 
L 263.017796 127.6236 
L 263.017804 127.623599 
L 263.017907 127.623582 
L 263.01938 127.623337 
L 263.024088 127.622555 
L 263.027145 127.622046 
L 263.032012 127.621237 
L 263.033758 127.620947 
L 263.030757 127.621446 
L 263.03611 127.620556 
L 263.046702 127.618795 
L 263.046702 127.618795 
" clip-path="url(#p57fbed9f32)" style="fill: none; stroke-dasharray: 2,3.3; stroke-dashoffset: 0; stroke: #1f77b4; stroke-width: 2"/>
   </g>
   <g id="line2d_16">
    <path d="M 133.2882 127.6236 
L 133.2882 127.6236 
L 133.768676 127.621531 
L 138.573349 127.593776 
L 147.701648 127.493337 
L 160.673863 127.41217 
L 173.646739 127.459601 
L 186.619963 127.486284 
L 199.592908 127.523189 
L 212.567005 127.607597 
L 225.536461 127.5202 
L 238.341407 126.667687 
L 249.679077 126.428069 
L 257.640665 127.139288 
L 262.299995 127.540144 
L 263.112185 127.634279 
L 263.006673 127.622341 
L 263.019112 127.623748 
L 263.017645 127.623583 
L 263.017818 127.623602 
L 263.017798 127.6236 
L 263.0178 127.6236 
L 263.017798 127.623601 
L 263.017815 127.623585 
L 263.018077 127.623447 
L 263.017767 127.623618 
L 263.017798 127.623598 
" clip-path="url(#p57fbed9f32)" style="fill: none; stroke: #1f77b4; stroke-width: 2; stroke-linecap: square"/>
   </g>
   <g id="line2d_17">
    <path d="M 241.578914 131.186704 
L 241.571319 131.203226 
L 241.570103 131.198486 
L 241.579694 131.193888 
L 241.584754 131.191312 
L 241.588586 131.189463 
L 241.591416 131.188164 
L 241.593542 131.187197 
L 241.595147 131.186459 
L 241.596414 131.185876 
L 241.602171 131.184617 
L 241.606928 131.183576 
L 241.606928 131.183576 
" clip-path="url(#p57fbed9f32)" style="fill: none; stroke-dasharray: 2,3.3; stroke-dashoffset: 0; stroke: #ff7f0e; stroke-width: 2"/>
   </g>
   <g id="line2d_18">
    <path d="M 198.153 205.46136 
L 198.153 205.46136 
L 198.164648 204.981025 
L 198.417246 200.200816 
L 199.877385 191.454013 
L 201.48243 180.264573 
L 202.738317 169.560811 
L 204.917797 161.07713 
L 207.09932 154.814228 
L 209.379241 150.892168 
L 211.999015 147.096721 
L 218.032057 141.250712 
L 226.183594 137.004547 
L 232.872114 134.000627 
L 237.806064 132.265695 
L 240.06566 131.422425 
L 240.879042 131.192219 
L 241.162835 131.331402 
L 241.412368 131.239806 
L 241.510508 131.207438 
L 241.550795 131.195585 
L 241.568181 131.191014 
L 241.575887 131.189232 
L 241.578358 131.185007 
L 241.571722 131.159098 
L 241.576011 131.178887 
L 241.578914 131.186704 
" clip-path="url(#p57fbed9f32)" style="fill: none; stroke: #ff7f0e; stroke-width: 2; stroke-linecap: square"/>
   </g>
   <g id="line2d_19">
    <path d="M 133.288214 95.190935 
L 133.288212 95.190937 
L 133.28821 95.19094 
L 133.288208 95.190945 
L 133.288207 95.190952 
L 133.288205 95.190963 
L 133.288204 95.190976 
L 133.288203 95.190993 
L 133.288202 95.19101 
L 133.288201 95.191026 
L 133.288201 95.191038 
L 133.288201 95.191043 
L 133.288201 95.191043 
" clip-path="url(#p57fbed9f32)" style="fill: none; stroke-dasharray: 2,3.3; stroke-dashoffset: 0; stroke: #2ca02c; stroke-width: 2"/>
   </g>
   <g id="line2d_20">
    <path d="M 133.2882 95.1912 
L 133.2882 95.1912 
L 133.2882 95.1912 
L 133.288202 95.1912 
L 133.288204 95.191197 
L 133.288206 95.19119 
L 133.288211 95.191173 
L 133.288216 95.191155 
L 133.288222 95.191135 
L 133.288224 95.191111 
L 133.288228 95.191086 
L 133.28823 95.191064 
L 133.288232 95.191043 
L 133.288235 95.191023 
L 133.288236 95.191005 
L 133.288236 95.19099 
L 133.288235 95.190976 
L 133.288234 95.190965 
L 133.288232 95.190955 
L 133.28823 95.190948 
L 133.288228 95.190942 
L 133.288225 95.190938 
L 133.288223 95.190935 
L 133.288221 95.190934 
L 133.288218 95.190933 
L 133.288216 95.190934 
L 133.288214 95.190935 
" clip-path="url(#p57fbed9f32)" style="fill: none; stroke: #2ca02c; stroke-width: 2; stroke-linecap: square"/>
   </g>
   <g id="line2d_21">
    <path d="M 165.720704 95.191334 
L 165.720715 95.191341 
L 165.720733 95.191351 
L 165.720752 95.19136 
L 165.72076 95.191359 
L 165.720757 95.191349 
L 165.720747 95.191332 
L 165.720731 95.19131 
L 165.720712 95.191284 
L 165.720694 95.191258 
L 165.720679 95.191235 
L 165.720672 95.191223 
L 165.720672 95.191223 
" clip-path="url(#p57fbed9f32)" style="fill: none; stroke-dasharray: 2,3.3; stroke-dashoffset: 0; stroke: #d62728; stroke-width: 2"/>
   </g>
   <g id="line2d_22">
    <path d="M 165.7206 95.1912 
L 165.7206 95.1912 
L 165.720601 95.191194 
L 165.720603 95.19115 
L 165.720581 95.191153 
L 165.720541 95.191158 
L 165.720483 95.19116 
L 165.720422 95.191125 
L 165.720366 95.191081 
L 165.720311 95.191045 
L 165.720281 95.191024 
L 165.720264 95.191013 
L 165.720261 95.191012 
L 165.720272 95.191017 
L 165.720291 95.191024 
L 165.720326 95.19105 
L 165.720369 95.191085 
L 165.720416 95.191123 
L 165.720464 95.19116 
L 165.720509 95.191195 
L 165.720551 95.191227 
L 165.720588 95.191254 
L 165.720621 95.191278 
L 165.720649 95.191297 
L 165.720672 95.191313 
L 165.72069 95.191325 
L 165.720704 95.191334 
" clip-path="url(#p57fbed9f32)" style="fill: none; stroke: #d62728; stroke-width: 2; stroke-linecap: square"/>
   </g>
   <g id="line2d_23">
    <path d="M 230.585671 95.190436 
L 230.585666 95.190422 
L 230.585686 95.190421 
L 230.585721 95.190465 
L 230.585742 95.190572 
L 230.585741 95.19071 
L 230.585715 95.190841 
L 230.585667 95.190952 
L 230.585607 95.191047 
L 230.585548 95.191123 
L 230.585504 95.191173 
L 230.585482 95.191195 
L 230.585482 95.191195 
" clip-path="url(#p57fbed9f32)" style="fill: none; stroke-dasharray: 2,3.3; stroke-dashoffset: 0; stroke: #9467bd; stroke-width: 2"/>
   </g>
   <g id="line2d_24">
    <path d="M 230.5854 95.1912 
L 230.5854 95.1912 
L 230.5854 95.191198 
L 230.585399 95.191183 
L 230.585405 95.191174 
L 230.585427 95.191186 
L 230.585443 95.191202 
L 230.585457 95.191257 
L 230.585477 95.191298 
L 230.585509 95.191287 
L 230.585553 95.191222 
L 230.585594 95.19117 
L 230.58563 95.191129 
L 230.585659 95.191094 
L 230.585686 95.191036 
L 230.585704 95.190962 
L 230.585716 95.190885 
L 230.585722 95.190811 
L 230.585723 95.190742 
L 230.585721 95.190679 
L 230.585717 95.190624 
L 230.585711 95.190576 
L 230.585704 95.190535 
L 230.585696 95.190502 
L 230.585687 95.190475 
L 230.585679 95.190453 
L 230.585671 95.190436 
" clip-path="url(#p57fbed9f32)" style="fill: none; stroke: #9467bd; stroke-width: 2; stroke-linecap: square"/>
   </g>
   <g id="line2d_25">
    <path d="M 263.017778 95.190969 
L 263.017781 95.190974 
L 263.017783 95.190979 
L 263.017786 95.190987 
L 263.017788 95.190997 
L 263.01779 95.19101 
L 263.017792 95.191025 
L 263.017794 95.191042 
L 263.017795 95.19106 
L 263.017796 95.191076 
L 263.017797 95.191088 
L 263.017797 95.191093 
L 263.017797 95.191093 
" clip-path="url(#p57fbed9f32)" style="fill: none; stroke-dasharray: 2,3.3; stroke-dashoffset: 0; stroke: #8c564b; stroke-width: 2"/>
   </g>
   <g id="line2d_26">
    <path d="M 263.0178 95.1912 
L 263.0178 95.1912 
L 263.017801 95.1912 
L 263.017807 95.191203 
L 263.017812 95.191199 
L 263.017815 95.191193 
L 263.017817 95.191185 
L 263.017818 95.191173 
L 263.017819 95.191161 
L 263.017818 95.19115 
L 263.017817 95.191135 
L 263.017814 95.191106 
L 263.017803 95.191071 
L 263.017793 95.191044 
L 263.017784 95.191022 
L 263.017777 95.191004 
L 263.017772 95.190989 
L 263.017769 95.190978 
L 263.017766 95.190969 
L 263.017765 95.190963 
L 263.017765 95.190959 
L 263.017766 95.190957 
L 263.017768 95.190957 
L 263.01777 95.190959 
L 263.017772 95.190961 
L 263.017775 95.190965 
L 263.017778 95.190969 
" clip-path="url(#p57fbed9f32)" style="fill: none; stroke: #8c564b; stroke-width: 2; stroke-linecap: square"/>
   </g>
   <g id="line2d_27">
    <path d="M 133.288221 160.056236 
L 133.288216 160.056238 
L 133.288213 160.05624 
L 133.288209 160.056239 
L 133.288206 160.056235 
L 133.288203 160.056227 
L 133.288201 160.056216 
L 133.288199 160.056203 
L 133.288198 160.056187 
L 133.288197 160.056172 
L 133.288197 160.056161 
L 133.288197 160.056156 
L 133.288197 160.056156 
" clip-path="url(#p57fbed9f32)" style="fill: none; stroke-dasharray: 2,3.3; stroke-dashoffset: 0; stroke: #e377c2; stroke-width: 2"/>
   </g>
   <g id="line2d_28">
    <path d="M 133.2882 160.056 
L 133.2882 160.056 
L 133.2882 160.056 
L 133.288203 160.056 
L 133.288205 160.056004 
L 133.288208 160.056011 
L 133.28821 160.05602 
L 133.288212 160.056031 
L 133.288213 160.056043 
L 133.288215 160.056057 
L 133.288218 160.056072 
L 133.288228 160.056085 
L 133.288237 160.056099 
L 133.288244 160.056114 
L 133.288249 160.056128 
L 133.288252 160.056143 
L 133.288253 160.056156 
L 133.288253 160.056169 
L 133.288251 160.056181 
L 133.288249 160.056191 
L 133.288246 160.056201 
L 133.288242 160.056209 
L 133.288238 160.056217 
L 133.288234 160.056223 
L 133.288229 160.056228 
L 133.288225 160.056232 
L 133.288221 160.056236 
" clip-path="url(#p57fbed9f32)" style="fill: none; stroke: #e377c2; stroke-width: 2; stroke-linecap: square"/>
   </g>
   <g id="line2d_29">
    <path d="M 165.720672 160.055833 
L 165.720691 160.055837 
L 165.720716 160.055836 
L 165.720743 160.055834 
L 165.720758 160.055839 
L 165.720761 160.055852 
L 165.720754 160.055871 
L 165.720741 160.055894 
L 165.720723 160.055922 
L 165.720704 160.055951 
L 165.72069 160.055977 
L 165.720683 160.055991 
L 165.720683 160.055991 
" clip-path="url(#p57fbed9f32)" style="fill: none; stroke-dasharray: 2,3.3; stroke-dashoffset: 0; stroke: #7f7f7f; stroke-width: 2"/>
   </g>
   <g id="line2d_30">
    <path d="M 165.7206 160.056 
L 165.7206 160.056 
L 165.7206 160.055997 
L 165.720599 160.05597 
L 165.720579 160.055908 
L 165.72054 160.055856 
L 165.720503 160.055767 
L 165.72048 160.055656 
L 165.720446 160.055586 
L 165.720426 160.055548 
L 165.720405 160.055537 
L 165.720398 160.05555 
L 165.720388 160.055578 
L 165.720397 160.055602 
L 165.720396 160.055649 
L 165.720377 160.055687 
L 165.720378 160.055717 
L 165.720394 160.05574 
L 165.72042 160.055758 
L 165.720453 160.055772 
L 165.720489 160.055784 
L 165.720526 160.055795 
L 165.720561 160.055805 
L 165.720594 160.055814 
L 165.720624 160.055822 
L 165.72065 160.055828 
L 165.720672 160.055833 
" clip-path="url(#p57fbed9f32)" style="fill: none; stroke: #7f7f7f; stroke-width: 2; stroke-linecap: square"/>
   </g>
   <g id="line2d_31">
    <path d="M 230.585635 160.056032 
L 230.585631 160.056032 
L 230.585639 160.056032 
L 230.58565 160.05603 
L 230.585646 160.056026 
L 230.585627 160.056022 
L 230.585597 160.056018 
L 230.585558 160.056014 
L 230.585515 160.05601 
L 230.585476 160.056008 
L 230.585448 160.056006 
L 230.585434 160.056005 
L 230.585434 160.056005 
" clip-path="url(#p57fbed9f32)" style="fill: none; stroke-dasharray: 2,3.3; stroke-dashoffset: 0; stroke: #bcbd22; stroke-width: 2"/>
   </g>
   <g id="line2d_32">
    <path d="M 230.5854 160.056 
L 230.5854 160.056 
L 230.5854 160.056002 
L 230.585404 160.056019 
L 230.585426 160.055987 
L 230.585441 160.055965 
L 230.585453 160.055958 
L 230.585459 160.055962 
L 230.585459 160.055967 
L 230.585467 160.055979 
L 230.585475 160.055991 
L 230.58547 160.056002 
L 230.585459 160.056052 
L 230.585468 160.056053 
L 230.585489 160.056051 
L 230.58552 160.056047 
L 230.585555 160.056044 
L 230.585584 160.056041 
L 230.585606 160.056038 
L 230.585623 160.056036 
L 230.585634 160.056034 
L 230.585641 160.056033 
L 230.585645 160.056032 
L 230.585645 160.056031 
L 230.585643 160.056031 
L 230.58564 160.056031 
L 230.585635 160.056032 
" clip-path="url(#p57fbed9f32)" style="fill: none; stroke: #bcbd22; stroke-width: 2; stroke-linecap: square"/>
   </g>
   <g id="line2d_33">
    <path d="M 263.017793 160.056227 
L 263.017795 160.056225 
L 263.017797 160.056222 
L 263.017798 160.056217 
L 263.017799 160.056209 
L 263.017799 160.056198 
L 263.017799 160.056184 
L 263.017799 160.056167 
L 263.017799 160.05615 
L 263.017799 160.056134 
L 263.017799 160.056122 
L 263.017799 160.056117 
L 263.017799 160.056117 
" clip-path="url(#p57fbed9f32)" style="fill: none; stroke-dasharray: 2,3.3; stroke-dashoffset: 0; stroke: #17becf; stroke-width: 2"/>
   </g>
   <g id="line2d_34">
    <path d="M 263.0178 160.056 
L 263.0178 160.056 
L 263.0178 160.056 
L 263.0178 160.056 
L 263.0178 160.056006 
L 263.017801 160.056017 
L 263.017802 160.056031 
L 263.017798 160.056043 
L 263.017795 160.056057 
L 263.017792 160.056072 
L 263.017789 160.056089 
L 263.017785 160.056112 
L 263.017783 160.056135 
L 263.01778 160.056158 
L 263.017778 160.056174 
L 263.017777 160.056187 
L 263.017777 160.056198 
L 263.017777 160.056207 
L 263.017778 160.056214 
L 263.017779 160.05622 
L 263.017781 160.056224 
L 263.017783 160.056227 
L 263.017785 160.056229 
L 263.017787 160.056229 
L 263.017789 160.056229 
L 263.017791 160.056228 
L 263.017793 160.056227 
" clip-path="url(#p57fbed9f32)" style="fill: none; stroke: #17becf; stroke-width: 2; stroke-linecap: square"/>
   </g>
   <g id="line2d_35">
    <path d="M 230.586097 62.758955 
L 230.586148 62.758975 
L 230.586227 62.759 
L 230.586307 62.759025 
L 230.586335 62.759035 
L 230.586305 62.75903 
L 230.586225 62.759011 
L 230.586104 62.758981 
L 230.58596 62.758945 
L 230.585814 62.758908 
L 230.585699 62.758879 
L 230.585644 62.758864 
L 230.585644 62.758864 
" clip-path="url(#p57fbed9f32)" style="fill: none; stroke-dasharray: 2,3.3; stroke-dashoffset: 0; stroke: #2f4f4f; stroke-width: 2"/>
   </g>
   <g id="line2d_36">
    <path d="M 230.5854 62.7588 
L 230.5854 62.7588 
L 230.5854 62.758798 
L 230.585398 62.758783 
L 230.585395 62.75877 
L 230.585392 62.758761 
L 230.585391 62.758756 
L 230.585392 62.758754 
L 230.585393 62.758755 
L 230.585397 62.758759 
L 230.585416 62.758765 
L 230.585444 62.758771 
L 230.585472 62.758776 
L 230.585495 62.75878 
L 230.585546 62.758771 
L 230.585621 62.758774 
L 230.585706 62.758784 
L 230.585744 62.758792 
L 230.585802 62.758807 
L 230.585867 62.758827 
L 230.585882 62.758841 
L 230.585918 62.758859 
L 230.585969 62.758882 
L 230.586024 62.758905 
L 230.586033 62.758919 
L 230.586058 62.758937 
L 230.586097 62.758955 
" clip-path="url(#p57fbed9f32)" style="fill: none; stroke: #2f4f4f; stroke-width: 2; stroke-linecap: square"/>
   </g>
   <g id="line2d_37">
    <path d="M 230.585368 30.326504 
L 230.585372 30.326493 
L 230.585375 30.32648 
L 230.585376 30.326465 
L 230.585378 30.32645 
L 230.58538 30.326434 
L 230.585382 30.326417 
L 230.585385 30.326401 
L 230.585388 30.326387 
L 230.585391 30.326375 
L 230.585393 30.326368 
L 230.585394 30.326365 
L 230.585394 30.326365 
" clip-path="url(#p57fbed9f32)" style="fill: none; stroke-dasharray: 2,3.3; stroke-dashoffset: 0; stroke: #cd5c5c; stroke-width: 2"/>
   </g>
   <g id="line2d_38">
    <path d="M 230.5854 30.3264 
L 230.5854 30.3264 
L 230.585397 30.326406 
L 230.585368 30.32646 
L 230.585347 30.326501 
L 230.585328 30.326531 
L 230.585311 30.326561 
L 230.585298 30.326587 
L 230.585288 30.326613 
L 230.585283 30.326639 
L 230.58528 30.326662 
L 230.58528 30.326679 
L 230.585281 30.32669 
L 230.585284 30.326694 
L 230.585289 30.326696 
L 230.585295 30.326687 
L 230.585301 30.326673 
L 230.585306 30.326653 
L 230.585313 30.326633 
L 230.58532 30.326614 
L 230.585329 30.326596 
L 230.585337 30.326578 
L 230.585345 30.326561 
L 230.585351 30.326544 
L 230.585358 30.32653 
L 230.585363 30.326515 
L 230.585368 30.326504 
" clip-path="url(#p57fbed9f32)" style="fill: none; stroke: #cd5c5c; stroke-width: 2; stroke-linecap: square"/>
   </g>
   <g id="line2d_39">
    <path clip-path="url(#p57fbed9f32)" style="fill: none; stroke-dasharray: 2,3.3; stroke-dashoffset: 0; stroke: #add8e6; stroke-width: 2"/>
   </g>
   <g id="line2d_40">
    <path clip-path="url(#p57fbed9f32)" style="fill: none; stroke: #add8e6; stroke-width: 2; stroke-linecap: square"/>
   </g>
   <g id="line2d_41">
    <path d="M 230.58638 192.48844 
L 230.586426 192.488431 
L 230.586493 192.48842 
L 230.586556 192.488398 
L 230.58656 192.488363 
L 230.586498 192.488329 
L 230.586378 192.488308 
L 230.586216 192.488306 
L 230.58603 192.488318 
L 230.585847 192.488335 
L 230.585707 192.488349 
L 230.585641 192.488356 
L 230.585641 192.488356 
" clip-path="url(#p57fbed9f32)" style="fill: none; stroke-dasharray: 2,3.3; stroke-dashoffset: 0; stroke: #663399; stroke-width: 2"/>
   </g>
   <g id="line2d_42">
    <path d="M 230.5854 192.4884 
L 230.5854 192.4884 
L 230.5854 192.488401 
L 230.585403 192.488407 
L 230.585406 192.488411 
L 230.585406 192.488417 
L 230.585392 192.488421 
L 230.585383 192.488425 
L 230.585389 192.488426 
L 230.585399 192.488429 
L 230.585436 192.488433 
L 230.585469 192.48843 
L 230.585487 192.488434 
L 230.585503 192.488436 
L 230.585517 192.488438 
L 230.585562 192.488431 
L 230.585625 192.488433 
L 230.585699 192.48844 
L 230.585782 192.488448 
L 230.585869 192.488457 
L 230.585957 192.488463 
L 230.586043 192.488466 
L 230.586125 192.488466 
L 230.5862 192.488463 
L 230.586268 192.488457 
L 230.586328 192.48845 
L 230.58638 192.48844 
" clip-path="url(#p57fbed9f32)" style="fill: none; stroke: #663399; stroke-width: 2; stroke-linecap: square"/>
   </g>
   <g id="line2d_43">
    <path d="M 230.585371 224.920707 
L 230.585374 224.920704 
L 230.585376 224.920705 
L 230.585377 224.920709 
L 230.585378 224.920718 
L 230.585379 224.92073 
L 230.585381 224.920746 
L 230.585383 224.920764 
L 230.585386 224.920782 
L 230.585389 224.920797 
L 230.585392 224.920808 
L 230.585393 224.920813 
L 230.585393 224.920813 
" clip-path="url(#p57fbed9f32)" style="fill: none; stroke-dasharray: 2,3.3; stroke-dashoffset: 0; stroke: #8fbc8f; stroke-width: 2"/>
   </g>
   <g id="line2d_44">
    <path d="M 230.5854 224.9208 
L 230.5854 224.9208 
L 230.585398 224.920803 
L 230.585385 224.920825 
L 230.585374 224.920843 
L 230.585366 224.920859 
L 230.58536 224.920873 
L 230.585355 224.920875 
L 230.58535 224.920871 
L 230.585345 224.920863 
L 230.585339 224.920855 
L 230.585333 224.920853 
L 230.585327 224.920853 
L 230.585323 224.920851 
L 230.585321 224.920846 
L 230.585319 224.920843 
L 230.58532 224.920837 
L 230.585321 224.920829 
L 230.585324 224.92082 
L 230.58533 224.920803 
L 230.585336 224.920785 
L 230.585342 224.920768 
L 230.585349 224.920751 
L 230.585356 224.920735 
L 230.585362 224.920724 
L 230.585367 224.920714 
L 230.585371 224.920707 
" clip-path="url(#p57fbed9f32)" style="fill: none; stroke: #8fbc8f; stroke-width: 2; stroke-linecap: square"/>
   </g>
   <g id="line2d_45">
    <path clip-path="url(#p57fbed9f32)" style="fill: none; stroke-dasharray: 2,3.3; stroke-dashoffset: 0; stroke: #00ced1; stroke-width: 2"/>
   </g>
   <g id="line2d_46">
    <path clip-path="url(#p57fbed9f32)" style="fill: none; stroke: #00ced1; stroke-width: 2; stroke-linecap: square"/>
   </g>
   <g id="line2d_47">
    <path d="M 165.720625 62.759093 
L 165.720631 62.759099 
L 165.720638 62.759102 
L 165.720646 62.759096 
L 165.72065 62.759076 
L 165.72065 62.759042 
L 165.720647 62.758995 
L 165.720643 62.758939 
L 165.720641 62.758883 
L 165.72064 62.758835 
L 165.720643 62.758806 
L 165.720647 62.758795 
L 165.720647 62.758795 
" clip-path="url(#p57fbed9f32)" style="fill: none; stroke-dasharray: 2,3.3; stroke-dashoffset: 0; stroke: #6a5acd; stroke-width: 2"/>
   </g>
   <g id="line2d_48">
    <path d="M 165.7206 62.7588 
L 165.7206 62.7588 
L 165.7206 62.758797 
L 165.720599 62.758767 
L 165.720603 62.758741 
L 165.720606 62.758721 
L 165.720609 62.758707 
L 165.720611 62.7587 
L 165.72061 62.758699 
L 165.720606 62.758707 
L 165.720599 62.758726 
L 165.72059 62.758749 
L 165.72058 62.758775 
L 165.720571 62.758803 
L 165.720562 62.758831 
L 165.720558 62.758862 
L 165.720558 62.758892 
L 165.720561 62.758923 
L 165.720566 62.758952 
L 165.720572 62.758979 
L 165.72058 62.759004 
L 165.720588 62.759026 
L 165.720596 62.759045 
L 165.720604 62.759061 
L 165.720612 62.759074 
L 165.720619 62.759085 
L 165.720625 62.759093 
" clip-path="url(#p57fbed9f32)" style="fill: none; stroke: #6a5acd; stroke-width: 2; stroke-linecap: square"/>
   </g>
   <g id="line2d_49">
    <path d="M 165.720621 30.326463 
L 165.720623 30.32645 
L 165.720624 30.326435 
L 165.720624 30.326419 
L 165.720624 30.326403 
L 165.720622 30.326388 
L 165.720619 30.326374 
L 165.720614 30.326361 
L 165.720609 30.326351 
L 165.720605 30.326343 
L 165.720602 30.32634 
L 165.720601 30.32634 
L 165.720601 30.32634 
" clip-path="url(#p57fbed9f32)" style="fill: none; stroke-dasharray: 2,3.3; stroke-dashoffset: 0; stroke: #808000; stroke-width: 2"/>
   </g>
   <g id="line2d_50">
    <path d="M 165.7206 30.3264 
L 165.7206 30.3264 
L 165.7206 30.326398 
L 165.720603 30.326374 
L 165.720607 30.326333 
L 165.720608 30.326303 
L 165.720608 30.326285 
L 165.720609 30.326278 
L 165.720611 30.326286 
L 165.720616 30.326304 
L 165.720622 30.32633 
L 165.720624 30.32636 
L 165.720622 30.326408 
L 165.720619 30.326449 
L 165.720616 30.326482 
L 165.720615 30.326507 
L 165.720614 30.326522 
L 165.720613 30.326532 
L 165.720614 30.326535 
L 165.720614 30.326534 
L 165.720615 30.326529 
L 165.720616 30.326522 
L 165.720617 30.326512 
L 165.720618 30.326501 
L 165.720619 30.326489 
L 165.72062 30.326476 
L 165.720621 30.326463 
" clip-path="url(#p57fbed9f32)" style="fill: none; stroke: #808000; stroke-width: 2; stroke-linecap: square"/>
   </g>
   <g id="line2d_51">
    <path clip-path="url(#p57fbed9f32)" style="fill: none; stroke-dasharray: 2,3.3; stroke-dashoffset: 0; stroke: #a0522d; stroke-width: 2"/>
   </g>
   <g id="line2d_52">
    <path clip-path="url(#p57fbed9f32)" style="fill: none; stroke: #a0522d; stroke-width: 2; stroke-linecap: square"/>
   </g>
   <g id="line2d_53">
    <path d="M 165.720621 192.488251 
L 165.720626 192.488236 
L 165.720631 192.488224 
L 165.720636 192.488218 
L 165.720638 192.488222 
L 165.720637 192.488237 
L 165.720635 192.488262 
L 165.720631 192.488294 
L 165.720627 192.488329 
L 165.720623 192.488361 
L 165.720619 192.488383 
L 165.720617 192.488393 
L 165.720617 192.488393 
" clip-path="url(#p57fbed9f32)" style="fill: none; stroke-dasharray: 2,3.3; stroke-dashoffset: 0; stroke: #ff4500; stroke-width: 2"/>
   </g>
   <g id="line2d_54">
    <path d="M 165.7206 192.4884 
L 165.7206 192.4884 
L 165.720601 192.488405 
L 165.720611 192.488452 
L 165.720617 192.488491 
L 165.720591 192.488535 
L 165.720574 192.488568 
L 165.720557 192.488592 
L 165.720554 192.48862 
L 165.720547 192.488655 
L 165.720505 192.488686 
L 165.72045 192.488683 
L 165.720421 192.488672 
L 165.720425 192.488655 
L 165.72044 192.488631 
L 165.720459 192.488601 
L 165.720479 192.488566 
L 165.7205 192.488528 
L 165.72052 192.488489 
L 165.720539 192.488451 
L 165.720556 192.488414 
L 165.720572 192.488379 
L 165.720585 192.488346 
L 165.720597 192.488317 
L 165.720607 192.488292 
L 165.720615 192.48827 
L 165.720621 192.488251 
" clip-path="url(#p57fbed9f32)" style="fill: none; stroke: #ff4500; stroke-width: 2; stroke-linecap: square"/>
   </g>
   <g id="line2d_55">
    <path d="M 165.720632 224.920695 
L 165.720627 224.920703 
L 165.720622 224.92071 
L 165.720617 224.920717 
L 165.720612 224.920726 
L 165.720607 224.920736 
L 165.720603 224.920747 
L 165.720599 224.920761 
L 165.720595 224.920775 
L 165.720593 224.920787 
L 165.720592 224.920794 
L 165.720592 224.920796 
L 165.720592 224.920796 
" clip-path="url(#p57fbed9f32)" style="fill: none; stroke-dasharray: 2,3.3; stroke-dashoffset: 0; stroke: #708090; stroke-width: 2"/>
   </g>
   <g id="line2d_56">
    <path d="M 165.7206 224.9208 
L 165.7206 224.9208 
L 165.720602 224.920799 
L 165.720621 224.92079 
L 165.720636 224.920783 
L 165.720647 224.920788 
L 165.720655 224.920803 
L 165.720661 224.920807 
L 165.720666 224.920806 
L 165.720669 224.920799 
L 165.720672 224.920786 
L 165.720674 224.920768 
L 165.720677 224.920745 
L 165.72068 224.92072 
L 165.72068 224.920698 
L 165.720682 224.920675 
L 165.720682 224.920658 
L 165.720679 224.920647 
L 165.720676 224.920642 
L 165.720671 224.920639 
L 165.720666 224.920642 
L 165.72066 224.920649 
L 165.720655 224.920657 
L 165.720649 224.920666 
L 165.720643 224.920676 
L 165.720637 224.920685 
L 165.720632 224.920695 
" clip-path="url(#p57fbed9f32)" style="fill: none; stroke: #708090; stroke-width: 2; stroke-linecap: square"/>
   </g>
   <g id="line2d_57">
    <path clip-path="url(#p57fbed9f32)" style="fill: none; stroke-dasharray: 2,3.3; stroke-dashoffset: 0; stroke: #bdb76b; stroke-width: 2"/>
   </g>
   <g id="line2d_58">
    <path clip-path="url(#p57fbed9f32)" style="fill: none; stroke: #bdb76b; stroke-width: 2; stroke-linecap: square"/>
   </g>
   <g id="patch_3">
    <path d="M 100.8558 224.9208 
L 100.8558 30.3264 
" style="fill: none; stroke: #000000; stroke-width: 0.8; stroke-linejoin: miter; stroke-linecap: square"/>
   </g>
   <g id="patch_4">
    <path d="M 295.4502 224.9208 
L 295.4502 30.3264 
" style="fill: none; stroke: #000000; stroke-width: 0.8; stroke-linejoin: miter; stroke-linecap: square"/>
   </g>
   <g id="patch_5">
    <path d="M 100.8558 224.9208 
L 295.4502 224.9208 
" style="fill: none; stroke: #000000; stroke-width: 0.8; stroke-linejoin: miter; stroke-linecap: square"/>
   </g>
   <g id="patch_6">
    <path d="M 100.8558 30.3264 
L 295.4502 30.3264 
" style="fill: none; stroke: #000000; stroke-width: 0.8; stroke-linejoin: miter; stroke-linecap: square"/>
   </g>
   <g id="patch_7">
    <path d="M 263.017798 137.353318 
C 265.59815 137.353318 268.073165 136.328133 269.897749 134.503549 
C 271.722333 132.678965 272.747518 130.20395 272.747518 127.623598 
C 272.747518 125.043246 271.722333 122.568231 269.897749 120.743647 
C 268.073165 118.919063 265.59815 117.893878 263.017798 117.893878 
C 260.437446 117.893878 257.962431 118.919063 256.137847 120.743647 
C 254.313263 122.568231 253.288078 125.043246 253.288078 127.623598 
C 253.288078 130.20395 254.313263 132.678965 256.137847 134.503549 
C 257.962431 136.328133 260.437446 137.353318 263.017798 137.353318 
z
" clip-path="url(#p57fbed9f32)" style="fill: #1f77b4; stroke: #000000; stroke-linejoin: miter"/>
   </g>
   <g id="patch_8">
    <path d="M 241.578914 140.916424 
C 244.159265 140.916424 246.63428 139.891239 248.458865 138.066655 
C 250.283449 136.24207 251.308634 133.767056 251.308634 131.186704 
C 251.308634 128.606352 250.283449 126.131337 248.458865 124.306753 
C 246.63428 122.482168 244.159265 121.456984 241.578914 121.456984 
C 238.998562 121.456984 236.523547 122.482168 234.698963 124.306753 
C 232.874378 126.131337 231.849194 128.606352 231.849194 131.186704 
C 231.849194 133.767056 232.874378 136.24207 234.698963 138.066655 
C 236.523547 139.891239 238.998562 140.916424 241.578914 140.916424 
z
" clip-path="url(#p57fbed9f32)" style="fill: #ff7f0e; stroke: #000000; stroke-linejoin: miter"/>
   </g>
   <g id="patch_9">
    <path d="M 133.288214 104.920655 
C 135.868566 104.920655 138.343581 103.895471 140.168165 102.070886 
C 141.992749 100.246302 143.017934 97.771287 143.017934 95.190935 
C 143.017934 92.610583 141.992749 90.135569 140.168165 88.310984 
C 138.343581 86.4864 135.868566 85.461215 133.288214 85.461215 
C 130.707862 85.461215 128.232847 86.4864 126.408263 88.310984 
C 124.583679 90.135569 123.558494 92.610583 123.558494 95.190935 
C 123.558494 97.771287 124.583679 100.246302 126.408263 102.070886 
C 128.232847 103.895471 130.707862 104.920655 133.288214 104.920655 
z
" clip-path="url(#p57fbed9f32)" style="fill: #2ca02c; stroke: #000000; stroke-linejoin: miter"/>
   </g>
   <g id="patch_10">
    <path d="M 165.720704 104.921054 
C 168.301056 104.921054 170.77607 103.895869 172.600655 102.071285 
C 174.425239 100.246701 175.450424 97.771686 175.450424 95.191334 
C 175.450424 92.610982 174.425239 90.135967 172.600655 88.311383 
C 170.77607 86.486799 168.301056 85.461614 165.720704 85.461614 
C 163.140352 85.461614 160.665337 86.486799 158.840753 88.311383 
C 157.016168 90.135967 155.990984 92.610982 155.990984 95.191334 
C 155.990984 97.771686 157.016168 100.246701 158.840753 102.071285 
C 160.665337 103.895869 163.140352 104.921054 165.720704 104.921054 
z
" clip-path="url(#p57fbed9f32)" style="fill: #d62728; stroke: #000000; stroke-linejoin: miter"/>
   </g>
   <g id="patch_11">
    <path d="M 230.585671 104.920156 
C 233.166023 104.920156 235.641038 103.894971 237.465622 102.070387 
C 239.290206 100.245802 240.315391 97.770787 240.315391 95.190436 
C 240.315391 92.610084 239.290206 90.135069 237.465622 88.310485 
C 235.641038 86.4859 233.166023 85.460716 230.585671 85.460716 
C 228.005319 85.460716 225.530304 86.4859 223.70572 88.310485 
C 221.881136 90.135069 220.855951 92.610084 220.855951 95.190436 
C 220.855951 97.770787 221.881136 100.245802 223.70572 102.070387 
C 225.530304 103.894971 228.005319 104.920156 230.585671 104.920156 
z
" clip-path="url(#p57fbed9f32)" style="fill: #9467bd; stroke: #000000; stroke-linejoin: miter"/>
   </g>
   <g id="patch_12">
    <path d="M 263.017778 104.920689 
C 265.59813 104.920689 268.073144 103.895504 269.897729 102.07092 
C 271.722313 100.246336 272.747498 97.771321 272.747498 95.190969 
C 272.747498 92.610617 271.722313 90.135602 269.897729 88.311018 
C 268.073144 86.486434 265.59813 85.461249 263.017778 85.461249 
C 260.437426 85.461249 257.962411 86.486434 256.137827 88.311018 
C 254.313242 90.135602 253.288058 92.610617 253.288058 95.190969 
C 253.288058 97.771321 254.313242 100.246336 256.137827 102.07092 
C 257.962411 103.895504 260.437426 104.920689 263.017778 104.920689 
z
" clip-path="url(#p57fbed9f32)" style="fill: #8c564b; stroke: #000000; stroke-linejoin: miter"/>
   </g>
   <g id="patch_13">
    <path d="M 133.288221 169.785956 
C 135.868573 169.785956 138.343587 168.760771 140.168172 166.936187 
C 141.992756 165.111602 143.017941 162.636588 143.017941 160.056236 
C 143.017941 157.475884 141.992756 155.000869 140.168172 153.176285 
C 138.343587 151.3517 135.868573 150.326516 133.288221 150.326516 
C 130.707869 150.326516 128.232854 151.3517 126.40827 153.176285 
C 124.583685 155.000869 123.558501 157.475884 123.558501 160.056236 
C 123.558501 162.636588 124.583685 165.111602 126.40827 166.936187 
C 128.232854 168.760771 130.707869 169.785956 133.288221 169.785956 
z
" clip-path="url(#p57fbed9f32)" style="fill: #e377c2; stroke: #000000; stroke-linejoin: miter"/>
   </g>
   <g id="patch_14">
    <path d="M 165.720672 169.785553 
C 168.301024 169.785553 170.776038 168.760369 172.600623 166.935784 
C 174.425207 165.1112 175.450392 162.636185 175.450392 160.055833 
C 175.450392 157.475481 174.425207 155.000467 172.600623 153.175882 
C 170.776038 151.351298 168.301024 150.326113 165.720672 150.326113 
C 163.14032 150.326113 160.665305 151.351298 158.840721 153.175882 
C 157.016136 155.000467 155.990952 157.475481 155.990952 160.055833 
C 155.990952 162.636185 157.016136 165.1112 158.840721 166.935784 
C 160.665305 168.760369 163.14032 169.785553 165.720672 169.785553 
z
" clip-path="url(#p57fbed9f32)" style="fill: #7f7f7f; stroke: #000000; stroke-linejoin: miter"/>
   </g>
   <g id="patch_15">
    <path d="M 230.585635 169.785752 
C 233.165987 169.785752 235.641002 168.760567 237.465586 166.935983 
C 239.29017 165.111398 240.315355 162.636384 240.315355 160.056032 
C 240.315355 157.47568 239.29017 155.000665 237.465586 153.176081 
C 235.641002 151.351496 233.165987 150.326312 230.585635 150.326312 
C 228.005283 150.326312 225.530268 151.351496 223.705684 153.176081 
C 221.8811 155.000665 220.855915 157.47568 220.855915 160.056032 
C 220.855915 162.636384 221.8811 165.111398 223.705684 166.935983 
C 225.530268 168.760567 228.005283 169.785752 230.585635 169.785752 
z
" clip-path="url(#p57fbed9f32)" style="fill: #bcbd22; stroke: #000000; stroke-linejoin: miter"/>
   </g>
   <g id="patch_16">
    <path d="M 263.017793 169.785947 
C 265.598145 169.785947 268.07316 168.760762 269.897744 166.936178 
C 271.722329 165.111594 272.747513 162.636579 272.747513 160.056227 
C 272.747513 157.475875 271.722329 155.00086 269.897744 153.176276 
C 268.07316 151.351692 265.598145 150.326507 263.017793 150.326507 
C 260.437441 150.326507 257.962427 151.351692 256.137842 153.176276 
C 254.313258 155.00086 253.288073 157.475875 253.288073 160.056227 
C 253.288073 162.636579 254.313258 165.111594 256.137842 166.936178 
C 257.962427 168.760762 260.437441 169.785947 263.017793 169.785947 
z
" clip-path="url(#p57fbed9f32)" style="fill: #17becf; stroke: #000000; stroke-linejoin: miter"/>
   </g>
   <g id="patch_17">
    <path d="M 230.586097 72.488675 
C 233.166449 72.488675 235.641464 71.46349 237.466048 69.638906 
C 239.290633 67.814322 240.315817 65.339307 240.315817 62.758955 
C 240.315817 60.178603 239.290633 57.703588 237.466048 55.879004 
C 235.641464 54.05442 233.166449 53.029235 230.586097 53.029235 
C 228.005745 53.029235 225.530731 54.05442 223.706146 55.879004 
C 221.881562 57.703588 220.856377 60.178603 220.856377 62.758955 
C 220.856377 65.339307 221.881562 67.814322 223.706146 69.638906 
C 225.530731 71.46349 228.005745 72.488675 230.586097 72.488675 
z
" clip-path="url(#p57fbed9f32)" style="fill: #2f4f4f; stroke: #000000; stroke-linejoin: miter"/>
   </g>
   <g id="patch_18">
    <path d="M 230.585368 40.056224 
C 233.16572 40.056224 235.640735 39.031039 237.465319 37.206455 
C 239.289904 35.381871 240.315088 32.906856 240.315088 30.326504 
C 240.315088 27.746152 239.289904 25.271137 237.465319 23.446553 
C 235.640735 21.621969 233.16572 20.596784 230.585368 20.596784 
C 228.005016 20.596784 225.530002 21.621969 223.705417 23.446553 
C 221.880833 25.271137 220.855648 27.746152 220.855648 30.326504 
C 220.855648 32.906856 221.880833 35.381871 223.705417 37.206455 
C 225.530002 39.031039 228.005016 40.056224 230.585368 40.056224 
z
" clip-path="url(#p57fbed9f32)" style="fill: #cd5c5c; stroke: #000000; stroke-linejoin: miter"/>
   </g>
   <g id="patch_19">
    <path d="M 230.586299 7.623612 
C 233.166651 7.623612 235.641665 6.598427 237.46625 4.773843 
C 239.290834 2.949258 240.316019 0.474244 240.316019 -2.106108 
C 240.316019 -4.68646 239.290834 -7.161475 237.46625 -8.986059 
C 235.641665 -10.810644 233.166651 -11.835828 230.586299 -11.835828 
C 228.005947 -11.835828 225.530932 -10.810644 223.706348 -8.986059 
C 221.881763 -7.161475 220.856579 -4.68646 220.856579 -2.106108 
C 220.856579 0.474244 221.881763 2.949258 223.706348 4.773843 
C 225.530932 6.598427 228.005947 7.623612 230.586299 7.623612 
z
" clip-path="url(#p57fbed9f32)" style="fill: #add8e6; stroke: #000000; stroke-linejoin: miter"/>
   </g>
   <g id="patch_20">
    <path d="M 230.58638 202.21816 
C 233.166732 202.21816 235.641746 201.192976 237.466331 199.368391 
C 239.290915 197.543807 240.3161 195.068792 240.3161 192.48844 
C 240.3161 189.908088 239.290915 187.433074 237.466331 185.608489 
C 235.641746 183.783905 233.166732 182.75872 230.58638 182.75872 
C 228.006028 182.75872 225.531013 183.783905 223.706429 185.608489 
C 221.881844 187.433074 220.85666 189.908088 220.85666 192.48844 
C 220.85666 195.068792 221.881844 197.543807 223.706429 199.368391 
C 225.531013 201.192976 228.006028 202.21816 230.58638 202.21816 
z
" clip-path="url(#p57fbed9f32)" style="fill: #663399; stroke: #000000; stroke-linejoin: miter"/>
   </g>
   <g id="patch_21">
    <path d="M 230.585371 234.650427 
C 233.165723 234.650427 235.640738 233.625243 237.465322 231.800658 
C 239.289907 229.976074 240.315091 227.501059 240.315091 224.920707 
C 240.315091 222.340355 239.289907 219.865341 237.465322 218.040756 
C 235.640738 216.216172 233.165723 215.190987 230.585371 215.190987 
C 228.005019 215.190987 225.530005 216.216172 223.70542 218.040756 
C 221.880836 219.865341 220.855651 222.340355 220.855651 224.920707 
C 220.855651 227.501059 221.880836 229.976074 223.70542 231.800658 
C 225.530005 233.625243 228.005019 234.650427 230.585371 234.650427 
z
" clip-path="url(#p57fbed9f32)" style="fill: #8fbc8f; stroke: #000000; stroke-linejoin: miter"/>
   </g>
   <g id="patch_22">
    <path d="M 230.586418 267.082973 
C 233.16677 267.082973 235.641785 266.057789 237.466369 264.233204 
C 239.290954 262.40862 240.316138 259.933605 240.316138 257.353253 
C 240.316138 254.772902 239.290954 252.297887 237.466369 250.473302 
C 235.641785 248.648718 233.16677 247.623533 230.586418 247.623533 
C 228.006066 247.623533 225.531052 248.648718 223.706467 250.473302 
C 221.881883 252.297887 220.856698 254.772902 220.856698 257.353253 
C 220.856698 259.933605 221.881883 262.40862 223.706467 264.233204 
C 225.531052 266.057789 228.006066 267.082973 230.586418 267.082973 
z
" clip-path="url(#p57fbed9f32)" style="fill: #00ced1; stroke: #000000; stroke-linejoin: miter"/>
   </g>
   <g id="patch_23">
    <path d="M 165.720625 72.488813 
C 168.300977 72.488813 170.775992 71.463629 172.600576 69.639044 
C 174.42516 67.81446 175.450345 65.339445 175.450345 62.759093 
C 175.450345 60.178741 174.42516 57.703727 172.600576 55.879142 
C 170.775992 54.054558 168.300977 53.029373 165.720625 53.029373 
C 163.140273 53.029373 160.665258 54.054558 158.840674 55.879142 
C 157.01609 57.703727 155.990905 60.178741 155.990905 62.759093 
C 155.990905 65.339445 157.01609 67.81446 158.840674 69.639044 
C 160.665258 71.463629 163.140273 72.488813 165.720625 72.488813 
z
" clip-path="url(#p57fbed9f32)" style="fill: #6a5acd; stroke: #000000; stroke-linejoin: miter"/>
   </g>
   <g id="patch_24">
    <path d="M 165.720621 40.056183 
C 168.300973 40.056183 170.775988 39.030999 172.600572 37.206414 
C 174.425157 35.38183 175.450341 32.906815 175.450341 30.326463 
C 175.450341 27.746111 174.425157 25.271097 172.600572 23.446512 
C 170.775988 21.621928 168.300973 20.596743 165.720621 20.596743 
C 163.14027 20.596743 160.665255 21.621928 158.840671 23.446512 
C 157.016086 25.271097 155.990901 27.746111 155.990901 30.326463 
C 155.990901 32.906815 157.016086 35.38183 158.840671 37.206414 
C 160.665255 39.030999 163.14027 40.056183 165.720621 40.056183 
z
" clip-path="url(#p57fbed9f32)" style="fill: #808000; stroke: #000000; stroke-linejoin: miter"/>
   </g>
   <g id="patch_25">
    <path d="M 165.720577 7.623694 
C 168.300929 7.623694 170.775944 6.59851 172.600528 4.773925 
C 174.425113 2.949341 175.450297 0.474326 175.450297 -2.106026 
C 175.450297 -4.686378 174.425113 -7.161392 172.600528 -8.985977 
C 170.775944 -10.810561 168.300929 -11.835746 165.720577 -11.835746 
C 163.140225 -11.835746 160.665211 -10.810561 158.840626 -8.985977 
C 157.016042 -7.161392 155.990857 -4.686378 155.990857 -2.106026 
C 155.990857 0.474326 157.016042 2.949341 158.840626 4.773925 
C 160.665211 6.59851 163.140225 7.623694 165.720577 7.623694 
z
" clip-path="url(#p57fbed9f32)" style="fill: #a0522d; stroke: #000000; stroke-linejoin: miter"/>
   </g>
   <g id="patch_26">
    <path d="M 165.720621 202.217971 
C 168.300973 202.217971 170.775988 201.192787 172.600572 199.368202 
C 174.425156 197.543618 175.450341 195.068603 175.450341 192.488251 
C 175.450341 189.907899 174.425156 187.432885 172.600572 185.6083 
C 170.775988 183.783716 168.300973 182.758531 165.720621 182.758531 
C 163.140269 182.758531 160.665254 183.783716 158.84067 185.6083 
C 157.016086 187.432885 155.990901 189.907899 155.990901 192.488251 
C 155.990901 195.068603 157.016086 197.543618 158.84067 199.368202 
C 160.665254 201.192787 163.140269 202.217971 165.720621 202.217971 
z
" clip-path="url(#p57fbed9f32)" style="fill: #ff4500; stroke: #000000; stroke-linejoin: miter"/>
   </g>
   <g id="patch_27">
    <path d="M 165.720632 234.650415 
C 168.300984 234.650415 170.775998 233.62523 172.600583 231.800646 
C 174.425167 229.976061 175.450352 227.501046 175.450352 224.920695 
C 175.450352 222.340343 174.425167 219.865328 172.600583 218.040744 
C 170.775998 216.216159 168.300984 215.190975 165.720632 215.190975 
C 163.14028 215.190975 160.665265 216.216159 158.840681 218.040744 
C 157.016096 219.865328 155.990912 222.340343 155.990912 224.920695 
C 155.990912 227.501046 157.016096 229.976061 158.840681 231.800646 
C 160.665265 233.62523 163.14028 234.650415 165.720632 234.650415 
z
" clip-path="url(#p57fbed9f32)" style="fill: #708090; stroke: #000000; stroke-linejoin: miter"/>
   </g>
   <g id="patch_28">
    <path d="M 165.720362 267.082949 
C 168.300714 267.082949 170.775729 266.057764 172.600313 264.23318 
C 174.424897 262.408595 175.450082 259.933581 175.450082 257.353229 
C 175.450082 254.772877 174.424897 252.297862 172.600313 250.473278 
C 170.775729 248.648693 168.300714 247.623509 165.720362 247.623509 
C 163.14001 247.623509 160.664995 248.648693 158.840411 250.473278 
C 157.015827 252.297862 155.990642 254.772877 155.990642 257.353229 
C 155.990642 259.933581 157.015827 262.408595 158.840411 264.23318 
C 160.664995 266.057764 163.14001 267.082949 165.720362 267.082949 
z
" clip-path="url(#p57fbed9f32)" style="fill: #bdb76b; stroke: #000000; stroke-linejoin: miter"/>
   </g>
   <g id="line2d_59">
    <path d="M 263.0178 127.6236 
" clip-path="url(#p57fbed9f32)" style="fill: none; stroke: #1f77b4; stroke-width: 1.5; stroke-linecap: square"/>
    <defs>
     <path id="m80a4f9f767" d="M 0 4.949747 
L 2.969848 0 
L 0 -4.949747 
L -2.969848 0 
z
" style="stroke: #000000; stroke-linejoin: miter"/>
    </defs>
    <g clip-path="url(#p57fbed9f32)">
     <use xlink:href="#m80a4f9f767" x="263.0178" y="127.6236" style="fill: #1f77b4; stroke: #000000; stroke-linejoin: miter"/>
    </g>
   </g>
   <g id="line2d_60">
    <path d="M 263.0178 127.6236 
" clip-path="url(#p57fbed9f32)" style="fill: none; stroke: #ff7f0e; stroke-width: 1.5; stroke-linecap: square"/>
    <defs>
     <path id="m3b1c983efb" d="M 0 4.949747 
L 2.969848 0 
L 0 -4.949747 
L -2.969848 0 
z
" style="stroke: #000000; stroke-linejoin: miter"/>
    </defs>
    <g clip-path="url(#p57fbed9f32)">
     <use xlink:href="#m3b1c983efb" x="263.0178" y="127.6236" style="fill: #ff7f0e; stroke: #000000; stroke-linejoin: miter"/>
    </g>
   </g>
   <g id="line2d_61">
    <path d="M 133.2882 95.1912 
" clip-path="url(#p57fbed9f32)" style="fill: none; stroke: #2ca02c; stroke-width: 1.5; stroke-linecap: square"/>
    <defs>
     <path id="mdaaf4161ab" d="M 0 4.949747 
L 2.969848 0 
L 0 -4.949747 
L -2.969848 0 
z
" style="stroke: #000000; stroke-linejoin: miter"/>
    </defs>
    <g clip-path="url(#p57fbed9f32)">
     <use xlink:href="#mdaaf4161ab" x="133.2882" y="95.1912" style="fill: #2ca02c; stroke: #000000; stroke-linejoin: miter"/>
    </g>
   </g>
   <g id="line2d_62">
    <path d="M 165.7206 95.1912 
" clip-path="url(#p57fbed9f32)" style="fill: none; stroke: #d62728; stroke-width: 1.5; stroke-linecap: square"/>
    <defs>
     <path id="m13c097052c" d="M 0 4.949747 
L 2.969848 0 
L 0 -4.949747 
L -2.969848 0 
z
" style="stroke: #000000; stroke-linejoin: miter"/>
    </defs>
    <g clip-path="url(#p57fbed9f32)">
     <use xlink:href="#m13c097052c" x="165.7206" y="95.1912" style="fill: #d62728; stroke: #000000; stroke-linejoin: miter"/>
    </g>
   </g>
   <g id="line2d_63">
    <path d="M 230.5854 95.1912 
" clip-path="url(#p57fbed9f32)" style="fill: none; stroke: #9467bd; stroke-width: 1.5; stroke-linecap: square"/>
    <defs>
     <path id="mcbb72f013d" d="M 0 4.949747 
L 2.969848 0 
L 0 -4.949747 
L -2.969848 0 
z
" style="stroke: #000000; stroke-linejoin: miter"/>
    </defs>
    <g clip-path="url(#p57fbed9f32)">
     <use xlink:href="#mcbb72f013d" x="230.5854" y="95.1912" style="fill: #9467bd; stroke: #000000; stroke-linejoin: miter"/>
    </g>
   </g>
   <g id="line2d_64">
    <path d="M 263.0178 95.1912 
" clip-path="url(#p57fbed9f32)" style="fill: none; stroke: #8c564b; stroke-width: 1.5; stroke-linecap: square"/>
    <defs>
     <path id="mb0f63f179e" d="M 0 4.949747 
L 2.969848 0 
L 0 -4.949747 
L -2.969848 0 
z
" style="stroke: #000000; stroke-linejoin: miter"/>
    </defs>
    <g clip-path="url(#p57fbed9f32)">
     <use xlink:href="#mb0f63f179e" x="263.0178" y="95.1912" style="fill: #8c564b; stroke: #000000; stroke-linejoin: miter"/>
    </g>
   </g>
   <g id="line2d_65">
    <path d="M 133.2882 160.056 
" clip-path="url(#p57fbed9f32)" style="fill: none; stroke: #e377c2; stroke-width: 1.5; stroke-linecap: square"/>
    <defs>
     <path id="m86acbf599d" d="M 0 4.949747 
L 2.969848 0 
L 0 -4.949747 
L -2.969848 0 
z
" style="stroke: #000000; stroke-linejoin: miter"/>
    </defs>
    <g clip-path="url(#p57fbed9f32)">
     <use xlink:href="#m86acbf599d" x="133.2882" y="160.056" style="fill: #e377c2; stroke: #000000; stroke-linejoin: miter"/>
    </g>
   </g>
   <g id="line2d_66">
    <path d="M 165.7206 160.056 
" clip-path="url(#p57fbed9f32)" style="fill: none; stroke: #7f7f7f; stroke-width: 1.5; stroke-linecap: square"/>
    <defs>
     <path id="mdc622ea888" d="M 0 4.949747 
L 2.969848 0 
L 0 -4.949747 
L -2.969848 0 
z
" style="stroke: #000000; stroke-linejoin: miter"/>
    </defs>
    <g clip-path="url(#p57fbed9f32)">
     <use xlink:href="#mdc622ea888" x="165.7206" y="160.056" style="fill: #7f7f7f; stroke: #000000; stroke-linejoin: miter"/>
    </g>
   </g>
   <g id="line2d_67">
    <path d="M 230.5854 160.056 
" clip-path="url(#p57fbed9f32)" style="fill: none; stroke: #bcbd22; stroke-width: 1.5; stroke-linecap: square"/>
    <defs>
     <path id="m1f39706888" d="M 0 4.949747 
L 2.969848 0 
L 0 -4.949747 
L -2.969848 0 
z
" style="stroke: #000000; stroke-linejoin: miter"/>
    </defs>
    <g clip-path="url(#p57fbed9f32)">
     <use xlink:href="#m1f39706888" x="230.5854" y="160.056" style="fill: #bcbd22; stroke: #000000; stroke-linejoin: miter"/>
    </g>
   </g>
   <g id="line2d_68">
    <path d="M 263.0178 160.056 
" clip-path="url(#p57fbed9f32)" style="fill: none; stroke: #17becf; stroke-width: 1.5; stroke-linecap: square"/>
    <defs>
     <path id="m80348f72e4" d="M 0 4.949747 
L 2.969848 0 
L 0 -4.949747 
L -2.969848 0 
z
" style="stroke: #000000; stroke-linejoin: miter"/>
    </defs>
    <g clip-path="url(#p57fbed9f32)">
     <use xlink:href="#m80348f72e4" x="263.0178" y="160.056" style="fill: #17becf; stroke: #000000; stroke-linejoin: miter"/>
    </g>
   </g>
   <g id="line2d_69">
    <path d="M 230.5854 62.7588 
" clip-path="url(#p57fbed9f32)" style="fill: none; stroke: #2f4f4f; stroke-width: 1.5; stroke-linecap: square"/>
    <defs>
     <path id="mda258499df" d="M 0 4.949747 
L 2.969848 0 
L 0 -4.949747 
L -2.969848 0 
z
" style="stroke: #000000; stroke-linejoin: miter"/>
    </defs>
    <g clip-path="url(#p57fbed9f32)">
     <use xlink:href="#mda258499df" x="230.5854" y="62.7588" style="fill: #2f4f4f; stroke: #000000; stroke-linejoin: miter"/>
    </g>
   </g>
   <g id="line2d_70">
    <path d="M 230.5854 30.3264 
" clip-path="url(#p57fbed9f32)" style="fill: none; stroke: #cd5c5c; stroke-width: 1.5; stroke-linecap: square"/>
    <defs>
     <path id="m2636950aee" d="M 0 4.949747 
L 2.969848 0 
L 0 -4.949747 
L -2.969848 0 
z
" style="stroke: #000000; stroke-linejoin: miter"/>
    </defs>
    <g clip-path="url(#p57fbed9f32)">
     <use xlink:href="#m2636950aee" x="230.5854" y="30.3264" style="fill: #cd5c5c; stroke: #000000; stroke-linejoin: miter"/>
    </g>
   </g>
   <g id="line2d_71">
    <path clip-path="url(#p57fbed9f32)" style="fill: none; stroke: #add8e6; stroke-width: 1.5; stroke-linecap: square"/>
    <defs>
     <path id="mb827183cd2" d="M 0 4.949747 
L 2.969848 0 
L 0 -4.949747 
L -2.969848 0 
z
" style="stroke: #000000; stroke-linejoin: miter"/>
    </defs>
    <g clip-path="url(#p57fbed9f32)"/>
   </g>
   <g id="line2d_72">
    <path d="M 230.5854 192.4884 
" clip-path="url(#p57fbed9f32)" style="fill: none; stroke: #663399; stroke-width: 1.5; stroke-linecap: square"/>
    <defs>
     <path id="m9a5e553498" d="M 0 4.949747 
L 2.969848 0 
L 0 -4.949747 
L -2.969848 0 
z
" style="stroke: #000000; stroke-linejoin: miter"/>
    </defs>
    <g clip-path="url(#p57fbed9f32)">
     <use xlink:href="#m9a5e553498" x="230.5854" y="192.4884" style="fill: #663399; stroke: #000000; stroke-linejoin: miter"/>
    </g>
   </g>
   <g id="line2d_73">
    <path d="M 230.5854 224.9208 
" clip-path="url(#p57fbed9f32)" style="fill: none; stroke: #8fbc8f; stroke-width: 1.5; stroke-linecap: square"/>
    <defs>
     <path id="m86918a0ab0" d="M 0 4.949747 
L 2.969848 0 
L 0 -4.949747 
L -2.969848 0 
z
" style="stroke: #000000; stroke-linejoin: miter"/>
    </defs>
    <g clip-path="url(#p57fbed9f32)">
     <use xlink:href="#m86918a0ab0" x="230.5854" y="224.9208" style="fill: #8fbc8f; stroke: #000000; stroke-linejoin: miter"/>
    </g>
   </g>
   <g id="line2d_74">
    <path clip-path="url(#p57fbed9f32)" style="fill: none; stroke: #00ced1; stroke-width: 1.5; stroke-linecap: square"/>
    <defs>
     <path id="m5e31804c9a" d="M 0 4.949747 
L 2.969848 0 
L 0 -4.949747 
L -2.969848 0 
z
" style="stroke: #000000; stroke-linejoin: miter"/>
    </defs>
    <g clip-path="url(#p57fbed9f32)">
     <use xlink:href="#m5e31804c9a" x="230.5854" y="257.3532" style="fill: #00ced1; stroke: #000000; stroke-linejoin: miter"/>
    </g>
   </g>
   <g id="line2d_75">
    <path d="M 165.7206 62.7588 
" clip-path="url(#p57fbed9f32)" style="fill: none; stroke: #6a5acd; stroke-width: 1.5; stroke-linecap: square"/>
    <defs>
     <path id="m84198b1ff7" d="M 0 4.949747 
L 2.969848 0 
L 0 -4.949747 
L -2.969848 0 
z
" style="stroke: #000000; stroke-linejoin: miter"/>
    </defs>
    <g clip-path="url(#p57fbed9f32)">
     <use xlink:href="#m84198b1ff7" x="165.7206" y="62.7588" style="fill: #6a5acd; stroke: #000000; stroke-linejoin: miter"/>
    </g>
   </g>
   <g id="line2d_76">
    <path d="M 165.7206 30.3264 
" clip-path="url(#p57fbed9f32)" style="fill: none; stroke: #808000; stroke-width: 1.5; stroke-linecap: square"/>
    <defs>
     <path id="m6fda5502e7" d="M 0 4.949747 
L 2.969848 0 
L 0 -4.949747 
L -2.969848 0 
z
" style="stroke: #000000; stroke-linejoin: miter"/>
    </defs>
    <g clip-path="url(#p57fbed9f32)">
     <use xlink:href="#m6fda5502e7" x="165.7206" y="30.3264" style="fill: #808000; stroke: #000000; stroke-linejoin: miter"/>
    </g>
   </g>
   <g id="line2d_77">
    <path clip-path="url(#p57fbed9f32)" style="fill: none; stroke: #a0522d; stroke-width: 1.5; stroke-linecap: square"/>
    <defs>
     <path id="m407fa2b787" d="M 0 4.949747 
L 2.969848 0 
L 0 -4.949747 
L -2.969848 0 
z
" style="stroke: #000000; stroke-linejoin: miter"/>
    </defs>
    <g clip-path="url(#p57fbed9f32)"/>
   </g>
   <g id="line2d_78">
    <path d="M 165.7206 192.4884 
" clip-path="url(#p57fbed9f32)" style="fill: none; stroke: #ff4500; stroke-width: 1.5; stroke-linecap: square"/>
    <defs>
     <path id="m13c56787b1" d="M 0 4.949747 
L 2.969848 0 
L 0 -4.949747 
L -2.969848 0 
z
" style="stroke: #000000; stroke-linejoin: miter"/>
    </defs>
    <g clip-path="url(#p57fbed9f32)">
     <use xlink:href="#m13c56787b1" x="165.7206" y="192.4884" style="fill: #ff4500; stroke: #000000; stroke-linejoin: miter"/>
    </g>
   </g>
   <g id="line2d_79">
    <path d="M 165.7206 224.9208 
" clip-path="url(#p57fbed9f32)" style="fill: none; stroke: #708090; stroke-width: 1.5; stroke-linecap: square"/>
    <defs>
     <path id="ma23dda346a" d="M 0 4.949747 
L 2.969848 0 
L 0 -4.949747 
L -2.969848 0 
z
" style="stroke: #000000; stroke-linejoin: miter"/>
    </defs>
    <g clip-path="url(#p57fbed9f32)">
     <use xlink:href="#ma23dda346a" x="165.7206" y="224.9208" style="fill: #708090; stroke: #000000; stroke-linejoin: miter"/>
    </g>
   </g>
   <g id="line2d_80">
    <path clip-path="url(#p57fbed9f32)" style="fill: none; stroke: #bdb76b; stroke-width: 1.5; stroke-linecap: square"/>
    <defs>
     <path id="m064e791afd" d="M 0 4.949747 
L 2.969848 0 
L 0 -4.949747 
L -2.969848 0 
z
" style="stroke: #000000; stroke-linejoin: miter"/>
    </defs>
    <g clip-path="url(#p57fbed9f32)">
     <use xlink:href="#m064e791afd" x="165.7206" y="257.3532" style="fill: #bdb76b; stroke: #000000; stroke-linejoin: miter"/>
    </g>
   </g>
  </g>
 </g>
 <defs>
  <clipPath id="p57fbed9f32">
   <rect x="100.8558" y="30.3264" width="194.5944" height="194.5944"/>
  </clipPath>
 </defs>
</svg>
