<?xml version="1.0" encoding="utf-8" standalone="no"?>
<!DOCTYPE svg PUBLIC "-//W3C//DTD SVG 1.1//EN"
  "http://www.w3.org/Graphics/SVG/1.1/DTD/svg11.dtd">
<svg xmlns:xlink="http://www.w3.org/1999/xlink" width="386.64pt" height="252.72pt" viewBox="0 0 386.64 252.72" xmlns="http://www.w3.org/2000/svg" version="1.1">
 <metadata>
  <rdf:RDF xmlns:dc="http://purl.org/dc/elements/1.1/" xmlns:cc="http://creativecommons.org/ns#" xmlns:rdf="http://www.w3.org/1999/02/22-rdf-syntax-ns#">
   <cc:Work>
    <dc:type rdf:resource="http://purl.org/dc/dcmitype/StillImage"/>
    <dc:date>2023-07-11T22:26:54.066640</dc:date>
    <dc:format>image/svg+xml</dc:format>
    <dc:creator>
     <cc:Agent>
      <dc:title>Matplotlib v3.6.2, https://matplotlib.org/</dc:title>
     </cc:Agent>
    </dc:creator>
   </cc:Work>
  </rdf:RDF>
 </metadata>
 <defs>
  <style type="text/css">*{stroke-linejoin: round; stroke-linecap: butt}</style>
 </defs>
 <g id="figure_1">
  <g id="patch_1">
   <path d="M 0 252.72 
L 386.64 252.72 
L 386.64 0 
L 0 0 
z
" style="fill: #ffffff"/>
  </g>
  <g id="axes_1">
   <g id="patch_2">
    <path d="M 100.8558 224.9208 
L 295.4502 224.9208 
L 295.4502 30.3264 
L 100.8558 30.3264 
z
" style="fill: #ffffff"/>
   </g>
   <g id="matplotlib.axis_1">
    <g id="xtick_1">
     <g id="line2d_1">
      <defs>
       <path id="m0e5e14cec4" d="M 0 0 
L 0 3.5 
" style="stroke: #000000; stroke-width: 0.8"/>
      </defs>
      <g>
       <use xlink:href="#m0e5e14cec4" x="100.8558" y="224.9208" style="stroke: #000000; stroke-width: 0.8"/>
      </g>
     </g>
     <g id="text_1">
      <!-- −0.5 -->
      <g transform="translate(88.714394 239.519237) scale(0.1 -0.1)">
       <defs>
        <path id="DejaVuSans-2212" d="M 678 2272 
L 4684 2272 
L 4684 1741 
L 678 1741 
L 678 2272 
z
" transform="scale(0.015625)"/>
        <path id="DejaVuSans-30" d="M 2034 4250 
Q 1547 4250 1301 3770 
Q 1056 3291 1056 2328 
Q 1056 1369 1301 889 
Q 1547 409 2034 409 
Q 2525 409 2770 889 
Q 3016 1369 3016 2328 
Q 3016 3291 2770 3770 
Q 2525 4250 2034 4250 
z
M 2034 4750 
Q 2819 4750 3233 4129 
Q 3647 3509 3647 2328 
Q 3647 1150 3233 529 
Q 2819 -91 2034 -91 
Q 1250 -91 836 529 
Q 422 1150 422 2328 
Q 422 3509 836 4129 
Q 1250 4750 2034 4750 
z
" transform="scale(0.015625)"/>
        <path id="DejaVuSans-2e" d="M 684 794 
L 1344 794 
L 1344 0 
L 684 0 
L 684 794 
z
" transform="scale(0.015625)"/>
        <path id="DejaVuSans-35" d="M 691 4666 
L 3169 4666 
L 3169 4134 
L 1269 4134 
L 1269 2991 
Q 1406 3038 1543 3061 
Q 1681 3084 1819 3084 
Q 2600 3084 3056 2656 
Q 3513 2228 3513 1497 
Q 3513 744 3044 326 
Q 2575 -91 1722 -91 
Q 1428 -91 1123 -41 
Q 819 9 494 109 
L 494 744 
Q 775 591 1075 516 
Q 1375 441 1709 441 
Q 2250 441 2565 725 
Q 2881 1009 2881 1497 
Q 2881 1984 2565 2268 
Q 2250 2553 1709 2553 
Q 1456 2553 1204 2497 
Q 953 2441 691 2322 
L 691 4666 
z
" transform="scale(0.015625)"/>
       </defs>
       <use xlink:href="#DejaVuSans-2212"/>
       <use xlink:href="#DejaVuSans-30" x="83.789062"/>
       <use xlink:href="#DejaVuSans-2e" x="147.412109"/>
       <use xlink:href="#DejaVuSans-35" x="179.199219"/>
      </g>
     </g>
    </g>
    <g id="xtick_2">
     <g id="line2d_2">
      <g>
       <use xlink:href="#m0e5e14cec4" x="133.2882" y="224.9208" style="stroke: #000000; stroke-width: 0.8"/>
      </g>
     </g>
     <g id="text_2">
      <!-- 0.0 -->
      <g transform="translate(125.336638 239.519237) scale(0.1 -0.1)">
       <use xlink:href="#DejaVuSans-30"/>
       <use xlink:href="#DejaVuSans-2e" x="63.623047"/>
       <use xlink:href="#DejaVuSans-30" x="95.410156"/>
      </g>
     </g>
    </g>
    <g id="xtick_3">
     <g id="line2d_3">
      <g>
       <use xlink:href="#m0e5e14cec4" x="165.7206" y="224.9208" style="stroke: #000000; stroke-width: 0.8"/>
      </g>
     </g>
     <g id="text_3">
      <!-- 0.5 -->
      <g transform="translate(157.769037 239.519237) scale(0.1 -0.1)">
       <use xlink:href="#DejaVuSans-30"/>
       <use xlink:href="#DejaVuSans-2e" x="63.623047"/>
       <use xlink:href="#DejaVuSans-35" x="95.410156"/>
      </g>
     </g>
    </g>
    <g id="xtick_4">
     <g id="line2d_4">
      <g>
       <use xlink:href="#m0e5e14cec4" x="198.153" y="224.9208" style="stroke: #000000; stroke-width: 0.8"/>
      </g>
     </g>
     <g id="text_4">
      <!-- 1.0 -->
      <g transform="translate(190.201437 239.519237) scale(0.1 -0.1)">
       <defs>
        <path id="DejaVuSans-31" d="M 794 531 
L 1825 531 
L 1825 4091 
L 703 3866 
L 703 4441 
L 1819 4666 
L 2450 4666 
L 2450 531 
L 3481 531 
L 3481 0 
L 794 0 
L 794 531 
z
" transform="scale(0.015625)"/>
       </defs>
       <use xlink:href="#DejaVuSans-31"/>
       <use xlink:href="#DejaVuSans-2e" x="63.623047"/>
       <use xlink:href="#DejaVuSans-30" x="95.410156"/>
      </g>
     </g>
    </g>
    <g id="xtick_5">
     <g id="line2d_5">
      <g>
       <use xlink:href="#m0e5e14cec4" x="230.5854" y="224.9208" style="stroke: #000000; stroke-width: 0.8"/>
      </g>
     </g>
     <g id="text_5">
      <!-- 1.5 -->
      <g transform="translate(222.633837 239.519237) scale(0.1 -0.1)">
       <use xlink:href="#DejaVuSans-31"/>
       <use xlink:href="#DejaVuSans-2e" x="63.623047"/>
       <use xlink:href="#DejaVuSans-35" x="95.410156"/>
      </g>
     </g>
    </g>
    <g id="xtick_6">
     <g id="line2d_6">
      <g>
       <use xlink:href="#m0e5e14cec4" x="263.0178" y="224.9208" style="stroke: #000000; stroke-width: 0.8"/>
      </g>
     </g>
     <g id="text_6">
      <!-- 2.0 -->
      <g transform="translate(255.066237 239.519237) scale(0.1 -0.1)">
       <defs>
        <path id="DejaVuSans-32" d="M 1228 531 
L 3431 531 
L 3431 0 
L 469 0 
L 469 531 
Q 828 903 1448 1529 
Q 2069 2156 2228 2338 
Q 2531 2678 2651 2914 
Q 2772 3150 2772 3378 
Q 2772 3750 2511 3984 
Q 2250 4219 1831 4219 
Q 1534 4219 1204 4116 
Q 875 4013 500 3803 
L 500 4441 
Q 881 4594 1212 4672 
Q 1544 4750 1819 4750 
Q 2544 4750 2975 4387 
Q 3406 4025 3406 3419 
Q 3406 3131 3298 2873 
Q 3191 2616 2906 2266 
Q 2828 2175 2409 1742 
Q 1991 1309 1228 531 
z
" transform="scale(0.015625)"/>
       </defs>
       <use xlink:href="#DejaVuSans-32"/>
       <use xlink:href="#DejaVuSans-2e" x="63.623047"/>
       <use xlink:href="#DejaVuSans-30" x="95.410156"/>
      </g>
     </g>
    </g>
    <g id="xtick_7">
     <g id="line2d_7">
      <g>
       <use xlink:href="#m0e5e14cec4" x="295.4502" y="224.9208" style="stroke: #000000; stroke-width: 0.8"/>
      </g>
     </g>
     <g id="text_7">
      <!-- 2.5 -->
      <g transform="translate(287.498637 239.519237) scale(0.1 -0.1)">
       <use xlink:href="#DejaVuSans-32"/>
       <use xlink:href="#DejaVuSans-2e" x="63.623047"/>
       <use xlink:href="#DejaVuSans-35" x="95.410156"/>
      </g>
     </g>
    </g>
    <g id="text_8">
     <!-- x(m) -->
     <g transform="translate(186.42175 253.197362) scale(0.1 -0.1)">
      <defs>
       <path id="DejaVuSans-78" d="M 3513 3500 
L 2247 1797 
L 3578 0 
L 2900 0 
L 1881 1375 
L 863 0 
L 184 0 
L 1544 1831 
L 300 3500 
L 978 3500 
L 1906 2253 
L 2834 3500 
L 3513 3500 
z
" transform="scale(0.015625)"/>
       <path id="DejaVuSans-28" d="M 1984 4856 
Q 1566 4138 1362 3434 
Q 1159 2731 1159 2009 
Q 1159 1288 1364 580 
Q 1569 -128 1984 -844 
L 1484 -844 
Q 1016 -109 783 600 
Q 550 1309 550 2009 
Q 550 2706 781 3412 
Q 1013 4119 1484 4856 
L 1984 4856 
z
" transform="scale(0.015625)"/>
       <path id="DejaVuSans-6d" d="M 3328 2828 
Q 3544 3216 3844 3400 
Q 4144 3584 4550 3584 
Q 5097 3584 5394 3201 
Q 5691 2819 5691 2113 
L 5691 0 
L 5113 0 
L 5113 2094 
Q 5113 2597 4934 2840 
Q 4756 3084 4391 3084 
Q 3944 3084 3684 2787 
Q 3425 2491 3425 1978 
L 3425 0 
L 2847 0 
L 2847 2094 
Q 2847 2600 2669 2842 
Q 2491 3084 2119 3084 
Q 1678 3084 1418 2786 
Q 1159 2488 1159 1978 
L 1159 0 
L 581 0 
L 581 3500 
L 1159 3500 
L 1159 2956 
Q 1356 3278 1631 3431 
Q 1906 3584 2284 3584 
Q 2666 3584 2933 3390 
Q 3200 3197 3328 2828 
z
" transform="scale(0.015625)"/>
       <path id="DejaVuSans-29" d="M 513 4856 
L 1013 4856 
Q 1481 4119 1714 3412 
Q 1947 2706 1947 2009 
Q 1947 1309 1714 600 
Q 1481 -109 1013 -844 
L 513 -844 
Q 928 -128 1133 580 
Q 1338 1288 1338 2009 
Q 1338 2731 1133 3434 
Q 928 4138 513 4856 
z
" transform="scale(0.015625)"/>
      </defs>
      <use xlink:href="#DejaVuSans-78"/>
      <use xlink:href="#DejaVuSans-28" x="59.179688"/>
      <use xlink:href="#DejaVuSans-6d" x="98.193359"/>
      <use xlink:href="#DejaVuSans-29" x="195.605469"/>
     </g>
    </g>
   </g>
   <g id="matplotlib.axis_2">
    <g id="ytick_1">
     <g id="line2d_8">
      <defs>
       <path id="m2a57fb68ec" d="M 0 0 
L -3.5 0 
" style="stroke: #000000; stroke-width: 0.8"/>
      </defs>
      <g>
       <use xlink:href="#m2a57fb68ec" x="100.8558" y="224.9208" style="stroke: #000000; stroke-width: 0.8"/>
      </g>
     </g>
     <g id="text_9">
      <!-- −0.5 -->
      <g transform="translate(69.572988 228.720019) scale(0.1 -0.1)">
       <use xlink:href="#DejaVuSans-2212"/>
       <use xlink:href="#DejaVuSans-30" x="83.789062"/>
       <use xlink:href="#DejaVuSans-2e" x="147.412109"/>
       <use xlink:href="#DejaVuSans-35" x="179.199219"/>
      </g>
     </g>
    </g>
    <g id="ytick_2">
     <g id="line2d_9">
      <g>
       <use xlink:href="#m2a57fb68ec" x="100.8558" y="192.4884" style="stroke: #000000; stroke-width: 0.8"/>
      </g>
     </g>
     <g id="text_10">
      <!-- 0.0 -->
      <g transform="translate(77.952675 196.287619) scale(0.1 -0.1)">
       <use xlink:href="#DejaVuSans-30"/>
       <use xlink:href="#DejaVuSans-2e" x="63.623047"/>
       <use xlink:href="#DejaVuSans-30" x="95.410156"/>
      </g>
     </g>
    </g>
    <g id="ytick_3">
     <g id="line2d_10">
      <g>
       <use xlink:href="#m2a57fb68ec" x="100.8558" y="160.056" style="stroke: #000000; stroke-width: 0.8"/>
      </g>
     </g>
     <g id="text_11">
      <!-- 0.5 -->
      <g transform="translate(77.952675 163.855219) scale(0.1 -0.1)">
       <use xlink:href="#DejaVuSans-30"/>
       <use xlink:href="#DejaVuSans-2e" x="63.623047"/>
       <use xlink:href="#DejaVuSans-35" x="95.410156"/>
      </g>
     </g>
    </g>
    <g id="ytick_4">
     <g id="line2d_11">
      <g>
       <use xlink:href="#m2a57fb68ec" x="100.8558" y="127.6236" style="stroke: #000000; stroke-width: 0.8"/>
      </g>
     </g>
     <g id="text_12">
      <!-- 1.0 -->
      <g transform="translate(77.952675 131.422819) scale(0.1 -0.1)">
       <use xlink:href="#DejaVuSans-31"/>
       <use xlink:href="#DejaVuSans-2e" x="63.623047"/>
       <use xlink:href="#DejaVuSans-30" x="95.410156"/>
      </g>
     </g>
    </g>
    <g id="ytick_5">
     <g id="line2d_12">
      <g>
       <use xlink:href="#m2a57fb68ec" x="100.8558" y="95.1912" style="stroke: #000000; stroke-width: 0.8"/>
      </g>
     </g>
     <g id="text_13">
      <!-- 1.5 -->
      <g transform="translate(77.952675 98.990419) scale(0.1 -0.1)">
       <use xlink:href="#DejaVuSans-31"/>
       <use xlink:href="#DejaVuSans-2e" x="63.623047"/>
       <use xlink:href="#DejaVuSans-35" x="95.410156"/>
      </g>
     </g>
    </g>
    <g id="ytick_6">
     <g id="line2d_13">
      <g>
       <use xlink:href="#m2a57fb68ec" x="100.8558" y="62.7588" style="stroke: #000000; stroke-width: 0.8"/>
      </g>
     </g>
     <g id="text_14">
      <!-- 2.0 -->
      <g transform="translate(77.952675 66.558019) scale(0.1 -0.1)">
       <use xlink:href="#DejaVuSans-32"/>
       <use xlink:href="#DejaVuSans-2e" x="63.623047"/>
       <use xlink:href="#DejaVuSans-30" x="95.410156"/>
      </g>
     </g>
    </g>
    <g id="ytick_7">
     <g id="line2d_14">
      <g>
       <use xlink:href="#m2a57fb68ec" x="100.8558" y="30.3264" style="stroke: #000000; stroke-width: 0.8"/>
      </g>
     </g>
     <g id="text_15">
      <!-- 2.5 -->
      <g transform="translate(77.952675 34.125619) scale(0.1 -0.1)">
       <use xlink:href="#DejaVuSans-32"/>
       <use xlink:href="#DejaVuSans-2e" x="63.623047"/>
       <use xlink:href="#DejaVuSans-35" x="95.410156"/>
      </g>
     </g>
    </g>
    <g id="text_16">
     <!-- y(m) -->
     <g transform="translate(63.4933 139.35485) rotate(-90) scale(0.1 -0.1)">
      <defs>
       <path id="DejaVuSans-79" d="M 2059 -325 
Q 1816 -950 1584 -1140 
Q 1353 -1331 966 -1331 
L 506 -1331 
L 506 -850 
L 844 -850 
Q 1081 -850 1212 -737 
Q 1344 -625 1503 -206 
L 1606 56 
L 191 3500 
L 800 3500 
L 1894 763 
L 2988 3500 
L 3597 3500 
L 2059 -325 
z
" transform="scale(0.015625)"/>
      </defs>
      <use xlink:href="#DejaVuSans-79"/>
      <use xlink:href="#DejaVuSans-28" x="59.179688"/>
      <use xlink:href="#DejaVuSans-6d" x="98.193359"/>
      <use xlink:href="#DejaVuSans-29" x="195.605469"/>
     </g>
    </g>
   </g>
   <g id="line2d_15">
    <path d="M 160.673863 127.41217 
L 173.646711 127.46259 
L 186.294961 127.514481 
L 195.864577 127.554064 
L 201.342645 127.576752 
L 204.720187 127.590751 
L 207.076864 127.60052 
L 208.808276 127.607605 
L 210.133019 127.613091 
L 211.180222 127.617397 
L 212.028259 127.620893 
L 212.729176 127.623779 
L 212.729176 127.623779 
" clip-path="url(#pf67d15c0a2)" style="fill: none; stroke-dasharray: 2,3.3; stroke-dashoffset: 0; stroke: #1f77b4; stroke-width: 2"/>
   </g>
   <g id="line2d_16">
    <path d="M 133.2882 127.6236 
L 133.2882 127.6236 
L 133.768676 127.621531 
L 138.573349 127.593776 
L 147.701648 127.493337 
L 160.673863 127.41217 
" clip-path="url(#pf67d15c0a2)" style="fill: none; stroke: #1f77b4; stroke-width: 2; stroke-linecap: square"/>
   </g>
   <g id="line2d_17">
    <path d="M 201.48243 180.264573 
L 202.57419 169.79155 
L 203.227581 163.620553 
L 203.464294 161.407334 
L 203.583868 160.31852 
L 203.6612 159.608843 
L 203.714905 159.117081 
L 203.754386 158.755657 
L 203.784623 158.478955 
L 203.808514 158.260323 
L 203.827865 158.083234 
L 203.843861 157.936875 
L 203.843861 157.936875 
" clip-path="url(#pf67d15c0a2)" style="fill: none; stroke-dasharray: 2,3.3; stroke-dashoffset: 0; stroke: #ff7f0e; stroke-width: 2"/>
   </g>
   <g id="line2d_18">
    <path d="M 198.153 205.46136 
L 198.153 205.46136 
L 198.164648 204.981025 
L 198.417246 200.200816 
L 199.877385 191.454013 
L 201.48243 180.264573 
" clip-path="url(#pf67d15c0a2)" style="fill: none; stroke: #ff7f0e; stroke-width: 2; stroke-linecap: square"/>
   </g>
   <g id="line2d_19">
    <path d="M 133.288206 95.19119 
L 133.288211 95.191173 
L 133.288218 95.19115 
L 133.288226 95.191125 
L 133.288233 95.1911 
L 133.288239 95.191075 
L 133.288244 95.191054 
L 133.288247 95.191037 
L 133.288248 95.191026 
L 133.288247 95.191021 
L 133.288246 95.19102 
L 133.288245 95.191019 
L 133.288245 95.191019 
" clip-path="url(#pf67d15c0a2)" style="fill: none; stroke-dasharray: 2,3.3; stroke-dashoffset: 0; stroke: #2ca02c; stroke-width: 2"/>
   </g>
   <g id="line2d_20">
    <path d="M 133.2882 95.1912 
L 133.2882 95.1912 
L 133.2882 95.1912 
L 133.288202 95.1912 
L 133.288204 95.191197 
L 133.288206 95.19119 
" clip-path="url(#pf67d15c0a2)" style="fill: none; stroke: #2ca02c; stroke-width: 2; stroke-linecap: square"/>
   </g>
   <g id="line2d_21">
    <path d="M 165.720541 95.191158 
L 165.720479 95.191165 
L 165.720381 95.191173 
L 165.720274 95.191181 
L 165.720202 95.191189 
L 165.72017 95.191196 
L 165.720178 95.191202 
L 165.720219 95.191206 
L 165.720287 95.191208 
L 165.720364 95.191209 
L 165.720426 95.19121 
L 165.720457 95.191209 
L 165.720457 95.191209 
" clip-path="url(#pf67d15c0a2)" style="fill: none; stroke-dasharray: 2,3.3; stroke-dashoffset: 0; stroke: #d62728; stroke-width: 2"/>
   </g>
   <g id="line2d_22">
    <path d="M 165.7206 95.1912 
L 165.7206 95.1912 
L 165.720601 95.191194 
L 165.720603 95.19115 
L 165.720581 95.191153 
L 165.720541 95.191158 
" clip-path="url(#pf67d15c0a2)" style="fill: none; stroke: #d62728; stroke-width: 2; stroke-linecap: square"/>
   </g>
   <g id="line2d_23">
    <path d="M 230.585427 95.191186 
L 230.585443 95.191196 
L 230.585452 95.191206 
L 230.585455 95.191213 
L 230.585452 95.191217 
L 230.585444 95.191219 
L 230.585434 95.191218 
L 230.585421 95.191213 
L 230.585408 95.191206 
L 230.585396 95.191197 
L 230.585387 95.191187 
L 230.585382 95.191182 
L 230.585382 95.191182 
" clip-path="url(#pf67d15c0a2)" style="fill: none; stroke-dasharray: 2,3.3; stroke-dashoffset: 0; stroke: #9467bd; stroke-width: 2"/>
   </g>
   <g id="line2d_24">
    <path d="M 230.5854 95.1912 
L 230.5854 95.1912 
L 230.5854 95.191198 
L 230.585399 95.191183 
L 230.585405 95.191174 
L 230.585427 95.191186 
" clip-path="url(#pf67d15c0a2)" style="fill: none; stroke: #9467bd; stroke-width: 2; stroke-linecap: square"/>
   </g>
   <g id="line2d_25">
    <path d="M 263.017815 95.191193 
L 263.017817 95.191185 
L 263.017818 95.191175 
L 263.017818 95.191164 
L 263.017818 95.191154 
L 263.017817 95.191144 
L 263.017816 95.191136 
L 263.017815 95.191129 
L 263.017814 95.191125 
L 263.017813 95.191123 
L 263.017813 95.191123 
L 263.017812 95.191123 
L 263.017812 95.191123 
" clip-path="url(#pf67d15c0a2)" style="fill: none; stroke-dasharray: 2,3.3; stroke-dashoffset: 0; stroke: #8c564b; stroke-width: 2"/>
   </g>
   <g id="line2d_26">
    <path d="M 263.0178 95.1912 
L 263.0178 95.1912 
L 263.017801 95.1912 
L 263.017807 95.191203 
L 263.017812 95.191199 
L 263.017815 95.191193 
" clip-path="url(#pf67d15c0a2)" style="fill: none; stroke: #8c564b; stroke-width: 2; stroke-linecap: square"/>
   </g>
   <g id="line2d_27">
    <path d="M 133.288208 160.056011 
L 133.28821 160.05602 
L 133.288211 160.056032 
L 133.288212 160.056046 
L 133.288213 160.056059 
L 133.288213 160.056072 
L 133.288213 160.056082 
L 133.288212 160.05609 
L 133.288211 160.056094 
L 133.28821 160.056095 
L 133.288209 160.056095 
L 133.288209 160.056094 
L 133.288209 160.056094 
" clip-path="url(#pf67d15c0a2)" style="fill: none; stroke-dasharray: 2,3.3; stroke-dashoffset: 0; stroke: #e377c2; stroke-width: 2"/>
   </g>
   <g id="line2d_28">
    <path d="M 133.2882 160.056 
L 133.2882 160.056 
L 133.2882 160.056 
L 133.288203 160.056 
L 133.288205 160.056004 
L 133.288208 160.056011 
" clip-path="url(#pf67d15c0a2)" style="fill: none; stroke: #e377c2; stroke-width: 2; stroke-linecap: square"/>
   </g>
   <g id="line2d_29">
    <path d="M 165.72054 160.055856 
L 165.720499 160.05577 
L 165.720436 160.055693 
L 165.720362 160.055663 
L 165.720309 160.055697 
L 165.720286 160.055773 
L 165.720293 160.055857 
L 165.720331 160.055921 
L 165.720392 160.055958 
L 165.72046 160.055975 
L 165.720517 160.055984 
L 165.720545 160.055988 
L 165.720545 160.055988 
" clip-path="url(#pf67d15c0a2)" style="fill: none; stroke-dasharray: 2,3.3; stroke-dashoffset: 0; stroke: #7f7f7f; stroke-width: 2"/>
   </g>
   <g id="line2d_30">
    <path d="M 165.7206 160.056 
L 165.7206 160.056 
L 165.7206 160.055997 
L 165.720599 160.05597 
L 165.720579 160.055908 
L 165.72054 160.055856 
" clip-path="url(#pf67d15c0a2)" style="fill: none; stroke: #7f7f7f; stroke-width: 2; stroke-linecap: square"/>
   </g>
   <g id="line2d_31">
    <path d="M 230.585441 160.055965 
L 230.585452 160.055963 
L 230.585457 160.05601 
L 230.585452 160.056098 
L 230.585441 160.056192 
L 230.585425 160.056271 
L 230.58541 160.056315 
L 230.585398 160.056317 
L 230.58539 160.056281 
L 230.585388 160.056226 
L 230.585388 160.056176 
L 230.585388 160.05615 
L 230.585388 160.05615 
" clip-path="url(#pf67d15c0a2)" style="fill: none; stroke-dasharray: 2,3.3; stroke-dashoffset: 0; stroke: #bcbd22; stroke-width: 2"/>
   </g>
   <g id="line2d_32">
    <path d="M 230.5854 160.056 
L 230.5854 160.056 
L 230.5854 160.056002 
L 230.585404 160.056019 
L 230.585426 160.055987 
L 230.585441 160.055965 
" clip-path="url(#pf67d15c0a2)" style="fill: none; stroke: #bcbd22; stroke-width: 2; stroke-linecap: square"/>
   </g>
   <g id="line2d_33">
    <path d="M 263.017801 160.056017 
L 263.017802 160.056031 
L 263.017803 160.056047 
L 263.017804 160.056063 
L 263.017804 160.056078 
L 263.017805 160.05609 
L 263.017805 160.056099 
L 263.017805 160.056105 
L 263.017804 160.056107 
L 263.017804 160.056106 
L 263.017804 160.056104 
L 263.017804 160.056103 
L 263.017804 160.056103 
" clip-path="url(#pf67d15c0a2)" style="fill: none; stroke-dasharray: 2,3.3; stroke-dashoffset: 0; stroke: #17becf; stroke-width: 2"/>
   </g>
   <g id="line2d_34">
    <path d="M 263.0178 160.056 
L 263.0178 160.056 
L 263.0178 160.056 
L 263.0178 160.056 
L 263.0178 160.056006 
L 263.017801 160.056017 
" clip-path="url(#pf67d15c0a2)" style="fill: none; stroke: #17becf; stroke-width: 2; stroke-linecap: square"/>
   </g>
   <g id="line2d_35">
    <path d="M 230.585392 62.758761 
L 230.585391 62.758756 
L 230.58539 62.758752 
L 230.585389 62.75875 
L 230.585389 62.758752 
L 230.58539 62.758756 
L 230.585391 62.758761 
L 230.585391 62.758768 
L 230.585392 62.758774 
L 230.585392 62.758781 
L 230.585393 62.758785 
L 230.585394 62.758788 
L 230.585394 62.758788 
" clip-path="url(#pf67d15c0a2)" style="fill: none; stroke-dasharray: 2,3.3; stroke-dashoffset: 0; stroke: #2f4f4f; stroke-width: 2"/>
   </g>
   <g id="line2d_36">
    <path d="M 230.5854 62.7588 
L 230.5854 62.7588 
L 230.5854 62.758798 
L 230.585398 62.758783 
L 230.585395 62.75877 
L 230.585392 62.758761 
" clip-path="url(#pf67d15c0a2)" style="fill: none; stroke: #2f4f4f; stroke-width: 2; stroke-linecap: square"/>
   </g>
   <g id="line2d_37">
    <path d="M 230.585328 30.326531 
L 230.58531 30.326562 
L 230.585293 30.326592 
L 230.585279 30.326615 
L 230.585271 30.326626 
L 230.58527 30.326624 
L 230.585276 30.326607 
L 230.585289 30.326576 
L 230.585306 30.326536 
L 230.585323 30.326493 
L 230.585338 30.326454 
L 230.585347 30.326431 
L 230.585347 30.326431 
" clip-path="url(#pf67d15c0a2)" style="fill: none; stroke-dasharray: 2,3.3; stroke-dashoffset: 0; stroke: #cd5c5c; stroke-width: 2"/>
   </g>
   <g id="line2d_38">
    <path d="M 230.5854 30.3264 
L 230.5854 30.3264 
L 230.585397 30.326406 
L 230.585368 30.32646 
L 230.585347 30.326501 
L 230.585328 30.326531 
" clip-path="url(#pf67d15c0a2)" style="fill: none; stroke: #cd5c5c; stroke-width: 2; stroke-linecap: square"/>
   </g>
   <g id="line2d_39">
    <path clip-path="url(#pf67d15c0a2)" style="fill: none; stroke-dasharray: 2,3.3; stroke-dashoffset: 0; stroke: #add8e6; stroke-width: 2"/>
   </g>
   <g id="line2d_40">
    <path clip-path="url(#pf67d15c0a2)" style="fill: none; stroke: #add8e6; stroke-width: 2; stroke-linecap: square"/>
   </g>
   <g id="line2d_41">
    <path d="M 230.585406 192.488417 
L 230.585389 192.488422 
L 230.585352 192.48843 
L 230.585305 192.48844 
L 230.585265 192.488447 
L 230.585236 192.488452 
L 230.585218 192.488455 
L 230.585214 192.488458 
L 230.58522 192.488458 
L 230.585236 192.488455 
L 230.585252 192.48845 
L 230.58526 192.488446 
L 230.58526 192.488446 
" clip-path="url(#pf67d15c0a2)" style="fill: none; stroke-dasharray: 2,3.3; stroke-dashoffset: 0; stroke: #663399; stroke-width: 2"/>
   </g>
   <g id="line2d_42">
    <path d="M 230.5854 192.4884 
L 230.5854 192.4884 
L 230.5854 192.488401 
L 230.585403 192.488407 
L 230.585406 192.488411 
L 230.585406 192.488417 
" clip-path="url(#pf67d15c0a2)" style="fill: none; stroke: #663399; stroke-width: 2; stroke-linecap: square"/>
   </g>
   <g id="line2d_43">
    <path d="M 230.585366 224.920859 
L 230.585359 224.920876 
L 230.585354 224.920898 
L 230.58535 224.920922 
L 230.585349 224.920941 
L 230.585351 224.920955 
L 230.585356 224.920961 
L 230.585362 224.920957 
L 230.585367 224.920944 
L 230.585371 224.920923 
L 230.585373 224.920903 
L 230.585374 224.920893 
L 230.585374 224.920893 
" clip-path="url(#pf67d15c0a2)" style="fill: none; stroke-dasharray: 2,3.3; stroke-dashoffset: 0; stroke: #8fbc8f; stroke-width: 2"/>
   </g>
   <g id="line2d_44">
    <path d="M 230.5854 224.9208 
L 230.5854 224.9208 
L 230.585398 224.920803 
L 230.585385 224.920825 
L 230.585374 224.920843 
L 230.585366 224.920859 
" clip-path="url(#pf67d15c0a2)" style="fill: none; stroke: #8fbc8f; stroke-width: 2; stroke-linecap: square"/>
   </g>
   <g id="line2d_45">
    <path clip-path="url(#pf67d15c0a2)" style="fill: none; stroke-dasharray: 2,3.3; stroke-dashoffset: 0; stroke: #00ced1; stroke-width: 2"/>
   </g>
   <g id="line2d_46">
    <path clip-path="url(#pf67d15c0a2)" style="fill: none; stroke: #00ced1; stroke-width: 2; stroke-linecap: square"/>
   </g>
   <g id="line2d_47">
    <path d="M 165.720606 62.758721 
L 165.720609 62.758707 
L 165.720614 62.758695 
L 165.720619 62.758687 
L 165.720624 62.758688 
L 165.720626 62.758695 
L 165.720628 62.758708 
L 165.72063 62.758724 
L 165.720631 62.758741 
L 165.720633 62.758755 
L 165.720634 62.758764 
L 165.720634 62.758767 
L 165.720634 62.758767 
" clip-path="url(#pf67d15c0a2)" style="fill: none; stroke-dasharray: 2,3.3; stroke-dashoffset: 0; stroke: #6a5acd; stroke-width: 2"/>
   </g>
   <g id="line2d_48">
    <path d="M 165.7206 62.7588 
L 165.7206 62.7588 
L 165.7206 62.758797 
L 165.720599 62.758767 
L 165.720603 62.758741 
L 165.720606 62.758721 
" clip-path="url(#pf67d15c0a2)" style="fill: none; stroke: #6a5acd; stroke-width: 2; stroke-linecap: square"/>
   </g>
   <g id="line2d_49">
    <path d="M 165.720608 30.326303 
L 165.720608 30.326284 
L 165.720606 30.326272 
L 165.720603 30.326268 
L 165.720599 30.326271 
L 165.720596 30.326281 
L 165.720594 30.326296 
L 165.720592 30.326315 
L 165.720592 30.326335 
L 165.720592 30.326355 
L 165.720593 30.32637 
L 165.720594 30.326378 
L 165.720594 30.326378 
" clip-path="url(#pf67d15c0a2)" style="fill: none; stroke-dasharray: 2,3.3; stroke-dashoffset: 0; stroke: #808000; stroke-width: 2"/>
   </g>
   <g id="line2d_50">
    <path d="M 165.7206 30.3264 
L 165.7206 30.3264 
L 165.7206 30.326398 
L 165.720603 30.326374 
L 165.720607 30.326333 
L 165.720608 30.326303 
" clip-path="url(#pf67d15c0a2)" style="fill: none; stroke: #808000; stroke-width: 2; stroke-linecap: square"/>
   </g>
   <g id="line2d_51">
    <path clip-path="url(#pf67d15c0a2)" style="fill: none; stroke-dasharray: 2,3.3; stroke-dashoffset: 0; stroke: #a0522d; stroke-width: 2"/>
   </g>
   <g id="line2d_52">
    <path clip-path="url(#pf67d15c0a2)" style="fill: none; stroke: #a0522d; stroke-width: 2; stroke-linecap: square"/>
   </g>
   <g id="line2d_53">
    <path d="M 165.720591 192.488535 
L 165.720575 192.488569 
L 165.720568 192.488597 
L 165.720567 192.488617 
L 165.720572 192.488621 
L 165.720579 192.488611 
L 165.720589 192.48859 
L 165.7206 192.48856 
L 165.720609 192.488527 
L 165.720617 192.488495 
L 165.720621 192.488472 
L 165.720623 192.488461 
L 165.720623 192.488461 
" clip-path="url(#pf67d15c0a2)" style="fill: none; stroke-dasharray: 2,3.3; stroke-dashoffset: 0; stroke: #ff4500; stroke-width: 2"/>
   </g>
   <g id="line2d_54">
    <path d="M 165.7206 192.4884 
L 165.7206 192.4884 
L 165.720601 192.488405 
L 165.720611 192.488452 
L 165.720617 192.488491 
L 165.720591 192.488535 
" clip-path="url(#pf67d15c0a2)" style="fill: none; stroke: #ff4500; stroke-width: 2; stroke-linecap: square"/>
   </g>
   <g id="line2d_55">
    <path d="M 165.720647 224.920788 
L 165.720656 224.920807 
L 165.720663 224.920843 
L 165.720668 224.920892 
L 165.720669 224.920939 
L 165.720666 224.920982 
L 165.720659 224.921015 
L 165.720651 224.921032 
L 165.720643 224.921028 
L 165.720638 224.921007 
L 165.720637 224.92098 
L 165.720637 224.920963 
L 165.720637 224.920963 
" clip-path="url(#pf67d15c0a2)" style="fill: none; stroke-dasharray: 2,3.3; stroke-dashoffset: 0; stroke: #708090; stroke-width: 2"/>
   </g>
   <g id="line2d_56">
    <path d="M 165.7206 224.9208 
L 165.7206 224.9208 
L 165.720602 224.920799 
L 165.720621 224.92079 
L 165.720636 224.920783 
L 165.720647 224.920788 
" clip-path="url(#pf67d15c0a2)" style="fill: none; stroke: #708090; stroke-width: 2; stroke-linecap: square"/>
   </g>
   <g id="line2d_57">
    <path clip-path="url(#pf67d15c0a2)" style="fill: none; stroke-dasharray: 2,3.3; stroke-dashoffset: 0; stroke: #bdb76b; stroke-width: 2"/>
   </g>
   <g id="line2d_58">
    <path clip-path="url(#pf67d15c0a2)" style="fill: none; stroke: #bdb76b; stroke-width: 2; stroke-linecap: square"/>
   </g>
   <g id="patch_3">
    <path d="M 100.8558 224.9208 
L 100.8558 30.3264 
" style="fill: none; stroke: #000000; stroke-width: 0.8; stroke-linejoin: miter; stroke-linecap: square"/>
   </g>
   <g id="patch_4">
    <path d="M 295.4502 224.9208 
L 295.4502 30.3264 
" style="fill: none; stroke: #000000; stroke-width: 0.8; stroke-linejoin: miter; stroke-linecap: square"/>
   </g>
   <g id="patch_5">
    <path d="M 100.8558 224.9208 
L 295.4502 224.9208 
" style="fill: none; stroke: #000000; stroke-width: 0.8; stroke-linejoin: miter; stroke-linecap: square"/>
   </g>
   <g id="patch_6">
    <path d="M 100.8558 30.3264 
L 295.4502 30.3264 
" style="fill: none; stroke: #000000; stroke-width: 0.8; stroke-linejoin: miter; stroke-linecap: square"/>
   </g>
   <g id="patch_7">
    <path d="M 160.673863 137.14189 
C 163.254215 137.14189 165.72923 136.116705 167.553814 134.292121 
C 169.378399 132.467536 170.403583 129.992521 170.403583 127.41217 
C 170.403583 124.831818 169.378399 122.356803 167.553814 120.532219 
C 165.72923 118.707634 163.254215 117.68245 160.673863 117.68245 
C 158.093511 117.68245 155.618497 118.707634 153.793912 120.532219 
C 151.969328 122.356803 150.944143 124.831818 150.944143 127.41217 
C 150.944143 129.992521 151.969328 132.467536 153.793912 134.292121 
C 155.618497 136.116705 158.093511 137.14189 160.673863 137.14189 
z
" clip-path="url(#pf67d15c0a2)" style="fill: #1f77b4; stroke: #000000; stroke-linejoin: miter"/>
   </g>
   <g id="patch_8">
    <path d="M 201.48243 189.994293 
C 204.062782 189.994293 206.537797 188.969108 208.362381 187.144524 
C 210.186965 185.319939 211.21215 182.844925 211.21215 180.264573 
C 211.21215 177.684221 210.186965 175.209206 208.362381 173.384622 
C 206.537797 171.560037 204.062782 170.534853 201.48243 170.534853 
C 198.902078 170.534853 196.427063 171.560037 194.602479 173.384622 
C 192.777895 175.209206 191.75271 177.684221 191.75271 180.264573 
C 191.75271 182.844925 192.777895 185.319939 194.602479 187.144524 
C 196.427063 188.969108 198.902078 189.994293 201.48243 189.994293 
z
" clip-path="url(#pf67d15c0a2)" style="fill: #ff7f0e; stroke: #000000; stroke-linejoin: miter"/>
   </g>
   <g id="patch_9">
    <path d="M 133.288206 104.92091 
C 135.868558 104.92091 138.343573 103.895725 140.168157 102.071141 
C 141.992742 100.246556 143.017926 97.771541 143.017926 95.19119 
C 143.017926 92.610838 141.992742 90.135823 140.168157 88.311239 
C 138.343573 86.486654 135.868558 85.46147 133.288206 85.46147 
C 130.707854 85.46147 128.23284 86.486654 126.408255 88.311239 
C 124.583671 90.135823 123.558486 92.610838 123.558486 95.19119 
C 123.558486 97.771541 124.583671 100.246556 126.408255 102.071141 
C 128.23284 103.895725 130.707854 104.92091 133.288206 104.92091 
z
" clip-path="url(#pf67d15c0a2)" style="fill: #2ca02c; stroke: #000000; stroke-linejoin: miter"/>
   </g>
   <g id="patch_10">
    <path d="M 165.720541 104.920878 
C 168.300892 104.920878 170.775907 103.895694 172.600492 102.071109 
C 174.425076 100.246525 175.450261 97.77151 175.450261 95.191158 
C 175.450261 92.610807 174.425076 90.135792 172.600492 88.311207 
C 170.775907 86.486623 168.300892 85.461438 165.720541 85.461438 
C 163.140189 85.461438 160.665174 86.486623 158.84059 88.311207 
C 157.016005 90.135792 155.990821 92.610807 155.990821 95.191158 
C 155.990821 97.77151 157.016005 100.246525 158.84059 102.071109 
C 160.665174 103.895694 163.140189 104.920878 165.720541 104.920878 
z
" clip-path="url(#pf67d15c0a2)" style="fill: #d62728; stroke: #000000; stroke-linejoin: miter"/>
   </g>
   <g id="patch_11">
    <path d="M 230.585427 104.920906 
C 233.165779 104.920906 235.640794 103.895721 237.465378 102.071137 
C 239.289963 100.246552 240.315147 97.771538 240.315147 95.191186 
C 240.315147 92.610834 239.289963 90.135819 237.465378 88.311235 
C 235.640794 86.48665 233.165779 85.461466 230.585427 85.461466 
C 228.005075 85.461466 225.530061 86.48665 223.705476 88.311235 
C 221.880892 90.135819 220.855707 92.610834 220.855707 95.191186 
C 220.855707 97.771538 221.880892 100.246552 223.705476 102.071137 
C 225.530061 103.895721 228.005075 104.920906 230.585427 104.920906 
z
" clip-path="url(#pf67d15c0a2)" style="fill: #9467bd; stroke: #000000; stroke-linejoin: miter"/>
   </g>
   <g id="patch_12">
    <path d="M 263.017815 104.920913 
C 265.598167 104.920913 268.073182 103.895729 269.897766 102.071144 
C 271.72235 100.24656 272.747535 97.771545 272.747535 95.191193 
C 272.747535 92.610841 271.72235 90.135827 269.897766 88.311242 
C 268.073182 86.486658 265.598167 85.461473 263.017815 85.461473 
C 260.437463 85.461473 257.962448 86.486658 256.137864 88.311242 
C 254.31328 90.135827 253.288095 92.610841 253.288095 95.191193 
C 253.288095 97.771545 254.31328 100.24656 256.137864 102.071144 
C 257.962448 103.895729 260.437463 104.920913 263.017815 104.920913 
z
" clip-path="url(#pf67d15c0a2)" style="fill: #8c564b; stroke: #000000; stroke-linejoin: miter"/>
   </g>
   <g id="patch_13">
    <path d="M 133.288208 169.785731 
C 135.86856 169.785731 138.343574 168.760546 140.168159 166.935962 
C 141.992743 165.111377 143.017928 162.636362 143.017928 160.056011 
C 143.017928 157.475659 141.992743 155.000644 140.168159 153.17606 
C 138.343574 151.351475 135.86856 150.326291 133.288208 150.326291 
C 130.707856 150.326291 128.232841 151.351475 126.408257 153.17606 
C 124.583672 155.000644 123.558488 157.475659 123.558488 160.056011 
C 123.558488 162.636362 124.583672 165.111377 126.408257 166.935962 
C 128.232841 168.760546 130.707856 169.785731 133.288208 169.785731 
z
" clip-path="url(#pf67d15c0a2)" style="fill: #e377c2; stroke: #000000; stroke-linejoin: miter"/>
   </g>
   <g id="patch_14">
    <path d="M 165.72054 169.785576 
C 168.300892 169.785576 170.775907 168.760391 172.600491 166.935807 
C 174.425075 165.111222 175.45026 162.636208 175.45026 160.055856 
C 175.45026 157.475504 174.425075 155.000489 172.600491 153.175905 
C 170.775907 151.35132 168.300892 150.326136 165.72054 150.326136 
C 163.140188 150.326136 160.665173 151.35132 158.840589 153.175905 
C 157.016005 155.000489 155.99082 157.475504 155.99082 160.055856 
C 155.99082 162.636208 157.016005 165.111222 158.840589 166.935807 
C 160.665173 168.760391 163.140188 169.785576 165.72054 169.785576 
z
" clip-path="url(#pf67d15c0a2)" style="fill: #7f7f7f; stroke: #000000; stroke-linejoin: miter"/>
   </g>
   <g id="patch_15">
    <path d="M 230.585441 169.785685 
C 233.165793 169.785685 235.640808 168.7605 237.465392 166.935916 
C 239.289976 165.111331 240.315161 162.636317 240.315161 160.055965 
C 240.315161 157.475613 239.289976 155.000598 237.465392 153.176014 
C 235.640808 151.351429 233.165793 150.326245 230.585441 150.326245 
C 228.005089 150.326245 225.530074 151.351429 223.70549 153.176014 
C 221.880906 155.000598 220.855721 157.475613 220.855721 160.055965 
C 220.855721 162.636317 221.880906 165.111331 223.70549 166.935916 
C 225.530074 168.7605 228.005089 169.785685 230.585441 169.785685 
z
" clip-path="url(#pf67d15c0a2)" style="fill: #bcbd22; stroke: #000000; stroke-linejoin: miter"/>
   </g>
   <g id="patch_16">
    <path d="M 263.017801 169.785737 
C 265.598153 169.785737 268.073168 168.760553 269.897752 166.935968 
C 271.722336 165.111384 272.747521 162.636369 272.747521 160.056017 
C 272.747521 157.475665 271.722336 155.000651 269.897752 153.176066 
C 268.073168 151.351482 265.598153 150.326297 263.017801 150.326297 
C 260.437449 150.326297 257.962434 151.351482 256.13785 153.176066 
C 254.313266 155.000651 253.288081 157.475665 253.288081 160.056017 
C 253.288081 162.636369 254.313266 165.111384 256.13785 166.935968 
C 257.962434 168.760553 260.437449 169.785737 263.017801 169.785737 
z
" clip-path="url(#pf67d15c0a2)" style="fill: #17becf; stroke: #000000; stroke-linejoin: miter"/>
   </g>
   <g id="patch_17">
    <path d="M 230.585392 72.488481 
C 233.165744 72.488481 235.640759 71.463296 237.465343 69.638712 
C 239.289928 67.814128 240.315112 65.339113 240.315112 62.758761 
C 240.315112 60.178409 239.289928 57.703394 237.465343 55.87881 
C 235.640759 54.054226 233.165744 53.029041 230.585392 53.029041 
C 228.00504 53.029041 225.530026 54.054226 223.705441 55.87881 
C 221.880857 57.703394 220.855672 60.178409 220.855672 62.758761 
C 220.855672 65.339113 221.880857 67.814128 223.705441 69.638712 
C 225.530026 71.463296 228.00504 72.488481 230.585392 72.488481 
z
" clip-path="url(#pf67d15c0a2)" style="fill: #2f4f4f; stroke: #000000; stroke-linejoin: miter"/>
   </g>
   <g id="patch_18">
    <path d="M 230.585328 40.056251 
C 233.16568 40.056251 235.640695 39.031066 237.465279 37.206482 
C 239.289863 35.381897 240.315048 32.906883 240.315048 30.326531 
C 240.315048 27.746179 239.289863 25.271164 237.465279 23.44658 
C 235.640695 21.621996 233.16568 20.596811 230.585328 20.596811 
C 228.004976 20.596811 225.529961 21.621996 223.705377 23.44658 
C 221.880793 25.271164 220.855608 27.746179 220.855608 30.326531 
C 220.855608 32.906883 221.880793 35.381897 223.705377 37.206482 
C 225.529961 39.031066 228.004976 40.056251 230.585328 40.056251 
z
" clip-path="url(#pf67d15c0a2)" style="fill: #cd5c5c; stroke: #000000; stroke-linejoin: miter"/>
   </g>
   <g id="patch_19">
    <path d="M 230.585407 7.623721 
C 233.165759 7.623721 235.640773 6.598537 237.465358 4.773952 
C 239.289942 2.949368 240.315127 0.474353 240.315127 -2.105999 
C 240.315127 -4.686351 239.289942 -7.161365 237.465358 -8.98595 
C 235.640773 -10.810534 233.165759 -11.835719 230.585407 -11.835719 
C 228.005055 -11.835719 225.53004 -10.810534 223.705456 -8.98595 
C 221.880871 -7.161365 220.855687 -4.686351 220.855687 -2.105999 
C 220.855687 0.474353 221.880871 2.949368 223.705456 4.773952 
C 225.53004 6.598537 228.005055 7.623721 230.585407 7.623721 
z
" clip-path="url(#pf67d15c0a2)" style="fill: #add8e6; stroke: #000000; stroke-linejoin: miter"/>
   </g>
   <g id="patch_20">
    <path d="M 230.585406 202.218137 
C 233.165758 202.218137 235.640773 201.192952 237.465357 199.368368 
C 239.289941 197.543783 240.315126 195.068768 240.315126 192.488417 
C 240.315126 189.908065 239.289941 187.43305 237.465357 185.608466 
C 235.640773 183.783881 233.165758 182.758697 230.585406 182.758697 
C 228.005054 182.758697 225.530039 183.783881 223.705455 185.608466 
C 221.880871 187.43305 220.855686 189.908065 220.855686 192.488417 
C 220.855686 195.068768 221.880871 197.543783 223.705455 199.368368 
C 225.530039 201.192952 228.005054 202.218137 230.585406 202.218137 
z
" clip-path="url(#pf67d15c0a2)" style="fill: #663399; stroke: #000000; stroke-linejoin: miter"/>
   </g>
   <g id="patch_21">
    <path d="M 230.585366 234.650579 
C 233.165718 234.650579 235.640733 233.625394 237.465317 231.80081 
C 239.289901 229.976225 240.315086 227.50121 240.315086 224.920859 
C 240.315086 222.340507 239.289901 219.865492 237.465317 218.040908 
C 235.640733 216.216323 233.165718 215.191139 230.585366 215.191139 
C 228.005014 215.191139 225.529999 216.216323 223.705415 218.040908 
C 221.880831 219.865492 220.855646 222.340507 220.855646 224.920859 
C 220.855646 227.50121 221.880831 229.976225 223.705415 231.80081 
C 225.529999 233.625394 228.005014 234.650579 230.585366 234.650579 
z
" clip-path="url(#pf67d15c0a2)" style="fill: #8fbc8f; stroke: #000000; stroke-linejoin: miter"/>
   </g>
   <g id="patch_22">
    <path d="M 230.585444 267.082907 
C 233.165796 267.082907 235.64081 266.057723 237.465395 264.233138 
C 239.289979 262.408554 240.315164 259.933539 240.315164 257.353187 
C 240.315164 254.772835 239.289979 252.297821 237.465395 250.473236 
C 235.64081 248.648652 233.165796 247.623467 230.585444 247.623467 
C 228.005092 247.623467 225.530077 248.648652 223.705493 250.473236 
C 221.880908 252.297821 220.855724 254.772835 220.855724 257.353187 
C 220.855724 259.933539 221.880908 262.408554 223.705493 264.233138 
C 225.530077 266.057723 228.005092 267.082907 230.585444 267.082907 
z
" clip-path="url(#pf67d15c0a2)" style="fill: #00ced1; stroke: #000000; stroke-linejoin: miter"/>
   </g>
   <g id="patch_23">
    <path d="M 165.720606 72.488441 
C 168.300958 72.488441 170.775973 71.463256 172.600557 69.638672 
C 174.425142 67.814087 175.450326 65.339073 175.450326 62.758721 
C 175.450326 60.178369 174.425142 57.703354 172.600557 55.87877 
C 170.775973 54.054185 168.300958 53.029001 165.720606 53.029001 
C 163.140254 53.029001 160.66524 54.054185 158.840655 55.87877 
C 157.016071 57.703354 155.990886 60.178369 155.990886 62.758721 
C 155.990886 65.339073 157.016071 67.814087 158.840655 69.638672 
C 160.66524 71.463256 163.140254 72.488441 165.720606 72.488441 
z
" clip-path="url(#pf67d15c0a2)" style="fill: #6a5acd; stroke: #000000; stroke-linejoin: miter"/>
   </g>
   <g id="patch_24">
    <path d="M 165.720608 40.056023 
C 168.30096 40.056023 170.775975 39.030839 172.600559 37.206254 
C 174.425143 35.38167 175.450328 32.906655 175.450328 30.326303 
C 175.450328 27.745951 174.425143 25.270937 172.600559 23.446352 
C 170.775975 21.621768 168.30096 20.596583 165.720608 20.596583 
C 163.140256 20.596583 160.665241 21.621768 158.840657 23.446352 
C 157.016073 25.270937 155.990888 27.745951 155.990888 30.326303 
C 155.990888 32.906655 157.016073 35.38167 158.840657 37.206254 
C 160.665241 39.030839 163.140256 40.056023 165.720608 40.056023 
z
" clip-path="url(#pf67d15c0a2)" style="fill: #808000; stroke: #000000; stroke-linejoin: miter"/>
   </g>
   <g id="patch_25">
    <path d="M 165.720584 7.623726 
C 168.300936 7.623726 170.775951 6.598542 172.600535 4.773957 
C 174.425119 2.949373 175.450304 0.474358 175.450304 -2.105994 
C 175.450304 -4.686346 174.425119 -7.16136 172.600535 -8.985945 
C 170.775951 -10.810529 168.300936 -11.835714 165.720584 -11.835714 
C 163.140232 -11.835714 160.665217 -10.810529 158.840633 -8.985945 
C 157.016049 -7.16136 155.990864 -4.686346 155.990864 -2.105994 
C 155.990864 0.474358 157.016049 2.949373 158.840633 4.773957 
C 160.665217 6.598542 163.140232 7.623726 165.720584 7.623726 
z
" clip-path="url(#pf67d15c0a2)" style="fill: #a0522d; stroke: #000000; stroke-linejoin: miter"/>
   </g>
   <g id="patch_26">
    <path d="M 165.720591 202.218255 
C 168.300943 202.218255 170.775958 201.193071 172.600542 199.368486 
C 174.425127 197.543902 175.450311 195.068887 175.450311 192.488535 
C 175.450311 189.908183 174.425127 187.433169 172.600542 185.608584 
C 170.775958 183.784 168.300943 182.758815 165.720591 182.758815 
C 163.140239 182.758815 160.665225 183.784 158.84064 185.608584 
C 157.016056 187.433169 155.990871 189.908183 155.990871 192.488535 
C 155.990871 195.068887 157.016056 197.543902 158.84064 199.368486 
C 160.665225 201.193071 163.140239 202.218255 165.720591 202.218255 
z
" clip-path="url(#pf67d15c0a2)" style="fill: #ff4500; stroke: #000000; stroke-linejoin: miter"/>
   </g>
   <g id="patch_27">
    <path d="M 165.720647 234.650508 
C 168.300999 234.650508 170.776013 233.625323 172.600598 231.800739 
C 174.425182 229.976154 175.450367 227.501139 175.450367 224.920788 
C 175.450367 222.340436 174.425182 219.865421 172.600598 218.040837 
C 170.776013 216.216252 168.300999 215.191068 165.720647 215.191068 
C 163.140295 215.191068 160.66528 216.216252 158.840696 218.040837 
C 157.016111 219.865421 155.990927 222.340436 155.990927 224.920788 
C 155.990927 227.501139 157.016111 229.976154 158.840696 231.800739 
C 160.66528 233.625323 163.140295 234.650508 165.720647 234.650508 
z
" clip-path="url(#pf67d15c0a2)" style="fill: #708090; stroke: #000000; stroke-linejoin: miter"/>
   </g>
   <g id="patch_28">
    <path d="M 165.720542 267.082908 
C 168.300894 267.082908 170.775909 266.057723 172.600493 264.233139 
C 174.425078 262.408554 175.450262 259.93354 175.450262 257.353188 
C 175.450262 254.772836 174.425078 252.297821 172.600493 250.473237 
C 170.775909 248.648652 168.300894 247.623468 165.720542 247.623468 
C 163.14019 247.623468 160.665176 248.648652 158.840591 250.473237 
C 157.016007 252.297821 155.990822 254.772836 155.990822 257.353188 
C 155.990822 259.93354 157.016007 262.408554 158.840591 264.233139 
C 160.665176 266.057723 163.14019 267.082908 165.720542 267.082908 
z
" clip-path="url(#pf67d15c0a2)" style="fill: #bdb76b; stroke: #000000; stroke-linejoin: miter"/>
   </g>
   <g id="line2d_59">
    <path d="M 263.0178 127.6236 
" clip-path="url(#pf67d15c0a2)" style="fill: none; stroke: #1f77b4; stroke-width: 1.5; stroke-linecap: square"/>
    <defs>
     <path id="m4907bc80a6" d="M 0 4.949747 
L 2.969848 0 
L 0 -4.949747 
L -2.969848 0 
z
" style="stroke: #000000; stroke-linejoin: miter"/>
    </defs>
    <g clip-path="url(#pf67d15c0a2)">
     <use xlink:href="#m4907bc80a6" x="263.0178" y="127.6236" style="fill: #1f77b4; stroke: #000000; stroke-linejoin: miter"/>
    </g>
   </g>
   <g id="line2d_60">
    <path d="M 263.0178 127.6236 
" clip-path="url(#pf67d15c0a2)" style="fill: none; stroke: #ff7f0e; stroke-width: 1.5; stroke-linecap: square"/>
    <defs>
     <path id="m1a647bd02a" d="M 0 4.949747 
L 2.969848 0 
L 0 -4.949747 
L -2.969848 0 
z
" style="stroke: #000000; stroke-linejoin: miter"/>
    </defs>
    <g clip-path="url(#pf67d15c0a2)">
     <use xlink:href="#m1a647bd02a" x="263.0178" y="127.6236" style="fill: #ff7f0e; stroke: #000000; stroke-linejoin: miter"/>
    </g>
   </g>
   <g id="line2d_61">
    <path d="M 133.2882 95.1912 
" clip-path="url(#pf67d15c0a2)" style="fill: none; stroke: #2ca02c; stroke-width: 1.5; stroke-linecap: square"/>
    <defs>
     <path id="m3d023c6d86" d="M 0 4.949747 
L 2.969848 0 
L 0 -4.949747 
L -2.969848 0 
z
" style="stroke: #000000; stroke-linejoin: miter"/>
    </defs>
    <g clip-path="url(#pf67d15c0a2)">
     <use xlink:href="#m3d023c6d86" x="133.2882" y="95.1912" style="fill: #2ca02c; stroke: #000000; stroke-linejoin: miter"/>
    </g>
   </g>
   <g id="line2d_62">
    <path d="M 165.7206 95.1912 
" clip-path="url(#pf67d15c0a2)" style="fill: none; stroke: #d62728; stroke-width: 1.5; stroke-linecap: square"/>
    <defs>
     <path id="m52cc16129f" d="M 0 4.949747 
L 2.969848 0 
L 0 -4.949747 
L -2.969848 0 
z
" style="stroke: #000000; stroke-linejoin: miter"/>
    </defs>
    <g clip-path="url(#pf67d15c0a2)">
     <use xlink:href="#m52cc16129f" x="165.7206" y="95.1912" style="fill: #d62728; stroke: #000000; stroke-linejoin: miter"/>
    </g>
   </g>
   <g id="line2d_63">
    <path d="M 230.5854 95.1912 
" clip-path="url(#pf67d15c0a2)" style="fill: none; stroke: #9467bd; stroke-width: 1.5; stroke-linecap: square"/>
    <defs>
     <path id="m57246299f6" d="M 0 4.949747 
L 2.969848 0 
L 0 -4.949747 
L -2.969848 0 
z
" style="stroke: #000000; stroke-linejoin: miter"/>
    </defs>
    <g clip-path="url(#pf67d15c0a2)">
     <use xlink:href="#m57246299f6" x="230.5854" y="95.1912" style="fill: #9467bd; stroke: #000000; stroke-linejoin: miter"/>
    </g>
   </g>
   <g id="line2d_64">
    <path d="M 263.0178 95.1912 
" clip-path="url(#pf67d15c0a2)" style="fill: none; stroke: #8c564b; stroke-width: 1.5; stroke-linecap: square"/>
    <defs>
     <path id="m203d9039e7" d="M 0 4.949747 
L 2.969848 0 
L 0 -4.949747 
L -2.969848 0 
z
" style="stroke: #000000; stroke-linejoin: miter"/>
    </defs>
    <g clip-path="url(#pf67d15c0a2)">
     <use xlink:href="#m203d9039e7" x="263.0178" y="95.1912" style="fill: #8c564b; stroke: #000000; stroke-linejoin: miter"/>
    </g>
   </g>
   <g id="line2d_65">
    <path d="M 133.2882 160.056 
" clip-path="url(#pf67d15c0a2)" style="fill: none; stroke: #e377c2; stroke-width: 1.5; stroke-linecap: square"/>
    <defs>
     <path id="m03b370a4f8" d="M 0 4.949747 
L 2.969848 0 
L 0 -4.949747 
L -2.969848 0 
z
" style="stroke: #000000; stroke-linejoin: miter"/>
    </defs>
    <g clip-path="url(#pf67d15c0a2)">
     <use xlink:href="#m03b370a4f8" x="133.2882" y="160.056" style="fill: #e377c2; stroke: #000000; stroke-linejoin: miter"/>
    </g>
   </g>
   <g id="line2d_66">
    <path d="M 165.7206 160.056 
" clip-path="url(#pf67d15c0a2)" style="fill: none; stroke: #7f7f7f; stroke-width: 1.5; stroke-linecap: square"/>
    <defs>
     <path id="m3d5d1027a6" d="M 0 4.949747 
L 2.969848 0 
L 0 -4.949747 
L -2.969848 0 
z
" style="stroke: #000000; stroke-linejoin: miter"/>
    </defs>
    <g clip-path="url(#pf67d15c0a2)">
     <use xlink:href="#m3d5d1027a6" x="165.7206" y="160.056" style="fill: #7f7f7f; stroke: #000000; stroke-linejoin: miter"/>
    </g>
   </g>
   <g id="line2d_67">
    <path d="M 230.5854 160.056 
" clip-path="url(#pf67d15c0a2)" style="fill: none; stroke: #bcbd22; stroke-width: 1.5; stroke-linecap: square"/>
    <defs>
     <path id="m5d2637a159" d="M 0 4.949747 
L 2.969848 0 
L 0 -4.949747 
L -2.969848 0 
z
" style="stroke: #000000; stroke-linejoin: miter"/>
    </defs>
    <g clip-path="url(#pf67d15c0a2)">
     <use xlink:href="#m5d2637a159" x="230.5854" y="160.056" style="fill: #bcbd22; stroke: #000000; stroke-linejoin: miter"/>
    </g>
   </g>
   <g id="line2d_68">
    <path d="M 263.0178 160.056 
" clip-path="url(#pf67d15c0a2)" style="fill: none; stroke: #17becf; stroke-width: 1.5; stroke-linecap: square"/>
    <defs>
     <path id="m0315caf6b8" d="M 0 4.949747 
L 2.969848 0 
L 0 -4.949747 
L -2.969848 0 
z
" style="stroke: #000000; stroke-linejoin: miter"/>
    </defs>
    <g clip-path="url(#pf67d15c0a2)">
     <use xlink:href="#m0315caf6b8" x="263.0178" y="160.056" style="fill: #17becf; stroke: #000000; stroke-linejoin: miter"/>
    </g>
   </g>
   <g id="line2d_69">
    <path d="M 230.5854 62.7588 
" clip-path="url(#pf67d15c0a2)" style="fill: none; stroke: #2f4f4f; stroke-width: 1.5; stroke-linecap: square"/>
    <defs>
     <path id="mc3eb17f65a" d="M 0 4.949747 
L 2.969848 0 
L 0 -4.949747 
L -2.969848 0 
z
" style="stroke: #000000; stroke-linejoin: miter"/>
    </defs>
    <g clip-path="url(#pf67d15c0a2)">
     <use xlink:href="#mc3eb17f65a" x="230.5854" y="62.7588" style="fill: #2f4f4f; stroke: #000000; stroke-linejoin: miter"/>
    </g>
   </g>
   <g id="line2d_70">
    <path d="M 230.5854 30.3264 
" clip-path="url(#pf67d15c0a2)" style="fill: none; stroke: #cd5c5c; stroke-width: 1.5; stroke-linecap: square"/>
    <defs>
     <path id="m780cd6c43c" d="M 0 4.949747 
L 2.969848 0 
L 0 -4.949747 
L -2.969848 0 
z
" style="stroke: #000000; stroke-linejoin: miter"/>
    </defs>
    <g clip-path="url(#pf67d15c0a2)">
     <use xlink:href="#m780cd6c43c" x="230.5854" y="30.3264" style="fill: #cd5c5c; stroke: #000000; stroke-linejoin: miter"/>
    </g>
   </g>
   <g id="line2d_71">
    <path clip-path="url(#pf67d15c0a2)" style="fill: none; stroke: #add8e6; stroke-width: 1.5; stroke-linecap: square"/>
    <defs>
     <path id="md53bb90859" d="M 0 4.949747 
L 2.969848 0 
L 0 -4.949747 
L -2.969848 0 
z
" style="stroke: #000000; stroke-linejoin: miter"/>
    </defs>
    <g clip-path="url(#pf67d15c0a2)"/>
   </g>
   <g id="line2d_72">
    <path d="M 230.5854 192.4884 
" clip-path="url(#pf67d15c0a2)" style="fill: none; stroke: #663399; stroke-width: 1.5; stroke-linecap: square"/>
    <defs>
     <path id="m7d378cd195" d="M 0 4.949747 
L 2.969848 0 
L 0 -4.949747 
L -2.969848 0 
z
" style="stroke: #000000; stroke-linejoin: miter"/>
    </defs>
    <g clip-path="url(#pf67d15c0a2)">
     <use xlink:href="#m7d378cd195" x="230.5854" y="192.4884" style="fill: #663399; stroke: #000000; stroke-linejoin: miter"/>
    </g>
   </g>
   <g id="line2d_73">
    <path d="M 230.5854 224.9208 
" clip-path="url(#pf67d15c0a2)" style="fill: none; stroke: #8fbc8f; stroke-width: 1.5; stroke-linecap: square"/>
    <defs>
     <path id="m52b4fe593f" d="M 0 4.949747 
L 2.969848 0 
L 0 -4.949747 
L -2.969848 0 
z
" style="stroke: #000000; stroke-linejoin: miter"/>
    </defs>
    <g clip-path="url(#pf67d15c0a2)">
     <use xlink:href="#m52b4fe593f" x="230.5854" y="224.9208" style="fill: #8fbc8f; stroke: #000000; stroke-linejoin: miter"/>
    </g>
   </g>
   <g id="line2d_74">
    <path clip-path="url(#pf67d15c0a2)" style="fill: none; stroke: #00ced1; stroke-width: 1.5; stroke-linecap: square"/>
    <defs>
     <path id="m3fd623b443" d="M 0 4.949747 
L 2.969848 0 
L 0 -4.949747 
L -2.969848 0 
z
" style="stroke: #000000; stroke-linejoin: miter"/>
    </defs>
    <g clip-path="url(#pf67d15c0a2)">
     <use xlink:href="#m3fd623b443" x="230.5854" y="257.3532" style="fill: #00ced1; stroke: #000000; stroke-linejoin: miter"/>
    </g>
   </g>
   <g id="line2d_75">
    <path d="M 165.7206 62.7588 
" clip-path="url(#pf67d15c0a2)" style="fill: none; stroke: #6a5acd; stroke-width: 1.5; stroke-linecap: square"/>
    <defs>
     <path id="m0b98acad03" d="M 0 4.949747 
L 2.969848 0 
L 0 -4.949747 
L -2.969848 0 
z
" style="stroke: #000000; stroke-linejoin: miter"/>
    </defs>
    <g clip-path="url(#pf67d15c0a2)">
     <use xlink:href="#m0b98acad03" x="165.7206" y="62.7588" style="fill: #6a5acd; stroke: #000000; stroke-linejoin: miter"/>
    </g>
   </g>
   <g id="line2d_76">
    <path d="M 165.7206 30.3264 
" clip-path="url(#pf67d15c0a2)" style="fill: none; stroke: #808000; stroke-width: 1.5; stroke-linecap: square"/>
    <defs>
     <path id="m129ce5224f" d="M 0 4.949747 
L 2.969848 0 
L 0 -4.949747 
L -2.969848 0 
z
" style="stroke: #000000; stroke-linejoin: miter"/>
    </defs>
    <g clip-path="url(#pf67d15c0a2)">
     <use xlink:href="#m129ce5224f" x="165.7206" y="30.3264" style="fill: #808000; stroke: #000000; stroke-linejoin: miter"/>
    </g>
   </g>
   <g id="line2d_77">
    <path clip-path="url(#pf67d15c0a2)" style="fill: none; stroke: #a0522d; stroke-width: 1.5; stroke-linecap: square"/>
    <defs>
     <path id="m626872c0c2" d="M 0 4.949747 
L 2.969848 0 
L 0 -4.949747 
L -2.969848 0 
z
" style="stroke: #000000; stroke-linejoin: miter"/>
    </defs>
    <g clip-path="url(#pf67d15c0a2)"/>
   </g>
   <g id="line2d_78">
    <path d="M 165.7206 192.4884 
" clip-path="url(#pf67d15c0a2)" style="fill: none; stroke: #ff4500; stroke-width: 1.5; stroke-linecap: square"/>
    <defs>
     <path id="m1cd19e45fd" d="M 0 4.949747 
L 2.969848 0 
L 0 -4.949747 
L -2.969848 0 
z
" style="stroke: #000000; stroke-linejoin: miter"/>
    </defs>
    <g clip-path="url(#pf67d15c0a2)">
     <use xlink:href="#m1cd19e45fd" x="165.7206" y="192.4884" style="fill: #ff4500; stroke: #000000; stroke-linejoin: miter"/>
    </g>
   </g>
   <g id="line2d_79">
    <path d="M 165.7206 224.9208 
" clip-path="url(#pf67d15c0a2)" style="fill: none; stroke: #708090; stroke-width: 1.5; stroke-linecap: square"/>
    <defs>
     <path id="mcfeb3b54e3" d="M 0 4.949747 
L 2.969848 0 
L 0 -4.949747 
L -2.969848 0 
z
" style="stroke: #000000; stroke-linejoin: miter"/>
    </defs>
    <g clip-path="url(#pf67d15c0a2)">
     <use xlink:href="#mcfeb3b54e3" x="165.7206" y="224.9208" style="fill: #708090; stroke: #000000; stroke-linejoin: miter"/>
    </g>
   </g>
   <g id="line2d_80">
    <path clip-path="url(#pf67d15c0a2)" style="fill: none; stroke: #bdb76b; stroke-width: 1.5; stroke-linecap: square"/>
    <defs>
     <path id="m432ed37759" d="M 0 4.949747 
L 2.969848 0 
L 0 -4.949747 
L -2.969848 0 
z
" style="stroke: #000000; stroke-linejoin: miter"/>
    </defs>
    <g clip-path="url(#pf67d15c0a2)">
     <use xlink:href="#m432ed37759" x="165.7206" y="257.3532" style="fill: #bdb76b; stroke: #000000; stroke-linejoin: miter"/>
    </g>
   </g>
  </g>
 </g>
 <defs>
  <clipPath id="pf67d15c0a2">
   <rect x="100.8558" y="30.3264" width="194.5944" height="194.5944"/>
  </clipPath>
 </defs>
</svg>
