<?xml version="1.0" encoding="utf-8" standalone="no"?>
<!DOCTYPE svg PUBLIC "-//W3C//DTD SVG 1.1//EN"
  "http://www.w3.org/Graphics/SVG/1.1/DTD/svg11.dtd">
<svg xmlns:xlink="http://www.w3.org/1999/xlink" width="386.64pt" height="252.72pt" viewBox="0 0 386.64 252.72" xmlns="http://www.w3.org/2000/svg" version="1.1">
 <metadata>
  <rdf:RDF xmlns:dc="http://purl.org/dc/elements/1.1/" xmlns:cc="http://creativecommons.org/ns#" xmlns:rdf="http://www.w3.org/1999/02/22-rdf-syntax-ns#">
   <cc:Work>
    <dc:type rdf:resource="http://purl.org/dc/dcmitype/StillImage"/>
    <dc:date>2023-07-11T22:26:57.251917</dc:date>
    <dc:format>image/svg+xml</dc:format>
    <dc:creator>
     <cc:Agent>
      <dc:title>Matplotlib v3.6.2, https://matplotlib.org/</dc:title>
     </cc:Agent>
    </dc:creator>
   </cc:Work>
  </rdf:RDF>
 </metadata>
 <defs>
  <style type="text/css">*{stroke-linejoin: round; stroke-linecap: butt}</style>
 </defs>
 <g id="figure_1">
  <g id="patch_1">
   <path d="M 0 252.72 
L 386.64 252.72 
L 386.64 0 
L 0 0 
z
" style="fill: #ffffff"/>
  </g>
  <g id="axes_1">
   <g id="patch_2">
    <path d="M 100.8558 224.9208 
L 295.4502 224.9208 
L 295.4502 30.3264 
L 100.8558 30.3264 
z
" style="fill: #ffffff"/>
   </g>
   <g id="matplotlib.axis_1">
    <g id="xtick_1">
     <g id="line2d_1">
      <defs>
       <path id="mc565335f0f" d="M 0 0 
L 0 3.5 
" style="stroke: #000000; stroke-width: 0.8"/>
      </defs>
      <g>
       <use xlink:href="#mc565335f0f" x="100.8558" y="224.9208" style="stroke: #000000; stroke-width: 0.8"/>
      </g>
     </g>
     <g id="text_1">
      <!-- −0.5 -->
      <g transform="translate(88.714394 239.519237) scale(0.1 -0.1)">
       <defs>
        <path id="DejaVuSans-2212" d="M 678 2272 
L 4684 2272 
L 4684 1741 
L 678 1741 
L 678 2272 
z
" transform="scale(0.015625)"/>
        <path id="DejaVuSans-30" d="M 2034 4250 
Q 1547 4250 1301 3770 
Q 1056 3291 1056 2328 
Q 1056 1369 1301 889 
Q 1547 409 2034 409 
Q 2525 409 2770 889 
Q 3016 1369 3016 2328 
Q 3016 3291 2770 3770 
Q 2525 4250 2034 4250 
z
M 2034 4750 
Q 2819 4750 3233 4129 
Q 3647 3509 3647 2328 
Q 3647 1150 3233 529 
Q 2819 -91 2034 -91 
Q 1250 -91 836 529 
Q 422 1150 422 2328 
Q 422 3509 836 4129 
Q 1250 4750 2034 4750 
z
" transform="scale(0.015625)"/>
        <path id="DejaVuSans-2e" d="M 684 794 
L 1344 794 
L 1344 0 
L 684 0 
L 684 794 
z
" transform="scale(0.015625)"/>
        <path id="DejaVuSans-35" d="M 691 4666 
L 3169 4666 
L 3169 4134 
L 1269 4134 
L 1269 2991 
Q 1406 3038 1543 3061 
Q 1681 3084 1819 3084 
Q 2600 3084 3056 2656 
Q 3513 2228 3513 1497 
Q 3513 744 3044 326 
Q 2575 -91 1722 -91 
Q 1428 -91 1123 -41 
Q 819 9 494 109 
L 494 744 
Q 775 591 1075 516 
Q 1375 441 1709 441 
Q 2250 441 2565 725 
Q 2881 1009 2881 1497 
Q 2881 1984 2565 2268 
Q 2250 2553 1709 2553 
Q 1456 2553 1204 2497 
Q 953 2441 691 2322 
L 691 4666 
z
" transform="scale(0.015625)"/>
       </defs>
       <use xlink:href="#DejaVuSans-2212"/>
       <use xlink:href="#DejaVuSans-30" x="83.789062"/>
       <use xlink:href="#DejaVuSans-2e" x="147.412109"/>
       <use xlink:href="#DejaVuSans-35" x="179.199219"/>
      </g>
     </g>
    </g>
    <g id="xtick_2">
     <g id="line2d_2">
      <g>
       <use xlink:href="#mc565335f0f" x="133.2882" y="224.9208" style="stroke: #000000; stroke-width: 0.8"/>
      </g>
     </g>
     <g id="text_2">
      <!-- 0.0 -->
      <g transform="translate(125.336638 239.519237) scale(0.1 -0.1)">
       <use xlink:href="#DejaVuSans-30"/>
       <use xlink:href="#DejaVuSans-2e" x="63.623047"/>
       <use xlink:href="#DejaVuSans-30" x="95.410156"/>
      </g>
     </g>
    </g>
    <g id="xtick_3">
     <g id="line2d_3">
      <g>
       <use xlink:href="#mc565335f0f" x="165.7206" y="224.9208" style="stroke: #000000; stroke-width: 0.8"/>
      </g>
     </g>
     <g id="text_3">
      <!-- 0.5 -->
      <g transform="translate(157.769037 239.519237) scale(0.1 -0.1)">
       <use xlink:href="#DejaVuSans-30"/>
       <use xlink:href="#DejaVuSans-2e" x="63.623047"/>
       <use xlink:href="#DejaVuSans-35" x="95.410156"/>
      </g>
     </g>
    </g>
    <g id="xtick_4">
     <g id="line2d_4">
      <g>
       <use xlink:href="#mc565335f0f" x="198.153" y="224.9208" style="stroke: #000000; stroke-width: 0.8"/>
      </g>
     </g>
     <g id="text_4">
      <!-- 1.0 -->
      <g transform="translate(190.201437 239.519237) scale(0.1 -0.1)">
       <defs>
        <path id="DejaVuSans-31" d="M 794 531 
L 1825 531 
L 1825 4091 
L 703 3866 
L 703 4441 
L 1819 4666 
L 2450 4666 
L 2450 531 
L 3481 531 
L 3481 0 
L 794 0 
L 794 531 
z
" transform="scale(0.015625)"/>
       </defs>
       <use xlink:href="#DejaVuSans-31"/>
       <use xlink:href="#DejaVuSans-2e" x="63.623047"/>
       <use xlink:href="#DejaVuSans-30" x="95.410156"/>
      </g>
     </g>
    </g>
    <g id="xtick_5">
     <g id="line2d_5">
      <g>
       <use xlink:href="#mc565335f0f" x="230.5854" y="224.9208" style="stroke: #000000; stroke-width: 0.8"/>
      </g>
     </g>
     <g id="text_5">
      <!-- 1.5 -->
      <g transform="translate(222.633837 239.519237) scale(0.1 -0.1)">
       <use xlink:href="#DejaVuSans-31"/>
       <use xlink:href="#DejaVuSans-2e" x="63.623047"/>
       <use xlink:href="#DejaVuSans-35" x="95.410156"/>
      </g>
     </g>
    </g>
    <g id="xtick_6">
     <g id="line2d_6">
      <g>
       <use xlink:href="#mc565335f0f" x="263.0178" y="224.9208" style="stroke: #000000; stroke-width: 0.8"/>
      </g>
     </g>
     <g id="text_6">
      <!-- 2.0 -->
      <g transform="translate(255.066237 239.519237) scale(0.1 -0.1)">
       <defs>
        <path id="DejaVuSans-32" d="M 1228 531 
L 3431 531 
L 3431 0 
L 469 0 
L 469 531 
Q 828 903 1448 1529 
Q 2069 2156 2228 2338 
Q 2531 2678 2651 2914 
Q 2772 3150 2772 3378 
Q 2772 3750 2511 3984 
Q 2250 4219 1831 4219 
Q 1534 4219 1204 4116 
Q 875 4013 500 3803 
L 500 4441 
Q 881 4594 1212 4672 
Q 1544 4750 1819 4750 
Q 2544 4750 2975 4387 
Q 3406 4025 3406 3419 
Q 3406 3131 3298 2873 
Q 3191 2616 2906 2266 
Q 2828 2175 2409 1742 
Q 1991 1309 1228 531 
z
" transform="scale(0.015625)"/>
       </defs>
       <use xlink:href="#DejaVuSans-32"/>
       <use xlink:href="#DejaVuSans-2e" x="63.623047"/>
       <use xlink:href="#DejaVuSans-30" x="95.410156"/>
      </g>
     </g>
    </g>
    <g id="xtick_7">
     <g id="line2d_7">
      <g>
       <use xlink:href="#mc565335f0f" x="295.4502" y="224.9208" style="stroke: #000000; stroke-width: 0.8"/>
      </g>
     </g>
     <g id="text_7">
      <!-- 2.5 -->
      <g transform="translate(287.498637 239.519237) scale(0.1 -0.1)">
       <use xlink:href="#DejaVuSans-32"/>
       <use xlink:href="#DejaVuSans-2e" x="63.623047"/>
       <use xlink:href="#DejaVuSans-35" x="95.410156"/>
      </g>
     </g>
    </g>
    <g id="text_8">
     <!-- x(m) -->
     <g transform="translate(186.42175 253.197362) scale(0.1 -0.1)">
      <defs>
       <path id="DejaVuSans-78" d="M 3513 3500 
L 2247 1797 
L 3578 0 
L 2900 0 
L 1881 1375 
L 863 0 
L 184 0 
L 1544 1831 
L 300 3500 
L 978 3500 
L 1906 2253 
L 2834 3500 
L 3513 3500 
z
" transform="scale(0.015625)"/>
       <path id="DejaVuSans-28" d="M 1984 4856 
Q 1566 4138 1362 3434 
Q 1159 2731 1159 2009 
Q 1159 1288 1364 580 
Q 1569 -128 1984 -844 
L 1484 -844 
Q 1016 -109 783 600 
Q 550 1309 550 2009 
Q 550 2706 781 3412 
Q 1013 4119 1484 4856 
L 1984 4856 
z
" transform="scale(0.015625)"/>
       <path id="DejaVuSans-6d" d="M 3328 2828 
Q 3544 3216 3844 3400 
Q 4144 3584 4550 3584 
Q 5097 3584 5394 3201 
Q 5691 2819 5691 2113 
L 5691 0 
L 5113 0 
L 5113 2094 
Q 5113 2597 4934 2840 
Q 4756 3084 4391 3084 
Q 3944 3084 3684 2787 
Q 3425 2491 3425 1978 
L 3425 0 
L 2847 0 
L 2847 2094 
Q 2847 2600 2669 2842 
Q 2491 3084 2119 3084 
Q 1678 3084 1418 2786 
Q 1159 2488 1159 1978 
L 1159 0 
L 581 0 
L 581 3500 
L 1159 3500 
L 1159 2956 
Q 1356 3278 1631 3431 
Q 1906 3584 2284 3584 
Q 2666 3584 2933 3390 
Q 3200 3197 3328 2828 
z
" transform="scale(0.015625)"/>
       <path id="DejaVuSans-29" d="M 513 4856 
L 1013 4856 
Q 1481 4119 1714 3412 
Q 1947 2706 1947 2009 
Q 1947 1309 1714 600 
Q 1481 -109 1013 -844 
L 513 -844 
Q 928 -128 1133 580 
Q 1338 1288 1338 2009 
Q 1338 2731 1133 3434 
Q 928 4138 513 4856 
z
" transform="scale(0.015625)"/>
      </defs>
      <use xlink:href="#DejaVuSans-78"/>
      <use xlink:href="#DejaVuSans-28" x="59.179688"/>
      <use xlink:href="#DejaVuSans-6d" x="98.193359"/>
      <use xlink:href="#DejaVuSans-29" x="195.605469"/>
     </g>
    </g>
   </g>
   <g id="matplotlib.axis_2">
    <g id="ytick_1">
     <g id="line2d_8">
      <defs>
       <path id="m29678b29eb" d="M 0 0 
L -3.5 0 
" style="stroke: #000000; stroke-width: 0.8"/>
      </defs>
      <g>
       <use xlink:href="#m29678b29eb" x="100.8558" y="224.9208" style="stroke: #000000; stroke-width: 0.8"/>
      </g>
     </g>
     <g id="text_9">
      <!-- −0.5 -->
      <g transform="translate(69.572988 228.720019) scale(0.1 -0.1)">
       <use xlink:href="#DejaVuSans-2212"/>
       <use xlink:href="#DejaVuSans-30" x="83.789062"/>
       <use xlink:href="#DejaVuSans-2e" x="147.412109"/>
       <use xlink:href="#DejaVuSans-35" x="179.199219"/>
      </g>
     </g>
    </g>
    <g id="ytick_2">
     <g id="line2d_9">
      <g>
       <use xlink:href="#m29678b29eb" x="100.8558" y="192.4884" style="stroke: #000000; stroke-width: 0.8"/>
      </g>
     </g>
     <g id="text_10">
      <!-- 0.0 -->
      <g transform="translate(77.952675 196.287619) scale(0.1 -0.1)">
       <use xlink:href="#DejaVuSans-30"/>
       <use xlink:href="#DejaVuSans-2e" x="63.623047"/>
       <use xlink:href="#DejaVuSans-30" x="95.410156"/>
      </g>
     </g>
    </g>
    <g id="ytick_3">
     <g id="line2d_10">
      <g>
       <use xlink:href="#m29678b29eb" x="100.8558" y="160.056" style="stroke: #000000; stroke-width: 0.8"/>
      </g>
     </g>
     <g id="text_11">
      <!-- 0.5 -->
      <g transform="translate(77.952675 163.855219) scale(0.1 -0.1)">
       <use xlink:href="#DejaVuSans-30"/>
       <use xlink:href="#DejaVuSans-2e" x="63.623047"/>
       <use xlink:href="#DejaVuSans-35" x="95.410156"/>
      </g>
     </g>
    </g>
    <g id="ytick_4">
     <g id="line2d_11">
      <g>
       <use xlink:href="#m29678b29eb" x="100.8558" y="127.6236" style="stroke: #000000; stroke-width: 0.8"/>
      </g>
     </g>
     <g id="text_12">
      <!-- 1.0 -->
      <g transform="translate(77.952675 131.422819) scale(0.1 -0.1)">
       <use xlink:href="#DejaVuSans-31"/>
       <use xlink:href="#DejaVuSans-2e" x="63.623047"/>
       <use xlink:href="#DejaVuSans-30" x="95.410156"/>
      </g>
     </g>
    </g>
    <g id="ytick_5">
     <g id="line2d_12">
      <g>
       <use xlink:href="#m29678b29eb" x="100.8558" y="95.1912" style="stroke: #000000; stroke-width: 0.8"/>
      </g>
     </g>
     <g id="text_13">
      <!-- 1.5 -->
      <g transform="translate(77.952675 98.990419) scale(0.1 -0.1)">
       <use xlink:href="#DejaVuSans-31"/>
       <use xlink:href="#DejaVuSans-2e" x="63.623047"/>
       <use xlink:href="#DejaVuSans-35" x="95.410156"/>
      </g>
     </g>
    </g>
    <g id="ytick_6">
     <g id="line2d_13">
      <g>
       <use xlink:href="#m29678b29eb" x="100.8558" y="62.7588" style="stroke: #000000; stroke-width: 0.8"/>
      </g>
     </g>
     <g id="text_14">
      <!-- 2.0 -->
      <g transform="translate(77.952675 66.558019) scale(0.1 -0.1)">
       <use xlink:href="#DejaVuSans-32"/>
       <use xlink:href="#DejaVuSans-2e" x="63.623047"/>
       <use xlink:href="#DejaVuSans-30" x="95.410156"/>
      </g>
     </g>
    </g>
    <g id="ytick_7">
     <g id="line2d_14">
      <g>
       <use xlink:href="#m29678b29eb" x="100.8558" y="30.3264" style="stroke: #000000; stroke-width: 0.8"/>
      </g>
     </g>
     <g id="text_15">
      <!-- 2.5 -->
      <g transform="translate(77.952675 34.125619) scale(0.1 -0.1)">
       <use xlink:href="#DejaVuSans-32"/>
       <use xlink:href="#DejaVuSans-2e" x="63.623047"/>
       <use xlink:href="#DejaVuSans-35" x="95.410156"/>
      </g>
     </g>
    </g>
    <g id="text_16">
     <!-- y(m) -->
     <g transform="translate(63.4933 139.35485) rotate(-90) scale(0.1 -0.1)">
      <defs>
       <path id="DejaVuSans-79" d="M 2059 -325 
Q 1816 -950 1584 -1140 
Q 1353 -1331 966 -1331 
L 506 -1331 
L 506 -850 
L 844 -850 
Q 1081 -850 1212 -737 
Q 1344 -625 1503 -206 
L 1606 56 
L 191 3500 
L 800 3500 
L 1894 763 
L 2988 3500 
L 3597 3500 
L 2059 -325 
z
" transform="scale(0.015625)"/>
      </defs>
      <use xlink:href="#DejaVuSans-79"/>
      <use xlink:href="#DejaVuSans-28" x="59.179688"/>
      <use xlink:href="#DejaVuSans-6d" x="98.193359"/>
      <use xlink:href="#DejaVuSans-29" x="195.605469"/>
     </g>
    </g>
   </g>
   <g id="line2d_15">
    <path d="M 263.017798 127.6236 
L 263.0178 127.6236 
L 263.0178 127.6236 
L 263.0178 127.6236 
L 263.0178 127.6236 
L 263.017802 127.6236 
L 263.017817 127.623597 
L 263.0179 127.623583 
L 263.018302 127.623517 
L 263.019957 127.623241 
L 263.025956 127.622244 
L 263.045476 127.618998 
L 263.045476 127.618998 
" clip-path="url(#pb7d8f89e1b)" style="fill: none; stroke-dasharray: 2,3.3; stroke-dashoffset: 0; stroke: #1f77b4; stroke-width: 2"/>
   </g>
   <g id="line2d_16">
    <path d="M 133.2882 127.6236 
L 133.2882 127.6236 
L 133.768676 127.621531 
L 138.573349 127.593776 
L 147.701648 127.493337 
L 160.673863 127.41217 
L 173.646739 127.459601 
L 186.619963 127.486284 
L 199.592908 127.523189 
L 212.567005 127.607597 
L 225.536461 127.5202 
L 238.341407 126.667687 
L 249.679077 126.428069 
L 257.640665 127.139288 
L 262.299995 127.540144 
L 263.112185 127.634279 
L 263.006673 127.622341 
L 263.019112 127.623748 
L 263.017645 127.623583 
L 263.017818 127.623602 
L 263.017798 127.6236 
" clip-path="url(#pb7d8f89e1b)" style="fill: none; stroke: #1f77b4; stroke-width: 2; stroke-linecap: square"/>
   </g>
   <g id="line2d_17">
    <path d="M 241.550795 131.195585 
L 241.567706 131.191114 
L 241.571382 131.190164 
L 241.573048 131.189733 
L 241.573983 131.189491 
L 241.574581 131.189336 
L 241.575018 131.189225 
L 241.575593 131.189101 
L 241.577142 131.188822 
L 241.580002 131.18833 
L 241.583039 131.187811 
L 241.585549 131.187382 
L 241.585549 131.187382 
" clip-path="url(#pb7d8f89e1b)" style="fill: none; stroke-dasharray: 2,3.3; stroke-dashoffset: 0; stroke: #ff7f0e; stroke-width: 2"/>
   </g>
   <g id="line2d_18">
    <path d="M 198.153 205.46136 
L 198.153 205.46136 
L 198.164648 204.981025 
L 198.417246 200.200816 
L 199.877385 191.454013 
L 201.48243 180.264573 
L 202.738317 169.560811 
L 204.917797 161.07713 
L 207.09932 154.814228 
L 209.379241 150.892168 
L 211.999015 147.096721 
L 218.032057 141.250712 
L 226.183594 137.004547 
L 232.872114 134.000627 
L 237.806064 132.265695 
L 240.06566 131.422425 
L 240.879042 131.192219 
L 241.162835 131.331402 
L 241.412368 131.239806 
L 241.510508 131.207438 
L 241.550795 131.195585 
" clip-path="url(#pb7d8f89e1b)" style="fill: none; stroke: #ff7f0e; stroke-width: 2; stroke-linecap: square"/>
   </g>
   <g id="line2d_19">
    <path d="M 133.288228 95.190942 
L 133.288225 95.190938 
L 133.288223 95.190935 
L 133.28822 95.190935 
L 133.288218 95.19094 
L 133.288215 95.190948 
L 133.288212 95.19096 
L 133.28821 95.190975 
L 133.288208 95.190993 
L 133.288206 95.19101 
L 133.288205 95.191022 
L 133.288205 95.191027 
L 133.288205 95.191027 
" clip-path="url(#pb7d8f89e1b)" style="fill: none; stroke-dasharray: 2,3.3; stroke-dashoffset: 0; stroke: #2ca02c; stroke-width: 2"/>
   </g>
   <g id="line2d_20">
    <path d="M 133.2882 95.1912 
L 133.2882 95.1912 
L 133.2882 95.1912 
L 133.288202 95.1912 
L 133.288204 95.191197 
L 133.288206 95.19119 
L 133.288211 95.191173 
L 133.288216 95.191155 
L 133.288222 95.191135 
L 133.288224 95.191111 
L 133.288228 95.191086 
L 133.28823 95.191064 
L 133.288232 95.191043 
L 133.288235 95.191023 
L 133.288236 95.191005 
L 133.288236 95.19099 
L 133.288235 95.190976 
L 133.288234 95.190965 
L 133.288232 95.190955 
L 133.28823 95.190948 
L 133.288228 95.190942 
" clip-path="url(#pb7d8f89e1b)" style="fill: none; stroke: #2ca02c; stroke-width: 2; stroke-linecap: square"/>
   </g>
   <g id="line2d_21">
    <path d="M 165.720551 95.191227 
L 165.72059 95.191255 
L 165.720634 95.191285 
L 165.720677 95.191313 
L 165.720708 95.191328 
L 165.720725 95.191332 
L 165.720731 95.191326 
L 165.720727 95.191312 
L 165.720717 95.191291 
L 165.720703 95.191268 
L 165.720691 95.191248 
L 165.720685 95.191236 
L 165.720685 95.191236 
" clip-path="url(#pb7d8f89e1b)" style="fill: none; stroke-dasharray: 2,3.3; stroke-dashoffset: 0; stroke: #d62728; stroke-width: 2"/>
   </g>
   <g id="line2d_22">
    <path d="M 165.7206 95.1912 
L 165.7206 95.1912 
L 165.720601 95.191194 
L 165.720603 95.19115 
L 165.720581 95.191153 
L 165.720541 95.191158 
L 165.720483 95.19116 
L 165.720422 95.191125 
L 165.720366 95.191081 
L 165.720311 95.191045 
L 165.720281 95.191024 
L 165.720264 95.191013 
L 165.720261 95.191012 
L 165.720272 95.191017 
L 165.720291 95.191024 
L 165.720326 95.19105 
L 165.720369 95.191085 
L 165.720416 95.191123 
L 165.720464 95.19116 
L 165.720509 95.191195 
L 165.720551 95.191227 
" clip-path="url(#pb7d8f89e1b)" style="fill: none; stroke: #d62728; stroke-width: 2; stroke-linecap: square"/>
   </g>
   <g id="line2d_23">
    <path d="M 230.585717 95.190624 
L 230.585714 95.190576 
L 230.585734 95.190538 
L 230.585767 95.190545 
L 230.585783 95.190619 
L 230.585775 95.190731 
L 230.585741 95.190844 
L 230.585686 95.190943 
L 230.585619 95.19103 
L 230.585554 95.191103 
L 230.585506 95.191153 
L 230.585482 95.191176 
L 230.585482 95.191176 
" clip-path="url(#pb7d8f89e1b)" style="fill: none; stroke-dasharray: 2,3.3; stroke-dashoffset: 0; stroke: #9467bd; stroke-width: 2"/>
   </g>
   <g id="line2d_24">
    <path d="M 230.5854 95.1912 
L 230.5854 95.1912 
L 230.5854 95.191198 
L 230.585399 95.191183 
L 230.585405 95.191174 
L 230.585427 95.191186 
L 230.585443 95.191202 
L 230.585457 95.191257 
L 230.585477 95.191298 
L 230.585509 95.191287 
L 230.585553 95.191222 
L 230.585594 95.19117 
L 230.58563 95.191129 
L 230.585659 95.191094 
L 230.585686 95.191036 
L 230.585704 95.190962 
L 230.585716 95.190885 
L 230.585722 95.190811 
L 230.585723 95.190742 
L 230.585721 95.190679 
L 230.585717 95.190624 
" clip-path="url(#pb7d8f89e1b)" style="fill: none; stroke: #9467bd; stroke-width: 2; stroke-linecap: square"/>
   </g>
   <g id="line2d_25">
    <path d="M 263.017765 95.190959 
L 263.017766 95.190957 
L 263.017767 95.190958 
L 263.017769 95.190961 
L 263.017771 95.190969 
L 263.017773 95.190981 
L 263.017776 95.190996 
L 263.017779 95.191015 
L 263.017782 95.191034 
L 263.017784 95.191052 
L 263.017786 95.191065 
L 263.017787 95.191071 
L 263.017787 95.191071 
" clip-path="url(#pb7d8f89e1b)" style="fill: none; stroke-dasharray: 2,3.3; stroke-dashoffset: 0; stroke: #8c564b; stroke-width: 2"/>
   </g>
   <g id="line2d_26">
    <path d="M 263.0178 95.1912 
L 263.0178 95.1912 
L 263.017801 95.1912 
L 263.017807 95.191203 
L 263.017812 95.191199 
L 263.017815 95.191193 
L 263.017817 95.191185 
L 263.017818 95.191173 
L 263.017819 95.191161 
L 263.017818 95.19115 
L 263.017817 95.191135 
L 263.017814 95.191106 
L 263.017803 95.191071 
L 263.017793 95.191044 
L 263.017784 95.191022 
L 263.017777 95.191004 
L 263.017772 95.190989 
L 263.017769 95.190978 
L 263.017766 95.190969 
L 263.017765 95.190963 
L 263.017765 95.190959 
" clip-path="url(#pb7d8f89e1b)" style="fill: none; stroke: #8c564b; stroke-width: 2; stroke-linecap: square"/>
   </g>
   <g id="line2d_27">
    <path d="M 133.288246 160.056201 
L 133.288242 160.056209 
L 133.288238 160.056217 
L 133.288234 160.056221 
L 133.288229 160.056222 
L 133.288225 160.056219 
L 133.288221 160.056212 
L 133.288217 160.056202 
L 133.288213 160.056188 
L 133.288211 160.056175 
L 133.288209 160.056165 
L 133.288208 160.05616 
L 133.288208 160.05616 
" clip-path="url(#pb7d8f89e1b)" style="fill: none; stroke-dasharray: 2,3.3; stroke-dashoffset: 0; stroke: #e377c2; stroke-width: 2"/>
   </g>
   <g id="line2d_28">
    <path d="M 133.2882 160.056 
L 133.2882 160.056 
L 133.2882 160.056 
L 133.288203 160.056 
L 133.288205 160.056004 
L 133.288208 160.056011 
L 133.28821 160.05602 
L 133.288212 160.056031 
L 133.288213 160.056043 
L 133.288215 160.056057 
L 133.288218 160.056072 
L 133.288228 160.056085 
L 133.288237 160.056099 
L 133.288244 160.056114 
L 133.288249 160.056128 
L 133.288252 160.056143 
L 133.288253 160.056156 
L 133.288253 160.056169 
L 133.288251 160.056181 
L 133.288249 160.056191 
L 133.288246 160.056201 
" clip-path="url(#pb7d8f89e1b)" style="fill: none; stroke: #e377c2; stroke-width: 2; stroke-linecap: square"/>
   </g>
   <g id="line2d_29">
    <path d="M 165.720489 160.055784 
L 165.720527 160.055795 
L 165.720575 160.055799 
L 165.720625 160.055803 
L 165.720664 160.055814 
L 165.720692 160.055832 
L 165.720709 160.055856 
L 165.720716 160.055885 
L 165.720715 160.055917 
L 165.720709 160.05595 
L 165.720701 160.055979 
L 165.720697 160.055995 
L 165.720697 160.055995 
" clip-path="url(#pb7d8f89e1b)" style="fill: none; stroke-dasharray: 2,3.3; stroke-dashoffset: 0; stroke: #7f7f7f; stroke-width: 2"/>
   </g>
   <g id="line2d_30">
    <path d="M 165.7206 160.056 
L 165.7206 160.056 
L 165.7206 160.055997 
L 165.720599 160.05597 
L 165.720579 160.055908 
L 165.72054 160.055856 
L 165.720503 160.055767 
L 165.72048 160.055656 
L 165.720446 160.055586 
L 165.720426 160.055548 
L 165.720405 160.055537 
L 165.720398 160.05555 
L 165.720388 160.055578 
L 165.720397 160.055602 
L 165.720396 160.055649 
L 165.720377 160.055687 
L 165.720378 160.055717 
L 165.720394 160.05574 
L 165.72042 160.055758 
L 165.720453 160.055772 
L 165.720489 160.055784 
" clip-path="url(#pb7d8f89e1b)" style="fill: none; stroke: #7f7f7f; stroke-width: 2; stroke-linecap: square"/>
   </g>
   <g id="line2d_31">
    <path d="M 230.585634 160.056034 
L 230.585643 160.056033 
L 230.585662 160.05603 
L 230.585681 160.056027 
L 230.585681 160.056022 
L 230.585661 160.056018 
L 230.585627 160.056014 
L 230.585582 160.05601 
L 230.585533 160.056008 
L 230.585488 160.056006 
L 230.585455 160.056004 
L 230.585439 160.056004 
L 230.585439 160.056004 
" clip-path="url(#pb7d8f89e1b)" style="fill: none; stroke-dasharray: 2,3.3; stroke-dashoffset: 0; stroke: #bcbd22; stroke-width: 2"/>
   </g>
   <g id="line2d_32">
    <path d="M 230.5854 160.056 
L 230.5854 160.056 
L 230.5854 160.056002 
L 230.585404 160.056019 
L 230.585426 160.055987 
L 230.585441 160.055965 
L 230.585453 160.055958 
L 230.585459 160.055962 
L 230.585459 160.055967 
L 230.585467 160.055979 
L 230.585475 160.055991 
L 230.58547 160.056002 
L 230.585459 160.056052 
L 230.585468 160.056053 
L 230.585489 160.056051 
L 230.58552 160.056047 
L 230.585555 160.056044 
L 230.585584 160.056041 
L 230.585606 160.056038 
L 230.585623 160.056036 
L 230.585634 160.056034 
" clip-path="url(#pb7d8f89e1b)" style="fill: none; stroke: #bcbd22; stroke-width: 2; stroke-linecap: square"/>
   </g>
   <g id="line2d_33">
    <path d="M 263.017781 160.056224 
L 263.017783 160.056227 
L 263.017784 160.056228 
L 263.017786 160.056226 
L 263.017787 160.056221 
L 263.017789 160.056211 
L 263.01779 160.056198 
L 263.017791 160.056182 
L 263.017793 160.056164 
L 263.017794 160.056147 
L 263.017794 160.056135 
L 263.017795 160.05613 
L 263.017795 160.05613 
" clip-path="url(#pb7d8f89e1b)" style="fill: none; stroke-dasharray: 2,3.3; stroke-dashoffset: 0; stroke: #17becf; stroke-width: 2"/>
   </g>
   <g id="line2d_34">
    <path d="M 263.0178 160.056 
L 263.0178 160.056 
L 263.0178 160.056 
L 263.0178 160.056 
L 263.0178 160.056006 
L 263.017801 160.056017 
L 263.017802 160.056031 
L 263.017798 160.056043 
L 263.017795 160.056057 
L 263.017792 160.056072 
L 263.017789 160.056089 
L 263.017785 160.056112 
L 263.017783 160.056135 
L 263.01778 160.056158 
L 263.017778 160.056174 
L 263.017777 160.056187 
L 263.017777 160.056198 
L 263.017777 160.056207 
L 263.017778 160.056214 
L 263.017779 160.05622 
L 263.017781 160.056224 
" clip-path="url(#pb7d8f89e1b)" style="fill: none; stroke: #17becf; stroke-width: 2; stroke-linecap: square"/>
   </g>
   <g id="line2d_35">
    <path d="M 230.585882 62.758841 
L 230.58592 62.75886 
L 230.58599 62.758887 
L 230.58607 62.758916 
L 230.586111 62.758936 
L 230.586106 62.758944 
L 230.586058 62.758942 
L 230.585975 62.75893 
L 230.58587 62.75891 
L 230.585758 62.758888 
L 230.585668 62.758869 
L 230.585624 62.758859 
L 230.585624 62.758859 
" clip-path="url(#pb7d8f89e1b)" style="fill: none; stroke-dasharray: 2,3.3; stroke-dashoffset: 0; stroke: #2f4f4f; stroke-width: 2"/>
   </g>
   <g id="line2d_36">
    <path d="M 230.5854 62.7588 
L 230.5854 62.7588 
L 230.5854 62.758798 
L 230.585398 62.758783 
L 230.585395 62.75877 
L 230.585392 62.758761 
L 230.585391 62.758756 
L 230.585392 62.758754 
L 230.585393 62.758755 
L 230.585397 62.758759 
L 230.585416 62.758765 
L 230.585444 62.758771 
L 230.585472 62.758776 
L 230.585495 62.75878 
L 230.585546 62.758771 
L 230.585621 62.758774 
L 230.585706 62.758784 
L 230.585744 62.758792 
L 230.585802 62.758807 
L 230.585867 62.758827 
L 230.585882 62.758841 
" clip-path="url(#pb7d8f89e1b)" style="fill: none; stroke: #2f4f4f; stroke-width: 2; stroke-linecap: square"/>
   </g>
   <g id="line2d_37">
    <path d="M 230.585329 30.326596 
L 230.585337 30.326577 
L 230.585344 30.326557 
L 230.58535 30.326535 
L 230.585357 30.326512 
L 230.585364 30.326487 
L 230.585371 30.326461 
L 230.585378 30.326436 
L 230.585385 30.326413 
L 230.585391 30.326394 
L 230.585395 30.326382 
L 230.585396 30.326376 
L 230.585396 30.326376 
" clip-path="url(#pb7d8f89e1b)" style="fill: none; stroke-dasharray: 2,3.3; stroke-dashoffset: 0; stroke: #cd5c5c; stroke-width: 2"/>
   </g>
   <g id="line2d_38">
    <path d="M 230.5854 30.3264 
L 230.5854 30.3264 
L 230.585397 30.326406 
L 230.585368 30.32646 
L 230.585347 30.326501 
L 230.585328 30.326531 
L 230.585311 30.326561 
L 230.585298 30.326587 
L 230.585288 30.326613 
L 230.585283 30.326639 
L 230.58528 30.326662 
L 230.58528 30.326679 
L 230.585281 30.32669 
L 230.585284 30.326694 
L 230.585289 30.326696 
L 230.585295 30.326687 
L 230.585301 30.326673 
L 230.585306 30.326653 
L 230.585313 30.326633 
L 230.58532 30.326614 
L 230.585329 30.326596 
" clip-path="url(#pb7d8f89e1b)" style="fill: none; stroke: #cd5c5c; stroke-width: 2; stroke-linecap: square"/>
   </g>
   <g id="line2d_39">
    <path clip-path="url(#pb7d8f89e1b)" style="fill: none; stroke-dasharray: 2,3.3; stroke-dashoffset: 0; stroke: #add8e6; stroke-width: 2"/>
   </g>
   <g id="line2d_40">
    <path clip-path="url(#pb7d8f89e1b)" style="fill: none; stroke: #add8e6; stroke-width: 2; stroke-linecap: square"/>
   </g>
   <g id="line2d_41">
    <path d="M 230.585957 192.488463 
L 230.586046 192.488466 
L 230.586159 192.488466 
L 230.586271 192.48845 
L 230.586328 192.488417 
L 230.58632 192.488379 
L 230.586253 192.488353 
L 230.586139 192.488345 
L 230.585993 192.488348 
L 230.585842 192.488356 
L 230.585722 192.488363 
L 230.585663 192.488367 
L 230.585663 192.488367 
" clip-path="url(#pb7d8f89e1b)" style="fill: none; stroke-dasharray: 2,3.3; stroke-dashoffset: 0; stroke: #663399; stroke-width: 2"/>
   </g>
   <g id="line2d_42">
    <path d="M 230.5854 192.4884 
L 230.5854 192.4884 
L 230.5854 192.488401 
L 230.585403 192.488407 
L 230.585406 192.488411 
L 230.585406 192.488417 
L 230.585392 192.488421 
L 230.585383 192.488425 
L 230.585389 192.488426 
L 230.585399 192.488429 
L 230.585436 192.488433 
L 230.585469 192.48843 
L 230.585487 192.488434 
L 230.585503 192.488436 
L 230.585517 192.488438 
L 230.585562 192.488431 
L 230.585625 192.488433 
L 230.585699 192.48844 
L 230.585782 192.488448 
L 230.585869 192.488457 
L 230.585957 192.488463 
" clip-path="url(#pb7d8f89e1b)" style="fill: none; stroke: #663399; stroke-width: 2; stroke-linecap: square"/>
   </g>
   <g id="line2d_43">
    <path d="M 230.585336 224.920785 
L 230.585342 224.920768 
L 230.58535 224.920749 
L 230.585357 224.920732 
L 230.585365 224.920719 
L 230.585373 224.920711 
L 230.585381 224.92071 
L 230.585388 224.920714 
L 230.585394 224.920723 
L 230.585399 224.920733 
L 230.585401 224.920741 
L 230.585402 224.920745 
L 230.585402 224.920745 
" clip-path="url(#pb7d8f89e1b)" style="fill: none; stroke-dasharray: 2,3.3; stroke-dashoffset: 0; stroke: #8fbc8f; stroke-width: 2"/>
   </g>
   <g id="line2d_44">
    <path d="M 230.5854 224.9208 
L 230.5854 224.9208 
L 230.585398 224.920803 
L 230.585385 224.920825 
L 230.585374 224.920843 
L 230.585366 224.920859 
L 230.58536 224.920873 
L 230.585355 224.920875 
L 230.58535 224.920871 
L 230.585345 224.920863 
L 230.585339 224.920855 
L 230.585333 224.920853 
L 230.585327 224.920853 
L 230.585323 224.920851 
L 230.585321 224.920846 
L 230.585319 224.920843 
L 230.58532 224.920837 
L 230.585321 224.920829 
L 230.585324 224.92082 
L 230.58533 224.920803 
L 230.585336 224.920785 
" clip-path="url(#pb7d8f89e1b)" style="fill: none; stroke: #8fbc8f; stroke-width: 2; stroke-linecap: square"/>
   </g>
   <g id="line2d_45">
    <path clip-path="url(#pb7d8f89e1b)" style="fill: none; stroke-dasharray: 2,3.3; stroke-dashoffset: 0; stroke: #00ced1; stroke-width: 2"/>
   </g>
   <g id="line2d_46">
    <path clip-path="url(#pb7d8f89e1b)" style="fill: none; stroke: #00ced1; stroke-width: 2; stroke-linecap: square"/>
   </g>
   <g id="line2d_47">
    <path d="M 165.72058 62.759004 
L 165.720588 62.759026 
L 165.720599 62.759044 
L 165.72061 62.759054 
L 165.720619 62.759048 
L 165.720624 62.759025 
L 165.720627 62.758988 
L 165.720629 62.75894 
L 165.720632 62.758889 
L 165.720636 62.758845 
L 165.720642 62.758816 
L 165.720647 62.758807 
L 165.720647 62.758807 
" clip-path="url(#pb7d8f89e1b)" style="fill: none; stroke-dasharray: 2,3.3; stroke-dashoffset: 0; stroke: #6a5acd; stroke-width: 2"/>
   </g>
   <g id="line2d_48">
    <path d="M 165.7206 62.7588 
L 165.7206 62.7588 
L 165.7206 62.758797 
L 165.720599 62.758767 
L 165.720603 62.758741 
L 165.720606 62.758721 
L 165.720609 62.758707 
L 165.720611 62.7587 
L 165.72061 62.758699 
L 165.720606 62.758707 
L 165.720599 62.758726 
L 165.72059 62.758749 
L 165.72058 62.758775 
L 165.720571 62.758803 
L 165.720562 62.758831 
L 165.720558 62.758862 
L 165.720558 62.758892 
L 165.720561 62.758923 
L 165.720566 62.758952 
L 165.720572 62.758979 
L 165.72058 62.759004 
" clip-path="url(#pb7d8f89e1b)" style="fill: none; stroke: #6a5acd; stroke-width: 2; stroke-linecap: square"/>
   </g>
   <g id="line2d_49">
    <path d="M 165.720615 30.326529 
L 165.720616 30.326522 
L 165.720617 30.326512 
L 165.720618 30.326499 
L 165.720617 30.326484 
L 165.720616 30.326466 
L 165.720613 30.326447 
L 165.72061 30.326426 
L 165.720606 30.326406 
L 165.720602 30.326389 
L 165.7206 30.326378 
L 165.720599 30.326375 
L 165.720599 30.326375 
" clip-path="url(#pb7d8f89e1b)" style="fill: none; stroke-dasharray: 2,3.3; stroke-dashoffset: 0; stroke: #808000; stroke-width: 2"/>
   </g>
   <g id="line2d_50">
    <path d="M 165.7206 30.3264 
L 165.7206 30.3264 
L 165.7206 30.326398 
L 165.720603 30.326374 
L 165.720607 30.326333 
L 165.720608 30.326303 
L 165.720608 30.326285 
L 165.720609 30.326278 
L 165.720611 30.326286 
L 165.720616 30.326304 
L 165.720622 30.32633 
L 165.720624 30.32636 
L 165.720622 30.326408 
L 165.720619 30.326449 
L 165.720616 30.326482 
L 165.720615 30.326507 
L 165.720614 30.326522 
L 165.720613 30.326532 
L 165.720614 30.326535 
L 165.720614 30.326534 
L 165.720615 30.326529 
" clip-path="url(#pb7d8f89e1b)" style="fill: none; stroke: #808000; stroke-width: 2; stroke-linecap: square"/>
   </g>
   <g id="line2d_51">
    <path clip-path="url(#pb7d8f89e1b)" style="fill: none; stroke-dasharray: 2,3.3; stroke-dashoffset: 0; stroke: #a0522d; stroke-width: 2"/>
   </g>
   <g id="line2d_52">
    <path clip-path="url(#pb7d8f89e1b)" style="fill: none; stroke: #a0522d; stroke-width: 2; stroke-linecap: square"/>
   </g>
   <g id="line2d_53">
    <path d="M 165.720556 192.488414 
L 165.720572 192.488378 
L 165.720587 192.488345 
L 165.720602 192.488318 
L 165.720613 192.488301 
L 165.720621 192.488295 
L 165.720626 192.4883 
L 165.720628 192.488315 
L 165.720628 192.488336 
L 165.720626 192.488358 
L 165.720624 192.488374 
L 165.720623 192.488381 
L 165.720623 192.488381 
" clip-path="url(#pb7d8f89e1b)" style="fill: none; stroke-dasharray: 2,3.3; stroke-dashoffset: 0; stroke: #ff4500; stroke-width: 2"/>
   </g>
   <g id="line2d_54">
    <path d="M 165.7206 192.4884 
L 165.7206 192.4884 
L 165.720601 192.488405 
L 165.720611 192.488452 
L 165.720617 192.488491 
L 165.720591 192.488535 
L 165.720574 192.488568 
L 165.720557 192.488592 
L 165.720554 192.48862 
L 165.720547 192.488655 
L 165.720505 192.488686 
L 165.72045 192.488683 
L 165.720421 192.488672 
L 165.720425 192.488655 
L 165.72044 192.488631 
L 165.720459 192.488601 
L 165.720479 192.488566 
L 165.7205 192.488528 
L 165.72052 192.488489 
L 165.720539 192.488451 
L 165.720556 192.488414 
" clip-path="url(#pb7d8f89e1b)" style="fill: none; stroke: #ff4500; stroke-width: 2; stroke-linecap: square"/>
   </g>
   <g id="line2d_55">
    <path d="M 165.720666 224.920642 
L 165.72066 224.920649 
L 165.720655 224.920659 
L 165.720648 224.920674 
L 165.720641 224.920691 
L 165.720634 224.920712 
L 165.720626 224.920735 
L 165.720617 224.920758 
L 165.72061 224.920781 
L 165.720603 224.920798 
L 165.7206 224.920809 
L 165.720599 224.920812 
L 165.720599 224.920812 
" clip-path="url(#pb7d8f89e1b)" style="fill: none; stroke-dasharray: 2,3.3; stroke-dashoffset: 0; stroke: #708090; stroke-width: 2"/>
   </g>
   <g id="line2d_56">
    <path d="M 165.7206 224.9208 
L 165.7206 224.9208 
L 165.720602 224.920799 
L 165.720621 224.92079 
L 165.720636 224.920783 
L 165.720647 224.920788 
L 165.720655 224.920803 
L 165.720661 224.920807 
L 165.720666 224.920806 
L 165.720669 224.920799 
L 165.720672 224.920786 
L 165.720674 224.920768 
L 165.720677 224.920745 
L 165.72068 224.92072 
L 165.72068 224.920698 
L 165.720682 224.920675 
L 165.720682 224.920658 
L 165.720679 224.920647 
L 165.720676 224.920642 
L 165.720671 224.920639 
L 165.720666 224.920642 
" clip-path="url(#pb7d8f89e1b)" style="fill: none; stroke: #708090; stroke-width: 2; stroke-linecap: square"/>
   </g>
   <g id="line2d_57">
    <path clip-path="url(#pb7d8f89e1b)" style="fill: none; stroke-dasharray: 2,3.3; stroke-dashoffset: 0; stroke: #bdb76b; stroke-width: 2"/>
   </g>
   <g id="line2d_58">
    <path clip-path="url(#pb7d8f89e1b)" style="fill: none; stroke: #bdb76b; stroke-width: 2; stroke-linecap: square"/>
   </g>
   <g id="patch_3">
    <path d="M 100.8558 224.9208 
L 100.8558 30.3264 
" style="fill: none; stroke: #000000; stroke-width: 0.8; stroke-linejoin: miter; stroke-linecap: square"/>
   </g>
   <g id="patch_4">
    <path d="M 295.4502 224.9208 
L 295.4502 30.3264 
" style="fill: none; stroke: #000000; stroke-width: 0.8; stroke-linejoin: miter; stroke-linecap: square"/>
   </g>
   <g id="patch_5">
    <path d="M 100.8558 224.9208 
L 295.4502 224.9208 
" style="fill: none; stroke: #000000; stroke-width: 0.8; stroke-linejoin: miter; stroke-linecap: square"/>
   </g>
   <g id="patch_6">
    <path d="M 100.8558 30.3264 
L 295.4502 30.3264 
" style="fill: none; stroke: #000000; stroke-width: 0.8; stroke-linejoin: miter; stroke-linecap: square"/>
   </g>
   <g id="patch_7">
    <path d="M 263.017798 137.35332 
C 265.59815 137.35332 268.073164 136.328135 269.897749 134.503551 
C 271.722333 132.678966 272.747518 130.203952 272.747518 127.6236 
C 272.747518 125.043248 271.722333 122.568233 269.897749 120.743649 
C 268.073164 118.919064 265.59815 117.89388 263.017798 117.89388 
C 260.437446 117.89388 257.962431 118.919064 256.137847 120.743649 
C 254.313262 122.568233 253.288078 125.043248 253.288078 127.6236 
C 253.288078 130.203952 254.313262 132.678966 256.137847 134.503551 
C 257.962431 136.328135 260.437446 137.35332 263.017798 137.35332 
z
" clip-path="url(#pb7d8f89e1b)" style="fill: #1f77b4; stroke: #000000; stroke-linejoin: miter"/>
   </g>
   <g id="patch_8">
    <path d="M 241.550795 140.925305 
C 244.131147 140.925305 246.606162 139.90012 248.430746 138.075536 
C 250.25533 136.250951 251.280515 133.775937 251.280515 131.195585 
C 251.280515 128.615233 250.25533 126.140218 248.430746 124.315634 
C 246.606162 122.49105 244.131147 121.465865 241.550795 121.465865 
C 238.970443 121.465865 236.495428 122.49105 234.670844 124.315634 
C 232.84626 126.140218 231.821075 128.615233 231.821075 131.195585 
C 231.821075 133.775937 232.84626 136.250951 234.670844 138.075536 
C 236.495428 139.90012 238.970443 140.925305 241.550795 140.925305 
z
" clip-path="url(#pb7d8f89e1b)" style="fill: #ff7f0e; stroke: #000000; stroke-linejoin: miter"/>
   </g>
   <g id="patch_9">
    <path d="M 133.288228 104.920662 
C 135.86858 104.920662 138.343594 103.895477 140.168179 102.070893 
C 141.992763 100.246309 143.017948 97.771294 143.017948 95.190942 
C 143.017948 92.61059 141.992763 90.135575 140.168179 88.310991 
C 138.343594 86.486407 135.86858 85.461222 133.288228 85.461222 
C 130.707876 85.461222 128.232861 86.486407 126.408277 88.310991 
C 124.583692 90.135575 123.558508 92.61059 123.558508 95.190942 
C 123.558508 97.771294 124.583692 100.246309 126.408277 102.070893 
C 128.232861 103.895477 130.707876 104.920662 133.288228 104.920662 
z
" clip-path="url(#pb7d8f89e1b)" style="fill: #2ca02c; stroke: #000000; stroke-linejoin: miter"/>
   </g>
   <g id="patch_10">
    <path d="M 165.720551 104.920947 
C 168.300903 104.920947 170.775918 103.895762 172.600502 102.071178 
C 174.425086 100.246593 175.450271 97.771579 175.450271 95.191227 
C 175.450271 92.610875 174.425086 90.13586 172.600502 88.311276 
C 170.775918 86.486691 168.300903 85.461507 165.720551 85.461507 
C 163.140199 85.461507 160.665184 86.486691 158.8406 88.311276 
C 157.016016 90.13586 155.990831 92.610875 155.990831 95.191227 
C 155.990831 97.771579 157.016016 100.246593 158.8406 102.071178 
C 160.665184 103.895762 163.140199 104.920947 165.720551 104.920947 
z
" clip-path="url(#pb7d8f89e1b)" style="fill: #d62728; stroke: #000000; stroke-linejoin: miter"/>
   </g>
   <g id="patch_11">
    <path d="M 230.585717 104.920344 
C 233.166069 104.920344 235.641084 103.895159 237.465668 102.070575 
C 239.290253 100.24599 240.315437 97.770976 240.315437 95.190624 
C 240.315437 92.610272 239.290253 90.135257 237.465668 88.310673 
C 235.641084 86.486088 233.166069 85.460904 230.585717 85.460904 
C 228.005365 85.460904 225.530351 86.486088 223.705766 88.310673 
C 221.881182 90.135257 220.855997 92.610272 220.855997 95.190624 
C 220.855997 97.770976 221.881182 100.24599 223.705766 102.070575 
C 225.530351 103.895159 228.005365 104.920344 230.585717 104.920344 
z
" clip-path="url(#pb7d8f89e1b)" style="fill: #9467bd; stroke: #000000; stroke-linejoin: miter"/>
   </g>
   <g id="patch_12">
    <path d="M 263.017765 104.920679 
C 265.598117 104.920679 268.073132 103.895494 269.897716 102.07091 
C 271.722301 100.246326 272.747485 97.771311 272.747485 95.190959 
C 272.747485 92.610607 271.722301 90.135593 269.897716 88.311008 
C 268.073132 86.486424 265.598117 85.461239 263.017765 85.461239 
C 260.437413 85.461239 257.962399 86.486424 256.137814 88.311008 
C 254.31323 90.135593 253.288045 92.610607 253.288045 95.190959 
C 253.288045 97.771311 254.31323 100.246326 256.137814 102.07091 
C 257.962399 103.895494 260.437413 104.920679 263.017765 104.920679 
z
" clip-path="url(#pb7d8f89e1b)" style="fill: #8c564b; stroke: #000000; stroke-linejoin: miter"/>
   </g>
   <g id="patch_13">
    <path d="M 133.288246 169.785921 
C 135.868598 169.785921 138.343612 168.760736 140.168197 166.936152 
C 141.992781 165.111568 143.017966 162.636553 143.017966 160.056201 
C 143.017966 157.475849 141.992781 155.000834 140.168197 153.17625 
C 138.343612 151.351666 135.868598 150.326481 133.288246 150.326481 
C 130.707894 150.326481 128.232879 151.351666 126.408295 153.17625 
C 124.58371 155.000834 123.558526 157.475849 123.558526 160.056201 
C 123.558526 162.636553 124.58371 165.111568 126.408295 166.936152 
C 128.232879 168.760736 130.707894 169.785921 133.288246 169.785921 
z
" clip-path="url(#pb7d8f89e1b)" style="fill: #e377c2; stroke: #000000; stroke-linejoin: miter"/>
   </g>
   <g id="patch_14">
    <path d="M 165.720489 169.785504 
C 168.300841 169.785504 170.775856 168.76032 172.60044 166.935735 
C 174.425025 165.111151 175.450209 162.636136 175.450209 160.055784 
C 175.450209 157.475433 174.425025 155.000418 172.60044 153.175833 
C 170.775856 151.351249 168.300841 150.326064 165.720489 150.326064 
C 163.140137 150.326064 160.665123 151.351249 158.840538 153.175833 
C 157.015954 155.000418 155.990769 157.475433 155.990769 160.055784 
C 155.990769 162.636136 157.015954 165.111151 158.840538 166.935735 
C 160.665123 168.76032 163.140137 169.785504 165.720489 169.785504 
z
" clip-path="url(#pb7d8f89e1b)" style="fill: #7f7f7f; stroke: #000000; stroke-linejoin: miter"/>
   </g>
   <g id="patch_15">
    <path d="M 230.585634 169.785754 
C 233.165986 169.785754 235.641001 168.760569 237.465585 166.935985 
C 239.290169 165.111401 240.315354 162.636386 240.315354 160.056034 
C 240.315354 157.475682 239.290169 155.000667 237.465585 153.176083 
C 235.641001 151.351499 233.165986 150.326314 230.585634 150.326314 
C 228.005282 150.326314 225.530267 151.351499 223.705683 153.176083 
C 221.881099 155.000667 220.855914 157.475682 220.855914 160.056034 
C 220.855914 162.636386 221.881099 165.111401 223.705683 166.935985 
C 225.530267 168.760569 228.005282 169.785754 230.585634 169.785754 
z
" clip-path="url(#pb7d8f89e1b)" style="fill: #bcbd22; stroke: #000000; stroke-linejoin: miter"/>
   </g>
   <g id="patch_16">
    <path d="M 263.017781 169.785944 
C 265.598133 169.785944 268.073147 168.760759 269.897732 166.936175 
C 271.722316 165.111591 272.747501 162.636576 272.747501 160.056224 
C 272.747501 157.475872 271.722316 155.000857 269.897732 153.176273 
C 268.073147 151.351689 265.598133 150.326504 263.017781 150.326504 
C 260.437429 150.326504 257.962414 151.351689 256.13783 153.176273 
C 254.313245 155.000857 253.288061 157.475872 253.288061 160.056224 
C 253.288061 162.636576 254.313245 165.111591 256.13783 166.936175 
C 257.962414 168.760759 260.437429 169.785944 263.017781 169.785944 
z
" clip-path="url(#pb7d8f89e1b)" style="fill: #17becf; stroke: #000000; stroke-linejoin: miter"/>
   </g>
   <g id="patch_17">
    <path d="M 230.585882 72.488561 
C 233.166234 72.488561 235.641249 71.463376 237.465833 69.638792 
C 239.290417 67.814207 240.315602 65.339192 240.315602 62.758841 
C 240.315602 60.178489 239.290417 57.703474 237.465833 55.87889 
C 235.641249 54.054305 233.166234 53.029121 230.585882 53.029121 
C 228.00553 53.029121 225.530515 54.054305 223.705931 55.87889 
C 221.881347 57.703474 220.856162 60.178489 220.856162 62.758841 
C 220.856162 65.339192 221.881347 67.814207 223.705931 69.638792 
C 225.530515 71.463376 228.00553 72.488561 230.585882 72.488561 
z
" clip-path="url(#pb7d8f89e1b)" style="fill: #2f4f4f; stroke: #000000; stroke-linejoin: miter"/>
   </g>
   <g id="patch_18">
    <path d="M 230.585329 40.056316 
C 233.165681 40.056316 235.640696 39.031131 237.46528 37.206547 
C 239.289864 35.381963 240.315049 32.906948 240.315049 30.326596 
C 240.315049 27.746244 239.289864 25.271229 237.46528 23.446645 
C 235.640696 21.622061 233.165681 20.596876 230.585329 20.596876 
C 228.004977 20.596876 225.529962 21.622061 223.705378 23.446645 
C 221.880794 25.271229 220.855609 27.746244 220.855609 30.326596 
C 220.855609 32.906948 221.880794 35.381963 223.705378 37.206547 
C 225.529962 39.031131 228.004977 40.056316 230.585329 40.056316 
z
" clip-path="url(#pb7d8f89e1b)" style="fill: #cd5c5c; stroke: #000000; stroke-linejoin: miter"/>
   </g>
   <g id="patch_19">
    <path d="M 230.58604 7.623649 
C 233.166392 7.623649 235.641407 6.598465 237.465991 4.77388 
C 239.290576 2.949296 240.31576 0.474281 240.31576 -2.106071 
C 240.31576 -4.686423 239.290576 -7.161437 237.465991 -8.986022 
C 235.641407 -10.810606 233.166392 -11.835791 230.58604 -11.835791 
C 228.005688 -11.835791 225.530674 -10.810606 223.706089 -8.986022 
C 221.881505 -7.161437 220.85632 -4.686423 220.85632 -2.106071 
C 220.85632 0.474281 221.881505 2.949296 223.706089 4.77388 
C 225.530674 6.598465 228.005688 7.623649 230.58604 7.623649 
z
" clip-path="url(#pb7d8f89e1b)" style="fill: #add8e6; stroke: #000000; stroke-linejoin: miter"/>
   </g>
   <g id="patch_20">
    <path d="M 230.585957 202.218183 
C 233.166309 202.218183 235.641324 201.192998 237.465908 199.368414 
C 239.290493 197.543829 240.315677 195.068815 240.315677 192.488463 
C 240.315677 189.908111 239.290493 187.433096 237.465908 185.608512 
C 235.641324 183.783927 233.166309 182.758743 230.585957 182.758743 
C 228.005605 182.758743 225.530591 183.783927 223.706006 185.608512 
C 221.881422 187.433096 220.856237 189.908111 220.856237 192.488463 
C 220.856237 195.068815 221.881422 197.543829 223.706006 199.368414 
C 225.530591 201.192998 228.005605 202.218183 230.585957 202.218183 
z
" clip-path="url(#pb7d8f89e1b)" style="fill: #663399; stroke: #000000; stroke-linejoin: miter"/>
   </g>
   <g id="patch_21">
    <path d="M 230.585336 234.650505 
C 233.165688 234.650505 235.640702 233.625321 237.465287 231.800736 
C 239.289871 229.976152 240.315056 227.501137 240.315056 224.920785 
C 240.315056 222.340434 239.289871 219.865419 237.465287 218.040834 
C 235.640702 216.21625 233.165688 215.191065 230.585336 215.191065 
C 228.004984 215.191065 225.529969 216.21625 223.705385 218.040834 
C 221.8808 219.865419 220.855616 222.340434 220.855616 224.920785 
C 220.855616 227.501137 221.8808 229.976152 223.705385 231.800736 
C 225.529969 233.625321 228.004984 234.650505 230.585336 234.650505 
z
" clip-path="url(#pb7d8f89e1b)" style="fill: #8fbc8f; stroke: #000000; stroke-linejoin: miter"/>
   </g>
   <g id="patch_22">
    <path d="M 230.586307 267.082926 
C 233.166658 267.082926 235.641673 266.057742 237.466258 264.233157 
C 239.290842 262.408573 240.316027 259.933558 240.316027 257.353206 
C 240.316027 254.772854 239.290842 252.29784 237.466258 250.473255 
C 235.641673 248.648671 233.166658 247.623486 230.586307 247.623486 
C 228.005955 247.623486 225.53094 248.648671 223.706356 250.473255 
C 221.881771 252.29784 220.856587 254.772854 220.856587 257.353206 
C 220.856587 259.933558 221.881771 262.408573 223.706356 264.233157 
C 225.53094 266.057742 228.005955 267.082926 230.586307 267.082926 
z
" clip-path="url(#pb7d8f89e1b)" style="fill: #00ced1; stroke: #000000; stroke-linejoin: miter"/>
   </g>
   <g id="patch_23">
    <path d="M 165.72058 72.488724 
C 168.300932 72.488724 170.775947 71.463539 172.600531 69.638955 
C 174.425115 67.81437 175.4503 65.339355 175.4503 62.759004 
C 175.4503 60.178652 174.425115 57.703637 172.600531 55.879053 
C 170.775947 54.054468 168.300932 53.029284 165.72058 53.029284 
C 163.140228 53.029284 160.665213 54.054468 158.840629 55.879053 
C 157.016045 57.703637 155.99086 60.178652 155.99086 62.759004 
C 155.99086 65.339355 157.016045 67.81437 158.840629 69.638955 
C 160.665213 71.463539 163.140228 72.488724 165.72058 72.488724 
z
" clip-path="url(#pb7d8f89e1b)" style="fill: #6a5acd; stroke: #000000; stroke-linejoin: miter"/>
   </g>
   <g id="patch_24">
    <path d="M 165.720615 40.056249 
C 168.300967 40.056249 170.775982 39.031064 172.600566 37.20648 
C 174.42515 35.381896 175.450335 32.906881 175.450335 30.326529 
C 175.450335 27.746177 174.42515 25.271162 172.600566 23.446578 
C 170.775982 21.621994 168.300967 20.596809 165.720615 20.596809 
C 163.140263 20.596809 160.665248 21.621994 158.840664 23.446578 
C 157.01608 25.271162 155.990895 27.746177 155.990895 30.326529 
C 155.990895 32.906881 157.01608 35.381896 158.840664 37.20648 
C 160.665248 39.031064 163.140263 40.056249 165.720615 40.056249 
z
" clip-path="url(#pb7d8f89e1b)" style="fill: #808000; stroke: #000000; stroke-linejoin: miter"/>
   </g>
   <g id="patch_25">
    <path d="M 165.720577 7.623715 
C 168.300928 7.623715 170.775943 6.59853 172.600528 4.773946 
C 174.425112 2.949362 175.450297 0.474347 175.450297 -2.106005 
C 175.450297 -4.686357 174.425112 -7.161372 172.600528 -8.985956 
C 170.775943 -10.81054 168.300928 -11.835725 165.720577 -11.835725 
C 163.140225 -11.835725 160.66521 -10.81054 158.840626 -8.985956 
C 157.016041 -7.161372 155.990857 -4.686357 155.990857 -2.106005 
C 155.990857 0.474347 157.016041 2.949362 158.840626 4.773946 
C 160.66521 6.59853 163.140225 7.623715 165.720577 7.623715 
z
" clip-path="url(#pb7d8f89e1b)" style="fill: #a0522d; stroke: #000000; stroke-linejoin: miter"/>
   </g>
   <g id="patch_26">
    <path d="M 165.720556 202.218134 
C 168.300908 202.218134 170.775923 201.192949 172.600507 199.368365 
C 174.425091 197.54378 175.450276 195.068766 175.450276 192.488414 
C 175.450276 189.908062 174.425091 187.433047 172.600507 185.608463 
C 170.775923 183.783878 168.300908 182.758694 165.720556 182.758694 
C 163.140204 182.758694 160.665189 183.783878 158.840605 185.608463 
C 157.016021 187.433047 155.990836 189.908062 155.990836 192.488414 
C 155.990836 195.068766 157.016021 197.54378 158.840605 199.368365 
C 160.665189 201.192949 163.140204 202.218134 165.720556 202.218134 
z
" clip-path="url(#pb7d8f89e1b)" style="fill: #ff4500; stroke: #000000; stroke-linejoin: miter"/>
   </g>
   <g id="patch_27">
    <path d="M 165.720666 234.650362 
C 168.301018 234.650362 170.776033 233.625177 172.600617 231.800593 
C 174.425201 229.976009 175.450386 227.500994 175.450386 224.920642 
C 175.450386 222.34029 174.425201 219.865275 172.600617 218.040691 
C 170.776033 216.216107 168.301018 215.190922 165.720666 215.190922 
C 163.140314 215.190922 160.665299 216.216107 158.840715 218.040691 
C 157.016131 219.865275 155.990946 222.34029 155.990946 224.920642 
C 155.990946 227.500994 157.016131 229.976009 158.840715 231.800593 
C 160.665299 233.625177 163.140314 234.650362 165.720666 234.650362 
z
" clip-path="url(#pb7d8f89e1b)" style="fill: #708090; stroke: #000000; stroke-linejoin: miter"/>
   </g>
   <g id="patch_28">
    <path d="M 165.720178 267.082924 
C 168.30053 267.082924 170.775544 266.057739 172.600129 264.233155 
C 174.424713 262.408571 175.449898 259.933556 175.449898 257.353204 
C 175.449898 254.772852 174.424713 252.297837 172.600129 250.473253 
C 170.775544 248.648669 168.30053 247.623484 165.720178 247.623484 
C 163.139826 247.623484 160.664811 248.648669 158.840227 250.473253 
C 157.015642 252.297837 155.990458 254.772852 155.990458 257.353204 
C 155.990458 259.933556 157.015642 262.408571 158.840227 264.233155 
C 160.664811 266.057739 163.139826 267.082924 165.720178 267.082924 
z
" clip-path="url(#pb7d8f89e1b)" style="fill: #bdb76b; stroke: #000000; stroke-linejoin: miter"/>
   </g>
   <g id="line2d_59">
    <path d="M 263.0178 127.6236 
" clip-path="url(#pb7d8f89e1b)" style="fill: none; stroke: #1f77b4; stroke-width: 1.5; stroke-linecap: square"/>
    <defs>
     <path id="m5d20a69bca" d="M 0 4.949747 
L 2.969848 0 
L 0 -4.949747 
L -2.969848 0 
z
" style="stroke: #000000; stroke-linejoin: miter"/>
    </defs>
    <g clip-path="url(#pb7d8f89e1b)">
     <use xlink:href="#m5d20a69bca" x="263.0178" y="127.6236" style="fill: #1f77b4; stroke: #000000; stroke-linejoin: miter"/>
    </g>
   </g>
   <g id="line2d_60">
    <path d="M 263.0178 127.6236 
" clip-path="url(#pb7d8f89e1b)" style="fill: none; stroke: #ff7f0e; stroke-width: 1.5; stroke-linecap: square"/>
    <defs>
     <path id="m115bb7bd66" d="M 0 4.949747 
L 2.969848 0 
L 0 -4.949747 
L -2.969848 0 
z
" style="stroke: #000000; stroke-linejoin: miter"/>
    </defs>
    <g clip-path="url(#pb7d8f89e1b)">
     <use xlink:href="#m115bb7bd66" x="263.0178" y="127.6236" style="fill: #ff7f0e; stroke: #000000; stroke-linejoin: miter"/>
    </g>
   </g>
   <g id="line2d_61">
    <path d="M 133.2882 95.1912 
" clip-path="url(#pb7d8f89e1b)" style="fill: none; stroke: #2ca02c; stroke-width: 1.5; stroke-linecap: square"/>
    <defs>
     <path id="ma486a42129" d="M 0 4.949747 
L 2.969848 0 
L 0 -4.949747 
L -2.969848 0 
z
" style="stroke: #000000; stroke-linejoin: miter"/>
    </defs>
    <g clip-path="url(#pb7d8f89e1b)">
     <use xlink:href="#ma486a42129" x="133.2882" y="95.1912" style="fill: #2ca02c; stroke: #000000; stroke-linejoin: miter"/>
    </g>
   </g>
   <g id="line2d_62">
    <path d="M 165.7206 95.1912 
" clip-path="url(#pb7d8f89e1b)" style="fill: none; stroke: #d62728; stroke-width: 1.5; stroke-linecap: square"/>
    <defs>
     <path id="m9a4cda0045" d="M 0 4.949747 
L 2.969848 0 
L 0 -4.949747 
L -2.969848 0 
z
" style="stroke: #000000; stroke-linejoin: miter"/>
    </defs>
    <g clip-path="url(#pb7d8f89e1b)">
     <use xlink:href="#m9a4cda0045" x="165.7206" y="95.1912" style="fill: #d62728; stroke: #000000; stroke-linejoin: miter"/>
    </g>
   </g>
   <g id="line2d_63">
    <path d="M 230.5854 95.1912 
" clip-path="url(#pb7d8f89e1b)" style="fill: none; stroke: #9467bd; stroke-width: 1.5; stroke-linecap: square"/>
    <defs>
     <path id="m2ab29e34b0" d="M 0 4.949747 
L 2.969848 0 
L 0 -4.949747 
L -2.969848 0 
z
" style="stroke: #000000; stroke-linejoin: miter"/>
    </defs>
    <g clip-path="url(#pb7d8f89e1b)">
     <use xlink:href="#m2ab29e34b0" x="230.5854" y="95.1912" style="fill: #9467bd; stroke: #000000; stroke-linejoin: miter"/>
    </g>
   </g>
   <g id="line2d_64">
    <path d="M 263.0178 95.1912 
" clip-path="url(#pb7d8f89e1b)" style="fill: none; stroke: #8c564b; stroke-width: 1.5; stroke-linecap: square"/>
    <defs>
     <path id="m788d19ade7" d="M 0 4.949747 
L 2.969848 0 
L 0 -4.949747 
L -2.969848 0 
z
" style="stroke: #000000; stroke-linejoin: miter"/>
    </defs>
    <g clip-path="url(#pb7d8f89e1b)">
     <use xlink:href="#m788d19ade7" x="263.0178" y="95.1912" style="fill: #8c564b; stroke: #000000; stroke-linejoin: miter"/>
    </g>
   </g>
   <g id="line2d_65">
    <path d="M 133.2882 160.056 
" clip-path="url(#pb7d8f89e1b)" style="fill: none; stroke: #e377c2; stroke-width: 1.5; stroke-linecap: square"/>
    <defs>
     <path id="m9d46ee603c" d="M 0 4.949747 
L 2.969848 0 
L 0 -4.949747 
L -2.969848 0 
z
" style="stroke: #000000; stroke-linejoin: miter"/>
    </defs>
    <g clip-path="url(#pb7d8f89e1b)">
     <use xlink:href="#m9d46ee603c" x="133.2882" y="160.056" style="fill: #e377c2; stroke: #000000; stroke-linejoin: miter"/>
    </g>
   </g>
   <g id="line2d_66">
    <path d="M 165.7206 160.056 
" clip-path="url(#pb7d8f89e1b)" style="fill: none; stroke: #7f7f7f; stroke-width: 1.5; stroke-linecap: square"/>
    <defs>
     <path id="m40bb880eb7" d="M 0 4.949747 
L 2.969848 0 
L 0 -4.949747 
L -2.969848 0 
z
" style="stroke: #000000; stroke-linejoin: miter"/>
    </defs>
    <g clip-path="url(#pb7d8f89e1b)">
     <use xlink:href="#m40bb880eb7" x="165.7206" y="160.056" style="fill: #7f7f7f; stroke: #000000; stroke-linejoin: miter"/>
    </g>
   </g>
   <g id="line2d_67">
    <path d="M 230.5854 160.056 
" clip-path="url(#pb7d8f89e1b)" style="fill: none; stroke: #bcbd22; stroke-width: 1.5; stroke-linecap: square"/>
    <defs>
     <path id="meb20cf592d" d="M 0 4.949747 
L 2.969848 0 
L 0 -4.949747 
L -2.969848 0 
z
" style="stroke: #000000; stroke-linejoin: miter"/>
    </defs>
    <g clip-path="url(#pb7d8f89e1b)">
     <use xlink:href="#meb20cf592d" x="230.5854" y="160.056" style="fill: #bcbd22; stroke: #000000; stroke-linejoin: miter"/>
    </g>
   </g>
   <g id="line2d_68">
    <path d="M 263.0178 160.056 
" clip-path="url(#pb7d8f89e1b)" style="fill: none; stroke: #17becf; stroke-width: 1.5; stroke-linecap: square"/>
    <defs>
     <path id="m654624e1b6" d="M 0 4.949747 
L 2.969848 0 
L 0 -4.949747 
L -2.969848 0 
z
" style="stroke: #000000; stroke-linejoin: miter"/>
    </defs>
    <g clip-path="url(#pb7d8f89e1b)">
     <use xlink:href="#m654624e1b6" x="263.0178" y="160.056" style="fill: #17becf; stroke: #000000; stroke-linejoin: miter"/>
    </g>
   </g>
   <g id="line2d_69">
    <path d="M 230.5854 62.7588 
" clip-path="url(#pb7d8f89e1b)" style="fill: none; stroke: #2f4f4f; stroke-width: 1.5; stroke-linecap: square"/>
    <defs>
     <path id="ma954b3670d" d="M 0 4.949747 
L 2.969848 0 
L 0 -4.949747 
L -2.969848 0 
z
" style="stroke: #000000; stroke-linejoin: miter"/>
    </defs>
    <g clip-path="url(#pb7d8f89e1b)">
     <use xlink:href="#ma954b3670d" x="230.5854" y="62.7588" style="fill: #2f4f4f; stroke: #000000; stroke-linejoin: miter"/>
    </g>
   </g>
   <g id="line2d_70">
    <path d="M 230.5854 30.3264 
" clip-path="url(#pb7d8f89e1b)" style="fill: none; stroke: #cd5c5c; stroke-width: 1.5; stroke-linecap: square"/>
    <defs>
     <path id="mdf9e63e9a1" d="M 0 4.949747 
L 2.969848 0 
L 0 -4.949747 
L -2.969848 0 
z
" style="stroke: #000000; stroke-linejoin: miter"/>
    </defs>
    <g clip-path="url(#pb7d8f89e1b)">
     <use xlink:href="#mdf9e63e9a1" x="230.5854" y="30.3264" style="fill: #cd5c5c; stroke: #000000; stroke-linejoin: miter"/>
    </g>
   </g>
   <g id="line2d_71">
    <path clip-path="url(#pb7d8f89e1b)" style="fill: none; stroke: #add8e6; stroke-width: 1.5; stroke-linecap: square"/>
    <defs>
     <path id="ma02fa698c4" d="M 0 4.949747 
L 2.969848 0 
L 0 -4.949747 
L -2.969848 0 
z
" style="stroke: #000000; stroke-linejoin: miter"/>
    </defs>
    <g clip-path="url(#pb7d8f89e1b)"/>
   </g>
   <g id="line2d_72">
    <path d="M 230.5854 192.4884 
" clip-path="url(#pb7d8f89e1b)" style="fill: none; stroke: #663399; stroke-width: 1.5; stroke-linecap: square"/>
    <defs>
     <path id="m97e8775e06" d="M 0 4.949747 
L 2.969848 0 
L 0 -4.949747 
L -2.969848 0 
z
" style="stroke: #000000; stroke-linejoin: miter"/>
    </defs>
    <g clip-path="url(#pb7d8f89e1b)">
     <use xlink:href="#m97e8775e06" x="230.5854" y="192.4884" style="fill: #663399; stroke: #000000; stroke-linejoin: miter"/>
    </g>
   </g>
   <g id="line2d_73">
    <path d="M 230.5854 224.9208 
" clip-path="url(#pb7d8f89e1b)" style="fill: none; stroke: #8fbc8f; stroke-width: 1.5; stroke-linecap: square"/>
    <defs>
     <path id="m855d6e1fe2" d="M 0 4.949747 
L 2.969848 0 
L 0 -4.949747 
L -2.969848 0 
z
" style="stroke: #000000; stroke-linejoin: miter"/>
    </defs>
    <g clip-path="url(#pb7d8f89e1b)">
     <use xlink:href="#m855d6e1fe2" x="230.5854" y="224.9208" style="fill: #8fbc8f; stroke: #000000; stroke-linejoin: miter"/>
    </g>
   </g>
   <g id="line2d_74">
    <path clip-path="url(#pb7d8f89e1b)" style="fill: none; stroke: #00ced1; stroke-width: 1.5; stroke-linecap: square"/>
    <defs>
     <path id="mec449e3978" d="M 0 4.949747 
L 2.969848 0 
L 0 -4.949747 
L -2.969848 0 
z
" style="stroke: #000000; stroke-linejoin: miter"/>
    </defs>
    <g clip-path="url(#pb7d8f89e1b)">
     <use xlink:href="#mec449e3978" x="230.5854" y="257.3532" style="fill: #00ced1; stroke: #000000; stroke-linejoin: miter"/>
    </g>
   </g>
   <g id="line2d_75">
    <path d="M 165.7206 62.7588 
" clip-path="url(#pb7d8f89e1b)" style="fill: none; stroke: #6a5acd; stroke-width: 1.5; stroke-linecap: square"/>
    <defs>
     <path id="mcd237f7ae6" d="M 0 4.949747 
L 2.969848 0 
L 0 -4.949747 
L -2.969848 0 
z
" style="stroke: #000000; stroke-linejoin: miter"/>
    </defs>
    <g clip-path="url(#pb7d8f89e1b)">
     <use xlink:href="#mcd237f7ae6" x="165.7206" y="62.7588" style="fill: #6a5acd; stroke: #000000; stroke-linejoin: miter"/>
    </g>
   </g>
   <g id="line2d_76">
    <path d="M 165.7206 30.3264 
" clip-path="url(#pb7d8f89e1b)" style="fill: none; stroke: #808000; stroke-width: 1.5; stroke-linecap: square"/>
    <defs>
     <path id="m85e62ad70b" d="M 0 4.949747 
L 2.969848 0 
L 0 -4.949747 
L -2.969848 0 
z
" style="stroke: #000000; stroke-linejoin: miter"/>
    </defs>
    <g clip-path="url(#pb7d8f89e1b)">
     <use xlink:href="#m85e62ad70b" x="165.7206" y="30.3264" style="fill: #808000; stroke: #000000; stroke-linejoin: miter"/>
    </g>
   </g>
   <g id="line2d_77">
    <path clip-path="url(#pb7d8f89e1b)" style="fill: none; stroke: #a0522d; stroke-width: 1.5; stroke-linecap: square"/>
    <defs>
     <path id="mde82e5f149" d="M 0 4.949747 
L 2.969848 0 
L 0 -4.949747 
L -2.969848 0 
z
" style="stroke: #000000; stroke-linejoin: miter"/>
    </defs>
    <g clip-path="url(#pb7d8f89e1b)"/>
   </g>
   <g id="line2d_78">
    <path d="M 165.7206 192.4884 
" clip-path="url(#pb7d8f89e1b)" style="fill: none; stroke: #ff4500; stroke-width: 1.5; stroke-linecap: square"/>
    <defs>
     <path id="m4d30853fc3" d="M 0 4.949747 
L 2.969848 0 
L 0 -4.949747 
L -2.969848 0 
z
" style="stroke: #000000; stroke-linejoin: miter"/>
    </defs>
    <g clip-path="url(#pb7d8f89e1b)">
     <use xlink:href="#m4d30853fc3" x="165.7206" y="192.4884" style="fill: #ff4500; stroke: #000000; stroke-linejoin: miter"/>
    </g>
   </g>
   <g id="line2d_79">
    <path d="M 165.7206 224.9208 
" clip-path="url(#pb7d8f89e1b)" style="fill: none; stroke: #708090; stroke-width: 1.5; stroke-linecap: square"/>
    <defs>
     <path id="m9f5c57cde2" d="M 0 4.949747 
L 2.969848 0 
L 0 -4.949747 
L -2.969848 0 
z
" style="stroke: #000000; stroke-linejoin: miter"/>
    </defs>
    <g clip-path="url(#pb7d8f89e1b)">
     <use xlink:href="#m9f5c57cde2" x="165.7206" y="224.9208" style="fill: #708090; stroke: #000000; stroke-linejoin: miter"/>
    </g>
   </g>
   <g id="line2d_80">
    <path clip-path="url(#pb7d8f89e1b)" style="fill: none; stroke: #bdb76b; stroke-width: 1.5; stroke-linecap: square"/>
    <defs>
     <path id="mdb436891fe" d="M 0 4.949747 
L 2.969848 0 
L 0 -4.949747 
L -2.969848 0 
z
" style="stroke: #000000; stroke-linejoin: miter"/>
    </defs>
    <g clip-path="url(#pb7d8f89e1b)">
     <use xlink:href="#mdb436891fe" x="165.7206" y="257.3532" style="fill: #bdb76b; stroke: #000000; stroke-linejoin: miter"/>
    </g>
   </g>
  </g>
 </g>
 <defs>
  <clipPath id="pb7d8f89e1b">
   <rect x="100.8558" y="30.3264" width="194.5944" height="194.5944"/>
  </clipPath>
 </defs>
</svg>
