<?xml version="1.0" encoding="utf-8" standalone="no"?>
<!DOCTYPE svg PUBLIC "-//W3C//DTD SVG 1.1//EN"
  "http://www.w3.org/Graphics/SVG/1.1/DTD/svg11.dtd">
<svg xmlns:xlink="http://www.w3.org/1999/xlink" width="386.64pt" height="252.72pt" viewBox="0 0 386.64 252.72" xmlns="http://www.w3.org/2000/svg" version="1.1">
 <metadata>
  <rdf:RDF xmlns:dc="http://purl.org/dc/elements/1.1/" xmlns:cc="http://creativecommons.org/ns#" xmlns:rdf="http://www.w3.org/1999/02/22-rdf-syntax-ns#">
   <cc:Work>
    <dc:type rdf:resource="http://purl.org/dc/dcmitype/StillImage"/>
    <dc:date>2023-07-11T22:26:56.827924</dc:date>
    <dc:format>image/svg+xml</dc:format>
    <dc:creator>
     <cc:Agent>
      <dc:title>Matplotlib v3.6.2, https://matplotlib.org/</dc:title>
     </cc:Agent>
    </dc:creator>
   </cc:Work>
  </rdf:RDF>
 </metadata>
 <defs>
  <style type="text/css">*{stroke-linejoin: round; stroke-linecap: butt}</style>
 </defs>
 <g id="figure_1">
  <g id="patch_1">
   <path d="M 0 252.72 
L 386.64 252.72 
L 386.64 0 
L 0 0 
z
" style="fill: #ffffff"/>
  </g>
  <g id="axes_1">
   <g id="patch_2">
    <path d="M 100.8558 224.9208 
L 295.4502 224.9208 
L 295.4502 30.3264 
L 100.8558 30.3264 
z
" style="fill: #ffffff"/>
   </g>
   <g id="matplotlib.axis_1">
    <g id="xtick_1">
     <g id="line2d_1">
      <defs>
       <path id="ma63d751408" d="M 0 0 
L 0 3.5 
" style="stroke: #000000; stroke-width: 0.8"/>
      </defs>
      <g>
       <use xlink:href="#ma63d751408" x="100.8558" y="224.9208" style="stroke: #000000; stroke-width: 0.8"/>
      </g>
     </g>
     <g id="text_1">
      <!-- −0.5 -->
      <g transform="translate(88.714394 239.519237) scale(0.1 -0.1)">
       <defs>
        <path id="DejaVuSans-2212" d="M 678 2272 
L 4684 2272 
L 4684 1741 
L 678 1741 
L 678 2272 
z
" transform="scale(0.015625)"/>
        <path id="DejaVuSans-30" d="M 2034 4250 
Q 1547 4250 1301 3770 
Q 1056 3291 1056 2328 
Q 1056 1369 1301 889 
Q 1547 409 2034 409 
Q 2525 409 2770 889 
Q 3016 1369 3016 2328 
Q 3016 3291 2770 3770 
Q 2525 4250 2034 4250 
z
M 2034 4750 
Q 2819 4750 3233 4129 
Q 3647 3509 3647 2328 
Q 3647 1150 3233 529 
Q 2819 -91 2034 -91 
Q 1250 -91 836 529 
Q 422 1150 422 2328 
Q 422 3509 836 4129 
Q 1250 4750 2034 4750 
z
" transform="scale(0.015625)"/>
        <path id="DejaVuSans-2e" d="M 684 794 
L 1344 794 
L 1344 0 
L 684 0 
L 684 794 
z
" transform="scale(0.015625)"/>
        <path id="DejaVuSans-35" d="M 691 4666 
L 3169 4666 
L 3169 4134 
L 1269 4134 
L 1269 2991 
Q 1406 3038 1543 3061 
Q 1681 3084 1819 3084 
Q 2600 3084 3056 2656 
Q 3513 2228 3513 1497 
Q 3513 744 3044 326 
Q 2575 -91 1722 -91 
Q 1428 -91 1123 -41 
Q 819 9 494 109 
L 494 744 
Q 775 591 1075 516 
Q 1375 441 1709 441 
Q 2250 441 2565 725 
Q 2881 1009 2881 1497 
Q 2881 1984 2565 2268 
Q 2250 2553 1709 2553 
Q 1456 2553 1204 2497 
Q 953 2441 691 2322 
L 691 4666 
z
" transform="scale(0.015625)"/>
       </defs>
       <use xlink:href="#DejaVuSans-2212"/>
       <use xlink:href="#DejaVuSans-30" x="83.789062"/>
       <use xlink:href="#DejaVuSans-2e" x="147.412109"/>
       <use xlink:href="#DejaVuSans-35" x="179.199219"/>
      </g>
     </g>
    </g>
    <g id="xtick_2">
     <g id="line2d_2">
      <g>
       <use xlink:href="#ma63d751408" x="133.2882" y="224.9208" style="stroke: #000000; stroke-width: 0.8"/>
      </g>
     </g>
     <g id="text_2">
      <!-- 0.0 -->
      <g transform="translate(125.336638 239.519237) scale(0.1 -0.1)">
       <use xlink:href="#DejaVuSans-30"/>
       <use xlink:href="#DejaVuSans-2e" x="63.623047"/>
       <use xlink:href="#DejaVuSans-30" x="95.410156"/>
      </g>
     </g>
    </g>
    <g id="xtick_3">
     <g id="line2d_3">
      <g>
       <use xlink:href="#ma63d751408" x="165.7206" y="224.9208" style="stroke: #000000; stroke-width: 0.8"/>
      </g>
     </g>
     <g id="text_3">
      <!-- 0.5 -->
      <g transform="translate(157.769037 239.519237) scale(0.1 -0.1)">
       <use xlink:href="#DejaVuSans-30"/>
       <use xlink:href="#DejaVuSans-2e" x="63.623047"/>
       <use xlink:href="#DejaVuSans-35" x="95.410156"/>
      </g>
     </g>
    </g>
    <g id="xtick_4">
     <g id="line2d_4">
      <g>
       <use xlink:href="#ma63d751408" x="198.153" y="224.9208" style="stroke: #000000; stroke-width: 0.8"/>
      </g>
     </g>
     <g id="text_4">
      <!-- 1.0 -->
      <g transform="translate(190.201437 239.519237) scale(0.1 -0.1)">
       <defs>
        <path id="DejaVuSans-31" d="M 794 531 
L 1825 531 
L 1825 4091 
L 703 3866 
L 703 4441 
L 1819 4666 
L 2450 4666 
L 2450 531 
L 3481 531 
L 3481 0 
L 794 0 
L 794 531 
z
" transform="scale(0.015625)"/>
       </defs>
       <use xlink:href="#DejaVuSans-31"/>
       <use xlink:href="#DejaVuSans-2e" x="63.623047"/>
       <use xlink:href="#DejaVuSans-30" x="95.410156"/>
      </g>
     </g>
    </g>
    <g id="xtick_5">
     <g id="line2d_5">
      <g>
       <use xlink:href="#ma63d751408" x="230.5854" y="224.9208" style="stroke: #000000; stroke-width: 0.8"/>
      </g>
     </g>
     <g id="text_5">
      <!-- 1.5 -->
      <g transform="translate(222.633837 239.519237) scale(0.1 -0.1)">
       <use xlink:href="#DejaVuSans-31"/>
       <use xlink:href="#DejaVuSans-2e" x="63.623047"/>
       <use xlink:href="#DejaVuSans-35" x="95.410156"/>
      </g>
     </g>
    </g>
    <g id="xtick_6">
     <g id="line2d_6">
      <g>
       <use xlink:href="#ma63d751408" x="263.0178" y="224.9208" style="stroke: #000000; stroke-width: 0.8"/>
      </g>
     </g>
     <g id="text_6">
      <!-- 2.0 -->
      <g transform="translate(255.066237 239.519237) scale(0.1 -0.1)">
       <defs>
        <path id="DejaVuSans-32" d="M 1228 531 
L 3431 531 
L 3431 0 
L 469 0 
L 469 531 
Q 828 903 1448 1529 
Q 2069 2156 2228 2338 
Q 2531 2678 2651 2914 
Q 2772 3150 2772 3378 
Q 2772 3750 2511 3984 
Q 2250 4219 1831 4219 
Q 1534 4219 1204 4116 
Q 875 4013 500 3803 
L 500 4441 
Q 881 4594 1212 4672 
Q 1544 4750 1819 4750 
Q 2544 4750 2975 4387 
Q 3406 4025 3406 3419 
Q 3406 3131 3298 2873 
Q 3191 2616 2906 2266 
Q 2828 2175 2409 1742 
Q 1991 1309 1228 531 
z
" transform="scale(0.015625)"/>
       </defs>
       <use xlink:href="#DejaVuSans-32"/>
       <use xlink:href="#DejaVuSans-2e" x="63.623047"/>
       <use xlink:href="#DejaVuSans-30" x="95.410156"/>
      </g>
     </g>
    </g>
    <g id="xtick_7">
     <g id="line2d_7">
      <g>
       <use xlink:href="#ma63d751408" x="295.4502" y="224.9208" style="stroke: #000000; stroke-width: 0.8"/>
      </g>
     </g>
     <g id="text_7">
      <!-- 2.5 -->
      <g transform="translate(287.498637 239.519237) scale(0.1 -0.1)">
       <use xlink:href="#DejaVuSans-32"/>
       <use xlink:href="#DejaVuSans-2e" x="63.623047"/>
       <use xlink:href="#DejaVuSans-35" x="95.410156"/>
      </g>
     </g>
    </g>
    <g id="text_8">
     <!-- x(m) -->
     <g transform="translate(186.42175 253.197362) scale(0.1 -0.1)">
      <defs>
       <path id="DejaVuSans-78" d="M 3513 3500 
L 2247 1797 
L 3578 0 
L 2900 0 
L 1881 1375 
L 863 0 
L 184 0 
L 1544 1831 
L 300 3500 
L 978 3500 
L 1906 2253 
L 2834 3500 
L 3513 3500 
z
" transform="scale(0.015625)"/>
       <path id="DejaVuSans-28" d="M 1984 4856 
Q 1566 4138 1362 3434 
Q 1159 2731 1159 2009 
Q 1159 1288 1364 580 
Q 1569 -128 1984 -844 
L 1484 -844 
Q 1016 -109 783 600 
Q 550 1309 550 2009 
Q 550 2706 781 3412 
Q 1013 4119 1484 4856 
L 1984 4856 
z
" transform="scale(0.015625)"/>
       <path id="DejaVuSans-6d" d="M 3328 2828 
Q 3544 3216 3844 3400 
Q 4144 3584 4550 3584 
Q 5097 3584 5394 3201 
Q 5691 2819 5691 2113 
L 5691 0 
L 5113 0 
L 5113 2094 
Q 5113 2597 4934 2840 
Q 4756 3084 4391 3084 
Q 3944 3084 3684 2787 
Q 3425 2491 3425 1978 
L 3425 0 
L 2847 0 
L 2847 2094 
Q 2847 2600 2669 2842 
Q 2491 3084 2119 3084 
Q 1678 3084 1418 2786 
Q 1159 2488 1159 1978 
L 1159 0 
L 581 0 
L 581 3500 
L 1159 3500 
L 1159 2956 
Q 1356 3278 1631 3431 
Q 1906 3584 2284 3584 
Q 2666 3584 2933 3390 
Q 3200 3197 3328 2828 
z
" transform="scale(0.015625)"/>
       <path id="DejaVuSans-29" d="M 513 4856 
L 1013 4856 
Q 1481 4119 1714 3412 
Q 1947 2706 1947 2009 
Q 1947 1309 1714 600 
Q 1481 -109 1013 -844 
L 513 -844 
Q 928 -128 1133 580 
Q 1338 1288 1338 2009 
Q 1338 2731 1133 3434 
Q 928 4138 513 4856 
z
" transform="scale(0.015625)"/>
      </defs>
      <use xlink:href="#DejaVuSans-78"/>
      <use xlink:href="#DejaVuSans-28" x="59.179688"/>
      <use xlink:href="#DejaVuSans-6d" x="98.193359"/>
      <use xlink:href="#DejaVuSans-29" x="195.605469"/>
     </g>
    </g>
   </g>
   <g id="matplotlib.axis_2">
    <g id="ytick_1">
     <g id="line2d_8">
      <defs>
       <path id="m0ba25c3f16" d="M 0 0 
L -3.5 0 
" style="stroke: #000000; stroke-width: 0.8"/>
      </defs>
      <g>
       <use xlink:href="#m0ba25c3f16" x="100.8558" y="224.9208" style="stroke: #000000; stroke-width: 0.8"/>
      </g>
     </g>
     <g id="text_9">
      <!-- −0.5 -->
      <g transform="translate(69.572988 228.720019) scale(0.1 -0.1)">
       <use xlink:href="#DejaVuSans-2212"/>
       <use xlink:href="#DejaVuSans-30" x="83.789062"/>
       <use xlink:href="#DejaVuSans-2e" x="147.412109"/>
       <use xlink:href="#DejaVuSans-35" x="179.199219"/>
      </g>
     </g>
    </g>
    <g id="ytick_2">
     <g id="line2d_9">
      <g>
       <use xlink:href="#m0ba25c3f16" x="100.8558" y="192.4884" style="stroke: #000000; stroke-width: 0.8"/>
      </g>
     </g>
     <g id="text_10">
      <!-- 0.0 -->
      <g transform="translate(77.952675 196.287619) scale(0.1 -0.1)">
       <use xlink:href="#DejaVuSans-30"/>
       <use xlink:href="#DejaVuSans-2e" x="63.623047"/>
       <use xlink:href="#DejaVuSans-30" x="95.410156"/>
      </g>
     </g>
    </g>
    <g id="ytick_3">
     <g id="line2d_10">
      <g>
       <use xlink:href="#m0ba25c3f16" x="100.8558" y="160.056" style="stroke: #000000; stroke-width: 0.8"/>
      </g>
     </g>
     <g id="text_11">
      <!-- 0.5 -->
      <g transform="translate(77.952675 163.855219) scale(0.1 -0.1)">
       <use xlink:href="#DejaVuSans-30"/>
       <use xlink:href="#DejaVuSans-2e" x="63.623047"/>
       <use xlink:href="#DejaVuSans-35" x="95.410156"/>
      </g>
     </g>
    </g>
    <g id="ytick_4">
     <g id="line2d_11">
      <g>
       <use xlink:href="#m0ba25c3f16" x="100.8558" y="127.6236" style="stroke: #000000; stroke-width: 0.8"/>
      </g>
     </g>
     <g id="text_12">
      <!-- 1.0 -->
      <g transform="translate(77.952675 131.422819) scale(0.1 -0.1)">
       <use xlink:href="#DejaVuSans-31"/>
       <use xlink:href="#DejaVuSans-2e" x="63.623047"/>
       <use xlink:href="#DejaVuSans-30" x="95.410156"/>
      </g>
     </g>
    </g>
    <g id="ytick_5">
     <g id="line2d_12">
      <g>
       <use xlink:href="#m0ba25c3f16" x="100.8558" y="95.1912" style="stroke: #000000; stroke-width: 0.8"/>
      </g>
     </g>
     <g id="text_13">
      <!-- 1.5 -->
      <g transform="translate(77.952675 98.990419) scale(0.1 -0.1)">
       <use xlink:href="#DejaVuSans-31"/>
       <use xlink:href="#DejaVuSans-2e" x="63.623047"/>
       <use xlink:href="#DejaVuSans-35" x="95.410156"/>
      </g>
     </g>
    </g>
    <g id="ytick_6">
     <g id="line2d_13">
      <g>
       <use xlink:href="#m0ba25c3f16" x="100.8558" y="62.7588" style="stroke: #000000; stroke-width: 0.8"/>
      </g>
     </g>
     <g id="text_14">
      <!-- 2.0 -->
      <g transform="translate(77.952675 66.558019) scale(0.1 -0.1)">
       <use xlink:href="#DejaVuSans-32"/>
       <use xlink:href="#DejaVuSans-2e" x="63.623047"/>
       <use xlink:href="#DejaVuSans-30" x="95.410156"/>
      </g>
     </g>
    </g>
    <g id="ytick_7">
     <g id="line2d_14">
      <g>
       <use xlink:href="#m0ba25c3f16" x="100.8558" y="30.3264" style="stroke: #000000; stroke-width: 0.8"/>
      </g>
     </g>
     <g id="text_15">
      <!-- 2.5 -->
      <g transform="translate(77.952675 34.125619) scale(0.1 -0.1)">
       <use xlink:href="#DejaVuSans-32"/>
       <use xlink:href="#DejaVuSans-2e" x="63.623047"/>
       <use xlink:href="#DejaVuSans-35" x="95.410156"/>
      </g>
     </g>
    </g>
    <g id="text_16">
     <!-- y(m) -->
     <g transform="translate(63.4933 139.35485) rotate(-90) scale(0.1 -0.1)">
      <defs>
       <path id="DejaVuSans-79" d="M 2059 -325 
Q 1816 -950 1584 -1140 
Q 1353 -1331 966 -1331 
L 506 -1331 
L 506 -850 
L 844 -850 
Q 1081 -850 1212 -737 
Q 1344 -625 1503 -206 
L 1606 56 
L 191 3500 
L 800 3500 
L 1894 763 
L 2988 3500 
L 3597 3500 
L 2059 -325 
z
" transform="scale(0.015625)"/>
      </defs>
      <use xlink:href="#DejaVuSans-79"/>
      <use xlink:href="#DejaVuSans-28" x="59.179688"/>
      <use xlink:href="#DejaVuSans-6d" x="98.193359"/>
      <use xlink:href="#DejaVuSans-29" x="195.605469"/>
     </g>
    </g>
   </g>
   <g id="line2d_15">
    <path d="M 263.017645 127.623583 
L 263.017818 127.623602 
L 263.017798 127.6236 
L 263.0178 127.6236 
L 263.0178 127.6236 
L 263.017801 127.6236 
L 263.017811 127.623598 
L 263.017865 127.623589 
L 263.018122 127.623546 
L 263.019183 127.62337 
L 263.023005 127.622734 
L 263.035533 127.620651 
L 263.035533 127.620651 
" clip-path="url(#p0b5aa72cec)" style="fill: none; stroke-dasharray: 2,3.3; stroke-dashoffset: 0; stroke: #1f77b4; stroke-width: 2"/>
   </g>
   <g id="line2d_16">
    <path d="M 133.2882 127.6236 
L 133.2882 127.6236 
L 133.768676 127.621531 
L 138.573349 127.593776 
L 147.701648 127.493337 
L 160.673863 127.41217 
L 173.646739 127.459601 
L 186.619963 127.486284 
L 199.592908 127.523189 
L 212.567005 127.607597 
L 225.536461 127.5202 
L 238.341407 126.667687 
L 249.679077 126.428069 
L 257.640665 127.139288 
L 262.299995 127.540144 
L 263.112185 127.634279 
L 263.006673 127.622341 
L 263.019112 127.623748 
L 263.017645 127.623583 
" clip-path="url(#p0b5aa72cec)" style="fill: none; stroke: #1f77b4; stroke-width: 2; stroke-linecap: square"/>
   </g>
   <g id="line2d_17">
    <path d="M 241.412368 131.239806 
L 241.508212 131.208028 
L 241.529176 131.201072 
L 241.538625 131.197928 
L 241.543866 131.196171 
L 241.547157 131.195057 
L 241.549409 131.194292 
L 241.551067 131.193734 
L 241.552349 131.193304 
L 241.553364 131.192963 
L 241.554171 131.192688 
L 241.55483 131.192463 
L 241.55483 131.192463 
" clip-path="url(#p0b5aa72cec)" style="fill: none; stroke-dasharray: 2,3.3; stroke-dashoffset: 0; stroke: #ff7f0e; stroke-width: 2"/>
   </g>
   <g id="line2d_18">
    <path d="M 198.153 205.46136 
L 198.153 205.46136 
L 198.164648 204.981025 
L 198.417246 200.200816 
L 199.877385 191.454013 
L 201.48243 180.264573 
L 202.738317 169.560811 
L 204.917797 161.07713 
L 207.09932 154.814228 
L 209.379241 150.892168 
L 211.999015 147.096721 
L 218.032057 141.250712 
L 226.183594 137.004547 
L 232.872114 134.000627 
L 237.806064 132.265695 
L 240.06566 131.422425 
L 240.879042 131.192219 
L 241.162835 131.331402 
L 241.412368 131.239806 
" clip-path="url(#p0b5aa72cec)" style="fill: none; stroke: #ff7f0e; stroke-width: 2; stroke-linecap: square"/>
   </g>
   <g id="line2d_19">
    <path d="M 133.288232 95.190955 
L 133.28823 95.190948 
L 133.288228 95.190942 
L 133.288225 95.190939 
L 133.288222 95.190941 
L 133.288219 95.190947 
L 133.288217 95.190958 
L 133.288214 95.190972 
L 133.288211 95.190989 
L 133.288209 95.191005 
L 133.288208 95.191017 
L 133.288208 95.191023 
L 133.288208 95.191023 
" clip-path="url(#p0b5aa72cec)" style="fill: none; stroke-dasharray: 2,3.3; stroke-dashoffset: 0; stroke: #2ca02c; stroke-width: 2"/>
   </g>
   <g id="line2d_20">
    <path d="M 133.2882 95.1912 
L 133.2882 95.1912 
L 133.2882 95.1912 
L 133.288202 95.1912 
L 133.288204 95.191197 
L 133.288206 95.19119 
L 133.288211 95.191173 
L 133.288216 95.191155 
L 133.288222 95.191135 
L 133.288224 95.191111 
L 133.288228 95.191086 
L 133.28823 95.191064 
L 133.288232 95.191043 
L 133.288235 95.191023 
L 133.288236 95.191005 
L 133.288236 95.19099 
L 133.288235 95.190976 
L 133.288234 95.190965 
L 133.288232 95.190955 
" clip-path="url(#p0b5aa72cec)" style="fill: none; stroke: #2ca02c; stroke-width: 2; stroke-linecap: square"/>
   </g>
   <g id="line2d_21">
    <path d="M 165.720464 95.19116 
L 165.72051 95.191196 
L 165.720563 95.191234 
L 165.720617 95.19127 
L 165.720658 95.191295 
L 165.720687 95.191308 
L 165.720704 95.19131 
L 165.720711 95.191303 
L 165.72071 95.191288 
L 165.720702 95.191269 
L 165.720694 95.19125 
L 165.72069 95.191239 
L 165.72069 95.191239 
" clip-path="url(#p0b5aa72cec)" style="fill: none; stroke-dasharray: 2,3.3; stroke-dashoffset: 0; stroke: #d62728; stroke-width: 2"/>
   </g>
   <g id="line2d_22">
    <path d="M 165.7206 95.1912 
L 165.7206 95.1912 
L 165.720601 95.191194 
L 165.720603 95.19115 
L 165.720581 95.191153 
L 165.720541 95.191158 
L 165.720483 95.19116 
L 165.720422 95.191125 
L 165.720366 95.191081 
L 165.720311 95.191045 
L 165.720281 95.191024 
L 165.720264 95.191013 
L 165.720261 95.191012 
L 165.720272 95.191017 
L 165.720291 95.191024 
L 165.720326 95.19105 
L 165.720369 95.191085 
L 165.720416 95.191123 
L 165.720464 95.19116 
" clip-path="url(#p0b5aa72cec)" style="fill: none; stroke: #d62728; stroke-width: 2; stroke-linecap: square"/>
   </g>
   <g id="line2d_23">
    <path d="M 230.585723 95.190742 
L 230.585724 95.190679 
L 230.585748 95.190626 
L 230.585784 95.190617 
L 230.5858 95.190675 
L 230.585791 95.19077 
L 230.585755 95.190869 
L 230.585697 95.190956 
L 230.585627 95.191033 
L 230.585559 95.1911 
L 230.585508 95.191147 
L 230.585484 95.191168 
L 230.585484 95.191168 
" clip-path="url(#p0b5aa72cec)" style="fill: none; stroke-dasharray: 2,3.3; stroke-dashoffset: 0; stroke: #9467bd; stroke-width: 2"/>
   </g>
   <g id="line2d_24">
    <path d="M 230.5854 95.1912 
L 230.5854 95.1912 
L 230.5854 95.191198 
L 230.585399 95.191183 
L 230.585405 95.191174 
L 230.585427 95.191186 
L 230.585443 95.191202 
L 230.585457 95.191257 
L 230.585477 95.191298 
L 230.585509 95.191287 
L 230.585553 95.191222 
L 230.585594 95.19117 
L 230.58563 95.191129 
L 230.585659 95.191094 
L 230.585686 95.191036 
L 230.585704 95.190962 
L 230.585716 95.190885 
L 230.585722 95.190811 
L 230.585723 95.190742 
" clip-path="url(#p0b5aa72cec)" style="fill: none; stroke: #9467bd; stroke-width: 2; stroke-linecap: square"/>
   </g>
   <g id="line2d_25">
    <path d="M 263.017766 95.190969 
L 263.017765 95.190963 
L 263.017765 95.190959 
L 263.017765 95.19096 
L 263.017766 95.190965 
L 263.017768 95.190975 
L 263.01777 95.190989 
L 263.017773 95.191006 
L 263.017776 95.191026 
L 263.017779 95.191043 
L 263.017781 95.191056 
L 263.017782 95.191062 
L 263.017782 95.191062 
" clip-path="url(#p0b5aa72cec)" style="fill: none; stroke-dasharray: 2,3.3; stroke-dashoffset: 0; stroke: #8c564b; stroke-width: 2"/>
   </g>
   <g id="line2d_26">
    <path d="M 263.0178 95.1912 
L 263.0178 95.1912 
L 263.017801 95.1912 
L 263.017807 95.191203 
L 263.017812 95.191199 
L 263.017815 95.191193 
L 263.017817 95.191185 
L 263.017818 95.191173 
L 263.017819 95.191161 
L 263.017818 95.19115 
L 263.017817 95.191135 
L 263.017814 95.191106 
L 263.017803 95.191071 
L 263.017793 95.191044 
L 263.017784 95.191022 
L 263.017777 95.191004 
L 263.017772 95.190989 
L 263.017769 95.190978 
L 263.017766 95.190969 
" clip-path="url(#p0b5aa72cec)" style="fill: none; stroke: #8c564b; stroke-width: 2; stroke-linecap: square"/>
   </g>
   <g id="line2d_27">
    <path d="M 133.288251 160.056181 
L 133.288249 160.056191 
L 133.288246 160.056201 
L 133.288242 160.056208 
L 133.288238 160.056211 
L 133.288234 160.05621 
L 133.288229 160.056205 
L 133.288225 160.056196 
L 133.288221 160.056185 
L 133.288217 160.056173 
L 133.288215 160.056164 
L 133.288214 160.056159 
L 133.288214 160.056159 
" clip-path="url(#p0b5aa72cec)" style="fill: none; stroke-dasharray: 2,3.3; stroke-dashoffset: 0; stroke: #e377c2; stroke-width: 2"/>
   </g>
   <g id="line2d_28">
    <path d="M 133.2882 160.056 
L 133.2882 160.056 
L 133.2882 160.056 
L 133.288203 160.056 
L 133.288205 160.056004 
L 133.288208 160.056011 
L 133.28821 160.05602 
L 133.288212 160.056031 
L 133.288213 160.056043 
L 133.288215 160.056057 
L 133.288218 160.056072 
L 133.288228 160.056085 
L 133.288237 160.056099 
L 133.288244 160.056114 
L 133.288249 160.056128 
L 133.288252 160.056143 
L 133.288253 160.056156 
L 133.288253 160.056169 
L 133.288251 160.056181 
" clip-path="url(#p0b5aa72cec)" style="fill: none; stroke: #e377c2; stroke-width: 2; stroke-linecap: square"/>
   </g>
   <g id="line2d_29">
    <path d="M 165.72042 160.055758 
L 165.720454 160.055771 
L 165.720502 160.055777 
L 165.720556 160.055782 
L 165.720604 160.055794 
L 165.720642 160.055813 
L 165.720672 160.055839 
L 165.720692 160.055871 
L 165.720703 160.055908 
L 165.720706 160.055947 
L 165.720706 160.055983 
L 165.720705 160.056004 
L 165.720705 160.056004 
" clip-path="url(#p0b5aa72cec)" style="fill: none; stroke-dasharray: 2,3.3; stroke-dashoffset: 0; stroke: #7f7f7f; stroke-width: 2"/>
   </g>
   <g id="line2d_30">
    <path d="M 165.7206 160.056 
L 165.7206 160.056 
L 165.7206 160.055997 
L 165.720599 160.05597 
L 165.720579 160.055908 
L 165.72054 160.055856 
L 165.720503 160.055767 
L 165.72048 160.055656 
L 165.720446 160.055586 
L 165.720426 160.055548 
L 165.720405 160.055537 
L 165.720398 160.05555 
L 165.720388 160.055578 
L 165.720397 160.055602 
L 165.720396 160.055649 
L 165.720377 160.055687 
L 165.720378 160.055717 
L 165.720394 160.05574 
L 165.72042 160.055758 
" clip-path="url(#p0b5aa72cec)" style="fill: none; stroke: #7f7f7f; stroke-width: 2; stroke-linecap: square"/>
   </g>
   <g id="line2d_31">
    <path d="M 230.585606 160.056038 
L 230.585624 160.056036 
L 230.585652 160.056033 
L 230.585678 160.056028 
L 230.585684 160.056024 
L 230.585668 160.056018 
L 230.585635 160.056014 
L 230.58559 160.05601 
L 230.585541 160.056007 
L 230.585494 160.056005 
L 230.58546 160.056004 
L 230.585444 160.056003 
L 230.585444 160.056003 
" clip-path="url(#p0b5aa72cec)" style="fill: none; stroke-dasharray: 2,3.3; stroke-dashoffset: 0; stroke: #bcbd22; stroke-width: 2"/>
   </g>
   <g id="line2d_32">
    <path d="M 230.5854 160.056 
L 230.5854 160.056 
L 230.5854 160.056002 
L 230.585404 160.056019 
L 230.585426 160.055987 
L 230.585441 160.055965 
L 230.585453 160.055958 
L 230.585459 160.055962 
L 230.585459 160.055967 
L 230.585467 160.055979 
L 230.585475 160.055991 
L 230.58547 160.056002 
L 230.585459 160.056052 
L 230.585468 160.056053 
L 230.585489 160.056051 
L 230.58552 160.056047 
L 230.585555 160.056044 
L 230.585584 160.056041 
L 230.585606 160.056038 
" clip-path="url(#p0b5aa72cec)" style="fill: none; stroke: #bcbd22; stroke-width: 2; stroke-linecap: square"/>
   </g>
   <g id="line2d_33">
    <path d="M 263.017778 160.056214 
L 263.017779 160.05622 
L 263.01778 160.056224 
L 263.017782 160.056224 
L 263.017783 160.05622 
L 263.017784 160.056212 
L 263.017786 160.0562 
L 263.017788 160.056185 
L 263.017789 160.056168 
L 263.017791 160.056151 
L 263.017791 160.056139 
L 263.017792 160.056134 
L 263.017792 160.056134 
" clip-path="url(#p0b5aa72cec)" style="fill: none; stroke-dasharray: 2,3.3; stroke-dashoffset: 0; stroke: #17becf; stroke-width: 2"/>
   </g>
   <g id="line2d_34">
    <path d="M 263.0178 160.056 
L 263.0178 160.056 
L 263.0178 160.056 
L 263.0178 160.056 
L 263.0178 160.056006 
L 263.017801 160.056017 
L 263.017802 160.056031 
L 263.017798 160.056043 
L 263.017795 160.056057 
L 263.017792 160.056072 
L 263.017789 160.056089 
L 263.017785 160.056112 
L 263.017783 160.056135 
L 263.01778 160.056158 
L 263.017778 160.056174 
L 263.017777 160.056187 
L 263.017777 160.056198 
L 263.017777 160.056207 
L 263.017778 160.056214 
" clip-path="url(#p0b5aa72cec)" style="fill: none; stroke: #17becf; stroke-width: 2; stroke-linecap: square"/>
   </g>
   <g id="line2d_35">
    <path d="M 230.585802 62.758807 
L 230.585877 62.758828 
L 230.585983 62.758858 
L 230.586093 62.75889 
L 230.586155 62.758913 
L 230.586163 62.758926 
L 230.586119 62.758927 
L 230.586035 62.758919 
L 230.585922 62.758904 
L 230.585801 62.758885 
L 230.585702 62.758868 
L 230.585653 62.75886 
L 230.585653 62.75886 
" clip-path="url(#p0b5aa72cec)" style="fill: none; stroke-dasharray: 2,3.3; stroke-dashoffset: 0; stroke: #2f4f4f; stroke-width: 2"/>
   </g>
   <g id="line2d_36">
    <path d="M 230.5854 62.7588 
L 230.5854 62.7588 
L 230.5854 62.758798 
L 230.585398 62.758783 
L 230.585395 62.75877 
L 230.585392 62.758761 
L 230.585391 62.758756 
L 230.585392 62.758754 
L 230.585393 62.758755 
L 230.585397 62.758759 
L 230.585416 62.758765 
L 230.585444 62.758771 
L 230.585472 62.758776 
L 230.585495 62.75878 
L 230.585546 62.758771 
L 230.585621 62.758774 
L 230.585706 62.758784 
L 230.585744 62.758792 
L 230.585802 62.758807 
" clip-path="url(#p0b5aa72cec)" style="fill: none; stroke: #2f4f4f; stroke-width: 2; stroke-linecap: square"/>
   </g>
   <g id="line2d_37">
    <path d="M 230.585313 30.326633 
L 230.58532 30.326614 
L 230.585329 30.326596 
L 230.585338 30.326578 
L 230.585348 30.326559 
L 230.585358 30.326536 
L 230.585368 30.326512 
L 230.585378 30.326487 
L 230.585387 30.326463 
L 230.585394 30.326443 
L 230.585398 30.326429 
L 230.5854 30.326423 
L 230.5854 30.326423 
" clip-path="url(#p0b5aa72cec)" style="fill: none; stroke-dasharray: 2,3.3; stroke-dashoffset: 0; stroke: #cd5c5c; stroke-width: 2"/>
   </g>
   <g id="line2d_38">
    <path d="M 230.5854 30.3264 
L 230.5854 30.3264 
L 230.585397 30.326406 
L 230.585368 30.32646 
L 230.585347 30.326501 
L 230.585328 30.326531 
L 230.585311 30.326561 
L 230.585298 30.326587 
L 230.585288 30.326613 
L 230.585283 30.326639 
L 230.58528 30.326662 
L 230.58528 30.326679 
L 230.585281 30.32669 
L 230.585284 30.326694 
L 230.585289 30.326696 
L 230.585295 30.326687 
L 230.585301 30.326673 
L 230.585306 30.326653 
L 230.585313 30.326633 
" clip-path="url(#p0b5aa72cec)" style="fill: none; stroke: #cd5c5c; stroke-width: 2; stroke-linecap: square"/>
   </g>
   <g id="line2d_39">
    <path clip-path="url(#p0b5aa72cec)" style="fill: none; stroke-dasharray: 2,3.3; stroke-dashoffset: 0; stroke: #add8e6; stroke-width: 2"/>
   </g>
   <g id="line2d_40">
    <path clip-path="url(#p0b5aa72cec)" style="fill: none; stroke: #add8e6; stroke-width: 2; stroke-linecap: square"/>
   </g>
   <g id="line2d_41">
    <path d="M 230.585782 192.488448 
L 230.585872 192.488456 
L 230.585989 192.488459 
L 230.586111 192.488444 
L 230.586184 192.488411 
L 230.586198 192.488374 
L 230.586156 192.488351 
L 230.586067 192.488344 
L 230.585947 192.488349 
L 230.585817 192.488357 
L 230.585711 192.488364 
L 230.585659 192.488368 
L 230.585659 192.488368 
" clip-path="url(#p0b5aa72cec)" style="fill: none; stroke-dasharray: 2,3.3; stroke-dashoffset: 0; stroke: #663399; stroke-width: 2"/>
   </g>
   <g id="line2d_42">
    <path d="M 230.5854 192.4884 
L 230.5854 192.4884 
L 230.5854 192.488401 
L 230.585403 192.488407 
L 230.585406 192.488411 
L 230.585406 192.488417 
L 230.585392 192.488421 
L 230.585383 192.488425 
L 230.585389 192.488426 
L 230.585399 192.488429 
L 230.585436 192.488433 
L 230.585469 192.48843 
L 230.585487 192.488434 
L 230.585503 192.488436 
L 230.585517 192.488438 
L 230.585562 192.488431 
L 230.585625 192.488433 
L 230.585699 192.48844 
L 230.585782 192.488448 
" clip-path="url(#p0b5aa72cec)" style="fill: none; stroke: #663399; stroke-width: 2; stroke-linecap: square"/>
   </g>
   <g id="line2d_43">
    <path d="M 230.585324 224.92082 
L 230.58533 224.920802 
L 230.585337 224.920776 
L 230.585346 224.920746 
L 230.585355 224.920719 
L 230.585366 224.920697 
L 230.585376 224.920685 
L 230.585386 224.920682 
L 230.585394 224.92069 
L 230.585402 224.920704 
L 230.585407 224.920721 
L 230.585409 224.920731 
L 230.585409 224.920731 
" clip-path="url(#p0b5aa72cec)" style="fill: none; stroke-dasharray: 2,3.3; stroke-dashoffset: 0; stroke: #8fbc8f; stroke-width: 2"/>
   </g>
   <g id="line2d_44">
    <path d="M 230.5854 224.9208 
L 230.5854 224.9208 
L 230.585398 224.920803 
L 230.585385 224.920825 
L 230.585374 224.920843 
L 230.585366 224.920859 
L 230.58536 224.920873 
L 230.585355 224.920875 
L 230.58535 224.920871 
L 230.585345 224.920863 
L 230.585339 224.920855 
L 230.585333 224.920853 
L 230.585327 224.920853 
L 230.585323 224.920851 
L 230.585321 224.920846 
L 230.585319 224.920843 
L 230.58532 224.920837 
L 230.585321 224.920829 
L 230.585324 224.92082 
" clip-path="url(#p0b5aa72cec)" style="fill: none; stroke: #8fbc8f; stroke-width: 2; stroke-linecap: square"/>
   </g>
   <g id="line2d_45">
    <path clip-path="url(#p0b5aa72cec)" style="fill: none; stroke-dasharray: 2,3.3; stroke-dashoffset: 0; stroke: #00ced1; stroke-width: 2"/>
   </g>
   <g id="line2d_46">
    <path clip-path="url(#p0b5aa72cec)" style="fill: none; stroke: #00ced1; stroke-width: 2; stroke-linecap: square"/>
   </g>
   <g id="line2d_47">
    <path d="M 165.720566 62.758952 
L 165.720573 62.758979 
L 165.720582 62.759003 
L 165.720594 62.759018 
L 165.720603 62.759018 
L 165.72061 62.759002 
L 165.720616 62.758971 
L 165.720621 62.758929 
L 165.720626 62.758883 
L 165.720633 62.758842 
L 165.720641 62.758816 
L 165.720647 62.758808 
L 165.720647 62.758808 
" clip-path="url(#p0b5aa72cec)" style="fill: none; stroke-dasharray: 2,3.3; stroke-dashoffset: 0; stroke: #6a5acd; stroke-width: 2"/>
   </g>
   <g id="line2d_48">
    <path d="M 165.7206 62.7588 
L 165.7206 62.7588 
L 165.7206 62.758797 
L 165.720599 62.758767 
L 165.720603 62.758741 
L 165.720606 62.758721 
L 165.720609 62.758707 
L 165.720611 62.7587 
L 165.72061 62.758699 
L 165.720606 62.758707 
L 165.720599 62.758726 
L 165.72059 62.758749 
L 165.72058 62.758775 
L 165.720571 62.758803 
L 165.720562 62.758831 
L 165.720558 62.758862 
L 165.720558 62.758892 
L 165.720561 62.758923 
L 165.720566 62.758952 
" clip-path="url(#p0b5aa72cec)" style="fill: none; stroke: #6a5acd; stroke-width: 2; stroke-linecap: square"/>
   </g>
   <g id="line2d_49">
    <path d="M 165.720614 30.326535 
L 165.720614 30.326534 
L 165.720615 30.326528 
L 165.720615 30.326519 
L 165.720615 30.326505 
L 165.720614 30.326488 
L 165.720611 30.326467 
L 165.720608 30.326444 
L 165.720604 30.326421 
L 165.720601 30.326402 
L 165.720599 30.326389 
L 165.720598 30.326385 
L 165.720598 30.326385 
" clip-path="url(#p0b5aa72cec)" style="fill: none; stroke-dasharray: 2,3.3; stroke-dashoffset: 0; stroke: #808000; stroke-width: 2"/>
   </g>
   <g id="line2d_50">
    <path d="M 165.7206 30.3264 
L 165.7206 30.3264 
L 165.7206 30.326398 
L 165.720603 30.326374 
L 165.720607 30.326333 
L 165.720608 30.326303 
L 165.720608 30.326285 
L 165.720609 30.326278 
L 165.720611 30.326286 
L 165.720616 30.326304 
L 165.720622 30.32633 
L 165.720624 30.32636 
L 165.720622 30.326408 
L 165.720619 30.326449 
L 165.720616 30.326482 
L 165.720615 30.326507 
L 165.720614 30.326522 
L 165.720613 30.326532 
L 165.720614 30.326535 
" clip-path="url(#p0b5aa72cec)" style="fill: none; stroke: #808000; stroke-width: 2; stroke-linecap: square"/>
   </g>
   <g id="line2d_51">
    <path clip-path="url(#p0b5aa72cec)" style="fill: none; stroke-dasharray: 2,3.3; stroke-dashoffset: 0; stroke: #a0522d; stroke-width: 2"/>
   </g>
   <g id="line2d_52">
    <path clip-path="url(#p0b5aa72cec)" style="fill: none; stroke: #a0522d; stroke-width: 2; stroke-linecap: square"/>
   </g>
   <g id="line2d_53">
    <path d="M 165.72052 192.488489 
L 165.720539 192.488451 
L 165.720558 192.488413 
L 165.720576 192.48838 
L 165.720592 192.488355 
L 165.720604 192.488341 
L 165.720613 192.488336 
L 165.720619 192.488341 
L 165.720622 192.488353 
L 165.720624 192.488367 
L 165.720624 192.488378 
L 165.720623 192.488383 
L 165.720623 192.488383 
" clip-path="url(#p0b5aa72cec)" style="fill: none; stroke-dasharray: 2,3.3; stroke-dashoffset: 0; stroke: #ff4500; stroke-width: 2"/>
   </g>
   <g id="line2d_54">
    <path d="M 165.7206 192.4884 
L 165.7206 192.4884 
L 165.720601 192.488405 
L 165.720611 192.488452 
L 165.720617 192.488491 
L 165.720591 192.488535 
L 165.720574 192.488568 
L 165.720557 192.488592 
L 165.720554 192.48862 
L 165.720547 192.488655 
L 165.720505 192.488686 
L 165.72045 192.488683 
L 165.720421 192.488672 
L 165.720425 192.488655 
L 165.72044 192.488631 
L 165.720459 192.488601 
L 165.720479 192.488566 
L 165.7205 192.488528 
L 165.72052 192.488489 
" clip-path="url(#p0b5aa72cec)" style="fill: none; stroke: #ff4500; stroke-width: 2; stroke-linecap: square"/>
   </g>
   <g id="line2d_55">
    <path d="M 165.720676 224.920642 
L 165.720671 224.920639 
L 165.720666 224.920638 
L 165.72066 224.920639 
L 165.720652 224.920646 
L 165.720644 224.920658 
L 165.720635 224.920676 
L 165.720625 224.920699 
L 165.720615 224.920723 
L 165.720608 224.920745 
L 165.720603 224.92076 
L 165.720601 224.920766 
L 165.720601 224.920766 
" clip-path="url(#p0b5aa72cec)" style="fill: none; stroke-dasharray: 2,3.3; stroke-dashoffset: 0; stroke: #708090; stroke-width: 2"/>
   </g>
   <g id="line2d_56">
    <path d="M 165.7206 224.9208 
L 165.7206 224.9208 
L 165.720602 224.920799 
L 165.720621 224.92079 
L 165.720636 224.920783 
L 165.720647 224.920788 
L 165.720655 224.920803 
L 165.720661 224.920807 
L 165.720666 224.920806 
L 165.720669 224.920799 
L 165.720672 224.920786 
L 165.720674 224.920768 
L 165.720677 224.920745 
L 165.72068 224.92072 
L 165.72068 224.920698 
L 165.720682 224.920675 
L 165.720682 224.920658 
L 165.720679 224.920647 
L 165.720676 224.920642 
" clip-path="url(#p0b5aa72cec)" style="fill: none; stroke: #708090; stroke-width: 2; stroke-linecap: square"/>
   </g>
   <g id="line2d_57">
    <path clip-path="url(#p0b5aa72cec)" style="fill: none; stroke-dasharray: 2,3.3; stroke-dashoffset: 0; stroke: #bdb76b; stroke-width: 2"/>
   </g>
   <g id="line2d_58">
    <path clip-path="url(#p0b5aa72cec)" style="fill: none; stroke: #bdb76b; stroke-width: 2; stroke-linecap: square"/>
   </g>
   <g id="patch_3">
    <path d="M 100.8558 224.9208 
L 100.8558 30.3264 
" style="fill: none; stroke: #000000; stroke-width: 0.8; stroke-linejoin: miter; stroke-linecap: square"/>
   </g>
   <g id="patch_4">
    <path d="M 295.4502 224.9208 
L 295.4502 30.3264 
" style="fill: none; stroke: #000000; stroke-width: 0.8; stroke-linejoin: miter; stroke-linecap: square"/>
   </g>
   <g id="patch_5">
    <path d="M 100.8558 224.9208 
L 295.4502 224.9208 
" style="fill: none; stroke: #000000; stroke-width: 0.8; stroke-linejoin: miter; stroke-linecap: square"/>
   </g>
   <g id="patch_6">
    <path d="M 100.8558 30.3264 
L 295.4502 30.3264 
" style="fill: none; stroke: #000000; stroke-width: 0.8; stroke-linejoin: miter; stroke-linecap: square"/>
   </g>
   <g id="patch_7">
    <path d="M 263.017645 137.353303 
C 265.597997 137.353303 268.073011 136.328118 269.897596 134.503534 
C 271.72218 132.678949 272.747365 130.203935 272.747365 127.623583 
C 272.747365 125.043231 271.72218 122.568216 269.897596 120.743632 
C 268.073011 118.919047 265.597997 117.893863 263.017645 117.893863 
C 260.437293 117.893863 257.962278 118.919047 256.137694 120.743632 
C 254.313109 122.568216 253.287925 125.043231 253.287925 127.623583 
C 253.287925 130.203935 254.313109 132.678949 256.137694 134.503534 
C 257.962278 136.328118 260.437293 137.353303 263.017645 137.353303 
z
" clip-path="url(#p0b5aa72cec)" style="fill: #1f77b4; stroke: #000000; stroke-linejoin: miter"/>
   </g>
   <g id="patch_8">
    <path d="M 241.412368 140.969526 
C 243.992719 140.969526 246.467734 139.944341 248.292319 138.119757 
C 250.116903 136.295172 251.142088 133.820158 251.142088 131.239806 
C 251.142088 128.659454 250.116903 126.184439 248.292319 124.359855 
C 246.467734 122.535271 243.992719 121.510086 241.412368 121.510086 
C 238.832016 121.510086 236.357001 122.535271 234.532417 124.359855 
C 232.707832 126.184439 231.682648 128.659454 231.682648 131.239806 
C 231.682648 133.820158 232.707832 136.295172 234.532417 138.119757 
C 236.357001 139.944341 238.832016 140.969526 241.412368 140.969526 
z
" clip-path="url(#p0b5aa72cec)" style="fill: #ff7f0e; stroke: #000000; stroke-linejoin: miter"/>
   </g>
   <g id="patch_9">
    <path d="M 133.288232 104.920675 
C 135.868584 104.920675 138.343599 103.895491 140.168183 102.070906 
C 141.992767 100.246322 143.017952 97.771307 143.017952 95.190955 
C 143.017952 92.610603 141.992767 90.135589 140.168183 88.311004 
C 138.343599 86.48642 135.868584 85.461235 133.288232 85.461235 
C 130.70788 85.461235 128.232865 86.48642 126.408281 88.311004 
C 124.583697 90.135589 123.558512 92.610603 123.558512 95.190955 
C 123.558512 97.771307 124.583697 100.246322 126.408281 102.070906 
C 128.232865 103.895491 130.70788 104.920675 133.288232 104.920675 
z
" clip-path="url(#p0b5aa72cec)" style="fill: #2ca02c; stroke: #000000; stroke-linejoin: miter"/>
   </g>
   <g id="patch_10">
    <path d="M 165.720464 104.92088 
C 168.300815 104.92088 170.77583 103.895695 172.600415 102.071111 
C 174.424999 100.246527 175.450184 97.771512 175.450184 95.19116 
C 175.450184 92.610808 174.424999 90.135793 172.600415 88.311209 
C 170.77583 86.486625 168.300815 85.46144 165.720464 85.46144 
C 163.140112 85.46144 160.665097 86.486625 158.840513 88.311209 
C 157.015928 90.135793 155.990744 92.610808 155.990744 95.19116 
C 155.990744 97.771512 157.015928 100.246527 158.840513 102.071111 
C 160.665097 103.895695 163.140112 104.92088 165.720464 104.92088 
z
" clip-path="url(#p0b5aa72cec)" style="fill: #d62728; stroke: #000000; stroke-linejoin: miter"/>
   </g>
   <g id="patch_11">
    <path d="M 230.585723 104.920462 
C 233.166075 104.920462 235.64109 103.895278 237.465674 102.070693 
C 239.290259 100.246109 240.315443 97.771094 240.315443 95.190742 
C 240.315443 92.61039 239.290259 90.135376 237.465674 88.310791 
C 235.64109 86.486207 233.166075 85.461022 230.585723 85.461022 
C 228.005371 85.461022 225.530357 86.486207 223.705772 88.310791 
C 221.881188 90.135376 220.856003 92.61039 220.856003 95.190742 
C 220.856003 97.771094 221.881188 100.246109 223.705772 102.070693 
C 225.530357 103.895278 228.005371 104.920462 230.585723 104.920462 
z
" clip-path="url(#p0b5aa72cec)" style="fill: #9467bd; stroke: #000000; stroke-linejoin: miter"/>
   </g>
   <g id="patch_12">
    <path d="M 263.017766 104.920689 
C 265.598118 104.920689 268.073133 103.895504 269.897717 102.07092 
C 271.722302 100.246336 272.747486 97.771321 272.747486 95.190969 
C 272.747486 92.610617 271.722302 90.135602 269.897717 88.311018 
C 268.073133 86.486434 265.598118 85.461249 263.017766 85.461249 
C 260.437414 85.461249 257.9624 86.486434 256.137815 88.311018 
C 254.313231 90.135602 253.288046 92.610617 253.288046 95.190969 
C 253.288046 97.771321 254.313231 100.246336 256.137815 102.07092 
C 257.9624 103.895504 260.437414 104.920689 263.017766 104.920689 
z
" clip-path="url(#p0b5aa72cec)" style="fill: #8c564b; stroke: #000000; stroke-linejoin: miter"/>
   </g>
   <g id="patch_13">
    <path d="M 133.288251 169.785901 
C 135.868603 169.785901 138.343618 168.760716 140.168202 166.936132 
C 141.992787 165.111547 143.017971 162.636533 143.017971 160.056181 
C 143.017971 157.475829 141.992787 155.000814 140.168202 153.17623 
C 138.343618 151.351645 135.868603 150.326461 133.288251 150.326461 
C 130.707899 150.326461 128.232885 151.351645 126.4083 153.17623 
C 124.583716 155.000814 123.558531 157.475829 123.558531 160.056181 
C 123.558531 162.636533 124.583716 165.111547 126.4083 166.936132 
C 128.232885 168.760716 130.707899 169.785901 133.288251 169.785901 
z
" clip-path="url(#p0b5aa72cec)" style="fill: #e377c2; stroke: #000000; stroke-linejoin: miter"/>
   </g>
   <g id="patch_14">
    <path d="M 165.72042 169.785478 
C 168.300772 169.785478 170.775787 168.760293 172.600371 166.935709 
C 174.424956 165.111124 175.45014 162.63611 175.45014 160.055758 
C 175.45014 157.475406 174.424956 155.000391 172.600371 153.175807 
C 170.775787 151.351222 168.300772 150.326038 165.72042 150.326038 
C 163.140068 150.326038 160.665054 151.351222 158.840469 153.175807 
C 157.015885 155.000391 155.9907 157.475406 155.9907 160.055758 
C 155.9907 162.63611 157.015885 165.111124 158.840469 166.935709 
C 160.665054 168.760293 163.140068 169.785478 165.72042 169.785478 
z
" clip-path="url(#p0b5aa72cec)" style="fill: #7f7f7f; stroke: #000000; stroke-linejoin: miter"/>
   </g>
   <g id="patch_15">
    <path d="M 230.585606 169.785758 
C 233.165958 169.785758 235.640973 168.760574 237.465557 166.935989 
C 239.290141 165.111405 240.315326 162.63639 240.315326 160.056038 
C 240.315326 157.475686 239.290141 155.000672 237.465557 153.176087 
C 235.640973 151.351503 233.165958 150.326318 230.585606 150.326318 
C 228.005254 150.326318 225.530239 151.351503 223.705655 153.176087 
C 221.881071 155.000672 220.855886 157.475686 220.855886 160.056038 
C 220.855886 162.63639 221.881071 165.111405 223.705655 166.935989 
C 225.530239 168.760574 228.005254 169.785758 230.585606 169.785758 
z
" clip-path="url(#p0b5aa72cec)" style="fill: #bcbd22; stroke: #000000; stroke-linejoin: miter"/>
   </g>
   <g id="patch_16">
    <path d="M 263.017778 169.785934 
C 265.59813 169.785934 268.073145 168.76075 269.897729 166.936165 
C 271.722313 165.111581 272.747498 162.636566 272.747498 160.056214 
C 272.747498 157.475862 271.722313 155.000848 269.897729 153.176263 
C 268.073145 151.351679 265.59813 150.326494 263.017778 150.326494 
C 260.437426 150.326494 257.962411 151.351679 256.137827 153.176263 
C 254.313243 155.000848 253.288058 157.475862 253.288058 160.056214 
C 253.288058 162.636566 254.313243 165.111581 256.137827 166.936165 
C 257.962411 168.76075 260.437426 169.785934 263.017778 169.785934 
z
" clip-path="url(#p0b5aa72cec)" style="fill: #17becf; stroke: #000000; stroke-linejoin: miter"/>
   </g>
   <g id="patch_17">
    <path d="M 230.585802 72.488527 
C 233.166154 72.488527 235.641169 71.463342 237.465753 69.638758 
C 239.290337 67.814174 240.315522 65.339159 240.315522 62.758807 
C 240.315522 60.178455 239.290337 57.70344 237.465753 55.878856 
C 235.641169 54.054272 233.166154 53.029087 230.585802 53.029087 
C 228.00545 53.029087 225.530435 54.054272 223.705851 55.878856 
C 221.881267 57.70344 220.856082 60.178455 220.856082 62.758807 
C 220.856082 65.339159 221.881267 67.814174 223.705851 69.638758 
C 225.530435 71.463342 228.00545 72.488527 230.585802 72.488527 
z
" clip-path="url(#p0b5aa72cec)" style="fill: #2f4f4f; stroke: #000000; stroke-linejoin: miter"/>
   </g>
   <g id="patch_18">
    <path d="M 230.585313 40.056353 
C 233.165665 40.056353 235.640679 39.031168 237.465264 37.206584 
C 239.289848 35.382 240.315033 32.906985 240.315033 30.326633 
C 240.315033 27.746281 239.289848 25.271266 237.465264 23.446682 
C 235.640679 21.622098 233.165665 20.596913 230.585313 20.596913 
C 228.004961 20.596913 225.529946 21.622098 223.705362 23.446682 
C 221.880777 25.271266 220.855593 27.746281 220.855593 30.326633 
C 220.855593 32.906985 221.880777 35.382 223.705362 37.206584 
C 225.529946 39.031168 228.004961 40.056353 230.585313 40.056353 
z
" clip-path="url(#p0b5aa72cec)" style="fill: #cd5c5c; stroke: #000000; stroke-linejoin: miter"/>
   </g>
   <g id="patch_19">
    <path d="M 230.585924 7.623665 
C 233.166276 7.623665 235.641291 6.59848 237.465875 4.773896 
C 239.29046 2.949312 240.315644 0.474297 240.315644 -2.106055 
C 240.315644 -4.686407 239.29046 -7.161422 237.465875 -8.986006 
C 235.641291 -10.81059 233.166276 -11.835775 230.585924 -11.835775 
C 228.005572 -11.835775 225.530558 -10.81059 223.705973 -8.986006 
C 221.881389 -7.161422 220.856204 -4.686407 220.856204 -2.106055 
C 220.856204 0.474297 221.881389 2.949312 223.705973 4.773896 
C 225.530558 6.59848 228.005572 7.623665 230.585924 7.623665 
z
" clip-path="url(#p0b5aa72cec)" style="fill: #add8e6; stroke: #000000; stroke-linejoin: miter"/>
   </g>
   <g id="patch_20">
    <path d="M 230.585782 202.218168 
C 233.166134 202.218168 235.641149 201.192984 237.465733 199.368399 
C 239.290318 197.543815 240.315502 195.0688 240.315502 192.488448 
C 240.315502 189.908096 239.290318 187.433082 237.465733 185.608497 
C 235.641149 183.783913 233.166134 182.758728 230.585782 182.758728 
C 228.00543 182.758728 225.530416 183.783913 223.705831 185.608497 
C 221.881247 187.433082 220.856062 189.908096 220.856062 192.488448 
C 220.856062 195.0688 221.881247 197.543815 223.705831 199.368399 
C 225.530416 201.192984 228.00543 202.218168 230.585782 202.218168 
z
" clip-path="url(#p0b5aa72cec)" style="fill: #663399; stroke: #000000; stroke-linejoin: miter"/>
   </g>
   <g id="patch_21">
    <path d="M 230.585324 234.65054 
C 233.165676 234.65054 235.640691 233.625356 237.465275 231.800771 
C 239.28986 229.976187 240.315044 227.501172 240.315044 224.92082 
C 240.315044 222.340468 239.28986 219.865454 237.465275 218.040869 
C 235.640691 216.216285 233.165676 215.1911 230.585324 215.1911 
C 228.004972 215.1911 225.529958 216.216285 223.705373 218.040869 
C 221.880789 219.865454 220.855604 222.340468 220.855604 224.92082 
C 220.855604 227.501172 221.880789 229.976187 223.705373 231.800771 
C 225.529958 233.625356 228.004972 234.65054 230.585324 234.65054 
z
" clip-path="url(#p0b5aa72cec)" style="fill: #8fbc8f; stroke: #000000; stroke-linejoin: miter"/>
   </g>
   <g id="patch_22">
    <path d="M 230.586231 267.082912 
C 233.166583 267.082912 235.641598 266.057727 237.466182 264.233143 
C 239.290767 262.408558 240.315951 259.933544 240.315951 257.353192 
C 240.315951 254.77284 239.290767 252.297825 237.466182 250.473241 
C 235.641598 248.648656 233.166583 247.623472 230.586231 247.623472 
C 228.005879 247.623472 225.530865 248.648656 223.70628 250.473241 
C 221.881696 252.297825 220.856511 254.77284 220.856511 257.353192 
C 220.856511 259.933544 221.881696 262.408558 223.70628 264.233143 
C 225.530865 266.057727 228.005879 267.082912 230.586231 267.082912 
z
" clip-path="url(#p0b5aa72cec)" style="fill: #00ced1; stroke: #000000; stroke-linejoin: miter"/>
   </g>
   <g id="patch_23">
    <path d="M 165.720566 72.488672 
C 168.300918 72.488672 170.775932 71.463487 172.600517 69.638903 
C 174.425101 67.814318 175.450286 65.339304 175.450286 62.758952 
C 175.450286 60.1786 174.425101 57.703585 172.600517 55.879001 
C 170.775932 54.054416 168.300918 53.029232 165.720566 53.029232 
C 163.140214 53.029232 160.665199 54.054416 158.840615 55.879001 
C 157.016031 57.703585 155.990846 60.1786 155.990846 62.758952 
C 155.990846 65.339304 157.016031 67.814318 158.840615 69.638903 
C 160.665199 71.463487 163.140214 72.488672 165.720566 72.488672 
z
" clip-path="url(#p0b5aa72cec)" style="fill: #6a5acd; stroke: #000000; stroke-linejoin: miter"/>
   </g>
   <g id="patch_24">
    <path d="M 165.720614 40.056255 
C 168.300966 40.056255 170.77598 39.03107 172.600565 37.206486 
C 174.425149 35.381902 175.450334 32.906887 175.450334 30.326535 
C 175.450334 27.746183 174.425149 25.271168 172.600565 23.446584 
C 170.77598 21.622 168.300966 20.596815 165.720614 20.596815 
C 163.140262 20.596815 160.665247 21.622 158.840663 23.446584 
C 157.016078 25.271168 155.990894 27.746183 155.990894 30.326535 
C 155.990894 32.906887 157.016078 35.381902 158.840663 37.206486 
C 160.665247 39.03107 163.140262 40.056255 165.720614 40.056255 
z
" clip-path="url(#p0b5aa72cec)" style="fill: #808000; stroke: #000000; stroke-linejoin: miter"/>
   </g>
   <g id="patch_25">
    <path d="M 165.720576 7.623722 
C 168.300928 7.623722 170.775943 6.598537 172.600527 4.773953 
C 174.425112 2.949369 175.450296 0.474354 175.450296 -2.105998 
C 175.450296 -4.68635 174.425112 -7.161365 172.600527 -8.985949 
C 170.775943 -10.810533 168.300928 -11.835718 165.720576 -11.835718 
C 163.140224 -11.835718 160.66521 -10.810533 158.840625 -8.985949 
C 157.016041 -7.161365 155.990856 -4.68635 155.990856 -2.105998 
C 155.990856 0.474354 157.016041 2.949369 158.840625 4.773953 
C 160.66521 6.598537 163.140224 7.623722 165.720576 7.623722 
z
" clip-path="url(#p0b5aa72cec)" style="fill: #a0522d; stroke: #000000; stroke-linejoin: miter"/>
   </g>
   <g id="patch_26">
    <path d="M 165.72052 202.218209 
C 168.300872 202.218209 170.775887 201.193025 172.600471 199.36844 
C 174.425055 197.543856 175.45024 195.068841 175.45024 192.488489 
C 175.45024 189.908138 174.425055 187.433123 172.600471 185.608538 
C 170.775887 183.783954 168.300872 182.758769 165.72052 182.758769 
C 163.140168 182.758769 160.665153 183.783954 158.840569 185.608538 
C 157.015985 187.433123 155.9908 189.908138 155.9908 192.488489 
C 155.9908 195.068841 157.015985 197.543856 158.840569 199.36844 
C 160.665153 201.193025 163.140168 202.218209 165.72052 202.218209 
z
" clip-path="url(#p0b5aa72cec)" style="fill: #ff4500; stroke: #000000; stroke-linejoin: miter"/>
   </g>
   <g id="patch_27">
    <path d="M 165.720676 234.650362 
C 168.301028 234.650362 170.776042 233.625177 172.600627 231.800593 
C 174.425211 229.976008 175.450396 227.500994 175.450396 224.920642 
C 175.450396 222.34029 174.425211 219.865275 172.600627 218.040691 
C 170.776042 216.216106 168.301028 215.190922 165.720676 215.190922 
C 163.140324 215.190922 160.665309 216.216106 158.840725 218.040691 
C 157.016141 219.865275 155.990956 222.34029 155.990956 224.920642 
C 155.990956 227.500994 157.016141 229.976008 158.840725 231.800593 
C 160.665309 233.625177 163.140324 234.650362 165.720676 234.650362 
z
" clip-path="url(#p0b5aa72cec)" style="fill: #708090; stroke: #000000; stroke-linejoin: miter"/>
   </g>
   <g id="patch_28">
    <path d="M 165.720132 267.082915 
C 168.300484 267.082915 170.775498 266.057731 172.600083 264.233146 
C 174.424667 262.408562 175.449852 259.933547 175.449852 257.353195 
C 175.449852 254.772843 174.424667 252.297829 172.600083 250.473244 
C 170.775498 248.64866 168.300484 247.623475 165.720132 247.623475 
C 163.13978 247.623475 160.664765 248.64866 158.840181 250.473244 
C 157.015596 252.297829 155.990412 254.772843 155.990412 257.353195 
C 155.990412 259.933547 157.015596 262.408562 158.840181 264.233146 
C 160.664765 266.057731 163.13978 267.082915 165.720132 267.082915 
z
" clip-path="url(#p0b5aa72cec)" style="fill: #bdb76b; stroke: #000000; stroke-linejoin: miter"/>
   </g>
   <g id="line2d_59">
    <path d="M 263.0178 127.6236 
" clip-path="url(#p0b5aa72cec)" style="fill: none; stroke: #1f77b4; stroke-width: 1.5; stroke-linecap: square"/>
    <defs>
     <path id="m534567af63" d="M 0 4.949747 
L 2.969848 0 
L 0 -4.949747 
L -2.969848 0 
z
" style="stroke: #000000; stroke-linejoin: miter"/>
    </defs>
    <g clip-path="url(#p0b5aa72cec)">
     <use xlink:href="#m534567af63" x="263.0178" y="127.6236" style="fill: #1f77b4; stroke: #000000; stroke-linejoin: miter"/>
    </g>
   </g>
   <g id="line2d_60">
    <path d="M 263.0178 127.6236 
" clip-path="url(#p0b5aa72cec)" style="fill: none; stroke: #ff7f0e; stroke-width: 1.5; stroke-linecap: square"/>
    <defs>
     <path id="m9807ba4f58" d="M 0 4.949747 
L 2.969848 0 
L 0 -4.949747 
L -2.969848 0 
z
" style="stroke: #000000; stroke-linejoin: miter"/>
    </defs>
    <g clip-path="url(#p0b5aa72cec)">
     <use xlink:href="#m9807ba4f58" x="263.0178" y="127.6236" style="fill: #ff7f0e; stroke: #000000; stroke-linejoin: miter"/>
    </g>
   </g>
   <g id="line2d_61">
    <path d="M 133.2882 95.1912 
" clip-path="url(#p0b5aa72cec)" style="fill: none; stroke: #2ca02c; stroke-width: 1.5; stroke-linecap: square"/>
    <defs>
     <path id="m4c9696a7cf" d="M 0 4.949747 
L 2.969848 0 
L 0 -4.949747 
L -2.969848 0 
z
" style="stroke: #000000; stroke-linejoin: miter"/>
    </defs>
    <g clip-path="url(#p0b5aa72cec)">
     <use xlink:href="#m4c9696a7cf" x="133.2882" y="95.1912" style="fill: #2ca02c; stroke: #000000; stroke-linejoin: miter"/>
    </g>
   </g>
   <g id="line2d_62">
    <path d="M 165.7206 95.1912 
" clip-path="url(#p0b5aa72cec)" style="fill: none; stroke: #d62728; stroke-width: 1.5; stroke-linecap: square"/>
    <defs>
     <path id="m8c99087e28" d="M 0 4.949747 
L 2.969848 0 
L 0 -4.949747 
L -2.969848 0 
z
" style="stroke: #000000; stroke-linejoin: miter"/>
    </defs>
    <g clip-path="url(#p0b5aa72cec)">
     <use xlink:href="#m8c99087e28" x="165.7206" y="95.1912" style="fill: #d62728; stroke: #000000; stroke-linejoin: miter"/>
    </g>
   </g>
   <g id="line2d_63">
    <path d="M 230.5854 95.1912 
" clip-path="url(#p0b5aa72cec)" style="fill: none; stroke: #9467bd; stroke-width: 1.5; stroke-linecap: square"/>
    <defs>
     <path id="maf82ce1c04" d="M 0 4.949747 
L 2.969848 0 
L 0 -4.949747 
L -2.969848 0 
z
" style="stroke: #000000; stroke-linejoin: miter"/>
    </defs>
    <g clip-path="url(#p0b5aa72cec)">
     <use xlink:href="#maf82ce1c04" x="230.5854" y="95.1912" style="fill: #9467bd; stroke: #000000; stroke-linejoin: miter"/>
    </g>
   </g>
   <g id="line2d_64">
    <path d="M 263.0178 95.1912 
" clip-path="url(#p0b5aa72cec)" style="fill: none; stroke: #8c564b; stroke-width: 1.5; stroke-linecap: square"/>
    <defs>
     <path id="m718621ab57" d="M 0 4.949747 
L 2.969848 0 
L 0 -4.949747 
L -2.969848 0 
z
" style="stroke: #000000; stroke-linejoin: miter"/>
    </defs>
    <g clip-path="url(#p0b5aa72cec)">
     <use xlink:href="#m718621ab57" x="263.0178" y="95.1912" style="fill: #8c564b; stroke: #000000; stroke-linejoin: miter"/>
    </g>
   </g>
   <g id="line2d_65">
    <path d="M 133.2882 160.056 
" clip-path="url(#p0b5aa72cec)" style="fill: none; stroke: #e377c2; stroke-width: 1.5; stroke-linecap: square"/>
    <defs>
     <path id="meae3eaadab" d="M 0 4.949747 
L 2.969848 0 
L 0 -4.949747 
L -2.969848 0 
z
" style="stroke: #000000; stroke-linejoin: miter"/>
    </defs>
    <g clip-path="url(#p0b5aa72cec)">
     <use xlink:href="#meae3eaadab" x="133.2882" y="160.056" style="fill: #e377c2; stroke: #000000; stroke-linejoin: miter"/>
    </g>
   </g>
   <g id="line2d_66">
    <path d="M 165.7206 160.056 
" clip-path="url(#p0b5aa72cec)" style="fill: none; stroke: #7f7f7f; stroke-width: 1.5; stroke-linecap: square"/>
    <defs>
     <path id="m3e7622abbf" d="M 0 4.949747 
L 2.969848 0 
L 0 -4.949747 
L -2.969848 0 
z
" style="stroke: #000000; stroke-linejoin: miter"/>
    </defs>
    <g clip-path="url(#p0b5aa72cec)">
     <use xlink:href="#m3e7622abbf" x="165.7206" y="160.056" style="fill: #7f7f7f; stroke: #000000; stroke-linejoin: miter"/>
    </g>
   </g>
   <g id="line2d_67">
    <path d="M 230.5854 160.056 
" clip-path="url(#p0b5aa72cec)" style="fill: none; stroke: #bcbd22; stroke-width: 1.5; stroke-linecap: square"/>
    <defs>
     <path id="m627604c1c6" d="M 0 4.949747 
L 2.969848 0 
L 0 -4.949747 
L -2.969848 0 
z
" style="stroke: #000000; stroke-linejoin: miter"/>
    </defs>
    <g clip-path="url(#p0b5aa72cec)">
     <use xlink:href="#m627604c1c6" x="230.5854" y="160.056" style="fill: #bcbd22; stroke: #000000; stroke-linejoin: miter"/>
    </g>
   </g>
   <g id="line2d_68">
    <path d="M 263.0178 160.056 
" clip-path="url(#p0b5aa72cec)" style="fill: none; stroke: #17becf; stroke-width: 1.5; stroke-linecap: square"/>
    <defs>
     <path id="m33355c9f69" d="M 0 4.949747 
L 2.969848 0 
L 0 -4.949747 
L -2.969848 0 
z
" style="stroke: #000000; stroke-linejoin: miter"/>
    </defs>
    <g clip-path="url(#p0b5aa72cec)">
     <use xlink:href="#m33355c9f69" x="263.0178" y="160.056" style="fill: #17becf; stroke: #000000; stroke-linejoin: miter"/>
    </g>
   </g>
   <g id="line2d_69">
    <path d="M 230.5854 62.7588 
" clip-path="url(#p0b5aa72cec)" style="fill: none; stroke: #2f4f4f; stroke-width: 1.5; stroke-linecap: square"/>
    <defs>
     <path id="m38ad03a884" d="M 0 4.949747 
L 2.969848 0 
L 0 -4.949747 
L -2.969848 0 
z
" style="stroke: #000000; stroke-linejoin: miter"/>
    </defs>
    <g clip-path="url(#p0b5aa72cec)">
     <use xlink:href="#m38ad03a884" x="230.5854" y="62.7588" style="fill: #2f4f4f; stroke: #000000; stroke-linejoin: miter"/>
    </g>
   </g>
   <g id="line2d_70">
    <path d="M 230.5854 30.3264 
" clip-path="url(#p0b5aa72cec)" style="fill: none; stroke: #cd5c5c; stroke-width: 1.5; stroke-linecap: square"/>
    <defs>
     <path id="m14f1f8d51f" d="M 0 4.949747 
L 2.969848 0 
L 0 -4.949747 
L -2.969848 0 
z
" style="stroke: #000000; stroke-linejoin: miter"/>
    </defs>
    <g clip-path="url(#p0b5aa72cec)">
     <use xlink:href="#m14f1f8d51f" x="230.5854" y="30.3264" style="fill: #cd5c5c; stroke: #000000; stroke-linejoin: miter"/>
    </g>
   </g>
   <g id="line2d_71">
    <path clip-path="url(#p0b5aa72cec)" style="fill: none; stroke: #add8e6; stroke-width: 1.5; stroke-linecap: square"/>
    <defs>
     <path id="m6670758a20" d="M 0 4.949747 
L 2.969848 0 
L 0 -4.949747 
L -2.969848 0 
z
" style="stroke: #000000; stroke-linejoin: miter"/>
    </defs>
    <g clip-path="url(#p0b5aa72cec)"/>
   </g>
   <g id="line2d_72">
    <path d="M 230.5854 192.4884 
" clip-path="url(#p0b5aa72cec)" style="fill: none; stroke: #663399; stroke-width: 1.5; stroke-linecap: square"/>
    <defs>
     <path id="mb9dff5c0ee" d="M 0 4.949747 
L 2.969848 0 
L 0 -4.949747 
L -2.969848 0 
z
" style="stroke: #000000; stroke-linejoin: miter"/>
    </defs>
    <g clip-path="url(#p0b5aa72cec)">
     <use xlink:href="#mb9dff5c0ee" x="230.5854" y="192.4884" style="fill: #663399; stroke: #000000; stroke-linejoin: miter"/>
    </g>
   </g>
   <g id="line2d_73">
    <path d="M 230.5854 224.9208 
" clip-path="url(#p0b5aa72cec)" style="fill: none; stroke: #8fbc8f; stroke-width: 1.5; stroke-linecap: square"/>
    <defs>
     <path id="m1b586dcc29" d="M 0 4.949747 
L 2.969848 0 
L 0 -4.949747 
L -2.969848 0 
z
" style="stroke: #000000; stroke-linejoin: miter"/>
    </defs>
    <g clip-path="url(#p0b5aa72cec)">
     <use xlink:href="#m1b586dcc29" x="230.5854" y="224.9208" style="fill: #8fbc8f; stroke: #000000; stroke-linejoin: miter"/>
    </g>
   </g>
   <g id="line2d_74">
    <path clip-path="url(#p0b5aa72cec)" style="fill: none; stroke: #00ced1; stroke-width: 1.5; stroke-linecap: square"/>
    <defs>
     <path id="m11173a94ad" d="M 0 4.949747 
L 2.969848 0 
L 0 -4.949747 
L -2.969848 0 
z
" style="stroke: #000000; stroke-linejoin: miter"/>
    </defs>
    <g clip-path="url(#p0b5aa72cec)">
     <use xlink:href="#m11173a94ad" x="230.5854" y="257.3532" style="fill: #00ced1; stroke: #000000; stroke-linejoin: miter"/>
    </g>
   </g>
   <g id="line2d_75">
    <path d="M 165.7206 62.7588 
" clip-path="url(#p0b5aa72cec)" style="fill: none; stroke: #6a5acd; stroke-width: 1.5; stroke-linecap: square"/>
    <defs>
     <path id="m0e31461e17" d="M 0 4.949747 
L 2.969848 0 
L 0 -4.949747 
L -2.969848 0 
z
" style="stroke: #000000; stroke-linejoin: miter"/>
    </defs>
    <g clip-path="url(#p0b5aa72cec)">
     <use xlink:href="#m0e31461e17" x="165.7206" y="62.7588" style="fill: #6a5acd; stroke: #000000; stroke-linejoin: miter"/>
    </g>
   </g>
   <g id="line2d_76">
    <path d="M 165.7206 30.3264 
" clip-path="url(#p0b5aa72cec)" style="fill: none; stroke: #808000; stroke-width: 1.5; stroke-linecap: square"/>
    <defs>
     <path id="mc245d576d5" d="M 0 4.949747 
L 2.969848 0 
L 0 -4.949747 
L -2.969848 0 
z
" style="stroke: #000000; stroke-linejoin: miter"/>
    </defs>
    <g clip-path="url(#p0b5aa72cec)">
     <use xlink:href="#mc245d576d5" x="165.7206" y="30.3264" style="fill: #808000; stroke: #000000; stroke-linejoin: miter"/>
    </g>
   </g>
   <g id="line2d_77">
    <path clip-path="url(#p0b5aa72cec)" style="fill: none; stroke: #a0522d; stroke-width: 1.5; stroke-linecap: square"/>
    <defs>
     <path id="m68b9c50a88" d="M 0 4.949747 
L 2.969848 0 
L 0 -4.949747 
L -2.969848 0 
z
" style="stroke: #000000; stroke-linejoin: miter"/>
    </defs>
    <g clip-path="url(#p0b5aa72cec)"/>
   </g>
   <g id="line2d_78">
    <path d="M 165.7206 192.4884 
" clip-path="url(#p0b5aa72cec)" style="fill: none; stroke: #ff4500; stroke-width: 1.5; stroke-linecap: square"/>
    <defs>
     <path id="m101e536c3d" d="M 0 4.949747 
L 2.969848 0 
L 0 -4.949747 
L -2.969848 0 
z
" style="stroke: #000000; stroke-linejoin: miter"/>
    </defs>
    <g clip-path="url(#p0b5aa72cec)">
     <use xlink:href="#m101e536c3d" x="165.7206" y="192.4884" style="fill: #ff4500; stroke: #000000; stroke-linejoin: miter"/>
    </g>
   </g>
   <g id="line2d_79">
    <path d="M 165.7206 224.9208 
" clip-path="url(#p0b5aa72cec)" style="fill: none; stroke: #708090; stroke-width: 1.5; stroke-linecap: square"/>
    <defs>
     <path id="m096e4cc326" d="M 0 4.949747 
L 2.969848 0 
L 0 -4.949747 
L -2.969848 0 
z
" style="stroke: #000000; stroke-linejoin: miter"/>
    </defs>
    <g clip-path="url(#p0b5aa72cec)">
     <use xlink:href="#m096e4cc326" x="165.7206" y="224.9208" style="fill: #708090; stroke: #000000; stroke-linejoin: miter"/>
    </g>
   </g>
   <g id="line2d_80">
    <path clip-path="url(#p0b5aa72cec)" style="fill: none; stroke: #bdb76b; stroke-width: 1.5; stroke-linecap: square"/>
    <defs>
     <path id="m4fbe5512e2" d="M 0 4.949747 
L 2.969848 0 
L 0 -4.949747 
L -2.969848 0 
z
" style="stroke: #000000; stroke-linejoin: miter"/>
    </defs>
    <g clip-path="url(#p0b5aa72cec)">
     <use xlink:href="#m4fbe5512e2" x="165.7206" y="257.3532" style="fill: #bdb76b; stroke: #000000; stroke-linejoin: miter"/>
    </g>
   </g>
  </g>
 </g>
 <defs>
  <clipPath id="p0b5aa72cec">
   <rect x="100.8558" y="30.3264" width="194.5944" height="194.5944"/>
  </clipPath>
 </defs>
</svg>
