<?xml version="1.0" encoding="utf-8" standalone="no"?>
<!DOCTYPE svg PUBLIC "-//W3C//DTD SVG 1.1//EN"
  "http://www.w3.org/Graphics/SVG/1.1/DTD/svg11.dtd">
<svg xmlns:xlink="http://www.w3.org/1999/xlink" width="386.64pt" height="252.72pt" viewBox="0 0 386.64 252.72" xmlns="http://www.w3.org/2000/svg" version="1.1">
 <metadata>
  <rdf:RDF xmlns:dc="http://purl.org/dc/elements/1.1/" xmlns:cc="http://creativecommons.org/ns#" xmlns:rdf="http://www.w3.org/1999/02/22-rdf-syntax-ns#">
   <cc:Work>
    <dc:type rdf:resource="http://purl.org/dc/dcmitype/StillImage"/>
    <dc:date>2023-07-11T22:26:55.132105</dc:date>
    <dc:format>image/svg+xml</dc:format>
    <dc:creator>
     <cc:Agent>
      <dc:title>Matplotlib v3.6.2, https://matplotlib.org/</dc:title>
     </cc:Agent>
    </dc:creator>
   </cc:Work>
  </rdf:RDF>
 </metadata>
 <defs>
  <style type="text/css">*{stroke-linejoin: round; stroke-linecap: butt}</style>
 </defs>
 <g id="figure_1">
  <g id="patch_1">
   <path d="M 0 252.72 
L 386.64 252.72 
L 386.64 0 
L 0 0 
z
" style="fill: #ffffff"/>
  </g>
  <g id="axes_1">
   <g id="patch_2">
    <path d="M 100.8558 224.9208 
L 295.4502 224.9208 
L 295.4502 30.3264 
L 100.8558 30.3264 
z
" style="fill: #ffffff"/>
   </g>
   <g id="matplotlib.axis_1">
    <g id="xtick_1">
     <g id="line2d_1">
      <defs>
       <path id="m900a8e8e14" d="M 0 0 
L 0 3.5 
" style="stroke: #000000; stroke-width: 0.8"/>
      </defs>
      <g>
       <use xlink:href="#m900a8e8e14" x="100.8558" y="224.9208" style="stroke: #000000; stroke-width: 0.8"/>
      </g>
     </g>
     <g id="text_1">
      <!-- −0.5 -->
      <g transform="translate(88.714394 239.519237) scale(0.1 -0.1)">
       <defs>
        <path id="DejaVuSans-2212" d="M 678 2272 
L 4684 2272 
L 4684 1741 
L 678 1741 
L 678 2272 
z
" transform="scale(0.015625)"/>
        <path id="DejaVuSans-30" d="M 2034 4250 
Q 1547 4250 1301 3770 
Q 1056 3291 1056 2328 
Q 1056 1369 1301 889 
Q 1547 409 2034 409 
Q 2525 409 2770 889 
Q 3016 1369 3016 2328 
Q 3016 3291 2770 3770 
Q 2525 4250 2034 4250 
z
M 2034 4750 
Q 2819 4750 3233 4129 
Q 3647 3509 3647 2328 
Q 3647 1150 3233 529 
Q 2819 -91 2034 -91 
Q 1250 -91 836 529 
Q 422 1150 422 2328 
Q 422 3509 836 4129 
Q 1250 4750 2034 4750 
z
" transform="scale(0.015625)"/>
        <path id="DejaVuSans-2e" d="M 684 794 
L 1344 794 
L 1344 0 
L 684 0 
L 684 794 
z
" transform="scale(0.015625)"/>
        <path id="DejaVuSans-35" d="M 691 4666 
L 3169 4666 
L 3169 4134 
L 1269 4134 
L 1269 2991 
Q 1406 3038 1543 3061 
Q 1681 3084 1819 3084 
Q 2600 3084 3056 2656 
Q 3513 2228 3513 1497 
Q 3513 744 3044 326 
Q 2575 -91 1722 -91 
Q 1428 -91 1123 -41 
Q 819 9 494 109 
L 494 744 
Q 775 591 1075 516 
Q 1375 441 1709 441 
Q 2250 441 2565 725 
Q 2881 1009 2881 1497 
Q 2881 1984 2565 2268 
Q 2250 2553 1709 2553 
Q 1456 2553 1204 2497 
Q 953 2441 691 2322 
L 691 4666 
z
" transform="scale(0.015625)"/>
       </defs>
       <use xlink:href="#DejaVuSans-2212"/>
       <use xlink:href="#DejaVuSans-30" x="83.789062"/>
       <use xlink:href="#DejaVuSans-2e" x="147.412109"/>
       <use xlink:href="#DejaVuSans-35" x="179.199219"/>
      </g>
     </g>
    </g>
    <g id="xtick_2">
     <g id="line2d_2">
      <g>
       <use xlink:href="#m900a8e8e14" x="133.2882" y="224.9208" style="stroke: #000000; stroke-width: 0.8"/>
      </g>
     </g>
     <g id="text_2">
      <!-- 0.0 -->
      <g transform="translate(125.336638 239.519237) scale(0.1 -0.1)">
       <use xlink:href="#DejaVuSans-30"/>
       <use xlink:href="#DejaVuSans-2e" x="63.623047"/>
       <use xlink:href="#DejaVuSans-30" x="95.410156"/>
      </g>
     </g>
    </g>
    <g id="xtick_3">
     <g id="line2d_3">
      <g>
       <use xlink:href="#m900a8e8e14" x="165.7206" y="224.9208" style="stroke: #000000; stroke-width: 0.8"/>
      </g>
     </g>
     <g id="text_3">
      <!-- 0.5 -->
      <g transform="translate(157.769037 239.519237) scale(0.1 -0.1)">
       <use xlink:href="#DejaVuSans-30"/>
       <use xlink:href="#DejaVuSans-2e" x="63.623047"/>
       <use xlink:href="#DejaVuSans-35" x="95.410156"/>
      </g>
     </g>
    </g>
    <g id="xtick_4">
     <g id="line2d_4">
      <g>
       <use xlink:href="#m900a8e8e14" x="198.153" y="224.9208" style="stroke: #000000; stroke-width: 0.8"/>
      </g>
     </g>
     <g id="text_4">
      <!-- 1.0 -->
      <g transform="translate(190.201437 239.519237) scale(0.1 -0.1)">
       <defs>
        <path id="DejaVuSans-31" d="M 794 531 
L 1825 531 
L 1825 4091 
L 703 3866 
L 703 4441 
L 1819 4666 
L 2450 4666 
L 2450 531 
L 3481 531 
L 3481 0 
L 794 0 
L 794 531 
z
" transform="scale(0.015625)"/>
       </defs>
       <use xlink:href="#DejaVuSans-31"/>
       <use xlink:href="#DejaVuSans-2e" x="63.623047"/>
       <use xlink:href="#DejaVuSans-30" x="95.410156"/>
      </g>
     </g>
    </g>
    <g id="xtick_5">
     <g id="line2d_5">
      <g>
       <use xlink:href="#m900a8e8e14" x="230.5854" y="224.9208" style="stroke: #000000; stroke-width: 0.8"/>
      </g>
     </g>
     <g id="text_5">
      <!-- 1.5 -->
      <g transform="translate(222.633837 239.519237) scale(0.1 -0.1)">
       <use xlink:href="#DejaVuSans-31"/>
       <use xlink:href="#DejaVuSans-2e" x="63.623047"/>
       <use xlink:href="#DejaVuSans-35" x="95.410156"/>
      </g>
     </g>
    </g>
    <g id="xtick_6">
     <g id="line2d_6">
      <g>
       <use xlink:href="#m900a8e8e14" x="263.0178" y="224.9208" style="stroke: #000000; stroke-width: 0.8"/>
      </g>
     </g>
     <g id="text_6">
      <!-- 2.0 -->
      <g transform="translate(255.066237 239.519237) scale(0.1 -0.1)">
       <defs>
        <path id="DejaVuSans-32" d="M 1228 531 
L 3431 531 
L 3431 0 
L 469 0 
L 469 531 
Q 828 903 1448 1529 
Q 2069 2156 2228 2338 
Q 2531 2678 2651 2914 
Q 2772 3150 2772 3378 
Q 2772 3750 2511 3984 
Q 2250 4219 1831 4219 
Q 1534 4219 1204 4116 
Q 875 4013 500 3803 
L 500 4441 
Q 881 4594 1212 4672 
Q 1544 4750 1819 4750 
Q 2544 4750 2975 4387 
Q 3406 4025 3406 3419 
Q 3406 3131 3298 2873 
Q 3191 2616 2906 2266 
Q 2828 2175 2409 1742 
Q 1991 1309 1228 531 
z
" transform="scale(0.015625)"/>
       </defs>
       <use xlink:href="#DejaVuSans-32"/>
       <use xlink:href="#DejaVuSans-2e" x="63.623047"/>
       <use xlink:href="#DejaVuSans-30" x="95.410156"/>
      </g>
     </g>
    </g>
    <g id="xtick_7">
     <g id="line2d_7">
      <g>
       <use xlink:href="#m900a8e8e14" x="295.4502" y="224.9208" style="stroke: #000000; stroke-width: 0.8"/>
      </g>
     </g>
     <g id="text_7">
      <!-- 2.5 -->
      <g transform="translate(287.498637 239.519237) scale(0.1 -0.1)">
       <use xlink:href="#DejaVuSans-32"/>
       <use xlink:href="#DejaVuSans-2e" x="63.623047"/>
       <use xlink:href="#DejaVuSans-35" x="95.410156"/>
      </g>
     </g>
    </g>
    <g id="text_8">
     <!-- x(m) -->
     <g transform="translate(186.42175 253.197362) scale(0.1 -0.1)">
      <defs>
       <path id="DejaVuSans-78" d="M 3513 3500 
L 2247 1797 
L 3578 0 
L 2900 0 
L 1881 1375 
L 863 0 
L 184 0 
L 1544 1831 
L 300 3500 
L 978 3500 
L 1906 2253 
L 2834 3500 
L 3513 3500 
z
" transform="scale(0.015625)"/>
       <path id="DejaVuSans-28" d="M 1984 4856 
Q 1566 4138 1362 3434 
Q 1159 2731 1159 2009 
Q 1159 1288 1364 580 
Q 1569 -128 1984 -844 
L 1484 -844 
Q 1016 -109 783 600 
Q 550 1309 550 2009 
Q 550 2706 781 3412 
Q 1013 4119 1484 4856 
L 1984 4856 
z
" transform="scale(0.015625)"/>
       <path id="DejaVuSans-6d" d="M 3328 2828 
Q 3544 3216 3844 3400 
Q 4144 3584 4550 3584 
Q 5097 3584 5394 3201 
Q 5691 2819 5691 2113 
L 5691 0 
L 5113 0 
L 5113 2094 
Q 5113 2597 4934 2840 
Q 4756 3084 4391 3084 
Q 3944 3084 3684 2787 
Q 3425 2491 3425 1978 
L 3425 0 
L 2847 0 
L 2847 2094 
Q 2847 2600 2669 2842 
Q 2491 3084 2119 3084 
Q 1678 3084 1418 2786 
Q 1159 2488 1159 1978 
L 1159 0 
L 581 0 
L 581 3500 
L 1159 3500 
L 1159 2956 
Q 1356 3278 1631 3431 
Q 1906 3584 2284 3584 
Q 2666 3584 2933 3390 
Q 3200 3197 3328 2828 
z
" transform="scale(0.015625)"/>
       <path id="DejaVuSans-29" d="M 513 4856 
L 1013 4856 
Q 1481 4119 1714 3412 
Q 1947 2706 1947 2009 
Q 1947 1309 1714 600 
Q 1481 -109 1013 -844 
L 513 -844 
Q 928 -128 1133 580 
Q 1338 1288 1338 2009 
Q 1338 2731 1133 3434 
Q 928 4138 513 4856 
z
" transform="scale(0.015625)"/>
      </defs>
      <use xlink:href="#DejaVuSans-78"/>
      <use xlink:href="#DejaVuSans-28" x="59.179688"/>
      <use xlink:href="#DejaVuSans-6d" x="98.193359"/>
      <use xlink:href="#DejaVuSans-29" x="195.605469"/>
     </g>
    </g>
   </g>
   <g id="matplotlib.axis_2">
    <g id="ytick_1">
     <g id="line2d_8">
      <defs>
       <path id="m0acb2563e7" d="M 0 0 
L -3.5 0 
" style="stroke: #000000; stroke-width: 0.8"/>
      </defs>
      <g>
       <use xlink:href="#m0acb2563e7" x="100.8558" y="224.9208" style="stroke: #000000; stroke-width: 0.8"/>
      </g>
     </g>
     <g id="text_9">
      <!-- −0.5 -->
      <g transform="translate(69.572988 228.720019) scale(0.1 -0.1)">
       <use xlink:href="#DejaVuSans-2212"/>
       <use xlink:href="#DejaVuSans-30" x="83.789062"/>
       <use xlink:href="#DejaVuSans-2e" x="147.412109"/>
       <use xlink:href="#DejaVuSans-35" x="179.199219"/>
      </g>
     </g>
    </g>
    <g id="ytick_2">
     <g id="line2d_9">
      <g>
       <use xlink:href="#m0acb2563e7" x="100.8558" y="192.4884" style="stroke: #000000; stroke-width: 0.8"/>
      </g>
     </g>
     <g id="text_10">
      <!-- 0.0 -->
      <g transform="translate(77.952675 196.287619) scale(0.1 -0.1)">
       <use xlink:href="#DejaVuSans-30"/>
       <use xlink:href="#DejaVuSans-2e" x="63.623047"/>
       <use xlink:href="#DejaVuSans-30" x="95.410156"/>
      </g>
     </g>
    </g>
    <g id="ytick_3">
     <g id="line2d_10">
      <g>
       <use xlink:href="#m0acb2563e7" x="100.8558" y="160.056" style="stroke: #000000; stroke-width: 0.8"/>
      </g>
     </g>
     <g id="text_11">
      <!-- 0.5 -->
      <g transform="translate(77.952675 163.855219) scale(0.1 -0.1)">
       <use xlink:href="#DejaVuSans-30"/>
       <use xlink:href="#DejaVuSans-2e" x="63.623047"/>
       <use xlink:href="#DejaVuSans-35" x="95.410156"/>
      </g>
     </g>
    </g>
    <g id="ytick_4">
     <g id="line2d_11">
      <g>
       <use xlink:href="#m0acb2563e7" x="100.8558" y="127.6236" style="stroke: #000000; stroke-width: 0.8"/>
      </g>
     </g>
     <g id="text_12">
      <!-- 1.0 -->
      <g transform="translate(77.952675 131.422819) scale(0.1 -0.1)">
       <use xlink:href="#DejaVuSans-31"/>
       <use xlink:href="#DejaVuSans-2e" x="63.623047"/>
       <use xlink:href="#DejaVuSans-30" x="95.410156"/>
      </g>
     </g>
    </g>
    <g id="ytick_5">
     <g id="line2d_12">
      <g>
       <use xlink:href="#m0acb2563e7" x="100.8558" y="95.1912" style="stroke: #000000; stroke-width: 0.8"/>
      </g>
     </g>
     <g id="text_13">
      <!-- 1.5 -->
      <g transform="translate(77.952675 98.990419) scale(0.1 -0.1)">
       <use xlink:href="#DejaVuSans-31"/>
       <use xlink:href="#DejaVuSans-2e" x="63.623047"/>
       <use xlink:href="#DejaVuSans-35" x="95.410156"/>
      </g>
     </g>
    </g>
    <g id="ytick_6">
     <g id="line2d_13">
      <g>
       <use xlink:href="#m0acb2563e7" x="100.8558" y="62.7588" style="stroke: #000000; stroke-width: 0.8"/>
      </g>
     </g>
     <g id="text_14">
      <!-- 2.0 -->
      <g transform="translate(77.952675 66.558019) scale(0.1 -0.1)">
       <use xlink:href="#DejaVuSans-32"/>
       <use xlink:href="#DejaVuSans-2e" x="63.623047"/>
       <use xlink:href="#DejaVuSans-30" x="95.410156"/>
      </g>
     </g>
    </g>
    <g id="ytick_7">
     <g id="line2d_14">
      <g>
       <use xlink:href="#m0acb2563e7" x="100.8558" y="30.3264" style="stroke: #000000; stroke-width: 0.8"/>
      </g>
     </g>
     <g id="text_15">
      <!-- 2.5 -->
      <g transform="translate(77.952675 34.125619) scale(0.1 -0.1)">
       <use xlink:href="#DejaVuSans-32"/>
       <use xlink:href="#DejaVuSans-2e" x="63.623047"/>
       <use xlink:href="#DejaVuSans-35" x="95.410156"/>
      </g>
     </g>
    </g>
    <g id="text_16">
     <!-- y(m) -->
     <g transform="translate(63.4933 139.35485) rotate(-90) scale(0.1 -0.1)">
      <defs>
       <path id="DejaVuSans-79" d="M 2059 -325 
Q 1816 -950 1584 -1140 
Q 1353 -1331 966 -1331 
L 506 -1331 
L 506 -850 
L 844 -850 
Q 1081 -850 1212 -737 
Q 1344 -625 1503 -206 
L 1606 56 
L 191 3500 
L 800 3500 
L 1894 763 
L 2988 3500 
L 3597 3500 
L 2059 -325 
z
" transform="scale(0.015625)"/>
      </defs>
      <use xlink:href="#DejaVuSans-79"/>
      <use xlink:href="#DejaVuSans-28" x="59.179688"/>
      <use xlink:href="#DejaVuSans-6d" x="98.193359"/>
      <use xlink:href="#DejaVuSans-29" x="195.605469"/>
     </g>
    </g>
   </g>
   <g id="line2d_15">
    <path d="M 225.536461 127.5202 
L 238.242732 126.746153 
L 248.589721 127.076772 
L 254.693271 127.292057 
L 257.481507 127.401261 
L 259.341132 127.47546 
L 260.61814 127.526933 
L 261.563877 127.564955 
L 262.287178 127.594113 
L 262.85855 127.617178 
L 262.977307 127.621964 
L 263.003262 127.623013 
L 263.003262 127.623013 
" clip-path="url(#p092b062aa9)" style="fill: none; stroke-dasharray: 2,3.3; stroke-dashoffset: 0; stroke: #1f77b4; stroke-width: 2"/>
   </g>
   <g id="line2d_16">
    <path d="M 133.2882 127.6236 
L 133.2882 127.6236 
L 133.768676 127.621531 
L 138.573349 127.593776 
L 147.701648 127.493337 
L 160.673863 127.41217 
L 173.646739 127.459601 
L 186.619963 127.486284 
L 199.592908 127.523189 
L 212.567005 127.607597 
L 225.536461 127.5202 
" clip-path="url(#p092b062aa9)" style="fill: none; stroke: #1f77b4; stroke-width: 2; stroke-linecap: square"/>
   </g>
   <g id="line2d_17">
    <path d="M 211.999015 147.096721 
L 217.730741 141.332476 
L 223.095156 137.883429 
L 226.456838 136.095453 
L 228.799707 134.947887 
L 230.474478 134.169679 
L 231.688312 133.617891 
L 232.5801 133.212501 
L 233.262876 132.902124 
L 233.802353 132.656888 
L 234.23933 132.458247 
L 234.600468 132.29408 
L 234.600468 132.29408 
" clip-path="url(#p092b062aa9)" style="fill: none; stroke-dasharray: 2,3.3; stroke-dashoffset: 0; stroke: #ff7f0e; stroke-width: 2"/>
   </g>
   <g id="line2d_18">
    <path d="M 198.153 205.46136 
L 198.153 205.46136 
L 198.164648 204.981025 
L 198.417246 200.200816 
L 199.877385 191.454013 
L 201.48243 180.264573 
L 202.738317 169.560811 
L 204.917797 161.07713 
L 207.09932 154.814228 
L 209.379241 150.892168 
L 211.999015 147.096721 
" clip-path="url(#p092b062aa9)" style="fill: none; stroke: #ff7f0e; stroke-width: 2; stroke-linecap: square"/>
   </g>
   <g id="line2d_19">
    <path d="M 133.288228 95.191086 
L 133.288229 95.191064 
L 133.28823 95.191045 
L 133.28823 95.191029 
L 133.288229 95.191019 
L 133.288227 95.191013 
L 133.288224 95.191013 
L 133.288222 95.191017 
L 133.288219 95.191025 
L 133.288217 95.191035 
L 133.288215 95.191043 
L 133.288215 95.191047 
L 133.288215 95.191047 
" clip-path="url(#p092b062aa9)" style="fill: none; stroke-dasharray: 2,3.3; stroke-dashoffset: 0; stroke: #2ca02c; stroke-width: 2"/>
   </g>
   <g id="line2d_20">
    <path d="M 133.2882 95.1912 
L 133.2882 95.1912 
L 133.2882 95.1912 
L 133.288202 95.1912 
L 133.288204 95.191197 
L 133.288206 95.19119 
L 133.288211 95.191173 
L 133.288216 95.191155 
L 133.288222 95.191135 
L 133.288224 95.191111 
L 133.288228 95.191086 
" clip-path="url(#p092b062aa9)" style="fill: none; stroke: #2ca02c; stroke-width: 2; stroke-linecap: square"/>
   </g>
   <g id="line2d_21">
    <path d="M 165.720281 95.191024 
L 165.720261 95.191012 
L 165.720238 95.191 
L 165.720221 95.190992 
L 165.720227 95.190997 
L 165.720255 95.191013 
L 165.7203 95.191039 
L 165.720356 95.191071 
L 165.720416 95.191106 
L 165.720472 95.191138 
L 165.720512 95.191163 
L 165.720532 95.191176 
L 165.720532 95.191176 
" clip-path="url(#p092b062aa9)" style="fill: none; stroke-dasharray: 2,3.3; stroke-dashoffset: 0; stroke: #d62728; stroke-width: 2"/>
   </g>
   <g id="line2d_22">
    <path d="M 165.7206 95.1912 
L 165.7206 95.1912 
L 165.720601 95.191194 
L 165.720603 95.19115 
L 165.720581 95.191153 
L 165.720541 95.191158 
L 165.720483 95.19116 
L 165.720422 95.191125 
L 165.720366 95.191081 
L 165.720311 95.191045 
L 165.720281 95.191024 
" clip-path="url(#p092b062aa9)" style="fill: none; stroke: #d62728; stroke-width: 2; stroke-linecap: square"/>
   </g>
   <g id="line2d_23">
    <path d="M 230.585553 95.191222 
L 230.585596 95.191169 
L 230.585648 95.191127 
L 230.585696 95.191097 
L 230.585716 95.191084 
L 230.58571 95.191084 
L 230.585681 95.191094 
L 230.585635 95.191112 
L 230.58558 95.191132 
L 230.585526 95.191152 
L 230.585485 95.191167 
L 230.585466 95.191174 
L 230.585466 95.191174 
" clip-path="url(#p092b062aa9)" style="fill: none; stroke-dasharray: 2,3.3; stroke-dashoffset: 0; stroke: #9467bd; stroke-width: 2"/>
   </g>
   <g id="line2d_24">
    <path d="M 230.5854 95.1912 
L 230.5854 95.1912 
L 230.5854 95.191198 
L 230.585399 95.191183 
L 230.585405 95.191174 
L 230.585427 95.191186 
L 230.585443 95.191202 
L 230.585457 95.191257 
L 230.585477 95.191298 
L 230.585509 95.191287 
L 230.585553 95.191222 
" clip-path="url(#p092b062aa9)" style="fill: none; stroke: #9467bd; stroke-width: 2; stroke-linecap: square"/>
   </g>
   <g id="line2d_25">
    <path d="M 263.017817 95.191135 
L 263.017814 95.191106 
L 263.01781 95.191069 
L 263.017805 95.191032 
L 263.017798 95.190997 
L 263.017791 95.190967 
L 263.017782 95.190944 
L 263.017774 95.190929 
L 263.017767 95.190924 
L 263.017762 95.190926 
L 263.017759 95.190932 
L 263.017758 95.190935 
L 263.017758 95.190935 
" clip-path="url(#p092b062aa9)" style="fill: none; stroke-dasharray: 2,3.3; stroke-dashoffset: 0; stroke: #8c564b; stroke-width: 2"/>
   </g>
   <g id="line2d_26">
    <path d="M 263.0178 95.1912 
L 263.0178 95.1912 
L 263.017801 95.1912 
L 263.017807 95.191203 
L 263.017812 95.191199 
L 263.017815 95.191193 
L 263.017817 95.191185 
L 263.017818 95.191173 
L 263.017819 95.191161 
L 263.017818 95.19115 
L 263.017817 95.191135 
" clip-path="url(#p092b062aa9)" style="fill: none; stroke: #8c564b; stroke-width: 2; stroke-linecap: square"/>
   </g>
   <g id="line2d_27">
    <path d="M 133.288218 160.056072 
L 133.288229 160.056084 
L 133.288244 160.05609 
L 133.288256 160.056093 
L 133.288263 160.056094 
L 133.288265 160.056093 
L 133.288262 160.05609 
L 133.288257 160.056085 
L 133.28825 160.056078 
L 133.288246 160.056072 
L 133.288244 160.056067 
L 133.288243 160.056065 
L 133.288243 160.056065 
" clip-path="url(#p092b062aa9)" style="fill: none; stroke-dasharray: 2,3.3; stroke-dashoffset: 0; stroke: #e377c2; stroke-width: 2"/>
   </g>
   <g id="line2d_28">
    <path d="M 133.2882 160.056 
L 133.2882 160.056 
L 133.2882 160.056 
L 133.288203 160.056 
L 133.288205 160.056004 
L 133.288208 160.056011 
L 133.28821 160.05602 
L 133.288212 160.056031 
L 133.288213 160.056043 
L 133.288215 160.056057 
L 133.288218 160.056072 
" clip-path="url(#p092b062aa9)" style="fill: none; stroke: #e377c2; stroke-width: 2; stroke-linecap: square"/>
   </g>
   <g id="line2d_29">
    <path d="M 165.720405 160.055537 
L 165.720396 160.055549 
L 165.72036 160.055567 
L 165.720308 160.055593 
L 165.720272 160.055637 
L 165.720257 160.055693 
L 165.720265 160.055756 
L 165.720297 160.055821 
L 165.720348 160.055883 
L 165.720406 160.055934 
L 165.720454 160.055968 
L 165.720479 160.055983 
L 165.720479 160.055983 
" clip-path="url(#p092b062aa9)" style="fill: none; stroke-dasharray: 2,3.3; stroke-dashoffset: 0; stroke: #7f7f7f; stroke-width: 2"/>
   </g>
   <g id="line2d_30">
    <path d="M 165.7206 160.056 
L 165.7206 160.056 
L 165.7206 160.055997 
L 165.720599 160.05597 
L 165.720579 160.055908 
L 165.72054 160.055856 
L 165.720503 160.055767 
L 165.72048 160.055656 
L 165.720446 160.055586 
L 165.720426 160.055548 
L 165.720405 160.055537 
" clip-path="url(#p092b062aa9)" style="fill: none; stroke: #7f7f7f; stroke-width: 2; stroke-linecap: square"/>
   </g>
   <g id="line2d_31">
    <path d="M 230.585475 160.055991 
L 230.58547 160.055994 
L 230.585454 160.055986 
L 230.585432 160.055971 
L 230.585409 160.055957 
L 230.58539 160.055947 
L 230.585376 160.055941 
L 230.585368 160.055941 
L 230.585366 160.055945 
L 230.585368 160.05595 
L 230.585372 160.055952 
L 230.585374 160.055952 
L 230.585374 160.055952 
" clip-path="url(#p092b062aa9)" style="fill: none; stroke-dasharray: 2,3.3; stroke-dashoffset: 0; stroke: #bcbd22; stroke-width: 2"/>
   </g>
   <g id="line2d_32">
    <path d="M 230.5854 160.056 
L 230.5854 160.056 
L 230.5854 160.056002 
L 230.585404 160.056019 
L 230.585426 160.055987 
L 230.585441 160.055965 
L 230.585453 160.055958 
L 230.585459 160.055962 
L 230.585459 160.055967 
L 230.585467 160.055979 
L 230.585475 160.055991 
" clip-path="url(#p092b062aa9)" style="fill: none; stroke: #bcbd22; stroke-width: 2; stroke-linecap: square"/>
   </g>
   <g id="line2d_33">
    <path d="M 263.017789 160.056089 
L 263.017785 160.056113 
L 263.017783 160.056141 
L 263.017782 160.056169 
L 263.017783 160.056196 
L 263.017785 160.056219 
L 263.017787 160.056236 
L 263.017789 160.056248 
L 263.01779 160.056251 
L 263.017792 160.056249 
L 263.017792 160.056245 
L 263.017792 160.056243 
L 263.017792 160.056243 
" clip-path="url(#p092b062aa9)" style="fill: none; stroke-dasharray: 2,3.3; stroke-dashoffset: 0; stroke: #17becf; stroke-width: 2"/>
   </g>
   <g id="line2d_34">
    <path d="M 263.0178 160.056 
L 263.0178 160.056 
L 263.0178 160.056 
L 263.0178 160.056 
L 263.0178 160.056006 
L 263.017801 160.056017 
L 263.017802 160.056031 
L 263.017798 160.056043 
L 263.017795 160.056057 
L 263.017792 160.056072 
L 263.017789 160.056089 
" clip-path="url(#p092b062aa9)" style="fill: none; stroke: #17becf; stroke-width: 2; stroke-linecap: square"/>
   </g>
   <g id="line2d_35">
    <path d="M 230.585416 62.758765 
L 230.585445 62.758771 
L 230.585485 62.758782 
L 230.585529 62.758795 
L 230.585561 62.758806 
L 230.585578 62.758817 
L 230.58558 62.758826 
L 230.585568 62.758835 
L 230.585546 62.758843 
L 230.585519 62.758849 
L 230.585495 62.758853 
L 230.585484 62.758857 
L 230.585484 62.758857 
" clip-path="url(#p092b062aa9)" style="fill: none; stroke-dasharray: 2,3.3; stroke-dashoffset: 0; stroke: #2f4f4f; stroke-width: 2"/>
   </g>
   <g id="line2d_36">
    <path d="M 230.5854 62.7588 
L 230.5854 62.7588 
L 230.5854 62.758798 
L 230.585398 62.758783 
L 230.585395 62.75877 
L 230.585392 62.758761 
L 230.585391 62.758756 
L 230.585392 62.758754 
L 230.585393 62.758755 
L 230.585397 62.758759 
L 230.585416 62.758765 
" clip-path="url(#p092b062aa9)" style="fill: none; stroke: #2f4f4f; stroke-width: 2; stroke-linecap: square"/>
   </g>
   <g id="line2d_37">
    <path d="M 230.58528 30.326662 
L 230.58528 30.32668 
L 230.585281 30.326695 
L 230.585284 30.326704 
L 230.585291 30.326701 
L 230.585301 30.326685 
L 230.585315 30.326657 
L 230.58533 30.326618 
L 230.585346 30.326575 
L 230.58536 30.326533 
L 230.585371 30.326499 
L 230.585375 30.326481 
L 230.585375 30.326481 
" clip-path="url(#p092b062aa9)" style="fill: none; stroke-dasharray: 2,3.3; stroke-dashoffset: 0; stroke: #cd5c5c; stroke-width: 2"/>
   </g>
   <g id="line2d_38">
    <path d="M 230.5854 30.3264 
L 230.5854 30.3264 
L 230.585397 30.326406 
L 230.585368 30.32646 
L 230.585347 30.326501 
L 230.585328 30.326531 
L 230.585311 30.326561 
L 230.585298 30.326587 
L 230.585288 30.326613 
L 230.585283 30.326639 
L 230.58528 30.326662 
" clip-path="url(#p092b062aa9)" style="fill: none; stroke: #cd5c5c; stroke-width: 2; stroke-linecap: square"/>
   </g>
   <g id="line2d_39">
    <path clip-path="url(#p092b062aa9)" style="fill: none; stroke-dasharray: 2,3.3; stroke-dashoffset: 0; stroke: #add8e6; stroke-width: 2"/>
   </g>
   <g id="line2d_40">
    <path clip-path="url(#p092b062aa9)" style="fill: none; stroke: #add8e6; stroke-width: 2; stroke-linecap: square"/>
   </g>
   <g id="line2d_41">
    <path d="M 230.585436 192.488433 
L 230.585471 192.488428 
L 230.585507 192.488417 
L 230.58554 192.488401 
L 230.58556 192.488386 
L 230.585565 192.488373 
L 230.585557 192.488364 
L 230.585539 192.488362 
L 230.585514 192.488367 
L 230.58549 192.488378 
L 230.585475 192.488394 
L 230.585469 192.488402 
L 230.585469 192.488402 
" clip-path="url(#p092b062aa9)" style="fill: none; stroke-dasharray: 2,3.3; stroke-dashoffset: 0; stroke: #663399; stroke-width: 2"/>
   </g>
   <g id="line2d_42">
    <path d="M 230.5854 192.4884 
L 230.5854 192.4884 
L 230.5854 192.488401 
L 230.585403 192.488407 
L 230.585406 192.488411 
L 230.585406 192.488417 
L 230.585392 192.488421 
L 230.585383 192.488425 
L 230.585389 192.488426 
L 230.585399 192.488429 
L 230.585436 192.488433 
" clip-path="url(#p092b062aa9)" style="fill: none; stroke: #663399; stroke-width: 2; stroke-linecap: square"/>
   </g>
   <g id="line2d_43">
    <path d="M 230.585339 224.920855 
L 230.585333 224.920854 
L 230.585325 224.920861 
L 230.585318 224.920875 
L 230.585313 224.92089 
L 230.585314 224.920904 
L 230.585318 224.920914 
L 230.585326 224.920918 
L 230.585335 224.920913 
L 230.585344 224.920901 
L 230.585349 224.920887 
L 230.585351 224.920879 
L 230.585351 224.920879 
" clip-path="url(#p092b062aa9)" style="fill: none; stroke-dasharray: 2,3.3; stroke-dashoffset: 0; stroke: #8fbc8f; stroke-width: 2"/>
   </g>
   <g id="line2d_44">
    <path d="M 230.5854 224.9208 
L 230.5854 224.9208 
L 230.585398 224.920803 
L 230.585385 224.920825 
L 230.585374 224.920843 
L 230.585366 224.920859 
L 230.58536 224.920873 
L 230.585355 224.920875 
L 230.58535 224.920871 
L 230.585345 224.920863 
L 230.585339 224.920855 
" clip-path="url(#p092b062aa9)" style="fill: none; stroke: #8fbc8f; stroke-width: 2; stroke-linecap: square"/>
   </g>
   <g id="line2d_45">
    <path clip-path="url(#p092b062aa9)" style="fill: none; stroke-dasharray: 2,3.3; stroke-dashoffset: 0; stroke: #00ced1; stroke-width: 2"/>
   </g>
   <g id="line2d_46">
    <path clip-path="url(#p092b062aa9)" style="fill: none; stroke: #00ced1; stroke-width: 2; stroke-linecap: square"/>
   </g>
   <g id="line2d_47">
    <path d="M 165.720599 62.758726 
L 165.720589 62.758749 
L 165.720577 62.758775 
L 165.720564 62.758799 
L 165.720554 62.758819 
L 165.720548 62.758832 
L 165.720546 62.758838 
L 165.720547 62.758836 
L 165.720552 62.758829 
L 165.72056 62.758819 
L 165.720567 62.758812 
L 165.72057 62.75881 
L 165.72057 62.75881 
" clip-path="url(#p092b062aa9)" style="fill: none; stroke-dasharray: 2,3.3; stroke-dashoffset: 0; stroke: #6a5acd; stroke-width: 2"/>
   </g>
   <g id="line2d_48">
    <path d="M 165.7206 62.7588 
L 165.7206 62.7588 
L 165.7206 62.758797 
L 165.720599 62.758767 
L 165.720603 62.758741 
L 165.720606 62.758721 
L 165.720609 62.758707 
L 165.720611 62.7587 
L 165.72061 62.758699 
L 165.720606 62.758707 
L 165.720599 62.758726 
" clip-path="url(#p092b062aa9)" style="fill: none; stroke: #6a5acd; stroke-width: 2; stroke-linecap: square"/>
   </g>
   <g id="line2d_49">
    <path d="M 165.720622 30.32633 
L 165.720625 30.326358 
L 165.720625 30.326391 
L 165.720624 30.326425 
L 165.720622 30.326455 
L 165.720619 30.326478 
L 165.720615 30.326495 
L 165.720611 30.326504 
L 165.720608 30.326507 
L 165.720607 30.326507 
L 165.720606 30.326506 
L 165.720607 30.326507 
L 165.720607 30.326507 
" clip-path="url(#p092b062aa9)" style="fill: none; stroke-dasharray: 2,3.3; stroke-dashoffset: 0; stroke: #808000; stroke-width: 2"/>
   </g>
   <g id="line2d_50">
    <path d="M 165.7206 30.3264 
L 165.7206 30.3264 
L 165.7206 30.326398 
L 165.720603 30.326374 
L 165.720607 30.326333 
L 165.720608 30.326303 
L 165.720608 30.326285 
L 165.720609 30.326278 
L 165.720611 30.326286 
L 165.720616 30.326304 
L 165.720622 30.32633 
" clip-path="url(#p092b062aa9)" style="fill: none; stroke: #808000; stroke-width: 2; stroke-linecap: square"/>
   </g>
   <g id="line2d_51">
    <path clip-path="url(#p092b062aa9)" style="fill: none; stroke-dasharray: 2,3.3; stroke-dashoffset: 0; stroke: #a0522d; stroke-width: 2"/>
   </g>
   <g id="line2d_52">
    <path clip-path="url(#p092b062aa9)" style="fill: none; stroke: #a0522d; stroke-width: 2; stroke-linecap: square"/>
   </g>
   <g id="line2d_53">
    <path d="M 165.720505 192.488686 
L 165.720443 192.488681 
L 165.720353 192.488645 
L 165.720253 192.488589 
L 165.720179 192.488525 
L 165.720137 192.488461 
L 165.720127 192.488403 
L 165.720147 192.488355 
L 165.720192 192.48832 
L 165.720251 192.488299 
L 165.720305 192.488293 
L 165.720334 192.488292 
L 165.720334 192.488292 
" clip-path="url(#p092b062aa9)" style="fill: none; stroke-dasharray: 2,3.3; stroke-dashoffset: 0; stroke: #ff4500; stroke-width: 2"/>
   </g>
   <g id="line2d_54">
    <path d="M 165.7206 192.4884 
L 165.7206 192.4884 
L 165.720601 192.488405 
L 165.720611 192.488452 
L 165.720617 192.488491 
L 165.720591 192.488535 
L 165.720574 192.488568 
L 165.720557 192.488592 
L 165.720554 192.48862 
L 165.720547 192.488655 
L 165.720505 192.488686 
" clip-path="url(#p092b062aa9)" style="fill: none; stroke: #ff4500; stroke-width: 2; stroke-linecap: square"/>
   </g>
   <g id="line2d_55">
    <path d="M 165.720672 224.920786 
L 165.720674 224.920768 
L 165.720676 224.920747 
L 165.720676 224.920726 
L 165.720674 224.920709 
L 165.720669 224.920699 
L 165.720661 224.920696 
L 165.720652 224.920701 
L 165.720641 224.920712 
L 165.720631 224.920727 
L 165.720623 224.920742 
L 165.720618 224.920753 
L 165.720618 224.920753 
" clip-path="url(#p092b062aa9)" style="fill: none; stroke-dasharray: 2,3.3; stroke-dashoffset: 0; stroke: #708090; stroke-width: 2"/>
   </g>
   <g id="line2d_56">
    <path d="M 165.7206 224.9208 
L 165.7206 224.9208 
L 165.720602 224.920799 
L 165.720621 224.92079 
L 165.720636 224.920783 
L 165.720647 224.920788 
L 165.720655 224.920803 
L 165.720661 224.920807 
L 165.720666 224.920806 
L 165.720669 224.920799 
L 165.720672 224.920786 
" clip-path="url(#p092b062aa9)" style="fill: none; stroke: #708090; stroke-width: 2; stroke-linecap: square"/>
   </g>
   <g id="line2d_57">
    <path clip-path="url(#p092b062aa9)" style="fill: none; stroke-dasharray: 2,3.3; stroke-dashoffset: 0; stroke: #bdb76b; stroke-width: 2"/>
   </g>
   <g id="line2d_58">
    <path clip-path="url(#p092b062aa9)" style="fill: none; stroke: #bdb76b; stroke-width: 2; stroke-linecap: square"/>
   </g>
   <g id="patch_3">
    <path d="M 100.8558 224.9208 
L 100.8558 30.3264 
" style="fill: none; stroke: #000000; stroke-width: 0.8; stroke-linejoin: miter; stroke-linecap: square"/>
   </g>
   <g id="patch_4">
    <path d="M 295.4502 224.9208 
L 295.4502 30.3264 
" style="fill: none; stroke: #000000; stroke-width: 0.8; stroke-linejoin: miter; stroke-linecap: square"/>
   </g>
   <g id="patch_5">
    <path d="M 100.8558 224.9208 
L 295.4502 224.9208 
" style="fill: none; stroke: #000000; stroke-width: 0.8; stroke-linejoin: miter; stroke-linecap: square"/>
   </g>
   <g id="patch_6">
    <path d="M 100.8558 30.3264 
L 295.4502 30.3264 
" style="fill: none; stroke: #000000; stroke-width: 0.8; stroke-linejoin: miter; stroke-linecap: square"/>
   </g>
   <g id="patch_7">
    <path d="M 225.536461 137.24992 
C 228.116813 137.24992 230.591828 136.224735 232.416412 134.400151 
C 234.240997 132.575566 235.266181 130.100552 235.266181 127.5202 
C 235.266181 124.939848 234.240997 122.464833 232.416412 120.640249 
C 230.591828 118.815664 228.116813 117.79048 225.536461 117.79048 
C 222.956109 117.79048 220.481095 118.815664 218.65651 120.640249 
C 216.831926 122.464833 215.806741 124.939848 215.806741 127.5202 
C 215.806741 130.100552 216.831926 132.575566 218.65651 134.400151 
C 220.481095 136.224735 222.956109 137.24992 225.536461 137.24992 
z
" clip-path="url(#p092b062aa9)" style="fill: #1f77b4; stroke: #000000; stroke-linejoin: miter"/>
   </g>
   <g id="patch_8">
    <path d="M 211.999015 156.826441 
C 214.579367 156.826441 217.054382 155.801256 218.878966 153.976672 
C 220.70355 152.152087 221.728735 149.677073 221.728735 147.096721 
C 221.728735 144.516369 220.70355 142.041354 218.878966 140.21677 
C 217.054382 138.392185 214.579367 137.367001 211.999015 137.367001 
C 209.418663 137.367001 206.943648 138.392185 205.119064 140.21677 
C 203.29448 142.041354 202.269295 144.516369 202.269295 147.096721 
C 202.269295 149.677073 203.29448 152.152087 205.119064 153.976672 
C 206.943648 155.801256 209.418663 156.826441 211.999015 156.826441 
z
" clip-path="url(#p092b062aa9)" style="fill: #ff7f0e; stroke: #000000; stroke-linejoin: miter"/>
   </g>
   <g id="patch_9">
    <path d="M 133.288228 104.920806 
C 135.868579 104.920806 138.343594 103.895622 140.168179 102.071037 
C 141.992763 100.246453 143.017948 97.771438 143.017948 95.191086 
C 143.017948 92.610735 141.992763 90.13572 140.168179 88.311135 
C 138.343594 86.486551 135.868579 85.461366 133.288228 85.461366 
C 130.707876 85.461366 128.232861 86.486551 126.408277 88.311135 
C 124.583692 90.13572 123.558508 92.610735 123.558508 95.191086 
C 123.558508 97.771438 124.583692 100.246453 126.408277 102.071037 
C 128.232861 103.895622 130.707876 104.920806 133.288228 104.920806 
z
" clip-path="url(#p092b062aa9)" style="fill: #2ca02c; stroke: #000000; stroke-linejoin: miter"/>
   </g>
   <g id="patch_10">
    <path d="M 165.720281 104.920744 
C 168.300633 104.920744 170.775647 103.895559 172.600232 102.070975 
C 174.424816 100.24639 175.450001 97.771376 175.450001 95.191024 
C 175.450001 92.610672 174.424816 90.135657 172.600232 88.311073 
C 170.775647 86.486488 168.300633 85.461304 165.720281 85.461304 
C 163.139929 85.461304 160.664914 86.486488 158.84033 88.311073 
C 157.015745 90.135657 155.990561 92.610672 155.990561 95.191024 
C 155.990561 97.771376 157.015745 100.24639 158.84033 102.070975 
C 160.664914 103.895559 163.139929 104.920744 165.720281 104.920744 
z
" clip-path="url(#p092b062aa9)" style="fill: #d62728; stroke: #000000; stroke-linejoin: miter"/>
   </g>
   <g id="patch_11">
    <path d="M 230.585553 104.920942 
C 233.165905 104.920942 235.64092 103.895757 237.465504 102.071173 
C 239.290088 100.246588 240.315273 97.771574 240.315273 95.191222 
C 240.315273 92.61087 239.290088 90.135855 237.465504 88.311271 
C 235.64092 86.486686 233.165905 85.461502 230.585553 85.461502 
C 228.005201 85.461502 225.530187 86.486686 223.705602 88.311271 
C 221.881018 90.135855 220.855833 92.61087 220.855833 95.191222 
C 220.855833 97.771574 221.881018 100.246588 223.705602 102.071173 
C 225.530187 103.895757 228.005201 104.920942 230.585553 104.920942 
z
" clip-path="url(#p092b062aa9)" style="fill: #9467bd; stroke: #000000; stroke-linejoin: miter"/>
   </g>
   <g id="patch_12">
    <path d="M 263.017817 104.920855 
C 265.598169 104.920855 268.073184 103.89567 269.897768 102.071086 
C 271.722352 100.246502 272.747537 97.771487 272.747537 95.191135 
C 272.747537 92.610783 271.722352 90.135768 269.897768 88.311184 
C 268.073184 86.4866 265.598169 85.461415 263.017817 85.461415 
C 260.437465 85.461415 257.96245 86.4866 256.137866 88.311184 
C 254.313282 90.135768 253.288097 92.610783 253.288097 95.191135 
C 253.288097 97.771487 254.313282 100.246502 256.137866 102.071086 
C 257.96245 103.89567 260.437465 104.920855 263.017817 104.920855 
z
" clip-path="url(#p092b062aa9)" style="fill: #8c564b; stroke: #000000; stroke-linejoin: miter"/>
   </g>
   <g id="patch_13">
    <path d="M 133.288218 169.785792 
C 135.86857 169.785792 138.343584 168.760608 140.168169 166.936023 
C 141.992753 165.111439 143.017938 162.636424 143.017938 160.056072 
C 143.017938 157.47572 141.992753 155.000706 140.168169 153.176121 
C 138.343584 151.351537 135.86857 150.326352 133.288218 150.326352 
C 130.707866 150.326352 128.232851 151.351537 126.408267 153.176121 
C 124.583682 155.000706 123.558498 157.47572 123.558498 160.056072 
C 123.558498 162.636424 124.583682 165.111439 126.408267 166.936023 
C 128.232851 168.760608 130.707866 169.785792 133.288218 169.785792 
z
" clip-path="url(#p092b062aa9)" style="fill: #e377c2; stroke: #000000; stroke-linejoin: miter"/>
   </g>
   <g id="patch_14">
    <path d="M 165.720405 169.785257 
C 168.300757 169.785257 170.775771 168.760072 172.600356 166.935488 
C 174.42494 165.110904 175.450125 162.635889 175.450125 160.055537 
C 175.450125 157.475185 174.42494 155.00017 172.600356 153.175586 
C 170.775771 151.351002 168.300757 150.325817 165.720405 150.325817 
C 163.140053 150.325817 160.665038 151.351002 158.840454 153.175586 
C 157.015869 155.00017 155.990685 157.475185 155.990685 160.055537 
C 155.990685 162.635889 157.015869 165.110904 158.840454 166.935488 
C 160.665038 168.760072 163.140053 169.785257 165.720405 169.785257 
z
" clip-path="url(#p092b062aa9)" style="fill: #7f7f7f; stroke: #000000; stroke-linejoin: miter"/>
   </g>
   <g id="patch_15">
    <path d="M 230.585475 169.785711 
C 233.165826 169.785711 235.640841 168.760527 237.465426 166.935942 
C 239.29001 165.111358 240.315195 162.636343 240.315195 160.055991 
C 240.315195 157.475639 239.29001 155.000625 237.465426 153.17604 
C 235.640841 151.351456 233.165826 150.326271 230.585475 150.326271 
C 228.005123 150.326271 225.530108 151.351456 223.705524 153.17604 
C 221.880939 155.000625 220.855755 157.475639 220.855755 160.055991 
C 220.855755 162.636343 221.880939 165.111358 223.705524 166.935942 
C 225.530108 168.760527 228.005123 169.785711 230.585475 169.785711 
z
" clip-path="url(#p092b062aa9)" style="fill: #bcbd22; stroke: #000000; stroke-linejoin: miter"/>
   </g>
   <g id="patch_16">
    <path d="M 263.017789 169.785809 
C 265.598141 169.785809 268.073156 168.760624 269.89774 166.93604 
C 271.722325 165.111455 272.747509 162.636441 272.747509 160.056089 
C 272.747509 157.475737 271.722325 155.000722 269.89774 153.176138 
C 268.073156 151.351553 265.598141 150.326369 263.017789 150.326369 
C 260.437437 150.326369 257.962423 151.351553 256.137838 153.176138 
C 254.313254 155.000722 253.288069 157.475737 253.288069 160.056089 
C 253.288069 162.636441 254.313254 165.111455 256.137838 166.93604 
C 257.962423 168.760624 260.437437 169.785809 263.017789 169.785809 
z
" clip-path="url(#p092b062aa9)" style="fill: #17becf; stroke: #000000; stroke-linejoin: miter"/>
   </g>
   <g id="patch_17">
    <path d="M 230.585416 72.488485 
C 233.165768 72.488485 235.640783 71.4633 237.465367 69.638716 
C 239.289952 67.814131 240.315136 65.339117 240.315136 62.758765 
C 240.315136 60.178413 239.289952 57.703398 237.465367 55.878814 
C 235.640783 54.054229 233.165768 53.029045 230.585416 53.029045 
C 228.005065 53.029045 225.53005 54.054229 223.705465 55.878814 
C 221.880881 57.703398 220.855696 60.178413 220.855696 62.758765 
C 220.855696 65.339117 221.880881 67.814131 223.705465 69.638716 
C 225.53005 71.4633 228.005065 72.488485 230.585416 72.488485 
z
" clip-path="url(#p092b062aa9)" style="fill: #2f4f4f; stroke: #000000; stroke-linejoin: miter"/>
   </g>
   <g id="patch_18">
    <path d="M 230.58528 40.056382 
C 233.165632 40.056382 235.640647 39.031197 237.465231 37.206612 
C 239.289815 35.382028 240.315 32.907013 240.315 30.326662 
C 240.315 27.74631 239.289815 25.271295 237.465231 23.446711 
C 235.640647 21.622126 233.165632 20.596942 230.58528 20.596942 
C 228.004928 20.596942 225.529913 21.622126 223.705329 23.446711 
C 221.880745 25.271295 220.85556 27.74631 220.85556 30.326662 
C 220.85556 32.907013 221.880745 35.382028 223.705329 37.206612 
C 225.529913 39.031197 228.004928 40.056382 230.58528 40.056382 
z
" clip-path="url(#p092b062aa9)" style="fill: #cd5c5c; stroke: #000000; stroke-linejoin: miter"/>
   </g>
   <g id="patch_19">
    <path d="M 230.585464 7.623717 
C 233.165815 7.623717 235.64083 6.598533 237.465415 4.773948 
C 239.289999 2.949364 240.315184 0.474349 240.315184 -2.106003 
C 240.315184 -4.686355 239.289999 -7.161369 237.465415 -8.985954 
C 235.64083 -10.810538 233.165815 -11.835723 230.585464 -11.835723 
C 228.005112 -11.835723 225.530097 -10.810538 223.705513 -8.985954 
C 221.880928 -7.161369 220.855744 -4.686355 220.855744 -2.106003 
C 220.855744 0.474349 221.880928 2.949364 223.705513 4.773948 
C 225.530097 6.598533 228.005112 7.623717 230.585464 7.623717 
z
" clip-path="url(#p092b062aa9)" style="fill: #add8e6; stroke: #000000; stroke-linejoin: miter"/>
   </g>
   <g id="patch_20">
    <path d="M 230.585436 202.218153 
C 233.165788 202.218153 235.640802 201.192969 237.465387 199.368384 
C 239.289971 197.5438 240.315156 195.068785 240.315156 192.488433 
C 240.315156 189.908081 239.289971 187.433067 237.465387 185.608482 
C 235.640802 183.783898 233.165788 182.758713 230.585436 182.758713 
C 228.005084 182.758713 225.530069 183.783898 223.705485 185.608482 
C 221.8809 187.433067 220.855716 189.908081 220.855716 192.488433 
C 220.855716 195.068785 221.8809 197.5438 223.705485 199.368384 
C 225.530069 201.192969 228.005084 202.218153 230.585436 202.218153 
z
" clip-path="url(#p092b062aa9)" style="fill: #663399; stroke: #000000; stroke-linejoin: miter"/>
   </g>
   <g id="patch_21">
    <path d="M 230.585339 234.650575 
C 233.165691 234.650575 235.640706 233.625391 237.46529 231.800806 
C 239.289875 229.976222 240.315059 227.501207 240.315059 224.920855 
C 240.315059 222.340503 239.289875 219.865489 237.46529 218.040904 
C 235.640706 216.21632 233.165691 215.191135 230.585339 215.191135 
C 228.004988 215.191135 225.529973 216.21632 223.705388 218.040904 
C 221.880804 219.865489 220.855619 222.340503 220.855619 224.920855 
C 220.855619 227.501207 221.880804 229.976222 223.705388 231.800806 
C 225.529973 233.625391 228.004988 234.650575 230.585339 234.650575 
z
" clip-path="url(#p092b062aa9)" style="fill: #8fbc8f; stroke: #000000; stroke-linejoin: miter"/>
   </g>
   <g id="patch_22">
    <path d="M 230.585726 267.082903 
C 233.166078 267.082903 235.641093 266.057718 237.465677 264.233134 
C 239.290262 262.408549 240.315446 259.933535 240.315446 257.353183 
C 240.315446 254.772831 239.290262 252.297816 237.465677 250.473232 
C 235.641093 248.648647 233.166078 247.623463 230.585726 247.623463 
C 228.005375 247.623463 225.53036 248.648647 223.705775 250.473232 
C 221.881191 252.297816 220.856006 254.772831 220.856006 257.353183 
C 220.856006 259.933535 221.881191 262.408549 223.705775 264.233134 
C 225.53036 266.057718 228.005375 267.082903 230.585726 267.082903 
z
" clip-path="url(#p092b062aa9)" style="fill: #00ced1; stroke: #000000; stroke-linejoin: miter"/>
   </g>
   <g id="patch_23">
    <path d="M 165.720599 72.488446 
C 168.30095 72.488446 170.775965 71.463261 172.60055 69.638677 
C 174.425134 67.814093 175.450319 65.339078 175.450319 62.758726 
C 175.450319 60.178374 174.425134 57.703359 172.60055 55.878775 
C 170.775965 54.054191 168.30095 53.029006 165.720599 53.029006 
C 163.140247 53.029006 160.665232 54.054191 158.840648 55.878775 
C 157.016063 57.703359 155.990879 60.178374 155.990879 62.758726 
C 155.990879 65.339078 157.016063 67.814093 158.840648 69.638677 
C 160.665232 71.463261 163.140247 72.488446 165.720599 72.488446 
z
" clip-path="url(#p092b062aa9)" style="fill: #6a5acd; stroke: #000000; stroke-linejoin: miter"/>
   </g>
   <g id="patch_24">
    <path d="M 165.720622 40.05605 
C 168.300974 40.05605 170.775989 39.030865 172.600573 37.206281 
C 174.425157 35.381696 175.450342 32.906682 175.450342 30.32633 
C 175.450342 27.745978 174.425157 25.270963 172.600573 23.446379 
C 170.775989 21.621794 168.300974 20.59661 165.720622 20.59661 
C 163.14027 20.59661 160.665255 21.621794 158.840671 23.446379 
C 157.016087 25.270963 155.990902 27.745978 155.990902 30.32633 
C 155.990902 32.906682 157.016087 35.381696 158.840671 37.206281 
C 160.665255 39.030865 163.14027 40.05605 165.720622 40.05605 
z
" clip-path="url(#p092b062aa9)" style="fill: #808000; stroke: #000000; stroke-linejoin: miter"/>
   </g>
   <g id="patch_25">
    <path d="M 165.720575 7.623732 
C 168.300926 7.623732 170.775941 6.598547 172.600525 4.773963 
C 174.42511 2.949378 175.450295 0.474364 175.450295 -2.105988 
C 175.450295 -4.68634 174.42511 -7.161355 172.600525 -8.985939 
C 170.775941 -10.810524 168.300926 -11.835708 165.720575 -11.835708 
C 163.140223 -11.835708 160.665208 -10.810524 158.840624 -8.985939 
C 157.016039 -7.161355 155.990855 -4.68634 155.990855 -2.105988 
C 155.990855 0.474364 157.016039 2.949378 158.840624 4.773963 
C 160.665208 6.598547 163.140223 7.623732 165.720575 7.623732 
z
" clip-path="url(#p092b062aa9)" style="fill: #a0522d; stroke: #000000; stroke-linejoin: miter"/>
   </g>
   <g id="patch_26">
    <path d="M 165.720505 202.218406 
C 168.300857 202.218406 170.775872 201.193221 172.600456 199.368637 
C 174.425041 197.544053 175.450225 195.069038 175.450225 192.488686 
C 175.450225 189.908334 174.425041 187.433319 172.600456 185.608735 
C 170.775872 183.784151 168.300857 182.758966 165.720505 182.758966 
C 163.140153 182.758966 160.665139 183.784151 158.840554 185.608735 
C 157.01597 187.433319 155.990785 189.908334 155.990785 192.488686 
C 155.990785 195.069038 157.01597 197.544053 158.840554 199.368637 
C 160.665139 201.193221 163.140153 202.218406 165.720505 202.218406 
z
" clip-path="url(#p092b062aa9)" style="fill: #ff4500; stroke: #000000; stroke-linejoin: miter"/>
   </g>
   <g id="patch_27">
    <path d="M 165.720672 234.650506 
C 168.301024 234.650506 170.776039 233.625321 172.600623 231.800737 
C 174.425207 229.976153 175.450392 227.501138 175.450392 224.920786 
C 175.450392 222.340434 174.425207 219.865419 172.600623 218.040835 
C 170.776039 216.216251 168.301024 215.191066 165.720672 215.191066 
C 163.14032 215.191066 160.665305 216.216251 158.840721 218.040835 
C 157.016137 219.865419 155.990952 222.340434 155.990952 224.920786 
C 155.990952 227.501138 157.016137 229.976153 158.840721 231.800737 
C 160.665305 233.625321 163.14032 234.650506 165.720672 234.650506 
z
" clip-path="url(#p092b062aa9)" style="fill: #708090; stroke: #000000; stroke-linejoin: miter"/>
   </g>
   <g id="patch_28">
    <path d="M 165.720244 267.082899 
C 168.300596 267.082899 170.775611 266.057714 172.600195 264.23313 
C 174.424779 262.408545 175.449964 259.933531 175.449964 257.353179 
C 175.449964 254.772827 174.424779 252.297812 172.600195 250.473228 
C 170.775611 248.648643 168.300596 247.623459 165.720244 247.623459 
C 163.139892 247.623459 160.664877 248.648643 158.840293 250.473228 
C 157.015709 252.297812 155.990524 254.772827 155.990524 257.353179 
C 155.990524 259.933531 157.015709 262.408545 158.840293 264.23313 
C 160.664877 266.057714 163.139892 267.082899 165.720244 267.082899 
z
" clip-path="url(#p092b062aa9)" style="fill: #bdb76b; stroke: #000000; stroke-linejoin: miter"/>
   </g>
   <g id="line2d_59">
    <path d="M 263.0178 127.6236 
" clip-path="url(#p092b062aa9)" style="fill: none; stroke: #1f77b4; stroke-width: 1.5; stroke-linecap: square"/>
    <defs>
     <path id="m5fc4be3f33" d="M 0 4.949747 
L 2.969848 0 
L 0 -4.949747 
L -2.969848 0 
z
" style="stroke: #000000; stroke-linejoin: miter"/>
    </defs>
    <g clip-path="url(#p092b062aa9)">
     <use xlink:href="#m5fc4be3f33" x="263.0178" y="127.6236" style="fill: #1f77b4; stroke: #000000; stroke-linejoin: miter"/>
    </g>
   </g>
   <g id="line2d_60">
    <path d="M 263.0178 127.6236 
" clip-path="url(#p092b062aa9)" style="fill: none; stroke: #ff7f0e; stroke-width: 1.5; stroke-linecap: square"/>
    <defs>
     <path id="m6dee43ad4b" d="M 0 4.949747 
L 2.969848 0 
L 0 -4.949747 
L -2.969848 0 
z
" style="stroke: #000000; stroke-linejoin: miter"/>
    </defs>
    <g clip-path="url(#p092b062aa9)">
     <use xlink:href="#m6dee43ad4b" x="263.0178" y="127.6236" style="fill: #ff7f0e; stroke: #000000; stroke-linejoin: miter"/>
    </g>
   </g>
   <g id="line2d_61">
    <path d="M 133.2882 95.1912 
" clip-path="url(#p092b062aa9)" style="fill: none; stroke: #2ca02c; stroke-width: 1.5; stroke-linecap: square"/>
    <defs>
     <path id="m5770965524" d="M 0 4.949747 
L 2.969848 0 
L 0 -4.949747 
L -2.969848 0 
z
" style="stroke: #000000; stroke-linejoin: miter"/>
    </defs>
    <g clip-path="url(#p092b062aa9)">
     <use xlink:href="#m5770965524" x="133.2882" y="95.1912" style="fill: #2ca02c; stroke: #000000; stroke-linejoin: miter"/>
    </g>
   </g>
   <g id="line2d_62">
    <path d="M 165.7206 95.1912 
" clip-path="url(#p092b062aa9)" style="fill: none; stroke: #d62728; stroke-width: 1.5; stroke-linecap: square"/>
    <defs>
     <path id="m0c89ba24f4" d="M 0 4.949747 
L 2.969848 0 
L 0 -4.949747 
L -2.969848 0 
z
" style="stroke: #000000; stroke-linejoin: miter"/>
    </defs>
    <g clip-path="url(#p092b062aa9)">
     <use xlink:href="#m0c89ba24f4" x="165.7206" y="95.1912" style="fill: #d62728; stroke: #000000; stroke-linejoin: miter"/>
    </g>
   </g>
   <g id="line2d_63">
    <path d="M 230.5854 95.1912 
" clip-path="url(#p092b062aa9)" style="fill: none; stroke: #9467bd; stroke-width: 1.5; stroke-linecap: square"/>
    <defs>
     <path id="m04dc1d20a8" d="M 0 4.949747 
L 2.969848 0 
L 0 -4.949747 
L -2.969848 0 
z
" style="stroke: #000000; stroke-linejoin: miter"/>
    </defs>
    <g clip-path="url(#p092b062aa9)">
     <use xlink:href="#m04dc1d20a8" x="230.5854" y="95.1912" style="fill: #9467bd; stroke: #000000; stroke-linejoin: miter"/>
    </g>
   </g>
   <g id="line2d_64">
    <path d="M 263.0178 95.1912 
" clip-path="url(#p092b062aa9)" style="fill: none; stroke: #8c564b; stroke-width: 1.5; stroke-linecap: square"/>
    <defs>
     <path id="mfd33951cf0" d="M 0 4.949747 
L 2.969848 0 
L 0 -4.949747 
L -2.969848 0 
z
" style="stroke: #000000; stroke-linejoin: miter"/>
    </defs>
    <g clip-path="url(#p092b062aa9)">
     <use xlink:href="#mfd33951cf0" x="263.0178" y="95.1912" style="fill: #8c564b; stroke: #000000; stroke-linejoin: miter"/>
    </g>
   </g>
   <g id="line2d_65">
    <path d="M 133.2882 160.056 
" clip-path="url(#p092b062aa9)" style="fill: none; stroke: #e377c2; stroke-width: 1.5; stroke-linecap: square"/>
    <defs>
     <path id="mb45ea5f9ac" d="M 0 4.949747 
L 2.969848 0 
L 0 -4.949747 
L -2.969848 0 
z
" style="stroke: #000000; stroke-linejoin: miter"/>
    </defs>
    <g clip-path="url(#p092b062aa9)">
     <use xlink:href="#mb45ea5f9ac" x="133.2882" y="160.056" style="fill: #e377c2; stroke: #000000; stroke-linejoin: miter"/>
    </g>
   </g>
   <g id="line2d_66">
    <path d="M 165.7206 160.056 
" clip-path="url(#p092b062aa9)" style="fill: none; stroke: #7f7f7f; stroke-width: 1.5; stroke-linecap: square"/>
    <defs>
     <path id="mf55eaaeebe" d="M 0 4.949747 
L 2.969848 0 
L 0 -4.949747 
L -2.969848 0 
z
" style="stroke: #000000; stroke-linejoin: miter"/>
    </defs>
    <g clip-path="url(#p092b062aa9)">
     <use xlink:href="#mf55eaaeebe" x="165.7206" y="160.056" style="fill: #7f7f7f; stroke: #000000; stroke-linejoin: miter"/>
    </g>
   </g>
   <g id="line2d_67">
    <path d="M 230.5854 160.056 
" clip-path="url(#p092b062aa9)" style="fill: none; stroke: #bcbd22; stroke-width: 1.5; stroke-linecap: square"/>
    <defs>
     <path id="m4b08263d2b" d="M 0 4.949747 
L 2.969848 0 
L 0 -4.949747 
L -2.969848 0 
z
" style="stroke: #000000; stroke-linejoin: miter"/>
    </defs>
    <g clip-path="url(#p092b062aa9)">
     <use xlink:href="#m4b08263d2b" x="230.5854" y="160.056" style="fill: #bcbd22; stroke: #000000; stroke-linejoin: miter"/>
    </g>
   </g>
   <g id="line2d_68">
    <path d="M 263.0178 160.056 
" clip-path="url(#p092b062aa9)" style="fill: none; stroke: #17becf; stroke-width: 1.5; stroke-linecap: square"/>
    <defs>
     <path id="m81700bf793" d="M 0 4.949747 
L 2.969848 0 
L 0 -4.949747 
L -2.969848 0 
z
" style="stroke: #000000; stroke-linejoin: miter"/>
    </defs>
    <g clip-path="url(#p092b062aa9)">
     <use xlink:href="#m81700bf793" x="263.0178" y="160.056" style="fill: #17becf; stroke: #000000; stroke-linejoin: miter"/>
    </g>
   </g>
   <g id="line2d_69">
    <path d="M 230.5854 62.7588 
" clip-path="url(#p092b062aa9)" style="fill: none; stroke: #2f4f4f; stroke-width: 1.5; stroke-linecap: square"/>
    <defs>
     <path id="m3fdc0e1c34" d="M 0 4.949747 
L 2.969848 0 
L 0 -4.949747 
L -2.969848 0 
z
" style="stroke: #000000; stroke-linejoin: miter"/>
    </defs>
    <g clip-path="url(#p092b062aa9)">
     <use xlink:href="#m3fdc0e1c34" x="230.5854" y="62.7588" style="fill: #2f4f4f; stroke: #000000; stroke-linejoin: miter"/>
    </g>
   </g>
   <g id="line2d_70">
    <path d="M 230.5854 30.3264 
" clip-path="url(#p092b062aa9)" style="fill: none; stroke: #cd5c5c; stroke-width: 1.5; stroke-linecap: square"/>
    <defs>
     <path id="m9afc4e5070" d="M 0 4.949747 
L 2.969848 0 
L 0 -4.949747 
L -2.969848 0 
z
" style="stroke: #000000; stroke-linejoin: miter"/>
    </defs>
    <g clip-path="url(#p092b062aa9)">
     <use xlink:href="#m9afc4e5070" x="230.5854" y="30.3264" style="fill: #cd5c5c; stroke: #000000; stroke-linejoin: miter"/>
    </g>
   </g>
   <g id="line2d_71">
    <path clip-path="url(#p092b062aa9)" style="fill: none; stroke: #add8e6; stroke-width: 1.5; stroke-linecap: square"/>
    <defs>
     <path id="m7d549175d9" d="M 0 4.949747 
L 2.969848 0 
L 0 -4.949747 
L -2.969848 0 
z
" style="stroke: #000000; stroke-linejoin: miter"/>
    </defs>
    <g clip-path="url(#p092b062aa9)"/>
   </g>
   <g id="line2d_72">
    <path d="M 230.5854 192.4884 
" clip-path="url(#p092b062aa9)" style="fill: none; stroke: #663399; stroke-width: 1.5; stroke-linecap: square"/>
    <defs>
     <path id="m074b45a4b0" d="M 0 4.949747 
L 2.969848 0 
L 0 -4.949747 
L -2.969848 0 
z
" style="stroke: #000000; stroke-linejoin: miter"/>
    </defs>
    <g clip-path="url(#p092b062aa9)">
     <use xlink:href="#m074b45a4b0" x="230.5854" y="192.4884" style="fill: #663399; stroke: #000000; stroke-linejoin: miter"/>
    </g>
   </g>
   <g id="line2d_73">
    <path d="M 230.5854 224.9208 
" clip-path="url(#p092b062aa9)" style="fill: none; stroke: #8fbc8f; stroke-width: 1.5; stroke-linecap: square"/>
    <defs>
     <path id="mb7d2ba8a99" d="M 0 4.949747 
L 2.969848 0 
L 0 -4.949747 
L -2.969848 0 
z
" style="stroke: #000000; stroke-linejoin: miter"/>
    </defs>
    <g clip-path="url(#p092b062aa9)">
     <use xlink:href="#mb7d2ba8a99" x="230.5854" y="224.9208" style="fill: #8fbc8f; stroke: #000000; stroke-linejoin: miter"/>
    </g>
   </g>
   <g id="line2d_74">
    <path clip-path="url(#p092b062aa9)" style="fill: none; stroke: #00ced1; stroke-width: 1.5; stroke-linecap: square"/>
    <defs>
     <path id="m2c72ff0428" d="M 0 4.949747 
L 2.969848 0 
L 0 -4.949747 
L -2.969848 0 
z
" style="stroke: #000000; stroke-linejoin: miter"/>
    </defs>
    <g clip-path="url(#p092b062aa9)">
     <use xlink:href="#m2c72ff0428" x="230.5854" y="257.3532" style="fill: #00ced1; stroke: #000000; stroke-linejoin: miter"/>
    </g>
   </g>
   <g id="line2d_75">
    <path d="M 165.7206 62.7588 
" clip-path="url(#p092b062aa9)" style="fill: none; stroke: #6a5acd; stroke-width: 1.5; stroke-linecap: square"/>
    <defs>
     <path id="m3e6259475a" d="M 0 4.949747 
L 2.969848 0 
L 0 -4.949747 
L -2.969848 0 
z
" style="stroke: #000000; stroke-linejoin: miter"/>
    </defs>
    <g clip-path="url(#p092b062aa9)">
     <use xlink:href="#m3e6259475a" x="165.7206" y="62.7588" style="fill: #6a5acd; stroke: #000000; stroke-linejoin: miter"/>
    </g>
   </g>
   <g id="line2d_76">
    <path d="M 165.7206 30.3264 
" clip-path="url(#p092b062aa9)" style="fill: none; stroke: #808000; stroke-width: 1.5; stroke-linecap: square"/>
    <defs>
     <path id="mf981aae2bf" d="M 0 4.949747 
L 2.969848 0 
L 0 -4.949747 
L -2.969848 0 
z
" style="stroke: #000000; stroke-linejoin: miter"/>
    </defs>
    <g clip-path="url(#p092b062aa9)">
     <use xlink:href="#mf981aae2bf" x="165.7206" y="30.3264" style="fill: #808000; stroke: #000000; stroke-linejoin: miter"/>
    </g>
   </g>
   <g id="line2d_77">
    <path clip-path="url(#p092b062aa9)" style="fill: none; stroke: #a0522d; stroke-width: 1.5; stroke-linecap: square"/>
    <defs>
     <path id="m2cf45b722c" d="M 0 4.949747 
L 2.969848 0 
L 0 -4.949747 
L -2.969848 0 
z
" style="stroke: #000000; stroke-linejoin: miter"/>
    </defs>
    <g clip-path="url(#p092b062aa9)"/>
   </g>
   <g id="line2d_78">
    <path d="M 165.7206 192.4884 
" clip-path="url(#p092b062aa9)" style="fill: none; stroke: #ff4500; stroke-width: 1.5; stroke-linecap: square"/>
    <defs>
     <path id="m54bd46cce2" d="M 0 4.949747 
L 2.969848 0 
L 0 -4.949747 
L -2.969848 0 
z
" style="stroke: #000000; stroke-linejoin: miter"/>
    </defs>
    <g clip-path="url(#p092b062aa9)">
     <use xlink:href="#m54bd46cce2" x="165.7206" y="192.4884" style="fill: #ff4500; stroke: #000000; stroke-linejoin: miter"/>
    </g>
   </g>
   <g id="line2d_79">
    <path d="M 165.7206 224.9208 
" clip-path="url(#p092b062aa9)" style="fill: none; stroke: #708090; stroke-width: 1.5; stroke-linecap: square"/>
    <defs>
     <path id="m252d601ab1" d="M 0 4.949747 
L 2.969848 0 
L 0 -4.949747 
L -2.969848 0 
z
" style="stroke: #000000; stroke-linejoin: miter"/>
    </defs>
    <g clip-path="url(#p092b062aa9)">
     <use xlink:href="#m252d601ab1" x="165.7206" y="224.9208" style="fill: #708090; stroke: #000000; stroke-linejoin: miter"/>
    </g>
   </g>
   <g id="line2d_80">
    <path clip-path="url(#p092b062aa9)" style="fill: none; stroke: #bdb76b; stroke-width: 1.5; stroke-linecap: square"/>
    <defs>
     <path id="m97fdf43684" d="M 0 4.949747 
L 2.969848 0 
L 0 -4.949747 
L -2.969848 0 
z
" style="stroke: #000000; stroke-linejoin: miter"/>
    </defs>
    <g clip-path="url(#p092b062aa9)">
     <use xlink:href="#m97fdf43684" x="165.7206" y="257.3532" style="fill: #bdb76b; stroke: #000000; stroke-linejoin: miter"/>
    </g>
   </g>
  </g>
 </g>
 <defs>
  <clipPath id="p092b062aa9">
   <rect x="100.8558" y="30.3264" width="194.5944" height="194.5944"/>
  </clipPath>
 </defs>
</svg>
