<?xml version="1.0" encoding="utf-8" standalone="no"?>
<!DOCTYPE svg PUBLIC "-//W3C//DTD SVG 1.1//EN"
  "http://www.w3.org/Graphics/SVG/1.1/DTD/svg11.dtd">
<svg xmlns:xlink="http://www.w3.org/1999/xlink" width="386.64pt" height="252.72pt" viewBox="0 0 386.64 252.72" xmlns="http://www.w3.org/2000/svg" version="1.1">
 <metadata>
  <rdf:RDF xmlns:dc="http://purl.org/dc/elements/1.1/" xmlns:cc="http://creativecommons.org/ns#" xmlns:rdf="http://www.w3.org/1999/02/22-rdf-syntax-ns#">
   <cc:Work>
    <dc:type rdf:resource="http://purl.org/dc/dcmitype/StillImage"/>
    <dc:date>2023-07-11T22:26:56.190884</dc:date>
    <dc:format>image/svg+xml</dc:format>
    <dc:creator>
     <cc:Agent>
      <dc:title>Matplotlib v3.6.2, https://matplotlib.org/</dc:title>
     </cc:Agent>
    </dc:creator>
   </cc:Work>
  </rdf:RDF>
 </metadata>
 <defs>
  <style type="text/css">*{stroke-linejoin: round; stroke-linecap: butt}</style>
 </defs>
 <g id="figure_1">
  <g id="patch_1">
   <path d="M 0 252.72 
L 386.64 252.72 
L 386.64 0 
L 0 0 
z
" style="fill: #ffffff"/>
  </g>
  <g id="axes_1">
   <g id="patch_2">
    <path d="M 100.8558 224.9208 
L 295.4502 224.9208 
L 295.4502 30.3264 
L 100.8558 30.3264 
z
" style="fill: #ffffff"/>
   </g>
   <g id="matplotlib.axis_1">
    <g id="xtick_1">
     <g id="line2d_1">
      <defs>
       <path id="m1759b7d198" d="M 0 0 
L 0 3.5 
" style="stroke: #000000; stroke-width: 0.8"/>
      </defs>
      <g>
       <use xlink:href="#m1759b7d198" x="100.8558" y="224.9208" style="stroke: #000000; stroke-width: 0.8"/>
      </g>
     </g>
     <g id="text_1">
      <!-- −0.5 -->
      <g transform="translate(88.714394 239.519237) scale(0.1 -0.1)">
       <defs>
        <path id="DejaVuSans-2212" d="M 678 2272 
L 4684 2272 
L 4684 1741 
L 678 1741 
L 678 2272 
z
" transform="scale(0.015625)"/>
        <path id="DejaVuSans-30" d="M 2034 4250 
Q 1547 4250 1301 3770 
Q 1056 3291 1056 2328 
Q 1056 1369 1301 889 
Q 1547 409 2034 409 
Q 2525 409 2770 889 
Q 3016 1369 3016 2328 
Q 3016 3291 2770 3770 
Q 2525 4250 2034 4250 
z
M 2034 4750 
Q 2819 4750 3233 4129 
Q 3647 3509 3647 2328 
Q 3647 1150 3233 529 
Q 2819 -91 2034 -91 
Q 1250 -91 836 529 
Q 422 1150 422 2328 
Q 422 3509 836 4129 
Q 1250 4750 2034 4750 
z
" transform="scale(0.015625)"/>
        <path id="DejaVuSans-2e" d="M 684 794 
L 1344 794 
L 1344 0 
L 684 0 
L 684 794 
z
" transform="scale(0.015625)"/>
        <path id="DejaVuSans-35" d="M 691 4666 
L 3169 4666 
L 3169 4134 
L 1269 4134 
L 1269 2991 
Q 1406 3038 1543 3061 
Q 1681 3084 1819 3084 
Q 2600 3084 3056 2656 
Q 3513 2228 3513 1497 
Q 3513 744 3044 326 
Q 2575 -91 1722 -91 
Q 1428 -91 1123 -41 
Q 819 9 494 109 
L 494 744 
Q 775 591 1075 516 
Q 1375 441 1709 441 
Q 2250 441 2565 725 
Q 2881 1009 2881 1497 
Q 2881 1984 2565 2268 
Q 2250 2553 1709 2553 
Q 1456 2553 1204 2497 
Q 953 2441 691 2322 
L 691 4666 
z
" transform="scale(0.015625)"/>
       </defs>
       <use xlink:href="#DejaVuSans-2212"/>
       <use xlink:href="#DejaVuSans-30" x="83.789062"/>
       <use xlink:href="#DejaVuSans-2e" x="147.412109"/>
       <use xlink:href="#DejaVuSans-35" x="179.199219"/>
      </g>
     </g>
    </g>
    <g id="xtick_2">
     <g id="line2d_2">
      <g>
       <use xlink:href="#m1759b7d198" x="133.2882" y="224.9208" style="stroke: #000000; stroke-width: 0.8"/>
      </g>
     </g>
     <g id="text_2">
      <!-- 0.0 -->
      <g transform="translate(125.336638 239.519237) scale(0.1 -0.1)">
       <use xlink:href="#DejaVuSans-30"/>
       <use xlink:href="#DejaVuSans-2e" x="63.623047"/>
       <use xlink:href="#DejaVuSans-30" x="95.410156"/>
      </g>
     </g>
    </g>
    <g id="xtick_3">
     <g id="line2d_3">
      <g>
       <use xlink:href="#m1759b7d198" x="165.7206" y="224.9208" style="stroke: #000000; stroke-width: 0.8"/>
      </g>
     </g>
     <g id="text_3">
      <!-- 0.5 -->
      <g transform="translate(157.769037 239.519237) scale(0.1 -0.1)">
       <use xlink:href="#DejaVuSans-30"/>
       <use xlink:href="#DejaVuSans-2e" x="63.623047"/>
       <use xlink:href="#DejaVuSans-35" x="95.410156"/>
      </g>
     </g>
    </g>
    <g id="xtick_4">
     <g id="line2d_4">
      <g>
       <use xlink:href="#m1759b7d198" x="198.153" y="224.9208" style="stroke: #000000; stroke-width: 0.8"/>
      </g>
     </g>
     <g id="text_4">
      <!-- 1.0 -->
      <g transform="translate(190.201437 239.519237) scale(0.1 -0.1)">
       <defs>
        <path id="DejaVuSans-31" d="M 794 531 
L 1825 531 
L 1825 4091 
L 703 3866 
L 703 4441 
L 1819 4666 
L 2450 4666 
L 2450 531 
L 3481 531 
L 3481 0 
L 794 0 
L 794 531 
z
" transform="scale(0.015625)"/>
       </defs>
       <use xlink:href="#DejaVuSans-31"/>
       <use xlink:href="#DejaVuSans-2e" x="63.623047"/>
       <use xlink:href="#DejaVuSans-30" x="95.410156"/>
      </g>
     </g>
    </g>
    <g id="xtick_5">
     <g id="line2d_5">
      <g>
       <use xlink:href="#m1759b7d198" x="230.5854" y="224.9208" style="stroke: #000000; stroke-width: 0.8"/>
      </g>
     </g>
     <g id="text_5">
      <!-- 1.5 -->
      <g transform="translate(222.633837 239.519237) scale(0.1 -0.1)">
       <use xlink:href="#DejaVuSans-31"/>
       <use xlink:href="#DejaVuSans-2e" x="63.623047"/>
       <use xlink:href="#DejaVuSans-35" x="95.410156"/>
      </g>
     </g>
    </g>
    <g id="xtick_6">
     <g id="line2d_6">
      <g>
       <use xlink:href="#m1759b7d198" x="263.0178" y="224.9208" style="stroke: #000000; stroke-width: 0.8"/>
      </g>
     </g>
     <g id="text_6">
      <!-- 2.0 -->
      <g transform="translate(255.066237 239.519237) scale(0.1 -0.1)">
       <defs>
        <path id="DejaVuSans-32" d="M 1228 531 
L 3431 531 
L 3431 0 
L 469 0 
L 469 531 
Q 828 903 1448 1529 
Q 2069 2156 2228 2338 
Q 2531 2678 2651 2914 
Q 2772 3150 2772 3378 
Q 2772 3750 2511 3984 
Q 2250 4219 1831 4219 
Q 1534 4219 1204 4116 
Q 875 4013 500 3803 
L 500 4441 
Q 881 4594 1212 4672 
Q 1544 4750 1819 4750 
Q 2544 4750 2975 4387 
Q 3406 4025 3406 3419 
Q 3406 3131 3298 2873 
Q 3191 2616 2906 2266 
Q 2828 2175 2409 1742 
Q 1991 1309 1228 531 
z
" transform="scale(0.015625)"/>
       </defs>
       <use xlink:href="#DejaVuSans-32"/>
       <use xlink:href="#DejaVuSans-2e" x="63.623047"/>
       <use xlink:href="#DejaVuSans-30" x="95.410156"/>
      </g>
     </g>
    </g>
    <g id="xtick_7">
     <g id="line2d_7">
      <g>
       <use xlink:href="#m1759b7d198" x="295.4502" y="224.9208" style="stroke: #000000; stroke-width: 0.8"/>
      </g>
     </g>
     <g id="text_7">
      <!-- 2.5 -->
      <g transform="translate(287.498637 239.519237) scale(0.1 -0.1)">
       <use xlink:href="#DejaVuSans-32"/>
       <use xlink:href="#DejaVuSans-2e" x="63.623047"/>
       <use xlink:href="#DejaVuSans-35" x="95.410156"/>
      </g>
     </g>
    </g>
    <g id="text_8">
     <!-- x(m) -->
     <g transform="translate(186.42175 253.197362) scale(0.1 -0.1)">
      <defs>
       <path id="DejaVuSans-78" d="M 3513 3500 
L 2247 1797 
L 3578 0 
L 2900 0 
L 1881 1375 
L 863 0 
L 184 0 
L 1544 1831 
L 300 3500 
L 978 3500 
L 1906 2253 
L 2834 3500 
L 3513 3500 
z
" transform="scale(0.015625)"/>
       <path id="DejaVuSans-28" d="M 1984 4856 
Q 1566 4138 1362 3434 
Q 1159 2731 1159 2009 
Q 1159 1288 1364 580 
Q 1569 -128 1984 -844 
L 1484 -844 
Q 1016 -109 783 600 
Q 550 1309 550 2009 
Q 550 2706 781 3412 
Q 1013 4119 1484 4856 
L 1984 4856 
z
" transform="scale(0.015625)"/>
       <path id="DejaVuSans-6d" d="M 3328 2828 
Q 3544 3216 3844 3400 
Q 4144 3584 4550 3584 
Q 5097 3584 5394 3201 
Q 5691 2819 5691 2113 
L 5691 0 
L 5113 0 
L 5113 2094 
Q 5113 2597 4934 2840 
Q 4756 3084 4391 3084 
Q 3944 3084 3684 2787 
Q 3425 2491 3425 1978 
L 3425 0 
L 2847 0 
L 2847 2094 
Q 2847 2600 2669 2842 
Q 2491 3084 2119 3084 
Q 1678 3084 1418 2786 
Q 1159 2488 1159 1978 
L 1159 0 
L 581 0 
L 581 3500 
L 1159 3500 
L 1159 2956 
Q 1356 3278 1631 3431 
Q 1906 3584 2284 3584 
Q 2666 3584 2933 3390 
Q 3200 3197 3328 2828 
z
" transform="scale(0.015625)"/>
       <path id="DejaVuSans-29" d="M 513 4856 
L 1013 4856 
Q 1481 4119 1714 3412 
Q 1947 2706 1947 2009 
Q 1947 1309 1714 600 
Q 1481 -109 1013 -844 
L 513 -844 
Q 928 -128 1133 580 
Q 1338 1288 1338 2009 
Q 1338 2731 1133 3434 
Q 928 4138 513 4856 
z
" transform="scale(0.015625)"/>
      </defs>
      <use xlink:href="#DejaVuSans-78"/>
      <use xlink:href="#DejaVuSans-28" x="59.179688"/>
      <use xlink:href="#DejaVuSans-6d" x="98.193359"/>
      <use xlink:href="#DejaVuSans-29" x="195.605469"/>
     </g>
    </g>
   </g>
   <g id="matplotlib.axis_2">
    <g id="ytick_1">
     <g id="line2d_8">
      <defs>
       <path id="m293a3552e1" d="M 0 0 
L -3.5 0 
" style="stroke: #000000; stroke-width: 0.8"/>
      </defs>
      <g>
       <use xlink:href="#m293a3552e1" x="100.8558" y="224.9208" style="stroke: #000000; stroke-width: 0.8"/>
      </g>
     </g>
     <g id="text_9">
      <!-- −0.5 -->
      <g transform="translate(69.572988 228.720019) scale(0.1 -0.1)">
       <use xlink:href="#DejaVuSans-2212"/>
       <use xlink:href="#DejaVuSans-30" x="83.789062"/>
       <use xlink:href="#DejaVuSans-2e" x="147.412109"/>
       <use xlink:href="#DejaVuSans-35" x="179.199219"/>
      </g>
     </g>
    </g>
    <g id="ytick_2">
     <g id="line2d_9">
      <g>
       <use xlink:href="#m293a3552e1" x="100.8558" y="192.4884" style="stroke: #000000; stroke-width: 0.8"/>
      </g>
     </g>
     <g id="text_10">
      <!-- 0.0 -->
      <g transform="translate(77.952675 196.287619) scale(0.1 -0.1)">
       <use xlink:href="#DejaVuSans-30"/>
       <use xlink:href="#DejaVuSans-2e" x="63.623047"/>
       <use xlink:href="#DejaVuSans-30" x="95.410156"/>
      </g>
     </g>
    </g>
    <g id="ytick_3">
     <g id="line2d_10">
      <g>
       <use xlink:href="#m293a3552e1" x="100.8558" y="160.056" style="stroke: #000000; stroke-width: 0.8"/>
      </g>
     </g>
     <g id="text_11">
      <!-- 0.5 -->
      <g transform="translate(77.952675 163.855219) scale(0.1 -0.1)">
       <use xlink:href="#DejaVuSans-30"/>
       <use xlink:href="#DejaVuSans-2e" x="63.623047"/>
       <use xlink:href="#DejaVuSans-35" x="95.410156"/>
      </g>
     </g>
    </g>
    <g id="ytick_4">
     <g id="line2d_11">
      <g>
       <use xlink:href="#m293a3552e1" x="100.8558" y="127.6236" style="stroke: #000000; stroke-width: 0.8"/>
      </g>
     </g>
     <g id="text_12">
      <!-- 1.0 -->
      <g transform="translate(77.952675 131.422819) scale(0.1 -0.1)">
       <use xlink:href="#DejaVuSans-31"/>
       <use xlink:href="#DejaVuSans-2e" x="63.623047"/>
       <use xlink:href="#DejaVuSans-30" x="95.410156"/>
      </g>
     </g>
    </g>
    <g id="ytick_5">
     <g id="line2d_12">
      <g>
       <use xlink:href="#m293a3552e1" x="100.8558" y="95.1912" style="stroke: #000000; stroke-width: 0.8"/>
      </g>
     </g>
     <g id="text_13">
      <!-- 1.5 -->
      <g transform="translate(77.952675 98.990419) scale(0.1 -0.1)">
       <use xlink:href="#DejaVuSans-31"/>
       <use xlink:href="#DejaVuSans-2e" x="63.623047"/>
       <use xlink:href="#DejaVuSans-35" x="95.410156"/>
      </g>
     </g>
    </g>
    <g id="ytick_6">
     <g id="line2d_13">
      <g>
       <use xlink:href="#m293a3552e1" x="100.8558" y="62.7588" style="stroke: #000000; stroke-width: 0.8"/>
      </g>
     </g>
     <g id="text_14">
      <!-- 2.0 -->
      <g transform="translate(77.952675 66.558019) scale(0.1 -0.1)">
       <use xlink:href="#DejaVuSans-32"/>
       <use xlink:href="#DejaVuSans-2e" x="63.623047"/>
       <use xlink:href="#DejaVuSans-30" x="95.410156"/>
      </g>
     </g>
    </g>
    <g id="ytick_7">
     <g id="line2d_14">
      <g>
       <use xlink:href="#m293a3552e1" x="100.8558" y="30.3264" style="stroke: #000000; stroke-width: 0.8"/>
      </g>
     </g>
     <g id="text_15">
      <!-- 2.5 -->
      <g transform="translate(77.952675 34.125619) scale(0.1 -0.1)">
       <use xlink:href="#DejaVuSans-32"/>
       <use xlink:href="#DejaVuSans-2e" x="63.623047"/>
       <use xlink:href="#DejaVuSans-35" x="95.410156"/>
      </g>
     </g>
    </g>
    <g id="text_16">
     <!-- y(m) -->
     <g transform="translate(63.4933 139.35485) rotate(-90) scale(0.1 -0.1)">
      <defs>
       <path id="DejaVuSans-79" d="M 2059 -325 
Q 1816 -950 1584 -1140 
Q 1353 -1331 966 -1331 
L 506 -1331 
L 506 -850 
L 844 -850 
Q 1081 -850 1212 -737 
Q 1344 -625 1503 -206 
L 1606 56 
L 191 3500 
L 800 3500 
L 1894 763 
L 2988 3500 
L 3597 3500 
L 2059 -325 
z
" transform="scale(0.015625)"/>
      </defs>
      <use xlink:href="#DejaVuSans-79"/>
      <use xlink:href="#DejaVuSans-28" x="59.179688"/>
      <use xlink:href="#DejaVuSans-6d" x="98.193359"/>
      <use xlink:href="#DejaVuSans-29" x="195.605469"/>
     </g>
    </g>
   </g>
   <g id="line2d_15">
    <path d="M 263.112185 127.634279 
L 263.006658 127.622339 
L 263.018999 127.623736 
L 263.017679 127.623586 
L 263.017812 127.623601 
L 263.017799 127.6236 
L 263.0178 127.6236 
L 263.0178 127.6236 
L 263.0178 127.6236 
L 263.0178 127.6236 
L 263.0178 127.6236 
L 263.0178 127.6236 
L 263.0178 127.6236 
" clip-path="url(#p79aa3176f7)" style="fill: none; stroke-dasharray: 2,3.3; stroke-dashoffset: 0; stroke: #1f77b4; stroke-width: 2"/>
   </g>
   <g id="line2d_16">
    <path d="M 133.2882 127.6236 
L 133.2882 127.6236 
L 133.768676 127.621531 
L 138.573349 127.593776 
L 147.701648 127.493337 
L 160.673863 127.41217 
L 173.646739 127.459601 
L 186.619963 127.486284 
L 199.592908 127.523189 
L 212.567005 127.607597 
L 225.536461 127.5202 
L 238.341407 126.667687 
L 249.679077 126.428069 
L 257.640665 127.139288 
L 262.299995 127.540144 
L 263.112185 127.634279 
" clip-path="url(#p79aa3176f7)" style="fill: none; stroke: #1f77b4; stroke-width: 2; stroke-linecap: square"/>
   </g>
   <g id="line2d_17">
    <path d="M 240.06566 131.422425 
L 240.878124 131.175189 
L 241.133555 131.190547 
L 241.20835 131.203011 
L 241.253056 131.210316 
L 241.286567 131.213908 
L 241.307441 131.217167 
L 241.324713 131.219101 
L 241.336895 131.220776 
L 241.346936 131.222034 
L 241.35499 131.223063 
L 241.36169 131.22391 
L 241.36169 131.22391 
" clip-path="url(#p79aa3176f7)" style="fill: none; stroke-dasharray: 2,3.3; stroke-dashoffset: 0; stroke: #ff7f0e; stroke-width: 2"/>
   </g>
   <g id="line2d_18">
    <path d="M 198.153 205.46136 
L 198.153 205.46136 
L 198.164648 204.981025 
L 198.417246 200.200816 
L 199.877385 191.454013 
L 201.48243 180.264573 
L 202.738317 169.560811 
L 204.917797 161.07713 
L 207.09932 154.814228 
L 209.379241 150.892168 
L 211.999015 147.096721 
L 218.032057 141.250712 
L 226.183594 137.004547 
L 232.872114 134.000627 
L 237.806064 132.265695 
L 240.06566 131.422425 
" clip-path="url(#p79aa3176f7)" style="fill: none; stroke: #ff7f0e; stroke-width: 2; stroke-linecap: square"/>
   </g>
   <g id="line2d_19">
    <path d="M 133.288236 95.19099 
L 133.288235 95.190976 
L 133.288234 95.190964 
L 133.288232 95.190957 
L 133.28823 95.190953 
L 133.288227 95.190955 
L 133.288224 95.190962 
L 133.288221 95.190973 
L 133.288218 95.190987 
L 133.288216 95.191002 
L 133.288214 95.191013 
L 133.288213 95.191018 
L 133.288213 95.191018 
" clip-path="url(#p79aa3176f7)" style="fill: none; stroke-dasharray: 2,3.3; stroke-dashoffset: 0; stroke: #2ca02c; stroke-width: 2"/>
   </g>
   <g id="line2d_20">
    <path d="M 133.2882 95.1912 
L 133.2882 95.1912 
L 133.2882 95.1912 
L 133.288202 95.1912 
L 133.288204 95.191197 
L 133.288206 95.19119 
L 133.288211 95.191173 
L 133.288216 95.191155 
L 133.288222 95.191135 
L 133.288224 95.191111 
L 133.288228 95.191086 
L 133.28823 95.191064 
L 133.288232 95.191043 
L 133.288235 95.191023 
L 133.288236 95.191005 
L 133.288236 95.19099 
" clip-path="url(#p79aa3176f7)" style="fill: none; stroke: #2ca02c; stroke-width: 2; stroke-linecap: square"/>
   </g>
   <g id="line2d_21">
    <path d="M 165.720326 95.19105 
L 165.72037 95.191086 
L 165.72043 95.191131 
L 165.720497 95.191179 
L 165.720558 95.19122 
L 165.72061 95.191252 
L 165.720651 95.191272 
L 165.720682 95.191281 
L 165.720702 95.191277 
L 165.720711 95.191262 
L 165.720713 95.19124 
L 165.720713 95.191226 
L 165.720713 95.191226 
" clip-path="url(#p79aa3176f7)" style="fill: none; stroke-dasharray: 2,3.3; stroke-dashoffset: 0; stroke: #d62728; stroke-width: 2"/>
   </g>
   <g id="line2d_22">
    <path d="M 165.7206 95.1912 
L 165.7206 95.1912 
L 165.720601 95.191194 
L 165.720603 95.19115 
L 165.720581 95.191153 
L 165.720541 95.191158 
L 165.720483 95.19116 
L 165.720422 95.191125 
L 165.720366 95.191081 
L 165.720311 95.191045 
L 165.720281 95.191024 
L 165.720264 95.191013 
L 165.720261 95.191012 
L 165.720272 95.191017 
L 165.720291 95.191024 
L 165.720326 95.19105 
" clip-path="url(#p79aa3176f7)" style="fill: none; stroke: #d62728; stroke-width: 2; stroke-linecap: square"/>
   </g>
   <g id="line2d_23">
    <path d="M 230.585704 95.190962 
L 230.585719 95.190886 
L 230.585754 95.190819 
L 230.585799 95.190796 
L 230.585821 95.190831 
L 230.585812 95.190897 
L 230.585774 95.190962 
L 230.585713 95.191017 
L 230.585639 95.191068 
L 230.585567 95.191115 
L 230.585513 95.191149 
L 230.585487 95.191165 
L 230.585487 95.191165 
" clip-path="url(#p79aa3176f7)" style="fill: none; stroke-dasharray: 2,3.3; stroke-dashoffset: 0; stroke: #9467bd; stroke-width: 2"/>
   </g>
   <g id="line2d_24">
    <path d="M 230.5854 95.1912 
L 230.5854 95.1912 
L 230.5854 95.191198 
L 230.585399 95.191183 
L 230.585405 95.191174 
L 230.585427 95.191186 
L 230.585443 95.191202 
L 230.585457 95.191257 
L 230.585477 95.191298 
L 230.585509 95.191287 
L 230.585553 95.191222 
L 230.585594 95.19117 
L 230.58563 95.191129 
L 230.585659 95.191094 
L 230.585686 95.191036 
L 230.585704 95.190962 
" clip-path="url(#p79aa3176f7)" style="fill: none; stroke: #9467bd; stroke-width: 2; stroke-linecap: square"/>
   </g>
   <g id="line2d_25">
    <path d="M 263.017777 95.191004 
L 263.017772 95.190989 
L 263.017768 95.190978 
L 263.017765 95.190971 
L 263.017764 95.19097 
L 263.017763 95.190975 
L 263.017764 95.190985 
L 263.017766 95.190999 
L 263.017769 95.191016 
L 263.017771 95.191033 
L 263.017773 95.191045 
L 263.017774 95.191051 
L 263.017774 95.191051 
" clip-path="url(#p79aa3176f7)" style="fill: none; stroke-dasharray: 2,3.3; stroke-dashoffset: 0; stroke: #8c564b; stroke-width: 2"/>
   </g>
   <g id="line2d_26">
    <path d="M 263.0178 95.1912 
L 263.0178 95.1912 
L 263.017801 95.1912 
L 263.017807 95.191203 
L 263.017812 95.191199 
L 263.017815 95.191193 
L 263.017817 95.191185 
L 263.017818 95.191173 
L 263.017819 95.191161 
L 263.017818 95.19115 
L 263.017817 95.191135 
L 263.017814 95.191106 
L 263.017803 95.191071 
L 263.017793 95.191044 
L 263.017784 95.191022 
L 263.017777 95.191004 
" clip-path="url(#p79aa3176f7)" style="fill: none; stroke: #8c564b; stroke-width: 2; stroke-linecap: square"/>
   </g>
   <g id="line2d_27">
    <path d="M 133.288252 160.056143 
L 133.288253 160.056156 
L 133.288253 160.056169 
L 133.288252 160.056179 
L 133.288249 160.056186 
L 133.288246 160.056189 
L 133.288242 160.056187 
L 133.288237 160.056182 
L 133.288233 160.056173 
L 133.288229 160.056164 
L 133.288227 160.056156 
L 133.288225 160.056152 
L 133.288225 160.056152 
" clip-path="url(#p79aa3176f7)" style="fill: none; stroke-dasharray: 2,3.3; stroke-dashoffset: 0; stroke: #e377c2; stroke-width: 2"/>
   </g>
   <g id="line2d_28">
    <path d="M 133.2882 160.056 
L 133.2882 160.056 
L 133.2882 160.056 
L 133.288203 160.056 
L 133.288205 160.056004 
L 133.288208 160.056011 
L 133.28821 160.05602 
L 133.288212 160.056031 
L 133.288213 160.056043 
L 133.288215 160.056057 
L 133.288218 160.056072 
L 133.288228 160.056085 
L 133.288237 160.056099 
L 133.288244 160.056114 
L 133.288249 160.056128 
L 133.288252 160.056143 
" clip-path="url(#p79aa3176f7)" style="fill: none; stroke: #e377c2; stroke-width: 2; stroke-linecap: square"/>
   </g>
   <g id="line2d_29">
    <path d="M 165.720377 160.055687 
L 165.720378 160.055716 
L 165.720401 160.055733 
L 165.72044 160.055746 
L 165.720485 160.055764 
L 165.720532 160.055789 
L 165.720577 160.05582 
L 165.720618 160.055859 
L 165.720652 160.055905 
L 165.720675 160.055955 
L 165.720689 160.056003 
L 165.720695 160.056032 
L 165.720695 160.056032 
" clip-path="url(#p79aa3176f7)" style="fill: none; stroke-dasharray: 2,3.3; stroke-dashoffset: 0; stroke: #7f7f7f; stroke-width: 2"/>
   </g>
   <g id="line2d_30">
    <path d="M 165.7206 160.056 
L 165.7206 160.056 
L 165.7206 160.055997 
L 165.720599 160.05597 
L 165.720579 160.055908 
L 165.72054 160.055856 
L 165.720503 160.055767 
L 165.72048 160.055656 
L 165.720446 160.055586 
L 165.720426 160.055548 
L 165.720405 160.055537 
L 165.720398 160.05555 
L 165.720388 160.055578 
L 165.720397 160.055602 
L 165.720396 160.055649 
L 165.720377 160.055687 
" clip-path="url(#p79aa3176f7)" style="fill: none; stroke: #7f7f7f; stroke-width: 2; stroke-linecap: square"/>
   </g>
   <g id="line2d_31">
    <path d="M 230.58552 160.056047 
L 230.585558 160.056044 
L 230.585616 160.056043 
L 230.585678 160.056043 
L 230.585711 160.056041 
L 230.585716 160.056037 
L 230.585694 160.056032 
L 230.585653 160.056026 
L 230.5856 160.05602 
L 230.585546 160.056015 
L 230.585503 160.05601 
L 230.585483 160.056008 
L 230.585483 160.056008 
" clip-path="url(#p79aa3176f7)" style="fill: none; stroke-dasharray: 2,3.3; stroke-dashoffset: 0; stroke: #bcbd22; stroke-width: 2"/>
   </g>
   <g id="line2d_32">
    <path d="M 230.5854 160.056 
L 230.5854 160.056 
L 230.5854 160.056002 
L 230.585404 160.056019 
L 230.585426 160.055987 
L 230.585441 160.055965 
L 230.585453 160.055958 
L 230.585459 160.055962 
L 230.585459 160.055967 
L 230.585467 160.055979 
L 230.585475 160.055991 
L 230.58547 160.056002 
L 230.585459 160.056052 
L 230.585468 160.056053 
L 230.585489 160.056051 
L 230.58552 160.056047 
" clip-path="url(#p79aa3176f7)" style="fill: none; stroke: #bcbd22; stroke-width: 2; stroke-linecap: square"/>
   </g>
   <g id="line2d_33">
    <path d="M 263.017777 160.056187 
L 263.017777 160.056198 
L 263.017777 160.056207 
L 263.017777 160.056211 
L 263.017777 160.056212 
L 263.017778 160.056207 
L 263.01778 160.056198 
L 263.017782 160.056185 
L 263.017784 160.056169 
L 263.017785 160.056154 
L 263.017787 160.056143 
L 263.017787 160.056137 
L 263.017787 160.056137 
" clip-path="url(#p79aa3176f7)" style="fill: none; stroke-dasharray: 2,3.3; stroke-dashoffset: 0; stroke: #17becf; stroke-width: 2"/>
   </g>
   <g id="line2d_34">
    <path d="M 263.0178 160.056 
L 263.0178 160.056 
L 263.0178 160.056 
L 263.0178 160.056 
L 263.0178 160.056006 
L 263.017801 160.056017 
L 263.017802 160.056031 
L 263.017798 160.056043 
L 263.017795 160.056057 
L 263.017792 160.056072 
L 263.017789 160.056089 
L 263.017785 160.056112 
L 263.017783 160.056135 
L 263.01778 160.056158 
L 263.017778 160.056174 
L 263.017777 160.056187 
" clip-path="url(#p79aa3176f7)" style="fill: none; stroke: #17becf; stroke-width: 2; stroke-linecap: square"/>
   </g>
   <g id="line2d_35">
    <path d="M 230.585621 62.758774 
L 230.585716 62.758786 
L 230.585842 62.758807 
L 230.585974 62.758834 
L 230.586059 62.758856 
L 230.58609 62.758872 
L 230.586069 62.75888 
L 230.586004 62.758881 
L 230.585908 62.758875 
L 230.5858 62.758865 
L 230.585708 62.758855 
L 230.585663 62.75885 
L 230.585663 62.75885 
" clip-path="url(#p79aa3176f7)" style="fill: none; stroke-dasharray: 2,3.3; stroke-dashoffset: 0; stroke: #2f4f4f; stroke-width: 2"/>
   </g>
   <g id="line2d_36">
    <path d="M 230.5854 62.7588 
L 230.5854 62.7588 
L 230.5854 62.758798 
L 230.585398 62.758783 
L 230.585395 62.75877 
L 230.585392 62.758761 
L 230.585391 62.758756 
L 230.585392 62.758754 
L 230.585393 62.758755 
L 230.585397 62.758759 
L 230.585416 62.758765 
L 230.585444 62.758771 
L 230.585472 62.758776 
L 230.585495 62.75878 
L 230.585546 62.758771 
L 230.585621 62.758774 
" clip-path="url(#p79aa3176f7)" style="fill: none; stroke: #2f4f4f; stroke-width: 2; stroke-linecap: square"/>
   </g>
   <g id="line2d_37">
    <path d="M 230.585295 30.326687 
L 230.585301 30.326673 
L 230.585307 30.326655 
L 230.585313 30.326631 
L 230.585321 30.326602 
L 230.58533 30.326568 
L 230.585341 30.32653 
L 230.585353 30.326491 
L 230.585364 30.326455 
L 230.585374 30.326424 
L 230.585382 30.326403 
L 230.585385 30.326393 
L 230.585385 30.326393 
" clip-path="url(#p79aa3176f7)" style="fill: none; stroke-dasharray: 2,3.3; stroke-dashoffset: 0; stroke: #cd5c5c; stroke-width: 2"/>
   </g>
   <g id="line2d_38">
    <path d="M 230.5854 30.3264 
L 230.5854 30.3264 
L 230.585397 30.326406 
L 230.585368 30.32646 
L 230.585347 30.326501 
L 230.585328 30.326531 
L 230.585311 30.326561 
L 230.585298 30.326587 
L 230.585288 30.326613 
L 230.585283 30.326639 
L 230.58528 30.326662 
L 230.58528 30.326679 
L 230.585281 30.32669 
L 230.585284 30.326694 
L 230.585289 30.326696 
L 230.585295 30.326687 
" clip-path="url(#p79aa3176f7)" style="fill: none; stroke: #cd5c5c; stroke-width: 2; stroke-linecap: square"/>
   </g>
   <g id="line2d_39">
    <path clip-path="url(#p79aa3176f7)" style="fill: none; stroke-dasharray: 2,3.3; stroke-dashoffset: 0; stroke: #add8e6; stroke-width: 2"/>
   </g>
   <g id="line2d_40">
    <path clip-path="url(#p79aa3176f7)" style="fill: none; stroke: #add8e6; stroke-width: 2; stroke-linecap: square"/>
   </g>
   <g id="line2d_41">
    <path d="M 230.585562 192.488431 
L 230.585627 192.488431 
L 230.585726 192.488424 
L 230.58584 192.488396 
L 230.585922 192.488355 
L 230.585961 192.488319 
L 230.585955 192.488303 
L 230.585909 192.488307 
L 230.585833 192.48832 
L 230.585744 192.488336 
L 230.585668 192.48835 
L 230.585629 192.488357 
L 230.585629 192.488357 
" clip-path="url(#p79aa3176f7)" style="fill: none; stroke-dasharray: 2,3.3; stroke-dashoffset: 0; stroke: #663399; stroke-width: 2"/>
   </g>
   <g id="line2d_42">
    <path d="M 230.5854 192.4884 
L 230.5854 192.4884 
L 230.5854 192.488401 
L 230.585403 192.488407 
L 230.585406 192.488411 
L 230.585406 192.488417 
L 230.585392 192.488421 
L 230.585383 192.488425 
L 230.585389 192.488426 
L 230.585399 192.488429 
L 230.585436 192.488433 
L 230.585469 192.48843 
L 230.585487 192.488434 
L 230.585503 192.488436 
L 230.585517 192.488438 
L 230.585562 192.488431 
" clip-path="url(#p79aa3176f7)" style="fill: none; stroke: #663399; stroke-width: 2; stroke-linecap: square"/>
   </g>
   <g id="line2d_43">
    <path d="M 230.585319 224.920843 
L 230.58532 224.920837 
L 230.585322 224.920827 
L 230.585326 224.920816 
L 230.585332 224.920804 
L 230.58534 224.920795 
L 230.58535 224.920787 
L 230.58536 224.920782 
L 230.58537 224.920779 
L 230.585379 224.920778 
L 230.585385 224.920779 
L 230.585388 224.920779 
L 230.585388 224.920779 
" clip-path="url(#p79aa3176f7)" style="fill: none; stroke-dasharray: 2,3.3; stroke-dashoffset: 0; stroke: #8fbc8f; stroke-width: 2"/>
   </g>
   <g id="line2d_44">
    <path d="M 230.5854 224.9208 
L 230.5854 224.9208 
L 230.585398 224.920803 
L 230.585385 224.920825 
L 230.585374 224.920843 
L 230.585366 224.920859 
L 230.58536 224.920873 
L 230.585355 224.920875 
L 230.58535 224.920871 
L 230.585345 224.920863 
L 230.585339 224.920855 
L 230.585333 224.920853 
L 230.585327 224.920853 
L 230.585323 224.920851 
L 230.585321 224.920846 
L 230.585319 224.920843 
" clip-path="url(#p79aa3176f7)" style="fill: none; stroke: #8fbc8f; stroke-width: 2; stroke-linecap: square"/>
   </g>
   <g id="line2d_45">
    <path clip-path="url(#p79aa3176f7)" style="fill: none; stroke-dasharray: 2,3.3; stroke-dashoffset: 0; stroke: #00ced1; stroke-width: 2"/>
   </g>
   <g id="line2d_46">
    <path clip-path="url(#p79aa3176f7)" style="fill: none; stroke: #00ced1; stroke-width: 2; stroke-linecap: square"/>
   </g>
   <g id="line2d_47">
    <path d="M 165.720558 62.758862 
L 165.720558 62.758892 
L 165.720562 62.758921 
L 165.72057 62.758943 
L 165.720578 62.758951 
L 165.720585 62.758945 
L 165.720593 62.758925 
L 165.720601 62.758895 
L 165.720611 62.75886 
L 165.720622 62.758829 
L 165.720633 62.75881 
L 165.720641 62.758804 
L 165.720641 62.758804 
" clip-path="url(#p79aa3176f7)" style="fill: none; stroke-dasharray: 2,3.3; stroke-dashoffset: 0; stroke: #6a5acd; stroke-width: 2"/>
   </g>
   <g id="line2d_48">
    <path d="M 165.7206 62.7588 
L 165.7206 62.7588 
L 165.7206 62.758797 
L 165.720599 62.758767 
L 165.720603 62.758741 
L 165.720606 62.758721 
L 165.720609 62.758707 
L 165.720611 62.7587 
L 165.72061 62.758699 
L 165.720606 62.758707 
L 165.720599 62.758726 
L 165.72059 62.758749 
L 165.72058 62.758775 
L 165.720571 62.758803 
L 165.720562 62.758831 
L 165.720558 62.758862 
" clip-path="url(#p79aa3176f7)" style="fill: none; stroke: #6a5acd; stroke-width: 2; stroke-linecap: square"/>
   </g>
   <g id="line2d_49">
    <path d="M 165.720615 30.326507 
L 165.720614 30.326522 
L 165.720613 30.32653 
L 165.720613 30.32653 
L 165.720612 30.326522 
L 165.720611 30.326507 
L 165.720608 30.326486 
L 165.720605 30.326461 
L 165.720601 30.326434 
L 165.720598 30.326411 
L 165.720595 30.326395 
L 165.720595 30.326389 
L 165.720595 30.326389 
" clip-path="url(#p79aa3176f7)" style="fill: none; stroke-dasharray: 2,3.3; stroke-dashoffset: 0; stroke: #808000; stroke-width: 2"/>
   </g>
   <g id="line2d_50">
    <path d="M 165.7206 30.3264 
L 165.7206 30.3264 
L 165.7206 30.326398 
L 165.720603 30.326374 
L 165.720607 30.326333 
L 165.720608 30.326303 
L 165.720608 30.326285 
L 165.720609 30.326278 
L 165.720611 30.326286 
L 165.720616 30.326304 
L 165.720622 30.32633 
L 165.720624 30.32636 
L 165.720622 30.326408 
L 165.720619 30.326449 
L 165.720616 30.326482 
L 165.720615 30.326507 
" clip-path="url(#p79aa3176f7)" style="fill: none; stroke: #808000; stroke-width: 2; stroke-linecap: square"/>
   </g>
   <g id="line2d_51">
    <path clip-path="url(#p79aa3176f7)" style="fill: none; stroke-dasharray: 2,3.3; stroke-dashoffset: 0; stroke: #a0522d; stroke-width: 2"/>
   </g>
   <g id="line2d_52">
    <path clip-path="url(#p79aa3176f7)" style="fill: none; stroke: #a0522d; stroke-width: 2; stroke-linecap: square"/>
   </g>
   <g id="line2d_53">
    <path d="M 165.720459 192.488601 
L 165.72048 192.488566 
L 165.720502 192.48853 
L 165.720526 192.488495 
L 165.720548 192.488463 
L 165.720568 192.488437 
L 165.720586 192.488417 
L 165.720601 192.488405 
L 165.720612 192.488399 
L 165.72062 192.488398 
L 165.720625 192.488397 
L 165.720626 192.488397 
L 165.720626 192.488397 
" clip-path="url(#p79aa3176f7)" style="fill: none; stroke-dasharray: 2,3.3; stroke-dashoffset: 0; stroke: #ff4500; stroke-width: 2"/>
   </g>
   <g id="line2d_54">
    <path d="M 165.7206 192.4884 
L 165.7206 192.4884 
L 165.720601 192.488405 
L 165.720611 192.488452 
L 165.720617 192.488491 
L 165.720591 192.488535 
L 165.720574 192.488568 
L 165.720557 192.488592 
L 165.720554 192.48862 
L 165.720547 192.488655 
L 165.720505 192.488686 
L 165.72045 192.488683 
L 165.720421 192.488672 
L 165.720425 192.488655 
L 165.72044 192.488631 
L 165.720459 192.488601 
" clip-path="url(#p79aa3176f7)" style="fill: none; stroke: #ff4500; stroke-width: 2; stroke-linecap: square"/>
   </g>
   <g id="line2d_55">
    <path d="M 165.720682 224.920675 
L 165.720682 224.920658 
L 165.72068 224.920644 
L 165.720676 224.920636 
L 165.72067 224.920636 
L 165.720662 224.920644 
L 165.720652 224.920658 
L 165.720641 224.920679 
L 165.720631 224.920703 
L 165.720622 224.920724 
L 165.720616 224.920738 
L 165.720614 224.920744 
L 165.720614 224.920744 
" clip-path="url(#p79aa3176f7)" style="fill: none; stroke-dasharray: 2,3.3; stroke-dashoffset: 0; stroke: #708090; stroke-width: 2"/>
   </g>
   <g id="line2d_56">
    <path d="M 165.7206 224.9208 
L 165.7206 224.9208 
L 165.720602 224.920799 
L 165.720621 224.92079 
L 165.720636 224.920783 
L 165.720647 224.920788 
L 165.720655 224.920803 
L 165.720661 224.920807 
L 165.720666 224.920806 
L 165.720669 224.920799 
L 165.720672 224.920786 
L 165.720674 224.920768 
L 165.720677 224.920745 
L 165.72068 224.92072 
L 165.72068 224.920698 
L 165.720682 224.920675 
" clip-path="url(#p79aa3176f7)" style="fill: none; stroke: #708090; stroke-width: 2; stroke-linecap: square"/>
   </g>
   <g id="line2d_57">
    <path clip-path="url(#p79aa3176f7)" style="fill: none; stroke-dasharray: 2,3.3; stroke-dashoffset: 0; stroke: #bdb76b; stroke-width: 2"/>
   </g>
   <g id="line2d_58">
    <path clip-path="url(#p79aa3176f7)" style="fill: none; stroke: #bdb76b; stroke-width: 2; stroke-linecap: square"/>
   </g>
   <g id="patch_3">
    <path d="M 100.8558 224.9208 
L 100.8558 30.3264 
" style="fill: none; stroke: #000000; stroke-width: 0.8; stroke-linejoin: miter; stroke-linecap: square"/>
   </g>
   <g id="patch_4">
    <path d="M 295.4502 224.9208 
L 295.4502 30.3264 
" style="fill: none; stroke: #000000; stroke-width: 0.8; stroke-linejoin: miter; stroke-linecap: square"/>
   </g>
   <g id="patch_5">
    <path d="M 100.8558 224.9208 
L 295.4502 224.9208 
" style="fill: none; stroke: #000000; stroke-width: 0.8; stroke-linejoin: miter; stroke-linecap: square"/>
   </g>
   <g id="patch_6">
    <path d="M 100.8558 30.3264 
L 295.4502 30.3264 
" style="fill: none; stroke: #000000; stroke-width: 0.8; stroke-linejoin: miter; stroke-linecap: square"/>
   </g>
   <g id="patch_7">
    <path d="M 263.112185 137.363999 
C 265.692537 137.363999 268.167552 136.338815 269.992136 134.51423 
C 271.81672 132.689646 272.841905 130.214631 272.841905 127.634279 
C 272.841905 125.053927 271.81672 122.578913 269.992136 120.754328 
C 268.167552 118.929744 265.692537 117.904559 263.112185 117.904559 
C 260.531833 117.904559 258.056818 118.929744 256.232234 120.754328 
C 254.40765 122.578913 253.382465 125.053927 253.382465 127.634279 
C 253.382465 130.214631 254.40765 132.689646 256.232234 134.51423 
C 258.056818 136.338815 260.531833 137.363999 263.112185 137.363999 
z
" clip-path="url(#p79aa3176f7)" style="fill: #1f77b4; stroke: #000000; stroke-linejoin: miter"/>
   </g>
   <g id="patch_8">
    <path d="M 240.06566 141.152145 
C 242.646012 141.152145 245.121027 140.12696 246.945611 138.302376 
C 248.770196 136.477791 249.79538 134.002777 249.79538 131.422425 
C 249.79538 128.842073 248.770196 126.367058 246.945611 124.542474 
C 245.121027 122.717889 242.646012 121.692705 240.06566 121.692705 
C 237.485308 121.692705 235.010294 122.717889 233.185709 124.542474 
C 231.361125 126.367058 230.33594 128.842073 230.33594 131.422425 
C 230.33594 134.002777 231.361125 136.477791 233.185709 138.302376 
C 235.010294 140.12696 237.485308 141.152145 240.06566 141.152145 
z
" clip-path="url(#p79aa3176f7)" style="fill: #ff7f0e; stroke: #000000; stroke-linejoin: miter"/>
   </g>
   <g id="patch_9">
    <path d="M 133.288236 104.92071 
C 135.868588 104.92071 138.343603 103.895525 140.168187 102.070941 
C 141.992771 100.246356 143.017956 97.771341 143.017956 95.19099 
C 143.017956 92.610638 141.992771 90.135623 140.168187 88.311039 
C 138.343603 86.486454 135.868588 85.46127 133.288236 85.46127 
C 130.707884 85.46127 128.232869 86.486454 126.408285 88.311039 
C 124.583701 90.135623 123.558516 92.610638 123.558516 95.19099 
C 123.558516 97.771341 124.583701 100.246356 126.408285 102.070941 
C 128.232869 103.895525 130.707884 104.92071 133.288236 104.92071 
z
" clip-path="url(#p79aa3176f7)" style="fill: #2ca02c; stroke: #000000; stroke-linejoin: miter"/>
   </g>
   <g id="patch_10">
    <path d="M 165.720326 104.92077 
C 168.300678 104.92077 170.775692 103.895586 172.600277 102.071001 
C 174.424861 100.246417 175.450046 97.771402 175.450046 95.19105 
C 175.450046 92.610698 174.424861 90.135684 172.600277 88.311099 
C 170.775692 86.486515 168.300678 85.46133 165.720326 85.46133 
C 163.139974 85.46133 160.664959 86.486515 158.840375 88.311099 
C 157.01579 90.135684 155.990606 92.610698 155.990606 95.19105 
C 155.990606 97.771402 157.01579 100.246417 158.840375 102.071001 
C 160.664959 103.895586 163.139974 104.92077 165.720326 104.92077 
z
" clip-path="url(#p79aa3176f7)" style="fill: #d62728; stroke: #000000; stroke-linejoin: miter"/>
   </g>
   <g id="patch_11">
    <path d="M 230.585704 104.920682 
C 233.166056 104.920682 235.641071 103.895497 237.465655 102.070913 
C 239.29024 100.246329 240.315424 97.771314 240.315424 95.190962 
C 240.315424 92.61061 239.29024 90.135596 237.465655 88.311011 
C 235.641071 86.486427 233.166056 85.461242 230.585704 85.461242 
C 228.005353 85.461242 225.530338 86.486427 223.705753 88.311011 
C 221.881169 90.135596 220.855984 92.61061 220.855984 95.190962 
C 220.855984 97.771314 221.881169 100.246329 223.705753 102.070913 
C 225.530338 103.895497 228.005353 104.920682 230.585704 104.920682 
z
" clip-path="url(#p79aa3176f7)" style="fill: #9467bd; stroke: #000000; stroke-linejoin: miter"/>
   </g>
   <g id="patch_12">
    <path d="M 263.017777 104.920724 
C 265.598129 104.920724 268.073144 103.895539 269.897728 102.070955 
C 271.722313 100.246371 272.747497 97.771356 272.747497 95.191004 
C 272.747497 92.610652 271.722313 90.135637 269.897728 88.311053 
C 268.073144 86.486469 265.598129 85.461284 263.017777 85.461284 
C 260.437425 85.461284 257.962411 86.486469 256.137826 88.311053 
C 254.313242 90.135637 253.288057 92.610652 253.288057 95.191004 
C 253.288057 97.771356 254.313242 100.246371 256.137826 102.070955 
C 257.962411 103.895539 260.437425 104.920724 263.017777 104.920724 
z
" clip-path="url(#p79aa3176f7)" style="fill: #8c564b; stroke: #000000; stroke-linejoin: miter"/>
   </g>
   <g id="patch_13">
    <path d="M 133.288252 169.785863 
C 135.868604 169.785863 138.343619 168.760678 140.168203 166.936094 
C 141.992787 165.111509 143.017972 162.636494 143.017972 160.056143 
C 143.017972 157.475791 141.992787 155.000776 140.168203 153.176192 
C 138.343619 151.351607 135.868604 150.326423 133.288252 150.326423 
C 130.7079 150.326423 128.232885 151.351607 126.408301 153.176192 
C 124.583717 155.000776 123.558532 157.475791 123.558532 160.056143 
C 123.558532 162.636494 124.583717 165.111509 126.408301 166.936094 
C 128.232885 168.760678 130.7079 169.785863 133.288252 169.785863 
z
" clip-path="url(#p79aa3176f7)" style="fill: #e377c2; stroke: #000000; stroke-linejoin: miter"/>
   </g>
   <g id="patch_14">
    <path d="M 165.720377 169.785407 
C 168.300728 169.785407 170.775743 168.760223 172.600328 166.935638 
C 174.424912 165.111054 175.450097 162.636039 175.450097 160.055687 
C 175.450097 157.475335 174.424912 155.000321 172.600328 153.175736 
C 170.775743 151.351152 168.300728 150.325967 165.720377 150.325967 
C 163.140025 150.325967 160.66501 151.351152 158.840426 153.175736 
C 157.015841 155.000321 155.990657 157.475335 155.990657 160.055687 
C 155.990657 162.636039 157.015841 165.111054 158.840426 166.935638 
C 160.66501 168.760223 163.140025 169.785407 165.720377 169.785407 
z
" clip-path="url(#p79aa3176f7)" style="fill: #7f7f7f; stroke: #000000; stroke-linejoin: miter"/>
   </g>
   <g id="patch_15">
    <path d="M 230.58552 169.785767 
C 233.165871 169.785767 235.640886 168.760582 237.465471 166.935998 
C 239.290055 165.111414 240.31524 162.636399 240.31524 160.056047 
C 240.31524 157.475695 239.290055 155.00068 237.465471 153.176096 
C 235.640886 151.351512 233.165871 150.326327 230.58552 150.326327 
C 228.005168 150.326327 225.530153 151.351512 223.705569 153.176096 
C 221.880984 155.00068 220.8558 157.475695 220.8558 160.056047 
C 220.8558 162.636399 221.880984 165.111414 223.705569 166.935998 
C 225.530153 168.760582 228.005168 169.785767 230.58552 169.785767 
z
" clip-path="url(#p79aa3176f7)" style="fill: #bcbd22; stroke: #000000; stroke-linejoin: miter"/>
   </g>
   <g id="patch_16">
    <path d="M 263.017777 169.785907 
C 265.598129 169.785907 268.073144 168.760722 269.897728 166.936138 
C 271.722312 165.111553 272.747497 162.636539 272.747497 160.056187 
C 272.747497 157.475835 271.722312 155.00082 269.897728 153.176236 
C 268.073144 151.351651 265.598129 150.326467 263.017777 150.326467 
C 260.437425 150.326467 257.962411 151.351651 256.137826 153.176236 
C 254.313242 155.00082 253.288057 157.475835 253.288057 160.056187 
C 253.288057 162.636539 254.313242 165.111553 256.137826 166.936138 
C 257.962411 168.760722 260.437425 169.785907 263.017777 169.785907 
z
" clip-path="url(#p79aa3176f7)" style="fill: #17becf; stroke: #000000; stroke-linejoin: miter"/>
   </g>
   <g id="patch_17">
    <path d="M 230.585621 72.488494 
C 233.165973 72.488494 235.640988 71.463309 237.465572 69.638725 
C 239.290157 67.814141 240.315341 65.339126 240.315341 62.758774 
C 240.315341 60.178422 239.290157 57.703407 237.465572 55.878823 
C 235.640988 54.054239 233.165973 53.029054 230.585621 53.029054 
C 228.00527 53.029054 225.530255 54.054239 223.70567 55.878823 
C 221.881086 57.703407 220.855901 60.178422 220.855901 62.758774 
C 220.855901 65.339126 221.881086 67.814141 223.70567 69.638725 
C 225.530255 71.463309 228.00527 72.488494 230.585621 72.488494 
z
" clip-path="url(#p79aa3176f7)" style="fill: #2f4f4f; stroke: #000000; stroke-linejoin: miter"/>
   </g>
   <g id="patch_18">
    <path d="M 230.585295 40.056407 
C 233.165647 40.056407 235.640662 39.031223 237.465246 37.206638 
C 239.28983 35.382054 240.315015 32.907039 240.315015 30.326687 
C 240.315015 27.746335 239.28983 25.271321 237.465246 23.446736 
C 235.640662 21.622152 233.165647 20.596967 230.585295 20.596967 
C 228.004943 20.596967 225.529928 21.622152 223.705344 23.446736 
C 221.88076 25.271321 220.855575 27.746335 220.855575 30.326687 
C 220.855575 32.907039 221.88076 35.382054 223.705344 37.206638 
C 225.529928 39.031223 228.004943 40.056407 230.585295 40.056407 
z
" clip-path="url(#p79aa3176f7)" style="fill: #cd5c5c; stroke: #000000; stroke-linejoin: miter"/>
   </g>
   <g id="patch_19">
    <path d="M 230.585737 7.623688 
C 233.166089 7.623688 235.641103 6.598503 237.465688 4.773919 
C 239.290272 2.949335 240.315457 0.47432 240.315457 -2.106032 
C 240.315457 -4.686384 239.290272 -7.161399 237.465688 -8.985983 
C 235.641103 -10.810567 233.166089 -11.835752 230.585737 -11.835752 
C 228.005385 -11.835752 225.53037 -10.810567 223.705786 -8.985983 
C 221.881201 -7.161399 220.856017 -4.686384 220.856017 -2.106032 
C 220.856017 0.47432 221.881201 2.949335 223.705786 4.773919 
C 225.53037 6.598503 228.005385 7.623688 230.585737 7.623688 
z
" clip-path="url(#p79aa3176f7)" style="fill: #add8e6; stroke: #000000; stroke-linejoin: miter"/>
   </g>
   <g id="patch_20">
    <path d="M 230.585562 202.218151 
C 233.165914 202.218151 235.640929 201.192966 237.465513 199.368382 
C 239.290098 197.543797 240.315282 195.068783 240.315282 192.488431 
C 240.315282 189.908079 239.290098 187.433064 237.465513 185.60848 
C 235.640929 183.783895 233.165914 182.758711 230.585562 182.758711 
C 228.005211 182.758711 225.530196 183.783895 223.705611 185.60848 
C 221.881027 187.433064 220.855842 189.908079 220.855842 192.488431 
C 220.855842 195.068783 221.881027 197.543797 223.705611 199.368382 
C 225.530196 201.192966 228.005211 202.218151 230.585562 202.218151 
z
" clip-path="url(#p79aa3176f7)" style="fill: #663399; stroke: #000000; stroke-linejoin: miter"/>
   </g>
   <g id="patch_21">
    <path d="M 230.585319 234.650563 
C 233.165671 234.650563 235.640686 233.625379 237.46527 231.800794 
C 239.289854 229.97621 240.315039 227.501195 240.315039 224.920843 
C 240.315039 222.340491 239.289854 219.865477 237.46527 218.040892 
C 235.640686 216.216308 233.165671 215.191123 230.585319 215.191123 
C 228.004967 215.191123 225.529952 216.216308 223.705368 218.040892 
C 221.880784 219.865477 220.855599 222.340491 220.855599 224.920843 
C 220.855599 227.501195 221.880784 229.97621 223.705368 231.800794 
C 225.529952 233.625379 228.004967 234.650563 230.585319 234.650563 
z
" clip-path="url(#p79aa3176f7)" style="fill: #8fbc8f; stroke: #000000; stroke-linejoin: miter"/>
   </g>
   <g id="patch_22">
    <path d="M 230.586078 267.082896 
C 233.16643 267.082896 235.641445 266.057712 237.466029 264.233127 
C 239.290613 262.408543 240.315798 259.933528 240.315798 257.353176 
C 240.315798 254.772824 239.290613 252.29781 237.466029 250.473225 
C 235.641445 248.648641 233.16643 247.623456 230.586078 247.623456 
C 228.005726 247.623456 225.530711 248.648641 223.706127 250.473225 
C 221.881543 252.29781 220.856358 254.772824 220.856358 257.353176 
C 220.856358 259.933528 221.881543 262.408543 223.706127 264.233127 
C 225.530711 266.057712 228.005726 267.082896 230.586078 267.082896 
z
" clip-path="url(#p79aa3176f7)" style="fill: #00ced1; stroke: #000000; stroke-linejoin: miter"/>
   </g>
   <g id="patch_23">
    <path d="M 165.720558 72.488582 
C 168.30091 72.488582 170.775925 71.463397 172.600509 69.638812 
C 174.425093 67.814228 175.450278 65.339213 175.450278 62.758862 
C 175.450278 60.17851 174.425093 57.703495 172.600509 55.878911 
C 170.775925 54.054326 168.30091 53.029142 165.720558 53.029142 
C 163.140206 53.029142 160.665191 54.054326 158.840607 55.878911 
C 157.016023 57.703495 155.990838 60.17851 155.990838 62.758862 
C 155.990838 65.339213 157.016023 67.814228 158.840607 69.638812 
C 160.665191 71.463397 163.140206 72.488582 165.720558 72.488582 
z
" clip-path="url(#p79aa3176f7)" style="fill: #6a5acd; stroke: #000000; stroke-linejoin: miter"/>
   </g>
   <g id="patch_24">
    <path d="M 165.720615 40.056227 
C 168.300966 40.056227 170.775981 39.031042 172.600566 37.206458 
C 174.42515 35.381873 175.450335 32.906859 175.450335 30.326507 
C 175.450335 27.746155 174.42515 25.27114 172.600566 23.446556 
C 170.775981 21.621971 168.300966 20.596787 165.720615 20.596787 
C 163.140263 20.596787 160.665248 21.621971 158.840664 23.446556 
C 157.016079 25.27114 155.990895 27.746155 155.990895 30.326507 
C 155.990895 32.906859 157.016079 35.381873 158.840664 37.206458 
C 160.665248 39.031042 163.140263 40.056227 165.720615 40.056227 
z
" clip-path="url(#p79aa3176f7)" style="fill: #808000; stroke: #000000; stroke-linejoin: miter"/>
   </g>
   <g id="patch_25">
    <path d="M 165.720576 7.62373 
C 168.300928 7.62373 170.775943 6.598546 172.600527 4.773961 
C 174.425111 2.949377 175.450296 0.474362 175.450296 -2.10599 
C 175.450296 -4.686341 174.425111 -7.161356 172.600527 -8.985941 
C 170.775943 -10.810525 168.300928 -11.83571 165.720576 -11.83571 
C 163.140224 -11.83571 160.665209 -10.810525 158.840625 -8.985941 
C 157.016041 -7.161356 155.990856 -4.686341 155.990856 -2.10599 
C 155.990856 0.474362 157.016041 2.949377 158.840625 4.773961 
C 160.665209 6.598546 163.140224 7.62373 165.720576 7.62373 
z
" clip-path="url(#p79aa3176f7)" style="fill: #a0522d; stroke: #000000; stroke-linejoin: miter"/>
   </g>
   <g id="patch_26">
    <path d="M 165.720459 202.218321 
C 168.300811 202.218321 170.775826 201.193136 172.60041 199.368552 
C 174.424994 197.543968 175.450179 195.068953 175.450179 192.488601 
C 175.450179 189.908249 174.424994 187.433234 172.60041 185.60865 
C 170.775826 183.784066 168.300811 182.758881 165.720459 182.758881 
C 163.140107 182.758881 160.665092 183.784066 158.840508 185.60865 
C 157.015924 187.433234 155.990739 189.908249 155.990739 192.488601 
C 155.990739 195.068953 157.015924 197.543968 158.840508 199.368552 
C 160.665092 201.193136 163.140107 202.218321 165.720459 202.218321 
z
" clip-path="url(#p79aa3176f7)" style="fill: #ff4500; stroke: #000000; stroke-linejoin: miter"/>
   </g>
   <g id="patch_27">
    <path d="M 165.720682 234.650395 
C 168.301034 234.650395 170.776049 233.62521 172.600633 231.800626 
C 174.425217 229.976041 175.450402 227.501027 175.450402 224.920675 
C 175.450402 222.340323 174.425217 219.865308 172.600633 218.040724 
C 170.776049 216.216139 168.301034 215.190955 165.720682 215.190955 
C 163.14033 215.190955 160.665316 216.216139 158.840731 218.040724 
C 157.016147 219.865308 155.990962 222.340323 155.990962 224.920675 
C 155.990962 227.501027 157.016147 229.976041 158.840731 231.800626 
C 160.665316 233.62521 163.14033 234.650395 165.720682 234.650395 
z
" clip-path="url(#p79aa3176f7)" style="fill: #708090; stroke: #000000; stroke-linejoin: miter"/>
   </g>
   <g id="patch_28">
    <path d="M 165.720103 267.082904 
C 168.300455 267.082904 170.775469 266.05772 172.600054 264.233135 
C 174.424638 262.408551 175.449823 259.933536 175.449823 257.353184 
C 175.449823 254.772832 174.424638 252.297818 172.600054 250.473233 
C 170.775469 248.648649 168.300455 247.623464 165.720103 247.623464 
C 163.139751 247.623464 160.664736 248.648649 158.840152 250.473233 
C 157.015567 252.297818 155.990383 254.772832 155.990383 257.353184 
C 155.990383 259.933536 157.015567 262.408551 158.840152 264.233135 
C 160.664736 266.05772 163.139751 267.082904 165.720103 267.082904 
z
" clip-path="url(#p79aa3176f7)" style="fill: #bdb76b; stroke: #000000; stroke-linejoin: miter"/>
   </g>
   <g id="line2d_59">
    <path d="M 263.0178 127.6236 
" clip-path="url(#p79aa3176f7)" style="fill: none; stroke: #1f77b4; stroke-width: 1.5; stroke-linecap: square"/>
    <defs>
     <path id="m6a4f5e72c1" d="M 0 4.949747 
L 2.969848 0 
L 0 -4.949747 
L -2.969848 0 
z
" style="stroke: #000000; stroke-linejoin: miter"/>
    </defs>
    <g clip-path="url(#p79aa3176f7)">
     <use xlink:href="#m6a4f5e72c1" x="263.0178" y="127.6236" style="fill: #1f77b4; stroke: #000000; stroke-linejoin: miter"/>
    </g>
   </g>
   <g id="line2d_60">
    <path d="M 263.0178 127.6236 
" clip-path="url(#p79aa3176f7)" style="fill: none; stroke: #ff7f0e; stroke-width: 1.5; stroke-linecap: square"/>
    <defs>
     <path id="m5962e8f440" d="M 0 4.949747 
L 2.969848 0 
L 0 -4.949747 
L -2.969848 0 
z
" style="stroke: #000000; stroke-linejoin: miter"/>
    </defs>
    <g clip-path="url(#p79aa3176f7)">
     <use xlink:href="#m5962e8f440" x="263.0178" y="127.6236" style="fill: #ff7f0e; stroke: #000000; stroke-linejoin: miter"/>
    </g>
   </g>
   <g id="line2d_61">
    <path d="M 133.2882 95.1912 
" clip-path="url(#p79aa3176f7)" style="fill: none; stroke: #2ca02c; stroke-width: 1.5; stroke-linecap: square"/>
    <defs>
     <path id="mea08288e3c" d="M 0 4.949747 
L 2.969848 0 
L 0 -4.949747 
L -2.969848 0 
z
" style="stroke: #000000; stroke-linejoin: miter"/>
    </defs>
    <g clip-path="url(#p79aa3176f7)">
     <use xlink:href="#mea08288e3c" x="133.2882" y="95.1912" style="fill: #2ca02c; stroke: #000000; stroke-linejoin: miter"/>
    </g>
   </g>
   <g id="line2d_62">
    <path d="M 165.7206 95.1912 
" clip-path="url(#p79aa3176f7)" style="fill: none; stroke: #d62728; stroke-width: 1.5; stroke-linecap: square"/>
    <defs>
     <path id="m346b25bf37" d="M 0 4.949747 
L 2.969848 0 
L 0 -4.949747 
L -2.969848 0 
z
" style="stroke: #000000; stroke-linejoin: miter"/>
    </defs>
    <g clip-path="url(#p79aa3176f7)">
     <use xlink:href="#m346b25bf37" x="165.7206" y="95.1912" style="fill: #d62728; stroke: #000000; stroke-linejoin: miter"/>
    </g>
   </g>
   <g id="line2d_63">
    <path d="M 230.5854 95.1912 
" clip-path="url(#p79aa3176f7)" style="fill: none; stroke: #9467bd; stroke-width: 1.5; stroke-linecap: square"/>
    <defs>
     <path id="ma7be812bcf" d="M 0 4.949747 
L 2.969848 0 
L 0 -4.949747 
L -2.969848 0 
z
" style="stroke: #000000; stroke-linejoin: miter"/>
    </defs>
    <g clip-path="url(#p79aa3176f7)">
     <use xlink:href="#ma7be812bcf" x="230.5854" y="95.1912" style="fill: #9467bd; stroke: #000000; stroke-linejoin: miter"/>
    </g>
   </g>
   <g id="line2d_64">
    <path d="M 263.0178 95.1912 
" clip-path="url(#p79aa3176f7)" style="fill: none; stroke: #8c564b; stroke-width: 1.5; stroke-linecap: square"/>
    <defs>
     <path id="ma470532d81" d="M 0 4.949747 
L 2.969848 0 
L 0 -4.949747 
L -2.969848 0 
z
" style="stroke: #000000; stroke-linejoin: miter"/>
    </defs>
    <g clip-path="url(#p79aa3176f7)">
     <use xlink:href="#ma470532d81" x="263.0178" y="95.1912" style="fill: #8c564b; stroke: #000000; stroke-linejoin: miter"/>
    </g>
   </g>
   <g id="line2d_65">
    <path d="M 133.2882 160.056 
" clip-path="url(#p79aa3176f7)" style="fill: none; stroke: #e377c2; stroke-width: 1.5; stroke-linecap: square"/>
    <defs>
     <path id="md0dd46c5ad" d="M 0 4.949747 
L 2.969848 0 
L 0 -4.949747 
L -2.969848 0 
z
" style="stroke: #000000; stroke-linejoin: miter"/>
    </defs>
    <g clip-path="url(#p79aa3176f7)">
     <use xlink:href="#md0dd46c5ad" x="133.2882" y="160.056" style="fill: #e377c2; stroke: #000000; stroke-linejoin: miter"/>
    </g>
   </g>
   <g id="line2d_66">
    <path d="M 165.7206 160.056 
" clip-path="url(#p79aa3176f7)" style="fill: none; stroke: #7f7f7f; stroke-width: 1.5; stroke-linecap: square"/>
    <defs>
     <path id="m05390a8042" d="M 0 4.949747 
L 2.969848 0 
L 0 -4.949747 
L -2.969848 0 
z
" style="stroke: #000000; stroke-linejoin: miter"/>
    </defs>
    <g clip-path="url(#p79aa3176f7)">
     <use xlink:href="#m05390a8042" x="165.7206" y="160.056" style="fill: #7f7f7f; stroke: #000000; stroke-linejoin: miter"/>
    </g>
   </g>
   <g id="line2d_67">
    <path d="M 230.5854 160.056 
" clip-path="url(#p79aa3176f7)" style="fill: none; stroke: #bcbd22; stroke-width: 1.5; stroke-linecap: square"/>
    <defs>
     <path id="m213ddabed8" d="M 0 4.949747 
L 2.969848 0 
L 0 -4.949747 
L -2.969848 0 
z
" style="stroke: #000000; stroke-linejoin: miter"/>
    </defs>
    <g clip-path="url(#p79aa3176f7)">
     <use xlink:href="#m213ddabed8" x="230.5854" y="160.056" style="fill: #bcbd22; stroke: #000000; stroke-linejoin: miter"/>
    </g>
   </g>
   <g id="line2d_68">
    <path d="M 263.0178 160.056 
" clip-path="url(#p79aa3176f7)" style="fill: none; stroke: #17becf; stroke-width: 1.5; stroke-linecap: square"/>
    <defs>
     <path id="mfad20ab08b" d="M 0 4.949747 
L 2.969848 0 
L 0 -4.949747 
L -2.969848 0 
z
" style="stroke: #000000; stroke-linejoin: miter"/>
    </defs>
    <g clip-path="url(#p79aa3176f7)">
     <use xlink:href="#mfad20ab08b" x="263.0178" y="160.056" style="fill: #17becf; stroke: #000000; stroke-linejoin: miter"/>
    </g>
   </g>
   <g id="line2d_69">
    <path d="M 230.5854 62.7588 
" clip-path="url(#p79aa3176f7)" style="fill: none; stroke: #2f4f4f; stroke-width: 1.5; stroke-linecap: square"/>
    <defs>
     <path id="m6c6c488be7" d="M 0 4.949747 
L 2.969848 0 
L 0 -4.949747 
L -2.969848 0 
z
" style="stroke: #000000; stroke-linejoin: miter"/>
    </defs>
    <g clip-path="url(#p79aa3176f7)">
     <use xlink:href="#m6c6c488be7" x="230.5854" y="62.7588" style="fill: #2f4f4f; stroke: #000000; stroke-linejoin: miter"/>
    </g>
   </g>
   <g id="line2d_70">
    <path d="M 230.5854 30.3264 
" clip-path="url(#p79aa3176f7)" style="fill: none; stroke: #cd5c5c; stroke-width: 1.5; stroke-linecap: square"/>
    <defs>
     <path id="m075a7f49a4" d="M 0 4.949747 
L 2.969848 0 
L 0 -4.949747 
L -2.969848 0 
z
" style="stroke: #000000; stroke-linejoin: miter"/>
    </defs>
    <g clip-path="url(#p79aa3176f7)">
     <use xlink:href="#m075a7f49a4" x="230.5854" y="30.3264" style="fill: #cd5c5c; stroke: #000000; stroke-linejoin: miter"/>
    </g>
   </g>
   <g id="line2d_71">
    <path clip-path="url(#p79aa3176f7)" style="fill: none; stroke: #add8e6; stroke-width: 1.5; stroke-linecap: square"/>
    <defs>
     <path id="m66ffc29d6b" d="M 0 4.949747 
L 2.969848 0 
L 0 -4.949747 
L -2.969848 0 
z
" style="stroke: #000000; stroke-linejoin: miter"/>
    </defs>
    <g clip-path="url(#p79aa3176f7)"/>
   </g>
   <g id="line2d_72">
    <path d="M 230.5854 192.4884 
" clip-path="url(#p79aa3176f7)" style="fill: none; stroke: #663399; stroke-width: 1.5; stroke-linecap: square"/>
    <defs>
     <path id="m8c963eb774" d="M 0 4.949747 
L 2.969848 0 
L 0 -4.949747 
L -2.969848 0 
z
" style="stroke: #000000; stroke-linejoin: miter"/>
    </defs>
    <g clip-path="url(#p79aa3176f7)">
     <use xlink:href="#m8c963eb774" x="230.5854" y="192.4884" style="fill: #663399; stroke: #000000; stroke-linejoin: miter"/>
    </g>
   </g>
   <g id="line2d_73">
    <path d="M 230.5854 224.9208 
" clip-path="url(#p79aa3176f7)" style="fill: none; stroke: #8fbc8f; stroke-width: 1.5; stroke-linecap: square"/>
    <defs>
     <path id="m463b7eba5e" d="M 0 4.949747 
L 2.969848 0 
L 0 -4.949747 
L -2.969848 0 
z
" style="stroke: #000000; stroke-linejoin: miter"/>
    </defs>
    <g clip-path="url(#p79aa3176f7)">
     <use xlink:href="#m463b7eba5e" x="230.5854" y="224.9208" style="fill: #8fbc8f; stroke: #000000; stroke-linejoin: miter"/>
    </g>
   </g>
   <g id="line2d_74">
    <path clip-path="url(#p79aa3176f7)" style="fill: none; stroke: #00ced1; stroke-width: 1.5; stroke-linecap: square"/>
    <defs>
     <path id="me27750f191" d="M 0 4.949747 
L 2.969848 0 
L 0 -4.949747 
L -2.969848 0 
z
" style="stroke: #000000; stroke-linejoin: miter"/>
    </defs>
    <g clip-path="url(#p79aa3176f7)">
     <use xlink:href="#me27750f191" x="230.5854" y="257.3532" style="fill: #00ced1; stroke: #000000; stroke-linejoin: miter"/>
    </g>
   </g>
   <g id="line2d_75">
    <path d="M 165.7206 62.7588 
" clip-path="url(#p79aa3176f7)" style="fill: none; stroke: #6a5acd; stroke-width: 1.5; stroke-linecap: square"/>
    <defs>
     <path id="m7623b0ccdc" d="M 0 4.949747 
L 2.969848 0 
L 0 -4.949747 
L -2.969848 0 
z
" style="stroke: #000000; stroke-linejoin: miter"/>
    </defs>
    <g clip-path="url(#p79aa3176f7)">
     <use xlink:href="#m7623b0ccdc" x="165.7206" y="62.7588" style="fill: #6a5acd; stroke: #000000; stroke-linejoin: miter"/>
    </g>
   </g>
   <g id="line2d_76">
    <path d="M 165.7206 30.3264 
" clip-path="url(#p79aa3176f7)" style="fill: none; stroke: #808000; stroke-width: 1.5; stroke-linecap: square"/>
    <defs>
     <path id="m298a40c735" d="M 0 4.949747 
L 2.969848 0 
L 0 -4.949747 
L -2.969848 0 
z
" style="stroke: #000000; stroke-linejoin: miter"/>
    </defs>
    <g clip-path="url(#p79aa3176f7)">
     <use xlink:href="#m298a40c735" x="165.7206" y="30.3264" style="fill: #808000; stroke: #000000; stroke-linejoin: miter"/>
    </g>
   </g>
   <g id="line2d_77">
    <path clip-path="url(#p79aa3176f7)" style="fill: none; stroke: #a0522d; stroke-width: 1.5; stroke-linecap: square"/>
    <defs>
     <path id="mdf470e99ce" d="M 0 4.949747 
L 2.969848 0 
L 0 -4.949747 
L -2.969848 0 
z
" style="stroke: #000000; stroke-linejoin: miter"/>
    </defs>
    <g clip-path="url(#p79aa3176f7)"/>
   </g>
   <g id="line2d_78">
    <path d="M 165.7206 192.4884 
" clip-path="url(#p79aa3176f7)" style="fill: none; stroke: #ff4500; stroke-width: 1.5; stroke-linecap: square"/>
    <defs>
     <path id="m0e48e8aadc" d="M 0 4.949747 
L 2.969848 0 
L 0 -4.949747 
L -2.969848 0 
z
" style="stroke: #000000; stroke-linejoin: miter"/>
    </defs>
    <g clip-path="url(#p79aa3176f7)">
     <use xlink:href="#m0e48e8aadc" x="165.7206" y="192.4884" style="fill: #ff4500; stroke: #000000; stroke-linejoin: miter"/>
    </g>
   </g>
   <g id="line2d_79">
    <path d="M 165.7206 224.9208 
" clip-path="url(#p79aa3176f7)" style="fill: none; stroke: #708090; stroke-width: 1.5; stroke-linecap: square"/>
    <defs>
     <path id="mc43471f05c" d="M 0 4.949747 
L 2.969848 0 
L 0 -4.949747 
L -2.969848 0 
z
" style="stroke: #000000; stroke-linejoin: miter"/>
    </defs>
    <g clip-path="url(#p79aa3176f7)">
     <use xlink:href="#mc43471f05c" x="165.7206" y="224.9208" style="fill: #708090; stroke: #000000; stroke-linejoin: miter"/>
    </g>
   </g>
   <g id="line2d_80">
    <path clip-path="url(#p79aa3176f7)" style="fill: none; stroke: #bdb76b; stroke-width: 1.5; stroke-linecap: square"/>
    <defs>
     <path id="m583454874e" d="M 0 4.949747 
L 2.969848 0 
L 0 -4.949747 
L -2.969848 0 
z
" style="stroke: #000000; stroke-linejoin: miter"/>
    </defs>
    <g clip-path="url(#p79aa3176f7)">
     <use xlink:href="#m583454874e" x="165.7206" y="257.3532" style="fill: #bdb76b; stroke: #000000; stroke-linejoin: miter"/>
    </g>
   </g>
  </g>
 </g>
 <defs>
  <clipPath id="p79aa3176f7">
   <rect x="100.8558" y="30.3264" width="194.5944" height="194.5944"/>
  </clipPath>
 </defs>
</svg>
