<?xml version="1.0" encoding="utf-8" standalone="no"?>
<!DOCTYPE svg PUBLIC "-//W3C//DTD SVG 1.1//EN"
  "http://www.w3.org/Graphics/SVG/1.1/DTD/svg11.dtd">
<svg xmlns:xlink="http://www.w3.org/1999/xlink" width="386.64pt" height="252.72pt" viewBox="0 0 386.64 252.72" xmlns="http://www.w3.org/2000/svg" version="1.1">
 <metadata>
  <rdf:RDF xmlns:dc="http://purl.org/dc/elements/1.1/" xmlns:cc="http://creativecommons.org/ns#" xmlns:rdf="http://www.w3.org/1999/02/22-rdf-syntax-ns#">
   <cc:Work>
    <dc:type rdf:resource="http://purl.org/dc/dcmitype/StillImage"/>
    <dc:date>2023-07-11T22:26:55.342330</dc:date>
    <dc:format>image/svg+xml</dc:format>
    <dc:creator>
     <cc:Agent>
      <dc:title>Matplotlib v3.6.2, https://matplotlib.org/</dc:title>
     </cc:Agent>
    </dc:creator>
   </cc:Work>
  </rdf:RDF>
 </metadata>
 <defs>
  <style type="text/css">*{stroke-linejoin: round; stroke-linecap: butt}</style>
 </defs>
 <g id="figure_1">
  <g id="patch_1">
   <path d="M 0 252.72 
L 386.64 252.72 
L 386.64 0 
L 0 0 
z
" style="fill: #ffffff"/>
  </g>
  <g id="axes_1">
   <g id="patch_2">
    <path d="M 100.8558 224.9208 
L 295.4502 224.9208 
L 295.4502 30.3264 
L 100.8558 30.3264 
z
" style="fill: #ffffff"/>
   </g>
   <g id="matplotlib.axis_1">
    <g id="xtick_1">
     <g id="line2d_1">
      <defs>
       <path id="mfbe759275a" d="M 0 0 
L 0 3.5 
" style="stroke: #000000; stroke-width: 0.8"/>
      </defs>
      <g>
       <use xlink:href="#mfbe759275a" x="100.8558" y="224.9208" style="stroke: #000000; stroke-width: 0.8"/>
      </g>
     </g>
     <g id="text_1">
      <!-- −0.5 -->
      <g transform="translate(88.714394 239.519237) scale(0.1 -0.1)">
       <defs>
        <path id="DejaVuSans-2212" d="M 678 2272 
L 4684 2272 
L 4684 1741 
L 678 1741 
L 678 2272 
z
" transform="scale(0.015625)"/>
        <path id="DejaVuSans-30" d="M 2034 4250 
Q 1547 4250 1301 3770 
Q 1056 3291 1056 2328 
Q 1056 1369 1301 889 
Q 1547 409 2034 409 
Q 2525 409 2770 889 
Q 3016 1369 3016 2328 
Q 3016 3291 2770 3770 
Q 2525 4250 2034 4250 
z
M 2034 4750 
Q 2819 4750 3233 4129 
Q 3647 3509 3647 2328 
Q 3647 1150 3233 529 
Q 2819 -91 2034 -91 
Q 1250 -91 836 529 
Q 422 1150 422 2328 
Q 422 3509 836 4129 
Q 1250 4750 2034 4750 
z
" transform="scale(0.015625)"/>
        <path id="DejaVuSans-2e" d="M 684 794 
L 1344 794 
L 1344 0 
L 684 0 
L 684 794 
z
" transform="scale(0.015625)"/>
        <path id="DejaVuSans-35" d="M 691 4666 
L 3169 4666 
L 3169 4134 
L 1269 4134 
L 1269 2991 
Q 1406 3038 1543 3061 
Q 1681 3084 1819 3084 
Q 2600 3084 3056 2656 
Q 3513 2228 3513 1497 
Q 3513 744 3044 326 
Q 2575 -91 1722 -91 
Q 1428 -91 1123 -41 
Q 819 9 494 109 
L 494 744 
Q 775 591 1075 516 
Q 1375 441 1709 441 
Q 2250 441 2565 725 
Q 2881 1009 2881 1497 
Q 2881 1984 2565 2268 
Q 2250 2553 1709 2553 
Q 1456 2553 1204 2497 
Q 953 2441 691 2322 
L 691 4666 
z
" transform="scale(0.015625)"/>
       </defs>
       <use xlink:href="#DejaVuSans-2212"/>
       <use xlink:href="#DejaVuSans-30" x="83.789062"/>
       <use xlink:href="#DejaVuSans-2e" x="147.412109"/>
       <use xlink:href="#DejaVuSans-35" x="179.199219"/>
      </g>
     </g>
    </g>
    <g id="xtick_2">
     <g id="line2d_2">
      <g>
       <use xlink:href="#mfbe759275a" x="133.2882" y="224.9208" style="stroke: #000000; stroke-width: 0.8"/>
      </g>
     </g>
     <g id="text_2">
      <!-- 0.0 -->
      <g transform="translate(125.336638 239.519237) scale(0.1 -0.1)">
       <use xlink:href="#DejaVuSans-30"/>
       <use xlink:href="#DejaVuSans-2e" x="63.623047"/>
       <use xlink:href="#DejaVuSans-30" x="95.410156"/>
      </g>
     </g>
    </g>
    <g id="xtick_3">
     <g id="line2d_3">
      <g>
       <use xlink:href="#mfbe759275a" x="165.7206" y="224.9208" style="stroke: #000000; stroke-width: 0.8"/>
      </g>
     </g>
     <g id="text_3">
      <!-- 0.5 -->
      <g transform="translate(157.769037 239.519237) scale(0.1 -0.1)">
       <use xlink:href="#DejaVuSans-30"/>
       <use xlink:href="#DejaVuSans-2e" x="63.623047"/>
       <use xlink:href="#DejaVuSans-35" x="95.410156"/>
      </g>
     </g>
    </g>
    <g id="xtick_4">
     <g id="line2d_4">
      <g>
       <use xlink:href="#mfbe759275a" x="198.153" y="224.9208" style="stroke: #000000; stroke-width: 0.8"/>
      </g>
     </g>
     <g id="text_4">
      <!-- 1.0 -->
      <g transform="translate(190.201437 239.519237) scale(0.1 -0.1)">
       <defs>
        <path id="DejaVuSans-31" d="M 794 531 
L 1825 531 
L 1825 4091 
L 703 3866 
L 703 4441 
L 1819 4666 
L 2450 4666 
L 2450 531 
L 3481 531 
L 3481 0 
L 794 0 
L 794 531 
z
" transform="scale(0.015625)"/>
       </defs>
       <use xlink:href="#DejaVuSans-31"/>
       <use xlink:href="#DejaVuSans-2e" x="63.623047"/>
       <use xlink:href="#DejaVuSans-30" x="95.410156"/>
      </g>
     </g>
    </g>
    <g id="xtick_5">
     <g id="line2d_5">
      <g>
       <use xlink:href="#mfbe759275a" x="230.5854" y="224.9208" style="stroke: #000000; stroke-width: 0.8"/>
      </g>
     </g>
     <g id="text_5">
      <!-- 1.5 -->
      <g transform="translate(222.633837 239.519237) scale(0.1 -0.1)">
       <use xlink:href="#DejaVuSans-31"/>
       <use xlink:href="#DejaVuSans-2e" x="63.623047"/>
       <use xlink:href="#DejaVuSans-35" x="95.410156"/>
      </g>
     </g>
    </g>
    <g id="xtick_6">
     <g id="line2d_6">
      <g>
       <use xlink:href="#mfbe759275a" x="263.0178" y="224.9208" style="stroke: #000000; stroke-width: 0.8"/>
      </g>
     </g>
     <g id="text_6">
      <!-- 2.0 -->
      <g transform="translate(255.066237 239.519237) scale(0.1 -0.1)">
       <defs>
        <path id="DejaVuSans-32" d="M 1228 531 
L 3431 531 
L 3431 0 
L 469 0 
L 469 531 
Q 828 903 1448 1529 
Q 2069 2156 2228 2338 
Q 2531 2678 2651 2914 
Q 2772 3150 2772 3378 
Q 2772 3750 2511 3984 
Q 2250 4219 1831 4219 
Q 1534 4219 1204 4116 
Q 875 4013 500 3803 
L 500 4441 
Q 881 4594 1212 4672 
Q 1544 4750 1819 4750 
Q 2544 4750 2975 4387 
Q 3406 4025 3406 3419 
Q 3406 3131 3298 2873 
Q 3191 2616 2906 2266 
Q 2828 2175 2409 1742 
Q 1991 1309 1228 531 
z
" transform="scale(0.015625)"/>
       </defs>
       <use xlink:href="#DejaVuSans-32"/>
       <use xlink:href="#DejaVuSans-2e" x="63.623047"/>
       <use xlink:href="#DejaVuSans-30" x="95.410156"/>
      </g>
     </g>
    </g>
    <g id="xtick_7">
     <g id="line2d_7">
      <g>
       <use xlink:href="#mfbe759275a" x="295.4502" y="224.9208" style="stroke: #000000; stroke-width: 0.8"/>
      </g>
     </g>
     <g id="text_7">
      <!-- 2.5 -->
      <g transform="translate(287.498637 239.519237) scale(0.1 -0.1)">
       <use xlink:href="#DejaVuSans-32"/>
       <use xlink:href="#DejaVuSans-2e" x="63.623047"/>
       <use xlink:href="#DejaVuSans-35" x="95.410156"/>
      </g>
     </g>
    </g>
    <g id="text_8">
     <!-- x(m) -->
     <g transform="translate(186.42175 253.197362) scale(0.1 -0.1)">
      <defs>
       <path id="DejaVuSans-78" d="M 3513 3500 
L 2247 1797 
L 3578 0 
L 2900 0 
L 1881 1375 
L 863 0 
L 184 0 
L 1544 1831 
L 300 3500 
L 978 3500 
L 1906 2253 
L 2834 3500 
L 3513 3500 
z
" transform="scale(0.015625)"/>
       <path id="DejaVuSans-28" d="M 1984 4856 
Q 1566 4138 1362 3434 
Q 1159 2731 1159 2009 
Q 1159 1288 1364 580 
Q 1569 -128 1984 -844 
L 1484 -844 
Q 1016 -109 783 600 
Q 550 1309 550 2009 
Q 550 2706 781 3412 
Q 1013 4119 1484 4856 
L 1984 4856 
z
" transform="scale(0.015625)"/>
       <path id="DejaVuSans-6d" d="M 3328 2828 
Q 3544 3216 3844 3400 
Q 4144 3584 4550 3584 
Q 5097 3584 5394 3201 
Q 5691 2819 5691 2113 
L 5691 0 
L 5113 0 
L 5113 2094 
Q 5113 2597 4934 2840 
Q 4756 3084 4391 3084 
Q 3944 3084 3684 2787 
Q 3425 2491 3425 1978 
L 3425 0 
L 2847 0 
L 2847 2094 
Q 2847 2600 2669 2842 
Q 2491 3084 2119 3084 
Q 1678 3084 1418 2786 
Q 1159 2488 1159 1978 
L 1159 0 
L 581 0 
L 581 3500 
L 1159 3500 
L 1159 2956 
Q 1356 3278 1631 3431 
Q 1906 3584 2284 3584 
Q 2666 3584 2933 3390 
Q 3200 3197 3328 2828 
z
" transform="scale(0.015625)"/>
       <path id="DejaVuSans-29" d="M 513 4856 
L 1013 4856 
Q 1481 4119 1714 3412 
Q 1947 2706 1947 2009 
Q 1947 1309 1714 600 
Q 1481 -109 1013 -844 
L 513 -844 
Q 928 -128 1133 580 
Q 1338 1288 1338 2009 
Q 1338 2731 1133 3434 
Q 928 4138 513 4856 
z
" transform="scale(0.015625)"/>
      </defs>
      <use xlink:href="#DejaVuSans-78"/>
      <use xlink:href="#DejaVuSans-28" x="59.179688"/>
      <use xlink:href="#DejaVuSans-6d" x="98.193359"/>
      <use xlink:href="#DejaVuSans-29" x="195.605469"/>
     </g>
    </g>
   </g>
   <g id="matplotlib.axis_2">
    <g id="ytick_1">
     <g id="line2d_8">
      <defs>
       <path id="m5dee9d24fd" d="M 0 0 
L -3.5 0 
" style="stroke: #000000; stroke-width: 0.8"/>
      </defs>
      <g>
       <use xlink:href="#m5dee9d24fd" x="100.8558" y="224.9208" style="stroke: #000000; stroke-width: 0.8"/>
      </g>
     </g>
     <g id="text_9">
      <!-- −0.5 -->
      <g transform="translate(69.572988 228.720019) scale(0.1 -0.1)">
       <use xlink:href="#DejaVuSans-2212"/>
       <use xlink:href="#DejaVuSans-30" x="83.789062"/>
       <use xlink:href="#DejaVuSans-2e" x="147.412109"/>
       <use xlink:href="#DejaVuSans-35" x="179.199219"/>
      </g>
     </g>
    </g>
    <g id="ytick_2">
     <g id="line2d_9">
      <g>
       <use xlink:href="#m5dee9d24fd" x="100.8558" y="192.4884" style="stroke: #000000; stroke-width: 0.8"/>
      </g>
     </g>
     <g id="text_10">
      <!-- 0.0 -->
      <g transform="translate(77.952675 196.287619) scale(0.1 -0.1)">
       <use xlink:href="#DejaVuSans-30"/>
       <use xlink:href="#DejaVuSans-2e" x="63.623047"/>
       <use xlink:href="#DejaVuSans-30" x="95.410156"/>
      </g>
     </g>
    </g>
    <g id="ytick_3">
     <g id="line2d_10">
      <g>
       <use xlink:href="#m5dee9d24fd" x="100.8558" y="160.056" style="stroke: #000000; stroke-width: 0.8"/>
      </g>
     </g>
     <g id="text_11">
      <!-- 0.5 -->
      <g transform="translate(77.952675 163.855219) scale(0.1 -0.1)">
       <use xlink:href="#DejaVuSans-30"/>
       <use xlink:href="#DejaVuSans-2e" x="63.623047"/>
       <use xlink:href="#DejaVuSans-35" x="95.410156"/>
      </g>
     </g>
    </g>
    <g id="ytick_4">
     <g id="line2d_11">
      <g>
       <use xlink:href="#m5dee9d24fd" x="100.8558" y="127.6236" style="stroke: #000000; stroke-width: 0.8"/>
      </g>
     </g>
     <g id="text_12">
      <!-- 1.0 -->
      <g transform="translate(77.952675 131.422819) scale(0.1 -0.1)">
       <use xlink:href="#DejaVuSans-31"/>
       <use xlink:href="#DejaVuSans-2e" x="63.623047"/>
       <use xlink:href="#DejaVuSans-30" x="95.410156"/>
      </g>
     </g>
    </g>
    <g id="ytick_5">
     <g id="line2d_12">
      <g>
       <use xlink:href="#m5dee9d24fd" x="100.8558" y="95.1912" style="stroke: #000000; stroke-width: 0.8"/>
      </g>
     </g>
     <g id="text_13">
      <!-- 1.5 -->
      <g transform="translate(77.952675 98.990419) scale(0.1 -0.1)">
       <use xlink:href="#DejaVuSans-31"/>
       <use xlink:href="#DejaVuSans-2e" x="63.623047"/>
       <use xlink:href="#DejaVuSans-35" x="95.410156"/>
      </g>
     </g>
    </g>
    <g id="ytick_6">
     <g id="line2d_13">
      <g>
       <use xlink:href="#m5dee9d24fd" x="100.8558" y="62.7588" style="stroke: #000000; stroke-width: 0.8"/>
      </g>
     </g>
     <g id="text_14">
      <!-- 2.0 -->
      <g transform="translate(77.952675 66.558019) scale(0.1 -0.1)">
       <use xlink:href="#DejaVuSans-32"/>
       <use xlink:href="#DejaVuSans-2e" x="63.623047"/>
       <use xlink:href="#DejaVuSans-30" x="95.410156"/>
      </g>
     </g>
    </g>
    <g id="ytick_7">
     <g id="line2d_14">
      <g>
       <use xlink:href="#m5dee9d24fd" x="100.8558" y="30.3264" style="stroke: #000000; stroke-width: 0.8"/>
      </g>
     </g>
     <g id="text_15">
      <!-- 2.5 -->
      <g transform="translate(77.952675 34.125619) scale(0.1 -0.1)">
       <use xlink:href="#DejaVuSans-32"/>
       <use xlink:href="#DejaVuSans-2e" x="63.623047"/>
       <use xlink:href="#DejaVuSans-35" x="95.410156"/>
      </g>
     </g>
    </g>
    <g id="text_16">
     <!-- y(m) -->
     <g transform="translate(63.4933 139.35485) rotate(-90) scale(0.1 -0.1)">
      <defs>
       <path id="DejaVuSans-79" d="M 2059 -325 
Q 1816 -950 1584 -1140 
Q 1353 -1331 966 -1331 
L 506 -1331 
L 506 -850 
L 844 -850 
Q 1081 -850 1212 -737 
Q 1344 -625 1503 -206 
L 1606 56 
L 191 3500 
L 800 3500 
L 1894 763 
L 2988 3500 
L 3597 3500 
L 2059 -325 
z
" transform="scale(0.015625)"/>
      </defs>
      <use xlink:href="#DejaVuSans-79"/>
      <use xlink:href="#DejaVuSans-28" x="59.179688"/>
      <use xlink:href="#DejaVuSans-6d" x="98.193359"/>
      <use xlink:href="#DejaVuSans-29" x="195.605469"/>
     </g>
    </g>
   </g>
   <g id="line2d_15">
    <path d="M 238.341407 126.667687 
L 249.583984 126.390627 
L 256.563752 126.796129 
L 259.512777 127.1573 
L 260.910548 127.345406 
L 261.827693 127.466634 
L 262.464164 127.550631 
L 262.932279 127.612321 
L 263.001833 127.621499 
L 263.014317 127.623142 
L 263.016916 127.623484 
L 263.017483 127.623558 
L 263.017483 127.623558 
" clip-path="url(#p1443e026e3)" style="fill: none; stroke-dasharray: 2,3.3; stroke-dashoffset: 0; stroke: #1f77b4; stroke-width: 2"/>
   </g>
   <g id="line2d_16">
    <path d="M 133.2882 127.6236 
L 133.2882 127.6236 
L 133.768676 127.621531 
L 138.573349 127.593776 
L 147.701648 127.493337 
L 160.673863 127.41217 
L 173.646739 127.459601 
L 186.619963 127.486284 
L 199.592908 127.523189 
L 212.567005 127.607597 
L 225.536461 127.5202 
L 238.341407 126.667687 
" clip-path="url(#p1443e026e3)" style="fill: none; stroke: #1f77b4; stroke-width: 2; stroke-linecap: square"/>
   </g>
   <g id="line2d_17">
    <path d="M 218.032057 141.250712 
L 225.918805 137.091436 
L 230.185285 134.871051 
L 232.614542 133.868416 
L 234.30697 133.205787 
L 235.431502 132.773405 
L 236.212742 132.472987 
L 236.78665 132.252302 
L 237.22605 132.083342 
L 237.573233 131.949843 
L 237.854452 131.841709 
L 238.086866 131.752343 
L 238.086866 131.752343 
" clip-path="url(#p1443e026e3)" style="fill: none; stroke-dasharray: 2,3.3; stroke-dashoffset: 0; stroke: #ff7f0e; stroke-width: 2"/>
   </g>
   <g id="line2d_18">
    <path d="M 198.153 205.46136 
L 198.153 205.46136 
L 198.164648 204.981025 
L 198.417246 200.200816 
L 199.877385 191.454013 
L 201.48243 180.264573 
L 202.738317 169.560811 
L 204.917797 161.07713 
L 207.09932 154.814228 
L 209.379241 150.892168 
L 211.999015 147.096721 
L 218.032057 141.250712 
" clip-path="url(#p1443e026e3)" style="fill: none; stroke: #ff7f0e; stroke-width: 2; stroke-linecap: square"/>
   </g>
   <g id="line2d_19">
    <path d="M 133.28823 95.191064 
L 133.288232 95.191043 
L 133.288234 95.191022 
L 133.288235 95.191004 
L 133.288234 95.19099 
L 133.288233 95.19098 
L 133.28823 95.190975 
L 133.288226 95.190976 
L 133.288222 95.190981 
L 133.288218 95.19099 
L 133.288216 95.190997 
L 133.288214 95.191001 
L 133.288214 95.191001 
" clip-path="url(#p1443e026e3)" style="fill: none; stroke-dasharray: 2,3.3; stroke-dashoffset: 0; stroke: #2ca02c; stroke-width: 2"/>
   </g>
   <g id="line2d_20">
    <path d="M 133.2882 95.1912 
L 133.2882 95.1912 
L 133.2882 95.1912 
L 133.288202 95.1912 
L 133.288204 95.191197 
L 133.288206 95.19119 
L 133.288211 95.191173 
L 133.288216 95.191155 
L 133.288222 95.191135 
L 133.288224 95.191111 
L 133.288228 95.191086 
L 133.28823 95.191064 
" clip-path="url(#p1443e026e3)" style="fill: none; stroke: #2ca02c; stroke-width: 2; stroke-linecap: square"/>
   </g>
   <g id="line2d_21">
    <path d="M 165.720264 95.191013 
L 165.720259 95.191012 
L 165.720254 95.191012 
L 165.720256 95.191016 
L 165.720276 95.191029 
L 165.720311 95.19105 
L 165.720358 95.191075 
L 165.720411 95.191102 
L 165.720464 95.191129 
L 165.720511 95.191153 
L 165.720543 95.19117 
L 165.720558 95.191178 
L 165.720558 95.191178 
" clip-path="url(#p1443e026e3)" style="fill: none; stroke-dasharray: 2,3.3; stroke-dashoffset: 0; stroke: #d62728; stroke-width: 2"/>
   </g>
   <g id="line2d_22">
    <path d="M 165.7206 95.1912 
L 165.7206 95.1912 
L 165.720601 95.191194 
L 165.720603 95.19115 
L 165.720581 95.191153 
L 165.720541 95.191158 
L 165.720483 95.19116 
L 165.720422 95.191125 
L 165.720366 95.191081 
L 165.720311 95.191045 
L 165.720281 95.191024 
L 165.720264 95.191013 
" clip-path="url(#p1443e026e3)" style="fill: none; stroke: #d62728; stroke-width: 2; stroke-linecap: square"/>
   </g>
   <g id="line2d_23">
    <path d="M 230.585594 95.19117 
L 230.585633 95.191129 
L 230.585681 95.191098 
L 230.585724 95.191076 
L 230.585739 95.191071 
L 230.585727 95.191077 
L 230.585694 95.191092 
L 230.585644 95.191112 
L 230.585585 95.191134 
L 230.585529 95.191155 
L 230.585488 95.19117 
L 230.585468 95.191177 
L 230.585468 95.191177 
" clip-path="url(#p1443e026e3)" style="fill: none; stroke-dasharray: 2,3.3; stroke-dashoffset: 0; stroke: #9467bd; stroke-width: 2"/>
   </g>
   <g id="line2d_24">
    <path d="M 230.5854 95.1912 
L 230.5854 95.1912 
L 230.5854 95.191198 
L 230.585399 95.191183 
L 230.585405 95.191174 
L 230.585427 95.191186 
L 230.585443 95.191202 
L 230.585457 95.191257 
L 230.585477 95.191298 
L 230.585509 95.191287 
L 230.585553 95.191222 
L 230.585594 95.19117 
" clip-path="url(#p1443e026e3)" style="fill: none; stroke: #9467bd; stroke-width: 2; stroke-linecap: square"/>
   </g>
   <g id="line2d_25">
    <path d="M 263.017814 95.191106 
L 263.017803 95.19107 
L 263.017796 95.191031 
L 263.017794 95.190995 
L 263.017794 95.190962 
L 263.017795 95.190935 
L 263.017796 95.190915 
L 263.017796 95.190902 
L 263.017795 95.190898 
L 263.017793 95.190901 
L 263.017791 95.190906 
L 263.01779 95.190909 
L 263.01779 95.190909 
" clip-path="url(#p1443e026e3)" style="fill: none; stroke-dasharray: 2,3.3; stroke-dashoffset: 0; stroke: #8c564b; stroke-width: 2"/>
   </g>
   <g id="line2d_26">
    <path d="M 263.0178 95.1912 
L 263.0178 95.1912 
L 263.017801 95.1912 
L 263.017807 95.191203 
L 263.017812 95.191199 
L 263.017815 95.191193 
L 263.017817 95.191185 
L 263.017818 95.191173 
L 263.017819 95.191161 
L 263.017818 95.19115 
L 263.017817 95.191135 
L 263.017814 95.191106 
" clip-path="url(#p1443e026e3)" style="fill: none; stroke: #8c564b; stroke-width: 2; stroke-linecap: square"/>
   </g>
   <g id="line2d_27">
    <path d="M 133.288228 160.056085 
L 133.288236 160.056099 
L 133.288243 160.056114 
L 133.288247 160.056129 
L 133.28825 160.056141 
L 133.28825 160.056151 
L 133.288249 160.056156 
L 133.288246 160.056157 
L 133.288242 160.056155 
L 133.288239 160.056149 
L 133.288236 160.056145 
L 133.288234 160.056142 
L 133.288234 160.056142 
" clip-path="url(#p1443e026e3)" style="fill: none; stroke-dasharray: 2,3.3; stroke-dashoffset: 0; stroke: #e377c2; stroke-width: 2"/>
   </g>
   <g id="line2d_28">
    <path d="M 133.2882 160.056 
L 133.2882 160.056 
L 133.2882 160.056 
L 133.288203 160.056 
L 133.288205 160.056004 
L 133.288208 160.056011 
L 133.28821 160.05602 
L 133.288212 160.056031 
L 133.288213 160.056043 
L 133.288215 160.056057 
L 133.288218 160.056072 
L 133.288228 160.056085 
" clip-path="url(#p1443e026e3)" style="fill: none; stroke: #e377c2; stroke-width: 2; stroke-linecap: square"/>
   </g>
   <g id="line2d_29">
    <path d="M 165.720398 160.05555 
L 165.720383 160.05558 
L 165.72035 160.055616 
L 165.720315 160.055659 
L 165.720299 160.055714 
L 165.720304 160.055774 
L 165.720327 160.055835 
L 165.720364 160.055893 
L 165.72041 160.055942 
L 165.720457 160.05598 
L 165.720492 160.056004 
L 165.720509 160.056014 
L 165.720509 160.056014 
" clip-path="url(#p1443e026e3)" style="fill: none; stroke-dasharray: 2,3.3; stroke-dashoffset: 0; stroke: #7f7f7f; stroke-width: 2"/>
   </g>
   <g id="line2d_30">
    <path d="M 165.7206 160.056 
L 165.7206 160.056 
L 165.7206 160.055997 
L 165.720599 160.05597 
L 165.720579 160.055908 
L 165.72054 160.055856 
L 165.720503 160.055767 
L 165.72048 160.055656 
L 165.720446 160.055586 
L 165.720426 160.055548 
L 165.720405 160.055537 
L 165.720398 160.05555 
" clip-path="url(#p1443e026e3)" style="fill: none; stroke: #7f7f7f; stroke-width: 2; stroke-linecap: square"/>
   </g>
   <g id="line2d_31">
    <path d="M 230.58547 160.056002 
L 230.585455 160.056058 
L 230.585426 160.056115 
L 230.58539 160.05614 
L 230.585356 160.056122 
L 230.58533 160.05606 
L 230.585315 160.05597 
L 230.58531 160.055883 
L 230.585317 160.055838 
L 230.585332 160.055854 
L 230.585349 160.055915 
L 230.585359 160.055966 
L 230.585359 160.055966 
" clip-path="url(#p1443e026e3)" style="fill: none; stroke-dasharray: 2,3.3; stroke-dashoffset: 0; stroke: #bcbd22; stroke-width: 2"/>
   </g>
   <g id="line2d_32">
    <path d="M 230.5854 160.056 
L 230.5854 160.056 
L 230.5854 160.056002 
L 230.585404 160.056019 
L 230.585426 160.055987 
L 230.585441 160.055965 
L 230.585453 160.055958 
L 230.585459 160.055962 
L 230.585459 160.055967 
L 230.585467 160.055979 
L 230.585475 160.055991 
L 230.58547 160.056002 
" clip-path="url(#p1443e026e3)" style="fill: none; stroke: #bcbd22; stroke-width: 2; stroke-linecap: square"/>
   </g>
   <g id="line2d_33">
    <path d="M 263.017785 160.056112 
L 263.017783 160.056135 
L 263.017778 160.056162 
L 263.01777 160.056187 
L 263.017762 160.056211 
L 263.017755 160.056229 
L 263.017749 160.056242 
L 263.017747 160.056247 
L 263.017746 160.056246 
L 263.017748 160.056239 
L 263.01775 160.056232 
L 263.017752 160.056228 
L 263.017752 160.056228 
" clip-path="url(#p1443e026e3)" style="fill: none; stroke-dasharray: 2,3.3; stroke-dashoffset: 0; stroke: #17becf; stroke-width: 2"/>
   </g>
   <g id="line2d_34">
    <path d="M 263.0178 160.056 
L 263.0178 160.056 
L 263.0178 160.056 
L 263.0178 160.056 
L 263.0178 160.056006 
L 263.017801 160.056017 
L 263.017802 160.056031 
L 263.017798 160.056043 
L 263.017795 160.056057 
L 263.017792 160.056072 
L 263.017789 160.056089 
L 263.017785 160.056112 
" clip-path="url(#p1443e026e3)" style="fill: none; stroke: #17becf; stroke-width: 2; stroke-linecap: square"/>
   </g>
   <g id="line2d_35">
    <path d="M 230.585444 62.758771 
L 230.585473 62.758776 
L 230.585507 62.758783 
L 230.585539 62.758791 
L 230.585559 62.758798 
L 230.585565 62.758804 
L 230.585559 62.75881 
L 230.585541 62.758816 
L 230.585516 62.758821 
L 230.585489 62.758826 
L 230.585467 62.75883 
L 230.585457 62.758832 
L 230.585457 62.758832 
" clip-path="url(#p1443e026e3)" style="fill: none; stroke-dasharray: 2,3.3; stroke-dashoffset: 0; stroke: #2f4f4f; stroke-width: 2"/>
   </g>
   <g id="line2d_36">
    <path d="M 230.5854 62.7588 
L 230.5854 62.7588 
L 230.5854 62.758798 
L 230.585398 62.758783 
L 230.585395 62.75877 
L 230.585392 62.758761 
L 230.585391 62.758756 
L 230.585392 62.758754 
L 230.585393 62.758755 
L 230.585397 62.758759 
L 230.585416 62.758765 
L 230.585444 62.758771 
" clip-path="url(#p1443e026e3)" style="fill: none; stroke: #2f4f4f; stroke-width: 2; stroke-linecap: square"/>
   </g>
   <g id="line2d_37">
    <path d="M 230.58528 30.326679 
L 230.585281 30.32669 
L 230.585283 30.326696 
L 230.585287 30.326694 
L 230.585294 30.326681 
L 230.585304 30.326657 
L 230.585317 30.326624 
L 230.585332 30.326583 
L 230.585348 30.32654 
L 230.585361 30.326502 
L 230.58537 30.326473 
L 230.585374 30.326459 
L 230.585374 30.326459 
" clip-path="url(#p1443e026e3)" style="fill: none; stroke-dasharray: 2,3.3; stroke-dashoffset: 0; stroke: #cd5c5c; stroke-width: 2"/>
   </g>
   <g id="line2d_38">
    <path d="M 230.5854 30.3264 
L 230.5854 30.3264 
L 230.585397 30.326406 
L 230.585368 30.32646 
L 230.585347 30.326501 
L 230.585328 30.326531 
L 230.585311 30.326561 
L 230.585298 30.326587 
L 230.585288 30.326613 
L 230.585283 30.326639 
L 230.58528 30.326662 
L 230.58528 30.326679 
" clip-path="url(#p1443e026e3)" style="fill: none; stroke: #cd5c5c; stroke-width: 2; stroke-linecap: square"/>
   </g>
   <g id="line2d_39">
    <path clip-path="url(#p1443e026e3)" style="fill: none; stroke-dasharray: 2,3.3; stroke-dashoffset: 0; stroke: #add8e6; stroke-width: 2"/>
   </g>
   <g id="line2d_40">
    <path clip-path="url(#p1443e026e3)" style="fill: none; stroke: #add8e6; stroke-width: 2; stroke-linecap: square"/>
   </g>
   <g id="line2d_41">
    <path d="M 230.585469 192.48843 
L 230.585485 192.488435 
L 230.585482 192.488449 
L 230.585466 192.488467 
L 230.585443 192.488481 
L 230.585417 192.488488 
L 230.58539 192.488489 
L 230.585366 192.488483 
L 230.585347 192.488473 
L 230.585334 192.488462 
L 230.585329 192.488454 
L 230.585327 192.488449 
L 230.585327 192.488449 
" clip-path="url(#p1443e026e3)" style="fill: none; stroke-dasharray: 2,3.3; stroke-dashoffset: 0; stroke: #663399; stroke-width: 2"/>
   </g>
   <g id="line2d_42">
    <path d="M 230.5854 192.4884 
L 230.5854 192.4884 
L 230.5854 192.488401 
L 230.585403 192.488407 
L 230.585406 192.488411 
L 230.585406 192.488417 
L 230.585392 192.488421 
L 230.585383 192.488425 
L 230.585389 192.488426 
L 230.585399 192.488429 
L 230.585436 192.488433 
L 230.585469 192.48843 
" clip-path="url(#p1443e026e3)" style="fill: none; stroke: #663399; stroke-width: 2; stroke-linecap: square"/>
   </g>
   <g id="line2d_43">
    <path d="M 230.585333 224.920853 
L 230.585326 224.920854 
L 230.585319 224.920863 
L 230.585311 224.920877 
L 230.585307 224.920891 
L 230.585308 224.920903 
L 230.585313 224.920911 
L 230.585322 224.920914 
L 230.585333 224.920908 
L 230.585342 224.920896 
L 230.585349 224.920884 
L 230.585351 224.920876 
L 230.585351 224.920876 
" clip-path="url(#p1443e026e3)" style="fill: none; stroke-dasharray: 2,3.3; stroke-dashoffset: 0; stroke: #8fbc8f; stroke-width: 2"/>
   </g>
   <g id="line2d_44">
    <path d="M 230.5854 224.9208 
L 230.5854 224.9208 
L 230.585398 224.920803 
L 230.585385 224.920825 
L 230.585374 224.920843 
L 230.585366 224.920859 
L 230.58536 224.920873 
L 230.585355 224.920875 
L 230.58535 224.920871 
L 230.585345 224.920863 
L 230.585339 224.920855 
L 230.585333 224.920853 
" clip-path="url(#p1443e026e3)" style="fill: none; stroke: #8fbc8f; stroke-width: 2; stroke-linecap: square"/>
   </g>
   <g id="line2d_45">
    <path clip-path="url(#p1443e026e3)" style="fill: none; stroke-dasharray: 2,3.3; stroke-dashoffset: 0; stroke: #00ced1; stroke-width: 2"/>
   </g>
   <g id="line2d_46">
    <path clip-path="url(#p1443e026e3)" style="fill: none; stroke: #00ced1; stroke-width: 2; stroke-linecap: square"/>
   </g>
   <g id="line2d_47">
    <path d="M 165.72059 62.758749 
L 165.72058 62.758776 
L 165.720569 62.758803 
L 165.720559 62.758829 
L 165.720552 62.758847 
L 165.720548 62.758857 
L 165.720548 62.758859 
L 165.720552 62.758852 
L 165.720558 62.758839 
L 165.720566 62.758825 
L 165.720574 62.758815 
L 165.720577 62.758811 
L 165.720577 62.758811 
" clip-path="url(#p1443e026e3)" style="fill: none; stroke-dasharray: 2,3.3; stroke-dashoffset: 0; stroke: #6a5acd; stroke-width: 2"/>
   </g>
   <g id="line2d_48">
    <path d="M 165.7206 62.7588 
L 165.7206 62.7588 
L 165.7206 62.758797 
L 165.720599 62.758767 
L 165.720603 62.758741 
L 165.720606 62.758721 
L 165.720609 62.758707 
L 165.720611 62.7587 
L 165.72061 62.758699 
L 165.720606 62.758707 
L 165.720599 62.758726 
L 165.72059 62.758749 
" clip-path="url(#p1443e026e3)" style="fill: none; stroke: #6a5acd; stroke-width: 2; stroke-linecap: square"/>
   </g>
   <g id="line2d_49">
    <path d="M 165.720624 30.32636 
L 165.720622 30.326412 
L 165.720618 30.326494 
L 165.720614 30.326591 
L 165.720612 30.326681 
L 165.72061 30.326755 
L 165.720607 30.326802 
L 165.720602 30.326819 
L 165.720596 30.326811 
L 165.720591 30.326791 
L 165.72059 30.326776 
L 165.720592 30.326774 
L 165.720592 30.326774 
" clip-path="url(#p1443e026e3)" style="fill: none; stroke-dasharray: 2,3.3; stroke-dashoffset: 0; stroke: #808000; stroke-width: 2"/>
   </g>
   <g id="line2d_50">
    <path d="M 165.7206 30.3264 
L 165.7206 30.3264 
L 165.7206 30.326398 
L 165.720603 30.326374 
L 165.720607 30.326333 
L 165.720608 30.326303 
L 165.720608 30.326285 
L 165.720609 30.326278 
L 165.720611 30.326286 
L 165.720616 30.326304 
L 165.720622 30.32633 
L 165.720624 30.32636 
" clip-path="url(#p1443e026e3)" style="fill: none; stroke: #808000; stroke-width: 2; stroke-linecap: square"/>
   </g>
   <g id="line2d_51">
    <path clip-path="url(#p1443e026e3)" style="fill: none; stroke-dasharray: 2,3.3; stroke-dashoffset: 0; stroke: #a0522d; stroke-width: 2"/>
   </g>
   <g id="line2d_52">
    <path clip-path="url(#p1443e026e3)" style="fill: none; stroke: #a0522d; stroke-width: 2; stroke-linecap: square"/>
   </g>
   <g id="line2d_53">
    <path d="M 165.72045 192.488683 
L 165.72042 192.488672 
L 165.720413 192.48866 
L 165.720425 192.488646 
L 165.72045 192.488624 
L 165.720484 192.488598 
L 165.720522 192.488568 
L 165.720562 192.488538 
L 165.720598 192.48851 
L 165.720627 192.488484 
L 165.720645 192.488463 
L 165.720653 192.488453 
L 165.720653 192.488453 
" clip-path="url(#p1443e026e3)" style="fill: none; stroke-dasharray: 2,3.3; stroke-dashoffset: 0; stroke: #ff4500; stroke-width: 2"/>
   </g>
   <g id="line2d_54">
    <path d="M 165.7206 192.4884 
L 165.7206 192.4884 
L 165.720601 192.488405 
L 165.720611 192.488452 
L 165.720617 192.488491 
L 165.720591 192.488535 
L 165.720574 192.488568 
L 165.720557 192.488592 
L 165.720554 192.48862 
L 165.720547 192.488655 
L 165.720505 192.488686 
L 165.72045 192.488683 
" clip-path="url(#p1443e026e3)" style="fill: none; stroke: #ff4500; stroke-width: 2; stroke-linecap: square"/>
   </g>
   <g id="line2d_55">
    <path d="M 165.720674 224.920768 
L 165.720676 224.920745 
L 165.720678 224.92072 
L 165.720679 224.920696 
L 165.720677 224.920677 
L 165.720672 224.920667 
L 165.720664 224.920666 
L 165.720653 224.920674 
L 165.720642 224.92069 
L 165.720632 224.92071 
L 165.720623 224.92073 
L 165.720619 224.920743 
L 165.720619 224.920743 
" clip-path="url(#p1443e026e3)" style="fill: none; stroke-dasharray: 2,3.3; stroke-dashoffset: 0; stroke: #708090; stroke-width: 2"/>
   </g>
   <g id="line2d_56">
    <path d="M 165.7206 224.9208 
L 165.7206 224.9208 
L 165.720602 224.920799 
L 165.720621 224.92079 
L 165.720636 224.920783 
L 165.720647 224.920788 
L 165.720655 224.920803 
L 165.720661 224.920807 
L 165.720666 224.920806 
L 165.720669 224.920799 
L 165.720672 224.920786 
L 165.720674 224.920768 
" clip-path="url(#p1443e026e3)" style="fill: none; stroke: #708090; stroke-width: 2; stroke-linecap: square"/>
   </g>
   <g id="line2d_57">
    <path clip-path="url(#p1443e026e3)" style="fill: none; stroke-dasharray: 2,3.3; stroke-dashoffset: 0; stroke: #bdb76b; stroke-width: 2"/>
   </g>
   <g id="line2d_58">
    <path clip-path="url(#p1443e026e3)" style="fill: none; stroke: #bdb76b; stroke-width: 2; stroke-linecap: square"/>
   </g>
   <g id="patch_3">
    <path d="M 100.8558 224.9208 
L 100.8558 30.3264 
" style="fill: none; stroke: #000000; stroke-width: 0.8; stroke-linejoin: miter; stroke-linecap: square"/>
   </g>
   <g id="patch_4">
    <path d="M 295.4502 224.9208 
L 295.4502 30.3264 
" style="fill: none; stroke: #000000; stroke-width: 0.8; stroke-linejoin: miter; stroke-linecap: square"/>
   </g>
   <g id="patch_5">
    <path d="M 100.8558 224.9208 
L 295.4502 224.9208 
" style="fill: none; stroke: #000000; stroke-width: 0.8; stroke-linejoin: miter; stroke-linecap: square"/>
   </g>
   <g id="patch_6">
    <path d="M 100.8558 30.3264 
L 295.4502 30.3264 
" style="fill: none; stroke: #000000; stroke-width: 0.8; stroke-linejoin: miter; stroke-linecap: square"/>
   </g>
   <g id="patch_7">
    <path d="M 238.341407 136.397407 
C 240.921759 136.397407 243.396773 135.372222 245.221358 133.547638 
C 247.045942 131.723054 248.071127 129.248039 248.071127 126.667687 
C 248.071127 124.087335 247.045942 121.61232 245.221358 119.787736 
C 243.396773 117.963152 240.921759 116.937967 238.341407 116.937967 
C 235.761055 116.937967 233.28604 117.963152 231.461456 119.787736 
C 229.636871 121.61232 228.611687 124.087335 228.611687 126.667687 
C 228.611687 129.248039 229.636871 131.723054 231.461456 133.547638 
C 233.28604 135.372222 235.761055 136.397407 238.341407 136.397407 
z
" clip-path="url(#p1443e026e3)" style="fill: #1f77b4; stroke: #000000; stroke-linejoin: miter"/>
   </g>
   <g id="patch_8">
    <path d="M 218.032057 150.980432 
C 220.612409 150.980432 223.087424 149.955247 224.912008 148.130663 
C 226.736593 146.306078 227.761777 143.831064 227.761777 141.250712 
C 227.761777 138.67036 226.736593 136.195345 224.912008 134.370761 
C 223.087424 132.546176 220.612409 131.520992 218.032057 131.520992 
C 215.451705 131.520992 212.976691 132.546176 211.152106 134.370761 
C 209.327522 136.195345 208.302337 138.67036 208.302337 141.250712 
C 208.302337 143.831064 209.327522 146.306078 211.152106 148.130663 
C 212.976691 149.955247 215.451705 150.980432 218.032057 150.980432 
z
" clip-path="url(#p1443e026e3)" style="fill: #ff7f0e; stroke: #000000; stroke-linejoin: miter"/>
   </g>
   <g id="patch_9">
    <path d="M 133.28823 104.920784 
C 135.868581 104.920784 138.343596 103.8956 140.168181 102.071015 
C 141.992765 100.246431 143.01795 97.771416 143.01795 95.191064 
C 143.01795 92.610712 141.992765 90.135698 140.168181 88.311113 
C 138.343596 86.486529 135.868581 85.461344 133.28823 85.461344 
C 130.707878 85.461344 128.232863 86.486529 126.408279 88.311113 
C 124.583694 90.135698 123.55851 92.610712 123.55851 95.191064 
C 123.55851 97.771416 124.583694 100.246431 126.408279 102.071015 
C 128.232863 103.8956 130.707878 104.920784 133.28823 104.920784 
z
" clip-path="url(#p1443e026e3)" style="fill: #2ca02c; stroke: #000000; stroke-linejoin: miter"/>
   </g>
   <g id="patch_10">
    <path d="M 165.720264 104.920733 
C 168.300615 104.920733 170.77563 103.895548 172.600215 102.070964 
C 174.424799 100.24638 175.449984 97.771365 175.449984 95.191013 
C 175.449984 92.610661 174.424799 90.135646 172.600215 88.311062 
C 170.77563 86.486478 168.300615 85.461293 165.720264 85.461293 
C 163.139912 85.461293 160.664897 86.486478 158.840313 88.311062 
C 157.015728 90.135646 155.990544 92.610661 155.990544 95.191013 
C 155.990544 97.771365 157.015728 100.24638 158.840313 102.070964 
C 160.664897 103.895548 163.139912 104.920733 165.720264 104.920733 
z
" clip-path="url(#p1443e026e3)" style="fill: #d62728; stroke: #000000; stroke-linejoin: miter"/>
   </g>
   <g id="patch_11">
    <path d="M 230.585594 104.92089 
C 233.165946 104.92089 235.640961 103.895705 237.465545 102.071121 
C 239.290129 100.246536 240.315314 97.771521 240.315314 95.19117 
C 240.315314 92.610818 239.290129 90.135803 237.465545 88.311219 
C 235.640961 86.486634 233.165946 85.46145 230.585594 85.46145 
C 228.005242 85.46145 225.530227 86.486634 223.705643 88.311219 
C 221.881059 90.135803 220.855874 92.610818 220.855874 95.19117 
C 220.855874 97.771521 221.881059 100.246536 223.705643 102.071121 
C 225.530227 103.895705 228.005242 104.92089 230.585594 104.92089 
z
" clip-path="url(#p1443e026e3)" style="fill: #9467bd; stroke: #000000; stroke-linejoin: miter"/>
   </g>
   <g id="patch_12">
    <path d="M 263.017814 104.920826 
C 265.598166 104.920826 268.07318 103.895641 269.897765 102.071057 
C 271.722349 100.246473 272.747534 97.771458 272.747534 95.191106 
C 272.747534 92.610754 271.722349 90.135739 269.897765 88.311155 
C 268.07318 86.486571 265.598166 85.461386 263.017814 85.461386 
C 260.437462 85.461386 257.962447 86.486571 256.137863 88.311155 
C 254.313278 90.135739 253.288094 92.610754 253.288094 95.191106 
C 253.288094 97.771458 254.313278 100.246473 256.137863 102.071057 
C 257.962447 103.895641 260.437462 104.920826 263.017814 104.920826 
z
" clip-path="url(#p1443e026e3)" style="fill: #8c564b; stroke: #000000; stroke-linejoin: miter"/>
   </g>
   <g id="patch_13">
    <path d="M 133.288228 169.785805 
C 135.86858 169.785805 138.343595 168.76062 140.168179 166.936036 
C 141.992763 165.111451 143.017948 162.636437 143.017948 160.056085 
C 143.017948 157.475733 141.992763 155.000718 140.168179 153.176134 
C 138.343595 151.351549 135.86858 150.326365 133.288228 150.326365 
C 130.707876 150.326365 128.232861 151.351549 126.408277 153.176134 
C 124.583693 155.000718 123.558508 157.475733 123.558508 160.056085 
C 123.558508 162.636437 124.583693 165.111451 126.408277 166.936036 
C 128.232861 168.76062 130.707876 169.785805 133.288228 169.785805 
z
" clip-path="url(#p1443e026e3)" style="fill: #e377c2; stroke: #000000; stroke-linejoin: miter"/>
   </g>
   <g id="patch_14">
    <path d="M 165.720398 169.78527 
C 168.30075 169.78527 170.775765 168.760086 172.600349 166.935501 
C 174.424934 165.110917 175.450118 162.635902 175.450118 160.05555 
C 175.450118 157.475198 174.424934 155.000184 172.600349 153.175599 
C 170.775765 151.351015 168.30075 150.32583 165.720398 150.32583 
C 163.140047 150.32583 160.665032 151.351015 158.840447 153.175599 
C 157.015863 155.000184 155.990678 157.475198 155.990678 160.05555 
C 155.990678 162.635902 157.015863 165.110917 158.840447 166.935501 
C 160.665032 168.760086 163.140047 169.78527 165.720398 169.78527 
z
" clip-path="url(#p1443e026e3)" style="fill: #7f7f7f; stroke: #000000; stroke-linejoin: miter"/>
   </g>
   <g id="patch_15">
    <path d="M 230.58547 169.785722 
C 233.165822 169.785722 235.640837 168.760537 237.465421 166.935953 
C 239.290006 165.111368 240.31519 162.636353 240.31519 160.056002 
C 240.31519 157.47565 239.290006 155.000635 237.465421 153.176051 
C 235.640837 151.351466 233.165822 150.326282 230.58547 150.326282 
C 228.005118 150.326282 225.530104 151.351466 223.705519 153.176051 
C 221.880935 155.000635 220.85575 157.47565 220.85575 160.056002 
C 220.85575 162.636353 221.880935 165.111368 223.705519 166.935953 
C 225.530104 168.760537 228.005118 169.785722 230.58547 169.785722 
z
" clip-path="url(#p1443e026e3)" style="fill: #bcbd22; stroke: #000000; stroke-linejoin: miter"/>
   </g>
   <g id="patch_16">
    <path d="M 263.017785 169.785832 
C 265.598137 169.785832 268.073152 168.760647 269.897736 166.936063 
C 271.722321 165.111479 272.747505 162.636464 272.747505 160.056112 
C 272.747505 157.47576 271.722321 155.000746 269.897736 153.176161 
C 268.073152 151.351577 265.598137 150.326392 263.017785 150.326392 
C 260.437433 150.326392 257.962419 151.351577 256.137834 153.176161 
C 254.31325 155.000746 253.288065 157.47576 253.288065 160.056112 
C 253.288065 162.636464 254.31325 165.111479 256.137834 166.936063 
C 257.962419 168.760647 260.437433 169.785832 263.017785 169.785832 
z
" clip-path="url(#p1443e026e3)" style="fill: #17becf; stroke: #000000; stroke-linejoin: miter"/>
   </g>
   <g id="patch_17">
    <path d="M 230.585444 72.488491 
C 233.165796 72.488491 235.640811 71.463306 237.465395 69.638722 
C 239.289979 67.814138 240.315164 65.339123 240.315164 62.758771 
C 240.315164 60.178419 239.289979 57.703404 237.465395 55.87882 
C 235.640811 54.054236 233.165796 53.029051 230.585444 53.029051 
C 228.005092 53.029051 225.530078 54.054236 223.705493 55.87882 
C 221.880909 57.703404 220.855724 60.178419 220.855724 62.758771 
C 220.855724 65.339123 221.880909 67.814138 223.705493 69.638722 
C 225.530078 71.463306 228.005092 72.488491 230.585444 72.488491 
z
" clip-path="url(#p1443e026e3)" style="fill: #2f4f4f; stroke: #000000; stroke-linejoin: miter"/>
   </g>
   <g id="patch_18">
    <path d="M 230.58528 40.056399 
C 233.165631 40.056399 235.640646 39.031215 237.465231 37.20663 
C 239.289815 35.382046 240.315 32.907031 240.315 30.326679 
C 240.315 27.746327 239.289815 25.271313 237.465231 23.446728 
C 235.640646 21.622144 233.165631 20.596959 230.58528 20.596959 
C 228.004928 20.596959 225.529913 21.622144 223.705329 23.446728 
C 221.880744 25.271313 220.85556 27.746327 220.85556 30.326679 
C 220.85556 32.907031 221.880744 35.382046 223.705329 37.20663 
C 225.529913 39.031215 228.004928 40.056399 230.58528 40.056399 
z
" clip-path="url(#p1443e026e3)" style="fill: #cd5c5c; stroke: #000000; stroke-linejoin: miter"/>
   </g>
   <g id="patch_19">
    <path d="M 230.585507 7.623713 
C 233.165859 7.623713 235.640874 6.598528 237.465458 4.773944 
C 239.290042 2.949359 240.315227 0.474345 240.315227 -2.106007 
C 240.315227 -4.686359 239.290042 -7.161374 237.465458 -8.985958 
C 235.640874 -10.810543 233.165859 -11.835727 230.585507 -11.835727 
C 228.005155 -11.835727 225.53014 -10.810543 223.705556 -8.985958 
C 221.880972 -7.161374 220.855787 -4.686359 220.855787 -2.106007 
C 220.855787 0.474345 221.880972 2.949359 223.705556 4.773944 
C 225.53014 6.598528 228.005155 7.623713 230.585507 7.623713 
z
" clip-path="url(#p1443e026e3)" style="fill: #add8e6; stroke: #000000; stroke-linejoin: miter"/>
   </g>
   <g id="patch_20">
    <path d="M 230.585469 202.21815 
C 233.165821 202.21815 235.640836 201.192965 237.46542 199.368381 
C 239.290004 197.543797 240.315189 195.068782 240.315189 192.48843 
C 240.315189 189.908078 239.290004 187.433063 237.46542 185.608479 
C 235.640836 183.783895 233.165821 182.75871 230.585469 182.75871 
C 228.005117 182.75871 225.530102 183.783895 223.705518 185.608479 
C 221.880934 187.433063 220.855749 189.908078 220.855749 192.48843 
C 220.855749 195.068782 221.880934 197.543797 223.705518 199.368381 
C 225.530102 201.192965 228.005117 202.21815 230.585469 202.21815 
z
" clip-path="url(#p1443e026e3)" style="fill: #663399; stroke: #000000; stroke-linejoin: miter"/>
   </g>
   <g id="patch_21">
    <path d="M 230.585333 234.650573 
C 233.165685 234.650573 235.6407 233.625388 237.465284 231.800804 
C 239.289869 229.97622 240.315053 227.501205 240.315053 224.920853 
C 240.315053 222.340501 239.289869 219.865486 237.465284 218.040902 
C 235.6407 216.216318 233.165685 215.191133 230.585333 215.191133 
C 228.004981 215.191133 225.529967 216.216318 223.705382 218.040902 
C 221.880798 219.865486 220.855613 222.340501 220.855613 224.920853 
C 220.855613 227.501205 221.880798 229.97622 223.705382 231.800804 
C 225.529967 233.625388 228.004981 234.650573 230.585333 234.650573 
z
" clip-path="url(#p1443e026e3)" style="fill: #8fbc8f; stroke: #000000; stroke-linejoin: miter"/>
   </g>
   <g id="patch_22">
    <path d="M 230.585805 267.082897 
C 233.166157 267.082897 235.641171 266.057712 237.465756 264.233128 
C 239.29034 262.408544 240.315525 259.933529 240.315525 257.353177 
C 240.315525 254.772825 239.29034 252.29781 237.465756 250.473226 
C 235.641171 248.648642 233.166157 247.623457 230.585805 247.623457 
C 228.005453 247.623457 225.530438 248.648642 223.705854 250.473226 
C 221.881269 252.29781 220.856085 254.772825 220.856085 257.353177 
C 220.856085 259.933529 221.881269 262.408544 223.705854 264.233128 
C 225.530438 266.057712 228.005453 267.082897 230.585805 267.082897 
z
" clip-path="url(#p1443e026e3)" style="fill: #00ced1; stroke: #000000; stroke-linejoin: miter"/>
   </g>
   <g id="patch_23">
    <path d="M 165.72059 72.488469 
C 168.300941 72.488469 170.775956 71.463284 172.600541 69.6387 
C 174.425125 67.814116 175.45031 65.339101 175.45031 62.758749 
C 175.45031 60.178397 174.425125 57.703382 172.600541 55.878798 
C 170.775956 54.054214 168.300941 53.029029 165.72059 53.029029 
C 163.140238 53.029029 160.665223 54.054214 158.840639 55.878798 
C 157.016054 57.703382 155.99087 60.178397 155.99087 62.758749 
C 155.99087 65.339101 157.016054 67.814116 158.840639 69.6387 
C 160.665223 71.463284 163.140238 72.488469 165.72059 72.488469 
z
" clip-path="url(#p1443e026e3)" style="fill: #6a5acd; stroke: #000000; stroke-linejoin: miter"/>
   </g>
   <g id="patch_24">
    <path d="M 165.720624 40.05608 
C 168.300976 40.05608 170.775991 39.030896 172.600575 37.206311 
C 174.42516 35.381727 175.450344 32.906712 175.450344 30.32636 
C 175.450344 27.746008 174.42516 25.270994 172.600575 23.446409 
C 170.775991 21.621825 168.300976 20.59664 165.720624 20.59664 
C 163.140272 20.59664 160.665258 21.621825 158.840673 23.446409 
C 157.016089 25.270994 155.990904 27.746008 155.990904 30.32636 
C 155.990904 32.906712 157.016089 35.381727 158.840673 37.206311 
C 160.665258 39.030896 163.140272 40.05608 165.720624 40.05608 
z
" clip-path="url(#p1443e026e3)" style="fill: #808000; stroke: #000000; stroke-linejoin: miter"/>
   </g>
   <g id="patch_25">
    <path d="M 165.720575 7.623733 
C 168.300927 7.623733 170.775941 6.598548 172.600526 4.773964 
C 174.42511 2.94938 175.450295 0.474365 175.450295 -2.105987 
C 175.450295 -4.686339 174.42511 -7.161354 172.600526 -8.985938 
C 170.775941 -10.810522 168.300927 -11.835707 165.720575 -11.835707 
C 163.140223 -11.835707 160.665208 -10.810522 158.840624 -8.985938 
C 157.016039 -7.161354 155.990855 -4.686339 155.990855 -2.105987 
C 155.990855 0.474365 157.016039 2.94938 158.840624 4.773964 
C 160.665208 6.598548 163.140223 7.623733 165.720575 7.623733 
z
" clip-path="url(#p1443e026e3)" style="fill: #a0522d; stroke: #000000; stroke-linejoin: miter"/>
   </g>
   <g id="patch_26">
    <path d="M 165.72045 202.218403 
C 168.300801 202.218403 170.775816 201.193218 172.600401 199.368634 
C 174.424985 197.54405 175.45017 195.069035 175.45017 192.488683 
C 175.45017 189.908331 174.424985 187.433316 172.600401 185.608732 
C 170.775816 183.784148 168.300801 182.758963 165.72045 182.758963 
C 163.140098 182.758963 160.665083 183.784148 158.840499 185.608732 
C 157.015914 187.433316 155.99073 189.908331 155.99073 192.488683 
C 155.99073 195.069035 157.015914 197.54405 158.840499 199.368634 
C 160.665083 201.193218 163.140098 202.218403 165.72045 202.218403 
z
" clip-path="url(#p1443e026e3)" style="fill: #ff4500; stroke: #000000; stroke-linejoin: miter"/>
   </g>
   <g id="patch_27">
    <path d="M 165.720674 234.650488 
C 168.301026 234.650488 170.776041 233.625303 172.600625 231.800719 
C 174.42521 229.976134 175.450394 227.50112 175.450394 224.920768 
C 175.450394 222.340416 174.42521 219.865401 172.600625 218.040817 
C 170.776041 216.216232 168.301026 215.191048 165.720674 215.191048 
C 163.140322 215.191048 160.665308 216.216232 158.840723 218.040817 
C 157.016139 219.865401 155.990954 222.340416 155.990954 224.920768 
C 155.990954 227.50112 157.016139 229.976134 158.840723 231.800719 
C 160.665308 233.625303 163.140322 234.650488 165.720674 234.650488 
z
" clip-path="url(#p1443e026e3)" style="fill: #708090; stroke: #000000; stroke-linejoin: miter"/>
   </g>
   <g id="patch_28">
    <path d="M 165.72019 267.082899 
C 168.300542 267.082899 170.775557 266.057714 172.600141 264.23313 
C 174.424725 262.408545 175.44991 259.933531 175.44991 257.353179 
C 175.44991 254.772827 174.424725 252.297812 172.600141 250.473228 
C 170.775557 248.648643 168.300542 247.623459 165.72019 247.623459 
C 163.139838 247.623459 160.664823 248.648643 158.840239 250.473228 
C 157.015655 252.297812 155.99047 254.772827 155.99047 257.353179 
C 155.99047 259.933531 157.015655 262.408545 158.840239 264.23313 
C 160.664823 266.057714 163.139838 267.082899 165.72019 267.082899 
z
" clip-path="url(#p1443e026e3)" style="fill: #bdb76b; stroke: #000000; stroke-linejoin: miter"/>
   </g>
   <g id="line2d_59">
    <path d="M 263.0178 127.6236 
" clip-path="url(#p1443e026e3)" style="fill: none; stroke: #1f77b4; stroke-width: 1.5; stroke-linecap: square"/>
    <defs>
     <path id="mc74771d936" d="M 0 4.949747 
L 2.969848 0 
L 0 -4.949747 
L -2.969848 0 
z
" style="stroke: #000000; stroke-linejoin: miter"/>
    </defs>
    <g clip-path="url(#p1443e026e3)">
     <use xlink:href="#mc74771d936" x="263.0178" y="127.6236" style="fill: #1f77b4; stroke: #000000; stroke-linejoin: miter"/>
    </g>
   </g>
   <g id="line2d_60">
    <path d="M 263.0178 127.6236 
" clip-path="url(#p1443e026e3)" style="fill: none; stroke: #ff7f0e; stroke-width: 1.5; stroke-linecap: square"/>
    <defs>
     <path id="m062d0a0a17" d="M 0 4.949747 
L 2.969848 0 
L 0 -4.949747 
L -2.969848 0 
z
" style="stroke: #000000; stroke-linejoin: miter"/>
    </defs>
    <g clip-path="url(#p1443e026e3)">
     <use xlink:href="#m062d0a0a17" x="263.0178" y="127.6236" style="fill: #ff7f0e; stroke: #000000; stroke-linejoin: miter"/>
    </g>
   </g>
   <g id="line2d_61">
    <path d="M 133.2882 95.1912 
" clip-path="url(#p1443e026e3)" style="fill: none; stroke: #2ca02c; stroke-width: 1.5; stroke-linecap: square"/>
    <defs>
     <path id="m332bfbdd07" d="M 0 4.949747 
L 2.969848 0 
L 0 -4.949747 
L -2.969848 0 
z
" style="stroke: #000000; stroke-linejoin: miter"/>
    </defs>
    <g clip-path="url(#p1443e026e3)">
     <use xlink:href="#m332bfbdd07" x="133.2882" y="95.1912" style="fill: #2ca02c; stroke: #000000; stroke-linejoin: miter"/>
    </g>
   </g>
   <g id="line2d_62">
    <path d="M 165.7206 95.1912 
" clip-path="url(#p1443e026e3)" style="fill: none; stroke: #d62728; stroke-width: 1.5; stroke-linecap: square"/>
    <defs>
     <path id="m3c0d881651" d="M 0 4.949747 
L 2.969848 0 
L 0 -4.949747 
L -2.969848 0 
z
" style="stroke: #000000; stroke-linejoin: miter"/>
    </defs>
    <g clip-path="url(#p1443e026e3)">
     <use xlink:href="#m3c0d881651" x="165.7206" y="95.1912" style="fill: #d62728; stroke: #000000; stroke-linejoin: miter"/>
    </g>
   </g>
   <g id="line2d_63">
    <path d="M 230.5854 95.1912 
" clip-path="url(#p1443e026e3)" style="fill: none; stroke: #9467bd; stroke-width: 1.5; stroke-linecap: square"/>
    <defs>
     <path id="maae3a1db26" d="M 0 4.949747 
L 2.969848 0 
L 0 -4.949747 
L -2.969848 0 
z
" style="stroke: #000000; stroke-linejoin: miter"/>
    </defs>
    <g clip-path="url(#p1443e026e3)">
     <use xlink:href="#maae3a1db26" x="230.5854" y="95.1912" style="fill: #9467bd; stroke: #000000; stroke-linejoin: miter"/>
    </g>
   </g>
   <g id="line2d_64">
    <path d="M 263.0178 95.1912 
" clip-path="url(#p1443e026e3)" style="fill: none; stroke: #8c564b; stroke-width: 1.5; stroke-linecap: square"/>
    <defs>
     <path id="m5fbb9e1804" d="M 0 4.949747 
L 2.969848 0 
L 0 -4.949747 
L -2.969848 0 
z
" style="stroke: #000000; stroke-linejoin: miter"/>
    </defs>
    <g clip-path="url(#p1443e026e3)">
     <use xlink:href="#m5fbb9e1804" x="263.0178" y="95.1912" style="fill: #8c564b; stroke: #000000; stroke-linejoin: miter"/>
    </g>
   </g>
   <g id="line2d_65">
    <path d="M 133.2882 160.056 
" clip-path="url(#p1443e026e3)" style="fill: none; stroke: #e377c2; stroke-width: 1.5; stroke-linecap: square"/>
    <defs>
     <path id="mf1e2270f4d" d="M 0 4.949747 
L 2.969848 0 
L 0 -4.949747 
L -2.969848 0 
z
" style="stroke: #000000; stroke-linejoin: miter"/>
    </defs>
    <g clip-path="url(#p1443e026e3)">
     <use xlink:href="#mf1e2270f4d" x="133.2882" y="160.056" style="fill: #e377c2; stroke: #000000; stroke-linejoin: miter"/>
    </g>
   </g>
   <g id="line2d_66">
    <path d="M 165.7206 160.056 
" clip-path="url(#p1443e026e3)" style="fill: none; stroke: #7f7f7f; stroke-width: 1.5; stroke-linecap: square"/>
    <defs>
     <path id="mc57e0cb850" d="M 0 4.949747 
L 2.969848 0 
L 0 -4.949747 
L -2.969848 0 
z
" style="stroke: #000000; stroke-linejoin: miter"/>
    </defs>
    <g clip-path="url(#p1443e026e3)">
     <use xlink:href="#mc57e0cb850" x="165.7206" y="160.056" style="fill: #7f7f7f; stroke: #000000; stroke-linejoin: miter"/>
    </g>
   </g>
   <g id="line2d_67">
    <path d="M 230.5854 160.056 
" clip-path="url(#p1443e026e3)" style="fill: none; stroke: #bcbd22; stroke-width: 1.5; stroke-linecap: square"/>
    <defs>
     <path id="m854ed57a88" d="M 0 4.949747 
L 2.969848 0 
L 0 -4.949747 
L -2.969848 0 
z
" style="stroke: #000000; stroke-linejoin: miter"/>
    </defs>
    <g clip-path="url(#p1443e026e3)">
     <use xlink:href="#m854ed57a88" x="230.5854" y="160.056" style="fill: #bcbd22; stroke: #000000; stroke-linejoin: miter"/>
    </g>
   </g>
   <g id="line2d_68">
    <path d="M 263.0178 160.056 
" clip-path="url(#p1443e026e3)" style="fill: none; stroke: #17becf; stroke-width: 1.5; stroke-linecap: square"/>
    <defs>
     <path id="m0dd2f63f72" d="M 0 4.949747 
L 2.969848 0 
L 0 -4.949747 
L -2.969848 0 
z
" style="stroke: #000000; stroke-linejoin: miter"/>
    </defs>
    <g clip-path="url(#p1443e026e3)">
     <use xlink:href="#m0dd2f63f72" x="263.0178" y="160.056" style="fill: #17becf; stroke: #000000; stroke-linejoin: miter"/>
    </g>
   </g>
   <g id="line2d_69">
    <path d="M 230.5854 62.7588 
" clip-path="url(#p1443e026e3)" style="fill: none; stroke: #2f4f4f; stroke-width: 1.5; stroke-linecap: square"/>
    <defs>
     <path id="m1b447bc707" d="M 0 4.949747 
L 2.969848 0 
L 0 -4.949747 
L -2.969848 0 
z
" style="stroke: #000000; stroke-linejoin: miter"/>
    </defs>
    <g clip-path="url(#p1443e026e3)">
     <use xlink:href="#m1b447bc707" x="230.5854" y="62.7588" style="fill: #2f4f4f; stroke: #000000; stroke-linejoin: miter"/>
    </g>
   </g>
   <g id="line2d_70">
    <path d="M 230.5854 30.3264 
" clip-path="url(#p1443e026e3)" style="fill: none; stroke: #cd5c5c; stroke-width: 1.5; stroke-linecap: square"/>
    <defs>
     <path id="m99817c5815" d="M 0 4.949747 
L 2.969848 0 
L 0 -4.949747 
L -2.969848 0 
z
" style="stroke: #000000; stroke-linejoin: miter"/>
    </defs>
    <g clip-path="url(#p1443e026e3)">
     <use xlink:href="#m99817c5815" x="230.5854" y="30.3264" style="fill: #cd5c5c; stroke: #000000; stroke-linejoin: miter"/>
    </g>
   </g>
   <g id="line2d_71">
    <path clip-path="url(#p1443e026e3)" style="fill: none; stroke: #add8e6; stroke-width: 1.5; stroke-linecap: square"/>
    <defs>
     <path id="m99fb299cfd" d="M 0 4.949747 
L 2.969848 0 
L 0 -4.949747 
L -2.969848 0 
z
" style="stroke: #000000; stroke-linejoin: miter"/>
    </defs>
    <g clip-path="url(#p1443e026e3)"/>
   </g>
   <g id="line2d_72">
    <path d="M 230.5854 192.4884 
" clip-path="url(#p1443e026e3)" style="fill: none; stroke: #663399; stroke-width: 1.5; stroke-linecap: square"/>
    <defs>
     <path id="m04af143cc1" d="M 0 4.949747 
L 2.969848 0 
L 0 -4.949747 
L -2.969848 0 
z
" style="stroke: #000000; stroke-linejoin: miter"/>
    </defs>
    <g clip-path="url(#p1443e026e3)">
     <use xlink:href="#m04af143cc1" x="230.5854" y="192.4884" style="fill: #663399; stroke: #000000; stroke-linejoin: miter"/>
    </g>
   </g>
   <g id="line2d_73">
    <path d="M 230.5854 224.9208 
" clip-path="url(#p1443e026e3)" style="fill: none; stroke: #8fbc8f; stroke-width: 1.5; stroke-linecap: square"/>
    <defs>
     <path id="m3356ae7b0b" d="M 0 4.949747 
L 2.969848 0 
L 0 -4.949747 
L -2.969848 0 
z
" style="stroke: #000000; stroke-linejoin: miter"/>
    </defs>
    <g clip-path="url(#p1443e026e3)">
     <use xlink:href="#m3356ae7b0b" x="230.5854" y="224.9208" style="fill: #8fbc8f; stroke: #000000; stroke-linejoin: miter"/>
    </g>
   </g>
   <g id="line2d_74">
    <path clip-path="url(#p1443e026e3)" style="fill: none; stroke: #00ced1; stroke-width: 1.5; stroke-linecap: square"/>
    <defs>
     <path id="m301f343e28" d="M 0 4.949747 
L 2.969848 0 
L 0 -4.949747 
L -2.969848 0 
z
" style="stroke: #000000; stroke-linejoin: miter"/>
    </defs>
    <g clip-path="url(#p1443e026e3)">
     <use xlink:href="#m301f343e28" x="230.5854" y="257.3532" style="fill: #00ced1; stroke: #000000; stroke-linejoin: miter"/>
    </g>
   </g>
   <g id="line2d_75">
    <path d="M 165.7206 62.7588 
" clip-path="url(#p1443e026e3)" style="fill: none; stroke: #6a5acd; stroke-width: 1.5; stroke-linecap: square"/>
    <defs>
     <path id="m03482e391e" d="M 0 4.949747 
L 2.969848 0 
L 0 -4.949747 
L -2.969848 0 
z
" style="stroke: #000000; stroke-linejoin: miter"/>
    </defs>
    <g clip-path="url(#p1443e026e3)">
     <use xlink:href="#m03482e391e" x="165.7206" y="62.7588" style="fill: #6a5acd; stroke: #000000; stroke-linejoin: miter"/>
    </g>
   </g>
   <g id="line2d_76">
    <path d="M 165.7206 30.3264 
" clip-path="url(#p1443e026e3)" style="fill: none; stroke: #808000; stroke-width: 1.5; stroke-linecap: square"/>
    <defs>
     <path id="ma350fb6fe5" d="M 0 4.949747 
L 2.969848 0 
L 0 -4.949747 
L -2.969848 0 
z
" style="stroke: #000000; stroke-linejoin: miter"/>
    </defs>
    <g clip-path="url(#p1443e026e3)">
     <use xlink:href="#ma350fb6fe5" x="165.7206" y="30.3264" style="fill: #808000; stroke: #000000; stroke-linejoin: miter"/>
    </g>
   </g>
   <g id="line2d_77">
    <path clip-path="url(#p1443e026e3)" style="fill: none; stroke: #a0522d; stroke-width: 1.5; stroke-linecap: square"/>
    <defs>
     <path id="m0a2c7f4059" d="M 0 4.949747 
L 2.969848 0 
L 0 -4.949747 
L -2.969848 0 
z
" style="stroke: #000000; stroke-linejoin: miter"/>
    </defs>
    <g clip-path="url(#p1443e026e3)"/>
   </g>
   <g id="line2d_78">
    <path d="M 165.7206 192.4884 
" clip-path="url(#p1443e026e3)" style="fill: none; stroke: #ff4500; stroke-width: 1.5; stroke-linecap: square"/>
    <defs>
     <path id="mb571ea63a9" d="M 0 4.949747 
L 2.969848 0 
L 0 -4.949747 
L -2.969848 0 
z
" style="stroke: #000000; stroke-linejoin: miter"/>
    </defs>
    <g clip-path="url(#p1443e026e3)">
     <use xlink:href="#mb571ea63a9" x="165.7206" y="192.4884" style="fill: #ff4500; stroke: #000000; stroke-linejoin: miter"/>
    </g>
   </g>
   <g id="line2d_79">
    <path d="M 165.7206 224.9208 
" clip-path="url(#p1443e026e3)" style="fill: none; stroke: #708090; stroke-width: 1.5; stroke-linecap: square"/>
    <defs>
     <path id="m3807d431d2" d="M 0 4.949747 
L 2.969848 0 
L 0 -4.949747 
L -2.969848 0 
z
" style="stroke: #000000; stroke-linejoin: miter"/>
    </defs>
    <g clip-path="url(#p1443e026e3)">
     <use xlink:href="#m3807d431d2" x="165.7206" y="224.9208" style="fill: #708090; stroke: #000000; stroke-linejoin: miter"/>
    </g>
   </g>
   <g id="line2d_80">
    <path clip-path="url(#p1443e026e3)" style="fill: none; stroke: #bdb76b; stroke-width: 1.5; stroke-linecap: square"/>
    <defs>
     <path id="m63e8a588dd" d="M 0 4.949747 
L 2.969848 0 
L 0 -4.949747 
L -2.969848 0 
z
" style="stroke: #000000; stroke-linejoin: miter"/>
    </defs>
    <g clip-path="url(#p1443e026e3)">
     <use xlink:href="#m63e8a588dd" x="165.7206" y="257.3532" style="fill: #bdb76b; stroke: #000000; stroke-linejoin: miter"/>
    </g>
   </g>
  </g>
 </g>
 <defs>
  <clipPath id="p1443e026e3">
   <rect x="100.8558" y="30.3264" width="194.5944" height="194.5944"/>
  </clipPath>
 </defs>
</svg>
