<?xml version="1.0" encoding="utf-8" standalone="no"?>
<!DOCTYPE svg PUBLIC "-//W3C//DTD SVG 1.1//EN"
  "http://www.w3.org/Graphics/SVG/1.1/DTD/svg11.dtd">
<svg xmlns:xlink="http://www.w3.org/1999/xlink" width="386.64pt" height="252.72pt" viewBox="0 0 386.64 252.72" xmlns="http://www.w3.org/2000/svg" version="1.1">
 <metadata>
  <rdf:RDF xmlns:dc="http://purl.org/dc/elements/1.1/" xmlns:cc="http://creativecommons.org/ns#" xmlns:rdf="http://www.w3.org/1999/02/22-rdf-syntax-ns#">
   <cc:Work>
    <dc:type rdf:resource="http://purl.org/dc/dcmitype/StillImage"/>
    <dc:date>2023-07-11T22:26:55.980618</dc:date>
    <dc:format>image/svg+xml</dc:format>
    <dc:creator>
     <cc:Agent>
      <dc:title>Matplotlib v3.6.2, https://matplotlib.org/</dc:title>
     </cc:Agent>
    </dc:creator>
   </cc:Work>
  </rdf:RDF>
 </metadata>
 <defs>
  <style type="text/css">*{stroke-linejoin: round; stroke-linecap: butt}</style>
 </defs>
 <g id="figure_1">
  <g id="patch_1">
   <path d="M 0 252.72 
L 386.64 252.72 
L 386.64 0 
L 0 0 
z
" style="fill: #ffffff"/>
  </g>
  <g id="axes_1">
   <g id="patch_2">
    <path d="M 100.8558 224.9208 
L 295.4502 224.9208 
L 295.4502 30.3264 
L 100.8558 30.3264 
z
" style="fill: #ffffff"/>
   </g>
   <g id="matplotlib.axis_1">
    <g id="xtick_1">
     <g id="line2d_1">
      <defs>
       <path id="mb4859da100" d="M 0 0 
L 0 3.5 
" style="stroke: #000000; stroke-width: 0.8"/>
      </defs>
      <g>
       <use xlink:href="#mb4859da100" x="100.8558" y="224.9208" style="stroke: #000000; stroke-width: 0.8"/>
      </g>
     </g>
     <g id="text_1">
      <!-- −0.5 -->
      <g transform="translate(88.714394 239.519237) scale(0.1 -0.1)">
       <defs>
        <path id="DejaVuSans-2212" d="M 678 2272 
L 4684 2272 
L 4684 1741 
L 678 1741 
L 678 2272 
z
" transform="scale(0.015625)"/>
        <path id="DejaVuSans-30" d="M 2034 4250 
Q 1547 4250 1301 3770 
Q 1056 3291 1056 2328 
Q 1056 1369 1301 889 
Q 1547 409 2034 409 
Q 2525 409 2770 889 
Q 3016 1369 3016 2328 
Q 3016 3291 2770 3770 
Q 2525 4250 2034 4250 
z
M 2034 4750 
Q 2819 4750 3233 4129 
Q 3647 3509 3647 2328 
Q 3647 1150 3233 529 
Q 2819 -91 2034 -91 
Q 1250 -91 836 529 
Q 422 1150 422 2328 
Q 422 3509 836 4129 
Q 1250 4750 2034 4750 
z
" transform="scale(0.015625)"/>
        <path id="DejaVuSans-2e" d="M 684 794 
L 1344 794 
L 1344 0 
L 684 0 
L 684 794 
z
" transform="scale(0.015625)"/>
        <path id="DejaVuSans-35" d="M 691 4666 
L 3169 4666 
L 3169 4134 
L 1269 4134 
L 1269 2991 
Q 1406 3038 1543 3061 
Q 1681 3084 1819 3084 
Q 2600 3084 3056 2656 
Q 3513 2228 3513 1497 
Q 3513 744 3044 326 
Q 2575 -91 1722 -91 
Q 1428 -91 1123 -41 
Q 819 9 494 109 
L 494 744 
Q 775 591 1075 516 
Q 1375 441 1709 441 
Q 2250 441 2565 725 
Q 2881 1009 2881 1497 
Q 2881 1984 2565 2268 
Q 2250 2553 1709 2553 
Q 1456 2553 1204 2497 
Q 953 2441 691 2322 
L 691 4666 
z
" transform="scale(0.015625)"/>
       </defs>
       <use xlink:href="#DejaVuSans-2212"/>
       <use xlink:href="#DejaVuSans-30" x="83.789062"/>
       <use xlink:href="#DejaVuSans-2e" x="147.412109"/>
       <use xlink:href="#DejaVuSans-35" x="179.199219"/>
      </g>
     </g>
    </g>
    <g id="xtick_2">
     <g id="line2d_2">
      <g>
       <use xlink:href="#mb4859da100" x="133.2882" y="224.9208" style="stroke: #000000; stroke-width: 0.8"/>
      </g>
     </g>
     <g id="text_2">
      <!-- 0.0 -->
      <g transform="translate(125.336638 239.519237) scale(0.1 -0.1)">
       <use xlink:href="#DejaVuSans-30"/>
       <use xlink:href="#DejaVuSans-2e" x="63.623047"/>
       <use xlink:href="#DejaVuSans-30" x="95.410156"/>
      </g>
     </g>
    </g>
    <g id="xtick_3">
     <g id="line2d_3">
      <g>
       <use xlink:href="#mb4859da100" x="165.7206" y="224.9208" style="stroke: #000000; stroke-width: 0.8"/>
      </g>
     </g>
     <g id="text_3">
      <!-- 0.5 -->
      <g transform="translate(157.769037 239.519237) scale(0.1 -0.1)">
       <use xlink:href="#DejaVuSans-30"/>
       <use xlink:href="#DejaVuSans-2e" x="63.623047"/>
       <use xlink:href="#DejaVuSans-35" x="95.410156"/>
      </g>
     </g>
    </g>
    <g id="xtick_4">
     <g id="line2d_4">
      <g>
       <use xlink:href="#mb4859da100" x="198.153" y="224.9208" style="stroke: #000000; stroke-width: 0.8"/>
      </g>
     </g>
     <g id="text_4">
      <!-- 1.0 -->
      <g transform="translate(190.201437 239.519237) scale(0.1 -0.1)">
       <defs>
        <path id="DejaVuSans-31" d="M 794 531 
L 1825 531 
L 1825 4091 
L 703 3866 
L 703 4441 
L 1819 4666 
L 2450 4666 
L 2450 531 
L 3481 531 
L 3481 0 
L 794 0 
L 794 531 
z
" transform="scale(0.015625)"/>
       </defs>
       <use xlink:href="#DejaVuSans-31"/>
       <use xlink:href="#DejaVuSans-2e" x="63.623047"/>
       <use xlink:href="#DejaVuSans-30" x="95.410156"/>
      </g>
     </g>
    </g>
    <g id="xtick_5">
     <g id="line2d_5">
      <g>
       <use xlink:href="#mb4859da100" x="230.5854" y="224.9208" style="stroke: #000000; stroke-width: 0.8"/>
      </g>
     </g>
     <g id="text_5">
      <!-- 1.5 -->
      <g transform="translate(222.633837 239.519237) scale(0.1 -0.1)">
       <use xlink:href="#DejaVuSans-31"/>
       <use xlink:href="#DejaVuSans-2e" x="63.623047"/>
       <use xlink:href="#DejaVuSans-35" x="95.410156"/>
      </g>
     </g>
    </g>
    <g id="xtick_6">
     <g id="line2d_6">
      <g>
       <use xlink:href="#mb4859da100" x="263.0178" y="224.9208" style="stroke: #000000; stroke-width: 0.8"/>
      </g>
     </g>
     <g id="text_6">
      <!-- 2.0 -->
      <g transform="translate(255.066237 239.519237) scale(0.1 -0.1)">
       <defs>
        <path id="DejaVuSans-32" d="M 1228 531 
L 3431 531 
L 3431 0 
L 469 0 
L 469 531 
Q 828 903 1448 1529 
Q 2069 2156 2228 2338 
Q 2531 2678 2651 2914 
Q 2772 3150 2772 3378 
Q 2772 3750 2511 3984 
Q 2250 4219 1831 4219 
Q 1534 4219 1204 4116 
Q 875 4013 500 3803 
L 500 4441 
Q 881 4594 1212 4672 
Q 1544 4750 1819 4750 
Q 2544 4750 2975 4387 
Q 3406 4025 3406 3419 
Q 3406 3131 3298 2873 
Q 3191 2616 2906 2266 
Q 2828 2175 2409 1742 
Q 1991 1309 1228 531 
z
" transform="scale(0.015625)"/>
       </defs>
       <use xlink:href="#DejaVuSans-32"/>
       <use xlink:href="#DejaVuSans-2e" x="63.623047"/>
       <use xlink:href="#DejaVuSans-30" x="95.410156"/>
      </g>
     </g>
    </g>
    <g id="xtick_7">
     <g id="line2d_7">
      <g>
       <use xlink:href="#mb4859da100" x="295.4502" y="224.9208" style="stroke: #000000; stroke-width: 0.8"/>
      </g>
     </g>
     <g id="text_7">
      <!-- 2.5 -->
      <g transform="translate(287.498637 239.519237) scale(0.1 -0.1)">
       <use xlink:href="#DejaVuSans-32"/>
       <use xlink:href="#DejaVuSans-2e" x="63.623047"/>
       <use xlink:href="#DejaVuSans-35" x="95.410156"/>
      </g>
     </g>
    </g>
    <g id="text_8">
     <!-- x(m) -->
     <g transform="translate(186.42175 253.197362) scale(0.1 -0.1)">
      <defs>
       <path id="DejaVuSans-78" d="M 3513 3500 
L 2247 1797 
L 3578 0 
L 2900 0 
L 1881 1375 
L 863 0 
L 184 0 
L 1544 1831 
L 300 3500 
L 978 3500 
L 1906 2253 
L 2834 3500 
L 3513 3500 
z
" transform="scale(0.015625)"/>
       <path id="DejaVuSans-28" d="M 1984 4856 
Q 1566 4138 1362 3434 
Q 1159 2731 1159 2009 
Q 1159 1288 1364 580 
Q 1569 -128 1984 -844 
L 1484 -844 
Q 1016 -109 783 600 
Q 550 1309 550 2009 
Q 550 2706 781 3412 
Q 1013 4119 1484 4856 
L 1984 4856 
z
" transform="scale(0.015625)"/>
       <path id="DejaVuSans-6d" d="M 3328 2828 
Q 3544 3216 3844 3400 
Q 4144 3584 4550 3584 
Q 5097 3584 5394 3201 
Q 5691 2819 5691 2113 
L 5691 0 
L 5113 0 
L 5113 2094 
Q 5113 2597 4934 2840 
Q 4756 3084 4391 3084 
Q 3944 3084 3684 2787 
Q 3425 2491 3425 1978 
L 3425 0 
L 2847 0 
L 2847 2094 
Q 2847 2600 2669 2842 
Q 2491 3084 2119 3084 
Q 1678 3084 1418 2786 
Q 1159 2488 1159 1978 
L 1159 0 
L 581 0 
L 581 3500 
L 1159 3500 
L 1159 2956 
Q 1356 3278 1631 3431 
Q 1906 3584 2284 3584 
Q 2666 3584 2933 3390 
Q 3200 3197 3328 2828 
z
" transform="scale(0.015625)"/>
       <path id="DejaVuSans-29" d="M 513 4856 
L 1013 4856 
Q 1481 4119 1714 3412 
Q 1947 2706 1947 2009 
Q 1947 1309 1714 600 
Q 1481 -109 1013 -844 
L 513 -844 
Q 928 -128 1133 580 
Q 1338 1288 1338 2009 
Q 1338 2731 1133 3434 
Q 928 4138 513 4856 
z
" transform="scale(0.015625)"/>
      </defs>
      <use xlink:href="#DejaVuSans-78"/>
      <use xlink:href="#DejaVuSans-28" x="59.179688"/>
      <use xlink:href="#DejaVuSans-6d" x="98.193359"/>
      <use xlink:href="#DejaVuSans-29" x="195.605469"/>
     </g>
    </g>
   </g>
   <g id="matplotlib.axis_2">
    <g id="ytick_1">
     <g id="line2d_8">
      <defs>
       <path id="ma37d13ed61" d="M 0 0 
L -3.5 0 
" style="stroke: #000000; stroke-width: 0.8"/>
      </defs>
      <g>
       <use xlink:href="#ma37d13ed61" x="100.8558" y="224.9208" style="stroke: #000000; stroke-width: 0.8"/>
      </g>
     </g>
     <g id="text_9">
      <!-- −0.5 -->
      <g transform="translate(69.572988 228.720019) scale(0.1 -0.1)">
       <use xlink:href="#DejaVuSans-2212"/>
       <use xlink:href="#DejaVuSans-30" x="83.789062"/>
       <use xlink:href="#DejaVuSans-2e" x="147.412109"/>
       <use xlink:href="#DejaVuSans-35" x="179.199219"/>
      </g>
     </g>
    </g>
    <g id="ytick_2">
     <g id="line2d_9">
      <g>
       <use xlink:href="#ma37d13ed61" x="100.8558" y="192.4884" style="stroke: #000000; stroke-width: 0.8"/>
      </g>
     </g>
     <g id="text_10">
      <!-- 0.0 -->
      <g transform="translate(77.952675 196.287619) scale(0.1 -0.1)">
       <use xlink:href="#DejaVuSans-30"/>
       <use xlink:href="#DejaVuSans-2e" x="63.623047"/>
       <use xlink:href="#DejaVuSans-30" x="95.410156"/>
      </g>
     </g>
    </g>
    <g id="ytick_3">
     <g id="line2d_10">
      <g>
       <use xlink:href="#ma37d13ed61" x="100.8558" y="160.056" style="stroke: #000000; stroke-width: 0.8"/>
      </g>
     </g>
     <g id="text_11">
      <!-- 0.5 -->
      <g transform="translate(77.952675 163.855219) scale(0.1 -0.1)">
       <use xlink:href="#DejaVuSans-30"/>
       <use xlink:href="#DejaVuSans-2e" x="63.623047"/>
       <use xlink:href="#DejaVuSans-35" x="95.410156"/>
      </g>
     </g>
    </g>
    <g id="ytick_4">
     <g id="line2d_11">
      <g>
       <use xlink:href="#ma37d13ed61" x="100.8558" y="127.6236" style="stroke: #000000; stroke-width: 0.8"/>
      </g>
     </g>
     <g id="text_12">
      <!-- 1.0 -->
      <g transform="translate(77.952675 131.422819) scale(0.1 -0.1)">
       <use xlink:href="#DejaVuSans-31"/>
       <use xlink:href="#DejaVuSans-2e" x="63.623047"/>
       <use xlink:href="#DejaVuSans-30" x="95.410156"/>
      </g>
     </g>
    </g>
    <g id="ytick_5">
     <g id="line2d_12">
      <g>
       <use xlink:href="#ma37d13ed61" x="100.8558" y="95.1912" style="stroke: #000000; stroke-width: 0.8"/>
      </g>
     </g>
     <g id="text_13">
      <!-- 1.5 -->
      <g transform="translate(77.952675 98.990419) scale(0.1 -0.1)">
       <use xlink:href="#DejaVuSans-31"/>
       <use xlink:href="#DejaVuSans-2e" x="63.623047"/>
       <use xlink:href="#DejaVuSans-35" x="95.410156"/>
      </g>
     </g>
    </g>
    <g id="ytick_6">
     <g id="line2d_13">
      <g>
       <use xlink:href="#ma37d13ed61" x="100.8558" y="62.7588" style="stroke: #000000; stroke-width: 0.8"/>
      </g>
     </g>
     <g id="text_14">
      <!-- 2.0 -->
      <g transform="translate(77.952675 66.558019) scale(0.1 -0.1)">
       <use xlink:href="#DejaVuSans-32"/>
       <use xlink:href="#DejaVuSans-2e" x="63.623047"/>
       <use xlink:href="#DejaVuSans-30" x="95.410156"/>
      </g>
     </g>
    </g>
    <g id="ytick_7">
     <g id="line2d_14">
      <g>
       <use xlink:href="#ma37d13ed61" x="100.8558" y="30.3264" style="stroke: #000000; stroke-width: 0.8"/>
      </g>
     </g>
     <g id="text_15">
      <!-- 2.5 -->
      <g transform="translate(77.952675 34.125619) scale(0.1 -0.1)">
       <use xlink:href="#DejaVuSans-32"/>
       <use xlink:href="#DejaVuSans-2e" x="63.623047"/>
       <use xlink:href="#DejaVuSans-35" x="95.410156"/>
      </g>
     </g>
    </g>
    <g id="text_16">
     <!-- y(m) -->
     <g transform="translate(63.4933 139.35485) rotate(-90) scale(0.1 -0.1)">
      <defs>
       <path id="DejaVuSans-79" d="M 2059 -325 
Q 1816 -950 1584 -1140 
Q 1353 -1331 966 -1331 
L 506 -1331 
L 506 -850 
L 844 -850 
Q 1081 -850 1212 -737 
Q 1344 -625 1503 -206 
L 1606 56 
L 191 3500 
L 800 3500 
L 1894 763 
L 2988 3500 
L 3597 3500 
L 2059 -325 
z
" transform="scale(0.015625)"/>
      </defs>
      <use xlink:href="#DejaVuSans-79"/>
      <use xlink:href="#DejaVuSans-28" x="59.179688"/>
      <use xlink:href="#DejaVuSans-6d" x="98.193359"/>
      <use xlink:href="#DejaVuSans-29" x="195.605469"/>
     </g>
    </g>
   </g>
   <g id="line2d_15">
    <path d="M 262.299995 127.540144 
L 263.112309 127.634293 
L 263.00764 127.622451 
L 263.018931 127.623725 
L 263.01768 127.623587 
L 263.017813 127.623601 
L 263.017799 127.6236 
L 263.0178 127.6236 
L 263.0178 127.6236 
L 263.0178 127.6236 
L 263.0178 127.6236 
L 263.0178 127.6236 
L 263.0178 127.6236 
" clip-path="url(#p0900c7d209)" style="fill: none; stroke-dasharray: 2,3.3; stroke-dashoffset: 0; stroke: #1f77b4; stroke-width: 2"/>
   </g>
   <g id="line2d_16">
    <path d="M 133.2882 127.6236 
L 133.2882 127.6236 
L 133.768676 127.621531 
L 138.573349 127.593776 
L 147.701648 127.493337 
L 160.673863 127.41217 
L 173.646739 127.459601 
L 186.619963 127.486284 
L 199.592908 127.523189 
L 212.567005 127.607597 
L 225.536461 127.5202 
L 238.341407 126.667687 
L 249.679077 126.428069 
L 257.640665 127.139288 
L 262.299995 127.540144 
" clip-path="url(#p0900c7d209)" style="fill: none; stroke: #1f77b4; stroke-width: 2; stroke-linecap: square"/>
   </g>
   <g id="line2d_17">
    <path d="M 237.806064 132.265695 
L 240.027259 131.444518 
L 240.527004 131.36773 
L 240.743893 131.328858 
L 240.867316 131.308035 
L 240.94984 131.29402 
L 241.007074 131.284344 
L 241.049142 131.277233 
L 241.081349 131.271792 
L 241.106799 131.267493 
L 241.127414 131.264011 
L 241.144451 131.261134 
L 241.144451 131.261134 
" clip-path="url(#p0900c7d209)" style="fill: none; stroke-dasharray: 2,3.3; stroke-dashoffset: 0; stroke: #ff7f0e; stroke-width: 2"/>
   </g>
   <g id="line2d_18">
    <path d="M 198.153 205.46136 
L 198.153 205.46136 
L 198.164648 204.981025 
L 198.417246 200.200816 
L 199.877385 191.454013 
L 201.48243 180.264573 
L 202.738317 169.560811 
L 204.917797 161.07713 
L 207.09932 154.814228 
L 209.379241 150.892168 
L 211.999015 147.096721 
L 218.032057 141.250712 
L 226.183594 137.004547 
L 232.872114 134.000627 
L 237.806064 132.265695 
" clip-path="url(#p0900c7d209)" style="fill: none; stroke: #ff7f0e; stroke-width: 2; stroke-linecap: square"/>
   </g>
   <g id="line2d_19">
    <path d="M 133.288236 95.191005 
L 133.288236 95.19099 
L 133.288235 95.190976 
L 133.288234 95.190966 
L 133.288232 95.190961 
L 133.288229 95.190961 
L 133.288226 95.190966 
L 133.288223 95.190976 
L 133.28822 95.190989 
L 133.288218 95.191003 
L 133.288216 95.191014 
L 133.288216 95.191019 
L 133.288216 95.191019 
" clip-path="url(#p0900c7d209)" style="fill: none; stroke-dasharray: 2,3.3; stroke-dashoffset: 0; stroke: #2ca02c; stroke-width: 2"/>
   </g>
   <g id="line2d_20">
    <path d="M 133.2882 95.1912 
L 133.2882 95.1912 
L 133.2882 95.1912 
L 133.288202 95.1912 
L 133.288204 95.191197 
L 133.288206 95.19119 
L 133.288211 95.191173 
L 133.288216 95.191155 
L 133.288222 95.191135 
L 133.288224 95.191111 
L 133.288228 95.191086 
L 133.28823 95.191064 
L 133.288232 95.191043 
L 133.288235 95.191023 
L 133.288236 95.191005 
" clip-path="url(#p0900c7d209)" style="fill: none; stroke: #2ca02c; stroke-width: 2; stroke-linecap: square"/>
   </g>
   <g id="line2d_21">
    <path d="M 165.720291 95.191024 
L 165.720327 95.191051 
L 165.720384 95.191095 
L 165.720455 95.191147 
L 165.720523 95.191196 
L 165.720584 95.191237 
L 165.720637 95.191265 
L 165.720678 95.191278 
L 165.720708 95.191272 
L 165.720723 95.191247 
L 165.720729 95.191212 
L 165.720731 95.191186 
L 165.720731 95.191186 
" clip-path="url(#p0900c7d209)" style="fill: none; stroke-dasharray: 2,3.3; stroke-dashoffset: 0; stroke: #d62728; stroke-width: 2"/>
   </g>
   <g id="line2d_22">
    <path d="M 165.7206 95.1912 
L 165.7206 95.1912 
L 165.720601 95.191194 
L 165.720603 95.19115 
L 165.720581 95.191153 
L 165.720541 95.191158 
L 165.720483 95.19116 
L 165.720422 95.191125 
L 165.720366 95.191081 
L 165.720311 95.191045 
L 165.720281 95.191024 
L 165.720264 95.191013 
L 165.720261 95.191012 
L 165.720272 95.191017 
L 165.720291 95.191024 
" clip-path="url(#p0900c7d209)" style="fill: none; stroke: #d62728; stroke-width: 2; stroke-linecap: square"/>
   </g>
   <g id="line2d_23">
    <path d="M 230.585686 95.191036 
L 230.585708 95.190964 
L 230.58575 95.190905 
L 230.585801 95.190892 
L 230.585826 95.190932 
L 230.585819 95.190989 
L 230.585781 95.191037 
L 230.585718 95.191073 
L 230.585642 95.191107 
L 230.585569 95.191139 
L 230.585514 95.191163 
L 230.585488 95.191173 
L 230.585488 95.191173 
" clip-path="url(#p0900c7d209)" style="fill: none; stroke-dasharray: 2,3.3; stroke-dashoffset: 0; stroke: #9467bd; stroke-width: 2"/>
   </g>
   <g id="line2d_24">
    <path d="M 230.5854 95.1912 
L 230.5854 95.1912 
L 230.5854 95.191198 
L 230.585399 95.191183 
L 230.585405 95.191174 
L 230.585427 95.191186 
L 230.585443 95.191202 
L 230.585457 95.191257 
L 230.585477 95.191298 
L 230.585509 95.191287 
L 230.585553 95.191222 
L 230.585594 95.19117 
L 230.58563 95.191129 
L 230.585659 95.191094 
L 230.585686 95.191036 
" clip-path="url(#p0900c7d209)" style="fill: none; stroke: #9467bd; stroke-width: 2; stroke-linecap: square"/>
   </g>
   <g id="line2d_25">
    <path d="M 263.017784 95.191022 
L 263.017777 95.191004 
L 263.017772 95.190989 
L 263.017767 95.19098 
L 263.017765 95.190976 
L 263.017763 95.190978 
L 263.017763 95.190986 
L 263.017765 95.190999 
L 263.017767 95.191015 
L 263.017769 95.191031 
L 263.017771 95.191043 
L 263.017772 95.191049 
L 263.017772 95.191049 
" clip-path="url(#p0900c7d209)" style="fill: none; stroke-dasharray: 2,3.3; stroke-dashoffset: 0; stroke: #8c564b; stroke-width: 2"/>
   </g>
   <g id="line2d_26">
    <path d="M 263.0178 95.1912 
L 263.0178 95.1912 
L 263.017801 95.1912 
L 263.017807 95.191203 
L 263.017812 95.191199 
L 263.017815 95.191193 
L 263.017817 95.191185 
L 263.017818 95.191173 
L 263.017819 95.191161 
L 263.017818 95.19115 
L 263.017817 95.191135 
L 263.017814 95.191106 
L 263.017803 95.191071 
L 263.017793 95.191044 
L 263.017784 95.191022 
" clip-path="url(#p0900c7d209)" style="fill: none; stroke: #8c564b; stroke-width: 2; stroke-linecap: square"/>
   </g>
   <g id="line2d_27">
    <path d="M 133.288249 160.056128 
L 133.288252 160.056143 
L 133.288253 160.056156 
L 133.288253 160.056167 
L 133.288252 160.056175 
L 133.288249 160.056179 
L 133.288246 160.056179 
L 133.288241 160.056174 
L 133.288237 160.056167 
L 133.288233 160.056158 
L 133.288231 160.056151 
L 133.288229 160.056147 
L 133.288229 160.056147 
" clip-path="url(#p0900c7d209)" style="fill: none; stroke-dasharray: 2,3.3; stroke-dashoffset: 0; stroke: #e377c2; stroke-width: 2"/>
   </g>
   <g id="line2d_28">
    <path d="M 133.2882 160.056 
L 133.2882 160.056 
L 133.2882 160.056 
L 133.288203 160.056 
L 133.288205 160.056004 
L 133.288208 160.056011 
L 133.28821 160.05602 
L 133.288212 160.056031 
L 133.288213 160.056043 
L 133.288215 160.056057 
L 133.288218 160.056072 
L 133.288228 160.056085 
L 133.288237 160.056099 
L 133.288244 160.056114 
L 133.288249 160.056128 
" clip-path="url(#p0900c7d209)" style="fill: none; stroke: #e377c2; stroke-width: 2; stroke-linecap: square"/>
   </g>
   <g id="line2d_29">
    <path d="M 165.720396 160.055649 
L 165.720371 160.055689 
L 165.720314 160.055736 
L 165.720249 160.055791 
L 165.72021 160.055845 
L 165.720202 160.0559 
L 165.720224 160.055958 
L 165.720271 160.056021 
L 165.720335 160.056088 
L 165.720403 160.056152 
L 165.720456 160.056205 
L 165.720484 160.056236 
L 165.720484 160.056236 
" clip-path="url(#p0900c7d209)" style="fill: none; stroke-dasharray: 2,3.3; stroke-dashoffset: 0; stroke: #7f7f7f; stroke-width: 2"/>
   </g>
   <g id="line2d_30">
    <path d="M 165.7206 160.056 
L 165.7206 160.056 
L 165.7206 160.055997 
L 165.720599 160.05597 
L 165.720579 160.055908 
L 165.72054 160.055856 
L 165.720503 160.055767 
L 165.72048 160.055656 
L 165.720446 160.055586 
L 165.720426 160.055548 
L 165.720405 160.055537 
L 165.720398 160.05555 
L 165.720388 160.055578 
L 165.720397 160.055602 
L 165.720396 160.055649 
" clip-path="url(#p0900c7d209)" style="fill: none; stroke: #7f7f7f; stroke-width: 2; stroke-linecap: square"/>
   </g>
   <g id="line2d_31">
    <path d="M 230.585489 160.056051 
L 230.585521 160.056047 
L 230.585574 160.056044 
L 230.585631 160.056042 
L 230.585665 160.056038 
L 230.585672 160.056033 
L 230.585657 160.056028 
L 230.585623 160.056023 
L 230.585578 160.056019 
L 230.58553 160.056014 
L 230.585493 160.056011 
L 230.585474 160.05601 
L 230.585474 160.05601 
" clip-path="url(#p0900c7d209)" style="fill: none; stroke-dasharray: 2,3.3; stroke-dashoffset: 0; stroke: #bcbd22; stroke-width: 2"/>
   </g>
   <g id="line2d_32">
    <path d="M 230.5854 160.056 
L 230.5854 160.056 
L 230.5854 160.056002 
L 230.585404 160.056019 
L 230.585426 160.055987 
L 230.585441 160.055965 
L 230.585453 160.055958 
L 230.585459 160.055962 
L 230.585459 160.055967 
L 230.585467 160.055979 
L 230.585475 160.055991 
L 230.58547 160.056002 
L 230.585459 160.056052 
L 230.585468 160.056053 
L 230.585489 160.056051 
" clip-path="url(#p0900c7d209)" style="fill: none; stroke: #bcbd22; stroke-width: 2; stroke-linecap: square"/>
   </g>
   <g id="line2d_33">
    <path d="M 263.017778 160.056174 
L 263.017777 160.056187 
L 263.017776 160.056197 
L 263.017776 160.056204 
L 263.017776 160.056205 
L 263.017777 160.056202 
L 263.017778 160.056193 
L 263.01778 160.056181 
L 263.017782 160.056166 
L 263.017784 160.056151 
L 263.017785 160.05614 
L 263.017786 160.056135 
L 263.017786 160.056135 
" clip-path="url(#p0900c7d209)" style="fill: none; stroke-dasharray: 2,3.3; stroke-dashoffset: 0; stroke: #17becf; stroke-width: 2"/>
   </g>
   <g id="line2d_34">
    <path d="M 263.0178 160.056 
L 263.0178 160.056 
L 263.0178 160.056 
L 263.0178 160.056 
L 263.0178 160.056006 
L 263.017801 160.056017 
L 263.017802 160.056031 
L 263.017798 160.056043 
L 263.017795 160.056057 
L 263.017792 160.056072 
L 263.017789 160.056089 
L 263.017785 160.056112 
L 263.017783 160.056135 
L 263.01778 160.056158 
L 263.017778 160.056174 
" clip-path="url(#p0900c7d209)" style="fill: none; stroke: #17becf; stroke-width: 2; stroke-linecap: square"/>
   </g>
   <g id="line2d_35">
    <path d="M 230.585546 62.758771 
L 230.585624 62.758774 
L 230.585735 62.758788 
L 230.585857 62.758807 
L 230.585942 62.758826 
L 230.58598 62.758841 
L 230.585972 62.758851 
L 230.585926 62.758856 
L 230.58585 62.758855 
L 230.585761 62.758851 
L 230.585684 62.758845 
L 230.585645 62.758841 
L 230.585645 62.758841 
" clip-path="url(#p0900c7d209)" style="fill: none; stroke-dasharray: 2,3.3; stroke-dashoffset: 0; stroke: #2f4f4f; stroke-width: 2"/>
   </g>
   <g id="line2d_36">
    <path d="M 230.5854 62.7588 
L 230.5854 62.7588 
L 230.5854 62.758798 
L 230.585398 62.758783 
L 230.585395 62.75877 
L 230.585392 62.758761 
L 230.585391 62.758756 
L 230.585392 62.758754 
L 230.585393 62.758755 
L 230.585397 62.758759 
L 230.585416 62.758765 
L 230.585444 62.758771 
L 230.585472 62.758776 
L 230.585495 62.75878 
L 230.585546 62.758771 
" clip-path="url(#p0900c7d209)" style="fill: none; stroke: #2f4f4f; stroke-width: 2; stroke-linecap: square"/>
   </g>
   <g id="line2d_37">
    <path d="M 230.585289 30.326696 
L 230.585295 30.326687 
L 230.585299 30.326669 
L 230.585303 30.326643 
L 230.58531 30.326609 
L 230.585319 30.326568 
L 230.585331 30.326524 
L 230.585344 30.326482 
L 230.585356 30.326447 
L 230.585365 30.326424 
L 230.585371 30.326412 
L 230.585373 30.32641 
L 230.585373 30.32641 
" clip-path="url(#p0900c7d209)" style="fill: none; stroke-dasharray: 2,3.3; stroke-dashoffset: 0; stroke: #cd5c5c; stroke-width: 2"/>
   </g>
   <g id="line2d_38">
    <path d="M 230.5854 30.3264 
L 230.5854 30.3264 
L 230.585397 30.326406 
L 230.585368 30.32646 
L 230.585347 30.326501 
L 230.585328 30.326531 
L 230.585311 30.326561 
L 230.585298 30.326587 
L 230.585288 30.326613 
L 230.585283 30.326639 
L 230.58528 30.326662 
L 230.58528 30.326679 
L 230.585281 30.32669 
L 230.585284 30.326694 
L 230.585289 30.326696 
" clip-path="url(#p0900c7d209)" style="fill: none; stroke: #cd5c5c; stroke-width: 2; stroke-linecap: square"/>
   </g>
   <g id="line2d_39">
    <path clip-path="url(#p0900c7d209)" style="fill: none; stroke-dasharray: 2,3.3; stroke-dashoffset: 0; stroke: #add8e6; stroke-width: 2"/>
   </g>
   <g id="line2d_40">
    <path clip-path="url(#p0900c7d209)" style="fill: none; stroke: #add8e6; stroke-width: 2; stroke-linecap: square"/>
   </g>
   <g id="line2d_41">
    <path d="M 230.585517 192.488438 
L 230.585565 192.488429 
L 230.585652 192.488409 
L 230.585755 192.488385 
L 230.585831 192.488364 
L 230.585871 192.488349 
L 230.585873 192.488342 
L 230.585841 192.488341 
L 230.585783 192.488345 
L 230.58571 192.488353 
L 230.585646 192.488362 
L 230.585613 192.488366 
L 230.585613 192.488366 
" clip-path="url(#p0900c7d209)" style="fill: none; stroke-dasharray: 2,3.3; stroke-dashoffset: 0; stroke: #663399; stroke-width: 2"/>
   </g>
   <g id="line2d_42">
    <path d="M 230.5854 192.4884 
L 230.5854 192.4884 
L 230.5854 192.488401 
L 230.585403 192.488407 
L 230.585406 192.488411 
L 230.585406 192.488417 
L 230.585392 192.488421 
L 230.585383 192.488425 
L 230.585389 192.488426 
L 230.585399 192.488429 
L 230.585436 192.488433 
L 230.585469 192.48843 
L 230.585487 192.488434 
L 230.585503 192.488436 
L 230.585517 192.488438 
" clip-path="url(#p0900c7d209)" style="fill: none; stroke: #663399; stroke-width: 2; stroke-linecap: square"/>
   </g>
   <g id="line2d_43">
    <path d="M 230.585321 224.920846 
L 230.585319 224.920845 
L 230.585315 224.92085 
L 230.585312 224.920861 
L 230.585312 224.920872 
L 230.585316 224.920883 
L 230.585323 224.92089 
L 230.585333 224.920893 
L 230.585343 224.920888 
L 230.585353 224.920877 
L 230.585358 224.920863 
L 230.58536 224.920853 
L 230.58536 224.920853 
" clip-path="url(#p0900c7d209)" style="fill: none; stroke-dasharray: 2,3.3; stroke-dashoffset: 0; stroke: #8fbc8f; stroke-width: 2"/>
   </g>
   <g id="line2d_44">
    <path d="M 230.5854 224.9208 
L 230.5854 224.9208 
L 230.585398 224.920803 
L 230.585385 224.920825 
L 230.585374 224.920843 
L 230.585366 224.920859 
L 230.58536 224.920873 
L 230.585355 224.920875 
L 230.58535 224.920871 
L 230.585345 224.920863 
L 230.585339 224.920855 
L 230.585333 224.920853 
L 230.585327 224.920853 
L 230.585323 224.920851 
L 230.585321 224.920846 
" clip-path="url(#p0900c7d209)" style="fill: none; stroke: #8fbc8f; stroke-width: 2; stroke-linecap: square"/>
   </g>
   <g id="line2d_45">
    <path clip-path="url(#p0900c7d209)" style="fill: none; stroke-dasharray: 2,3.3; stroke-dashoffset: 0; stroke: #00ced1; stroke-width: 2"/>
   </g>
   <g id="line2d_46">
    <path clip-path="url(#p0900c7d209)" style="fill: none; stroke: #00ced1; stroke-width: 2; stroke-linecap: square"/>
   </g>
   <g id="line2d_47">
    <path d="M 165.720562 62.758831 
L 165.720558 62.758861 
L 165.72056 62.75889 
L 165.720565 62.758913 
L 165.720572 62.758923 
L 165.72058 62.75892 
L 165.720588 62.758904 
L 165.720597 62.758878 
L 165.720608 62.758847 
L 165.72062 62.758819 
L 165.720632 62.758803 
L 165.720641 62.758799 
L 165.720641 62.758799 
" clip-path="url(#p0900c7d209)" style="fill: none; stroke-dasharray: 2,3.3; stroke-dashoffset: 0; stroke: #6a5acd; stroke-width: 2"/>
   </g>
   <g id="line2d_48">
    <path d="M 165.7206 62.7588 
L 165.7206 62.7588 
L 165.7206 62.758797 
L 165.720599 62.758767 
L 165.720603 62.758741 
L 165.720606 62.758721 
L 165.720609 62.758707 
L 165.720611 62.7587 
L 165.72061 62.758699 
L 165.720606 62.758707 
L 165.720599 62.758726 
L 165.72059 62.758749 
L 165.72058 62.758775 
L 165.720571 62.758803 
L 165.720562 62.758831 
" clip-path="url(#p0900c7d209)" style="fill: none; stroke: #6a5acd; stroke-width: 2; stroke-linecap: square"/>
   </g>
   <g id="line2d_49">
    <path d="M 165.720616 30.326482 
L 165.720614 30.326507 
L 165.720613 30.326524 
L 165.720612 30.326534 
L 165.72061 30.326534 
L 165.720608 30.326526 
L 165.720606 30.32651 
L 165.720602 30.326488 
L 165.720599 30.326462 
L 165.720596 30.326439 
L 165.720594 30.326422 
L 165.720593 30.326415 
L 165.720593 30.326415 
" clip-path="url(#p0900c7d209)" style="fill: none; stroke-dasharray: 2,3.3; stroke-dashoffset: 0; stroke: #808000; stroke-width: 2"/>
   </g>
   <g id="line2d_50">
    <path d="M 165.7206 30.3264 
L 165.7206 30.3264 
L 165.7206 30.326398 
L 165.720603 30.326374 
L 165.720607 30.326333 
L 165.720608 30.326303 
L 165.720608 30.326285 
L 165.720609 30.326278 
L 165.720611 30.326286 
L 165.720616 30.326304 
L 165.720622 30.32633 
L 165.720624 30.32636 
L 165.720622 30.326408 
L 165.720619 30.326449 
L 165.720616 30.326482 
" clip-path="url(#p0900c7d209)" style="fill: none; stroke: #808000; stroke-width: 2; stroke-linecap: square"/>
   </g>
   <g id="line2d_51">
    <path clip-path="url(#p0900c7d209)" style="fill: none; stroke-dasharray: 2,3.3; stroke-dashoffset: 0; stroke: #a0522d; stroke-width: 2"/>
   </g>
   <g id="line2d_52">
    <path clip-path="url(#p0900c7d209)" style="fill: none; stroke: #a0522d; stroke-width: 2; stroke-linecap: square"/>
   </g>
   <g id="line2d_53">
    <path d="M 165.72044 192.488631 
L 165.720459 192.488601 
L 165.720483 192.488569 
L 165.720509 192.488537 
L 165.720535 192.488505 
L 165.720559 192.488476 
L 165.720581 192.488453 
L 165.7206 192.488435 
L 165.720615 192.488424 
L 165.720625 192.488416 
L 165.720631 192.488411 
L 165.720633 192.488409 
L 165.720633 192.488409 
" clip-path="url(#p0900c7d209)" style="fill: none; stroke-dasharray: 2,3.3; stroke-dashoffset: 0; stroke: #ff4500; stroke-width: 2"/>
   </g>
   <g id="line2d_54">
    <path d="M 165.7206 192.4884 
L 165.7206 192.4884 
L 165.720601 192.488405 
L 165.720611 192.488452 
L 165.720617 192.488491 
L 165.720591 192.488535 
L 165.720574 192.488568 
L 165.720557 192.488592 
L 165.720554 192.48862 
L 165.720547 192.488655 
L 165.720505 192.488686 
L 165.72045 192.488683 
L 165.720421 192.488672 
L 165.720425 192.488655 
L 165.72044 192.488631 
" clip-path="url(#p0900c7d209)" style="fill: none; stroke: #ff4500; stroke-width: 2; stroke-linecap: square"/>
   </g>
   <g id="line2d_55">
    <path d="M 165.72068 224.920698 
L 165.720683 224.920674 
L 165.720686 224.920653 
L 165.720688 224.920637 
L 165.720688 224.92063 
L 165.720684 224.920634 
L 165.720676 224.920649 
L 165.720665 224.920674 
L 165.720651 224.920707 
L 165.720637 224.920742 
L 165.720625 224.920773 
L 165.720618 224.920792 
L 165.720618 224.920792 
" clip-path="url(#p0900c7d209)" style="fill: none; stroke-dasharray: 2,3.3; stroke-dashoffset: 0; stroke: #708090; stroke-width: 2"/>
   </g>
   <g id="line2d_56">
    <path d="M 165.7206 224.9208 
L 165.7206 224.9208 
L 165.720602 224.920799 
L 165.720621 224.92079 
L 165.720636 224.920783 
L 165.720647 224.920788 
L 165.720655 224.920803 
L 165.720661 224.920807 
L 165.720666 224.920806 
L 165.720669 224.920799 
L 165.720672 224.920786 
L 165.720674 224.920768 
L 165.720677 224.920745 
L 165.72068 224.92072 
L 165.72068 224.920698 
" clip-path="url(#p0900c7d209)" style="fill: none; stroke: #708090; stroke-width: 2; stroke-linecap: square"/>
   </g>
   <g id="line2d_57">
    <path clip-path="url(#p0900c7d209)" style="fill: none; stroke-dasharray: 2,3.3; stroke-dashoffset: 0; stroke: #bdb76b; stroke-width: 2"/>
   </g>
   <g id="line2d_58">
    <path clip-path="url(#p0900c7d209)" style="fill: none; stroke: #bdb76b; stroke-width: 2; stroke-linecap: square"/>
   </g>
   <g id="patch_3">
    <path d="M 100.8558 224.9208 
L 100.8558 30.3264 
" style="fill: none; stroke: #000000; stroke-width: 0.8; stroke-linejoin: miter; stroke-linecap: square"/>
   </g>
   <g id="patch_4">
    <path d="M 295.4502 224.9208 
L 295.4502 30.3264 
" style="fill: none; stroke: #000000; stroke-width: 0.8; stroke-linejoin: miter; stroke-linecap: square"/>
   </g>
   <g id="patch_5">
    <path d="M 100.8558 224.9208 
L 295.4502 224.9208 
" style="fill: none; stroke: #000000; stroke-width: 0.8; stroke-linejoin: miter; stroke-linecap: square"/>
   </g>
   <g id="patch_6">
    <path d="M 100.8558 30.3264 
L 295.4502 30.3264 
" style="fill: none; stroke: #000000; stroke-width: 0.8; stroke-linejoin: miter; stroke-linecap: square"/>
   </g>
   <g id="patch_7">
    <path d="M 262.299995 137.269864 
C 264.880347 137.269864 267.355362 136.244679 269.179946 134.420095 
C 271.00453 132.59551 272.029715 130.120496 272.029715 127.540144 
C 272.029715 124.959792 271.00453 122.484777 269.179946 120.660193 
C 267.355362 118.835608 264.880347 117.810424 262.299995 117.810424 
C 259.719643 117.810424 257.244628 118.835608 255.420044 120.660193 
C 253.59546 122.484777 252.570275 124.959792 252.570275 127.540144 
C 252.570275 130.120496 253.59546 132.59551 255.420044 134.420095 
C 257.244628 136.244679 259.719643 137.269864 262.299995 137.269864 
z
" clip-path="url(#p0900c7d209)" style="fill: #1f77b4; stroke: #000000; stroke-linejoin: miter"/>
   </g>
   <g id="patch_8">
    <path d="M 237.806064 141.995415 
C 240.386416 141.995415 242.86143 140.97023 244.686015 139.145646 
C 246.510599 137.321062 247.535784 134.846047 247.535784 132.265695 
C 247.535784 129.685343 246.510599 127.210328 244.686015 125.385744 
C 242.86143 123.56116 240.386416 122.535975 237.806064 122.535975 
C 235.225712 122.535975 232.750697 123.56116 230.926113 125.385744 
C 229.101528 127.210328 228.076344 129.685343 228.076344 132.265695 
C 228.076344 134.846047 229.101528 137.321062 230.926113 139.145646 
C 232.750697 140.97023 235.225712 141.995415 237.806064 141.995415 
z
" clip-path="url(#p0900c7d209)" style="fill: #ff7f0e; stroke: #000000; stroke-linejoin: miter"/>
   </g>
   <g id="patch_9">
    <path d="M 133.288236 104.920725 
C 135.868588 104.920725 138.343603 103.895541 140.168187 102.070956 
C 141.992771 100.246372 143.017956 97.771357 143.017956 95.191005 
C 143.017956 92.610653 141.992771 90.135639 140.168187 88.311054 
C 138.343603 86.48647 135.868588 85.461285 133.288236 85.461285 
C 130.707884 85.461285 128.232869 86.48647 126.408285 88.311054 
C 124.583701 90.135639 123.558516 92.610653 123.558516 95.191005 
C 123.558516 97.771357 124.583701 100.246372 126.408285 102.070956 
C 128.232869 103.895541 130.707884 104.920725 133.288236 104.920725 
z
" clip-path="url(#p0900c7d209)" style="fill: #2ca02c; stroke: #000000; stroke-linejoin: miter"/>
   </g>
   <g id="patch_10">
    <path d="M 165.720291 104.920744 
C 168.300643 104.920744 170.775658 103.895559 172.600242 102.070975 
C 174.424827 100.24639 175.450011 97.771376 175.450011 95.191024 
C 175.450011 92.610672 174.424827 90.135657 172.600242 88.311073 
C 170.775658 86.486488 168.300643 85.461304 165.720291 85.461304 
C 163.139939 85.461304 160.664925 86.486488 158.84034 88.311073 
C 157.015756 90.135657 155.990571 92.610672 155.990571 95.191024 
C 155.990571 97.771376 157.015756 100.24639 158.84034 102.070975 
C 160.664925 103.895559 163.139939 104.920744 165.720291 104.920744 
z
" clip-path="url(#p0900c7d209)" style="fill: #d62728; stroke: #000000; stroke-linejoin: miter"/>
   </g>
   <g id="patch_11">
    <path d="M 230.585686 104.920756 
C 233.166038 104.920756 235.641053 103.895571 237.465637 102.070987 
C 239.290222 100.246402 240.315406 97.771388 240.315406 95.191036 
C 240.315406 92.610684 239.290222 90.135669 237.465637 88.311085 
C 235.641053 86.4865 233.166038 85.461316 230.585686 85.461316 
C 228.005334 85.461316 225.53032 86.4865 223.705735 88.311085 
C 221.881151 90.135669 220.855966 92.610684 220.855966 95.191036 
C 220.855966 97.771388 221.881151 100.246402 223.705735 102.070987 
C 225.53032 103.895571 228.005334 104.920756 230.585686 104.920756 
z
" clip-path="url(#p0900c7d209)" style="fill: #9467bd; stroke: #000000; stroke-linejoin: miter"/>
   </g>
   <g id="patch_12">
    <path d="M 263.017784 104.920742 
C 265.598136 104.920742 268.073151 103.895557 269.897735 102.070973 
C 271.722319 100.246389 272.747504 97.771374 272.747504 95.191022 
C 272.747504 92.61067 271.722319 90.135655 269.897735 88.311071 
C 268.073151 86.486487 265.598136 85.461302 263.017784 85.461302 
C 260.437432 85.461302 257.962418 86.486487 256.137833 88.311071 
C 254.313249 90.135655 253.288064 92.61067 253.288064 95.191022 
C 253.288064 97.771374 254.313249 100.246389 256.137833 102.070973 
C 257.962418 103.895557 260.437432 104.920742 263.017784 104.920742 
z
" clip-path="url(#p0900c7d209)" style="fill: #8c564b; stroke: #000000; stroke-linejoin: miter"/>
   </g>
   <g id="patch_13">
    <path d="M 133.288249 169.785848 
C 135.868601 169.785848 138.343616 168.760664 140.1682 166.936079 
C 141.992784 165.111495 143.017969 162.63648 143.017969 160.056128 
C 143.017969 157.475776 141.992784 155.000762 140.1682 153.176177 
C 138.343616 151.351593 135.868601 150.326408 133.288249 150.326408 
C 130.707897 150.326408 128.232882 151.351593 126.408298 153.176177 
C 124.583714 155.000762 123.558529 157.475776 123.558529 160.056128 
C 123.558529 162.63648 124.583714 165.111495 126.408298 166.936079 
C 128.232882 168.760664 130.707897 169.785848 133.288249 169.785848 
z
" clip-path="url(#p0900c7d209)" style="fill: #e377c2; stroke: #000000; stroke-linejoin: miter"/>
   </g>
   <g id="patch_14">
    <path d="M 165.720396 169.785369 
C 168.300747 169.785369 170.775762 168.760184 172.600347 166.9356 
C 174.424931 165.111016 175.450116 162.636001 175.450116 160.055649 
C 175.450116 157.475297 174.424931 155.000282 172.600347 153.175698 
C 170.775762 151.351114 168.300747 150.325929 165.720396 150.325929 
C 163.140044 150.325929 160.665029 151.351114 158.840445 153.175698 
C 157.01586 155.000282 155.990676 157.475297 155.990676 160.055649 
C 155.990676 162.636001 157.01586 165.111016 158.840445 166.9356 
C 160.665029 168.760184 163.140044 169.785369 165.720396 169.785369 
z
" clip-path="url(#p0900c7d209)" style="fill: #7f7f7f; stroke: #000000; stroke-linejoin: miter"/>
   </g>
   <g id="patch_15">
    <path d="M 230.585489 169.785771 
C 233.165841 169.785771 235.640856 168.760586 237.46544 166.936002 
C 239.290024 165.111417 240.315209 162.636402 240.315209 160.056051 
C 240.315209 157.475699 239.290024 155.000684 237.46544 153.1761 
C 235.640856 151.351515 233.165841 150.326331 230.585489 150.326331 
C 228.005137 150.326331 225.530122 151.351515 223.705538 153.1761 
C 221.880954 155.000684 220.855769 157.475699 220.855769 160.056051 
C 220.855769 162.636402 221.880954 165.111417 223.705538 166.936002 
C 225.530122 168.760586 228.005137 169.785771 230.585489 169.785771 
z
" clip-path="url(#p0900c7d209)" style="fill: #bcbd22; stroke: #000000; stroke-linejoin: miter"/>
   </g>
   <g id="patch_16">
    <path d="M 263.017778 169.785894 
C 265.59813 169.785894 268.073145 168.760709 269.897729 166.936125 
C 271.722314 165.11154 272.747498 162.636525 272.747498 160.056174 
C 272.747498 157.475822 271.722314 155.000807 269.897729 153.176223 
C 268.073145 151.351638 265.59813 150.326454 263.017778 150.326454 
C 260.437426 150.326454 257.962412 151.351638 256.137827 153.176223 
C 254.313243 155.000807 253.288058 157.475822 253.288058 160.056174 
C 253.288058 162.636525 254.313243 165.11154 256.137827 166.936125 
C 257.962412 168.760709 260.437426 169.785894 263.017778 169.785894 
z
" clip-path="url(#p0900c7d209)" style="fill: #17becf; stroke: #000000; stroke-linejoin: miter"/>
   </g>
   <g id="patch_17">
    <path d="M 230.585546 72.488491 
C 233.165898 72.488491 235.640913 71.463307 237.465497 69.638722 
C 239.290082 67.814138 240.315266 65.339123 240.315266 62.758771 
C 240.315266 60.178419 239.290082 57.703405 237.465497 55.87882 
C 235.640913 54.054236 233.165898 53.029051 230.585546 53.029051 
C 228.005194 53.029051 225.53018 54.054236 223.705595 55.87882 
C 221.881011 57.703405 220.855826 60.178419 220.855826 62.758771 
C 220.855826 65.339123 221.881011 67.814138 223.705595 69.638722 
C 225.53018 71.463307 228.005194 72.488491 230.585546 72.488491 
z
" clip-path="url(#p0900c7d209)" style="fill: #2f4f4f; stroke: #000000; stroke-linejoin: miter"/>
   </g>
   <g id="patch_18">
    <path d="M 230.585289 40.056416 
C 233.165641 40.056416 235.640656 39.031231 237.46524 37.206647 
C 239.289825 35.382062 240.315009 32.907047 240.315009 30.326696 
C 240.315009 27.746344 239.289825 25.271329 237.46524 23.446745 
C 235.640656 21.62216 233.165641 20.596976 230.585289 20.596976 
C 228.004938 20.596976 225.529923 21.62216 223.705339 23.446745 
C 221.880754 25.271329 220.855569 27.746344 220.855569 30.326696 
C 220.855569 32.907047 221.880754 35.382062 223.705339 37.206647 
C 225.529923 39.031231 228.004938 40.056416 230.585289 40.056416 
z
" clip-path="url(#p0900c7d209)" style="fill: #cd5c5c; stroke: #000000; stroke-linejoin: miter"/>
   </g>
   <g id="patch_19">
    <path d="M 230.585674 7.623695 
C 233.166026 7.623695 235.641041 6.59851 237.465625 4.773926 
C 239.29021 2.949342 240.315394 0.474327 240.315394 -2.106025 
C 240.315394 -4.686377 239.29021 -7.161392 237.465625 -8.985976 
C 235.641041 -10.81056 233.166026 -11.835745 230.585674 -11.835745 
C 228.005322 -11.835745 225.530308 -10.81056 223.705723 -8.985976 
C 221.881139 -7.161392 220.855954 -4.686377 220.855954 -2.106025 
C 220.855954 0.474327 221.881139 2.949342 223.705723 4.773926 
C 225.530308 6.59851 228.005322 7.623695 230.585674 7.623695 
z
" clip-path="url(#p0900c7d209)" style="fill: #add8e6; stroke: #000000; stroke-linejoin: miter"/>
   </g>
   <g id="patch_20">
    <path d="M 230.585517 202.218158 
C 233.165869 202.218158 235.640884 201.192973 237.465468 199.368389 
C 239.290052 197.543805 240.315237 195.06879 240.315237 192.488438 
C 240.315237 189.908086 239.290052 187.433071 237.465468 185.608487 
C 235.640884 183.783903 233.165869 182.758718 230.585517 182.758718 
C 228.005165 182.758718 225.53015 183.783903 223.705566 185.608487 
C 221.880982 187.433071 220.855797 189.908086 220.855797 192.488438 
C 220.855797 195.06879 221.880982 197.543805 223.705566 199.368389 
C 225.53015 201.192973 228.005165 202.218158 230.585517 202.218158 
z
" clip-path="url(#p0900c7d209)" style="fill: #663399; stroke: #000000; stroke-linejoin: miter"/>
   </g>
   <g id="patch_21">
    <path d="M 230.585321 234.650566 
C 233.165673 234.650566 235.640688 233.625381 237.465272 231.800797 
C 239.289856 229.976212 240.315041 227.501198 240.315041 224.920846 
C 240.315041 222.340494 239.289856 219.865479 237.465272 218.040895 
C 235.640688 216.21631 233.165673 215.191126 230.585321 215.191126 
C 228.004969 215.191126 225.529954 216.21631 223.70537 218.040895 
C 221.880786 219.865479 220.855601 222.340494 220.855601 224.920846 
C 220.855601 227.501198 221.880786 229.976212 223.70537 231.800797 
C 225.529954 233.625381 228.004969 234.650566 230.585321 234.650566 
z
" clip-path="url(#p0900c7d209)" style="fill: #8fbc8f; stroke: #000000; stroke-linejoin: miter"/>
   </g>
   <g id="patch_22">
    <path d="M 230.586017 267.082894 
C 233.166369 267.082894 235.641383 266.057709 237.465968 264.233125 
C 239.290552 262.40854 240.315737 259.933526 240.315737 257.353174 
C 240.315737 254.772822 239.290552 252.297807 237.465968 250.473223 
C 235.641383 248.648638 233.166369 247.623454 230.586017 247.623454 
C 228.005665 247.623454 225.53065 248.648638 223.706066 250.473223 
C 221.881481 252.297807 220.856297 254.772822 220.856297 257.353174 
C 220.856297 259.933526 221.881481 262.40854 223.706066 264.233125 
C 225.53065 266.057709 228.005665 267.082894 230.586017 267.082894 
z
" clip-path="url(#p0900c7d209)" style="fill: #00ced1; stroke: #000000; stroke-linejoin: miter"/>
   </g>
   <g id="patch_23">
    <path d="M 165.720562 72.488551 
C 168.300914 72.488551 170.775929 71.463367 172.600513 69.638782 
C 174.425097 67.814198 175.450282 65.339183 175.450282 62.758831 
C 175.450282 60.178479 174.425097 57.703465 172.600513 55.87888 
C 170.775929 54.054296 168.300914 53.029111 165.720562 53.029111 
C 163.14021 53.029111 160.665195 54.054296 158.840611 55.87888 
C 157.016027 57.703465 155.990842 60.178479 155.990842 62.758831 
C 155.990842 65.339183 157.016027 67.814198 158.840611 69.638782 
C 160.665195 71.463367 163.14021 72.488551 165.720562 72.488551 
z
" clip-path="url(#p0900c7d209)" style="fill: #6a5acd; stroke: #000000; stroke-linejoin: miter"/>
   </g>
   <g id="patch_24">
    <path d="M 165.720616 40.056202 
C 168.300968 40.056202 170.775983 39.031018 172.600567 37.206433 
C 174.425152 35.381849 175.450336 32.906834 175.450336 30.326482 
C 175.450336 27.74613 174.425152 25.271116 172.600567 23.446531 
C 170.775983 21.621947 168.300968 20.596762 165.720616 20.596762 
C 163.140264 20.596762 160.66525 21.621947 158.840665 23.446531 
C 157.016081 25.271116 155.990896 27.74613 155.990896 30.326482 
C 155.990896 32.906834 157.016081 35.381849 158.840665 37.206433 
C 160.66525 39.031018 163.140264 40.056202 165.720616 40.056202 
z
" clip-path="url(#p0900c7d209)" style="fill: #808000; stroke: #000000; stroke-linejoin: miter"/>
   </g>
   <g id="patch_25">
    <path d="M 165.720576 7.623732 
C 168.300928 7.623732 170.775942 6.598548 172.600527 4.773963 
C 174.425111 2.949379 175.450296 0.474364 175.450296 -2.105988 
C 175.450296 -4.68634 174.425111 -7.161354 172.600527 -8.985939 
C 170.775942 -10.810523 168.300928 -11.835708 165.720576 -11.835708 
C 163.140224 -11.835708 160.665209 -10.810523 158.840625 -8.985939 
C 157.01604 -7.161354 155.990856 -4.68634 155.990856 -2.105988 
C 155.990856 0.474364 157.01604 2.949379 158.840625 4.773963 
C 160.665209 6.598548 163.140224 7.623732 165.720576 7.623732 
z
" clip-path="url(#p0900c7d209)" style="fill: #a0522d; stroke: #000000; stroke-linejoin: miter"/>
   </g>
   <g id="patch_26">
    <path d="M 165.72044 202.218351 
C 168.300792 202.218351 170.775807 201.193167 172.600391 199.368582 
C 174.424975 197.543998 175.45016 195.068983 175.45016 192.488631 
C 175.45016 189.908279 174.424975 187.433265 172.600391 185.60868 
C 170.775807 183.784096 168.300792 182.758911 165.72044 182.758911 
C 163.140088 182.758911 160.665073 183.784096 158.840489 185.60868 
C 157.015905 187.433265 155.99072 189.908279 155.99072 192.488631 
C 155.99072 195.068983 157.015905 197.543998 158.840489 199.368582 
C 160.665073 201.193167 163.140088 202.218351 165.72044 202.218351 
z
" clip-path="url(#p0900c7d209)" style="fill: #ff4500; stroke: #000000; stroke-linejoin: miter"/>
   </g>
   <g id="patch_27">
    <path d="M 165.72068 234.650418 
C 168.301032 234.650418 170.776047 233.625233 172.600631 231.800649 
C 174.425216 229.976064 175.4504 227.50105 175.4504 224.920698 
C 175.4504 222.340346 174.425216 219.865331 172.600631 218.040747 
C 170.776047 216.216163 168.301032 215.190978 165.72068 215.190978 
C 163.140328 215.190978 160.665314 216.216163 158.840729 218.040747 
C 157.016145 219.865331 155.99096 222.340346 155.99096 224.920698 
C 155.99096 227.50105 157.016145 229.976064 158.840729 231.800649 
C 160.665314 233.625233 163.140328 234.650418 165.72068 234.650418 
z
" clip-path="url(#p0900c7d209)" style="fill: #708090; stroke: #000000; stroke-linejoin: miter"/>
   </g>
   <g id="patch_28">
    <path d="M 165.720108 267.082902 
C 168.30046 267.082902 170.775475 266.057717 172.600059 264.233133 
C 174.424644 262.408548 175.449828 259.933534 175.449828 257.353182 
C 175.449828 254.77283 174.424644 252.297815 172.600059 250.473231 
C 170.775475 248.648646 168.30046 247.623462 165.720108 247.623462 
C 163.139757 247.623462 160.664742 248.648646 158.840157 250.473231 
C 157.015573 252.297815 155.990388 254.77283 155.990388 257.353182 
C 155.990388 259.933534 157.015573 262.408548 158.840157 264.233133 
C 160.664742 266.057717 163.139757 267.082902 165.720108 267.082902 
z
" clip-path="url(#p0900c7d209)" style="fill: #bdb76b; stroke: #000000; stroke-linejoin: miter"/>
   </g>
   <g id="line2d_59">
    <path d="M 263.0178 127.6236 
" clip-path="url(#p0900c7d209)" style="fill: none; stroke: #1f77b4; stroke-width: 1.5; stroke-linecap: square"/>
    <defs>
     <path id="m020bfb6c6f" d="M 0 4.949747 
L 2.969848 0 
L 0 -4.949747 
L -2.969848 0 
z
" style="stroke: #000000; stroke-linejoin: miter"/>
    </defs>
    <g clip-path="url(#p0900c7d209)">
     <use xlink:href="#m020bfb6c6f" x="263.0178" y="127.6236" style="fill: #1f77b4; stroke: #000000; stroke-linejoin: miter"/>
    </g>
   </g>
   <g id="line2d_60">
    <path d="M 263.0178 127.6236 
" clip-path="url(#p0900c7d209)" style="fill: none; stroke: #ff7f0e; stroke-width: 1.5; stroke-linecap: square"/>
    <defs>
     <path id="m2337066923" d="M 0 4.949747 
L 2.969848 0 
L 0 -4.949747 
L -2.969848 0 
z
" style="stroke: #000000; stroke-linejoin: miter"/>
    </defs>
    <g clip-path="url(#p0900c7d209)">
     <use xlink:href="#m2337066923" x="263.0178" y="127.6236" style="fill: #ff7f0e; stroke: #000000; stroke-linejoin: miter"/>
    </g>
   </g>
   <g id="line2d_61">
    <path d="M 133.2882 95.1912 
" clip-path="url(#p0900c7d209)" style="fill: none; stroke: #2ca02c; stroke-width: 1.5; stroke-linecap: square"/>
    <defs>
     <path id="m645f9c5d14" d="M 0 4.949747 
L 2.969848 0 
L 0 -4.949747 
L -2.969848 0 
z
" style="stroke: #000000; stroke-linejoin: miter"/>
    </defs>
    <g clip-path="url(#p0900c7d209)">
     <use xlink:href="#m645f9c5d14" x="133.2882" y="95.1912" style="fill: #2ca02c; stroke: #000000; stroke-linejoin: miter"/>
    </g>
   </g>
   <g id="line2d_62">
    <path d="M 165.7206 95.1912 
" clip-path="url(#p0900c7d209)" style="fill: none; stroke: #d62728; stroke-width: 1.5; stroke-linecap: square"/>
    <defs>
     <path id="meb669647f4" d="M 0 4.949747 
L 2.969848 0 
L 0 -4.949747 
L -2.969848 0 
z
" style="stroke: #000000; stroke-linejoin: miter"/>
    </defs>
    <g clip-path="url(#p0900c7d209)">
     <use xlink:href="#meb669647f4" x="165.7206" y="95.1912" style="fill: #d62728; stroke: #000000; stroke-linejoin: miter"/>
    </g>
   </g>
   <g id="line2d_63">
    <path d="M 230.5854 95.1912 
" clip-path="url(#p0900c7d209)" style="fill: none; stroke: #9467bd; stroke-width: 1.5; stroke-linecap: square"/>
    <defs>
     <path id="m2c6217cf82" d="M 0 4.949747 
L 2.969848 0 
L 0 -4.949747 
L -2.969848 0 
z
" style="stroke: #000000; stroke-linejoin: miter"/>
    </defs>
    <g clip-path="url(#p0900c7d209)">
     <use xlink:href="#m2c6217cf82" x="230.5854" y="95.1912" style="fill: #9467bd; stroke: #000000; stroke-linejoin: miter"/>
    </g>
   </g>
   <g id="line2d_64">
    <path d="M 263.0178 95.1912 
" clip-path="url(#p0900c7d209)" style="fill: none; stroke: #8c564b; stroke-width: 1.5; stroke-linecap: square"/>
    <defs>
     <path id="md5111c584a" d="M 0 4.949747 
L 2.969848 0 
L 0 -4.949747 
L -2.969848 0 
z
" style="stroke: #000000; stroke-linejoin: miter"/>
    </defs>
    <g clip-path="url(#p0900c7d209)">
     <use xlink:href="#md5111c584a" x="263.0178" y="95.1912" style="fill: #8c564b; stroke: #000000; stroke-linejoin: miter"/>
    </g>
   </g>
   <g id="line2d_65">
    <path d="M 133.2882 160.056 
" clip-path="url(#p0900c7d209)" style="fill: none; stroke: #e377c2; stroke-width: 1.5; stroke-linecap: square"/>
    <defs>
     <path id="m367baa84ab" d="M 0 4.949747 
L 2.969848 0 
L 0 -4.949747 
L -2.969848 0 
z
" style="stroke: #000000; stroke-linejoin: miter"/>
    </defs>
    <g clip-path="url(#p0900c7d209)">
     <use xlink:href="#m367baa84ab" x="133.2882" y="160.056" style="fill: #e377c2; stroke: #000000; stroke-linejoin: miter"/>
    </g>
   </g>
   <g id="line2d_66">
    <path d="M 165.7206 160.056 
" clip-path="url(#p0900c7d209)" style="fill: none; stroke: #7f7f7f; stroke-width: 1.5; stroke-linecap: square"/>
    <defs>
     <path id="m41133b8efd" d="M 0 4.949747 
L 2.969848 0 
L 0 -4.949747 
L -2.969848 0 
z
" style="stroke: #000000; stroke-linejoin: miter"/>
    </defs>
    <g clip-path="url(#p0900c7d209)">
     <use xlink:href="#m41133b8efd" x="165.7206" y="160.056" style="fill: #7f7f7f; stroke: #000000; stroke-linejoin: miter"/>
    </g>
   </g>
   <g id="line2d_67">
    <path d="M 230.5854 160.056 
" clip-path="url(#p0900c7d209)" style="fill: none; stroke: #bcbd22; stroke-width: 1.5; stroke-linecap: square"/>
    <defs>
     <path id="m119aaf9ee6" d="M 0 4.949747 
L 2.969848 0 
L 0 -4.949747 
L -2.969848 0 
z
" style="stroke: #000000; stroke-linejoin: miter"/>
    </defs>
    <g clip-path="url(#p0900c7d209)">
     <use xlink:href="#m119aaf9ee6" x="230.5854" y="160.056" style="fill: #bcbd22; stroke: #000000; stroke-linejoin: miter"/>
    </g>
   </g>
   <g id="line2d_68">
    <path d="M 263.0178 160.056 
" clip-path="url(#p0900c7d209)" style="fill: none; stroke: #17becf; stroke-width: 1.5; stroke-linecap: square"/>
    <defs>
     <path id="me3a487d929" d="M 0 4.949747 
L 2.969848 0 
L 0 -4.949747 
L -2.969848 0 
z
" style="stroke: #000000; stroke-linejoin: miter"/>
    </defs>
    <g clip-path="url(#p0900c7d209)">
     <use xlink:href="#me3a487d929" x="263.0178" y="160.056" style="fill: #17becf; stroke: #000000; stroke-linejoin: miter"/>
    </g>
   </g>
   <g id="line2d_69">
    <path d="M 230.5854 62.7588 
" clip-path="url(#p0900c7d209)" style="fill: none; stroke: #2f4f4f; stroke-width: 1.5; stroke-linecap: square"/>
    <defs>
     <path id="m8cfee583b9" d="M 0 4.949747 
L 2.969848 0 
L 0 -4.949747 
L -2.969848 0 
z
" style="stroke: #000000; stroke-linejoin: miter"/>
    </defs>
    <g clip-path="url(#p0900c7d209)">
     <use xlink:href="#m8cfee583b9" x="230.5854" y="62.7588" style="fill: #2f4f4f; stroke: #000000; stroke-linejoin: miter"/>
    </g>
   </g>
   <g id="line2d_70">
    <path d="M 230.5854 30.3264 
" clip-path="url(#p0900c7d209)" style="fill: none; stroke: #cd5c5c; stroke-width: 1.5; stroke-linecap: square"/>
    <defs>
     <path id="md9ddb34580" d="M 0 4.949747 
L 2.969848 0 
L 0 -4.949747 
L -2.969848 0 
z
" style="stroke: #000000; stroke-linejoin: miter"/>
    </defs>
    <g clip-path="url(#p0900c7d209)">
     <use xlink:href="#md9ddb34580" x="230.5854" y="30.3264" style="fill: #cd5c5c; stroke: #000000; stroke-linejoin: miter"/>
    </g>
   </g>
   <g id="line2d_71">
    <path clip-path="url(#p0900c7d209)" style="fill: none; stroke: #add8e6; stroke-width: 1.5; stroke-linecap: square"/>
    <defs>
     <path id="m7cef345015" d="M 0 4.949747 
L 2.969848 0 
L 0 -4.949747 
L -2.969848 0 
z
" style="stroke: #000000; stroke-linejoin: miter"/>
    </defs>
    <g clip-path="url(#p0900c7d209)"/>
   </g>
   <g id="line2d_72">
    <path d="M 230.5854 192.4884 
" clip-path="url(#p0900c7d209)" style="fill: none; stroke: #663399; stroke-width: 1.5; stroke-linecap: square"/>
    <defs>
     <path id="m37bf3ac454" d="M 0 4.949747 
L 2.969848 0 
L 0 -4.949747 
L -2.969848 0 
z
" style="stroke: #000000; stroke-linejoin: miter"/>
    </defs>
    <g clip-path="url(#p0900c7d209)">
     <use xlink:href="#m37bf3ac454" x="230.5854" y="192.4884" style="fill: #663399; stroke: #000000; stroke-linejoin: miter"/>
    </g>
   </g>
   <g id="line2d_73">
    <path d="M 230.5854 224.9208 
" clip-path="url(#p0900c7d209)" style="fill: none; stroke: #8fbc8f; stroke-width: 1.5; stroke-linecap: square"/>
    <defs>
     <path id="m9eff796f49" d="M 0 4.949747 
L 2.969848 0 
L 0 -4.949747 
L -2.969848 0 
z
" style="stroke: #000000; stroke-linejoin: miter"/>
    </defs>
    <g clip-path="url(#p0900c7d209)">
     <use xlink:href="#m9eff796f49" x="230.5854" y="224.9208" style="fill: #8fbc8f; stroke: #000000; stroke-linejoin: miter"/>
    </g>
   </g>
   <g id="line2d_74">
    <path clip-path="url(#p0900c7d209)" style="fill: none; stroke: #00ced1; stroke-width: 1.5; stroke-linecap: square"/>
    <defs>
     <path id="mc860e3d83d" d="M 0 4.949747 
L 2.969848 0 
L 0 -4.949747 
L -2.969848 0 
z
" style="stroke: #000000; stroke-linejoin: miter"/>
    </defs>
    <g clip-path="url(#p0900c7d209)">
     <use xlink:href="#mc860e3d83d" x="230.5854" y="257.3532" style="fill: #00ced1; stroke: #000000; stroke-linejoin: miter"/>
    </g>
   </g>
   <g id="line2d_75">
    <path d="M 165.7206 62.7588 
" clip-path="url(#p0900c7d209)" style="fill: none; stroke: #6a5acd; stroke-width: 1.5; stroke-linecap: square"/>
    <defs>
     <path id="m329e476c6c" d="M 0 4.949747 
L 2.969848 0 
L 0 -4.949747 
L -2.969848 0 
z
" style="stroke: #000000; stroke-linejoin: miter"/>
    </defs>
    <g clip-path="url(#p0900c7d209)">
     <use xlink:href="#m329e476c6c" x="165.7206" y="62.7588" style="fill: #6a5acd; stroke: #000000; stroke-linejoin: miter"/>
    </g>
   </g>
   <g id="line2d_76">
    <path d="M 165.7206 30.3264 
" clip-path="url(#p0900c7d209)" style="fill: none; stroke: #808000; stroke-width: 1.5; stroke-linecap: square"/>
    <defs>
     <path id="md60c60ac13" d="M 0 4.949747 
L 2.969848 0 
L 0 -4.949747 
L -2.969848 0 
z
" style="stroke: #000000; stroke-linejoin: miter"/>
    </defs>
    <g clip-path="url(#p0900c7d209)">
     <use xlink:href="#md60c60ac13" x="165.7206" y="30.3264" style="fill: #808000; stroke: #000000; stroke-linejoin: miter"/>
    </g>
   </g>
   <g id="line2d_77">
    <path clip-path="url(#p0900c7d209)" style="fill: none; stroke: #a0522d; stroke-width: 1.5; stroke-linecap: square"/>
    <defs>
     <path id="m18a9889118" d="M 0 4.949747 
L 2.969848 0 
L 0 -4.949747 
L -2.969848 0 
z
" style="stroke: #000000; stroke-linejoin: miter"/>
    </defs>
    <g clip-path="url(#p0900c7d209)"/>
   </g>
   <g id="line2d_78">
    <path d="M 165.7206 192.4884 
" clip-path="url(#p0900c7d209)" style="fill: none; stroke: #ff4500; stroke-width: 1.5; stroke-linecap: square"/>
    <defs>
     <path id="me03410c0f9" d="M 0 4.949747 
L 2.969848 0 
L 0 -4.949747 
L -2.969848 0 
z
" style="stroke: #000000; stroke-linejoin: miter"/>
    </defs>
    <g clip-path="url(#p0900c7d209)">
     <use xlink:href="#me03410c0f9" x="165.7206" y="192.4884" style="fill: #ff4500; stroke: #000000; stroke-linejoin: miter"/>
    </g>
   </g>
   <g id="line2d_79">
    <path d="M 165.7206 224.9208 
" clip-path="url(#p0900c7d209)" style="fill: none; stroke: #708090; stroke-width: 1.5; stroke-linecap: square"/>
    <defs>
     <path id="m9a0b252904" d="M 0 4.949747 
L 2.969848 0 
L 0 -4.949747 
L -2.969848 0 
z
" style="stroke: #000000; stroke-linejoin: miter"/>
    </defs>
    <g clip-path="url(#p0900c7d209)">
     <use xlink:href="#m9a0b252904" x="165.7206" y="224.9208" style="fill: #708090; stroke: #000000; stroke-linejoin: miter"/>
    </g>
   </g>
   <g id="line2d_80">
    <path clip-path="url(#p0900c7d209)" style="fill: none; stroke: #bdb76b; stroke-width: 1.5; stroke-linecap: square"/>
    <defs>
     <path id="m50e2290c35" d="M 0 4.949747 
L 2.969848 0 
L 0 -4.949747 
L -2.969848 0 
z
" style="stroke: #000000; stroke-linejoin: miter"/>
    </defs>
    <g clip-path="url(#p0900c7d209)">
     <use xlink:href="#m50e2290c35" x="165.7206" y="257.3532" style="fill: #bdb76b; stroke: #000000; stroke-linejoin: miter"/>
    </g>
   </g>
  </g>
 </g>
 <defs>
  <clipPath id="p0900c7d209">
   <rect x="100.8558" y="30.3264" width="194.5944" height="194.5944"/>
  </clipPath>
 </defs>
</svg>
