<?xml version="1.0" encoding="utf-8" standalone="no"?>
<!DOCTYPE svg PUBLIC "-//W3C//DTD SVG 1.1//EN"
  "http://www.w3.org/Graphics/SVG/1.1/DTD/svg11.dtd">
<svg xmlns:xlink="http://www.w3.org/1999/xlink" width="386.64pt" height="252.72pt" viewBox="0 0 386.64 252.72" xmlns="http://www.w3.org/2000/svg" version="1.1">
 <metadata>
  <rdf:RDF xmlns:dc="http://purl.org/dc/elements/1.1/" xmlns:cc="http://creativecommons.org/ns#" xmlns:rdf="http://www.w3.org/1999/02/22-rdf-syntax-ns#">
   <cc:Work>
    <dc:type rdf:resource="http://purl.org/dc/dcmitype/StillImage"/>
    <dc:date>2023-07-11T22:26:53.855552</dc:date>
    <dc:format>image/svg+xml</dc:format>
    <dc:creator>
     <cc:Agent>
      <dc:title>Matplotlib v3.6.2, https://matplotlib.org/</dc:title>
     </cc:Agent>
    </dc:creator>
   </cc:Work>
  </rdf:RDF>
 </metadata>
 <defs>
  <style type="text/css">*{stroke-linejoin: round; stroke-linecap: butt}</style>
 </defs>
 <g id="figure_1">
  <g id="patch_1">
   <path d="M 0 252.72 
L 386.64 252.72 
L 386.64 0 
L 0 0 
z
" style="fill: #ffffff"/>
  </g>
  <g id="axes_1">
   <g id="patch_2">
    <path d="M 100.8558 224.9208 
L 295.4502 224.9208 
L 295.4502 30.3264 
L 100.8558 30.3264 
z
" style="fill: #ffffff"/>
   </g>
   <g id="matplotlib.axis_1">
    <g id="xtick_1">
     <g id="line2d_1">
      <defs>
       <path id="mfc3f717f7a" d="M 0 0 
L 0 3.5 
" style="stroke: #000000; stroke-width: 0.8"/>
      </defs>
      <g>
       <use xlink:href="#mfc3f717f7a" x="100.8558" y="224.9208" style="stroke: #000000; stroke-width: 0.8"/>
      </g>
     </g>
     <g id="text_1">
      <!-- −0.5 -->
      <g transform="translate(88.714394 239.519237) scale(0.1 -0.1)">
       <defs>
        <path id="DejaVuSans-2212" d="M 678 2272 
L 4684 2272 
L 4684 1741 
L 678 1741 
L 678 2272 
z
" transform="scale(0.015625)"/>
        <path id="DejaVuSans-30" d="M 2034 4250 
Q 1547 4250 1301 3770 
Q 1056 3291 1056 2328 
Q 1056 1369 1301 889 
Q 1547 409 2034 409 
Q 2525 409 2770 889 
Q 3016 1369 3016 2328 
Q 3016 3291 2770 3770 
Q 2525 4250 2034 4250 
z
M 2034 4750 
Q 2819 4750 3233 4129 
Q 3647 3509 3647 2328 
Q 3647 1150 3233 529 
Q 2819 -91 2034 -91 
Q 1250 -91 836 529 
Q 422 1150 422 2328 
Q 422 3509 836 4129 
Q 1250 4750 2034 4750 
z
" transform="scale(0.015625)"/>
        <path id="DejaVuSans-2e" d="M 684 794 
L 1344 794 
L 1344 0 
L 684 0 
L 684 794 
z
" transform="scale(0.015625)"/>
        <path id="DejaVuSans-35" d="M 691 4666 
L 3169 4666 
L 3169 4134 
L 1269 4134 
L 1269 2991 
Q 1406 3038 1543 3061 
Q 1681 3084 1819 3084 
Q 2600 3084 3056 2656 
Q 3513 2228 3513 1497 
Q 3513 744 3044 326 
Q 2575 -91 1722 -91 
Q 1428 -91 1123 -41 
Q 819 9 494 109 
L 494 744 
Q 775 591 1075 516 
Q 1375 441 1709 441 
Q 2250 441 2565 725 
Q 2881 1009 2881 1497 
Q 2881 1984 2565 2268 
Q 2250 2553 1709 2553 
Q 1456 2553 1204 2497 
Q 953 2441 691 2322 
L 691 4666 
z
" transform="scale(0.015625)"/>
       </defs>
       <use xlink:href="#DejaVuSans-2212"/>
       <use xlink:href="#DejaVuSans-30" x="83.789062"/>
       <use xlink:href="#DejaVuSans-2e" x="147.412109"/>
       <use xlink:href="#DejaVuSans-35" x="179.199219"/>
      </g>
     </g>
    </g>
    <g id="xtick_2">
     <g id="line2d_2">
      <g>
       <use xlink:href="#mfc3f717f7a" x="133.2882" y="224.9208" style="stroke: #000000; stroke-width: 0.8"/>
      </g>
     </g>
     <g id="text_2">
      <!-- 0.0 -->
      <g transform="translate(125.336638 239.519237) scale(0.1 -0.1)">
       <use xlink:href="#DejaVuSans-30"/>
       <use xlink:href="#DejaVuSans-2e" x="63.623047"/>
       <use xlink:href="#DejaVuSans-30" x="95.410156"/>
      </g>
     </g>
    </g>
    <g id="xtick_3">
     <g id="line2d_3">
      <g>
       <use xlink:href="#mfc3f717f7a" x="165.7206" y="224.9208" style="stroke: #000000; stroke-width: 0.8"/>
      </g>
     </g>
     <g id="text_3">
      <!-- 0.5 -->
      <g transform="translate(157.769037 239.519237) scale(0.1 -0.1)">
       <use xlink:href="#DejaVuSans-30"/>
       <use xlink:href="#DejaVuSans-2e" x="63.623047"/>
       <use xlink:href="#DejaVuSans-35" x="95.410156"/>
      </g>
     </g>
    </g>
    <g id="xtick_4">
     <g id="line2d_4">
      <g>
       <use xlink:href="#mfc3f717f7a" x="198.153" y="224.9208" style="stroke: #000000; stroke-width: 0.8"/>
      </g>
     </g>
     <g id="text_4">
      <!-- 1.0 -->
      <g transform="translate(190.201437 239.519237) scale(0.1 -0.1)">
       <defs>
        <path id="DejaVuSans-31" d="M 794 531 
L 1825 531 
L 1825 4091 
L 703 3866 
L 703 4441 
L 1819 4666 
L 2450 4666 
L 2450 531 
L 3481 531 
L 3481 0 
L 794 0 
L 794 531 
z
" transform="scale(0.015625)"/>
       </defs>
       <use xlink:href="#DejaVuSans-31"/>
       <use xlink:href="#DejaVuSans-2e" x="63.623047"/>
       <use xlink:href="#DejaVuSans-30" x="95.410156"/>
      </g>
     </g>
    </g>
    <g id="xtick_5">
     <g id="line2d_5">
      <g>
       <use xlink:href="#mfc3f717f7a" x="230.5854" y="224.9208" style="stroke: #000000; stroke-width: 0.8"/>
      </g>
     </g>
     <g id="text_5">
      <!-- 1.5 -->
      <g transform="translate(222.633837 239.519237) scale(0.1 -0.1)">
       <use xlink:href="#DejaVuSans-31"/>
       <use xlink:href="#DejaVuSans-2e" x="63.623047"/>
       <use xlink:href="#DejaVuSans-35" x="95.410156"/>
      </g>
     </g>
    </g>
    <g id="xtick_6">
     <g id="line2d_6">
      <g>
       <use xlink:href="#mfc3f717f7a" x="263.0178" y="224.9208" style="stroke: #000000; stroke-width: 0.8"/>
      </g>
     </g>
     <g id="text_6">
      <!-- 2.0 -->
      <g transform="translate(255.066237 239.519237) scale(0.1 -0.1)">
       <defs>
        <path id="DejaVuSans-32" d="M 1228 531 
L 3431 531 
L 3431 0 
L 469 0 
L 469 531 
Q 828 903 1448 1529 
Q 2069 2156 2228 2338 
Q 2531 2678 2651 2914 
Q 2772 3150 2772 3378 
Q 2772 3750 2511 3984 
Q 2250 4219 1831 4219 
Q 1534 4219 1204 4116 
Q 875 4013 500 3803 
L 500 4441 
Q 881 4594 1212 4672 
Q 1544 4750 1819 4750 
Q 2544 4750 2975 4387 
Q 3406 4025 3406 3419 
Q 3406 3131 3298 2873 
Q 3191 2616 2906 2266 
Q 2828 2175 2409 1742 
Q 1991 1309 1228 531 
z
" transform="scale(0.015625)"/>
       </defs>
       <use xlink:href="#DejaVuSans-32"/>
       <use xlink:href="#DejaVuSans-2e" x="63.623047"/>
       <use xlink:href="#DejaVuSans-30" x="95.410156"/>
      </g>
     </g>
    </g>
    <g id="xtick_7">
     <g id="line2d_7">
      <g>
       <use xlink:href="#mfc3f717f7a" x="295.4502" y="224.9208" style="stroke: #000000; stroke-width: 0.8"/>
      </g>
     </g>
     <g id="text_7">
      <!-- 2.5 -->
      <g transform="translate(287.498637 239.519237) scale(0.1 -0.1)">
       <use xlink:href="#DejaVuSans-32"/>
       <use xlink:href="#DejaVuSans-2e" x="63.623047"/>
       <use xlink:href="#DejaVuSans-35" x="95.410156"/>
      </g>
     </g>
    </g>
    <g id="text_8">
     <!-- x(m) -->
     <g transform="translate(186.42175 253.197362) scale(0.1 -0.1)">
      <defs>
       <path id="DejaVuSans-78" d="M 3513 3500 
L 2247 1797 
L 3578 0 
L 2900 0 
L 1881 1375 
L 863 0 
L 184 0 
L 1544 1831 
L 300 3500 
L 978 3500 
L 1906 2253 
L 2834 3500 
L 3513 3500 
z
" transform="scale(0.015625)"/>
       <path id="DejaVuSans-28" d="M 1984 4856 
Q 1566 4138 1362 3434 
Q 1159 2731 1159 2009 
Q 1159 1288 1364 580 
Q 1569 -128 1984 -844 
L 1484 -844 
Q 1016 -109 783 600 
Q 550 1309 550 2009 
Q 550 2706 781 3412 
Q 1013 4119 1484 4856 
L 1984 4856 
z
" transform="scale(0.015625)"/>
       <path id="DejaVuSans-6d" d="M 3328 2828 
Q 3544 3216 3844 3400 
Q 4144 3584 4550 3584 
Q 5097 3584 5394 3201 
Q 5691 2819 5691 2113 
L 5691 0 
L 5113 0 
L 5113 2094 
Q 5113 2597 4934 2840 
Q 4756 3084 4391 3084 
Q 3944 3084 3684 2787 
Q 3425 2491 3425 1978 
L 3425 0 
L 2847 0 
L 2847 2094 
Q 2847 2600 2669 2842 
Q 2491 3084 2119 3084 
Q 1678 3084 1418 2786 
Q 1159 2488 1159 1978 
L 1159 0 
L 581 0 
L 581 3500 
L 1159 3500 
L 1159 2956 
Q 1356 3278 1631 3431 
Q 1906 3584 2284 3584 
Q 2666 3584 2933 3390 
Q 3200 3197 3328 2828 
z
" transform="scale(0.015625)"/>
       <path id="DejaVuSans-29" d="M 513 4856 
L 1013 4856 
Q 1481 4119 1714 3412 
Q 1947 2706 1947 2009 
Q 1947 1309 1714 600 
Q 1481 -109 1013 -844 
L 513 -844 
Q 928 -128 1133 580 
Q 1338 1288 1338 2009 
Q 1338 2731 1133 3434 
Q 928 4138 513 4856 
z
" transform="scale(0.015625)"/>
      </defs>
      <use xlink:href="#DejaVuSans-78"/>
      <use xlink:href="#DejaVuSans-28" x="59.179688"/>
      <use xlink:href="#DejaVuSans-6d" x="98.193359"/>
      <use xlink:href="#DejaVuSans-29" x="195.605469"/>
     </g>
    </g>
   </g>
   <g id="matplotlib.axis_2">
    <g id="ytick_1">
     <g id="line2d_8">
      <defs>
       <path id="m28fb5d2a31" d="M 0 0 
L -3.5 0 
" style="stroke: #000000; stroke-width: 0.8"/>
      </defs>
      <g>
       <use xlink:href="#m28fb5d2a31" x="100.8558" y="224.9208" style="stroke: #000000; stroke-width: 0.8"/>
      </g>
     </g>
     <g id="text_9">
      <!-- −0.5 -->
      <g transform="translate(69.572988 228.720019) scale(0.1 -0.1)">
       <use xlink:href="#DejaVuSans-2212"/>
       <use xlink:href="#DejaVuSans-30" x="83.789062"/>
       <use xlink:href="#DejaVuSans-2e" x="147.412109"/>
       <use xlink:href="#DejaVuSans-35" x="179.199219"/>
      </g>
     </g>
    </g>
    <g id="ytick_2">
     <g id="line2d_9">
      <g>
       <use xlink:href="#m28fb5d2a31" x="100.8558" y="192.4884" style="stroke: #000000; stroke-width: 0.8"/>
      </g>
     </g>
     <g id="text_10">
      <!-- 0.0 -->
      <g transform="translate(77.952675 196.287619) scale(0.1 -0.1)">
       <use xlink:href="#DejaVuSans-30"/>
       <use xlink:href="#DejaVuSans-2e" x="63.623047"/>
       <use xlink:href="#DejaVuSans-30" x="95.410156"/>
      </g>
     </g>
    </g>
    <g id="ytick_3">
     <g id="line2d_10">
      <g>
       <use xlink:href="#m28fb5d2a31" x="100.8558" y="160.056" style="stroke: #000000; stroke-width: 0.8"/>
      </g>
     </g>
     <g id="text_11">
      <!-- 0.5 -->
      <g transform="translate(77.952675 163.855219) scale(0.1 -0.1)">
       <use xlink:href="#DejaVuSans-30"/>
       <use xlink:href="#DejaVuSans-2e" x="63.623047"/>
       <use xlink:href="#DejaVuSans-35" x="95.410156"/>
      </g>
     </g>
    </g>
    <g id="ytick_4">
     <g id="line2d_11">
      <g>
       <use xlink:href="#m28fb5d2a31" x="100.8558" y="127.6236" style="stroke: #000000; stroke-width: 0.8"/>
      </g>
     </g>
     <g id="text_12">
      <!-- 1.0 -->
      <g transform="translate(77.952675 131.422819) scale(0.1 -0.1)">
       <use xlink:href="#DejaVuSans-31"/>
       <use xlink:href="#DejaVuSans-2e" x="63.623047"/>
       <use xlink:href="#DejaVuSans-30" x="95.410156"/>
      </g>
     </g>
    </g>
    <g id="ytick_5">
     <g id="line2d_12">
      <g>
       <use xlink:href="#m28fb5d2a31" x="100.8558" y="95.1912" style="stroke: #000000; stroke-width: 0.8"/>
      </g>
     </g>
     <g id="text_13">
      <!-- 1.5 -->
      <g transform="translate(77.952675 98.990419) scale(0.1 -0.1)">
       <use xlink:href="#DejaVuSans-31"/>
       <use xlink:href="#DejaVuSans-2e" x="63.623047"/>
       <use xlink:href="#DejaVuSans-35" x="95.410156"/>
      </g>
     </g>
    </g>
    <g id="ytick_6">
     <g id="line2d_13">
      <g>
       <use xlink:href="#m28fb5d2a31" x="100.8558" y="62.7588" style="stroke: #000000; stroke-width: 0.8"/>
      </g>
     </g>
     <g id="text_14">
      <!-- 2.0 -->
      <g transform="translate(77.952675 66.558019) scale(0.1 -0.1)">
       <use xlink:href="#DejaVuSans-32"/>
       <use xlink:href="#DejaVuSans-2e" x="63.623047"/>
       <use xlink:href="#DejaVuSans-30" x="95.410156"/>
      </g>
     </g>
    </g>
    <g id="ytick_7">
     <g id="line2d_14">
      <g>
       <use xlink:href="#m28fb5d2a31" x="100.8558" y="30.3264" style="stroke: #000000; stroke-width: 0.8"/>
      </g>
     </g>
     <g id="text_15">
      <!-- 2.5 -->
      <g transform="translate(77.952675 34.125619) scale(0.1 -0.1)">
       <use xlink:href="#DejaVuSans-32"/>
       <use xlink:href="#DejaVuSans-2e" x="63.623047"/>
       <use xlink:href="#DejaVuSans-35" x="95.410156"/>
      </g>
     </g>
    </g>
    <g id="text_16">
     <!-- y(m) -->
     <g transform="translate(63.4933 139.35485) rotate(-90) scale(0.1 -0.1)">
      <defs>
       <path id="DejaVuSans-79" d="M 2059 -325 
Q 1816 -950 1584 -1140 
Q 1353 -1331 966 -1331 
L 506 -1331 
L 506 -850 
L 844 -850 
Q 1081 -850 1212 -737 
Q 1344 -625 1503 -206 
L 1606 56 
L 191 3500 
L 800 3500 
L 1894 763 
L 2988 3500 
L 3597 3500 
L 2059 -325 
z
" transform="scale(0.015625)"/>
      </defs>
      <use xlink:href="#DejaVuSans-79"/>
      <use xlink:href="#DejaVuSans-28" x="59.179688"/>
      <use xlink:href="#DejaVuSans-6d" x="98.193359"/>
      <use xlink:href="#DejaVuSans-29" x="195.605469"/>
     </g>
    </g>
   </g>
   <g id="line2d_15">
    <path d="M 147.701648 127.493337 
L 160.673857 127.414943 
L 173.166151 127.487583 
L 181.344622 127.538217 
L 185.587702 127.565309 
L 188.331865 127.582967 
L 190.235054 127.59526 
L 191.633544 127.604307 
L 192.704241 127.61124 
L 193.550226 127.61672 
L 194.235474 127.621159 
L 194.801794 127.62483 
L 194.801794 127.62483 
" clip-path="url(#pb722c71c21)" style="fill: none; stroke-dasharray: 2,3.3; stroke-dashoffset: 0; stroke: #1f77b4; stroke-width: 2"/>
   </g>
   <g id="line2d_16">
    <path d="M 133.2882 127.6236 
L 133.2882 127.6236 
L 133.768676 127.621531 
L 138.573349 127.593776 
L 147.701648 127.493337 
" clip-path="url(#pb722c71c21)" style="fill: none; stroke: #1f77b4; stroke-width: 2; stroke-linecap: square"/>
   </g>
   <g id="line2d_17">
    <path d="M 199.877385 191.454013 
L 201.470023 180.710052 
L 202.428124 174.243603 
L 202.798 171.742497 
L 202.967625 170.59213 
L 203.079218 169.835549 
L 203.156515 169.311845 
L 203.213237 168.926947 
L 203.256593 168.632345 
L 203.290887 168.399571 
L 203.318679 168.211008 
L 203.341631 168.055177 
L 203.341631 168.055177 
" clip-path="url(#pb722c71c21)" style="fill: none; stroke-dasharray: 2,3.3; stroke-dashoffset: 0; stroke: #ff7f0e; stroke-width: 2"/>
   </g>
   <g id="line2d_18">
    <path d="M 198.153 205.46136 
L 198.153 205.46136 
L 198.164648 204.981025 
L 198.417246 200.200816 
L 199.877385 191.454013 
" clip-path="url(#pb722c71c21)" style="fill: none; stroke: #ff7f0e; stroke-width: 2; stroke-linecap: square"/>
   </g>
   <g id="line2d_19">
    <path d="M 133.288204 95.191197 
L 133.288206 95.19119 
L 133.288207 95.191181 
L 133.288208 95.191171 
L 133.288208 95.19116 
L 133.288208 95.19115 
L 133.288208 95.191142 
L 133.288207 95.191136 
L 133.288206 95.191132 
L 133.288206 95.19113 
L 133.288205 95.19113 
L 133.288205 95.19113 
L 133.288205 95.19113 
" clip-path="url(#pb722c71c21)" style="fill: none; stroke-dasharray: 2,3.3; stroke-dashoffset: 0; stroke: #2ca02c; stroke-width: 2"/>
   </g>
   <g id="line2d_20">
    <path d="M 133.2882 95.1912 
L 133.2882 95.1912 
L 133.2882 95.1912 
L 133.288202 95.1912 
L 133.288204 95.191197 
" clip-path="url(#pb722c71c21)" style="fill: none; stroke: #2ca02c; stroke-width: 2; stroke-linecap: square"/>
   </g>
   <g id="line2d_21">
    <path d="M 165.720581 95.191153 
L 165.72054 95.191159 
L 165.720472 95.191167 
L 165.720397 95.191177 
L 165.720344 95.191186 
L 165.720317 95.191193 
L 165.720317 95.191199 
L 165.72034 95.191202 
L 165.72038 95.191204 
L 165.720427 95.191205 
L 165.720466 95.191204 
L 165.720486 95.191204 
L 165.720486 95.191204 
" clip-path="url(#pb722c71c21)" style="fill: none; stroke-dasharray: 2,3.3; stroke-dashoffset: 0; stroke: #d62728; stroke-width: 2"/>
   </g>
   <g id="line2d_22">
    <path d="M 165.7206 95.1912 
L 165.7206 95.1912 
L 165.720601 95.191194 
L 165.720603 95.19115 
L 165.720581 95.191153 
" clip-path="url(#pb722c71c21)" style="fill: none; stroke: #d62728; stroke-width: 2; stroke-linecap: square"/>
   </g>
   <g id="line2d_23">
    <path d="M 230.585405 95.191174 
L 230.58543 95.191186 
L 230.585476 95.191204 
L 230.585528 95.191221 
L 230.585566 95.191234 
L 230.585586 95.191239 
L 230.585586 95.191229 
L 230.585568 95.191202 
L 230.585538 95.191159 
L 230.585504 95.191106 
L 230.585476 95.191055 
L 230.585462 95.191022 
L 230.585462 95.191022 
" clip-path="url(#pb722c71c21)" style="fill: none; stroke-dasharray: 2,3.3; stroke-dashoffset: 0; stroke: #9467bd; stroke-width: 2"/>
   </g>
   <g id="line2d_24">
    <path d="M 230.5854 95.1912 
L 230.5854 95.1912 
L 230.5854 95.191198 
L 230.585399 95.191183 
L 230.585405 95.191174 
" clip-path="url(#pb722c71c21)" style="fill: none; stroke: #9467bd; stroke-width: 2; stroke-linecap: square"/>
   </g>
   <g id="line2d_25">
    <path d="M 263.017812 95.191199 
L 263.017815 95.191193 
L 263.017817 95.191185 
L 263.017818 95.191175 
L 263.017818 95.191165 
L 263.017818 95.191155 
L 263.017818 95.191146 
L 263.017817 95.191139 
L 263.017816 95.191134 
L 263.017815 95.191131 
L 263.017814 95.19113 
L 263.017814 95.19113 
L 263.017814 95.19113 
" clip-path="url(#pb722c71c21)" style="fill: none; stroke-dasharray: 2,3.3; stroke-dashoffset: 0; stroke: #8c564b; stroke-width: 2"/>
   </g>
   <g id="line2d_26">
    <path d="M 263.0178 95.1912 
L 263.0178 95.1912 
L 263.017801 95.1912 
L 263.017807 95.191203 
L 263.017812 95.191199 
" clip-path="url(#pb722c71c21)" style="fill: none; stroke: #8c564b; stroke-width: 2; stroke-linecap: square"/>
   </g>
   <g id="line2d_27">
    <path d="M 133.288205 160.056004 
L 133.288208 160.056011 
L 133.28821 160.056022 
L 133.288212 160.056037 
L 133.288213 160.056053 
L 133.288213 160.05607 
L 133.288213 160.056085 
L 133.288212 160.056098 
L 133.288211 160.056107 
L 133.28821 160.056112 
L 133.288209 160.056114 
L 133.288209 160.056115 
L 133.288209 160.056115 
" clip-path="url(#pb722c71c21)" style="fill: none; stroke-dasharray: 2,3.3; stroke-dashoffset: 0; stroke: #e377c2; stroke-width: 2"/>
   </g>
   <g id="line2d_28">
    <path d="M 133.2882 160.056 
L 133.2882 160.056 
L 133.2882 160.056 
L 133.288203 160.056 
L 133.288205 160.056004 
" clip-path="url(#pb722c71c21)" style="fill: none; stroke: #e377c2; stroke-width: 2; stroke-linecap: square"/>
   </g>
   <g id="line2d_29">
    <path d="M 165.720579 160.055908 
L 165.720536 160.055861 
L 165.720453 160.055824 
L 165.720355 160.055806 
L 165.720281 160.055816 
L 165.720242 160.055845 
L 165.720241 160.05588 
L 165.720276 160.055913 
L 165.720334 160.055942 
L 165.720402 160.055968 
L 165.720457 160.055986 
L 165.720485 160.055994 
L 165.720485 160.055994 
" clip-path="url(#pb722c71c21)" style="fill: none; stroke-dasharray: 2,3.3; stroke-dashoffset: 0; stroke: #7f7f7f; stroke-width: 2"/>
   </g>
   <g id="line2d_30">
    <path d="M 165.7206 160.056 
L 165.7206 160.056 
L 165.7206 160.055997 
L 165.720599 160.05597 
L 165.720579 160.055908 
" clip-path="url(#pb722c71c21)" style="fill: none; stroke: #7f7f7f; stroke-width: 2; stroke-linecap: square"/>
   </g>
   <g id="line2d_31">
    <path d="M 230.585426 160.055987 
L 230.585441 160.055963 
L 230.58545 160.055941 
L 230.585453 160.055923 
L 230.58545 160.055914 
L 230.585443 160.055914 
L 230.585433 160.055921 
L 230.585422 160.055931 
L 230.58541 160.055944 
L 230.5854 160.055957 
L 230.585394 160.055967 
L 230.585391 160.055972 
L 230.585391 160.055972 
" clip-path="url(#pb722c71c21)" style="fill: none; stroke-dasharray: 2,3.3; stroke-dashoffset: 0; stroke: #bcbd22; stroke-width: 2"/>
   </g>
   <g id="line2d_32">
    <path d="M 230.5854 160.056 
L 230.5854 160.056 
L 230.5854 160.056002 
L 230.585404 160.056019 
L 230.585426 160.055987 
" clip-path="url(#pb722c71c21)" style="fill: none; stroke: #bcbd22; stroke-width: 2; stroke-linecap: square"/>
   </g>
   <g id="line2d_33">
    <path d="M 263.0178 160.056006 
L 263.017801 160.056017 
L 263.017801 160.056031 
L 263.017801 160.056044 
L 263.017801 160.056056 
L 263.0178 160.056067 
L 263.017799 160.056074 
L 263.017798 160.05608 
L 263.017798 160.056082 
L 263.017797 160.056081 
L 263.017797 160.05608 
L 263.017796 160.056079 
L 263.017796 160.056079 
" clip-path="url(#pb722c71c21)" style="fill: none; stroke-dasharray: 2,3.3; stroke-dashoffset: 0; stroke: #17becf; stroke-width: 2"/>
   </g>
   <g id="line2d_34">
    <path d="M 263.0178 160.056 
L 263.0178 160.056 
L 263.0178 160.056 
L 263.0178 160.056 
L 263.0178 160.056006 
" clip-path="url(#pb722c71c21)" style="fill: none; stroke: #17becf; stroke-width: 2; stroke-linecap: square"/>
   </g>
   <g id="line2d_35">
    <path d="M 230.585395 62.75877 
L 230.585392 62.758761 
L 230.585389 62.758754 
L 230.585387 62.758748 
L 230.585385 62.758747 
L 230.585385 62.758749 
L 230.585385 62.758754 
L 230.585385 62.758761 
L 230.585386 62.758768 
L 230.585387 62.758775 
L 230.585388 62.758781 
L 230.585389 62.758784 
L 230.585389 62.758784 
" clip-path="url(#pb722c71c21)" style="fill: none; stroke-dasharray: 2,3.3; stroke-dashoffset: 0; stroke: #2f4f4f; stroke-width: 2"/>
   </g>
   <g id="line2d_36">
    <path d="M 230.5854 62.7588 
L 230.5854 62.7588 
L 230.5854 62.758798 
L 230.585398 62.758783 
L 230.585395 62.75877 
" clip-path="url(#pb722c71c21)" style="fill: none; stroke: #2f4f4f; stroke-width: 2; stroke-linecap: square"/>
   </g>
   <g id="line2d_37">
    <path d="M 230.585347 30.326501 
L 230.585328 30.32653 
L 230.585311 30.326548 
L 230.585297 30.326557 
L 230.585289 30.326555 
L 230.585287 30.326543 
L 230.585293 30.326522 
L 230.585304 30.326494 
L 230.585318 30.326463 
L 230.585334 30.326433 
L 230.585346 30.326411 
L 230.585352 30.326401 
L 230.585352 30.326401 
" clip-path="url(#pb722c71c21)" style="fill: none; stroke-dasharray: 2,3.3; stroke-dashoffset: 0; stroke: #cd5c5c; stroke-width: 2"/>
   </g>
   <g id="line2d_38">
    <path d="M 230.5854 30.3264 
L 230.5854 30.3264 
L 230.585397 30.326406 
L 230.585368 30.32646 
L 230.585347 30.326501 
" clip-path="url(#pb722c71c21)" style="fill: none; stroke: #cd5c5c; stroke-width: 2; stroke-linecap: square"/>
   </g>
   <g id="line2d_39">
    <path clip-path="url(#pb722c71c21)" style="fill: none; stroke-dasharray: 2,3.3; stroke-dashoffset: 0; stroke: #add8e6; stroke-width: 2"/>
   </g>
   <g id="line2d_40">
    <path clip-path="url(#pb722c71c21)" style="fill: none; stroke: #add8e6; stroke-width: 2; stroke-linecap: square"/>
   </g>
   <g id="line2d_41">
    <path d="M 230.585406 192.488411 
L 230.585408 192.488417 
L 230.58541 192.488429 
L 230.585411 192.488444 
L 230.585411 192.488456 
L 230.585411 192.488466 
L 230.585411 192.488472 
L 230.58541 192.488477 
L 230.585409 192.488479 
L 230.585409 192.48848 
L 230.585409 192.488481 
L 230.58541 192.488482 
L 230.58541 192.488482 
" clip-path="url(#pb722c71c21)" style="fill: none; stroke-dasharray: 2,3.3; stroke-dashoffset: 0; stroke: #663399; stroke-width: 2"/>
   </g>
   <g id="line2d_42">
    <path d="M 230.5854 192.4884 
L 230.5854 192.4884 
L 230.5854 192.488401 
L 230.585403 192.488407 
L 230.585406 192.488411 
" clip-path="url(#pb722c71c21)" style="fill: none; stroke: #663399; stroke-width: 2; stroke-linecap: square"/>
   </g>
   <g id="line2d_43">
    <path d="M 230.585374 224.920843 
L 230.585366 224.920859 
L 230.585362 224.920876 
L 230.58536 224.920894 
L 230.585361 224.920906 
L 230.585364 224.920914 
L 230.585369 224.920916 
L 230.585375 224.920912 
L 230.585381 224.9209 
L 230.585385 224.920884 
L 230.585387 224.920869 
L 230.585388 224.920862 
L 230.585388 224.920862 
" clip-path="url(#pb722c71c21)" style="fill: none; stroke-dasharray: 2,3.3; stroke-dashoffset: 0; stroke: #8fbc8f; stroke-width: 2"/>
   </g>
   <g id="line2d_44">
    <path d="M 230.5854 224.9208 
L 230.5854 224.9208 
L 230.585398 224.920803 
L 230.585385 224.920825 
L 230.585374 224.920843 
" clip-path="url(#pb722c71c21)" style="fill: none; stroke: #8fbc8f; stroke-width: 2; stroke-linecap: square"/>
   </g>
   <g id="line2d_45">
    <path clip-path="url(#pb722c71c21)" style="fill: none; stroke-dasharray: 2,3.3; stroke-dashoffset: 0; stroke: #00ced1; stroke-width: 2"/>
   </g>
   <g id="line2d_46">
    <path clip-path="url(#pb722c71c21)" style="fill: none; stroke: #00ced1; stroke-width: 2; stroke-linecap: square"/>
   </g>
   <g id="line2d_47">
    <path d="M 165.720603 62.758741 
L 165.720607 62.75872 
L 165.720612 62.758702 
L 165.720619 62.758689 
L 165.720624 62.758684 
L 165.720627 62.758688 
L 165.720629 62.7587 
L 165.72063 62.758716 
L 165.720629 62.758735 
L 165.720628 62.758752 
L 165.720627 62.758765 
L 165.720626 62.758771 
L 165.720626 62.758771 
" clip-path="url(#pb722c71c21)" style="fill: none; stroke-dasharray: 2,3.3; stroke-dashoffset: 0; stroke: #6a5acd; stroke-width: 2"/>
   </g>
   <g id="line2d_48">
    <path d="M 165.7206 62.7588 
L 165.7206 62.7588 
L 165.7206 62.758797 
L 165.720599 62.758767 
L 165.720603 62.758741 
" clip-path="url(#pb722c71c21)" style="fill: none; stroke: #6a5acd; stroke-width: 2; stroke-linecap: square"/>
   </g>
   <g id="line2d_49">
    <path d="M 165.720607 30.326333 
L 165.720608 30.326303 
L 165.720608 30.326282 
L 165.720607 30.32627 
L 165.720604 30.326267 
L 165.720602 30.326272 
L 165.7206 30.326284 
L 165.720598 30.326301 
L 165.720596 30.32632 
L 165.720596 30.326339 
L 165.720596 30.326354 
L 165.720596 30.326362 
L 165.720596 30.326362 
" clip-path="url(#pb722c71c21)" style="fill: none; stroke-dasharray: 2,3.3; stroke-dashoffset: 0; stroke: #808000; stroke-width: 2"/>
   </g>
   <g id="line2d_50">
    <path d="M 165.7206 30.3264 
L 165.7206 30.3264 
L 165.7206 30.326398 
L 165.720603 30.326374 
L 165.720607 30.326333 
" clip-path="url(#pb722c71c21)" style="fill: none; stroke: #808000; stroke-width: 2; stroke-linecap: square"/>
   </g>
   <g id="line2d_51">
    <path clip-path="url(#pb722c71c21)" style="fill: none; stroke-dasharray: 2,3.3; stroke-dashoffset: 0; stroke: #a0522d; stroke-width: 2"/>
   </g>
   <g id="line2d_52">
    <path clip-path="url(#pb722c71c21)" style="fill: none; stroke: #a0522d; stroke-width: 2; stroke-linecap: square"/>
   </g>
   <g id="line2d_53">
    <path d="M 165.720617 192.488491 
L 165.720585 192.488534 
L 165.720508 192.488546 
L 165.720405 192.488508 
L 165.720314 192.488437 
L 165.720248 192.488367 
L 165.720214 192.488323 
L 165.720214 192.488306 
L 165.720242 192.488303 
L 165.720288 192.488308 
L 165.720333 192.488316 
L 165.720356 192.488321 
L 165.720356 192.488321 
" clip-path="url(#pb722c71c21)" style="fill: none; stroke-dasharray: 2,3.3; stroke-dashoffset: 0; stroke: #ff4500; stroke-width: 2"/>
   </g>
   <g id="line2d_54">
    <path d="M 165.7206 192.4884 
L 165.7206 192.4884 
L 165.720601 192.488405 
L 165.720611 192.488452 
L 165.720617 192.488491 
" clip-path="url(#pb722c71c21)" style="fill: none; stroke: #ff4500; stroke-width: 2; stroke-linecap: square"/>
   </g>
   <g id="line2d_55">
    <path d="M 165.720636 224.920783 
L 165.720647 224.920788 
L 165.720652 224.920808 
L 165.720654 224.920837 
L 165.720652 224.920868 
L 165.720647 224.920897 
L 165.720639 224.920922 
L 165.720629 224.920939 
L 165.720619 224.920947 
L 165.720611 224.920948 
L 165.720605 224.920944 
L 165.720602 224.920941 
L 165.720602 224.920941 
" clip-path="url(#pb722c71c21)" style="fill: none; stroke-dasharray: 2,3.3; stroke-dashoffset: 0; stroke: #708090; stroke-width: 2"/>
   </g>
   <g id="line2d_56">
    <path d="M 165.7206 224.9208 
L 165.7206 224.9208 
L 165.720602 224.920799 
L 165.720621 224.92079 
L 165.720636 224.920783 
" clip-path="url(#pb722c71c21)" style="fill: none; stroke: #708090; stroke-width: 2; stroke-linecap: square"/>
   </g>
   <g id="line2d_57">
    <path clip-path="url(#pb722c71c21)" style="fill: none; stroke-dasharray: 2,3.3; stroke-dashoffset: 0; stroke: #bdb76b; stroke-width: 2"/>
   </g>
   <g id="line2d_58">
    <path clip-path="url(#pb722c71c21)" style="fill: none; stroke: #bdb76b; stroke-width: 2; stroke-linecap: square"/>
   </g>
   <g id="patch_3">
    <path d="M 100.8558 224.9208 
L 100.8558 30.3264 
" style="fill: none; stroke: #000000; stroke-width: 0.8; stroke-linejoin: miter; stroke-linecap: square"/>
   </g>
   <g id="patch_4">
    <path d="M 295.4502 224.9208 
L 295.4502 30.3264 
" style="fill: none; stroke: #000000; stroke-width: 0.8; stroke-linejoin: miter; stroke-linecap: square"/>
   </g>
   <g id="patch_5">
    <path d="M 100.8558 224.9208 
L 295.4502 224.9208 
" style="fill: none; stroke: #000000; stroke-width: 0.8; stroke-linejoin: miter; stroke-linecap: square"/>
   </g>
   <g id="patch_6">
    <path d="M 100.8558 30.3264 
L 295.4502 30.3264 
" style="fill: none; stroke: #000000; stroke-width: 0.8; stroke-linejoin: miter; stroke-linecap: square"/>
   </g>
   <g id="patch_7">
    <path d="M 147.701648 137.223057 
C 150.282 137.223057 152.757015 136.197873 154.581599 134.373288 
C 156.406183 132.548704 157.431368 130.073689 157.431368 127.493337 
C 157.431368 124.912985 156.406183 122.437971 154.581599 120.613386 
C 152.757015 118.788802 150.282 117.763617 147.701648 117.763617 
C 145.121296 117.763617 142.646281 118.788802 140.821697 120.613386 
C 138.997113 122.437971 137.971928 124.912985 137.971928 127.493337 
C 137.971928 130.073689 138.997113 132.548704 140.821697 134.373288 
C 142.646281 136.197873 145.121296 137.223057 147.701648 137.223057 
z
" clip-path="url(#pb722c71c21)" style="fill: #1f77b4; stroke: #000000; stroke-linejoin: miter"/>
   </g>
   <g id="patch_8">
    <path d="M 199.877385 201.183733 
C 202.457737 201.183733 204.932752 200.158549 206.757336 198.333964 
C 208.58192 196.50938 209.607105 194.034365 209.607105 191.454013 
C 209.607105 188.873661 208.58192 186.398647 206.757336 184.574062 
C 204.932752 182.749478 202.457737 181.724293 199.877385 181.724293 
C 197.297033 181.724293 194.822018 182.749478 192.997434 184.574062 
C 191.17285 186.398647 190.147665 188.873661 190.147665 191.454013 
C 190.147665 194.034365 191.17285 196.50938 192.997434 198.333964 
C 194.822018 200.158549 197.297033 201.183733 199.877385 201.183733 
z
" clip-path="url(#pb722c71c21)" style="fill: #ff7f0e; stroke: #000000; stroke-linejoin: miter"/>
   </g>
   <g id="patch_9">
    <path d="M 133.288204 104.920917 
C 135.868556 104.920917 138.343571 103.895732 140.168155 102.071148 
C 141.992739 100.246564 143.017924 97.771549 143.017924 95.191197 
C 143.017924 92.610845 141.992739 90.13583 140.168155 88.311246 
C 138.343571 86.486662 135.868556 85.461477 133.288204 85.461477 
C 130.707852 85.461477 128.232837 86.486662 126.408253 88.311246 
C 124.583669 90.13583 123.558484 92.610845 123.558484 95.191197 
C 123.558484 97.771549 124.583669 100.246564 126.408253 102.071148 
C 128.232837 103.895732 130.707852 104.920917 133.288204 104.920917 
z
" clip-path="url(#pb722c71c21)" style="fill: #2ca02c; stroke: #000000; stroke-linejoin: miter"/>
   </g>
   <g id="patch_10">
    <path d="M 165.720581 104.920873 
C 168.300933 104.920873 170.775947 103.895688 172.600532 102.071104 
C 174.425116 100.246519 175.450301 97.771505 175.450301 95.191153 
C 175.450301 92.610801 174.425116 90.135786 172.600532 88.311202 
C 170.775947 86.486617 168.300933 85.461433 165.720581 85.461433 
C 163.140229 85.461433 160.665214 86.486617 158.84063 88.311202 
C 157.016045 90.135786 155.990861 92.610801 155.990861 95.191153 
C 155.990861 97.771505 157.016045 100.246519 158.84063 102.071104 
C 160.665214 103.895688 163.140229 104.920873 165.720581 104.920873 
z
" clip-path="url(#pb722c71c21)" style="fill: #d62728; stroke: #000000; stroke-linejoin: miter"/>
   </g>
   <g id="patch_11">
    <path d="M 230.585405 104.920894 
C 233.165757 104.920894 235.640771 103.89571 237.465356 102.071125 
C 239.28994 100.246541 240.315125 97.771526 240.315125 95.191174 
C 240.315125 92.610822 239.28994 90.135808 237.465356 88.311223 
C 235.640771 86.486639 233.165757 85.461454 230.585405 85.461454 
C 228.005053 85.461454 225.530038 86.486639 223.705454 88.311223 
C 221.880869 90.135808 220.855685 92.610822 220.855685 95.191174 
C 220.855685 97.771526 221.880869 100.246541 223.705454 102.071125 
C 225.530038 103.89571 228.005053 104.920894 230.585405 104.920894 
z
" clip-path="url(#pb722c71c21)" style="fill: #9467bd; stroke: #000000; stroke-linejoin: miter"/>
   </g>
   <g id="patch_12">
    <path d="M 263.017812 104.920919 
C 265.598163 104.920919 268.073178 103.895735 269.897763 102.07115 
C 271.722347 100.246566 272.747532 97.771551 272.747532 95.191199 
C 272.747532 92.610848 271.722347 90.135833 269.897763 88.311248 
C 268.073178 86.486664 265.598163 85.461479 263.017812 85.461479 
C 260.43746 85.461479 257.962445 86.486664 256.137861 88.311248 
C 254.313276 90.135833 253.288092 92.610848 253.288092 95.191199 
C 253.288092 97.771551 254.313276 100.246566 256.137861 102.07115 
C 257.962445 103.895735 260.43746 104.920919 263.017812 104.920919 
z
" clip-path="url(#pb722c71c21)" style="fill: #8c564b; stroke: #000000; stroke-linejoin: miter"/>
   </g>
   <g id="patch_13">
    <path d="M 133.288205 169.785724 
C 135.868557 169.785724 138.343572 168.760539 140.168156 166.935955 
C 141.99274 165.111371 143.017925 162.636356 143.017925 160.056004 
C 143.017925 157.475652 141.99274 155.000637 140.168156 153.176053 
C 138.343572 151.351469 135.868557 150.326284 133.288205 150.326284 
C 130.707853 150.326284 128.232838 151.351469 126.408254 153.176053 
C 124.58367 155.000637 123.558485 157.475652 123.558485 160.056004 
C 123.558485 162.636356 124.58367 165.111371 126.408254 166.935955 
C 128.232838 168.760539 130.707853 169.785724 133.288205 169.785724 
z
" clip-path="url(#pb722c71c21)" style="fill: #e377c2; stroke: #000000; stroke-linejoin: miter"/>
   </g>
   <g id="patch_14">
    <path d="M 165.720579 169.785628 
C 168.300931 169.785628 170.775946 168.760443 172.60053 166.935859 
C 174.425115 165.111275 175.450299 162.63626 175.450299 160.055908 
C 175.450299 157.475556 174.425115 155.000541 172.60053 153.175957 
C 170.775946 151.351373 168.300931 150.326188 165.720579 150.326188 
C 163.140228 150.326188 160.665213 151.351373 158.840629 153.175957 
C 157.016044 155.000541 155.990859 157.475556 155.990859 160.055908 
C 155.990859 162.63626 157.016044 165.111275 158.840629 166.935859 
C 160.665213 168.760443 163.140228 169.785628 165.720579 169.785628 
z
" clip-path="url(#pb722c71c21)" style="fill: #7f7f7f; stroke: #000000; stroke-linejoin: miter"/>
   </g>
   <g id="patch_15">
    <path d="M 230.585426 169.785707 
C 233.165778 169.785707 235.640793 168.760523 237.465377 166.935938 
C 239.289961 165.111354 240.315146 162.636339 240.315146 160.055987 
C 240.315146 157.475636 239.289961 155.000621 237.465377 153.176036 
C 235.640793 151.351452 233.165778 150.326267 230.585426 150.326267 
C 228.005074 150.326267 225.530059 151.351452 223.705475 153.176036 
C 221.880891 155.000621 220.855706 157.475636 220.855706 160.055987 
C 220.855706 162.636339 221.880891 165.111354 223.705475 166.935938 
C 225.530059 168.760523 228.005074 169.785707 230.585426 169.785707 
z
" clip-path="url(#pb722c71c21)" style="fill: #bcbd22; stroke: #000000; stroke-linejoin: miter"/>
   </g>
   <g id="patch_16">
    <path d="M 263.0178 169.785726 
C 265.598152 169.785726 268.073167 168.760542 269.897751 166.935957 
C 271.722336 165.111373 272.74752 162.636358 272.74752 160.056006 
C 272.74752 157.475654 271.722336 155.00064 269.897751 153.176055 
C 268.073167 151.351471 265.598152 150.326286 263.0178 150.326286 
C 260.437448 150.326286 257.962434 151.351471 256.137849 153.176055 
C 254.313265 155.00064 253.28808 157.475654 253.28808 160.056006 
C 253.28808 162.636358 254.313265 165.111373 256.137849 166.935957 
C 257.962434 168.760542 260.437448 169.785726 263.0178 169.785726 
z
" clip-path="url(#pb722c71c21)" style="fill: #17becf; stroke: #000000; stroke-linejoin: miter"/>
   </g>
   <g id="patch_17">
    <path d="M 230.585395 72.48849 
C 233.165747 72.48849 235.640762 71.463305 237.465346 69.638721 
C 239.28993 67.814137 240.315115 65.339122 240.315115 62.75877 
C 240.315115 60.178418 239.28993 57.703403 237.465346 55.878819 
C 235.640762 54.054235 233.165747 53.02905 230.585395 53.02905 
C 228.005043 53.02905 225.530028 54.054235 223.705444 55.878819 
C 221.88086 57.703403 220.855675 60.178418 220.855675 62.75877 
C 220.855675 65.339122 221.88086 67.814137 223.705444 69.638721 
C 225.530028 71.463305 228.005043 72.48849 230.585395 72.48849 
z
" clip-path="url(#pb722c71c21)" style="fill: #2f4f4f; stroke: #000000; stroke-linejoin: miter"/>
   </g>
   <g id="patch_18">
    <path d="M 230.585347 40.056221 
C 233.165699 40.056221 235.640713 39.031036 237.465298 37.206452 
C 239.289882 35.381868 240.315067 32.906853 240.315067 30.326501 
C 240.315067 27.746149 239.289882 25.271134 237.465298 23.44655 
C 235.640713 21.621966 233.165699 20.596781 230.585347 20.596781 
C 228.004995 20.596781 225.52998 21.621966 223.705396 23.44655 
C 221.880811 25.271134 220.855627 27.746149 220.855627 30.326501 
C 220.855627 32.906853 221.880811 35.381868 223.705396 37.206452 
C 225.52998 39.031036 228.004995 40.056221 230.585347 40.056221 
z
" clip-path="url(#pb722c71c21)" style="fill: #cd5c5c; stroke: #000000; stroke-linejoin: miter"/>
   </g>
   <g id="patch_19">
    <path d="M 230.585406 7.62372 
C 233.165758 7.62372 235.640772 6.598535 237.465357 4.773951 
C 239.289941 2.949366 240.315126 0.474351 240.315126 -2.106 
C 240.315126 -4.686352 239.289941 -7.161367 237.465357 -8.985951 
C 235.640772 -10.810536 233.165758 -11.83572 230.585406 -11.83572 
C 228.005054 -11.83572 225.530039 -10.810536 223.705455 -8.985951 
C 221.88087 -7.161367 220.855686 -4.686352 220.855686 -2.106 
C 220.855686 0.474351 221.88087 2.949366 223.705455 4.773951 
C 225.530039 6.598535 228.005054 7.62372 230.585406 7.62372 
z
" clip-path="url(#pb722c71c21)" style="fill: #add8e6; stroke: #000000; stroke-linejoin: miter"/>
   </g>
   <g id="patch_20">
    <path d="M 230.585406 202.218131 
C 233.165758 202.218131 235.640773 201.192947 237.465357 199.368362 
C 239.289941 197.543778 240.315126 195.068763 240.315126 192.488411 
C 240.315126 189.908059 239.289941 187.433045 237.465357 185.60846 
C 235.640773 183.783876 233.165758 182.758691 230.585406 182.758691 
C 228.005054 182.758691 225.530039 183.783876 223.705455 185.60846 
C 221.880871 187.433045 220.855686 189.908059 220.855686 192.488411 
C 220.855686 195.068763 221.880871 197.543778 223.705455 199.368362 
C 225.530039 201.192947 228.005054 202.218131 230.585406 202.218131 
z
" clip-path="url(#pb722c71c21)" style="fill: #663399; stroke: #000000; stroke-linejoin: miter"/>
   </g>
   <g id="patch_21">
    <path d="M 230.585374 234.650563 
C 233.165726 234.650563 235.64074 233.625378 237.465325 231.800794 
C 239.289909 229.976209 240.315094 227.501195 240.315094 224.920843 
C 240.315094 222.340491 239.289909 219.865476 237.465325 218.040892 
C 235.64074 216.216307 233.165726 215.191123 230.585374 215.191123 
C 228.005022 215.191123 225.530007 216.216307 223.705423 218.040892 
C 221.880838 219.865476 220.855654 222.340491 220.855654 224.920843 
C 220.855654 227.501195 221.880838 229.976209 223.705423 231.800794 
C 225.530007 233.625378 228.005022 234.650563 230.585374 234.650563 
z
" clip-path="url(#pb722c71c21)" style="fill: #8fbc8f; stroke: #000000; stroke-linejoin: miter"/>
   </g>
   <g id="patch_22">
    <path d="M 230.585415 267.082909 
C 233.165767 267.082909 235.640782 266.057725 237.465366 264.23314 
C 239.28995 262.408556 240.315135 259.933541 240.315135 257.353189 
C 240.315135 254.772837 239.28995 252.297823 237.465366 250.473238 
C 235.640782 248.648654 233.165767 247.623469 230.585415 247.623469 
C 228.005063 247.623469 225.530048 248.648654 223.705464 250.473238 
C 221.88088 252.297823 220.855695 254.772837 220.855695 257.353189 
C 220.855695 259.933541 221.88088 262.408556 223.705464 264.23314 
C 225.530048 266.057725 228.005063 267.082909 230.585415 267.082909 
z
" clip-path="url(#pb722c71c21)" style="fill: #00ced1; stroke: #000000; stroke-linejoin: miter"/>
   </g>
   <g id="patch_23">
    <path d="M 165.720603 72.488461 
C 168.300955 72.488461 170.775969 71.463276 172.600554 69.638692 
C 174.425138 67.814107 175.450323 65.339093 175.450323 62.758741 
C 175.450323 60.178389 174.425138 57.703374 172.600554 55.87879 
C 170.775969 54.054206 168.300955 53.029021 165.720603 53.029021 
C 163.140251 53.029021 160.665236 54.054206 158.840652 55.87879 
C 157.016067 57.703374 155.990883 60.178389 155.990883 62.758741 
C 155.990883 65.339093 157.016067 67.814107 158.840652 69.638692 
C 160.665236 71.463276 163.140251 72.488461 165.720603 72.488461 
z
" clip-path="url(#pb722c71c21)" style="fill: #6a5acd; stroke: #000000; stroke-linejoin: miter"/>
   </g>
   <g id="patch_24">
    <path d="M 165.720607 40.056053 
C 168.300959 40.056053 170.775973 39.030868 172.600558 37.206284 
C 174.425142 35.381699 175.450327 32.906684 175.450327 30.326333 
C 175.450327 27.745981 174.425142 25.270966 172.600558 23.446382 
C 170.775973 21.621797 168.300959 20.596613 165.720607 20.596613 
C 163.140255 20.596613 160.66524 21.621797 158.840656 23.446382 
C 157.016071 25.270966 155.990887 27.745981 155.990887 30.326333 
C 155.990887 32.906684 157.016071 35.381699 158.840656 37.206284 
C 160.66524 39.030868 163.140255 40.056053 165.720607 40.056053 
z
" clip-path="url(#pb722c71c21)" style="fill: #808000; stroke: #000000; stroke-linejoin: miter"/>
   </g>
   <g id="patch_25">
    <path d="M 165.720588 7.623724 
C 168.30094 7.623724 170.775955 6.59854 172.600539 4.773955 
C 174.425124 2.949371 175.450308 0.474356 175.450308 -2.105996 
C 175.450308 -4.686347 174.425124 -7.161362 172.600539 -8.985947 
C 170.775955 -10.810531 168.30094 -11.835716 165.720588 -11.835716 
C 163.140236 -11.835716 160.665222 -10.810531 158.840637 -8.985947 
C 157.016053 -7.161362 155.990868 -4.686347 155.990868 -2.105996 
C 155.990868 0.474356 157.016053 2.949371 158.840637 4.773955 
C 160.665222 6.59854 163.140236 7.623724 165.720588 7.623724 
z
" clip-path="url(#pb722c71c21)" style="fill: #a0522d; stroke: #000000; stroke-linejoin: miter"/>
   </g>
   <g id="patch_26">
    <path d="M 165.720617 202.218211 
C 168.300968 202.218211 170.775983 201.193026 172.600568 199.368442 
C 174.425152 197.543858 175.450337 195.068843 175.450337 192.488491 
C 175.450337 189.908139 174.425152 187.433124 172.600568 185.60854 
C 170.775983 183.783956 168.300968 182.758771 165.720617 182.758771 
C 163.140265 182.758771 160.66525 183.783956 158.840666 185.60854 
C 157.016081 187.433124 155.990897 189.908139 155.990897 192.488491 
C 155.990897 195.068843 157.016081 197.543858 158.840666 199.368442 
C 160.66525 201.193026 163.140265 202.218211 165.720617 202.218211 
z
" clip-path="url(#pb722c71c21)" style="fill: #ff4500; stroke: #000000; stroke-linejoin: miter"/>
   </g>
   <g id="patch_27">
    <path d="M 165.720636 234.650503 
C 168.300988 234.650503 170.776003 233.625318 172.600587 231.800734 
C 174.425172 229.976149 175.450356 227.501135 175.450356 224.920783 
C 175.450356 222.340431 174.425172 219.865416 172.600587 218.040832 
C 170.776003 216.216247 168.300988 215.191063 165.720636 215.191063 
C 163.140284 215.191063 160.66527 216.216247 158.840685 218.040832 
C 157.016101 219.865416 155.990916 222.340431 155.990916 224.920783 
C 155.990916 227.501135 157.016101 229.976149 158.840685 231.800734 
C 160.66527 233.625318 163.140284 234.650503 165.720636 234.650503 
z
" clip-path="url(#pb722c71c21)" style="fill: #708090; stroke: #000000; stroke-linejoin: miter"/>
   </g>
   <g id="patch_28">
    <path d="M 165.720579 267.082913 
C 168.300931 267.082913 170.775946 266.057729 172.60053 264.233144 
C 174.425114 262.40856 175.450299 259.933545 175.450299 257.353193 
C 175.450299 254.772841 174.425114 252.297827 172.60053 250.473242 
C 170.775946 248.648658 168.300931 247.623473 165.720579 247.623473 
C 163.140227 247.623473 160.665212 248.648658 158.840628 250.473242 
C 157.016044 252.297827 155.990859 254.772841 155.990859 257.353193 
C 155.990859 259.933545 157.016044 262.40856 158.840628 264.233144 
C 160.665212 266.057729 163.140227 267.082913 165.720579 267.082913 
z
" clip-path="url(#pb722c71c21)" style="fill: #bdb76b; stroke: #000000; stroke-linejoin: miter"/>
   </g>
   <g id="line2d_59">
    <path d="M 263.0178 127.6236 
" clip-path="url(#pb722c71c21)" style="fill: none; stroke: #1f77b4; stroke-width: 1.5; stroke-linecap: square"/>
    <defs>
     <path id="m8da08c711b" d="M 0 4.949747 
L 2.969848 0 
L 0 -4.949747 
L -2.969848 0 
z
" style="stroke: #000000; stroke-linejoin: miter"/>
    </defs>
    <g clip-path="url(#pb722c71c21)">
     <use xlink:href="#m8da08c711b" x="263.0178" y="127.6236" style="fill: #1f77b4; stroke: #000000; stroke-linejoin: miter"/>
    </g>
   </g>
   <g id="line2d_60">
    <path d="M 263.0178 127.6236 
" clip-path="url(#pb722c71c21)" style="fill: none; stroke: #ff7f0e; stroke-width: 1.5; stroke-linecap: square"/>
    <defs>
     <path id="m23c03ad6f3" d="M 0 4.949747 
L 2.969848 0 
L 0 -4.949747 
L -2.969848 0 
z
" style="stroke: #000000; stroke-linejoin: miter"/>
    </defs>
    <g clip-path="url(#pb722c71c21)">
     <use xlink:href="#m23c03ad6f3" x="263.0178" y="127.6236" style="fill: #ff7f0e; stroke: #000000; stroke-linejoin: miter"/>
    </g>
   </g>
   <g id="line2d_61">
    <path d="M 133.2882 95.1912 
" clip-path="url(#pb722c71c21)" style="fill: none; stroke: #2ca02c; stroke-width: 1.5; stroke-linecap: square"/>
    <defs>
     <path id="m7595d2ca37" d="M 0 4.949747 
L 2.969848 0 
L 0 -4.949747 
L -2.969848 0 
z
" style="stroke: #000000; stroke-linejoin: miter"/>
    </defs>
    <g clip-path="url(#pb722c71c21)">
     <use xlink:href="#m7595d2ca37" x="133.2882" y="95.1912" style="fill: #2ca02c; stroke: #000000; stroke-linejoin: miter"/>
    </g>
   </g>
   <g id="line2d_62">
    <path d="M 165.7206 95.1912 
" clip-path="url(#pb722c71c21)" style="fill: none; stroke: #d62728; stroke-width: 1.5; stroke-linecap: square"/>
    <defs>
     <path id="m67281fa56a" d="M 0 4.949747 
L 2.969848 0 
L 0 -4.949747 
L -2.969848 0 
z
" style="stroke: #000000; stroke-linejoin: miter"/>
    </defs>
    <g clip-path="url(#pb722c71c21)">
     <use xlink:href="#m67281fa56a" x="165.7206" y="95.1912" style="fill: #d62728; stroke: #000000; stroke-linejoin: miter"/>
    </g>
   </g>
   <g id="line2d_63">
    <path d="M 230.5854 95.1912 
" clip-path="url(#pb722c71c21)" style="fill: none; stroke: #9467bd; stroke-width: 1.5; stroke-linecap: square"/>
    <defs>
     <path id="m0ff65c854f" d="M 0 4.949747 
L 2.969848 0 
L 0 -4.949747 
L -2.969848 0 
z
" style="stroke: #000000; stroke-linejoin: miter"/>
    </defs>
    <g clip-path="url(#pb722c71c21)">
     <use xlink:href="#m0ff65c854f" x="230.5854" y="95.1912" style="fill: #9467bd; stroke: #000000; stroke-linejoin: miter"/>
    </g>
   </g>
   <g id="line2d_64">
    <path d="M 263.0178 95.1912 
" clip-path="url(#pb722c71c21)" style="fill: none; stroke: #8c564b; stroke-width: 1.5; stroke-linecap: square"/>
    <defs>
     <path id="m765bd80653" d="M 0 4.949747 
L 2.969848 0 
L 0 -4.949747 
L -2.969848 0 
z
" style="stroke: #000000; stroke-linejoin: miter"/>
    </defs>
    <g clip-path="url(#pb722c71c21)">
     <use xlink:href="#m765bd80653" x="263.0178" y="95.1912" style="fill: #8c564b; stroke: #000000; stroke-linejoin: miter"/>
    </g>
   </g>
   <g id="line2d_65">
    <path d="M 133.2882 160.056 
" clip-path="url(#pb722c71c21)" style="fill: none; stroke: #e377c2; stroke-width: 1.5; stroke-linecap: square"/>
    <defs>
     <path id="m4f9a7e7784" d="M 0 4.949747 
L 2.969848 0 
L 0 -4.949747 
L -2.969848 0 
z
" style="stroke: #000000; stroke-linejoin: miter"/>
    </defs>
    <g clip-path="url(#pb722c71c21)">
     <use xlink:href="#m4f9a7e7784" x="133.2882" y="160.056" style="fill: #e377c2; stroke: #000000; stroke-linejoin: miter"/>
    </g>
   </g>
   <g id="line2d_66">
    <path d="M 165.7206 160.056 
" clip-path="url(#pb722c71c21)" style="fill: none; stroke: #7f7f7f; stroke-width: 1.5; stroke-linecap: square"/>
    <defs>
     <path id="mf801322b6f" d="M 0 4.949747 
L 2.969848 0 
L 0 -4.949747 
L -2.969848 0 
z
" style="stroke: #000000; stroke-linejoin: miter"/>
    </defs>
    <g clip-path="url(#pb722c71c21)">
     <use xlink:href="#mf801322b6f" x="165.7206" y="160.056" style="fill: #7f7f7f; stroke: #000000; stroke-linejoin: miter"/>
    </g>
   </g>
   <g id="line2d_67">
    <path d="M 230.5854 160.056 
" clip-path="url(#pb722c71c21)" style="fill: none; stroke: #bcbd22; stroke-width: 1.5; stroke-linecap: square"/>
    <defs>
     <path id="maa4452ad03" d="M 0 4.949747 
L 2.969848 0 
L 0 -4.949747 
L -2.969848 0 
z
" style="stroke: #000000; stroke-linejoin: miter"/>
    </defs>
    <g clip-path="url(#pb722c71c21)">
     <use xlink:href="#maa4452ad03" x="230.5854" y="160.056" style="fill: #bcbd22; stroke: #000000; stroke-linejoin: miter"/>
    </g>
   </g>
   <g id="line2d_68">
    <path d="M 263.0178 160.056 
" clip-path="url(#pb722c71c21)" style="fill: none; stroke: #17becf; stroke-width: 1.5; stroke-linecap: square"/>
    <defs>
     <path id="ma01f623e2f" d="M 0 4.949747 
L 2.969848 0 
L 0 -4.949747 
L -2.969848 0 
z
" style="stroke: #000000; stroke-linejoin: miter"/>
    </defs>
    <g clip-path="url(#pb722c71c21)">
     <use xlink:href="#ma01f623e2f" x="263.0178" y="160.056" style="fill: #17becf; stroke: #000000; stroke-linejoin: miter"/>
    </g>
   </g>
   <g id="line2d_69">
    <path d="M 230.5854 62.7588 
" clip-path="url(#pb722c71c21)" style="fill: none; stroke: #2f4f4f; stroke-width: 1.5; stroke-linecap: square"/>
    <defs>
     <path id="m0b3ae81b95" d="M 0 4.949747 
L 2.969848 0 
L 0 -4.949747 
L -2.969848 0 
z
" style="stroke: #000000; stroke-linejoin: miter"/>
    </defs>
    <g clip-path="url(#pb722c71c21)">
     <use xlink:href="#m0b3ae81b95" x="230.5854" y="62.7588" style="fill: #2f4f4f; stroke: #000000; stroke-linejoin: miter"/>
    </g>
   </g>
   <g id="line2d_70">
    <path d="M 230.5854 30.3264 
" clip-path="url(#pb722c71c21)" style="fill: none; stroke: #cd5c5c; stroke-width: 1.5; stroke-linecap: square"/>
    <defs>
     <path id="m46ba232d97" d="M 0 4.949747 
L 2.969848 0 
L 0 -4.949747 
L -2.969848 0 
z
" style="stroke: #000000; stroke-linejoin: miter"/>
    </defs>
    <g clip-path="url(#pb722c71c21)">
     <use xlink:href="#m46ba232d97" x="230.5854" y="30.3264" style="fill: #cd5c5c; stroke: #000000; stroke-linejoin: miter"/>
    </g>
   </g>
   <g id="line2d_71">
    <path clip-path="url(#pb722c71c21)" style="fill: none; stroke: #add8e6; stroke-width: 1.5; stroke-linecap: square"/>
    <defs>
     <path id="m880a235670" d="M 0 4.949747 
L 2.969848 0 
L 0 -4.949747 
L -2.969848 0 
z
" style="stroke: #000000; stroke-linejoin: miter"/>
    </defs>
    <g clip-path="url(#pb722c71c21)"/>
   </g>
   <g id="line2d_72">
    <path d="M 230.5854 192.4884 
" clip-path="url(#pb722c71c21)" style="fill: none; stroke: #663399; stroke-width: 1.5; stroke-linecap: square"/>
    <defs>
     <path id="m2671862750" d="M 0 4.949747 
L 2.969848 0 
L 0 -4.949747 
L -2.969848 0 
z
" style="stroke: #000000; stroke-linejoin: miter"/>
    </defs>
    <g clip-path="url(#pb722c71c21)">
     <use xlink:href="#m2671862750" x="230.5854" y="192.4884" style="fill: #663399; stroke: #000000; stroke-linejoin: miter"/>
    </g>
   </g>
   <g id="line2d_73">
    <path d="M 230.5854 224.9208 
" clip-path="url(#pb722c71c21)" style="fill: none; stroke: #8fbc8f; stroke-width: 1.5; stroke-linecap: square"/>
    <defs>
     <path id="me6728ef92a" d="M 0 4.949747 
L 2.969848 0 
L 0 -4.949747 
L -2.969848 0 
z
" style="stroke: #000000; stroke-linejoin: miter"/>
    </defs>
    <g clip-path="url(#pb722c71c21)">
     <use xlink:href="#me6728ef92a" x="230.5854" y="224.9208" style="fill: #8fbc8f; stroke: #000000; stroke-linejoin: miter"/>
    </g>
   </g>
   <g id="line2d_74">
    <path clip-path="url(#pb722c71c21)" style="fill: none; stroke: #00ced1; stroke-width: 1.5; stroke-linecap: square"/>
    <defs>
     <path id="mc57aeffd17" d="M 0 4.949747 
L 2.969848 0 
L 0 -4.949747 
L -2.969848 0 
z
" style="stroke: #000000; stroke-linejoin: miter"/>
    </defs>
    <g clip-path="url(#pb722c71c21)">
     <use xlink:href="#mc57aeffd17" x="230.5854" y="257.3532" style="fill: #00ced1; stroke: #000000; stroke-linejoin: miter"/>
    </g>
   </g>
   <g id="line2d_75">
    <path d="M 165.7206 62.7588 
" clip-path="url(#pb722c71c21)" style="fill: none; stroke: #6a5acd; stroke-width: 1.5; stroke-linecap: square"/>
    <defs>
     <path id="m98dfddd107" d="M 0 4.949747 
L 2.969848 0 
L 0 -4.949747 
L -2.969848 0 
z
" style="stroke: #000000; stroke-linejoin: miter"/>
    </defs>
    <g clip-path="url(#pb722c71c21)">
     <use xlink:href="#m98dfddd107" x="165.7206" y="62.7588" style="fill: #6a5acd; stroke: #000000; stroke-linejoin: miter"/>
    </g>
   </g>
   <g id="line2d_76">
    <path d="M 165.7206 30.3264 
" clip-path="url(#pb722c71c21)" style="fill: none; stroke: #808000; stroke-width: 1.5; stroke-linecap: square"/>
    <defs>
     <path id="m93ab223d82" d="M 0 4.949747 
L 2.969848 0 
L 0 -4.949747 
L -2.969848 0 
z
" style="stroke: #000000; stroke-linejoin: miter"/>
    </defs>
    <g clip-path="url(#pb722c71c21)">
     <use xlink:href="#m93ab223d82" x="165.7206" y="30.3264" style="fill: #808000; stroke: #000000; stroke-linejoin: miter"/>
    </g>
   </g>
   <g id="line2d_77">
    <path clip-path="url(#pb722c71c21)" style="fill: none; stroke: #a0522d; stroke-width: 1.5; stroke-linecap: square"/>
    <defs>
     <path id="mba9499d7fd" d="M 0 4.949747 
L 2.969848 0 
L 0 -4.949747 
L -2.969848 0 
z
" style="stroke: #000000; stroke-linejoin: miter"/>
    </defs>
    <g clip-path="url(#pb722c71c21)"/>
   </g>
   <g id="line2d_78">
    <path d="M 165.7206 192.4884 
" clip-path="url(#pb722c71c21)" style="fill: none; stroke: #ff4500; stroke-width: 1.5; stroke-linecap: square"/>
    <defs>
     <path id="m3413b6f4ac" d="M 0 4.949747 
L 2.969848 0 
L 0 -4.949747 
L -2.969848 0 
z
" style="stroke: #000000; stroke-linejoin: miter"/>
    </defs>
    <g clip-path="url(#pb722c71c21)">
     <use xlink:href="#m3413b6f4ac" x="165.7206" y="192.4884" style="fill: #ff4500; stroke: #000000; stroke-linejoin: miter"/>
    </g>
   </g>
   <g id="line2d_79">
    <path d="M 165.7206 224.9208 
" clip-path="url(#pb722c71c21)" style="fill: none; stroke: #708090; stroke-width: 1.5; stroke-linecap: square"/>
    <defs>
     <path id="m04aec8dee1" d="M 0 4.949747 
L 2.969848 0 
L 0 -4.949747 
L -2.969848 0 
z
" style="stroke: #000000; stroke-linejoin: miter"/>
    </defs>
    <g clip-path="url(#pb722c71c21)">
     <use xlink:href="#m04aec8dee1" x="165.7206" y="224.9208" style="fill: #708090; stroke: #000000; stroke-linejoin: miter"/>
    </g>
   </g>
   <g id="line2d_80">
    <path clip-path="url(#pb722c71c21)" style="fill: none; stroke: #bdb76b; stroke-width: 1.5; stroke-linecap: square"/>
    <defs>
     <path id="m8c849987f7" d="M 0 4.949747 
L 2.969848 0 
L 0 -4.949747 
L -2.969848 0 
z
" style="stroke: #000000; stroke-linejoin: miter"/>
    </defs>
    <g clip-path="url(#pb722c71c21)">
     <use xlink:href="#m8c849987f7" x="165.7206" y="257.3532" style="fill: #bdb76b; stroke: #000000; stroke-linejoin: miter"/>
    </g>
   </g>
  </g>
 </g>
 <defs>
  <clipPath id="pb722c71c21">
   <rect x="100.8558" y="30.3264" width="194.5944" height="194.5944"/>
  </clipPath>
 </defs>
</svg>
