<?xml version="1.0" encoding="utf-8" standalone="no"?>
<!DOCTYPE svg PUBLIC "-//W3C//DTD SVG 1.1//EN"
  "http://www.w3.org/Graphics/SVG/1.1/DTD/svg11.dtd">
<svg xmlns:xlink="http://www.w3.org/1999/xlink" width="386.64pt" height="252.72pt" viewBox="0 0 386.64 252.72" xmlns="http://www.w3.org/2000/svg" version="1.1">
 <metadata>
  <rdf:RDF xmlns:dc="http://purl.org/dc/elements/1.1/" xmlns:cc="http://creativecommons.org/ns#" xmlns:rdf="http://www.w3.org/1999/02/22-rdf-syntax-ns#">
   <cc:Work>
    <dc:type rdf:resource="http://purl.org/dc/dcmitype/StillImage"/>
    <dc:date>2023-07-11T22:26:57.462870</dc:date>
    <dc:format>image/svg+xml</dc:format>
    <dc:creator>
     <cc:Agent>
      <dc:title>Matplotlib v3.6.2, https://matplotlib.org/</dc:title>
     </cc:Agent>
    </dc:creator>
   </cc:Work>
  </rdf:RDF>
 </metadata>
 <defs>
  <style type="text/css">*{stroke-linejoin: round; stroke-linecap: butt}</style>
 </defs>
 <g id="figure_1">
  <g id="patch_1">
   <path d="M 0 252.72 
L 386.64 252.72 
L 386.64 0 
L 0 0 
z
" style="fill: #ffffff"/>
  </g>
  <g id="axes_1">
   <g id="patch_2">
    <path d="M 100.8558 224.9208 
L 295.4502 224.9208 
L 295.4502 30.3264 
L 100.8558 30.3264 
z
" style="fill: #ffffff"/>
   </g>
   <g id="matplotlib.axis_1">
    <g id="xtick_1">
     <g id="line2d_1">
      <defs>
       <path id="m6e85ef8764" d="M 0 0 
L 0 3.5 
" style="stroke: #000000; stroke-width: 0.8"/>
      </defs>
      <g>
       <use xlink:href="#m6e85ef8764" x="100.8558" y="224.9208" style="stroke: #000000; stroke-width: 0.8"/>
      </g>
     </g>
     <g id="text_1">
      <!-- −0.5 -->
      <g transform="translate(88.714394 239.519237) scale(0.1 -0.1)">
       <defs>
        <path id="DejaVuSans-2212" d="M 678 2272 
L 4684 2272 
L 4684 1741 
L 678 1741 
L 678 2272 
z
" transform="scale(0.015625)"/>
        <path id="DejaVuSans-30" d="M 2034 4250 
Q 1547 4250 1301 3770 
Q 1056 3291 1056 2328 
Q 1056 1369 1301 889 
Q 1547 409 2034 409 
Q 2525 409 2770 889 
Q 3016 1369 3016 2328 
Q 3016 3291 2770 3770 
Q 2525 4250 2034 4250 
z
M 2034 4750 
Q 2819 4750 3233 4129 
Q 3647 3509 3647 2328 
Q 3647 1150 3233 529 
Q 2819 -91 2034 -91 
Q 1250 -91 836 529 
Q 422 1150 422 2328 
Q 422 3509 836 4129 
Q 1250 4750 2034 4750 
z
" transform="scale(0.015625)"/>
        <path id="DejaVuSans-2e" d="M 684 794 
L 1344 794 
L 1344 0 
L 684 0 
L 684 794 
z
" transform="scale(0.015625)"/>
        <path id="DejaVuSans-35" d="M 691 4666 
L 3169 4666 
L 3169 4134 
L 1269 4134 
L 1269 2991 
Q 1406 3038 1543 3061 
Q 1681 3084 1819 3084 
Q 2600 3084 3056 2656 
Q 3513 2228 3513 1497 
Q 3513 744 3044 326 
Q 2575 -91 1722 -91 
Q 1428 -91 1123 -41 
Q 819 9 494 109 
L 494 744 
Q 775 591 1075 516 
Q 1375 441 1709 441 
Q 2250 441 2565 725 
Q 2881 1009 2881 1497 
Q 2881 1984 2565 2268 
Q 2250 2553 1709 2553 
Q 1456 2553 1204 2497 
Q 953 2441 691 2322 
L 691 4666 
z
" transform="scale(0.015625)"/>
       </defs>
       <use xlink:href="#DejaVuSans-2212"/>
       <use xlink:href="#DejaVuSans-30" x="83.789062"/>
       <use xlink:href="#DejaVuSans-2e" x="147.412109"/>
       <use xlink:href="#DejaVuSans-35" x="179.199219"/>
      </g>
     </g>
    </g>
    <g id="xtick_2">
     <g id="line2d_2">
      <g>
       <use xlink:href="#m6e85ef8764" x="133.2882" y="224.9208" style="stroke: #000000; stroke-width: 0.8"/>
      </g>
     </g>
     <g id="text_2">
      <!-- 0.0 -->
      <g transform="translate(125.336638 239.519237) scale(0.1 -0.1)">
       <use xlink:href="#DejaVuSans-30"/>
       <use xlink:href="#DejaVuSans-2e" x="63.623047"/>
       <use xlink:href="#DejaVuSans-30" x="95.410156"/>
      </g>
     </g>
    </g>
    <g id="xtick_3">
     <g id="line2d_3">
      <g>
       <use xlink:href="#m6e85ef8764" x="165.7206" y="224.9208" style="stroke: #000000; stroke-width: 0.8"/>
      </g>
     </g>
     <g id="text_3">
      <!-- 0.5 -->
      <g transform="translate(157.769037 239.519237) scale(0.1 -0.1)">
       <use xlink:href="#DejaVuSans-30"/>
       <use xlink:href="#DejaVuSans-2e" x="63.623047"/>
       <use xlink:href="#DejaVuSans-35" x="95.410156"/>
      </g>
     </g>
    </g>
    <g id="xtick_4">
     <g id="line2d_4">
      <g>
       <use xlink:href="#m6e85ef8764" x="198.153" y="224.9208" style="stroke: #000000; stroke-width: 0.8"/>
      </g>
     </g>
     <g id="text_4">
      <!-- 1.0 -->
      <g transform="translate(190.201437 239.519237) scale(0.1 -0.1)">
       <defs>
        <path id="DejaVuSans-31" d="M 794 531 
L 1825 531 
L 1825 4091 
L 703 3866 
L 703 4441 
L 1819 4666 
L 2450 4666 
L 2450 531 
L 3481 531 
L 3481 0 
L 794 0 
L 794 531 
z
" transform="scale(0.015625)"/>
       </defs>
       <use xlink:href="#DejaVuSans-31"/>
       <use xlink:href="#DejaVuSans-2e" x="63.623047"/>
       <use xlink:href="#DejaVuSans-30" x="95.410156"/>
      </g>
     </g>
    </g>
    <g id="xtick_5">
     <g id="line2d_5">
      <g>
       <use xlink:href="#m6e85ef8764" x="230.5854" y="224.9208" style="stroke: #000000; stroke-width: 0.8"/>
      </g>
     </g>
     <g id="text_5">
      <!-- 1.5 -->
      <g transform="translate(222.633837 239.519237) scale(0.1 -0.1)">
       <use xlink:href="#DejaVuSans-31"/>
       <use xlink:href="#DejaVuSans-2e" x="63.623047"/>
       <use xlink:href="#DejaVuSans-35" x="95.410156"/>
      </g>
     </g>
    </g>
    <g id="xtick_6">
     <g id="line2d_6">
      <g>
       <use xlink:href="#m6e85ef8764" x="263.0178" y="224.9208" style="stroke: #000000; stroke-width: 0.8"/>
      </g>
     </g>
     <g id="text_6">
      <!-- 2.0 -->
      <g transform="translate(255.066237 239.519237) scale(0.1 -0.1)">
       <defs>
        <path id="DejaVuSans-32" d="M 1228 531 
L 3431 531 
L 3431 0 
L 469 0 
L 469 531 
Q 828 903 1448 1529 
Q 2069 2156 2228 2338 
Q 2531 2678 2651 2914 
Q 2772 3150 2772 3378 
Q 2772 3750 2511 3984 
Q 2250 4219 1831 4219 
Q 1534 4219 1204 4116 
Q 875 4013 500 3803 
L 500 4441 
Q 881 4594 1212 4672 
Q 1544 4750 1819 4750 
Q 2544 4750 2975 4387 
Q 3406 4025 3406 3419 
Q 3406 3131 3298 2873 
Q 3191 2616 2906 2266 
Q 2828 2175 2409 1742 
Q 1991 1309 1228 531 
z
" transform="scale(0.015625)"/>
       </defs>
       <use xlink:href="#DejaVuSans-32"/>
       <use xlink:href="#DejaVuSans-2e" x="63.623047"/>
       <use xlink:href="#DejaVuSans-30" x="95.410156"/>
      </g>
     </g>
    </g>
    <g id="xtick_7">
     <g id="line2d_7">
      <g>
       <use xlink:href="#m6e85ef8764" x="295.4502" y="224.9208" style="stroke: #000000; stroke-width: 0.8"/>
      </g>
     </g>
     <g id="text_7">
      <!-- 2.5 -->
      <g transform="translate(287.498637 239.519237) scale(0.1 -0.1)">
       <use xlink:href="#DejaVuSans-32"/>
       <use xlink:href="#DejaVuSans-2e" x="63.623047"/>
       <use xlink:href="#DejaVuSans-35" x="95.410156"/>
      </g>
     </g>
    </g>
    <g id="text_8">
     <!-- x(m) -->
     <g transform="translate(186.42175 253.197362) scale(0.1 -0.1)">
      <defs>
       <path id="DejaVuSans-78" d="M 3513 3500 
L 2247 1797 
L 3578 0 
L 2900 0 
L 1881 1375 
L 863 0 
L 184 0 
L 1544 1831 
L 300 3500 
L 978 3500 
L 1906 2253 
L 2834 3500 
L 3513 3500 
z
" transform="scale(0.015625)"/>
       <path id="DejaVuSans-28" d="M 1984 4856 
Q 1566 4138 1362 3434 
Q 1159 2731 1159 2009 
Q 1159 1288 1364 580 
Q 1569 -128 1984 -844 
L 1484 -844 
Q 1016 -109 783 600 
Q 550 1309 550 2009 
Q 550 2706 781 3412 
Q 1013 4119 1484 4856 
L 1984 4856 
z
" transform="scale(0.015625)"/>
       <path id="DejaVuSans-6d" d="M 3328 2828 
Q 3544 3216 3844 3400 
Q 4144 3584 4550 3584 
Q 5097 3584 5394 3201 
Q 5691 2819 5691 2113 
L 5691 0 
L 5113 0 
L 5113 2094 
Q 5113 2597 4934 2840 
Q 4756 3084 4391 3084 
Q 3944 3084 3684 2787 
Q 3425 2491 3425 1978 
L 3425 0 
L 2847 0 
L 2847 2094 
Q 2847 2600 2669 2842 
Q 2491 3084 2119 3084 
Q 1678 3084 1418 2786 
Q 1159 2488 1159 1978 
L 1159 0 
L 581 0 
L 581 3500 
L 1159 3500 
L 1159 2956 
Q 1356 3278 1631 3431 
Q 1906 3584 2284 3584 
Q 2666 3584 2933 3390 
Q 3200 3197 3328 2828 
z
" transform="scale(0.015625)"/>
       <path id="DejaVuSans-29" d="M 513 4856 
L 1013 4856 
Q 1481 4119 1714 3412 
Q 1947 2706 1947 2009 
Q 1947 1309 1714 600 
Q 1481 -109 1013 -844 
L 513 -844 
Q 928 -128 1133 580 
Q 1338 1288 1338 2009 
Q 1338 2731 1133 3434 
Q 928 4138 513 4856 
z
" transform="scale(0.015625)"/>
      </defs>
      <use xlink:href="#DejaVuSans-78"/>
      <use xlink:href="#DejaVuSans-28" x="59.179688"/>
      <use xlink:href="#DejaVuSans-6d" x="98.193359"/>
      <use xlink:href="#DejaVuSans-29" x="195.605469"/>
     </g>
    </g>
   </g>
   <g id="matplotlib.axis_2">
    <g id="ytick_1">
     <g id="line2d_8">
      <defs>
       <path id="m1130ac78ff" d="M 0 0 
L -3.5 0 
" style="stroke: #000000; stroke-width: 0.8"/>
      </defs>
      <g>
       <use xlink:href="#m1130ac78ff" x="100.8558" y="224.9208" style="stroke: #000000; stroke-width: 0.8"/>
      </g>
     </g>
     <g id="text_9">
      <!-- −0.5 -->
      <g transform="translate(69.572988 228.720019) scale(0.1 -0.1)">
       <use xlink:href="#DejaVuSans-2212"/>
       <use xlink:href="#DejaVuSans-30" x="83.789062"/>
       <use xlink:href="#DejaVuSans-2e" x="147.412109"/>
       <use xlink:href="#DejaVuSans-35" x="179.199219"/>
      </g>
     </g>
    </g>
    <g id="ytick_2">
     <g id="line2d_9">
      <g>
       <use xlink:href="#m1130ac78ff" x="100.8558" y="192.4884" style="stroke: #000000; stroke-width: 0.8"/>
      </g>
     </g>
     <g id="text_10">
      <!-- 0.0 -->
      <g transform="translate(77.952675 196.287619) scale(0.1 -0.1)">
       <use xlink:href="#DejaVuSans-30"/>
       <use xlink:href="#DejaVuSans-2e" x="63.623047"/>
       <use xlink:href="#DejaVuSans-30" x="95.410156"/>
      </g>
     </g>
    </g>
    <g id="ytick_3">
     <g id="line2d_10">
      <g>
       <use xlink:href="#m1130ac78ff" x="100.8558" y="160.056" style="stroke: #000000; stroke-width: 0.8"/>
      </g>
     </g>
     <g id="text_11">
      <!-- 0.5 -->
      <g transform="translate(77.952675 163.855219) scale(0.1 -0.1)">
       <use xlink:href="#DejaVuSans-30"/>
       <use xlink:href="#DejaVuSans-2e" x="63.623047"/>
       <use xlink:href="#DejaVuSans-35" x="95.410156"/>
      </g>
     </g>
    </g>
    <g id="ytick_4">
     <g id="line2d_11">
      <g>
       <use xlink:href="#m1130ac78ff" x="100.8558" y="127.6236" style="stroke: #000000; stroke-width: 0.8"/>
      </g>
     </g>
     <g id="text_12">
      <!-- 1.0 -->
      <g transform="translate(77.952675 131.422819) scale(0.1 -0.1)">
       <use xlink:href="#DejaVuSans-31"/>
       <use xlink:href="#DejaVuSans-2e" x="63.623047"/>
       <use xlink:href="#DejaVuSans-30" x="95.410156"/>
      </g>
     </g>
    </g>
    <g id="ytick_5">
     <g id="line2d_12">
      <g>
       <use xlink:href="#m1130ac78ff" x="100.8558" y="95.1912" style="stroke: #000000; stroke-width: 0.8"/>
      </g>
     </g>
     <g id="text_13">
      <!-- 1.5 -->
      <g transform="translate(77.952675 98.990419) scale(0.1 -0.1)">
       <use xlink:href="#DejaVuSans-31"/>
       <use xlink:href="#DejaVuSans-2e" x="63.623047"/>
       <use xlink:href="#DejaVuSans-35" x="95.410156"/>
      </g>
     </g>
    </g>
    <g id="ytick_6">
     <g id="line2d_13">
      <g>
       <use xlink:href="#m1130ac78ff" x="100.8558" y="62.7588" style="stroke: #000000; stroke-width: 0.8"/>
      </g>
     </g>
     <g id="text_14">
      <!-- 2.0 -->
      <g transform="translate(77.952675 66.558019) scale(0.1 -0.1)">
       <use xlink:href="#DejaVuSans-32"/>
       <use xlink:href="#DejaVuSans-2e" x="63.623047"/>
       <use xlink:href="#DejaVuSans-30" x="95.410156"/>
      </g>
     </g>
    </g>
    <g id="ytick_7">
     <g id="line2d_14">
      <g>
       <use xlink:href="#m1130ac78ff" x="100.8558" y="30.3264" style="stroke: #000000; stroke-width: 0.8"/>
      </g>
     </g>
     <g id="text_15">
      <!-- 2.5 -->
      <g transform="translate(77.952675 34.125619) scale(0.1 -0.1)">
       <use xlink:href="#DejaVuSans-32"/>
       <use xlink:href="#DejaVuSans-2e" x="63.623047"/>
       <use xlink:href="#DejaVuSans-35" x="95.410156"/>
      </g>
     </g>
    </g>
    <g id="text_16">
     <!-- y(m) -->
     <g transform="translate(63.4933 139.35485) rotate(-90) scale(0.1 -0.1)">
      <defs>
       <path id="DejaVuSans-79" d="M 2059 -325 
Q 1816 -950 1584 -1140 
Q 1353 -1331 966 -1331 
L 506 -1331 
L 506 -850 
L 844 -850 
Q 1081 -850 1212 -737 
Q 1344 -625 1503 -206 
L 1606 56 
L 191 3500 
L 800 3500 
L 1894 763 
L 2988 3500 
L 3597 3500 
L 2059 -325 
z
" transform="scale(0.015625)"/>
      </defs>
      <use xlink:href="#DejaVuSans-79"/>
      <use xlink:href="#DejaVuSans-28" x="59.179688"/>
      <use xlink:href="#DejaVuSans-6d" x="98.193359"/>
      <use xlink:href="#DejaVuSans-29" x="195.605469"/>
     </g>
    </g>
   </g>
   <g id="line2d_15">
    <path d="M 263.0178 127.6236 
L 263.0178 127.6236 
L 263.0178 127.6236 
L 263.0178 127.6236 
L 263.0178 127.6236 
L 263.017804 127.623599 
L 263.017834 127.623594 
L 263.018006 127.623566 
L 263.018833 127.623428 
L 263.022243 127.622861 
L 263.033291 127.621024 
L 263.036547 127.620483 
L 263.036547 127.620483 
" clip-path="url(#p3bf13a888e)" style="fill: none; stroke-dasharray: 2,3.3; stroke-dashoffset: 0; stroke: #1f77b4; stroke-width: 2"/>
   </g>
   <g id="line2d_16">
    <path d="M 133.2882 127.6236 
L 133.2882 127.6236 
L 133.768676 127.621531 
L 138.573349 127.593776 
L 147.701648 127.493337 
L 160.673863 127.41217 
L 173.646739 127.459601 
L 186.619963 127.486284 
L 199.592908 127.523189 
L 212.567005 127.607597 
L 225.536461 127.5202 
L 238.341407 126.667687 
L 249.679077 126.428069 
L 257.640665 127.139288 
L 262.299995 127.540144 
L 263.112185 127.634279 
L 263.006673 127.622341 
L 263.019112 127.623748 
L 263.017645 127.623583 
L 263.017818 127.623602 
L 263.017798 127.6236 
L 263.0178 127.6236 
" clip-path="url(#p3bf13a888e)" style="fill: none; stroke: #1f77b4; stroke-width: 2; stroke-linecap: square"/>
   </g>
   <g id="line2d_17">
    <path d="M 241.568181 131.191014 
L 241.575661 131.189273 
L 241.577299 131.188892 
L 241.57804 131.188719 
L 241.578456 131.188623 
L 241.578722 131.188561 
L 241.579051 131.188494 
L 241.580027 131.188322 
L 241.582285 131.18794 
L 241.586803 131.187183 
L 241.592858 131.186172 
L 241.597862 131.185336 
L 241.597862 131.185336 
" clip-path="url(#p3bf13a888e)" style="fill: none; stroke-dasharray: 2,3.3; stroke-dashoffset: 0; stroke: #ff7f0e; stroke-width: 2"/>
   </g>
   <g id="line2d_18">
    <path d="M 198.153 205.46136 
L 198.153 205.46136 
L 198.164648 204.981025 
L 198.417246 200.200816 
L 199.877385 191.454013 
L 201.48243 180.264573 
L 202.738317 169.560811 
L 204.917797 161.07713 
L 207.09932 154.814228 
L 209.379241 150.892168 
L 211.999015 147.096721 
L 218.032057 141.250712 
L 226.183594 137.004547 
L 232.872114 134.000627 
L 237.806064 132.265695 
L 240.06566 131.422425 
L 240.879042 131.192219 
L 241.162835 131.331402 
L 241.412368 131.239806 
L 241.510508 131.207438 
L 241.550795 131.195585 
L 241.568181 131.191014 
" clip-path="url(#p3bf13a888e)" style="fill: none; stroke: #ff7f0e; stroke-width: 2; stroke-linecap: square"/>
   </g>
   <g id="line2d_19">
    <path d="M 133.288225 95.190938 
L 133.288223 95.190935 
L 133.28822 95.190934 
L 133.288218 95.190935 
L 133.288215 95.19094 
L 133.288213 95.190949 
L 133.28821 95.190962 
L 133.288208 95.190978 
L 133.288206 95.190996 
L 133.288205 95.191012 
L 133.288204 95.191024 
L 133.288204 95.19103 
L 133.288204 95.19103 
" clip-path="url(#p3bf13a888e)" style="fill: none; stroke-dasharray: 2,3.3; stroke-dashoffset: 0; stroke: #2ca02c; stroke-width: 2"/>
   </g>
   <g id="line2d_20">
    <path d="M 133.2882 95.1912 
L 133.2882 95.1912 
L 133.2882 95.1912 
L 133.288202 95.1912 
L 133.288204 95.191197 
L 133.288206 95.19119 
L 133.288211 95.191173 
L 133.288216 95.191155 
L 133.288222 95.191135 
L 133.288224 95.191111 
L 133.288228 95.191086 
L 133.28823 95.191064 
L 133.288232 95.191043 
L 133.288235 95.191023 
L 133.288236 95.191005 
L 133.288236 95.19099 
L 133.288235 95.190976 
L 133.288234 95.190965 
L 133.288232 95.190955 
L 133.28823 95.190948 
L 133.288228 95.190942 
L 133.288225 95.190938 
" clip-path="url(#p3bf13a888e)" style="fill: none; stroke: #2ca02c; stroke-width: 2; stroke-linecap: square"/>
   </g>
   <g id="line2d_21">
    <path d="M 165.720588 95.191254 
L 165.720622 95.191279 
L 165.720662 95.191305 
L 165.7207 95.191328 
L 165.720726 95.19134 
L 165.720738 95.19134 
L 165.720739 95.191331 
L 165.720732 95.191314 
L 165.720719 95.191292 
L 165.720702 95.191267 
L 165.720689 95.191246 
L 165.720682 95.191234 
L 165.720682 95.191234 
" clip-path="url(#p3bf13a888e)" style="fill: none; stroke-dasharray: 2,3.3; stroke-dashoffset: 0; stroke: #d62728; stroke-width: 2"/>
   </g>
   <g id="line2d_22">
    <path d="M 165.7206 95.1912 
L 165.7206 95.1912 
L 165.720601 95.191194 
L 165.720603 95.19115 
L 165.720581 95.191153 
L 165.720541 95.191158 
L 165.720483 95.19116 
L 165.720422 95.191125 
L 165.720366 95.191081 
L 165.720311 95.191045 
L 165.720281 95.191024 
L 165.720264 95.191013 
L 165.720261 95.191012 
L 165.720272 95.191017 
L 165.720291 95.191024 
L 165.720326 95.19105 
L 165.720369 95.191085 
L 165.720416 95.191123 
L 165.720464 95.19116 
L 165.720509 95.191195 
L 165.720551 95.191227 
L 165.720588 95.191254 
" clip-path="url(#p3bf13a888e)" style="fill: none; stroke: #d62728; stroke-width: 2; stroke-linecap: square"/>
   </g>
   <g id="line2d_23">
    <path d="M 230.585711 95.190576 
L 230.585707 95.190535 
L 230.585726 95.190505 
L 230.585759 95.19052 
L 230.585775 95.190602 
L 230.585768 95.190721 
L 230.585735 95.190839 
L 230.585681 95.190942 
L 230.585616 95.191032 
L 230.585552 95.191107 
L 230.585505 95.191157 
L 230.585482 95.19118 
L 230.585482 95.19118 
" clip-path="url(#p3bf13a888e)" style="fill: none; stroke-dasharray: 2,3.3; stroke-dashoffset: 0; stroke: #9467bd; stroke-width: 2"/>
   </g>
   <g id="line2d_24">
    <path d="M 230.5854 95.1912 
L 230.5854 95.1912 
L 230.5854 95.191198 
L 230.585399 95.191183 
L 230.585405 95.191174 
L 230.585427 95.191186 
L 230.585443 95.191202 
L 230.585457 95.191257 
L 230.585477 95.191298 
L 230.585509 95.191287 
L 230.585553 95.191222 
L 230.585594 95.19117 
L 230.58563 95.191129 
L 230.585659 95.191094 
L 230.585686 95.191036 
L 230.585704 95.190962 
L 230.585716 95.190885 
L 230.585722 95.190811 
L 230.585723 95.190742 
L 230.585721 95.190679 
L 230.585717 95.190624 
L 230.585711 95.190576 
" clip-path="url(#p3bf13a888e)" style="fill: none; stroke: #9467bd; stroke-width: 2; stroke-linecap: square"/>
   </g>
   <g id="line2d_25">
    <path d="M 263.017766 95.190957 
L 263.017768 95.190957 
L 263.017769 95.190959 
L 263.017771 95.190964 
L 263.017773 95.190973 
L 263.017776 95.190985 
L 263.017779 95.191001 
L 263.017782 95.191019 
L 263.017784 95.191039 
L 263.017787 95.191057 
L 263.017788 95.191069 
L 263.017789 95.191075 
L 263.017789 95.191075 
" clip-path="url(#p3bf13a888e)" style="fill: none; stroke-dasharray: 2,3.3; stroke-dashoffset: 0; stroke: #8c564b; stroke-width: 2"/>
   </g>
   <g id="line2d_26">
    <path d="M 263.0178 95.1912 
L 263.0178 95.1912 
L 263.017801 95.1912 
L 263.017807 95.191203 
L 263.017812 95.191199 
L 263.017815 95.191193 
L 263.017817 95.191185 
L 263.017818 95.191173 
L 263.017819 95.191161 
L 263.017818 95.19115 
L 263.017817 95.191135 
L 263.017814 95.191106 
L 263.017803 95.191071 
L 263.017793 95.191044 
L 263.017784 95.191022 
L 263.017777 95.191004 
L 263.017772 95.190989 
L 263.017769 95.190978 
L 263.017766 95.190969 
L 263.017765 95.190963 
L 263.017765 95.190959 
L 263.017766 95.190957 
" clip-path="url(#p3bf13a888e)" style="fill: none; stroke: #8c564b; stroke-width: 2; stroke-linecap: square"/>
   </g>
   <g id="line2d_27">
    <path d="M 133.288242 160.056209 
L 133.288238 160.056217 
L 133.288234 160.056223 
L 133.288229 160.056227 
L 133.288225 160.056226 
L 133.288221 160.056222 
L 133.288217 160.056214 
L 133.288213 160.056203 
L 133.28821 160.056189 
L 133.288208 160.056175 
L 133.288206 160.056165 
L 133.288206 160.05616 
L 133.288206 160.05616 
" clip-path="url(#p3bf13a888e)" style="fill: none; stroke-dasharray: 2,3.3; stroke-dashoffset: 0; stroke: #e377c2; stroke-width: 2"/>
   </g>
   <g id="line2d_28">
    <path d="M 133.2882 160.056 
L 133.2882 160.056 
L 133.2882 160.056 
L 133.288203 160.056 
L 133.288205 160.056004 
L 133.288208 160.056011 
L 133.28821 160.05602 
L 133.288212 160.056031 
L 133.288213 160.056043 
L 133.288215 160.056057 
L 133.288218 160.056072 
L 133.288228 160.056085 
L 133.288237 160.056099 
L 133.288244 160.056114 
L 133.288249 160.056128 
L 133.288252 160.056143 
L 133.288253 160.056156 
L 133.288253 160.056169 
L 133.288251 160.056181 
L 133.288249 160.056191 
L 133.288246 160.056201 
L 133.288242 160.056209 
" clip-path="url(#p3bf13a888e)" style="fill: none; stroke: #e377c2; stroke-width: 2; stroke-linecap: square"/>
   </g>
   <g id="line2d_29">
    <path d="M 165.720526 160.055795 
L 165.720563 160.055805 
L 165.720607 160.055809 
L 165.720654 160.055812 
L 165.720689 160.055822 
L 165.720711 160.055839 
L 165.720722 160.055862 
L 165.720724 160.055889 
L 165.720719 160.05592 
L 165.720709 160.055951 
L 165.720699 160.055979 
L 165.720694 160.055994 
L 165.720694 160.055994 
" clip-path="url(#p3bf13a888e)" style="fill: none; stroke-dasharray: 2,3.3; stroke-dashoffset: 0; stroke: #7f7f7f; stroke-width: 2"/>
   </g>
   <g id="line2d_30">
    <path d="M 165.7206 160.056 
L 165.7206 160.056 
L 165.7206 160.055997 
L 165.720599 160.05597 
L 165.720579 160.055908 
L 165.72054 160.055856 
L 165.720503 160.055767 
L 165.72048 160.055656 
L 165.720446 160.055586 
L 165.720426 160.055548 
L 165.720405 160.055537 
L 165.720398 160.05555 
L 165.720388 160.055578 
L 165.720397 160.055602 
L 165.720396 160.055649 
L 165.720377 160.055687 
L 165.720378 160.055717 
L 165.720394 160.05574 
L 165.72042 160.055758 
L 165.720453 160.055772 
L 165.720489 160.055784 
L 165.720526 160.055795 
" clip-path="url(#p3bf13a888e)" style="fill: none; stroke: #7f7f7f; stroke-width: 2; stroke-linecap: square"/>
   </g>
   <g id="line2d_31">
    <path d="M 230.585641 160.056033 
L 230.585646 160.056032 
L 230.585662 160.05603 
L 230.585678 160.056027 
L 230.585676 160.056022 
L 230.585656 160.056018 
L 230.585622 160.056014 
L 230.585577 160.056011 
L 230.58553 160.056008 
L 230.585485 160.056006 
L 230.585453 160.056005 
L 230.585438 160.056004 
L 230.585438 160.056004 
" clip-path="url(#p3bf13a888e)" style="fill: none; stroke-dasharray: 2,3.3; stroke-dashoffset: 0; stroke: #bcbd22; stroke-width: 2"/>
   </g>
   <g id="line2d_32">
    <path d="M 230.5854 160.056 
L 230.5854 160.056 
L 230.5854 160.056002 
L 230.585404 160.056019 
L 230.585426 160.055987 
L 230.585441 160.055965 
L 230.585453 160.055958 
L 230.585459 160.055962 
L 230.585459 160.055967 
L 230.585467 160.055979 
L 230.585475 160.055991 
L 230.58547 160.056002 
L 230.585459 160.056052 
L 230.585468 160.056053 
L 230.585489 160.056051 
L 230.58552 160.056047 
L 230.585555 160.056044 
L 230.585584 160.056041 
L 230.585606 160.056038 
L 230.585623 160.056036 
L 230.585634 160.056034 
L 230.585641 160.056033 
" clip-path="url(#p3bf13a888e)" style="fill: none; stroke: #bcbd22; stroke-width: 2; stroke-linecap: square"/>
   </g>
   <g id="line2d_33">
    <path d="M 263.017783 160.056227 
L 263.017785 160.056229 
L 263.017786 160.056229 
L 263.017788 160.056226 
L 263.017789 160.05622 
L 263.017791 160.05621 
L 263.017792 160.056196 
L 263.017793 160.056179 
L 263.017794 160.056161 
L 263.017795 160.056145 
L 263.017795 160.056133 
L 263.017796 160.056127 
L 263.017796 160.056127 
" clip-path="url(#p3bf13a888e)" style="fill: none; stroke-dasharray: 2,3.3; stroke-dashoffset: 0; stroke: #17becf; stroke-width: 2"/>
   </g>
   <g id="line2d_34">
    <path d="M 263.0178 160.056 
L 263.0178 160.056 
L 263.0178 160.056 
L 263.0178 160.056 
L 263.0178 160.056006 
L 263.017801 160.056017 
L 263.017802 160.056031 
L 263.017798 160.056043 
L 263.017795 160.056057 
L 263.017792 160.056072 
L 263.017789 160.056089 
L 263.017785 160.056112 
L 263.017783 160.056135 
L 263.01778 160.056158 
L 263.017778 160.056174 
L 263.017777 160.056187 
L 263.017777 160.056198 
L 263.017777 160.056207 
L 263.017778 160.056214 
L 263.017779 160.05622 
L 263.017781 160.056224 
L 263.017783 160.056227 
" clip-path="url(#p3bf13a888e)" style="fill: none; stroke: #17becf; stroke-width: 2; stroke-linecap: square"/>
   </g>
   <g id="line2d_35">
    <path d="M 230.585918 62.758859 
L 230.585971 62.758882 
L 230.586055 62.758912 
L 230.586144 62.758943 
L 230.586189 62.758962 
L 230.586181 62.758969 
L 230.586125 62.758963 
L 230.586031 62.758947 
L 230.585912 62.758923 
L 230.585788 62.758896 
L 230.585688 62.758874 
L 230.585639 62.758863 
L 230.585639 62.758863 
" clip-path="url(#p3bf13a888e)" style="fill: none; stroke-dasharray: 2,3.3; stroke-dashoffset: 0; stroke: #2f4f4f; stroke-width: 2"/>
   </g>
   <g id="line2d_36">
    <path d="M 230.5854 62.7588 
L 230.5854 62.7588 
L 230.5854 62.758798 
L 230.585398 62.758783 
L 230.585395 62.75877 
L 230.585392 62.758761 
L 230.585391 62.758756 
L 230.585392 62.758754 
L 230.585393 62.758755 
L 230.585397 62.758759 
L 230.585416 62.758765 
L 230.585444 62.758771 
L 230.585472 62.758776 
L 230.585495 62.75878 
L 230.585546 62.758771 
L 230.585621 62.758774 
L 230.585706 62.758784 
L 230.585744 62.758792 
L 230.585802 62.758807 
L 230.585867 62.758827 
L 230.585882 62.758841 
L 230.585918 62.758859 
" clip-path="url(#p3bf13a888e)" style="fill: none; stroke: #2f4f4f; stroke-width: 2; stroke-linecap: square"/>
   </g>
   <g id="line2d_37">
    <path d="M 230.585337 30.326578 
L 230.585345 30.326562 
L 230.585353 30.326548 
L 230.585361 30.326534 
L 230.58537 30.326519 
L 230.585378 30.326503 
L 230.585385 30.326485 
L 230.585392 30.326466 
L 230.585397 30.326448 
L 230.585401 30.326433 
L 230.585404 30.326422 
L 230.585405 30.326417 
L 230.585405 30.326417 
" clip-path="url(#p3bf13a888e)" style="fill: none; stroke-dasharray: 2,3.3; stroke-dashoffset: 0; stroke: #cd5c5c; stroke-width: 2"/>
   </g>
   <g id="line2d_38">
    <path d="M 230.5854 30.3264 
L 230.5854 30.3264 
L 230.585397 30.326406 
L 230.585368 30.32646 
L 230.585347 30.326501 
L 230.585328 30.326531 
L 230.585311 30.326561 
L 230.585298 30.326587 
L 230.585288 30.326613 
L 230.585283 30.326639 
L 230.58528 30.326662 
L 230.58528 30.326679 
L 230.585281 30.32669 
L 230.585284 30.326694 
L 230.585289 30.326696 
L 230.585295 30.326687 
L 230.585301 30.326673 
L 230.585306 30.326653 
L 230.585313 30.326633 
L 230.58532 30.326614 
L 230.585329 30.326596 
L 230.585337 30.326578 
" clip-path="url(#p3bf13a888e)" style="fill: none; stroke: #cd5c5c; stroke-width: 2; stroke-linecap: square"/>
   </g>
   <g id="line2d_39">
    <path clip-path="url(#p3bf13a888e)" style="fill: none; stroke-dasharray: 2,3.3; stroke-dashoffset: 0; stroke: #add8e6; stroke-width: 2"/>
   </g>
   <g id="line2d_40">
    <path clip-path="url(#p3bf13a888e)" style="fill: none; stroke: #add8e6; stroke-width: 2; stroke-linecap: square"/>
   </g>
   <g id="line2d_41">
    <path d="M 230.586043 192.488466 
L 230.586128 192.488466 
L 230.586235 192.488464 
L 230.58634 192.488446 
L 230.586388 192.488413 
L 230.586369 192.488375 
L 230.586291 192.488349 
L 230.586165 192.48834 
L 230.586009 192.488344 
L 230.585849 192.488353 
L 230.585723 192.488361 
L 230.585661 192.488365 
L 230.585661 192.488365 
" clip-path="url(#p3bf13a888e)" style="fill: none; stroke-dasharray: 2,3.3; stroke-dashoffset: 0; stroke: #663399; stroke-width: 2"/>
   </g>
   <g id="line2d_42">
    <path d="M 230.5854 192.4884 
L 230.5854 192.4884 
L 230.5854 192.488401 
L 230.585403 192.488407 
L 230.585406 192.488411 
L 230.585406 192.488417 
L 230.585392 192.488421 
L 230.585383 192.488425 
L 230.585389 192.488426 
L 230.585399 192.488429 
L 230.585436 192.488433 
L 230.585469 192.48843 
L 230.585487 192.488434 
L 230.585503 192.488436 
L 230.585517 192.488438 
L 230.585562 192.488431 
L 230.585625 192.488433 
L 230.585699 192.48844 
L 230.585782 192.488448 
L 230.585869 192.488457 
L 230.585957 192.488463 
L 230.586043 192.488466 
" clip-path="url(#p3bf13a888e)" style="fill: none; stroke: #663399; stroke-width: 2; stroke-linecap: square"/>
   </g>
   <g id="line2d_43">
    <path d="M 230.585342 224.920768 
L 230.585349 224.920751 
L 230.585357 224.920733 
L 230.585364 224.920717 
L 230.585371 224.920706 
L 230.585379 224.920701 
L 230.585386 224.920702 
L 230.585392 224.920709 
L 230.585397 224.92072 
L 230.585401 224.920732 
L 230.585403 224.920742 
L 230.585404 224.920746 
L 230.585404 224.920746 
" clip-path="url(#p3bf13a888e)" style="fill: none; stroke-dasharray: 2,3.3; stroke-dashoffset: 0; stroke: #8fbc8f; stroke-width: 2"/>
   </g>
   <g id="line2d_44">
    <path d="M 230.5854 224.9208 
L 230.5854 224.9208 
L 230.585398 224.920803 
L 230.585385 224.920825 
L 230.585374 224.920843 
L 230.585366 224.920859 
L 230.58536 224.920873 
L 230.585355 224.920875 
L 230.58535 224.920871 
L 230.585345 224.920863 
L 230.585339 224.920855 
L 230.585333 224.920853 
L 230.585327 224.920853 
L 230.585323 224.920851 
L 230.585321 224.920846 
L 230.585319 224.920843 
L 230.58532 224.920837 
L 230.585321 224.920829 
L 230.585324 224.92082 
L 230.58533 224.920803 
L 230.585336 224.920785 
L 230.585342 224.920768 
" clip-path="url(#p3bf13a888e)" style="fill: none; stroke: #8fbc8f; stroke-width: 2; stroke-linecap: square"/>
   </g>
   <g id="line2d_45">
    <path clip-path="url(#p3bf13a888e)" style="fill: none; stroke-dasharray: 2,3.3; stroke-dashoffset: 0; stroke: #00ced1; stroke-width: 2"/>
   </g>
   <g id="line2d_46">
    <path clip-path="url(#p3bf13a888e)" style="fill: none; stroke: #00ced1; stroke-width: 2; stroke-linecap: square"/>
   </g>
   <g id="line2d_47">
    <path d="M 165.720588 62.759026 
L 165.720596 62.759045 
L 165.720607 62.759061 
L 165.720618 62.759068 
L 165.720625 62.759058 
L 165.72063 62.759033 
L 165.720632 62.758993 
L 165.720633 62.758943 
L 165.720634 62.75889 
L 165.720637 62.758844 
L 165.720642 62.758815 
L 165.720647 62.758805 
L 165.720647 62.758805 
" clip-path="url(#p3bf13a888e)" style="fill: none; stroke-dasharray: 2,3.3; stroke-dashoffset: 0; stroke: #6a5acd; stroke-width: 2"/>
   </g>
   <g id="line2d_48">
    <path d="M 165.7206 62.7588 
L 165.7206 62.7588 
L 165.7206 62.758797 
L 165.720599 62.758767 
L 165.720603 62.758741 
L 165.720606 62.758721 
L 165.720609 62.758707 
L 165.720611 62.7587 
L 165.72061 62.758699 
L 165.720606 62.758707 
L 165.720599 62.758726 
L 165.72059 62.758749 
L 165.72058 62.758775 
L 165.720571 62.758803 
L 165.720562 62.758831 
L 165.720558 62.758862 
L 165.720558 62.758892 
L 165.720561 62.758923 
L 165.720566 62.758952 
L 165.720572 62.758979 
L 165.72058 62.759004 
L 165.720588 62.759026 
" clip-path="url(#p3bf13a888e)" style="fill: none; stroke: #6a5acd; stroke-width: 2; stroke-linecap: square"/>
   </g>
   <g id="line2d_49">
    <path d="M 165.720616 30.326522 
L 165.720617 30.326512 
L 165.720618 30.326499 
L 165.720619 30.326483 
L 165.720618 30.326465 
L 165.720617 30.326446 
L 165.720615 30.326426 
L 165.720611 30.326406 
L 165.720607 30.326388 
L 165.720603 30.326373 
L 165.720601 30.326365 
L 165.7206 30.326362 
L 165.7206 30.326362 
" clip-path="url(#p3bf13a888e)" style="fill: none; stroke-dasharray: 2,3.3; stroke-dashoffset: 0; stroke: #808000; stroke-width: 2"/>
   </g>
   <g id="line2d_50">
    <path d="M 165.7206 30.3264 
L 165.7206 30.3264 
L 165.7206 30.326398 
L 165.720603 30.326374 
L 165.720607 30.326333 
L 165.720608 30.326303 
L 165.720608 30.326285 
L 165.720609 30.326278 
L 165.720611 30.326286 
L 165.720616 30.326304 
L 165.720622 30.32633 
L 165.720624 30.32636 
L 165.720622 30.326408 
L 165.720619 30.326449 
L 165.720616 30.326482 
L 165.720615 30.326507 
L 165.720614 30.326522 
L 165.720613 30.326532 
L 165.720614 30.326535 
L 165.720614 30.326534 
L 165.720615 30.326529 
L 165.720616 30.326522 
" clip-path="url(#p3bf13a888e)" style="fill: none; stroke: #808000; stroke-width: 2; stroke-linecap: square"/>
   </g>
   <g id="line2d_51">
    <path clip-path="url(#p3bf13a888e)" style="fill: none; stroke-dasharray: 2,3.3; stroke-dashoffset: 0; stroke: #a0522d; stroke-width: 2"/>
   </g>
   <g id="line2d_52">
    <path clip-path="url(#p3bf13a888e)" style="fill: none; stroke: #a0522d; stroke-width: 2; stroke-linecap: square"/>
   </g>
   <g id="line2d_53">
    <path d="M 165.720572 192.488379 
L 165.720586 192.488346 
L 165.7206 192.488316 
L 165.720613 192.488292 
L 165.720622 192.488279 
L 165.720628 192.488278 
L 165.720631 192.488288 
L 165.720631 192.488307 
L 165.72063 192.488331 
L 165.720627 192.488356 
L 165.720624 192.488374 
L 165.720623 192.488382 
L 165.720623 192.488382 
" clip-path="url(#p3bf13a888e)" style="fill: none; stroke-dasharray: 2,3.3; stroke-dashoffset: 0; stroke: #ff4500; stroke-width: 2"/>
   </g>
   <g id="line2d_54">
    <path d="M 165.7206 192.4884 
L 165.7206 192.4884 
L 165.720601 192.488405 
L 165.720611 192.488452 
L 165.720617 192.488491 
L 165.720591 192.488535 
L 165.720574 192.488568 
L 165.720557 192.488592 
L 165.720554 192.48862 
L 165.720547 192.488655 
L 165.720505 192.488686 
L 165.72045 192.488683 
L 165.720421 192.488672 
L 165.720425 192.488655 
L 165.72044 192.488631 
L 165.720459 192.488601 
L 165.720479 192.488566 
L 165.7205 192.488528 
L 165.72052 192.488489 
L 165.720539 192.488451 
L 165.720556 192.488414 
L 165.720572 192.488379 
" clip-path="url(#p3bf13a888e)" style="fill: none; stroke: #ff4500; stroke-width: 2; stroke-linecap: square"/>
   </g>
   <g id="line2d_55">
    <path d="M 165.72066 224.920649 
L 165.720655 224.920657 
L 165.720649 224.920666 
L 165.720642 224.920678 
L 165.720635 224.920692 
L 165.720628 224.920708 
L 165.72062 224.920727 
L 165.720613 224.920748 
L 165.720606 224.920768 
L 165.7206 224.920785 
L 165.720597 224.920795 
L 165.720596 224.920799 
L 165.720596 224.920799 
" clip-path="url(#p3bf13a888e)" style="fill: none; stroke-dasharray: 2,3.3; stroke-dashoffset: 0; stroke: #708090; stroke-width: 2"/>
   </g>
   <g id="line2d_56">
    <path d="M 165.7206 224.9208 
L 165.7206 224.9208 
L 165.720602 224.920799 
L 165.720621 224.92079 
L 165.720636 224.920783 
L 165.720647 224.920788 
L 165.720655 224.920803 
L 165.720661 224.920807 
L 165.720666 224.920806 
L 165.720669 224.920799 
L 165.720672 224.920786 
L 165.720674 224.920768 
L 165.720677 224.920745 
L 165.72068 224.92072 
L 165.72068 224.920698 
L 165.720682 224.920675 
L 165.720682 224.920658 
L 165.720679 224.920647 
L 165.720676 224.920642 
L 165.720671 224.920639 
L 165.720666 224.920642 
L 165.72066 224.920649 
" clip-path="url(#p3bf13a888e)" style="fill: none; stroke: #708090; stroke-width: 2; stroke-linecap: square"/>
   </g>
   <g id="line2d_57">
    <path clip-path="url(#p3bf13a888e)" style="fill: none; stroke-dasharray: 2,3.3; stroke-dashoffset: 0; stroke: #bdb76b; stroke-width: 2"/>
   </g>
   <g id="line2d_58">
    <path clip-path="url(#p3bf13a888e)" style="fill: none; stroke: #bdb76b; stroke-width: 2; stroke-linecap: square"/>
   </g>
   <g id="patch_3">
    <path d="M 100.8558 224.9208 
L 100.8558 30.3264 
" style="fill: none; stroke: #000000; stroke-width: 0.8; stroke-linejoin: miter; stroke-linecap: square"/>
   </g>
   <g id="patch_4">
    <path d="M 295.4502 224.9208 
L 295.4502 30.3264 
" style="fill: none; stroke: #000000; stroke-width: 0.8; stroke-linejoin: miter; stroke-linecap: square"/>
   </g>
   <g id="patch_5">
    <path d="M 100.8558 224.9208 
L 295.4502 224.9208 
" style="fill: none; stroke: #000000; stroke-width: 0.8; stroke-linejoin: miter; stroke-linecap: square"/>
   </g>
   <g id="patch_6">
    <path d="M 100.8558 30.3264 
L 295.4502 30.3264 
" style="fill: none; stroke: #000000; stroke-width: 0.8; stroke-linejoin: miter; stroke-linecap: square"/>
   </g>
   <g id="patch_7">
    <path d="M 263.0178 137.35332 
C 265.598152 137.35332 268.073167 136.328135 269.897751 134.503551 
C 271.722336 132.678967 272.74752 130.203952 272.74752 127.6236 
C 272.74752 125.043248 271.722336 122.568233 269.897751 120.743649 
C 268.073167 118.919065 265.598152 117.89388 263.0178 117.89388 
C 260.437448 117.89388 257.962434 118.919065 256.137849 120.743649 
C 254.313265 122.568233 253.28808 125.043248 253.28808 127.6236 
C 253.28808 130.203952 254.313265 132.678967 256.137849 134.503551 
C 257.962434 136.328135 260.437448 137.35332 263.0178 137.35332 
z
" clip-path="url(#p3bf13a888e)" style="fill: #1f77b4; stroke: #000000; stroke-linejoin: miter"/>
   </g>
   <g id="patch_8">
    <path d="M 241.568181 140.920734 
C 244.148533 140.920734 246.623548 139.895549 248.448132 138.070965 
C 250.272717 136.246381 251.297901 133.771366 251.297901 131.191014 
C 251.297901 128.610662 250.272717 126.135647 248.448132 124.311063 
C 246.623548 122.486479 244.148533 121.461294 241.568181 121.461294 
C 238.987829 121.461294 236.512815 122.486479 234.68823 124.311063 
C 232.863646 126.135647 231.838461 128.610662 231.838461 131.191014 
C 231.838461 133.771366 232.863646 136.246381 234.68823 138.070965 
C 236.512815 139.895549 238.987829 140.920734 241.568181 140.920734 
z
" clip-path="url(#p3bf13a888e)" style="fill: #ff7f0e; stroke: #000000; stroke-linejoin: miter"/>
   </g>
   <g id="patch_9">
    <path d="M 133.288225 104.920658 
C 135.868577 104.920658 138.343592 103.895473 140.168176 102.070889 
C 141.992761 100.246304 143.017945 97.77129 143.017945 95.190938 
C 143.017945 92.610586 141.992761 90.135571 140.168176 88.310987 
C 138.343592 86.486403 135.868577 85.461218 133.288225 85.461218 
C 130.707874 85.461218 128.232859 86.486403 126.408274 88.310987 
C 124.58369 90.135571 123.558505 92.610586 123.558505 95.190938 
C 123.558505 97.77129 124.58369 100.246304 126.408274 102.070889 
C 128.232859 103.895473 130.707874 104.920658 133.288225 104.920658 
z
" clip-path="url(#p3bf13a888e)" style="fill: #2ca02c; stroke: #000000; stroke-linejoin: miter"/>
   </g>
   <g id="patch_10">
    <path d="M 165.720588 104.920974 
C 168.30094 104.920974 170.775955 103.89579 172.600539 102.071205 
C 174.425124 100.246621 175.450308 97.771606 175.450308 95.191254 
C 175.450308 92.610902 174.425124 90.135888 172.600539 88.311303 
C 170.775955 86.486719 168.30094 85.461534 165.720588 85.461534 
C 163.140237 85.461534 160.665222 86.486719 158.840637 88.311303 
C 157.016053 90.135888 155.990868 92.610902 155.990868 95.191254 
C 155.990868 97.771606 157.016053 100.246621 158.840637 102.071205 
C 160.665222 103.89579 163.140237 104.920974 165.720588 104.920974 
z
" clip-path="url(#p3bf13a888e)" style="fill: #d62728; stroke: #000000; stroke-linejoin: miter"/>
   </g>
   <g id="patch_11">
    <path d="M 230.585711 104.920296 
C 233.166063 104.920296 235.641078 103.895111 237.465662 102.070527 
C 239.290246 100.245943 240.315431 97.770928 240.315431 95.190576 
C 240.315431 92.610224 239.290246 90.135209 237.465662 88.310625 
C 235.641078 86.486041 233.166063 85.460856 230.585711 85.460856 
C 228.005359 85.460856 225.530344 86.486041 223.70576 88.310625 
C 221.881176 90.135209 220.855991 92.610224 220.855991 95.190576 
C 220.855991 97.770928 221.881176 100.245943 223.70576 102.070527 
C 225.530344 103.895111 228.005359 104.920296 230.585711 104.920296 
z
" clip-path="url(#p3bf13a888e)" style="fill: #9467bd; stroke: #000000; stroke-linejoin: miter"/>
   </g>
   <g id="patch_12">
    <path d="M 263.017766 104.920677 
C 265.598118 104.920677 268.073133 103.895493 269.897717 102.070908 
C 271.722301 100.246324 272.747486 97.771309 272.747486 95.190957 
C 272.747486 92.610606 271.722301 90.135591 269.897717 88.311006 
C 268.073133 86.486422 265.598118 85.461237 263.017766 85.461237 
C 260.437414 85.461237 257.962399 86.486422 256.137815 88.311006 
C 254.313231 90.135591 253.288046 92.610606 253.288046 95.190957 
C 253.288046 97.771309 254.313231 100.246324 256.137815 102.070908 
C 257.962399 103.895493 260.437414 104.920677 263.017766 104.920677 
z
" clip-path="url(#p3bf13a888e)" style="fill: #8c564b; stroke: #000000; stroke-linejoin: miter"/>
   </g>
   <g id="patch_13">
    <path d="M 133.288242 169.785929 
C 135.868594 169.785929 138.343609 168.760745 140.168193 166.93616 
C 141.992777 165.111576 143.017962 162.636561 143.017962 160.056209 
C 143.017962 157.475858 141.992777 155.000843 140.168193 153.176258 
C 138.343609 151.351674 135.868594 150.326489 133.288242 150.326489 
C 130.70789 150.326489 128.232875 151.351674 126.408291 153.176258 
C 124.583707 155.000843 123.558522 157.475858 123.558522 160.056209 
C 123.558522 162.636561 124.583707 165.111576 126.408291 166.93616 
C 128.232875 168.760745 130.70789 169.785929 133.288242 169.785929 
z
" clip-path="url(#p3bf13a888e)" style="fill: #e377c2; stroke: #000000; stroke-linejoin: miter"/>
   </g>
   <g id="patch_14">
    <path d="M 165.720526 169.785515 
C 168.300878 169.785515 170.775893 168.760331 172.600477 166.935746 
C 174.425061 165.111162 175.450246 162.636147 175.450246 160.055795 
C 175.450246 157.475444 174.425061 155.000429 172.600477 153.175844 
C 170.775893 151.35126 168.300878 150.326075 165.720526 150.326075 
C 163.140174 150.326075 160.665159 151.35126 158.840575 153.175844 
C 157.015991 155.000429 155.990806 157.475444 155.990806 160.055795 
C 155.990806 162.636147 157.015991 165.111162 158.840575 166.935746 
C 160.665159 168.760331 163.140174 169.785515 165.720526 169.785515 
z
" clip-path="url(#p3bf13a888e)" style="fill: #7f7f7f; stroke: #000000; stroke-linejoin: miter"/>
   </g>
   <g id="patch_15">
    <path d="M 230.585641 169.785753 
C 233.165993 169.785753 235.641008 168.760568 237.465592 166.935984 
C 239.290176 165.111399 240.315361 162.636385 240.315361 160.056033 
C 240.315361 157.475681 239.290176 155.000666 237.465592 153.176082 
C 235.641008 151.351497 233.165993 150.326313 230.585641 150.326313 
C 228.005289 150.326313 225.530274 151.351497 223.70569 153.176082 
C 221.881106 155.000666 220.855921 157.475681 220.855921 160.056033 
C 220.855921 162.636385 221.881106 165.111399 223.70569 166.935984 
C 225.530274 168.760568 228.005289 169.785753 230.585641 169.785753 
z
" clip-path="url(#p3bf13a888e)" style="fill: #bcbd22; stroke: #000000; stroke-linejoin: miter"/>
   </g>
   <g id="patch_16">
    <path d="M 263.017783 169.785947 
C 265.598135 169.785947 268.073149 168.760762 269.897734 166.936178 
C 271.722318 165.111594 272.747503 162.636579 272.747503 160.056227 
C 272.747503 157.475875 271.722318 155.00086 269.897734 153.176276 
C 268.073149 151.351692 265.598135 150.326507 263.017783 150.326507 
C 260.437431 150.326507 257.962416 151.351692 256.137832 153.176276 
C 254.313247 155.00086 253.288063 157.475875 253.288063 160.056227 
C 253.288063 162.636579 254.313247 165.111594 256.137832 166.936178 
C 257.962416 168.760762 260.437431 169.785947 263.017783 169.785947 
z
" clip-path="url(#p3bf13a888e)" style="fill: #17becf; stroke: #000000; stroke-linejoin: miter"/>
   </g>
   <g id="patch_17">
    <path d="M 230.585918 72.488579 
C 233.16627 72.488579 235.641284 71.463395 237.465869 69.63881 
C 239.290453 67.814226 240.315638 65.339211 240.315638 62.758859 
C 240.315638 60.178507 239.290453 57.703493 237.465869 55.878908 
C 235.641284 54.054324 233.16627 53.029139 230.585918 53.029139 
C 228.005566 53.029139 225.530551 54.054324 223.705967 55.878908 
C 221.881382 57.703493 220.856198 60.178507 220.856198 62.758859 
C 220.856198 65.339211 221.881382 67.814226 223.705967 69.63881 
C 225.530551 71.463395 228.005566 72.488579 230.585918 72.488579 
z
" clip-path="url(#p3bf13a888e)" style="fill: #2f4f4f; stroke: #000000; stroke-linejoin: miter"/>
   </g>
   <g id="patch_18">
    <path d="M 230.585337 40.056298 
C 233.165689 40.056298 235.640703 39.031113 237.465288 37.206529 
C 239.289872 35.381944 240.315057 32.90693 240.315057 30.326578 
C 240.315057 27.746226 239.289872 25.271211 237.465288 23.446627 
C 235.640703 21.622042 233.165689 20.596858 230.585337 20.596858 
C 228.004985 20.596858 225.52997 21.622042 223.705386 23.446627 
C 221.880801 25.271211 220.855617 27.746226 220.855617 30.326578 
C 220.855617 32.90693 221.880801 35.381944 223.705386 37.206529 
C 225.52997 39.031113 228.004985 40.056298 230.585337 40.056298 
z
" clip-path="url(#p3bf13a888e)" style="fill: #cd5c5c; stroke: #000000; stroke-linejoin: miter"/>
   </g>
   <g id="patch_19">
    <path d="M 230.586094 7.623642 
C 233.166446 7.623642 235.64146 6.598457 237.466045 4.773873 
C 239.290629 2.949289 240.315814 0.474274 240.315814 -2.106078 
C 240.315814 -4.68643 239.290629 -7.161445 237.466045 -8.986029 
C 235.64146 -10.810613 233.166446 -11.835798 230.586094 -11.835798 
C 228.005742 -11.835798 225.530727 -10.810613 223.706143 -8.986029 
C 221.881558 -7.161445 220.856374 -4.68643 220.856374 -2.106078 
C 220.856374 0.474274 221.881558 2.949289 223.706143 4.773873 
C 225.530727 6.598457 228.005742 7.623642 230.586094 7.623642 
z
" clip-path="url(#p3bf13a888e)" style="fill: #add8e6; stroke: #000000; stroke-linejoin: miter"/>
   </g>
   <g id="patch_20">
    <path d="M 230.586043 202.218186 
C 233.166395 202.218186 235.64141 201.193001 237.465994 199.368417 
C 239.290578 197.543832 240.315763 195.068818 240.315763 192.488466 
C 240.315763 189.908114 239.290578 187.433099 237.465994 185.608515 
C 235.64141 183.78393 233.166395 182.758746 230.586043 182.758746 
C 228.005691 182.758746 225.530676 183.78393 223.706092 185.608515 
C 221.881508 187.433099 220.856323 189.908114 220.856323 192.488466 
C 220.856323 195.068818 221.881508 197.543832 223.706092 199.368417 
C 225.530676 201.193001 228.005691 202.218186 230.586043 202.218186 
z
" clip-path="url(#p3bf13a888e)" style="fill: #663399; stroke: #000000; stroke-linejoin: miter"/>
   </g>
   <g id="patch_21">
    <path d="M 230.585342 234.650488 
C 233.165694 234.650488 235.640709 233.625303 237.465293 231.800719 
C 239.289878 229.976134 240.315062 227.50112 240.315062 224.920768 
C 240.315062 222.340416 239.289878 219.865401 237.465293 218.040817 
C 235.640709 216.216233 233.165694 215.191048 230.585342 215.191048 
C 228.004991 215.191048 225.529976 216.216233 223.705391 218.040817 
C 221.880807 219.865401 220.855622 222.340416 220.855622 224.920768 
C 220.855622 227.50112 221.880807 229.976134 223.705391 231.800719 
C 225.529976 233.625303 228.004991 234.650488 230.585342 234.650488 
z
" clip-path="url(#p3bf13a888e)" style="fill: #8fbc8f; stroke: #000000; stroke-linejoin: miter"/>
   </g>
   <g id="patch_22">
    <path d="M 230.586336 267.082934 
C 233.166688 267.082934 235.641703 266.05775 237.466287 264.233165 
C 239.290872 262.408581 240.316056 259.933566 240.316056 257.353214 
C 240.316056 254.772862 239.290872 252.297848 237.466287 250.473263 
C 235.641703 248.648679 233.166688 247.623494 230.586336 247.623494 
C 228.005985 247.623494 225.53097 248.648679 223.706385 250.473263 
C 221.881801 252.297848 220.856616 254.772862 220.856616 257.353214 
C 220.856616 259.933566 221.881801 262.408581 223.706385 264.233165 
C 225.53097 266.05775 228.005985 267.082934 230.586336 267.082934 
z
" clip-path="url(#p3bf13a888e)" style="fill: #00ced1; stroke: #000000; stroke-linejoin: miter"/>
   </g>
   <g id="patch_23">
    <path d="M 165.720588 72.488746 
C 168.30094 72.488746 170.775955 71.463561 172.600539 69.638977 
C 174.425123 67.814392 175.450308 65.339377 175.450308 62.759026 
C 175.450308 60.178674 174.425123 57.703659 172.600539 55.879075 
C 170.775955 54.05449 168.30094 53.029306 165.720588 53.029306 
C 163.140236 53.029306 160.665221 54.05449 158.840637 55.879075 
C 157.016053 57.703659 155.990868 60.178674 155.990868 62.759026 
C 155.990868 65.339377 157.016053 67.814392 158.840637 69.638977 
C 160.665221 71.463561 163.140236 72.488746 165.720588 72.488746 
z
" clip-path="url(#p3bf13a888e)" style="fill: #6a5acd; stroke: #000000; stroke-linejoin: miter"/>
   </g>
   <g id="patch_24">
    <path d="M 165.720616 40.056242 
C 168.300968 40.056242 170.775983 39.031057 172.600567 37.206473 
C 174.425151 35.381888 175.450336 32.906873 175.450336 30.326522 
C 175.450336 27.74617 174.425151 25.271155 172.600567 23.446571 
C 170.775983 21.621986 168.300968 20.596802 165.720616 20.596802 
C 163.140264 20.596802 160.665249 21.621986 158.840665 23.446571 
C 157.016081 25.271155 155.990896 27.74617 155.990896 30.326522 
C 155.990896 32.906873 157.016081 35.381888 158.840665 37.206473 
C 160.665249 39.031057 163.140264 40.056242 165.720616 40.056242 
z
" clip-path="url(#p3bf13a888e)" style="fill: #808000; stroke: #000000; stroke-linejoin: miter"/>
   </g>
   <g id="patch_25">
    <path d="M 165.720577 7.623711 
C 168.300929 7.623711 170.775943 6.598527 172.600528 4.773942 
C 174.425112 2.949358 175.450297 0.474343 175.450297 -2.106009 
C 175.450297 -4.686361 174.425112 -7.161375 172.600528 -8.98596 
C 170.775943 -10.810544 168.300929 -11.835729 165.720577 -11.835729 
C 163.140225 -11.835729 160.66521 -10.810544 158.840626 -8.98596 
C 157.016041 -7.161375 155.990857 -4.686361 155.990857 -2.106009 
C 155.990857 0.474343 157.016041 2.949358 158.840626 4.773942 
C 160.66521 6.598527 163.140225 7.623711 165.720577 7.623711 
z
" clip-path="url(#p3bf13a888e)" style="fill: #a0522d; stroke: #000000; stroke-linejoin: miter"/>
   </g>
   <g id="patch_26">
    <path d="M 165.720572 202.218099 
C 168.300923 202.218099 170.775938 201.192914 172.600523 199.36833 
C 174.425107 197.543745 175.450292 195.06873 175.450292 192.488379 
C 175.450292 189.908027 174.425107 187.433012 172.600523 185.608428 
C 170.775938 183.783843 168.300923 182.758659 165.720572 182.758659 
C 163.14022 182.758659 160.665205 183.783843 158.840621 185.608428 
C 157.016036 187.433012 155.990852 189.908027 155.990852 192.488379 
C 155.990852 195.06873 157.016036 197.543745 158.840621 199.36833 
C 160.665205 201.192914 163.14022 202.218099 165.720572 202.218099 
z
" clip-path="url(#p3bf13a888e)" style="fill: #ff4500; stroke: #000000; stroke-linejoin: miter"/>
   </g>
   <g id="patch_27">
    <path d="M 165.72066 234.650369 
C 168.301012 234.650369 170.776027 233.625184 172.600611 231.8006 
C 174.425196 229.976015 175.45038 227.501001 175.45038 224.920649 
C 175.45038 222.340297 174.425196 219.865282 172.600611 218.040698 
C 170.776027 216.216113 168.301012 215.190929 165.72066 215.190929 
C 163.140309 215.190929 160.665294 216.216113 158.840709 218.040698 
C 157.016125 219.865282 155.99094 222.340297 155.99094 224.920649 
C 155.99094 227.501001 157.016125 229.976015 158.840709 231.8006 
C 160.665294 233.625184 163.140309 234.650369 165.72066 234.650369 
z
" clip-path="url(#p3bf13a888e)" style="fill: #708090; stroke: #000000; stroke-linejoin: miter"/>
   </g>
   <g id="patch_28">
    <path d="M 165.720206 267.082928 
C 168.300558 267.082928 170.775572 266.057744 172.600157 264.233159 
C 174.424741 262.408575 175.449926 259.93356 175.449926 257.353208 
C 175.449926 254.772857 174.424741 252.297842 172.600157 250.473257 
C 170.775572 248.648673 168.300558 247.623488 165.720206 247.623488 
C 163.139854 247.623488 160.664839 248.648673 158.840255 250.473257 
C 157.01567 252.297842 155.990486 254.772857 155.990486 257.353208 
C 155.990486 259.93356 157.01567 262.408575 158.840255 264.233159 
C 160.664839 266.057744 163.139854 267.082928 165.720206 267.082928 
z
" clip-path="url(#p3bf13a888e)" style="fill: #bdb76b; stroke: #000000; stroke-linejoin: miter"/>
   </g>
   <g id="line2d_59">
    <path d="M 263.0178 127.6236 
" clip-path="url(#p3bf13a888e)" style="fill: none; stroke: #1f77b4; stroke-width: 1.5; stroke-linecap: square"/>
    <defs>
     <path id="m11e83338b5" d="M 0 4.949747 
L 2.969848 0 
L 0 -4.949747 
L -2.969848 0 
z
" style="stroke: #000000; stroke-linejoin: miter"/>
    </defs>
    <g clip-path="url(#p3bf13a888e)">
     <use xlink:href="#m11e83338b5" x="263.0178" y="127.6236" style="fill: #1f77b4; stroke: #000000; stroke-linejoin: miter"/>
    </g>
   </g>
   <g id="line2d_60">
    <path d="M 263.0178 127.6236 
" clip-path="url(#p3bf13a888e)" style="fill: none; stroke: #ff7f0e; stroke-width: 1.5; stroke-linecap: square"/>
    <defs>
     <path id="md8c3efb353" d="M 0 4.949747 
L 2.969848 0 
L 0 -4.949747 
L -2.969848 0 
z
" style="stroke: #000000; stroke-linejoin: miter"/>
    </defs>
    <g clip-path="url(#p3bf13a888e)">
     <use xlink:href="#md8c3efb353" x="263.0178" y="127.6236" style="fill: #ff7f0e; stroke: #000000; stroke-linejoin: miter"/>
    </g>
   </g>
   <g id="line2d_61">
    <path d="M 133.2882 95.1912 
" clip-path="url(#p3bf13a888e)" style="fill: none; stroke: #2ca02c; stroke-width: 1.5; stroke-linecap: square"/>
    <defs>
     <path id="mb68e54b490" d="M 0 4.949747 
L 2.969848 0 
L 0 -4.949747 
L -2.969848 0 
z
" style="stroke: #000000; stroke-linejoin: miter"/>
    </defs>
    <g clip-path="url(#p3bf13a888e)">
     <use xlink:href="#mb68e54b490" x="133.2882" y="95.1912" style="fill: #2ca02c; stroke: #000000; stroke-linejoin: miter"/>
    </g>
   </g>
   <g id="line2d_62">
    <path d="M 165.7206 95.1912 
" clip-path="url(#p3bf13a888e)" style="fill: none; stroke: #d62728; stroke-width: 1.5; stroke-linecap: square"/>
    <defs>
     <path id="m61c3164cac" d="M 0 4.949747 
L 2.969848 0 
L 0 -4.949747 
L -2.969848 0 
z
" style="stroke: #000000; stroke-linejoin: miter"/>
    </defs>
    <g clip-path="url(#p3bf13a888e)">
     <use xlink:href="#m61c3164cac" x="165.7206" y="95.1912" style="fill: #d62728; stroke: #000000; stroke-linejoin: miter"/>
    </g>
   </g>
   <g id="line2d_63">
    <path d="M 230.5854 95.1912 
" clip-path="url(#p3bf13a888e)" style="fill: none; stroke: #9467bd; stroke-width: 1.5; stroke-linecap: square"/>
    <defs>
     <path id="m137b1e0ec2" d="M 0 4.949747 
L 2.969848 0 
L 0 -4.949747 
L -2.969848 0 
z
" style="stroke: #000000; stroke-linejoin: miter"/>
    </defs>
    <g clip-path="url(#p3bf13a888e)">
     <use xlink:href="#m137b1e0ec2" x="230.5854" y="95.1912" style="fill: #9467bd; stroke: #000000; stroke-linejoin: miter"/>
    </g>
   </g>
   <g id="line2d_64">
    <path d="M 263.0178 95.1912 
" clip-path="url(#p3bf13a888e)" style="fill: none; stroke: #8c564b; stroke-width: 1.5; stroke-linecap: square"/>
    <defs>
     <path id="m387c5f2c81" d="M 0 4.949747 
L 2.969848 0 
L 0 -4.949747 
L -2.969848 0 
z
" style="stroke: #000000; stroke-linejoin: miter"/>
    </defs>
    <g clip-path="url(#p3bf13a888e)">
     <use xlink:href="#m387c5f2c81" x="263.0178" y="95.1912" style="fill: #8c564b; stroke: #000000; stroke-linejoin: miter"/>
    </g>
   </g>
   <g id="line2d_65">
    <path d="M 133.2882 160.056 
" clip-path="url(#p3bf13a888e)" style="fill: none; stroke: #e377c2; stroke-width: 1.5; stroke-linecap: square"/>
    <defs>
     <path id="m39626af299" d="M 0 4.949747 
L 2.969848 0 
L 0 -4.949747 
L -2.969848 0 
z
" style="stroke: #000000; stroke-linejoin: miter"/>
    </defs>
    <g clip-path="url(#p3bf13a888e)">
     <use xlink:href="#m39626af299" x="133.2882" y="160.056" style="fill: #e377c2; stroke: #000000; stroke-linejoin: miter"/>
    </g>
   </g>
   <g id="line2d_66">
    <path d="M 165.7206 160.056 
" clip-path="url(#p3bf13a888e)" style="fill: none; stroke: #7f7f7f; stroke-width: 1.5; stroke-linecap: square"/>
    <defs>
     <path id="me608a3d408" d="M 0 4.949747 
L 2.969848 0 
L 0 -4.949747 
L -2.969848 0 
z
" style="stroke: #000000; stroke-linejoin: miter"/>
    </defs>
    <g clip-path="url(#p3bf13a888e)">
     <use xlink:href="#me608a3d408" x="165.7206" y="160.056" style="fill: #7f7f7f; stroke: #000000; stroke-linejoin: miter"/>
    </g>
   </g>
   <g id="line2d_67">
    <path d="M 230.5854 160.056 
" clip-path="url(#p3bf13a888e)" style="fill: none; stroke: #bcbd22; stroke-width: 1.5; stroke-linecap: square"/>
    <defs>
     <path id="m28db2b65e0" d="M 0 4.949747 
L 2.969848 0 
L 0 -4.949747 
L -2.969848 0 
z
" style="stroke: #000000; stroke-linejoin: miter"/>
    </defs>
    <g clip-path="url(#p3bf13a888e)">
     <use xlink:href="#m28db2b65e0" x="230.5854" y="160.056" style="fill: #bcbd22; stroke: #000000; stroke-linejoin: miter"/>
    </g>
   </g>
   <g id="line2d_68">
    <path d="M 263.0178 160.056 
" clip-path="url(#p3bf13a888e)" style="fill: none; stroke: #17becf; stroke-width: 1.5; stroke-linecap: square"/>
    <defs>
     <path id="m83e238dfcd" d="M 0 4.949747 
L 2.969848 0 
L 0 -4.949747 
L -2.969848 0 
z
" style="stroke: #000000; stroke-linejoin: miter"/>
    </defs>
    <g clip-path="url(#p3bf13a888e)">
     <use xlink:href="#m83e238dfcd" x="263.0178" y="160.056" style="fill: #17becf; stroke: #000000; stroke-linejoin: miter"/>
    </g>
   </g>
   <g id="line2d_69">
    <path d="M 230.5854 62.7588 
" clip-path="url(#p3bf13a888e)" style="fill: none; stroke: #2f4f4f; stroke-width: 1.5; stroke-linecap: square"/>
    <defs>
     <path id="m135de4c1eb" d="M 0 4.949747 
L 2.969848 0 
L 0 -4.949747 
L -2.969848 0 
z
" style="stroke: #000000; stroke-linejoin: miter"/>
    </defs>
    <g clip-path="url(#p3bf13a888e)">
     <use xlink:href="#m135de4c1eb" x="230.5854" y="62.7588" style="fill: #2f4f4f; stroke: #000000; stroke-linejoin: miter"/>
    </g>
   </g>
   <g id="line2d_70">
    <path d="M 230.5854 30.3264 
" clip-path="url(#p3bf13a888e)" style="fill: none; stroke: #cd5c5c; stroke-width: 1.5; stroke-linecap: square"/>
    <defs>
     <path id="m34956d761d" d="M 0 4.949747 
L 2.969848 0 
L 0 -4.949747 
L -2.969848 0 
z
" style="stroke: #000000; stroke-linejoin: miter"/>
    </defs>
    <g clip-path="url(#p3bf13a888e)">
     <use xlink:href="#m34956d761d" x="230.5854" y="30.3264" style="fill: #cd5c5c; stroke: #000000; stroke-linejoin: miter"/>
    </g>
   </g>
   <g id="line2d_71">
    <path clip-path="url(#p3bf13a888e)" style="fill: none; stroke: #add8e6; stroke-width: 1.5; stroke-linecap: square"/>
    <defs>
     <path id="mae3e8b35a1" d="M 0 4.949747 
L 2.969848 0 
L 0 -4.949747 
L -2.969848 0 
z
" style="stroke: #000000; stroke-linejoin: miter"/>
    </defs>
    <g clip-path="url(#p3bf13a888e)"/>
   </g>
   <g id="line2d_72">
    <path d="M 230.5854 192.4884 
" clip-path="url(#p3bf13a888e)" style="fill: none; stroke: #663399; stroke-width: 1.5; stroke-linecap: square"/>
    <defs>
     <path id="mf0ac8df9c9" d="M 0 4.949747 
L 2.969848 0 
L 0 -4.949747 
L -2.969848 0 
z
" style="stroke: #000000; stroke-linejoin: miter"/>
    </defs>
    <g clip-path="url(#p3bf13a888e)">
     <use xlink:href="#mf0ac8df9c9" x="230.5854" y="192.4884" style="fill: #663399; stroke: #000000; stroke-linejoin: miter"/>
    </g>
   </g>
   <g id="line2d_73">
    <path d="M 230.5854 224.9208 
" clip-path="url(#p3bf13a888e)" style="fill: none; stroke: #8fbc8f; stroke-width: 1.5; stroke-linecap: square"/>
    <defs>
     <path id="m3f45b519b4" d="M 0 4.949747 
L 2.969848 0 
L 0 -4.949747 
L -2.969848 0 
z
" style="stroke: #000000; stroke-linejoin: miter"/>
    </defs>
    <g clip-path="url(#p3bf13a888e)">
     <use xlink:href="#m3f45b519b4" x="230.5854" y="224.9208" style="fill: #8fbc8f; stroke: #000000; stroke-linejoin: miter"/>
    </g>
   </g>
   <g id="line2d_74">
    <path clip-path="url(#p3bf13a888e)" style="fill: none; stroke: #00ced1; stroke-width: 1.5; stroke-linecap: square"/>
    <defs>
     <path id="mbedd7cf2d1" d="M 0 4.949747 
L 2.969848 0 
L 0 -4.949747 
L -2.969848 0 
z
" style="stroke: #000000; stroke-linejoin: miter"/>
    </defs>
    <g clip-path="url(#p3bf13a888e)">
     <use xlink:href="#mbedd7cf2d1" x="230.5854" y="257.3532" style="fill: #00ced1; stroke: #000000; stroke-linejoin: miter"/>
    </g>
   </g>
   <g id="line2d_75">
    <path d="M 165.7206 62.7588 
" clip-path="url(#p3bf13a888e)" style="fill: none; stroke: #6a5acd; stroke-width: 1.5; stroke-linecap: square"/>
    <defs>
     <path id="m2311abfedf" d="M 0 4.949747 
L 2.969848 0 
L 0 -4.949747 
L -2.969848 0 
z
" style="stroke: #000000; stroke-linejoin: miter"/>
    </defs>
    <g clip-path="url(#p3bf13a888e)">
     <use xlink:href="#m2311abfedf" x="165.7206" y="62.7588" style="fill: #6a5acd; stroke: #000000; stroke-linejoin: miter"/>
    </g>
   </g>
   <g id="line2d_76">
    <path d="M 165.7206 30.3264 
" clip-path="url(#p3bf13a888e)" style="fill: none; stroke: #808000; stroke-width: 1.5; stroke-linecap: square"/>
    <defs>
     <path id="m61c9f912f2" d="M 0 4.949747 
L 2.969848 0 
L 0 -4.949747 
L -2.969848 0 
z
" style="stroke: #000000; stroke-linejoin: miter"/>
    </defs>
    <g clip-path="url(#p3bf13a888e)">
     <use xlink:href="#m61c9f912f2" x="165.7206" y="30.3264" style="fill: #808000; stroke: #000000; stroke-linejoin: miter"/>
    </g>
   </g>
   <g id="line2d_77">
    <path clip-path="url(#p3bf13a888e)" style="fill: none; stroke: #a0522d; stroke-width: 1.5; stroke-linecap: square"/>
    <defs>
     <path id="m8f3e10a7bb" d="M 0 4.949747 
L 2.969848 0 
L 0 -4.949747 
L -2.969848 0 
z
" style="stroke: #000000; stroke-linejoin: miter"/>
    </defs>
    <g clip-path="url(#p3bf13a888e)"/>
   </g>
   <g id="line2d_78">
    <path d="M 165.7206 192.4884 
" clip-path="url(#p3bf13a888e)" style="fill: none; stroke: #ff4500; stroke-width: 1.5; stroke-linecap: square"/>
    <defs>
     <path id="mc68f24848d" d="M 0 4.949747 
L 2.969848 0 
L 0 -4.949747 
L -2.969848 0 
z
" style="stroke: #000000; stroke-linejoin: miter"/>
    </defs>
    <g clip-path="url(#p3bf13a888e)">
     <use xlink:href="#mc68f24848d" x="165.7206" y="192.4884" style="fill: #ff4500; stroke: #000000; stroke-linejoin: miter"/>
    </g>
   </g>
   <g id="line2d_79">
    <path d="M 165.7206 224.9208 
" clip-path="url(#p3bf13a888e)" style="fill: none; stroke: #708090; stroke-width: 1.5; stroke-linecap: square"/>
    <defs>
     <path id="mcd56be0b79" d="M 0 4.949747 
L 2.969848 0 
L 0 -4.949747 
L -2.969848 0 
z
" style="stroke: #000000; stroke-linejoin: miter"/>
    </defs>
    <g clip-path="url(#p3bf13a888e)">
     <use xlink:href="#mcd56be0b79" x="165.7206" y="224.9208" style="fill: #708090; stroke: #000000; stroke-linejoin: miter"/>
    </g>
   </g>
   <g id="line2d_80">
    <path clip-path="url(#p3bf13a888e)" style="fill: none; stroke: #bdb76b; stroke-width: 1.5; stroke-linecap: square"/>
    <defs>
     <path id="m106f803914" d="M 0 4.949747 
L 2.969848 0 
L 0 -4.949747 
L -2.969848 0 
z
" style="stroke: #000000; stroke-linejoin: miter"/>
    </defs>
    <g clip-path="url(#p3bf13a888e)">
     <use xlink:href="#m106f803914" x="165.7206" y="257.3532" style="fill: #bdb76b; stroke: #000000; stroke-linejoin: miter"/>
    </g>
   </g>
  </g>
 </g>
 <defs>
  <clipPath id="p3bf13a888e">
   <rect x="100.8558" y="30.3264" width="194.5944" height="194.5944"/>
  </clipPath>
 </defs>
</svg>
