<?xml version="1.0" encoding="utf-8" standalone="no"?>
<!DOCTYPE svg PUBLIC "-//W3C//DTD SVG 1.1//EN"
  "http://www.w3.org/Graphics/SVG/1.1/DTD/svg11.dtd">
<svg xmlns:xlink="http://www.w3.org/1999/xlink" width="386.64pt" height="252.72pt" viewBox="0 0 386.64 252.72" xmlns="http://www.w3.org/2000/svg" version="1.1">
 <metadata>
  <rdf:RDF xmlns:dc="http://purl.org/dc/elements/1.1/" xmlns:cc="http://creativecommons.org/ns#" xmlns:rdf="http://www.w3.org/1999/02/22-rdf-syntax-ns#">
   <cc:Work>
    <dc:type rdf:resource="http://purl.org/dc/dcmitype/StillImage"/>
    <dc:date>2023-07-11T22:26:54.276191</dc:date>
    <dc:format>image/svg+xml</dc:format>
    <dc:creator>
     <cc:Agent>
      <dc:title>Matplotlib v3.6.2, https://matplotlib.org/</dc:title>
     </cc:Agent>
    </dc:creator>
   </cc:Work>
  </rdf:RDF>
 </metadata>
 <defs>
  <style type="text/css">*{stroke-linejoin: round; stroke-linecap: butt}</style>
 </defs>
 <g id="figure_1">
  <g id="patch_1">
   <path d="M 0 252.72 
L 386.64 252.72 
L 386.64 0 
L 0 0 
z
" style="fill: #ffffff"/>
  </g>
  <g id="axes_1">
   <g id="patch_2">
    <path d="M 100.8558 224.9208 
L 295.4502 224.9208 
L 295.4502 30.3264 
L 100.8558 30.3264 
z
" style="fill: #ffffff"/>
   </g>
   <g id="matplotlib.axis_1">
    <g id="xtick_1">
     <g id="line2d_1">
      <defs>
       <path id="m43c80f392a" d="M 0 0 
L 0 3.5 
" style="stroke: #000000; stroke-width: 0.8"/>
      </defs>
      <g>
       <use xlink:href="#m43c80f392a" x="100.8558" y="224.9208" style="stroke: #000000; stroke-width: 0.8"/>
      </g>
     </g>
     <g id="text_1">
      <!-- −0.5 -->
      <g transform="translate(88.714394 239.519237) scale(0.1 -0.1)">
       <defs>
        <path id="DejaVuSans-2212" d="M 678 2272 
L 4684 2272 
L 4684 1741 
L 678 1741 
L 678 2272 
z
" transform="scale(0.015625)"/>
        <path id="DejaVuSans-30" d="M 2034 4250 
Q 1547 4250 1301 3770 
Q 1056 3291 1056 2328 
Q 1056 1369 1301 889 
Q 1547 409 2034 409 
Q 2525 409 2770 889 
Q 3016 1369 3016 2328 
Q 3016 3291 2770 3770 
Q 2525 4250 2034 4250 
z
M 2034 4750 
Q 2819 4750 3233 4129 
Q 3647 3509 3647 2328 
Q 3647 1150 3233 529 
Q 2819 -91 2034 -91 
Q 1250 -91 836 529 
Q 422 1150 422 2328 
Q 422 3509 836 4129 
Q 1250 4750 2034 4750 
z
" transform="scale(0.015625)"/>
        <path id="DejaVuSans-2e" d="M 684 794 
L 1344 794 
L 1344 0 
L 684 0 
L 684 794 
z
" transform="scale(0.015625)"/>
        <path id="DejaVuSans-35" d="M 691 4666 
L 3169 4666 
L 3169 4134 
L 1269 4134 
L 1269 2991 
Q 1406 3038 1543 3061 
Q 1681 3084 1819 3084 
Q 2600 3084 3056 2656 
Q 3513 2228 3513 1497 
Q 3513 744 3044 326 
Q 2575 -91 1722 -91 
Q 1428 -91 1123 -41 
Q 819 9 494 109 
L 494 744 
Q 775 591 1075 516 
Q 1375 441 1709 441 
Q 2250 441 2565 725 
Q 2881 1009 2881 1497 
Q 2881 1984 2565 2268 
Q 2250 2553 1709 2553 
Q 1456 2553 1204 2497 
Q 953 2441 691 2322 
L 691 4666 
z
" transform="scale(0.015625)"/>
       </defs>
       <use xlink:href="#DejaVuSans-2212"/>
       <use xlink:href="#DejaVuSans-30" x="83.789062"/>
       <use xlink:href="#DejaVuSans-2e" x="147.412109"/>
       <use xlink:href="#DejaVuSans-35" x="179.199219"/>
      </g>
     </g>
    </g>
    <g id="xtick_2">
     <g id="line2d_2">
      <g>
       <use xlink:href="#m43c80f392a" x="133.2882" y="224.9208" style="stroke: #000000; stroke-width: 0.8"/>
      </g>
     </g>
     <g id="text_2">
      <!-- 0.0 -->
      <g transform="translate(125.336638 239.519237) scale(0.1 -0.1)">
       <use xlink:href="#DejaVuSans-30"/>
       <use xlink:href="#DejaVuSans-2e" x="63.623047"/>
       <use xlink:href="#DejaVuSans-30" x="95.410156"/>
      </g>
     </g>
    </g>
    <g id="xtick_3">
     <g id="line2d_3">
      <g>
       <use xlink:href="#m43c80f392a" x="165.7206" y="224.9208" style="stroke: #000000; stroke-width: 0.8"/>
      </g>
     </g>
     <g id="text_3">
      <!-- 0.5 -->
      <g transform="translate(157.769037 239.519237) scale(0.1 -0.1)">
       <use xlink:href="#DejaVuSans-30"/>
       <use xlink:href="#DejaVuSans-2e" x="63.623047"/>
       <use xlink:href="#DejaVuSans-35" x="95.410156"/>
      </g>
     </g>
    </g>
    <g id="xtick_4">
     <g id="line2d_4">
      <g>
       <use xlink:href="#m43c80f392a" x="198.153" y="224.9208" style="stroke: #000000; stroke-width: 0.8"/>
      </g>
     </g>
     <g id="text_4">
      <!-- 1.0 -->
      <g transform="translate(190.201437 239.519237) scale(0.1 -0.1)">
       <defs>
        <path id="DejaVuSans-31" d="M 794 531 
L 1825 531 
L 1825 4091 
L 703 3866 
L 703 4441 
L 1819 4666 
L 2450 4666 
L 2450 531 
L 3481 531 
L 3481 0 
L 794 0 
L 794 531 
z
" transform="scale(0.015625)"/>
       </defs>
       <use xlink:href="#DejaVuSans-31"/>
       <use xlink:href="#DejaVuSans-2e" x="63.623047"/>
       <use xlink:href="#DejaVuSans-30" x="95.410156"/>
      </g>
     </g>
    </g>
    <g id="xtick_5">
     <g id="line2d_5">
      <g>
       <use xlink:href="#m43c80f392a" x="230.5854" y="224.9208" style="stroke: #000000; stroke-width: 0.8"/>
      </g>
     </g>
     <g id="text_5">
      <!-- 1.5 -->
      <g transform="translate(222.633837 239.519237) scale(0.1 -0.1)">
       <use xlink:href="#DejaVuSans-31"/>
       <use xlink:href="#DejaVuSans-2e" x="63.623047"/>
       <use xlink:href="#DejaVuSans-35" x="95.410156"/>
      </g>
     </g>
    </g>
    <g id="xtick_6">
     <g id="line2d_6">
      <g>
       <use xlink:href="#m43c80f392a" x="263.0178" y="224.9208" style="stroke: #000000; stroke-width: 0.8"/>
      </g>
     </g>
     <g id="text_6">
      <!-- 2.0 -->
      <g transform="translate(255.066237 239.519237) scale(0.1 -0.1)">
       <defs>
        <path id="DejaVuSans-32" d="M 1228 531 
L 3431 531 
L 3431 0 
L 469 0 
L 469 531 
Q 828 903 1448 1529 
Q 2069 2156 2228 2338 
Q 2531 2678 2651 2914 
Q 2772 3150 2772 3378 
Q 2772 3750 2511 3984 
Q 2250 4219 1831 4219 
Q 1534 4219 1204 4116 
Q 875 4013 500 3803 
L 500 4441 
Q 881 4594 1212 4672 
Q 1544 4750 1819 4750 
Q 2544 4750 2975 4387 
Q 3406 4025 3406 3419 
Q 3406 3131 3298 2873 
Q 3191 2616 2906 2266 
Q 2828 2175 2409 1742 
Q 1991 1309 1228 531 
z
" transform="scale(0.015625)"/>
       </defs>
       <use xlink:href="#DejaVuSans-32"/>
       <use xlink:href="#DejaVuSans-2e" x="63.623047"/>
       <use xlink:href="#DejaVuSans-30" x="95.410156"/>
      </g>
     </g>
    </g>
    <g id="xtick_7">
     <g id="line2d_7">
      <g>
       <use xlink:href="#m43c80f392a" x="295.4502" y="224.9208" style="stroke: #000000; stroke-width: 0.8"/>
      </g>
     </g>
     <g id="text_7">
      <!-- 2.5 -->
      <g transform="translate(287.498637 239.519237) scale(0.1 -0.1)">
       <use xlink:href="#DejaVuSans-32"/>
       <use xlink:href="#DejaVuSans-2e" x="63.623047"/>
       <use xlink:href="#DejaVuSans-35" x="95.410156"/>
      </g>
     </g>
    </g>
    <g id="text_8">
     <!-- x(m) -->
     <g transform="translate(186.42175 253.197362) scale(0.1 -0.1)">
      <defs>
       <path id="DejaVuSans-78" d="M 3513 3500 
L 2247 1797 
L 3578 0 
L 2900 0 
L 1881 1375 
L 863 0 
L 184 0 
L 1544 1831 
L 300 3500 
L 978 3500 
L 1906 2253 
L 2834 3500 
L 3513 3500 
z
" transform="scale(0.015625)"/>
       <path id="DejaVuSans-28" d="M 1984 4856 
Q 1566 4138 1362 3434 
Q 1159 2731 1159 2009 
Q 1159 1288 1364 580 
Q 1569 -128 1984 -844 
L 1484 -844 
Q 1016 -109 783 600 
Q 550 1309 550 2009 
Q 550 2706 781 3412 
Q 1013 4119 1484 4856 
L 1984 4856 
z
" transform="scale(0.015625)"/>
       <path id="DejaVuSans-6d" d="M 3328 2828 
Q 3544 3216 3844 3400 
Q 4144 3584 4550 3584 
Q 5097 3584 5394 3201 
Q 5691 2819 5691 2113 
L 5691 0 
L 5113 0 
L 5113 2094 
Q 5113 2597 4934 2840 
Q 4756 3084 4391 3084 
Q 3944 3084 3684 2787 
Q 3425 2491 3425 1978 
L 3425 0 
L 2847 0 
L 2847 2094 
Q 2847 2600 2669 2842 
Q 2491 3084 2119 3084 
Q 1678 3084 1418 2786 
Q 1159 2488 1159 1978 
L 1159 0 
L 581 0 
L 581 3500 
L 1159 3500 
L 1159 2956 
Q 1356 3278 1631 3431 
Q 1906 3584 2284 3584 
Q 2666 3584 2933 3390 
Q 3200 3197 3328 2828 
z
" transform="scale(0.015625)"/>
       <path id="DejaVuSans-29" d="M 513 4856 
L 1013 4856 
Q 1481 4119 1714 3412 
Q 1947 2706 1947 2009 
Q 1947 1309 1714 600 
Q 1481 -109 1013 -844 
L 513 -844 
Q 928 -128 1133 580 
Q 1338 1288 1338 2009 
Q 1338 2731 1133 3434 
Q 928 4138 513 4856 
z
" transform="scale(0.015625)"/>
      </defs>
      <use xlink:href="#DejaVuSans-78"/>
      <use xlink:href="#DejaVuSans-28" x="59.179688"/>
      <use xlink:href="#DejaVuSans-6d" x="98.193359"/>
      <use xlink:href="#DejaVuSans-29" x="195.605469"/>
     </g>
    </g>
   </g>
   <g id="matplotlib.axis_2">
    <g id="ytick_1">
     <g id="line2d_8">
      <defs>
       <path id="m1972501721" d="M 0 0 
L -3.5 0 
" style="stroke: #000000; stroke-width: 0.8"/>
      </defs>
      <g>
       <use xlink:href="#m1972501721" x="100.8558" y="224.9208" style="stroke: #000000; stroke-width: 0.8"/>
      </g>
     </g>
     <g id="text_9">
      <!-- −0.5 -->
      <g transform="translate(69.572988 228.720019) scale(0.1 -0.1)">
       <use xlink:href="#DejaVuSans-2212"/>
       <use xlink:href="#DejaVuSans-30" x="83.789062"/>
       <use xlink:href="#DejaVuSans-2e" x="147.412109"/>
       <use xlink:href="#DejaVuSans-35" x="179.199219"/>
      </g>
     </g>
    </g>
    <g id="ytick_2">
     <g id="line2d_9">
      <g>
       <use xlink:href="#m1972501721" x="100.8558" y="192.4884" style="stroke: #000000; stroke-width: 0.8"/>
      </g>
     </g>
     <g id="text_10">
      <!-- 0.0 -->
      <g transform="translate(77.952675 196.287619) scale(0.1 -0.1)">
       <use xlink:href="#DejaVuSans-30"/>
       <use xlink:href="#DejaVuSans-2e" x="63.623047"/>
       <use xlink:href="#DejaVuSans-30" x="95.410156"/>
      </g>
     </g>
    </g>
    <g id="ytick_3">
     <g id="line2d_10">
      <g>
       <use xlink:href="#m1972501721" x="100.8558" y="160.056" style="stroke: #000000; stroke-width: 0.8"/>
      </g>
     </g>
     <g id="text_11">
      <!-- 0.5 -->
      <g transform="translate(77.952675 163.855219) scale(0.1 -0.1)">
       <use xlink:href="#DejaVuSans-30"/>
       <use xlink:href="#DejaVuSans-2e" x="63.623047"/>
       <use xlink:href="#DejaVuSans-35" x="95.410156"/>
      </g>
     </g>
    </g>
    <g id="ytick_4">
     <g id="line2d_11">
      <g>
       <use xlink:href="#m1972501721" x="100.8558" y="127.6236" style="stroke: #000000; stroke-width: 0.8"/>
      </g>
     </g>
     <g id="text_12">
      <!-- 1.0 -->
      <g transform="translate(77.952675 131.422819) scale(0.1 -0.1)">
       <use xlink:href="#DejaVuSans-31"/>
       <use xlink:href="#DejaVuSans-2e" x="63.623047"/>
       <use xlink:href="#DejaVuSans-30" x="95.410156"/>
      </g>
     </g>
    </g>
    <g id="ytick_5">
     <g id="line2d_12">
      <g>
       <use xlink:href="#m1972501721" x="100.8558" y="95.1912" style="stroke: #000000; stroke-width: 0.8"/>
      </g>
     </g>
     <g id="text_13">
      <!-- 1.5 -->
      <g transform="translate(77.952675 98.990419) scale(0.1 -0.1)">
       <use xlink:href="#DejaVuSans-31"/>
       <use xlink:href="#DejaVuSans-2e" x="63.623047"/>
       <use xlink:href="#DejaVuSans-35" x="95.410156"/>
      </g>
     </g>
    </g>
    <g id="ytick_6">
     <g id="line2d_13">
      <g>
       <use xlink:href="#m1972501721" x="100.8558" y="62.7588" style="stroke: #000000; stroke-width: 0.8"/>
      </g>
     </g>
     <g id="text_14">
      <!-- 2.0 -->
      <g transform="translate(77.952675 66.558019) scale(0.1 -0.1)">
       <use xlink:href="#DejaVuSans-32"/>
       <use xlink:href="#DejaVuSans-2e" x="63.623047"/>
       <use xlink:href="#DejaVuSans-30" x="95.410156"/>
      </g>
     </g>
    </g>
    <g id="ytick_7">
     <g id="line2d_14">
      <g>
       <use xlink:href="#m1972501721" x="100.8558" y="30.3264" style="stroke: #000000; stroke-width: 0.8"/>
      </g>
     </g>
     <g id="text_15">
      <!-- 2.5 -->
      <g transform="translate(77.952675 34.125619) scale(0.1 -0.1)">
       <use xlink:href="#DejaVuSans-32"/>
       <use xlink:href="#DejaVuSans-2e" x="63.623047"/>
       <use xlink:href="#DejaVuSans-35" x="95.410156"/>
      </g>
     </g>
    </g>
    <g id="text_16">
     <!-- y(m) -->
     <g transform="translate(63.4933 139.35485) rotate(-90) scale(0.1 -0.1)">
      <defs>
       <path id="DejaVuSans-79" d="M 2059 -325 
Q 1816 -950 1584 -1140 
Q 1353 -1331 966 -1331 
L 506 -1331 
L 506 -850 
L 844 -850 
Q 1081 -850 1212 -737 
Q 1344 -625 1503 -206 
L 1606 56 
L 191 3500 
L 800 3500 
L 1894 763 
L 2988 3500 
L 3597 3500 
L 2059 -325 
z
" transform="scale(0.015625)"/>
      </defs>
      <use xlink:href="#DejaVuSans-79"/>
      <use xlink:href="#DejaVuSans-28" x="59.179688"/>
      <use xlink:href="#DejaVuSans-6d" x="98.193359"/>
      <use xlink:href="#DejaVuSans-29" x="195.605469"/>
     </g>
    </g>
   </g>
   <g id="line2d_15">
    <path d="M 173.646739 127.459601 
L 186.620091 127.487504 
L 199.359635 127.527766 
L 209.743546 127.561546 
L 215.984441 127.582086 
L 219.703988 127.594774 
L 222.320955 127.603467 
L 224.238422 127.609587 
L 225.706168 127.614475 
L 226.866856 127.618238 
L 227.806569 127.621311 
L 228.583401 127.623839 
L 228.583401 127.623839 
" clip-path="url(#p2a685745b6)" style="fill: none; stroke-dasharray: 2,3.3; stroke-dashoffset: 0; stroke: #1f77b4; stroke-width: 2"/>
   </g>
   <g id="line2d_16">
    <path d="M 133.2882 127.6236 
L 133.2882 127.6236 
L 133.768676 127.621531 
L 138.573349 127.593776 
L 147.701648 127.493337 
L 160.673863 127.41217 
L 173.646739 127.459601 
" clip-path="url(#p2a685745b6)" style="fill: none; stroke: #1f77b4; stroke-width: 2; stroke-linecap: square"/>
   </g>
   <g id="line2d_17">
    <path d="M 202.738317 169.560811 
L 204.802898 161.301533 
L 205.846537 157.134343 
L 206.150373 155.922676 
L 206.332563 155.196068 
L 206.448285 154.734636 
L 206.534016 154.414075 
L 206.596999 154.178588 
L 206.645222 153.99829 
L 206.683324 153.855833 
L 206.714187 153.740443 
L 206.739693 153.64508 
L 206.739693 153.64508 
" clip-path="url(#p2a685745b6)" style="fill: none; stroke-dasharray: 2,3.3; stroke-dashoffset: 0; stroke: #ff7f0e; stroke-width: 2"/>
   </g>
   <g id="line2d_18">
    <path d="M 198.153 205.46136 
L 198.153 205.46136 
L 198.164648 204.981025 
L 198.417246 200.200816 
L 199.877385 191.454013 
L 201.48243 180.264573 
L 202.738317 169.560811 
" clip-path="url(#p2a685745b6)" style="fill: none; stroke: #ff7f0e; stroke-width: 2; stroke-linecap: square"/>
   </g>
   <g id="line2d_19">
    <path d="M 133.288211 95.191173 
L 133.288216 95.191155 
L 133.288221 95.191133 
L 133.288224 95.191111 
L 133.288226 95.191089 
L 133.288226 95.19107 
L 133.288226 95.191054 
L 133.288224 95.191043 
L 133.288222 95.191038 
L 133.28822 95.191037 
L 133.288219 95.191038 
L 133.288218 95.191039 
L 133.288218 95.191039 
" clip-path="url(#p2a685745b6)" style="fill: none; stroke-dasharray: 2,3.3; stroke-dashoffset: 0; stroke: #2ca02c; stroke-width: 2"/>
   </g>
   <g id="line2d_20">
    <path d="M 133.2882 95.1912 
L 133.2882 95.1912 
L 133.2882 95.1912 
L 133.288202 95.1912 
L 133.288204 95.191197 
L 133.288206 95.19119 
L 133.288211 95.191173 
" clip-path="url(#p2a685745b6)" style="fill: none; stroke: #2ca02c; stroke-width: 2; stroke-linecap: square"/>
   </g>
   <g id="line2d_21">
    <path d="M 165.720483 95.19116 
L 165.72042 95.191128 
L 165.720346 95.191116 
L 165.720279 95.191149 
L 165.720251 95.191207 
L 165.720255 95.191257 
L 165.720285 95.19128 
L 165.720334 95.191274 
L 165.720396 95.191256 
L 165.72046 95.191237 
L 165.720509 95.191223 
L 165.720532 95.191216 
L 165.720532 95.191216 
" clip-path="url(#p2a685745b6)" style="fill: none; stroke-dasharray: 2,3.3; stroke-dashoffset: 0; stroke: #d62728; stroke-width: 2"/>
   </g>
   <g id="line2d_22">
    <path d="M 165.7206 95.1912 
L 165.7206 95.1912 
L 165.720601 95.191194 
L 165.720603 95.19115 
L 165.720581 95.191153 
L 165.720541 95.191158 
L 165.720483 95.19116 
" clip-path="url(#p2a685745b6)" style="fill: none; stroke: #d62728; stroke-width: 2; stroke-linecap: square"/>
   </g>
   <g id="line2d_23">
    <path d="M 230.585443 95.191202 
L 230.585459 95.191258 
L 230.585501 95.191311 
L 230.585563 95.19133 
L 230.585617 95.191313 
L 230.585646 95.191284 
L 230.585647 95.191263 
L 230.585619 95.191255 
L 230.585574 95.191251 
L 230.585524 95.191244 
L 230.585484 95.191236 
L 230.585464 95.191232 
L 230.585464 95.191232 
" clip-path="url(#p2a685745b6)" style="fill: none; stroke-dasharray: 2,3.3; stroke-dashoffset: 0; stroke: #9467bd; stroke-width: 2"/>
   </g>
   <g id="line2d_24">
    <path d="M 230.5854 95.1912 
L 230.5854 95.1912 
L 230.5854 95.191198 
L 230.585399 95.191183 
L 230.585405 95.191174 
L 230.585427 95.191186 
L 230.585443 95.191202 
" clip-path="url(#p2a685745b6)" style="fill: none; stroke: #9467bd; stroke-width: 2; stroke-linecap: square"/>
   </g>
   <g id="line2d_25">
    <path d="M 263.017817 95.191185 
L 263.017818 95.191173 
L 263.017819 95.19116 
L 263.01782 95.191146 
L 263.01782 95.191133 
L 263.017819 95.191121 
L 263.017818 95.191113 
L 263.017817 95.191107 
L 263.017815 95.191104 
L 263.017814 95.191104 
L 263.017812 95.191106 
L 263.017812 95.191106 
L 263.017812 95.191106 
" clip-path="url(#p2a685745b6)" style="fill: none; stroke-dasharray: 2,3.3; stroke-dashoffset: 0; stroke: #8c564b; stroke-width: 2"/>
   </g>
   <g id="line2d_26">
    <path d="M 263.0178 95.1912 
L 263.0178 95.1912 
L 263.017801 95.1912 
L 263.017807 95.191203 
L 263.017812 95.191199 
L 263.017815 95.191193 
L 263.017817 95.191185 
" clip-path="url(#p2a685745b6)" style="fill: none; stroke: #8c564b; stroke-width: 2; stroke-linecap: square"/>
   </g>
   <g id="line2d_27">
    <path d="M 133.28821 160.05602 
L 133.288212 160.056031 
L 133.288213 160.056044 
L 133.288214 160.056058 
L 133.288214 160.056072 
L 133.288213 160.056084 
L 133.288213 160.056094 
L 133.288212 160.0561 
L 133.28821 160.056103 
L 133.288209 160.056103 
L 133.288209 160.056102 
L 133.288208 160.056101 
L 133.288208 160.056101 
" clip-path="url(#p2a685745b6)" style="fill: none; stroke-dasharray: 2,3.3; stroke-dashoffset: 0; stroke: #e377c2; stroke-width: 2"/>
   </g>
   <g id="line2d_28">
    <path d="M 133.2882 160.056 
L 133.2882 160.056 
L 133.2882 160.056 
L 133.288203 160.056 
L 133.288205 160.056004 
L 133.288208 160.056011 
L 133.28821 160.05602 
" clip-path="url(#p2a685745b6)" style="fill: none; stroke: #e377c2; stroke-width: 2; stroke-linecap: square"/>
   </g>
   <g id="line2d_29">
    <path d="M 165.720503 160.055767 
L 165.720479 160.055653 
L 165.720438 160.05556 
L 165.720382 160.05553 
L 165.720336 160.055582 
L 165.720311 160.05569 
L 165.720312 160.05581 
L 165.720343 160.055906 
L 165.7204 160.055962 
L 165.720465 160.055987 
L 165.72052 160.055995 
L 165.720547 160.055997 
L 165.720547 160.055997 
" clip-path="url(#p2a685745b6)" style="fill: none; stroke-dasharray: 2,3.3; stroke-dashoffset: 0; stroke: #7f7f7f; stroke-width: 2"/>
   </g>
   <g id="line2d_30">
    <path d="M 165.7206 160.056 
L 165.7206 160.056 
L 165.7206 160.055997 
L 165.720599 160.05597 
L 165.720579 160.055908 
L 165.72054 160.055856 
L 165.720503 160.055767 
" clip-path="url(#p2a685745b6)" style="fill: none; stroke: #7f7f7f; stroke-width: 2; stroke-linecap: square"/>
   </g>
   <g id="line2d_31">
    <path d="M 230.585453 160.055958 
L 230.58546 160.055962 
L 230.585466 160.05597 
L 230.585472 160.055978 
L 230.585472 160.055987 
L 230.585468 160.055996 
L 230.58546 160.056 
L 230.58545 160.055996 
L 230.585438 160.055985 
L 230.585426 160.055975 
L 230.585418 160.055972 
L 230.585414 160.055973 
L 230.585414 160.055973 
" clip-path="url(#p2a685745b6)" style="fill: none; stroke-dasharray: 2,3.3; stroke-dashoffset: 0; stroke: #bcbd22; stroke-width: 2"/>
   </g>
   <g id="line2d_32">
    <path d="M 230.5854 160.056 
L 230.5854 160.056 
L 230.5854 160.056002 
L 230.585404 160.056019 
L 230.585426 160.055987 
L 230.585441 160.055965 
L 230.585453 160.055958 
" clip-path="url(#p2a685745b6)" style="fill: none; stroke: #bcbd22; stroke-width: 2; stroke-linecap: square"/>
   </g>
   <g id="line2d_33">
    <path d="M 263.017802 160.056031 
L 263.017798 160.056042 
L 263.017793 160.056051 
L 263.017789 160.056057 
L 263.017788 160.056062 
L 263.017788 160.056064 
L 263.017789 160.056065 
L 263.01779 160.056063 
L 263.017792 160.05606 
L 263.017792 160.056056 
L 263.017793 160.056053 
L 263.017792 160.056052 
L 263.017792 160.056052 
" clip-path="url(#p2a685745b6)" style="fill: none; stroke-dasharray: 2,3.3; stroke-dashoffset: 0; stroke: #17becf; stroke-width: 2"/>
   </g>
   <g id="line2d_34">
    <path d="M 263.0178 160.056 
L 263.0178 160.056 
L 263.0178 160.056 
L 263.0178 160.056 
L 263.0178 160.056006 
L 263.017801 160.056017 
L 263.017802 160.056031 
" clip-path="url(#p2a685745b6)" style="fill: none; stroke: #17becf; stroke-width: 2; stroke-linecap: square"/>
   </g>
   <g id="line2d_35">
    <path d="M 230.585391 62.758756 
L 230.585392 62.758754 
L 230.585393 62.758754 
L 230.585395 62.758755 
L 230.585397 62.758759 
L 230.585399 62.758764 
L 230.585401 62.75877 
L 230.585401 62.758776 
L 230.585401 62.758782 
L 230.5854 62.758787 
L 230.5854 62.758791 
L 230.5854 62.758793 
L 230.5854 62.758793 
" clip-path="url(#p2a685745b6)" style="fill: none; stroke-dasharray: 2,3.3; stroke-dashoffset: 0; stroke: #2f4f4f; stroke-width: 2"/>
   </g>
   <g id="line2d_36">
    <path d="M 230.5854 62.7588 
L 230.5854 62.7588 
L 230.5854 62.758798 
L 230.585398 62.758783 
L 230.585395 62.75877 
L 230.585392 62.758761 
L 230.585391 62.758756 
" clip-path="url(#p2a685745b6)" style="fill: none; stroke: #2f4f4f; stroke-width: 2; stroke-linecap: square"/>
   </g>
   <g id="line2d_37">
    <path d="M 230.585311 30.326561 
L 230.585297 30.326587 
L 230.585286 30.326607 
L 230.585278 30.326621 
L 230.585276 30.326624 
L 230.585279 30.326615 
L 230.585288 30.326596 
L 230.585301 30.326568 
L 230.585317 30.326537 
L 230.585332 30.326508 
L 230.585343 30.326489 
L 230.585348 30.326483 
L 230.585348 30.326483 
" clip-path="url(#p2a685745b6)" style="fill: none; stroke-dasharray: 2,3.3; stroke-dashoffset: 0; stroke: #cd5c5c; stroke-width: 2"/>
   </g>
   <g id="line2d_38">
    <path d="M 230.5854 30.3264 
L 230.5854 30.3264 
L 230.585397 30.326406 
L 230.585368 30.32646 
L 230.585347 30.326501 
L 230.585328 30.326531 
L 230.585311 30.326561 
" clip-path="url(#p2a685745b6)" style="fill: none; stroke: #cd5c5c; stroke-width: 2; stroke-linecap: square"/>
   </g>
   <g id="line2d_39">
    <path clip-path="url(#p2a685745b6)" style="fill: none; stroke-dasharray: 2,3.3; stroke-dashoffset: 0; stroke: #add8e6; stroke-width: 2"/>
   </g>
   <g id="line2d_40">
    <path clip-path="url(#p2a685745b6)" style="fill: none; stroke: #add8e6; stroke-width: 2; stroke-linecap: square"/>
   </g>
   <g id="line2d_41">
    <path d="M 230.585392 192.488421 
L 230.585381 192.488426 
L 230.585372 192.48843 
L 230.585365 192.488432 
L 230.585362 192.488433 
L 230.585361 192.488431 
L 230.585363 192.488427 
L 230.585366 192.488422 
L 230.585369 192.488417 
L 230.585373 192.488412 
L 230.585376 192.488408 
L 230.585378 192.488406 
L 230.585378 192.488406 
" clip-path="url(#p2a685745b6)" style="fill: none; stroke-dasharray: 2,3.3; stroke-dashoffset: 0; stroke: #663399; stroke-width: 2"/>
   </g>
   <g id="line2d_42">
    <path d="M 230.5854 192.4884 
L 230.5854 192.4884 
L 230.5854 192.488401 
L 230.585403 192.488407 
L 230.585406 192.488411 
L 230.585406 192.488417 
L 230.585392 192.488421 
" clip-path="url(#p2a685745b6)" style="fill: none; stroke: #663399; stroke-width: 2; stroke-linecap: square"/>
   </g>
   <g id="line2d_43">
    <path d="M 230.58536 224.920873 
L 230.585355 224.920874 
L 230.585351 224.920864 
L 230.58535 224.920847 
L 230.58535 224.920826 
L 230.585352 224.920805 
L 230.585357 224.920786 
L 230.585363 224.920773 
L 230.585371 224.920766 
L 230.585379 224.920767 
L 230.585386 224.920774 
L 230.58539 224.92078 
L 230.58539 224.92078 
" clip-path="url(#p2a685745b6)" style="fill: none; stroke-dasharray: 2,3.3; stroke-dashoffset: 0; stroke: #8fbc8f; stroke-width: 2"/>
   </g>
   <g id="line2d_44">
    <path d="M 230.5854 224.9208 
L 230.5854 224.9208 
L 230.585398 224.920803 
L 230.585385 224.920825 
L 230.585374 224.920843 
L 230.585366 224.920859 
L 230.58536 224.920873 
" clip-path="url(#p2a685745b6)" style="fill: none; stroke: #8fbc8f; stroke-width: 2; stroke-linecap: square"/>
   </g>
   <g id="line2d_45">
    <path clip-path="url(#p2a685745b6)" style="fill: none; stroke-dasharray: 2,3.3; stroke-dashoffset: 0; stroke: #00ced1; stroke-width: 2"/>
   </g>
   <g id="line2d_46">
    <path clip-path="url(#p2a685745b6)" style="fill: none; stroke: #00ced1; stroke-width: 2; stroke-linecap: square"/>
   </g>
   <g id="line2d_47">
    <path d="M 165.720609 62.758707 
L 165.720611 62.758699 
L 165.720613 62.758694 
L 165.720616 62.758693 
L 165.720617 62.758697 
L 165.720618 62.758706 
L 165.720617 62.75872 
L 165.720617 62.758735 
L 165.720617 62.75875 
L 165.720616 62.758764 
L 165.720615 62.758774 
L 165.720614 62.758779 
L 165.720614 62.758779 
" clip-path="url(#p2a685745b6)" style="fill: none; stroke-dasharray: 2,3.3; stroke-dashoffset: 0; stroke: #6a5acd; stroke-width: 2"/>
   </g>
   <g id="line2d_48">
    <path d="M 165.7206 62.7588 
L 165.7206 62.7588 
L 165.7206 62.758797 
L 165.720599 62.758767 
L 165.720603 62.758741 
L 165.720606 62.758721 
L 165.720609 62.758707 
" clip-path="url(#p2a685745b6)" style="fill: none; stroke: #6a5acd; stroke-width: 2; stroke-linecap: square"/>
   </g>
   <g id="line2d_49">
    <path d="M 165.720608 30.326285 
L 165.720609 30.326277 
L 165.72061 30.326276 
L 165.720612 30.326278 
L 165.720614 30.326286 
L 165.720615 30.326297 
L 165.720615 30.326309 
L 165.720614 30.326323 
L 165.720612 30.326336 
L 165.720611 30.326349 
L 165.720609 30.32636 
L 165.720609 30.326367 
L 165.720609 30.326367 
" clip-path="url(#p2a685745b6)" style="fill: none; stroke-dasharray: 2,3.3; stroke-dashoffset: 0; stroke: #808000; stroke-width: 2"/>
   </g>
   <g id="line2d_50">
    <path d="M 165.7206 30.3264 
L 165.7206 30.3264 
L 165.7206 30.326398 
L 165.720603 30.326374 
L 165.720607 30.326333 
L 165.720608 30.326303 
L 165.720608 30.326285 
" clip-path="url(#p2a685745b6)" style="fill: none; stroke: #808000; stroke-width: 2; stroke-linecap: square"/>
   </g>
   <g id="line2d_51">
    <path clip-path="url(#p2a685745b6)" style="fill: none; stroke-dasharray: 2,3.3; stroke-dashoffset: 0; stroke: #a0522d; stroke-width: 2"/>
   </g>
   <g id="line2d_52">
    <path clip-path="url(#p2a685745b6)" style="fill: none; stroke: #a0522d; stroke-width: 2; stroke-linecap: square"/>
   </g>
   <g id="line2d_53">
    <path d="M 165.720574 192.488568 
L 165.720555 192.488591 
L 165.720533 192.488606 
L 165.720513 192.488612 
L 165.720501 192.488605 
L 165.720496 192.488585 
L 165.720501 192.488555 
L 165.720512 192.488519 
L 165.720528 192.488481 
L 165.720546 192.488447 
L 165.720559 192.488421 
L 165.720565 192.488408 
L 165.720565 192.488408 
" clip-path="url(#p2a685745b6)" style="fill: none; stroke-dasharray: 2,3.3; stroke-dashoffset: 0; stroke: #ff4500; stroke-width: 2"/>
   </g>
   <g id="line2d_54">
    <path d="M 165.7206 192.4884 
L 165.7206 192.4884 
L 165.720601 192.488405 
L 165.720611 192.488452 
L 165.720617 192.488491 
L 165.720591 192.488535 
L 165.720574 192.488568 
" clip-path="url(#p2a685745b6)" style="fill: none; stroke: #ff4500; stroke-width: 2; stroke-linecap: square"/>
   </g>
   <g id="line2d_55">
    <path d="M 165.720655 224.920803 
L 165.720661 224.920806 
L 165.720665 224.9208 
L 165.720666 224.920787 
L 165.720665 224.920771 
L 165.720661 224.920757 
L 165.720655 224.920745 
L 165.720646 224.920739 
L 165.720637 224.92074 
L 165.720627 224.920746 
L 165.720618 224.920757 
L 165.720614 224.920765 
L 165.720614 224.920765 
" clip-path="url(#p2a685745b6)" style="fill: none; stroke-dasharray: 2,3.3; stroke-dashoffset: 0; stroke: #708090; stroke-width: 2"/>
   </g>
   <g id="line2d_56">
    <path d="M 165.7206 224.9208 
L 165.7206 224.9208 
L 165.720602 224.920799 
L 165.720621 224.92079 
L 165.720636 224.920783 
L 165.720647 224.920788 
L 165.720655 224.920803 
" clip-path="url(#p2a685745b6)" style="fill: none; stroke: #708090; stroke-width: 2; stroke-linecap: square"/>
   </g>
   <g id="line2d_57">
    <path clip-path="url(#p2a685745b6)" style="fill: none; stroke-dasharray: 2,3.3; stroke-dashoffset: 0; stroke: #bdb76b; stroke-width: 2"/>
   </g>
   <g id="line2d_58">
    <path clip-path="url(#p2a685745b6)" style="fill: none; stroke: #bdb76b; stroke-width: 2; stroke-linecap: square"/>
   </g>
   <g id="patch_3">
    <path d="M 100.8558 224.9208 
L 100.8558 30.3264 
" style="fill: none; stroke: #000000; stroke-width: 0.8; stroke-linejoin: miter; stroke-linecap: square"/>
   </g>
   <g id="patch_4">
    <path d="M 295.4502 224.9208 
L 295.4502 30.3264 
" style="fill: none; stroke: #000000; stroke-width: 0.8; stroke-linejoin: miter; stroke-linecap: square"/>
   </g>
   <g id="patch_5">
    <path d="M 100.8558 224.9208 
L 295.4502 224.9208 
" style="fill: none; stroke: #000000; stroke-width: 0.8; stroke-linejoin: miter; stroke-linecap: square"/>
   </g>
   <g id="patch_6">
    <path d="M 100.8558 30.3264 
L 295.4502 30.3264 
" style="fill: none; stroke: #000000; stroke-width: 0.8; stroke-linejoin: miter; stroke-linecap: square"/>
   </g>
   <g id="patch_7">
    <path d="M 173.646739 137.189321 
C 176.227091 137.189321 178.702106 136.164136 180.52669 134.339552 
C 182.351275 132.514968 183.376459 130.039953 183.376459 127.459601 
C 183.376459 124.879249 182.351275 122.404234 180.52669 120.57965 
C 178.702106 118.755066 176.227091 117.729881 173.646739 117.729881 
C 171.066387 117.729881 168.591373 118.755066 166.766788 120.57965 
C 164.942204 122.404234 163.917019 124.879249 163.917019 127.459601 
C 163.917019 130.039953 164.942204 132.514968 166.766788 134.339552 
C 168.591373 136.164136 171.066387 137.189321 173.646739 137.189321 
z
" clip-path="url(#p2a685745b6)" style="fill: #1f77b4; stroke: #000000; stroke-linejoin: miter"/>
   </g>
   <g id="patch_8">
    <path d="M 202.738317 179.290531 
C 205.318669 179.290531 207.793684 178.265346 209.618268 176.440762 
C 211.442852 174.616178 212.468037 172.141163 212.468037 169.560811 
C 212.468037 166.980459 211.442852 164.505444 209.618268 162.68086 
C 207.793684 160.856276 205.318669 159.831091 202.738317 159.831091 
C 200.157965 159.831091 197.68295 160.856276 195.858366 162.68086 
C 194.033782 164.505444 193.008597 166.980459 193.008597 169.560811 
C 193.008597 172.141163 194.033782 174.616178 195.858366 176.440762 
C 197.68295 178.265346 200.157965 179.290531 202.738317 179.290531 
z
" clip-path="url(#p2a685745b6)" style="fill: #ff7f0e; stroke: #000000; stroke-linejoin: miter"/>
   </g>
   <g id="patch_9">
    <path d="M 133.288211 104.920893 
C 135.868563 104.920893 138.343578 103.895708 140.168162 102.071124 
C 141.992746 100.24654 143.017931 97.771525 143.017931 95.191173 
C 143.017931 92.610821 141.992746 90.135806 140.168162 88.311222 
C 138.343578 86.486638 135.868563 85.461453 133.288211 85.461453 
C 130.707859 85.461453 128.232844 86.486638 126.40826 88.311222 
C 124.583676 90.135806 123.558491 92.610821 123.558491 95.191173 
C 123.558491 97.771525 124.583676 100.24654 126.40826 102.071124 
C 128.232844 103.895708 130.707859 104.920893 133.288211 104.920893 
z
" clip-path="url(#p2a685745b6)" style="fill: #2ca02c; stroke: #000000; stroke-linejoin: miter"/>
   </g>
   <g id="patch_10">
    <path d="M 165.720483 104.92088 
C 168.300835 104.92088 170.775849 103.895696 172.600434 102.071111 
C 174.425018 100.246527 175.450203 97.771512 175.450203 95.19116 
C 175.450203 92.610808 174.425018 90.135794 172.600434 88.311209 
C 170.775849 86.486625 168.300835 85.46144 165.720483 85.46144 
C 163.140131 85.46144 160.665116 86.486625 158.840532 88.311209 
C 157.015947 90.135794 155.990763 92.610808 155.990763 95.19116 
C 155.990763 97.771512 157.015947 100.246527 158.840532 102.071111 
C 160.665116 103.895696 163.140131 104.92088 165.720483 104.92088 
z
" clip-path="url(#p2a685745b6)" style="fill: #d62728; stroke: #000000; stroke-linejoin: miter"/>
   </g>
   <g id="patch_11">
    <path d="M 230.585443 104.920922 
C 233.165795 104.920922 235.64081 103.895737 237.465394 102.071152 
C 239.289979 100.246568 240.315163 97.771553 240.315163 95.191202 
C 240.315163 92.61085 239.289979 90.135835 237.465394 88.311251 
C 235.64081 86.486666 233.165795 85.461482 230.585443 85.461482 
C 228.005091 85.461482 225.530077 86.486666 223.705492 88.311251 
C 221.880908 90.135835 220.855723 92.61085 220.855723 95.191202 
C 220.855723 97.771553 221.880908 100.246568 223.705492 102.071152 
C 225.530077 103.895737 228.005091 104.920922 230.585443 104.920922 
z
" clip-path="url(#p2a685745b6)" style="fill: #9467bd; stroke: #000000; stroke-linejoin: miter"/>
   </g>
   <g id="patch_12">
    <path d="M 263.017817 104.920905 
C 265.598169 104.920905 268.073184 103.89572 269.897768 102.071136 
C 271.722352 100.246551 272.747537 97.771536 272.747537 95.191185 
C 272.747537 92.610833 271.722352 90.135818 269.897768 88.311234 
C 268.073184 86.486649 265.598169 85.461465 263.017817 85.461465 
C 260.437465 85.461465 257.96245 86.486649 256.137866 88.311234 
C 254.313282 90.135818 253.288097 92.610833 253.288097 95.191185 
C 253.288097 97.771536 254.313282 100.246551 256.137866 102.071136 
C 257.96245 103.89572 260.437465 104.920905 263.017817 104.920905 
z
" clip-path="url(#p2a685745b6)" style="fill: #8c564b; stroke: #000000; stroke-linejoin: miter"/>
   </g>
   <g id="patch_13">
    <path d="M 133.28821 169.78574 
C 135.868562 169.78574 138.343577 168.760555 140.168161 166.935971 
C 141.992745 165.111386 143.01793 162.636372 143.01793 160.05602 
C 143.01793 157.475668 141.992745 155.000653 140.168161 153.176069 
C 138.343577 151.351484 135.868562 150.3263 133.28821 150.3263 
C 130.707858 150.3263 128.232843 151.351484 126.408259 153.176069 
C 124.583675 155.000653 123.55849 157.475668 123.55849 160.05602 
C 123.55849 162.636372 124.583675 165.111386 126.408259 166.935971 
C 128.232843 168.760555 130.707858 169.78574 133.28821 169.78574 
z
" clip-path="url(#p2a685745b6)" style="fill: #e377c2; stroke: #000000; stroke-linejoin: miter"/>
   </g>
   <g id="patch_14">
    <path d="M 165.720503 169.785487 
C 168.300855 169.785487 170.77587 168.760302 172.600454 166.935718 
C 174.425039 165.111133 175.450223 162.636118 175.450223 160.055767 
C 175.450223 157.475415 174.425039 155.0004 172.600454 153.175816 
C 170.77587 151.351231 168.300855 150.326047 165.720503 150.326047 
C 163.140151 150.326047 160.665137 151.351231 158.840552 153.175816 
C 157.015968 155.0004 155.990783 157.475415 155.990783 160.055767 
C 155.990783 162.636118 157.015968 165.111133 158.840552 166.935718 
C 160.665137 168.760302 163.140151 169.785487 165.720503 169.785487 
z
" clip-path="url(#p2a685745b6)" style="fill: #7f7f7f; stroke: #000000; stroke-linejoin: miter"/>
   </g>
   <g id="patch_15">
    <path d="M 230.585453 169.785678 
C 233.165804 169.785678 235.640819 168.760494 237.465404 166.935909 
C 239.289988 165.111325 240.315173 162.63631 240.315173 160.055958 
C 240.315173 157.475607 239.289988 155.000592 237.465404 153.176007 
C 235.640819 151.351423 233.165804 150.326238 230.585453 150.326238 
C 228.005101 150.326238 225.530086 151.351423 223.705502 153.176007 
C 221.880917 155.000592 220.855733 157.475607 220.855733 160.055958 
C 220.855733 162.63631 221.880917 165.111325 223.705502 166.935909 
C 225.530086 168.760494 228.005101 169.785678 230.585453 169.785678 
z
" clip-path="url(#p2a685745b6)" style="fill: #bcbd22; stroke: #000000; stroke-linejoin: miter"/>
   </g>
   <g id="patch_16">
    <path d="M 263.017802 169.785751 
C 265.598154 169.785751 268.073168 168.760566 269.897753 166.935982 
C 271.722337 165.111398 272.747522 162.636383 272.747522 160.056031 
C 272.747522 157.475679 271.722337 155.000664 269.897753 153.17608 
C 268.073168 151.351496 265.598154 150.326311 263.017802 150.326311 
C 260.43745 150.326311 257.962435 151.351496 256.137851 153.17608 
C 254.313266 155.000664 253.288082 157.475679 253.288082 160.056031 
C 253.288082 162.636383 254.313266 165.111398 256.137851 166.935982 
C 257.962435 168.760566 260.43745 169.785751 263.017802 169.785751 
z
" clip-path="url(#p2a685745b6)" style="fill: #17becf; stroke: #000000; stroke-linejoin: miter"/>
   </g>
   <g id="patch_17">
    <path d="M 230.585391 72.488476 
C 233.165743 72.488476 235.640758 71.463291 237.465342 69.638707 
C 239.289926 67.814123 240.315111 65.339108 240.315111 62.758756 
C 240.315111 60.178404 239.289926 57.703389 237.465342 55.878805 
C 235.640758 54.054221 233.165743 53.029036 230.585391 53.029036 
C 228.005039 53.029036 225.530025 54.054221 223.70544 55.878805 
C 221.880856 57.703389 220.855671 60.178404 220.855671 62.758756 
C 220.855671 65.339108 221.880856 67.814123 223.70544 69.638707 
C 225.530025 71.463291 228.005039 72.488476 230.585391 72.488476 
z
" clip-path="url(#p2a685745b6)" style="fill: #2f4f4f; stroke: #000000; stroke-linejoin: miter"/>
   </g>
   <g id="patch_18">
    <path d="M 230.585311 40.056281 
C 233.165663 40.056281 235.640677 39.031097 237.465262 37.206512 
C 239.289846 35.381928 240.315031 32.906913 240.315031 30.326561 
C 240.315031 27.74621 239.289846 25.271195 237.465262 23.44661 
C 235.640677 21.622026 233.165663 20.596841 230.585311 20.596841 
C 228.004959 20.596841 225.529944 21.622026 223.70536 23.44661 
C 221.880775 25.271195 220.855591 27.74621 220.855591 30.326561 
C 220.855591 32.906913 221.880775 35.381928 223.70536 37.206512 
C 225.529944 39.031097 228.004959 40.056281 230.585311 40.056281 
z
" clip-path="url(#p2a685745b6)" style="fill: #cd5c5c; stroke: #000000; stroke-linejoin: miter"/>
   </g>
   <g id="patch_19">
    <path d="M 230.585408 7.623722 
C 233.16576 7.623722 235.640774 6.598538 237.465359 4.773953 
C 239.289943 2.949369 240.315128 0.474354 240.315128 -2.105998 
C 240.315128 -4.68635 239.289943 -7.161364 237.465359 -8.985949 
C 235.640774 -10.810533 233.16576 -11.835718 230.585408 -11.835718 
C 228.005056 -11.835718 225.530041 -10.810533 223.705457 -8.985949 
C 221.880872 -7.161364 220.855688 -4.68635 220.855688 -2.105998 
C 220.855688 0.474354 221.880872 2.949369 223.705457 4.773953 
C 225.530041 6.598538 228.005056 7.623722 230.585408 7.623722 
z
" clip-path="url(#p2a685745b6)" style="fill: #add8e6; stroke: #000000; stroke-linejoin: miter"/>
   </g>
   <g id="patch_20">
    <path d="M 230.585392 202.218141 
C 233.165744 202.218141 235.640759 201.192957 237.465343 199.368372 
C 239.289927 197.543788 240.315112 195.068773 240.315112 192.488421 
C 240.315112 189.908069 239.289927 187.433055 237.465343 185.60847 
C 235.640759 183.783886 233.165744 182.758701 230.585392 182.758701 
C 228.00504 182.758701 225.530025 183.783886 223.705441 185.60847 
C 221.880857 187.433055 220.855672 189.908069 220.855672 192.488421 
C 220.855672 195.068773 221.880857 197.543788 223.705441 199.368372 
C 225.530025 201.192957 228.00504 202.218141 230.585392 202.218141 
z
" clip-path="url(#p2a685745b6)" style="fill: #663399; stroke: #000000; stroke-linejoin: miter"/>
   </g>
   <g id="patch_21">
    <path d="M 230.58536 234.650593 
C 233.165711 234.650593 235.640726 233.625409 237.465311 231.800824 
C 239.289895 229.97624 240.31508 227.501225 240.31508 224.920873 
C 240.31508 222.340521 239.289895 219.865507 237.465311 218.040922 
C 235.640726 216.216338 233.165711 215.191153 230.58536 215.191153 
C 228.005008 215.191153 225.529993 216.216338 223.705409 218.040922 
C 221.880824 219.865507 220.85564 222.340521 220.85564 224.920873 
C 220.85564 227.501225 221.880824 229.97624 223.705409 231.800824 
C 225.529993 233.625409 228.005008 234.650593 230.58536 234.650593 
z
" clip-path="url(#p2a685745b6)" style="fill: #8fbc8f; stroke: #000000; stroke-linejoin: miter"/>
   </g>
   <g id="patch_22">
    <path d="M 230.585483 267.082907 
C 233.165835 267.082907 235.64085 266.057722 237.465434 264.233138 
C 239.290018 262.408553 240.315203 259.933539 240.315203 257.353187 
C 240.315203 254.772835 239.290018 252.29782 237.465434 250.473236 
C 235.64085 248.648651 233.165835 247.623467 230.585483 247.623467 
C 228.005131 247.623467 225.530116 248.648651 223.705532 250.473236 
C 221.880948 252.29782 220.855763 254.772835 220.855763 257.353187 
C 220.855763 259.933539 221.880948 262.408553 223.705532 264.233138 
C 225.530116 266.057722 228.005131 267.082907 230.585483 267.082907 
z
" clip-path="url(#p2a685745b6)" style="fill: #00ced1; stroke: #000000; stroke-linejoin: miter"/>
   </g>
   <g id="patch_23">
    <path d="M 165.720609 72.488427 
C 168.300961 72.488427 170.775976 71.463242 172.60056 69.638658 
C 174.425144 67.814074 175.450329 65.339059 175.450329 62.758707 
C 175.450329 60.178355 174.425144 57.70334 172.60056 55.878756 
C 170.775976 54.054172 168.300961 53.028987 165.720609 53.028987 
C 163.140257 53.028987 160.665242 54.054172 158.840658 55.878756 
C 157.016074 57.70334 155.990889 60.178355 155.990889 62.758707 
C 155.990889 65.339059 157.016074 67.814074 158.840658 69.638658 
C 160.665242 71.463242 163.140257 72.488427 165.720609 72.488427 
z
" clip-path="url(#p2a685745b6)" style="fill: #6a5acd; stroke: #000000; stroke-linejoin: miter"/>
   </g>
   <g id="patch_24">
    <path d="M 165.720608 40.056005 
C 168.30096 40.056005 170.775975 39.03082 172.600559 37.206236 
C 174.425143 35.381651 175.450328 32.906637 175.450328 30.326285 
C 175.450328 27.745933 174.425143 25.270918 172.600559 23.446334 
C 170.775975 21.621749 168.30096 20.596565 165.720608 20.596565 
C 163.140256 20.596565 160.665241 21.621749 158.840657 23.446334 
C 157.016073 25.270918 155.990888 27.745933 155.990888 30.326285 
C 155.990888 32.906637 157.016073 35.381651 158.840657 37.206236 
C 160.665241 39.03082 163.140256 40.056005 165.720608 40.056005 
z
" clip-path="url(#p2a685745b6)" style="fill: #808000; stroke: #000000; stroke-linejoin: miter"/>
   </g>
   <g id="patch_25">
    <path d="M 165.720581 7.623727 
C 168.300932 7.623727 170.775947 6.598543 172.600532 4.773958 
C 174.425116 2.949374 175.450301 0.474359 175.450301 -2.105993 
C 175.450301 -4.686344 174.425116 -7.161359 172.600532 -8.985944 
C 170.775947 -10.810528 168.300932 -11.835713 165.720581 -11.835713 
C 163.140229 -11.835713 160.665214 -10.810528 158.84063 -8.985944 
C 157.016045 -7.161359 155.990861 -4.686344 155.990861 -2.105993 
C 155.990861 0.474359 157.016045 2.949374 158.84063 4.773958 
C 160.665214 6.598543 163.140229 7.623727 165.720581 7.623727 
z
" clip-path="url(#p2a685745b6)" style="fill: #a0522d; stroke: #000000; stroke-linejoin: miter"/>
   </g>
   <g id="patch_26">
    <path d="M 165.720574 202.218288 
C 168.300926 202.218288 170.775941 201.193104 172.600525 199.368519 
C 174.425109 197.543935 175.450294 195.06892 175.450294 192.488568 
C 175.450294 189.908216 174.425109 187.433202 172.600525 185.608617 
C 170.775941 183.784033 168.300926 182.758848 165.720574 182.758848 
C 163.140222 182.758848 160.665207 183.784033 158.840623 185.608617 
C 157.016039 187.433202 155.990854 189.908216 155.990854 192.488568 
C 155.990854 195.06892 157.016039 197.543935 158.840623 199.368519 
C 160.665207 201.193104 163.140222 202.218288 165.720574 202.218288 
z
" clip-path="url(#p2a685745b6)" style="fill: #ff4500; stroke: #000000; stroke-linejoin: miter"/>
   </g>
   <g id="patch_27">
    <path d="M 165.720655 234.650523 
C 168.301007 234.650523 170.776022 233.625338 172.600606 231.800754 
C 174.425191 229.97617 175.450375 227.501155 175.450375 224.920803 
C 175.450375 222.340451 174.425191 219.865436 172.600606 218.040852 
C 170.776022 216.216268 168.301007 215.191083 165.720655 215.191083 
C 163.140303 215.191083 160.665289 216.216268 158.840704 218.040852 
C 157.01612 219.865436 155.990935 222.340451 155.990935 224.920803 
C 155.990935 227.501155 157.01612 229.97617 158.840704 231.800754 
C 160.665289 233.625338 163.140303 234.650523 165.720655 234.650523 
z
" clip-path="url(#p2a685745b6)" style="fill: #708090; stroke: #000000; stroke-linejoin: miter"/>
   </g>
   <g id="patch_28">
    <path d="M 165.720496 267.082904 
C 168.300848 267.082904 170.775863 266.057719 172.600447 264.233135 
C 174.425032 262.40855 175.450216 259.933536 175.450216 257.353184 
C 175.450216 254.772832 174.425032 252.297817 172.600447 250.473233 
C 170.775863 248.648648 168.300848 247.623464 165.720496 247.623464 
C 163.140145 247.623464 160.66513 248.648648 158.840545 250.473233 
C 157.015961 252.297817 155.990776 254.772832 155.990776 257.353184 
C 155.990776 259.933536 157.015961 262.40855 158.840545 264.233135 
C 160.66513 266.057719 163.140145 267.082904 165.720496 267.082904 
z
" clip-path="url(#p2a685745b6)" style="fill: #bdb76b; stroke: #000000; stroke-linejoin: miter"/>
   </g>
   <g id="line2d_59">
    <path d="M 263.0178 127.6236 
" clip-path="url(#p2a685745b6)" style="fill: none; stroke: #1f77b4; stroke-width: 1.5; stroke-linecap: square"/>
    <defs>
     <path id="m07c0e7b991" d="M 0 4.949747 
L 2.969848 0 
L 0 -4.949747 
L -2.969848 0 
z
" style="stroke: #000000; stroke-linejoin: miter"/>
    </defs>
    <g clip-path="url(#p2a685745b6)">
     <use xlink:href="#m07c0e7b991" x="263.0178" y="127.6236" style="fill: #1f77b4; stroke: #000000; stroke-linejoin: miter"/>
    </g>
   </g>
   <g id="line2d_60">
    <path d="M 263.0178 127.6236 
" clip-path="url(#p2a685745b6)" style="fill: none; stroke: #ff7f0e; stroke-width: 1.5; stroke-linecap: square"/>
    <defs>
     <path id="m1360183da6" d="M 0 4.949747 
L 2.969848 0 
L 0 -4.949747 
L -2.969848 0 
z
" style="stroke: #000000; stroke-linejoin: miter"/>
    </defs>
    <g clip-path="url(#p2a685745b6)">
     <use xlink:href="#m1360183da6" x="263.0178" y="127.6236" style="fill: #ff7f0e; stroke: #000000; stroke-linejoin: miter"/>
    </g>
   </g>
   <g id="line2d_61">
    <path d="M 133.2882 95.1912 
" clip-path="url(#p2a685745b6)" style="fill: none; stroke: #2ca02c; stroke-width: 1.5; stroke-linecap: square"/>
    <defs>
     <path id="m7e85202055" d="M 0 4.949747 
L 2.969848 0 
L 0 -4.949747 
L -2.969848 0 
z
" style="stroke: #000000; stroke-linejoin: miter"/>
    </defs>
    <g clip-path="url(#p2a685745b6)">
     <use xlink:href="#m7e85202055" x="133.2882" y="95.1912" style="fill: #2ca02c; stroke: #000000; stroke-linejoin: miter"/>
    </g>
   </g>
   <g id="line2d_62">
    <path d="M 165.7206 95.1912 
" clip-path="url(#p2a685745b6)" style="fill: none; stroke: #d62728; stroke-width: 1.5; stroke-linecap: square"/>
    <defs>
     <path id="m71b4703280" d="M 0 4.949747 
L 2.969848 0 
L 0 -4.949747 
L -2.969848 0 
z
" style="stroke: #000000; stroke-linejoin: miter"/>
    </defs>
    <g clip-path="url(#p2a685745b6)">
     <use xlink:href="#m71b4703280" x="165.7206" y="95.1912" style="fill: #d62728; stroke: #000000; stroke-linejoin: miter"/>
    </g>
   </g>
   <g id="line2d_63">
    <path d="M 230.5854 95.1912 
" clip-path="url(#p2a685745b6)" style="fill: none; stroke: #9467bd; stroke-width: 1.5; stroke-linecap: square"/>
    <defs>
     <path id="mf5e893b463" d="M 0 4.949747 
L 2.969848 0 
L 0 -4.949747 
L -2.969848 0 
z
" style="stroke: #000000; stroke-linejoin: miter"/>
    </defs>
    <g clip-path="url(#p2a685745b6)">
     <use xlink:href="#mf5e893b463" x="230.5854" y="95.1912" style="fill: #9467bd; stroke: #000000; stroke-linejoin: miter"/>
    </g>
   </g>
   <g id="line2d_64">
    <path d="M 263.0178 95.1912 
" clip-path="url(#p2a685745b6)" style="fill: none; stroke: #8c564b; stroke-width: 1.5; stroke-linecap: square"/>
    <defs>
     <path id="mfe869fcc0c" d="M 0 4.949747 
L 2.969848 0 
L 0 -4.949747 
L -2.969848 0 
z
" style="stroke: #000000; stroke-linejoin: miter"/>
    </defs>
    <g clip-path="url(#p2a685745b6)">
     <use xlink:href="#mfe869fcc0c" x="263.0178" y="95.1912" style="fill: #8c564b; stroke: #000000; stroke-linejoin: miter"/>
    </g>
   </g>
   <g id="line2d_65">
    <path d="M 133.2882 160.056 
" clip-path="url(#p2a685745b6)" style="fill: none; stroke: #e377c2; stroke-width: 1.5; stroke-linecap: square"/>
    <defs>
     <path id="m3127391ee0" d="M 0 4.949747 
L 2.969848 0 
L 0 -4.949747 
L -2.969848 0 
z
" style="stroke: #000000; stroke-linejoin: miter"/>
    </defs>
    <g clip-path="url(#p2a685745b6)">
     <use xlink:href="#m3127391ee0" x="133.2882" y="160.056" style="fill: #e377c2; stroke: #000000; stroke-linejoin: miter"/>
    </g>
   </g>
   <g id="line2d_66">
    <path d="M 165.7206 160.056 
" clip-path="url(#p2a685745b6)" style="fill: none; stroke: #7f7f7f; stroke-width: 1.5; stroke-linecap: square"/>
    <defs>
     <path id="m4a3f503451" d="M 0 4.949747 
L 2.969848 0 
L 0 -4.949747 
L -2.969848 0 
z
" style="stroke: #000000; stroke-linejoin: miter"/>
    </defs>
    <g clip-path="url(#p2a685745b6)">
     <use xlink:href="#m4a3f503451" x="165.7206" y="160.056" style="fill: #7f7f7f; stroke: #000000; stroke-linejoin: miter"/>
    </g>
   </g>
   <g id="line2d_67">
    <path d="M 230.5854 160.056 
" clip-path="url(#p2a685745b6)" style="fill: none; stroke: #bcbd22; stroke-width: 1.5; stroke-linecap: square"/>
    <defs>
     <path id="m9144a2c93c" d="M 0 4.949747 
L 2.969848 0 
L 0 -4.949747 
L -2.969848 0 
z
" style="stroke: #000000; stroke-linejoin: miter"/>
    </defs>
    <g clip-path="url(#p2a685745b6)">
     <use xlink:href="#m9144a2c93c" x="230.5854" y="160.056" style="fill: #bcbd22; stroke: #000000; stroke-linejoin: miter"/>
    </g>
   </g>
   <g id="line2d_68">
    <path d="M 263.0178 160.056 
" clip-path="url(#p2a685745b6)" style="fill: none; stroke: #17becf; stroke-width: 1.5; stroke-linecap: square"/>
    <defs>
     <path id="m00ac13103b" d="M 0 4.949747 
L 2.969848 0 
L 0 -4.949747 
L -2.969848 0 
z
" style="stroke: #000000; stroke-linejoin: miter"/>
    </defs>
    <g clip-path="url(#p2a685745b6)">
     <use xlink:href="#m00ac13103b" x="263.0178" y="160.056" style="fill: #17becf; stroke: #000000; stroke-linejoin: miter"/>
    </g>
   </g>
   <g id="line2d_69">
    <path d="M 230.5854 62.7588 
" clip-path="url(#p2a685745b6)" style="fill: none; stroke: #2f4f4f; stroke-width: 1.5; stroke-linecap: square"/>
    <defs>
     <path id="m3530e01d18" d="M 0 4.949747 
L 2.969848 0 
L 0 -4.949747 
L -2.969848 0 
z
" style="stroke: #000000; stroke-linejoin: miter"/>
    </defs>
    <g clip-path="url(#p2a685745b6)">
     <use xlink:href="#m3530e01d18" x="230.5854" y="62.7588" style="fill: #2f4f4f; stroke: #000000; stroke-linejoin: miter"/>
    </g>
   </g>
   <g id="line2d_70">
    <path d="M 230.5854 30.3264 
" clip-path="url(#p2a685745b6)" style="fill: none; stroke: #cd5c5c; stroke-width: 1.5; stroke-linecap: square"/>
    <defs>
     <path id="m0687a3488e" d="M 0 4.949747 
L 2.969848 0 
L 0 -4.949747 
L -2.969848 0 
z
" style="stroke: #000000; stroke-linejoin: miter"/>
    </defs>
    <g clip-path="url(#p2a685745b6)">
     <use xlink:href="#m0687a3488e" x="230.5854" y="30.3264" style="fill: #cd5c5c; stroke: #000000; stroke-linejoin: miter"/>
    </g>
   </g>
   <g id="line2d_71">
    <path clip-path="url(#p2a685745b6)" style="fill: none; stroke: #add8e6; stroke-width: 1.5; stroke-linecap: square"/>
    <defs>
     <path id="m9873ab4b21" d="M 0 4.949747 
L 2.969848 0 
L 0 -4.949747 
L -2.969848 0 
z
" style="stroke: #000000; stroke-linejoin: miter"/>
    </defs>
    <g clip-path="url(#p2a685745b6)"/>
   </g>
   <g id="line2d_72">
    <path d="M 230.5854 192.4884 
" clip-path="url(#p2a685745b6)" style="fill: none; stroke: #663399; stroke-width: 1.5; stroke-linecap: square"/>
    <defs>
     <path id="m5ec7ad06b3" d="M 0 4.949747 
L 2.969848 0 
L 0 -4.949747 
L -2.969848 0 
z
" style="stroke: #000000; stroke-linejoin: miter"/>
    </defs>
    <g clip-path="url(#p2a685745b6)">
     <use xlink:href="#m5ec7ad06b3" x="230.5854" y="192.4884" style="fill: #663399; stroke: #000000; stroke-linejoin: miter"/>
    </g>
   </g>
   <g id="line2d_73">
    <path d="M 230.5854 224.9208 
" clip-path="url(#p2a685745b6)" style="fill: none; stroke: #8fbc8f; stroke-width: 1.5; stroke-linecap: square"/>
    <defs>
     <path id="m9a0a44c744" d="M 0 4.949747 
L 2.969848 0 
L 0 -4.949747 
L -2.969848 0 
z
" style="stroke: #000000; stroke-linejoin: miter"/>
    </defs>
    <g clip-path="url(#p2a685745b6)">
     <use xlink:href="#m9a0a44c744" x="230.5854" y="224.9208" style="fill: #8fbc8f; stroke: #000000; stroke-linejoin: miter"/>
    </g>
   </g>
   <g id="line2d_74">
    <path clip-path="url(#p2a685745b6)" style="fill: none; stroke: #00ced1; stroke-width: 1.5; stroke-linecap: square"/>
    <defs>
     <path id="m35a81a33b6" d="M 0 4.949747 
L 2.969848 0 
L 0 -4.949747 
L -2.969848 0 
z
" style="stroke: #000000; stroke-linejoin: miter"/>
    </defs>
    <g clip-path="url(#p2a685745b6)">
     <use xlink:href="#m35a81a33b6" x="230.5854" y="257.3532" style="fill: #00ced1; stroke: #000000; stroke-linejoin: miter"/>
    </g>
   </g>
   <g id="line2d_75">
    <path d="M 165.7206 62.7588 
" clip-path="url(#p2a685745b6)" style="fill: none; stroke: #6a5acd; stroke-width: 1.5; stroke-linecap: square"/>
    <defs>
     <path id="mdec926ff30" d="M 0 4.949747 
L 2.969848 0 
L 0 -4.949747 
L -2.969848 0 
z
" style="stroke: #000000; stroke-linejoin: miter"/>
    </defs>
    <g clip-path="url(#p2a685745b6)">
     <use xlink:href="#mdec926ff30" x="165.7206" y="62.7588" style="fill: #6a5acd; stroke: #000000; stroke-linejoin: miter"/>
    </g>
   </g>
   <g id="line2d_76">
    <path d="M 165.7206 30.3264 
" clip-path="url(#p2a685745b6)" style="fill: none; stroke: #808000; stroke-width: 1.5; stroke-linecap: square"/>
    <defs>
     <path id="mb6d8411eb7" d="M 0 4.949747 
L 2.969848 0 
L 0 -4.949747 
L -2.969848 0 
z
" style="stroke: #000000; stroke-linejoin: miter"/>
    </defs>
    <g clip-path="url(#p2a685745b6)">
     <use xlink:href="#mb6d8411eb7" x="165.7206" y="30.3264" style="fill: #808000; stroke: #000000; stroke-linejoin: miter"/>
    </g>
   </g>
   <g id="line2d_77">
    <path clip-path="url(#p2a685745b6)" style="fill: none; stroke: #a0522d; stroke-width: 1.5; stroke-linecap: square"/>
    <defs>
     <path id="mbec5f2d02c" d="M 0 4.949747 
L 2.969848 0 
L 0 -4.949747 
L -2.969848 0 
z
" style="stroke: #000000; stroke-linejoin: miter"/>
    </defs>
    <g clip-path="url(#p2a685745b6)"/>
   </g>
   <g id="line2d_78">
    <path d="M 165.7206 192.4884 
" clip-path="url(#p2a685745b6)" style="fill: none; stroke: #ff4500; stroke-width: 1.5; stroke-linecap: square"/>
    <defs>
     <path id="m2179ac4dd6" d="M 0 4.949747 
L 2.969848 0 
L 0 -4.949747 
L -2.969848 0 
z
" style="stroke: #000000; stroke-linejoin: miter"/>
    </defs>
    <g clip-path="url(#p2a685745b6)">
     <use xlink:href="#m2179ac4dd6" x="165.7206" y="192.4884" style="fill: #ff4500; stroke: #000000; stroke-linejoin: miter"/>
    </g>
   </g>
   <g id="line2d_79">
    <path d="M 165.7206 224.9208 
" clip-path="url(#p2a685745b6)" style="fill: none; stroke: #708090; stroke-width: 1.5; stroke-linecap: square"/>
    <defs>
     <path id="m1a8f301cc7" d="M 0 4.949747 
L 2.969848 0 
L 0 -4.949747 
L -2.969848 0 
z
" style="stroke: #000000; stroke-linejoin: miter"/>
    </defs>
    <g clip-path="url(#p2a685745b6)">
     <use xlink:href="#m1a8f301cc7" x="165.7206" y="224.9208" style="fill: #708090; stroke: #000000; stroke-linejoin: miter"/>
    </g>
   </g>
   <g id="line2d_80">
    <path clip-path="url(#p2a685745b6)" style="fill: none; stroke: #bdb76b; stroke-width: 1.5; stroke-linecap: square"/>
    <defs>
     <path id="m32fe4dd88d" d="M 0 4.949747 
L 2.969848 0 
L 0 -4.949747 
L -2.969848 0 
z
" style="stroke: #000000; stroke-linejoin: miter"/>
    </defs>
    <g clip-path="url(#p2a685745b6)">
     <use xlink:href="#m32fe4dd88d" x="165.7206" y="257.3532" style="fill: #bdb76b; stroke: #000000; stroke-linejoin: miter"/>
    </g>
   </g>
  </g>
 </g>
 <defs>
  <clipPath id="p2a685745b6">
   <rect x="100.8558" y="30.3264" width="194.5944" height="194.5944"/>
  </clipPath>
 </defs>
</svg>
