<?xml version="1.0" encoding="utf-8" standalone="no"?>
<!DOCTYPE svg PUBLIC "-//W3C//DTD SVG 1.1//EN"
  "http://www.w3.org/Graphics/SVG/1.1/DTD/svg11.dtd">
<svg xmlns:xlink="http://www.w3.org/1999/xlink" width="386.64pt" height="252.72pt" viewBox="0 0 386.64 252.72" xmlns="http://www.w3.org/2000/svg" version="1.1">
 <metadata>
  <rdf:RDF xmlns:dc="http://purl.org/dc/elements/1.1/" xmlns:cc="http://creativecommons.org/ns#" xmlns:rdf="http://www.w3.org/1999/02/22-rdf-syntax-ns#">
   <cc:Work>
    <dc:type rdf:resource="http://purl.org/dc/dcmitype/StillImage"/>
    <dc:date>2023-07-11T22:26:57.889190</dc:date>
    <dc:format>image/svg+xml</dc:format>
    <dc:creator>
     <cc:Agent>
      <dc:title>Matplotlib v3.6.2, https://matplotlib.org/</dc:title>
     </cc:Agent>
    </dc:creator>
   </cc:Work>
  </rdf:RDF>
 </metadata>
 <defs>
  <style type="text/css">*{stroke-linejoin: round; stroke-linecap: butt}</style>
 </defs>
 <g id="figure_1">
  <g id="patch_1">
   <path d="M 0 252.72 
L 386.64 252.72 
L 386.64 0 
L 0 0 
z
" style="fill: #ffffff"/>
  </g>
  <g id="axes_1">
   <g id="patch_2">
    <path d="M 100.8558 224.9208 
L 295.4502 224.9208 
L 295.4502 30.3264 
L 100.8558 30.3264 
z
" style="fill: #ffffff"/>
   </g>
   <g id="matplotlib.axis_1">
    <g id="xtick_1">
     <g id="line2d_1">
      <defs>
       <path id="mc2f7c5c141" d="M 0 0 
L 0 3.5 
" style="stroke: #000000; stroke-width: 0.8"/>
      </defs>
      <g>
       <use xlink:href="#mc2f7c5c141" x="100.8558" y="224.9208" style="stroke: #000000; stroke-width: 0.8"/>
      </g>
     </g>
     <g id="text_1">
      <!-- −0.5 -->
      <g transform="translate(88.714394 239.519237) scale(0.1 -0.1)">
       <defs>
        <path id="DejaVuSans-2212" d="M 678 2272 
L 4684 2272 
L 4684 1741 
L 678 1741 
L 678 2272 
z
" transform="scale(0.015625)"/>
        <path id="DejaVuSans-30" d="M 2034 4250 
Q 1547 4250 1301 3770 
Q 1056 3291 1056 2328 
Q 1056 1369 1301 889 
Q 1547 409 2034 409 
Q 2525 409 2770 889 
Q 3016 1369 3016 2328 
Q 3016 3291 2770 3770 
Q 2525 4250 2034 4250 
z
M 2034 4750 
Q 2819 4750 3233 4129 
Q 3647 3509 3647 2328 
Q 3647 1150 3233 529 
Q 2819 -91 2034 -91 
Q 1250 -91 836 529 
Q 422 1150 422 2328 
Q 422 3509 836 4129 
Q 1250 4750 2034 4750 
z
" transform="scale(0.015625)"/>
        <path id="DejaVuSans-2e" d="M 684 794 
L 1344 794 
L 1344 0 
L 684 0 
L 684 794 
z
" transform="scale(0.015625)"/>
        <path id="DejaVuSans-35" d="M 691 4666 
L 3169 4666 
L 3169 4134 
L 1269 4134 
L 1269 2991 
Q 1406 3038 1543 3061 
Q 1681 3084 1819 3084 
Q 2600 3084 3056 2656 
Q 3513 2228 3513 1497 
Q 3513 744 3044 326 
Q 2575 -91 1722 -91 
Q 1428 -91 1123 -41 
Q 819 9 494 109 
L 494 744 
Q 775 591 1075 516 
Q 1375 441 1709 441 
Q 2250 441 2565 725 
Q 2881 1009 2881 1497 
Q 2881 1984 2565 2268 
Q 2250 2553 1709 2553 
Q 1456 2553 1204 2497 
Q 953 2441 691 2322 
L 691 4666 
z
" transform="scale(0.015625)"/>
       </defs>
       <use xlink:href="#DejaVuSans-2212"/>
       <use xlink:href="#DejaVuSans-30" x="83.789062"/>
       <use xlink:href="#DejaVuSans-2e" x="147.412109"/>
       <use xlink:href="#DejaVuSans-35" x="179.199219"/>
      </g>
     </g>
    </g>
    <g id="xtick_2">
     <g id="line2d_2">
      <g>
       <use xlink:href="#mc2f7c5c141" x="133.2882" y="224.9208" style="stroke: #000000; stroke-width: 0.8"/>
      </g>
     </g>
     <g id="text_2">
      <!-- 0.0 -->
      <g transform="translate(125.336638 239.519237) scale(0.1 -0.1)">
       <use xlink:href="#DejaVuSans-30"/>
       <use xlink:href="#DejaVuSans-2e" x="63.623047"/>
       <use xlink:href="#DejaVuSans-30" x="95.410156"/>
      </g>
     </g>
    </g>
    <g id="xtick_3">
     <g id="line2d_3">
      <g>
       <use xlink:href="#mc2f7c5c141" x="165.7206" y="224.9208" style="stroke: #000000; stroke-width: 0.8"/>
      </g>
     </g>
     <g id="text_3">
      <!-- 0.5 -->
      <g transform="translate(157.769037 239.519237) scale(0.1 -0.1)">
       <use xlink:href="#DejaVuSans-30"/>
       <use xlink:href="#DejaVuSans-2e" x="63.623047"/>
       <use xlink:href="#DejaVuSans-35" x="95.410156"/>
      </g>
     </g>
    </g>
    <g id="xtick_4">
     <g id="line2d_4">
      <g>
       <use xlink:href="#mc2f7c5c141" x="198.153" y="224.9208" style="stroke: #000000; stroke-width: 0.8"/>
      </g>
     </g>
     <g id="text_4">
      <!-- 1.0 -->
      <g transform="translate(190.201437 239.519237) scale(0.1 -0.1)">
       <defs>
        <path id="DejaVuSans-31" d="M 794 531 
L 1825 531 
L 1825 4091 
L 703 3866 
L 703 4441 
L 1819 4666 
L 2450 4666 
L 2450 531 
L 3481 531 
L 3481 0 
L 794 0 
L 794 531 
z
" transform="scale(0.015625)"/>
       </defs>
       <use xlink:href="#DejaVuSans-31"/>
       <use xlink:href="#DejaVuSans-2e" x="63.623047"/>
       <use xlink:href="#DejaVuSans-30" x="95.410156"/>
      </g>
     </g>
    </g>
    <g id="xtick_5">
     <g id="line2d_5">
      <g>
       <use xlink:href="#mc2f7c5c141" x="230.5854" y="224.9208" style="stroke: #000000; stroke-width: 0.8"/>
      </g>
     </g>
     <g id="text_5">
      <!-- 1.5 -->
      <g transform="translate(222.633837 239.519237) scale(0.1 -0.1)">
       <use xlink:href="#DejaVuSans-31"/>
       <use xlink:href="#DejaVuSans-2e" x="63.623047"/>
       <use xlink:href="#DejaVuSans-35" x="95.410156"/>
      </g>
     </g>
    </g>
    <g id="xtick_6">
     <g id="line2d_6">
      <g>
       <use xlink:href="#mc2f7c5c141" x="263.0178" y="224.9208" style="stroke: #000000; stroke-width: 0.8"/>
      </g>
     </g>
     <g id="text_6">
      <!-- 2.0 -->
      <g transform="translate(255.066237 239.519237) scale(0.1 -0.1)">
       <defs>
        <path id="DejaVuSans-32" d="M 1228 531 
L 3431 531 
L 3431 0 
L 469 0 
L 469 531 
Q 828 903 1448 1529 
Q 2069 2156 2228 2338 
Q 2531 2678 2651 2914 
Q 2772 3150 2772 3378 
Q 2772 3750 2511 3984 
Q 2250 4219 1831 4219 
Q 1534 4219 1204 4116 
Q 875 4013 500 3803 
L 500 4441 
Q 881 4594 1212 4672 
Q 1544 4750 1819 4750 
Q 2544 4750 2975 4387 
Q 3406 4025 3406 3419 
Q 3406 3131 3298 2873 
Q 3191 2616 2906 2266 
Q 2828 2175 2409 1742 
Q 1991 1309 1228 531 
z
" transform="scale(0.015625)"/>
       </defs>
       <use xlink:href="#DejaVuSans-32"/>
       <use xlink:href="#DejaVuSans-2e" x="63.623047"/>
       <use xlink:href="#DejaVuSans-30" x="95.410156"/>
      </g>
     </g>
    </g>
    <g id="xtick_7">
     <g id="line2d_7">
      <g>
       <use xlink:href="#mc2f7c5c141" x="295.4502" y="224.9208" style="stroke: #000000; stroke-width: 0.8"/>
      </g>
     </g>
     <g id="text_7">
      <!-- 2.5 -->
      <g transform="translate(287.498637 239.519237) scale(0.1 -0.1)">
       <use xlink:href="#DejaVuSans-32"/>
       <use xlink:href="#DejaVuSans-2e" x="63.623047"/>
       <use xlink:href="#DejaVuSans-35" x="95.410156"/>
      </g>
     </g>
    </g>
    <g id="text_8">
     <!-- x(m) -->
     <g transform="translate(186.42175 253.197362) scale(0.1 -0.1)">
      <defs>
       <path id="DejaVuSans-78" d="M 3513 3500 
L 2247 1797 
L 3578 0 
L 2900 0 
L 1881 1375 
L 863 0 
L 184 0 
L 1544 1831 
L 300 3500 
L 978 3500 
L 1906 2253 
L 2834 3500 
L 3513 3500 
z
" transform="scale(0.015625)"/>
       <path id="DejaVuSans-28" d="M 1984 4856 
Q 1566 4138 1362 3434 
Q 1159 2731 1159 2009 
Q 1159 1288 1364 580 
Q 1569 -128 1984 -844 
L 1484 -844 
Q 1016 -109 783 600 
Q 550 1309 550 2009 
Q 550 2706 781 3412 
Q 1013 4119 1484 4856 
L 1984 4856 
z
" transform="scale(0.015625)"/>
       <path id="DejaVuSans-6d" d="M 3328 2828 
Q 3544 3216 3844 3400 
Q 4144 3584 4550 3584 
Q 5097 3584 5394 3201 
Q 5691 2819 5691 2113 
L 5691 0 
L 5113 0 
L 5113 2094 
Q 5113 2597 4934 2840 
Q 4756 3084 4391 3084 
Q 3944 3084 3684 2787 
Q 3425 2491 3425 1978 
L 3425 0 
L 2847 0 
L 2847 2094 
Q 2847 2600 2669 2842 
Q 2491 3084 2119 3084 
Q 1678 3084 1418 2786 
Q 1159 2488 1159 1978 
L 1159 0 
L 581 0 
L 581 3500 
L 1159 3500 
L 1159 2956 
Q 1356 3278 1631 3431 
Q 1906 3584 2284 3584 
Q 2666 3584 2933 3390 
Q 3200 3197 3328 2828 
z
" transform="scale(0.015625)"/>
       <path id="DejaVuSans-29" d="M 513 4856 
L 1013 4856 
Q 1481 4119 1714 3412 
Q 1947 2706 1947 2009 
Q 1947 1309 1714 600 
Q 1481 -109 1013 -844 
L 513 -844 
Q 928 -128 1133 580 
Q 1338 1288 1338 2009 
Q 1338 2731 1133 3434 
Q 928 4138 513 4856 
z
" transform="scale(0.015625)"/>
      </defs>
      <use xlink:href="#DejaVuSans-78"/>
      <use xlink:href="#DejaVuSans-28" x="59.179688"/>
      <use xlink:href="#DejaVuSans-6d" x="98.193359"/>
      <use xlink:href="#DejaVuSans-29" x="195.605469"/>
     </g>
    </g>
   </g>
   <g id="matplotlib.axis_2">
    <g id="ytick_1">
     <g id="line2d_8">
      <defs>
       <path id="m72cd40f799" d="M 0 0 
L -3.5 0 
" style="stroke: #000000; stroke-width: 0.8"/>
      </defs>
      <g>
       <use xlink:href="#m72cd40f799" x="100.8558" y="224.9208" style="stroke: #000000; stroke-width: 0.8"/>
      </g>
     </g>
     <g id="text_9">
      <!-- −0.5 -->
      <g transform="translate(69.572988 228.720019) scale(0.1 -0.1)">
       <use xlink:href="#DejaVuSans-2212"/>
       <use xlink:href="#DejaVuSans-30" x="83.789062"/>
       <use xlink:href="#DejaVuSans-2e" x="147.412109"/>
       <use xlink:href="#DejaVuSans-35" x="179.199219"/>
      </g>
     </g>
    </g>
    <g id="ytick_2">
     <g id="line2d_9">
      <g>
       <use xlink:href="#m72cd40f799" x="100.8558" y="192.4884" style="stroke: #000000; stroke-width: 0.8"/>
      </g>
     </g>
     <g id="text_10">
      <!-- 0.0 -->
      <g transform="translate(77.952675 196.287619) scale(0.1 -0.1)">
       <use xlink:href="#DejaVuSans-30"/>
       <use xlink:href="#DejaVuSans-2e" x="63.623047"/>
       <use xlink:href="#DejaVuSans-30" x="95.410156"/>
      </g>
     </g>
    </g>
    <g id="ytick_3">
     <g id="line2d_10">
      <g>
       <use xlink:href="#m72cd40f799" x="100.8558" y="160.056" style="stroke: #000000; stroke-width: 0.8"/>
      </g>
     </g>
     <g id="text_11">
      <!-- 0.5 -->
      <g transform="translate(77.952675 163.855219) scale(0.1 -0.1)">
       <use xlink:href="#DejaVuSans-30"/>
       <use xlink:href="#DejaVuSans-2e" x="63.623047"/>
       <use xlink:href="#DejaVuSans-35" x="95.410156"/>
      </g>
     </g>
    </g>
    <g id="ytick_4">
     <g id="line2d_11">
      <g>
       <use xlink:href="#m72cd40f799" x="100.8558" y="127.6236" style="stroke: #000000; stroke-width: 0.8"/>
      </g>
     </g>
     <g id="text_12">
      <!-- 1.0 -->
      <g transform="translate(77.952675 131.422819) scale(0.1 -0.1)">
       <use xlink:href="#DejaVuSans-31"/>
       <use xlink:href="#DejaVuSans-2e" x="63.623047"/>
       <use xlink:href="#DejaVuSans-30" x="95.410156"/>
      </g>
     </g>
    </g>
    <g id="ytick_5">
     <g id="line2d_12">
      <g>
       <use xlink:href="#m72cd40f799" x="100.8558" y="95.1912" style="stroke: #000000; stroke-width: 0.8"/>
      </g>
     </g>
     <g id="text_13">
      <!-- 1.5 -->
      <g transform="translate(77.952675 98.990419) scale(0.1 -0.1)">
       <use xlink:href="#DejaVuSans-31"/>
       <use xlink:href="#DejaVuSans-2e" x="63.623047"/>
       <use xlink:href="#DejaVuSans-35" x="95.410156"/>
      </g>
     </g>
    </g>
    <g id="ytick_6">
     <g id="line2d_13">
      <g>
       <use xlink:href="#m72cd40f799" x="100.8558" y="62.7588" style="stroke: #000000; stroke-width: 0.8"/>
      </g>
     </g>
     <g id="text_14">
      <!-- 2.0 -->
      <g transform="translate(77.952675 66.558019) scale(0.1 -0.1)">
       <use xlink:href="#DejaVuSans-32"/>
       <use xlink:href="#DejaVuSans-2e" x="63.623047"/>
       <use xlink:href="#DejaVuSans-30" x="95.410156"/>
      </g>
     </g>
    </g>
    <g id="ytick_7">
     <g id="line2d_14">
      <g>
       <use xlink:href="#m72cd40f799" x="100.8558" y="30.3264" style="stroke: #000000; stroke-width: 0.8"/>
      </g>
     </g>
     <g id="text_15">
      <!-- 2.5 -->
      <g transform="translate(77.952675 34.125619) scale(0.1 -0.1)">
       <use xlink:href="#DejaVuSans-32"/>
       <use xlink:href="#DejaVuSans-2e" x="63.623047"/>
       <use xlink:href="#DejaVuSans-35" x="95.410156"/>
      </g>
     </g>
    </g>
    <g id="text_16">
     <!-- y(m) -->
     <g transform="translate(63.4933 139.35485) rotate(-90) scale(0.1 -0.1)">
      <defs>
       <path id="DejaVuSans-79" d="M 2059 -325 
Q 1816 -950 1584 -1140 
Q 1353 -1331 966 -1331 
L 506 -1331 
L 506 -850 
L 844 -850 
Q 1081 -850 1212 -737 
Q 1344 -625 1503 -206 
L 1606 56 
L 191 3500 
L 800 3500 
L 1894 763 
L 2988 3500 
L 3597 3500 
L 2059 -325 
z
" transform="scale(0.015625)"/>
      </defs>
      <use xlink:href="#DejaVuSans-79"/>
      <use xlink:href="#DejaVuSans-28" x="59.179688"/>
      <use xlink:href="#DejaVuSans-6d" x="98.193359"/>
      <use xlink:href="#DejaVuSans-29" x="195.605469"/>
     </g>
    </g>
   </g>
   <g id="line2d_15">
    <path d="M 263.017815 127.623585 
L 263.018037 127.623454 
L 263.017464 127.623671 
L 263.017916 127.623583 
L 263.017772 127.623603 
L 263.017895 127.623585 
L 263.018506 127.623483 
L 263.022057 127.622892 
L 263.028843 127.621764 
L 263.03071 127.621453 
L 263.04268 127.619463 
L 263.032068 127.621228 
L 263.032068 127.621228 
" clip-path="url(#p68dbeb8f54)" style="fill: none; stroke-dasharray: 2,3.3; stroke-dashoffset: 0; stroke: #1f77b4; stroke-width: 2"/>
   </g>
   <g id="line2d_16">
    <path d="M 133.2882 127.6236 
L 133.2882 127.6236 
L 133.768676 127.621531 
L 138.573349 127.593776 
L 147.701648 127.493337 
L 160.673863 127.41217 
L 173.646739 127.459601 
L 186.619963 127.486284 
L 199.592908 127.523189 
L 212.567005 127.607597 
L 225.536461 127.5202 
L 238.341407 126.667687 
L 249.679077 126.428069 
L 257.640665 127.139288 
L 262.299995 127.540144 
L 263.112185 127.634279 
L 263.006673 127.622341 
L 263.019112 127.623748 
L 263.017645 127.623583 
L 263.017818 127.623602 
L 263.017798 127.6236 
L 263.0178 127.6236 
L 263.017798 127.623601 
L 263.017815 127.623585 
" clip-path="url(#p68dbeb8f54)" style="fill: none; stroke: #1f77b4; stroke-width: 2; stroke-linecap: square"/>
   </g>
   <g id="line2d_17">
    <path d="M 241.578358 131.185007 
L 241.571034 131.158198 
L 241.56972 131.170817 
L 241.573046 131.17713 
L 241.575904 131.180448 
L 241.578032 131.182557 
L 241.57965 131.183996 
L 241.580807 131.185057 
L 241.585785 131.185187 
L 241.589656 131.1853 
L 241.599218 131.184322 
L 241.607129 131.183513 
L 241.607129 131.183513 
" clip-path="url(#p68dbeb8f54)" style="fill: none; stroke-dasharray: 2,3.3; stroke-dashoffset: 0; stroke: #ff7f0e; stroke-width: 2"/>
   </g>
   <g id="line2d_18">
    <path d="M 198.153 205.46136 
L 198.153 205.46136 
L 198.164648 204.981025 
L 198.417246 200.200816 
L 199.877385 191.454013 
L 201.48243 180.264573 
L 202.738317 169.560811 
L 204.917797 161.07713 
L 207.09932 154.814228 
L 209.379241 150.892168 
L 211.999015 147.096721 
L 218.032057 141.250712 
L 226.183594 137.004547 
L 232.872114 134.000627 
L 237.806064 132.265695 
L 240.06566 131.422425 
L 240.879042 131.192219 
L 241.162835 131.331402 
L 241.412368 131.239806 
L 241.510508 131.207438 
L 241.550795 131.195585 
L 241.568181 131.191014 
L 241.575887 131.189232 
L 241.578358 131.185007 
" clip-path="url(#p68dbeb8f54)" style="fill: none; stroke: #ff7f0e; stroke-width: 2; stroke-linecap: square"/>
   </g>
   <g id="line2d_19">
    <path d="M 133.288221 95.190934 
L 133.288218 95.190933 
L 133.288216 95.190934 
L 133.288214 95.190937 
L 133.288211 95.190944 
L 133.288209 95.190954 
L 133.288207 95.190967 
L 133.288206 95.190983 
L 133.288204 95.191001 
L 133.288203 95.191018 
L 133.288202 95.19103 
L 133.288202 95.191036 
L 133.288202 95.191036 
" clip-path="url(#p68dbeb8f54)" style="fill: none; stroke-dasharray: 2,3.3; stroke-dashoffset: 0; stroke: #2ca02c; stroke-width: 2"/>
   </g>
   <g id="line2d_20">
    <path d="M 133.2882 95.1912 
L 133.2882 95.1912 
L 133.2882 95.1912 
L 133.288202 95.1912 
L 133.288204 95.191197 
L 133.288206 95.19119 
L 133.288211 95.191173 
L 133.288216 95.191155 
L 133.288222 95.191135 
L 133.288224 95.191111 
L 133.288228 95.191086 
L 133.28823 95.191064 
L 133.288232 95.191043 
L 133.288235 95.191023 
L 133.288236 95.191005 
L 133.288236 95.19099 
L 133.288235 95.190976 
L 133.288234 95.190965 
L 133.288232 95.190955 
L 133.28823 95.190948 
L 133.288228 95.190942 
L 133.288225 95.190938 
L 133.288223 95.190935 
L 133.288221 95.190934 
" clip-path="url(#p68dbeb8f54)" style="fill: none; stroke: #2ca02c; stroke-width: 2; stroke-linecap: square"/>
   </g>
   <g id="line2d_21">
    <path d="M 165.720649 95.191297 
L 165.720673 95.191314 
L 165.720702 95.191332 
L 165.720731 95.191348 
L 165.720748 95.191353 
L 165.720752 95.191348 
L 165.720747 95.191334 
L 165.720734 95.191314 
L 165.720717 95.191289 
L 165.720699 95.191263 
L 165.720685 95.191241 
L 165.720677 95.191229 
L 165.720677 95.191229 
" clip-path="url(#p68dbeb8f54)" style="fill: none; stroke-dasharray: 2,3.3; stroke-dashoffset: 0; stroke: #d62728; stroke-width: 2"/>
   </g>
   <g id="line2d_22">
    <path d="M 165.7206 95.1912 
L 165.7206 95.1912 
L 165.720601 95.191194 
L 165.720603 95.19115 
L 165.720581 95.191153 
L 165.720541 95.191158 
L 165.720483 95.19116 
L 165.720422 95.191125 
L 165.720366 95.191081 
L 165.720311 95.191045 
L 165.720281 95.191024 
L 165.720264 95.191013 
L 165.720261 95.191012 
L 165.720272 95.191017 
L 165.720291 95.191024 
L 165.720326 95.19105 
L 165.720369 95.191085 
L 165.720416 95.191123 
L 165.720464 95.19116 
L 165.720509 95.191195 
L 165.720551 95.191227 
L 165.720588 95.191254 
L 165.720621 95.191278 
L 165.720649 95.191297 
" clip-path="url(#p68dbeb8f54)" style="fill: none; stroke: #d62728; stroke-width: 2; stroke-linecap: square"/>
   </g>
   <g id="line2d_23">
    <path d="M 230.585696 95.190502 
L 230.58569 95.190475 
L 230.585709 95.190458 
L 230.585742 95.190487 
L 230.58576 95.190582 
L 230.585755 95.190711 
L 230.585725 95.190837 
L 230.585674 95.190944 
L 230.585612 95.191037 
L 230.58555 95.191114 
L 230.585504 95.191164 
L 230.585482 95.191187 
L 230.585482 95.191187 
" clip-path="url(#p68dbeb8f54)" style="fill: none; stroke-dasharray: 2,3.3; stroke-dashoffset: 0; stroke: #9467bd; stroke-width: 2"/>
   </g>
   <g id="line2d_24">
    <path d="M 230.5854 95.1912 
L 230.5854 95.1912 
L 230.5854 95.191198 
L 230.585399 95.191183 
L 230.585405 95.191174 
L 230.585427 95.191186 
L 230.585443 95.191202 
L 230.585457 95.191257 
L 230.585477 95.191298 
L 230.585509 95.191287 
L 230.585553 95.191222 
L 230.585594 95.19117 
L 230.58563 95.191129 
L 230.585659 95.191094 
L 230.585686 95.191036 
L 230.585704 95.190962 
L 230.585716 95.190885 
L 230.585722 95.190811 
L 230.585723 95.190742 
L 230.585721 95.190679 
L 230.585717 95.190624 
L 230.585711 95.190576 
L 230.585704 95.190535 
L 230.585696 95.190502 
" clip-path="url(#p68dbeb8f54)" style="fill: none; stroke: #9467bd; stroke-width: 2; stroke-linecap: square"/>
   </g>
   <g id="line2d_25">
    <path d="M 263.01777 95.190959 
L 263.017772 95.190961 
L 263.017774 95.190965 
L 263.017777 95.190972 
L 263.017779 95.190982 
L 263.017782 95.190995 
L 263.017785 95.191011 
L 263.017787 95.191029 
L 263.017789 95.191048 
L 263.017791 95.191065 
L 263.017792 95.191078 
L 263.017793 95.191083 
L 263.017793 95.191083 
" clip-path="url(#p68dbeb8f54)" style="fill: none; stroke-dasharray: 2,3.3; stroke-dashoffset: 0; stroke: #8c564b; stroke-width: 2"/>
   </g>
   <g id="line2d_26">
    <path d="M 263.0178 95.1912 
L 263.0178 95.1912 
L 263.017801 95.1912 
L 263.017807 95.191203 
L 263.017812 95.191199 
L 263.017815 95.191193 
L 263.017817 95.191185 
L 263.017818 95.191173 
L 263.017819 95.191161 
L 263.017818 95.19115 
L 263.017817 95.191135 
L 263.017814 95.191106 
L 263.017803 95.191071 
L 263.017793 95.191044 
L 263.017784 95.191022 
L 263.017777 95.191004 
L 263.017772 95.190989 
L 263.017769 95.190978 
L 263.017766 95.190969 
L 263.017765 95.190963 
L 263.017765 95.190959 
L 263.017766 95.190957 
L 263.017768 95.190957 
L 263.01777 95.190959 
" clip-path="url(#p68dbeb8f54)" style="fill: none; stroke: #8c564b; stroke-width: 2; stroke-linecap: square"/>
   </g>
   <g id="line2d_27">
    <path d="M 133.288234 160.056223 
L 133.288229 160.056228 
L 133.288225 160.056233 
L 133.288221 160.056234 
L 133.288217 160.056232 
L 133.288213 160.056226 
L 133.28821 160.056217 
L 133.288207 160.056204 
L 133.288204 160.056189 
L 133.288203 160.056175 
L 133.288202 160.056164 
L 133.288201 160.056159 
L 133.288201 160.056159 
" clip-path="url(#p68dbeb8f54)" style="fill: none; stroke-dasharray: 2,3.3; stroke-dashoffset: 0; stroke: #e377c2; stroke-width: 2"/>
   </g>
   <g id="line2d_28">
    <path d="M 133.2882 160.056 
L 133.2882 160.056 
L 133.2882 160.056 
L 133.288203 160.056 
L 133.288205 160.056004 
L 133.288208 160.056011 
L 133.28821 160.05602 
L 133.288212 160.056031 
L 133.288213 160.056043 
L 133.288215 160.056057 
L 133.288218 160.056072 
L 133.288228 160.056085 
L 133.288237 160.056099 
L 133.288244 160.056114 
L 133.288249 160.056128 
L 133.288252 160.056143 
L 133.288253 160.056156 
L 133.288253 160.056169 
L 133.288251 160.056181 
L 133.288249 160.056191 
L 133.288246 160.056201 
L 133.288242 160.056209 
L 133.288238 160.056217 
L 133.288234 160.056223 
" clip-path="url(#p68dbeb8f54)" style="fill: none; stroke: #e377c2; stroke-width: 2; stroke-linecap: square"/>
   </g>
   <g id="line2d_29">
    <path d="M 165.720594 160.055814 
L 165.720625 160.055821 
L 165.720663 160.055823 
L 165.720702 160.055824 
L 165.720728 160.055833 
L 165.720741 160.055848 
L 165.720743 160.055868 
L 165.720737 160.055894 
L 165.720724 160.055922 
L 165.720709 160.055952 
L 165.720696 160.055978 
L 165.72069 160.055992 
L 165.72069 160.055992 
" clip-path="url(#p68dbeb8f54)" style="fill: none; stroke-dasharray: 2,3.3; stroke-dashoffset: 0; stroke: #7f7f7f; stroke-width: 2"/>
   </g>
   <g id="line2d_30">
    <path d="M 165.7206 160.056 
L 165.7206 160.056 
L 165.7206 160.055997 
L 165.720599 160.05597 
L 165.720579 160.055908 
L 165.72054 160.055856 
L 165.720503 160.055767 
L 165.72048 160.055656 
L 165.720446 160.055586 
L 165.720426 160.055548 
L 165.720405 160.055537 
L 165.720398 160.05555 
L 165.720388 160.055578 
L 165.720397 160.055602 
L 165.720396 160.055649 
L 165.720377 160.055687 
L 165.720378 160.055717 
L 165.720394 160.05574 
L 165.72042 160.055758 
L 165.720453 160.055772 
L 165.720489 160.055784 
L 165.720526 160.055795 
L 165.720561 160.055805 
L 165.720594 160.055814 
" clip-path="url(#p68dbeb8f54)" style="fill: none; stroke: #7f7f7f; stroke-width: 2; stroke-linecap: square"/>
   </g>
   <g id="line2d_31">
    <path d="M 230.585645 160.056031 
L 230.585645 160.056031 
L 230.585656 160.05603 
L 230.585668 160.056027 
L 230.585664 160.056023 
L 230.585644 160.056019 
L 230.585611 160.056015 
L 230.585568 160.056012 
L 230.585523 160.056009 
L 230.58548 160.056007 
L 230.58545 160.056005 
L 230.585436 160.056005 
L 230.585436 160.056005 
" clip-path="url(#p68dbeb8f54)" style="fill: none; stroke-dasharray: 2,3.3; stroke-dashoffset: 0; stroke: #bcbd22; stroke-width: 2"/>
   </g>
   <g id="line2d_32">
    <path d="M 230.5854 160.056 
L 230.5854 160.056 
L 230.5854 160.056002 
L 230.585404 160.056019 
L 230.585426 160.055987 
L 230.585441 160.055965 
L 230.585453 160.055958 
L 230.585459 160.055962 
L 230.585459 160.055967 
L 230.585467 160.055979 
L 230.585475 160.055991 
L 230.58547 160.056002 
L 230.585459 160.056052 
L 230.585468 160.056053 
L 230.585489 160.056051 
L 230.58552 160.056047 
L 230.585555 160.056044 
L 230.585584 160.056041 
L 230.585606 160.056038 
L 230.585623 160.056036 
L 230.585634 160.056034 
L 230.585641 160.056033 
L 230.585645 160.056032 
L 230.585645 160.056031 
" clip-path="url(#p68dbeb8f54)" style="fill: none; stroke: #bcbd22; stroke-width: 2; stroke-linecap: square"/>
   </g>
   <g id="line2d_33">
    <path d="M 263.017787 160.056229 
L 263.017789 160.056229 
L 263.017791 160.056228 
L 263.017792 160.056224 
L 263.017793 160.056216 
L 263.017794 160.056206 
L 263.017795 160.056191 
L 263.017796 160.056175 
L 263.017797 160.056157 
L 263.017797 160.05614 
L 263.017797 160.056128 
L 263.017798 160.056123 
L 263.017798 160.056123 
" clip-path="url(#p68dbeb8f54)" style="fill: none; stroke-dasharray: 2,3.3; stroke-dashoffset: 0; stroke: #17becf; stroke-width: 2"/>
   </g>
   <g id="line2d_34">
    <path d="M 263.0178 160.056 
L 263.0178 160.056 
L 263.0178 160.056 
L 263.0178 160.056 
L 263.0178 160.056006 
L 263.017801 160.056017 
L 263.017802 160.056031 
L 263.017798 160.056043 
L 263.017795 160.056057 
L 263.017792 160.056072 
L 263.017789 160.056089 
L 263.017785 160.056112 
L 263.017783 160.056135 
L 263.01778 160.056158 
L 263.017778 160.056174 
L 263.017777 160.056187 
L 263.017777 160.056198 
L 263.017777 160.056207 
L 263.017778 160.056214 
L 263.017779 160.05622 
L 263.017781 160.056224 
L 263.017783 160.056227 
L 263.017785 160.056229 
L 263.017787 160.056229 
" clip-path="url(#p68dbeb8f54)" style="fill: none; stroke: #17becf; stroke-width: 2; stroke-linecap: square"/>
   </g>
   <g id="line2d_35">
    <path d="M 230.586024 62.758905 
L 230.586025 62.758918 
L 230.58598 62.758922 
L 230.585896 62.758917 
L 230.585789 62.758904 
L 230.585673 62.758885 
L 230.585556 62.758861 
L 230.585448 62.758833 
L 230.585357 62.758803 
L 230.585291 62.758773 
L 230.585253 62.758747 
L 230.585237 62.758731 
L 230.585237 62.758731 
" clip-path="url(#p68dbeb8f54)" style="fill: none; stroke-dasharray: 2,3.3; stroke-dashoffset: 0; stroke: #2f4f4f; stroke-width: 2"/>
   </g>
   <g id="line2d_36">
    <path d="M 230.5854 62.7588 
L 230.5854 62.7588 
L 230.5854 62.758798 
L 230.585398 62.758783 
L 230.585395 62.75877 
L 230.585392 62.758761 
L 230.585391 62.758756 
L 230.585392 62.758754 
L 230.585393 62.758755 
L 230.585397 62.758759 
L 230.585416 62.758765 
L 230.585444 62.758771 
L 230.585472 62.758776 
L 230.585495 62.75878 
L 230.585546 62.758771 
L 230.585621 62.758774 
L 230.585706 62.758784 
L 230.585744 62.758792 
L 230.585802 62.758807 
L 230.585867 62.758827 
L 230.585882 62.758841 
L 230.585918 62.758859 
L 230.585969 62.758882 
L 230.586024 62.758905 
" clip-path="url(#p68dbeb8f54)" style="fill: none; stroke: #2f4f4f; stroke-width: 2; stroke-linecap: square"/>
   </g>
   <g id="line2d_37">
    <path d="M 230.585351 30.326544 
L 230.585358 30.32653 
L 230.585365 30.326518 
L 230.585371 30.326507 
L 230.585378 30.326495 
L 230.585384 30.326483 
L 230.58539 30.326469 
L 230.585395 30.326454 
L 230.585399 30.32644 
L 230.585402 30.326428 
L 230.585404 30.326419 
L 230.585405 30.326415 
L 230.585405 30.326415 
" clip-path="url(#p68dbeb8f54)" style="fill: none; stroke-dasharray: 2,3.3; stroke-dashoffset: 0; stroke: #cd5c5c; stroke-width: 2"/>
   </g>
   <g id="line2d_38">
    <path d="M 230.5854 30.3264 
L 230.5854 30.3264 
L 230.585397 30.326406 
L 230.585368 30.32646 
L 230.585347 30.326501 
L 230.585328 30.326531 
L 230.585311 30.326561 
L 230.585298 30.326587 
L 230.585288 30.326613 
L 230.585283 30.326639 
L 230.58528 30.326662 
L 230.58528 30.326679 
L 230.585281 30.32669 
L 230.585284 30.326694 
L 230.585289 30.326696 
L 230.585295 30.326687 
L 230.585301 30.326673 
L 230.585306 30.326653 
L 230.585313 30.326633 
L 230.58532 30.326614 
L 230.585329 30.326596 
L 230.585337 30.326578 
L 230.585345 30.326561 
L 230.585351 30.326544 
" clip-path="url(#p68dbeb8f54)" style="fill: none; stroke: #cd5c5c; stroke-width: 2; stroke-linecap: square"/>
   </g>
   <g id="line2d_39">
    <path clip-path="url(#p68dbeb8f54)" style="fill: none; stroke-dasharray: 2,3.3; stroke-dashoffset: 0; stroke: #add8e6; stroke-width: 2"/>
   </g>
   <g id="line2d_40">
    <path clip-path="url(#p68dbeb8f54)" style="fill: none; stroke: #add8e6; stroke-width: 2; stroke-linecap: square"/>
   </g>
   <g id="line2d_41">
    <path d="M 230.5862 192.488463 
L 230.586271 192.488457 
L 230.586364 192.488451 
L 230.586453 192.48843 
L 230.586481 192.488396 
L 230.586442 192.488359 
L 230.586344 192.488334 
L 230.586199 192.488327 
L 230.586027 192.488334 
L 230.585855 192.488345 
L 230.58572 192.488355 
L 230.585655 192.488361 
L 230.585655 192.488361 
" clip-path="url(#p68dbeb8f54)" style="fill: none; stroke-dasharray: 2,3.3; stroke-dashoffset: 0; stroke: #663399; stroke-width: 2"/>
   </g>
   <g id="line2d_42">
    <path d="M 230.5854 192.4884 
L 230.5854 192.4884 
L 230.5854 192.488401 
L 230.585403 192.488407 
L 230.585406 192.488411 
L 230.585406 192.488417 
L 230.585392 192.488421 
L 230.585383 192.488425 
L 230.585389 192.488426 
L 230.585399 192.488429 
L 230.585436 192.488433 
L 230.585469 192.48843 
L 230.585487 192.488434 
L 230.585503 192.488436 
L 230.585517 192.488438 
L 230.585562 192.488431 
L 230.585625 192.488433 
L 230.585699 192.48844 
L 230.585782 192.488448 
L 230.585869 192.488457 
L 230.585957 192.488463 
L 230.586043 192.488466 
L 230.586125 192.488466 
L 230.5862 192.488463 
" clip-path="url(#p68dbeb8f54)" style="fill: none; stroke: #663399; stroke-width: 2; stroke-linecap: square"/>
   </g>
   <g id="line2d_43">
    <path d="M 230.585356 224.920735 
L 230.585362 224.920725 
L 230.585365 224.920719 
L 230.585368 224.920719 
L 230.585371 224.920724 
L 230.585374 224.920734 
L 230.585377 224.920747 
L 230.585381 224.920764 
L 230.585385 224.920781 
L 230.585389 224.920796 
L 230.585392 224.920807 
L 230.585393 224.920812 
L 230.585393 224.920812 
" clip-path="url(#p68dbeb8f54)" style="fill: none; stroke-dasharray: 2,3.3; stroke-dashoffset: 0; stroke: #8fbc8f; stroke-width: 2"/>
   </g>
   <g id="line2d_44">
    <path d="M 230.5854 224.9208 
L 230.5854 224.9208 
L 230.585398 224.920803 
L 230.585385 224.920825 
L 230.585374 224.920843 
L 230.585366 224.920859 
L 230.58536 224.920873 
L 230.585355 224.920875 
L 230.58535 224.920871 
L 230.585345 224.920863 
L 230.585339 224.920855 
L 230.585333 224.920853 
L 230.585327 224.920853 
L 230.585323 224.920851 
L 230.585321 224.920846 
L 230.585319 224.920843 
L 230.58532 224.920837 
L 230.585321 224.920829 
L 230.585324 224.92082 
L 230.58533 224.920803 
L 230.585336 224.920785 
L 230.585342 224.920768 
L 230.585349 224.920751 
L 230.585356 224.920735 
" clip-path="url(#p68dbeb8f54)" style="fill: none; stroke: #8fbc8f; stroke-width: 2; stroke-linecap: square"/>
   </g>
   <g id="line2d_45">
    <path clip-path="url(#p68dbeb8f54)" style="fill: none; stroke-dasharray: 2,3.3; stroke-dashoffset: 0; stroke: #00ced1; stroke-width: 2"/>
   </g>
   <g id="line2d_46">
    <path clip-path="url(#p68dbeb8f54)" style="fill: none; stroke: #00ced1; stroke-width: 2; stroke-linecap: square"/>
   </g>
   <g id="line2d_47">
    <path d="M 165.720604 62.759061 
L 165.720612 62.759074 
L 165.720621 62.759084 
L 165.720631 62.759086 
L 165.720638 62.759071 
L 165.72064 62.759041 
L 165.72064 62.758998 
L 165.720639 62.758945 
L 165.720638 62.758889 
L 165.720639 62.758842 
L 165.720643 62.758812 
L 165.720648 62.758802 
L 165.720648 62.758802 
" clip-path="url(#p68dbeb8f54)" style="fill: none; stroke-dasharray: 2,3.3; stroke-dashoffset: 0; stroke: #6a5acd; stroke-width: 2"/>
   </g>
   <g id="line2d_48">
    <path d="M 165.7206 62.7588 
L 165.7206 62.7588 
L 165.7206 62.758797 
L 165.720599 62.758767 
L 165.720603 62.758741 
L 165.720606 62.758721 
L 165.720609 62.758707 
L 165.720611 62.7587 
L 165.72061 62.758699 
L 165.720606 62.758707 
L 165.720599 62.758726 
L 165.72059 62.758749 
L 165.72058 62.758775 
L 165.720571 62.758803 
L 165.720562 62.758831 
L 165.720558 62.758862 
L 165.720558 62.758892 
L 165.720561 62.758923 
L 165.720566 62.758952 
L 165.720572 62.758979 
L 165.72058 62.759004 
L 165.720588 62.759026 
L 165.720596 62.759045 
L 165.720604 62.759061 
" clip-path="url(#p68dbeb8f54)" style="fill: none; stroke: #6a5acd; stroke-width: 2; stroke-linecap: square"/>
   </g>
   <g id="line2d_49">
    <path d="M 165.720618 30.326501 
L 165.720619 30.326489 
L 165.72062 30.326475 
L 165.720621 30.326459 
L 165.720621 30.326443 
L 165.720619 30.326426 
L 165.720616 30.32641 
L 165.720612 30.326393 
L 165.720608 30.326378 
L 165.720604 30.326366 
L 165.720601 30.32636 
L 165.7206 30.326358 
L 165.7206 30.326358 
" clip-path="url(#p68dbeb8f54)" style="fill: none; stroke-dasharray: 2,3.3; stroke-dashoffset: 0; stroke: #808000; stroke-width: 2"/>
   </g>
   <g id="line2d_50">
    <path d="M 165.7206 30.3264 
L 165.7206 30.3264 
L 165.7206 30.326398 
L 165.720603 30.326374 
L 165.720607 30.326333 
L 165.720608 30.326303 
L 165.720608 30.326285 
L 165.720609 30.326278 
L 165.720611 30.326286 
L 165.720616 30.326304 
L 165.720622 30.32633 
L 165.720624 30.32636 
L 165.720622 30.326408 
L 165.720619 30.326449 
L 165.720616 30.326482 
L 165.720615 30.326507 
L 165.720614 30.326522 
L 165.720613 30.326532 
L 165.720614 30.326535 
L 165.720614 30.326534 
L 165.720615 30.326529 
L 165.720616 30.326522 
L 165.720617 30.326512 
L 165.720618 30.326501 
" clip-path="url(#p68dbeb8f54)" style="fill: none; stroke: #808000; stroke-width: 2; stroke-linecap: square"/>
   </g>
   <g id="line2d_51">
    <path clip-path="url(#p68dbeb8f54)" style="fill: none; stroke-dasharray: 2,3.3; stroke-dashoffset: 0; stroke: #a0522d; stroke-width: 2"/>
   </g>
   <g id="line2d_52">
    <path clip-path="url(#p68dbeb8f54)" style="fill: none; stroke: #a0522d; stroke-width: 2; stroke-linecap: square"/>
   </g>
   <g id="line2d_53">
    <path d="M 165.720597 192.488317 
L 165.720608 192.488292 
L 165.720618 192.488269 
L 165.720627 192.488252 
L 165.720633 192.488247 
L 165.720635 192.488253 
L 165.720635 192.48827 
L 165.720633 192.488296 
L 165.720629 192.488326 
L 165.720625 192.488355 
L 165.720622 192.488376 
L 165.72062 192.488385 
L 165.72062 192.488385 
" clip-path="url(#p68dbeb8f54)" style="fill: none; stroke-dasharray: 2,3.3; stroke-dashoffset: 0; stroke: #ff4500; stroke-width: 2"/>
   </g>
   <g id="line2d_54">
    <path d="M 165.7206 192.4884 
L 165.7206 192.4884 
L 165.720601 192.488405 
L 165.720611 192.488452 
L 165.720617 192.488491 
L 165.720591 192.488535 
L 165.720574 192.488568 
L 165.720557 192.488592 
L 165.720554 192.48862 
L 165.720547 192.488655 
L 165.720505 192.488686 
L 165.72045 192.488683 
L 165.720421 192.488672 
L 165.720425 192.488655 
L 165.72044 192.488631 
L 165.720459 192.488601 
L 165.720479 192.488566 
L 165.7205 192.488528 
L 165.72052 192.488489 
L 165.720539 192.488451 
L 165.720556 192.488414 
L 165.720572 192.488379 
L 165.720585 192.488346 
L 165.720597 192.488317 
" clip-path="url(#p68dbeb8f54)" style="fill: none; stroke: #ff4500; stroke-width: 2; stroke-linecap: square"/>
   </g>
   <g id="line2d_55">
    <path d="M 165.720649 224.920666 
L 165.720643 224.920676 
L 165.720637 224.920685 
L 165.720631 224.920695 
L 165.720625 224.920707 
L 165.720618 224.920721 
L 165.720612 224.920737 
L 165.720606 224.920755 
L 165.7206 224.920773 
L 165.720596 224.920788 
L 165.720594 224.920797 
L 165.720593 224.9208 
L 165.720593 224.9208 
" clip-path="url(#p68dbeb8f54)" style="fill: none; stroke-dasharray: 2,3.3; stroke-dashoffset: 0; stroke: #708090; stroke-width: 2"/>
   </g>
   <g id="line2d_56">
    <path d="M 165.7206 224.9208 
L 165.7206 224.9208 
L 165.720602 224.920799 
L 165.720621 224.92079 
L 165.720636 224.920783 
L 165.720647 224.920788 
L 165.720655 224.920803 
L 165.720661 224.920807 
L 165.720666 224.920806 
L 165.720669 224.920799 
L 165.720672 224.920786 
L 165.720674 224.920768 
L 165.720677 224.920745 
L 165.72068 224.92072 
L 165.72068 224.920698 
L 165.720682 224.920675 
L 165.720682 224.920658 
L 165.720679 224.920647 
L 165.720676 224.920642 
L 165.720671 224.920639 
L 165.720666 224.920642 
L 165.72066 224.920649 
L 165.720655 224.920657 
L 165.720649 224.920666 
" clip-path="url(#p68dbeb8f54)" style="fill: none; stroke: #708090; stroke-width: 2; stroke-linecap: square"/>
   </g>
   <g id="line2d_57">
    <path clip-path="url(#p68dbeb8f54)" style="fill: none; stroke-dasharray: 2,3.3; stroke-dashoffset: 0; stroke: #bdb76b; stroke-width: 2"/>
   </g>
   <g id="line2d_58">
    <path clip-path="url(#p68dbeb8f54)" style="fill: none; stroke: #bdb76b; stroke-width: 2; stroke-linecap: square"/>
   </g>
   <g id="patch_3">
    <path d="M 100.8558 224.9208 
L 100.8558 30.3264 
" style="fill: none; stroke: #000000; stroke-width: 0.8; stroke-linejoin: miter; stroke-linecap: square"/>
   </g>
   <g id="patch_4">
    <path d="M 295.4502 224.9208 
L 295.4502 30.3264 
" style="fill: none; stroke: #000000; stroke-width: 0.8; stroke-linejoin: miter; stroke-linecap: square"/>
   </g>
   <g id="patch_5">
    <path d="M 100.8558 224.9208 
L 295.4502 224.9208 
" style="fill: none; stroke: #000000; stroke-width: 0.8; stroke-linejoin: miter; stroke-linecap: square"/>
   </g>
   <g id="patch_6">
    <path d="M 100.8558 30.3264 
L 295.4502 30.3264 
" style="fill: none; stroke: #000000; stroke-width: 0.8; stroke-linejoin: miter; stroke-linecap: square"/>
   </g>
   <g id="patch_7">
    <path d="M 263.017815 137.353305 
C 265.598167 137.353305 268.073182 136.328121 269.897766 134.503536 
C 271.722351 132.678952 272.747535 130.203937 272.747535 127.623585 
C 272.747535 125.043233 271.722351 122.568219 269.897766 120.743634 
C 268.073182 118.91905 265.598167 117.893865 263.017815 117.893865 
C 260.437463 117.893865 257.962449 118.91905 256.137864 120.743634 
C 254.31328 122.568219 253.288095 125.043233 253.288095 127.623585 
C 253.288095 130.203937 254.31328 132.678952 256.137864 134.503536 
C 257.962449 136.328121 260.437463 137.353305 263.017815 137.353305 
z
" clip-path="url(#p68dbeb8f54)" style="fill: #1f77b4; stroke: #000000; stroke-linejoin: miter"/>
   </g>
   <g id="patch_8">
    <path d="M 241.578358 140.914727 
C 244.15871 140.914727 246.633725 139.889542 248.458309 138.064958 
C 250.282894 136.240373 251.308078 133.765359 251.308078 131.185007 
C 251.308078 128.604655 250.282894 126.12964 248.458309 124.305056 
C 246.633725 122.480471 244.15871 121.455287 241.578358 121.455287 
C 238.998006 121.455287 236.522992 122.480471 234.698407 124.305056 
C 232.873823 126.12964 231.848638 128.604655 231.848638 131.185007 
C 231.848638 133.765359 232.873823 136.240373 234.698407 138.064958 
C 236.522992 139.889542 238.998006 140.914727 241.578358 140.914727 
z
" clip-path="url(#p68dbeb8f54)" style="fill: #ff7f0e; stroke: #000000; stroke-linejoin: miter"/>
   </g>
   <g id="patch_9">
    <path d="M 133.288221 104.920654 
C 135.868572 104.920654 138.343587 103.895469 140.168172 102.070885 
C 141.992756 100.2463 143.017941 97.771286 143.017941 95.190934 
C 143.017941 92.610582 141.992756 90.135567 140.168172 88.310983 
C 138.343587 86.486398 135.868572 85.461214 133.288221 85.461214 
C 130.707869 85.461214 128.232854 86.486398 126.40827 88.310983 
C 124.583685 90.135567 123.558501 92.610582 123.558501 95.190934 
C 123.558501 97.771286 124.583685 100.2463 126.40827 102.070885 
C 128.232854 103.895469 130.707869 104.920654 133.288221 104.920654 
z
" clip-path="url(#p68dbeb8f54)" style="fill: #2ca02c; stroke: #000000; stroke-linejoin: miter"/>
   </g>
   <g id="patch_10">
    <path d="M 165.720649 104.921017 
C 168.301001 104.921017 170.776016 103.895833 172.6006 102.071248 
C 174.425184 100.246664 175.450369 97.771649 175.450369 95.191297 
C 175.450369 92.610945 174.425184 90.135931 172.6006 88.311346 
C 170.776016 86.486762 168.301001 85.461577 165.720649 85.461577 
C 163.140297 85.461577 160.665282 86.486762 158.840698 88.311346 
C 157.016114 90.135931 155.990929 92.610945 155.990929 95.191297 
C 155.990929 97.771649 157.016114 100.246664 158.840698 102.071248 
C 160.665282 103.895833 163.140297 104.921017 165.720649 104.921017 
z
" clip-path="url(#p68dbeb8f54)" style="fill: #d62728; stroke: #000000; stroke-linejoin: miter"/>
   </g>
   <g id="patch_11">
    <path d="M 230.585696 104.920222 
C 233.166048 104.920222 235.641062 103.895037 237.465647 102.070453 
C 239.290231 100.245869 240.315416 97.770854 240.315416 95.190502 
C 240.315416 92.61015 239.290231 90.135135 237.465647 88.310551 
C 235.641062 86.485967 233.166048 85.460782 230.585696 85.460782 
C 228.005344 85.460782 225.530329 86.485967 223.705745 88.310551 
C 221.88116 90.135135 220.855976 92.61015 220.855976 95.190502 
C 220.855976 97.770854 221.88116 100.245869 223.705745 102.070453 
C 225.530329 103.895037 228.005344 104.920222 230.585696 104.920222 
z
" clip-path="url(#p68dbeb8f54)" style="fill: #9467bd; stroke: #000000; stroke-linejoin: miter"/>
   </g>
   <g id="patch_12">
    <path d="M 263.01777 104.920679 
C 265.598122 104.920679 268.073136 103.895494 269.897721 102.07091 
C 271.722305 100.246325 272.74749 97.771311 272.74749 95.190959 
C 272.74749 92.610607 271.722305 90.135592 269.897721 88.311008 
C 268.073136 86.486423 265.598122 85.461239 263.01777 85.461239 
C 260.437418 85.461239 257.962403 86.486423 256.137819 88.311008 
C 254.313234 90.135592 253.28805 92.610607 253.28805 95.190959 
C 253.28805 97.771311 254.313234 100.246325 256.137819 102.07091 
C 257.962403 103.895494 260.437418 104.920679 263.01777 104.920679 
z
" clip-path="url(#p68dbeb8f54)" style="fill: #8c564b; stroke: #000000; stroke-linejoin: miter"/>
   </g>
   <g id="patch_13">
    <path d="M 133.288234 169.785943 
C 135.868586 169.785943 138.3436 168.760758 140.168185 166.936174 
C 141.992769 165.11159 143.017954 162.636575 143.017954 160.056223 
C 143.017954 157.475871 141.992769 155.000856 140.168185 153.176272 
C 138.3436 151.351688 135.868586 150.326503 133.288234 150.326503 
C 130.707882 150.326503 128.232867 151.351688 126.408283 153.176272 
C 124.583698 155.000856 123.558514 157.475871 123.558514 160.056223 
C 123.558514 162.636575 124.583698 165.11159 126.408283 166.936174 
C 128.232867 168.760758 130.707882 169.785943 133.288234 169.785943 
z
" clip-path="url(#p68dbeb8f54)" style="fill: #e377c2; stroke: #000000; stroke-linejoin: miter"/>
   </g>
   <g id="patch_14">
    <path d="M 165.720594 169.785534 
C 168.300946 169.785534 170.775961 168.760349 172.600545 166.935765 
C 174.42513 165.111181 175.450314 162.636166 175.450314 160.055814 
C 175.450314 157.475462 174.42513 155.000447 172.600545 153.175863 
C 170.775961 151.351279 168.300946 150.326094 165.720594 150.326094 
C 163.140242 150.326094 160.665228 151.351279 158.840643 153.175863 
C 157.016059 155.000447 155.990874 157.475462 155.990874 160.055814 
C 155.990874 162.636166 157.016059 165.111181 158.840643 166.935765 
C 160.665228 168.760349 163.140242 169.785534 165.720594 169.785534 
z
" clip-path="url(#p68dbeb8f54)" style="fill: #7f7f7f; stroke: #000000; stroke-linejoin: miter"/>
   </g>
   <g id="patch_15">
    <path d="M 230.585645 169.785751 
C 233.165997 169.785751 235.641012 168.760567 237.465596 166.935982 
C 239.29018 165.111398 240.315365 162.636383 240.315365 160.056031 
C 240.315365 157.475679 239.29018 155.000665 237.465596 153.17608 
C 235.641012 151.351496 233.165997 150.326311 230.585645 150.326311 
C 228.005293 150.326311 225.530278 151.351496 223.705694 153.17608 
C 221.88111 155.000665 220.855925 157.475679 220.855925 160.056031 
C 220.855925 162.636383 221.88111 165.111398 223.705694 166.935982 
C 225.530278 168.760567 228.005293 169.785751 230.585645 169.785751 
z
" clip-path="url(#p68dbeb8f54)" style="fill: #bcbd22; stroke: #000000; stroke-linejoin: miter"/>
   </g>
   <g id="patch_16">
    <path d="M 263.017787 169.785949 
C 265.598139 169.785949 268.073153 168.760765 269.897738 166.93618 
C 271.722322 165.111596 272.747507 162.636581 272.747507 160.056229 
C 272.747507 157.475877 271.722322 155.000863 269.897738 153.176278 
C 268.073153 151.351694 265.598139 150.326509 263.017787 150.326509 
C 260.437435 150.326509 257.96242 151.351694 256.137836 153.176278 
C 254.313252 155.000863 253.288067 157.475877 253.288067 160.056229 
C 253.288067 162.636581 254.313252 165.111596 256.137836 166.93618 
C 257.96242 168.760765 260.437435 169.785949 263.017787 169.785949 
z
" clip-path="url(#p68dbeb8f54)" style="fill: #17becf; stroke: #000000; stroke-linejoin: miter"/>
   </g>
   <g id="patch_17">
    <path d="M 230.586024 72.488625 
C 233.166376 72.488625 235.641391 71.46344 237.465975 69.638856 
C 239.290559 67.814271 240.315744 65.339257 240.315744 62.758905 
C 240.315744 60.178553 239.290559 57.703538 237.465975 55.878954 
C 235.641391 54.054369 233.166376 53.029185 230.586024 53.029185 
C 228.005672 53.029185 225.530657 54.054369 223.706073 55.878954 
C 221.881489 57.703538 220.856304 60.178553 220.856304 62.758905 
C 220.856304 65.339257 221.881489 67.814271 223.706073 69.638856 
C 225.530657 71.46344 228.005672 72.488625 230.586024 72.488625 
z
" clip-path="url(#p68dbeb8f54)" style="fill: #2f4f4f; stroke: #000000; stroke-linejoin: miter"/>
   </g>
   <g id="patch_18">
    <path d="M 230.585351 40.056264 
C 233.165703 40.056264 235.640718 39.031079 237.465302 37.206495 
C 239.289887 35.381911 240.315071 32.906896 240.315071 30.326544 
C 240.315071 27.746192 239.289887 25.271177 237.465302 23.446593 
C 235.640718 21.622009 233.165703 20.596824 230.585351 20.596824 
C 228.004999 20.596824 225.529985 21.622009 223.7054 23.446593 
C 221.880816 25.271177 220.855631 27.746192 220.855631 30.326544 
C 220.855631 32.906896 221.880816 35.381911 223.7054 37.206495 
C 225.529985 39.031079 228.004999 40.056264 230.585351 40.056264 
z
" clip-path="url(#p68dbeb8f54)" style="fill: #cd5c5c; stroke: #000000; stroke-linejoin: miter"/>
   </g>
   <g id="patch_19">
    <path d="M 230.586188 7.623628 
C 233.16654 7.623628 235.641555 6.598444 237.466139 4.773859 
C 239.290724 2.949275 240.315908 0.47426 240.315908 -2.106092 
C 240.315908 -4.686443 239.290724 -7.161458 237.466139 -8.986043 
C 235.641555 -10.810627 233.16654 -11.835812 230.586188 -11.835812 
C 228.005836 -11.835812 225.530822 -10.810627 223.706237 -8.986043 
C 221.881653 -7.161458 220.856468 -4.686443 220.856468 -2.106092 
C 220.856468 0.47426 221.881653 2.949275 223.706237 4.773859 
C 225.530822 6.598444 228.005836 7.623628 230.586188 7.623628 
z
" clip-path="url(#p68dbeb8f54)" style="fill: #add8e6; stroke: #000000; stroke-linejoin: miter"/>
   </g>
   <g id="patch_20">
    <path d="M 230.5862 202.218183 
C 233.166552 202.218183 235.641567 201.192998 237.466151 199.368414 
C 239.290735 197.543829 240.31592 195.068815 240.31592 192.488463 
C 240.31592 189.908111 239.290735 187.433096 237.466151 185.608512 
C 235.641567 183.783927 233.166552 182.758743 230.5862 182.758743 
C 228.005848 182.758743 225.530833 183.783927 223.706249 185.608512 
C 221.881665 187.433096 220.85648 189.908111 220.85648 192.488463 
C 220.85648 195.068815 221.881665 197.543829 223.706249 199.368414 
C 225.530833 201.192998 228.005848 202.218183 230.5862 202.218183 
z
" clip-path="url(#p68dbeb8f54)" style="fill: #663399; stroke: #000000; stroke-linejoin: miter"/>
   </g>
   <g id="patch_21">
    <path d="M 230.585356 234.650455 
C 233.165708 234.650455 235.640723 233.625271 237.465307 231.800686 
C 239.289892 229.976102 240.315076 227.501087 240.315076 224.920735 
C 240.315076 222.340383 239.289892 219.865369 237.465307 218.040784 
C 235.640723 216.2162 233.165708 215.191015 230.585356 215.191015 
C 228.005004 215.191015 225.52999 216.2162 223.705405 218.040784 
C 221.880821 219.865369 220.855636 222.340383 220.855636 224.920735 
C 220.855636 227.501087 221.880821 229.976102 223.705405 231.800686 
C 225.52999 233.625271 228.005004 234.650455 230.585356 234.650455 
z
" clip-path="url(#p68dbeb8f54)" style="fill: #8fbc8f; stroke: #000000; stroke-linejoin: miter"/>
   </g>
   <g id="patch_22">
    <path d="M 230.586382 267.08295 
C 233.166734 267.08295 235.641748 266.057766 237.466333 264.233181 
C 239.290917 262.408597 240.316102 259.933582 240.316102 257.35323 
C 240.316102 254.772878 239.290917 252.297864 237.466333 250.473279 
C 235.641748 248.648695 233.166734 247.62351 230.586382 247.62351 
C 228.00603 247.62351 225.531015 248.648695 223.706431 250.473279 
C 221.881846 252.297864 220.856662 254.772878 220.856662 257.35323 
C 220.856662 259.933582 221.881846 262.408597 223.706431 264.233181 
C 225.531015 266.057766 228.00603 267.08295 230.586382 267.08295 
z
" clip-path="url(#p68dbeb8f54)" style="fill: #00ced1; stroke: #000000; stroke-linejoin: miter"/>
   </g>
   <g id="patch_23">
    <path d="M 165.720604 72.488781 
C 168.300956 72.488781 170.775971 71.463596 172.600555 69.639012 
C 174.425139 67.814428 175.450324 65.339413 175.450324 62.759061 
C 175.450324 60.178709 174.425139 57.703694 172.600555 55.87911 
C 170.775971 54.054526 168.300956 53.029341 165.720604 53.029341 
C 163.140252 53.029341 160.665237 54.054526 158.840653 55.87911 
C 157.016069 57.703694 155.990884 60.178709 155.990884 62.759061 
C 155.990884 65.339413 157.016069 67.814428 158.840653 69.639012 
C 160.665237 71.463596 163.140252 72.488781 165.720604 72.488781 
z
" clip-path="url(#p68dbeb8f54)" style="fill: #6a5acd; stroke: #000000; stroke-linejoin: miter"/>
   </g>
   <g id="patch_24">
    <path d="M 165.720618 40.056221 
C 168.30097 40.056221 170.775985 39.031036 172.600569 37.206452 
C 174.425153 35.381867 175.450338 32.906853 175.450338 30.326501 
C 175.450338 27.746149 174.425153 25.271134 172.600569 23.44655 
C 170.775985 21.621965 168.30097 20.596781 165.720618 20.596781 
C 163.140266 20.596781 160.665251 21.621965 158.840667 23.44655 
C 157.016083 25.271134 155.990898 27.746149 155.990898 30.326501 
C 155.990898 32.906853 157.016083 35.381867 158.840667 37.206452 
C 160.665251 39.031036 163.140266 40.056221 165.720618 40.056221 
z
" clip-path="url(#p68dbeb8f54)" style="fill: #808000; stroke: #000000; stroke-linejoin: miter"/>
   </g>
   <g id="patch_25">
    <path d="M 165.720577 7.623704 
C 168.300929 7.623704 170.775944 6.598519 172.600528 4.773935 
C 174.425112 2.949351 175.450297 0.474336 175.450297 -2.106016 
C 175.450297 -4.686368 174.425112 -7.161383 172.600528 -8.985967 
C 170.775944 -10.810551 168.300929 -11.835736 165.720577 -11.835736 
C 163.140225 -11.835736 160.66521 -10.810551 158.840626 -8.985967 
C 157.016042 -7.161383 155.990857 -4.686368 155.990857 -2.106016 
C 155.990857 0.474336 157.016042 2.949351 158.840626 4.773935 
C 160.66521 6.598519 163.140225 7.623704 165.720577 7.623704 
z
" clip-path="url(#p68dbeb8f54)" style="fill: #a0522d; stroke: #000000; stroke-linejoin: miter"/>
   </g>
   <g id="patch_26">
    <path d="M 165.720597 202.218037 
C 168.300949 202.218037 170.775964 201.192853 172.600548 199.368268 
C 174.425133 197.543684 175.450317 195.068669 175.450317 192.488317 
C 175.450317 189.907965 174.425133 187.432951 172.600548 185.608366 
C 170.775964 183.783782 168.300949 182.758597 165.720597 182.758597 
C 163.140246 182.758597 160.665231 183.783782 158.840646 185.608366 
C 157.016062 187.432951 155.990877 189.907965 155.990877 192.488317 
C 155.990877 195.068669 157.016062 197.543684 158.840646 199.368268 
C 160.665231 201.192853 163.140246 202.218037 165.720597 202.218037 
z
" clip-path="url(#p68dbeb8f54)" style="fill: #ff4500; stroke: #000000; stroke-linejoin: miter"/>
   </g>
   <g id="patch_27">
    <path d="M 165.720649 234.650386 
C 168.301001 234.650386 170.776015 233.625202 172.6006 231.800617 
C 174.425184 229.976033 175.450369 227.501018 175.450369 224.920666 
C 175.450369 222.340314 174.425184 219.8653 172.6006 218.040715 
C 170.776015 216.216131 168.301001 215.190946 165.720649 215.190946 
C 163.140297 215.190946 160.665282 216.216131 158.840698 218.040715 
C 157.016113 219.8653 155.990929 222.340314 155.990929 224.920666 
C 155.990929 227.501018 157.016113 229.976033 158.840698 231.800617 
C 160.665282 233.625202 163.140297 234.650386 165.720649 234.650386 
z
" clip-path="url(#p68dbeb8f54)" style="fill: #708090; stroke: #000000; stroke-linejoin: miter"/>
   </g>
   <g id="patch_28">
    <path d="M 165.720267 267.082937 
C 168.300619 267.082937 170.775634 266.057752 172.600218 264.233168 
C 174.424802 262.408584 175.449987 259.933569 175.449987 257.353217 
C 175.449987 254.772865 174.424802 252.29785 172.600218 250.473266 
C 170.775634 248.648682 168.300619 247.623497 165.720267 247.623497 
C 163.139915 247.623497 160.6649 248.648682 158.840316 250.473266 
C 157.015732 252.29785 155.990547 254.772865 155.990547 257.353217 
C 155.990547 259.933569 157.015732 262.408584 158.840316 264.233168 
C 160.6649 266.057752 163.139915 267.082937 165.720267 267.082937 
z
" clip-path="url(#p68dbeb8f54)" style="fill: #bdb76b; stroke: #000000; stroke-linejoin: miter"/>
   </g>
   <g id="line2d_59">
    <path d="M 263.0178 127.6236 
" clip-path="url(#p68dbeb8f54)" style="fill: none; stroke: #1f77b4; stroke-width: 1.5; stroke-linecap: square"/>
    <defs>
     <path id="m0e342430e1" d="M 0 4.949747 
L 2.969848 0 
L 0 -4.949747 
L -2.969848 0 
z
" style="stroke: #000000; stroke-linejoin: miter"/>
    </defs>
    <g clip-path="url(#p68dbeb8f54)">
     <use xlink:href="#m0e342430e1" x="263.0178" y="127.6236" style="fill: #1f77b4; stroke: #000000; stroke-linejoin: miter"/>
    </g>
   </g>
   <g id="line2d_60">
    <path d="M 263.0178 127.6236 
" clip-path="url(#p68dbeb8f54)" style="fill: none; stroke: #ff7f0e; stroke-width: 1.5; stroke-linecap: square"/>
    <defs>
     <path id="m9dbecedb61" d="M 0 4.949747 
L 2.969848 0 
L 0 -4.949747 
L -2.969848 0 
z
" style="stroke: #000000; stroke-linejoin: miter"/>
    </defs>
    <g clip-path="url(#p68dbeb8f54)">
     <use xlink:href="#m9dbecedb61" x="263.0178" y="127.6236" style="fill: #ff7f0e; stroke: #000000; stroke-linejoin: miter"/>
    </g>
   </g>
   <g id="line2d_61">
    <path d="M 133.2882 95.1912 
" clip-path="url(#p68dbeb8f54)" style="fill: none; stroke: #2ca02c; stroke-width: 1.5; stroke-linecap: square"/>
    <defs>
     <path id="m968961196b" d="M 0 4.949747 
L 2.969848 0 
L 0 -4.949747 
L -2.969848 0 
z
" style="stroke: #000000; stroke-linejoin: miter"/>
    </defs>
    <g clip-path="url(#p68dbeb8f54)">
     <use xlink:href="#m968961196b" x="133.2882" y="95.1912" style="fill: #2ca02c; stroke: #000000; stroke-linejoin: miter"/>
    </g>
   </g>
   <g id="line2d_62">
    <path d="M 165.7206 95.1912 
" clip-path="url(#p68dbeb8f54)" style="fill: none; stroke: #d62728; stroke-width: 1.5; stroke-linecap: square"/>
    <defs>
     <path id="m555788403b" d="M 0 4.949747 
L 2.969848 0 
L 0 -4.949747 
L -2.969848 0 
z
" style="stroke: #000000; stroke-linejoin: miter"/>
    </defs>
    <g clip-path="url(#p68dbeb8f54)">
     <use xlink:href="#m555788403b" x="165.7206" y="95.1912" style="fill: #d62728; stroke: #000000; stroke-linejoin: miter"/>
    </g>
   </g>
   <g id="line2d_63">
    <path d="M 230.5854 95.1912 
" clip-path="url(#p68dbeb8f54)" style="fill: none; stroke: #9467bd; stroke-width: 1.5; stroke-linecap: square"/>
    <defs>
     <path id="m5d88fa35ee" d="M 0 4.949747 
L 2.969848 0 
L 0 -4.949747 
L -2.969848 0 
z
" style="stroke: #000000; stroke-linejoin: miter"/>
    </defs>
    <g clip-path="url(#p68dbeb8f54)">
     <use xlink:href="#m5d88fa35ee" x="230.5854" y="95.1912" style="fill: #9467bd; stroke: #000000; stroke-linejoin: miter"/>
    </g>
   </g>
   <g id="line2d_64">
    <path d="M 263.0178 95.1912 
" clip-path="url(#p68dbeb8f54)" style="fill: none; stroke: #8c564b; stroke-width: 1.5; stroke-linecap: square"/>
    <defs>
     <path id="mc194ceca80" d="M 0 4.949747 
L 2.969848 0 
L 0 -4.949747 
L -2.969848 0 
z
" style="stroke: #000000; stroke-linejoin: miter"/>
    </defs>
    <g clip-path="url(#p68dbeb8f54)">
     <use xlink:href="#mc194ceca80" x="263.0178" y="95.1912" style="fill: #8c564b; stroke: #000000; stroke-linejoin: miter"/>
    </g>
   </g>
   <g id="line2d_65">
    <path d="M 133.2882 160.056 
" clip-path="url(#p68dbeb8f54)" style="fill: none; stroke: #e377c2; stroke-width: 1.5; stroke-linecap: square"/>
    <defs>
     <path id="m69147cdba7" d="M 0 4.949747 
L 2.969848 0 
L 0 -4.949747 
L -2.969848 0 
z
" style="stroke: #000000; stroke-linejoin: miter"/>
    </defs>
    <g clip-path="url(#p68dbeb8f54)">
     <use xlink:href="#m69147cdba7" x="133.2882" y="160.056" style="fill: #e377c2; stroke: #000000; stroke-linejoin: miter"/>
    </g>
   </g>
   <g id="line2d_66">
    <path d="M 165.7206 160.056 
" clip-path="url(#p68dbeb8f54)" style="fill: none; stroke: #7f7f7f; stroke-width: 1.5; stroke-linecap: square"/>
    <defs>
     <path id="m2862cbc08d" d="M 0 4.949747 
L 2.969848 0 
L 0 -4.949747 
L -2.969848 0 
z
" style="stroke: #000000; stroke-linejoin: miter"/>
    </defs>
    <g clip-path="url(#p68dbeb8f54)">
     <use xlink:href="#m2862cbc08d" x="165.7206" y="160.056" style="fill: #7f7f7f; stroke: #000000; stroke-linejoin: miter"/>
    </g>
   </g>
   <g id="line2d_67">
    <path d="M 230.5854 160.056 
" clip-path="url(#p68dbeb8f54)" style="fill: none; stroke: #bcbd22; stroke-width: 1.5; stroke-linecap: square"/>
    <defs>
     <path id="m9193c4de69" d="M 0 4.949747 
L 2.969848 0 
L 0 -4.949747 
L -2.969848 0 
z
" style="stroke: #000000; stroke-linejoin: miter"/>
    </defs>
    <g clip-path="url(#p68dbeb8f54)">
     <use xlink:href="#m9193c4de69" x="230.5854" y="160.056" style="fill: #bcbd22; stroke: #000000; stroke-linejoin: miter"/>
    </g>
   </g>
   <g id="line2d_68">
    <path d="M 263.0178 160.056 
" clip-path="url(#p68dbeb8f54)" style="fill: none; stroke: #17becf; stroke-width: 1.5; stroke-linecap: square"/>
    <defs>
     <path id="m2d962f481d" d="M 0 4.949747 
L 2.969848 0 
L 0 -4.949747 
L -2.969848 0 
z
" style="stroke: #000000; stroke-linejoin: miter"/>
    </defs>
    <g clip-path="url(#p68dbeb8f54)">
     <use xlink:href="#m2d962f481d" x="263.0178" y="160.056" style="fill: #17becf; stroke: #000000; stroke-linejoin: miter"/>
    </g>
   </g>
   <g id="line2d_69">
    <path d="M 230.5854 62.7588 
" clip-path="url(#p68dbeb8f54)" style="fill: none; stroke: #2f4f4f; stroke-width: 1.5; stroke-linecap: square"/>
    <defs>
     <path id="m51f8c44b75" d="M 0 4.949747 
L 2.969848 0 
L 0 -4.949747 
L -2.969848 0 
z
" style="stroke: #000000; stroke-linejoin: miter"/>
    </defs>
    <g clip-path="url(#p68dbeb8f54)">
     <use xlink:href="#m51f8c44b75" x="230.5854" y="62.7588" style="fill: #2f4f4f; stroke: #000000; stroke-linejoin: miter"/>
    </g>
   </g>
   <g id="line2d_70">
    <path d="M 230.5854 30.3264 
" clip-path="url(#p68dbeb8f54)" style="fill: none; stroke: #cd5c5c; stroke-width: 1.5; stroke-linecap: square"/>
    <defs>
     <path id="m95de0de196" d="M 0 4.949747 
L 2.969848 0 
L 0 -4.949747 
L -2.969848 0 
z
" style="stroke: #000000; stroke-linejoin: miter"/>
    </defs>
    <g clip-path="url(#p68dbeb8f54)">
     <use xlink:href="#m95de0de196" x="230.5854" y="30.3264" style="fill: #cd5c5c; stroke: #000000; stroke-linejoin: miter"/>
    </g>
   </g>
   <g id="line2d_71">
    <path clip-path="url(#p68dbeb8f54)" style="fill: none; stroke: #add8e6; stroke-width: 1.5; stroke-linecap: square"/>
    <defs>
     <path id="med03b60a2d" d="M 0 4.949747 
L 2.969848 0 
L 0 -4.949747 
L -2.969848 0 
z
" style="stroke: #000000; stroke-linejoin: miter"/>
    </defs>
    <g clip-path="url(#p68dbeb8f54)"/>
   </g>
   <g id="line2d_72">
    <path d="M 230.5854 192.4884 
" clip-path="url(#p68dbeb8f54)" style="fill: none; stroke: #663399; stroke-width: 1.5; stroke-linecap: square"/>
    <defs>
     <path id="md7aa08d85d" d="M 0 4.949747 
L 2.969848 0 
L 0 -4.949747 
L -2.969848 0 
z
" style="stroke: #000000; stroke-linejoin: miter"/>
    </defs>
    <g clip-path="url(#p68dbeb8f54)">
     <use xlink:href="#md7aa08d85d" x="230.5854" y="192.4884" style="fill: #663399; stroke: #000000; stroke-linejoin: miter"/>
    </g>
   </g>
   <g id="line2d_73">
    <path d="M 230.5854 224.9208 
" clip-path="url(#p68dbeb8f54)" style="fill: none; stroke: #8fbc8f; stroke-width: 1.5; stroke-linecap: square"/>
    <defs>
     <path id="m2d52284571" d="M 0 4.949747 
L 2.969848 0 
L 0 -4.949747 
L -2.969848 0 
z
" style="stroke: #000000; stroke-linejoin: miter"/>
    </defs>
    <g clip-path="url(#p68dbeb8f54)">
     <use xlink:href="#m2d52284571" x="230.5854" y="224.9208" style="fill: #8fbc8f; stroke: #000000; stroke-linejoin: miter"/>
    </g>
   </g>
   <g id="line2d_74">
    <path clip-path="url(#p68dbeb8f54)" style="fill: none; stroke: #00ced1; stroke-width: 1.5; stroke-linecap: square"/>
    <defs>
     <path id="mbd6c8fb050" d="M 0 4.949747 
L 2.969848 0 
L 0 -4.949747 
L -2.969848 0 
z
" style="stroke: #000000; stroke-linejoin: miter"/>
    </defs>
    <g clip-path="url(#p68dbeb8f54)">
     <use xlink:href="#mbd6c8fb050" x="230.5854" y="257.3532" style="fill: #00ced1; stroke: #000000; stroke-linejoin: miter"/>
    </g>
   </g>
   <g id="line2d_75">
    <path d="M 165.7206 62.7588 
" clip-path="url(#p68dbeb8f54)" style="fill: none; stroke: #6a5acd; stroke-width: 1.5; stroke-linecap: square"/>
    <defs>
     <path id="m1ce8beb789" d="M 0 4.949747 
L 2.969848 0 
L 0 -4.949747 
L -2.969848 0 
z
" style="stroke: #000000; stroke-linejoin: miter"/>
    </defs>
    <g clip-path="url(#p68dbeb8f54)">
     <use xlink:href="#m1ce8beb789" x="165.7206" y="62.7588" style="fill: #6a5acd; stroke: #000000; stroke-linejoin: miter"/>
    </g>
   </g>
   <g id="line2d_76">
    <path d="M 165.7206 30.3264 
" clip-path="url(#p68dbeb8f54)" style="fill: none; stroke: #808000; stroke-width: 1.5; stroke-linecap: square"/>
    <defs>
     <path id="mf00ce12af1" d="M 0 4.949747 
L 2.969848 0 
L 0 -4.949747 
L -2.969848 0 
z
" style="stroke: #000000; stroke-linejoin: miter"/>
    </defs>
    <g clip-path="url(#p68dbeb8f54)">
     <use xlink:href="#mf00ce12af1" x="165.7206" y="30.3264" style="fill: #808000; stroke: #000000; stroke-linejoin: miter"/>
    </g>
   </g>
   <g id="line2d_77">
    <path clip-path="url(#p68dbeb8f54)" style="fill: none; stroke: #a0522d; stroke-width: 1.5; stroke-linecap: square"/>
    <defs>
     <path id="m766c55c3da" d="M 0 4.949747 
L 2.969848 0 
L 0 -4.949747 
L -2.969848 0 
z
" style="stroke: #000000; stroke-linejoin: miter"/>
    </defs>
    <g clip-path="url(#p68dbeb8f54)"/>
   </g>
   <g id="line2d_78">
    <path d="M 165.7206 192.4884 
" clip-path="url(#p68dbeb8f54)" style="fill: none; stroke: #ff4500; stroke-width: 1.5; stroke-linecap: square"/>
    <defs>
     <path id="m4a56fc0169" d="M 0 4.949747 
L 2.969848 0 
L 0 -4.949747 
L -2.969848 0 
z
" style="stroke: #000000; stroke-linejoin: miter"/>
    </defs>
    <g clip-path="url(#p68dbeb8f54)">
     <use xlink:href="#m4a56fc0169" x="165.7206" y="192.4884" style="fill: #ff4500; stroke: #000000; stroke-linejoin: miter"/>
    </g>
   </g>
   <g id="line2d_79">
    <path d="M 165.7206 224.9208 
" clip-path="url(#p68dbeb8f54)" style="fill: none; stroke: #708090; stroke-width: 1.5; stroke-linecap: square"/>
    <defs>
     <path id="m4d506b1dbe" d="M 0 4.949747 
L 2.969848 0 
L 0 -4.949747 
L -2.969848 0 
z
" style="stroke: #000000; stroke-linejoin: miter"/>
    </defs>
    <g clip-path="url(#p68dbeb8f54)">
     <use xlink:href="#m4d506b1dbe" x="165.7206" y="224.9208" style="fill: #708090; stroke: #000000; stroke-linejoin: miter"/>
    </g>
   </g>
   <g id="line2d_80">
    <path clip-path="url(#p68dbeb8f54)" style="fill: none; stroke: #bdb76b; stroke-width: 1.5; stroke-linecap: square"/>
    <defs>
     <path id="m5e3d327cb1" d="M 0 4.949747 
L 2.969848 0 
L 0 -4.949747 
L -2.969848 0 
z
" style="stroke: #000000; stroke-linejoin: miter"/>
    </defs>
    <g clip-path="url(#p68dbeb8f54)">
     <use xlink:href="#m5e3d327cb1" x="165.7206" y="257.3532" style="fill: #bdb76b; stroke: #000000; stroke-linejoin: miter"/>
    </g>
   </g>
  </g>
 </g>
 <defs>
  <clipPath id="p68dbeb8f54">
   <rect x="100.8558" y="30.3264" width="194.5944" height="194.5944"/>
  </clipPath>
 </defs>
</svg>
