<?xml version="1.0" encoding="utf-8" standalone="no"?>
<!DOCTYPE svg PUBLIC "-//W3C//DTD SVG 1.1//EN"
  "http://www.w3.org/Graphics/SVG/1.1/DTD/svg11.dtd">
<svg xmlns:xlink="http://www.w3.org/1999/xlink" width="386.64pt" height="252.72pt" viewBox="0 0 386.64 252.72" xmlns="http://www.w3.org/2000/svg" version="1.1">
 <metadata>
  <rdf:RDF xmlns:dc="http://purl.org/dc/elements/1.1/" xmlns:cc="http://creativecommons.org/ns#" xmlns:rdf="http://www.w3.org/1999/02/22-rdf-syntax-ns#">
   <cc:Work>
    <dc:type rdf:resource="http://purl.org/dc/dcmitype/StillImage"/>
    <dc:date>2023-07-11T22:26:53.644519</dc:date>
    <dc:format>image/svg+xml</dc:format>
    <dc:creator>
     <cc:Agent>
      <dc:title>Matplotlib v3.6.2, https://matplotlib.org/</dc:title>
     </cc:Agent>
    </dc:creator>
   </cc:Work>
  </rdf:RDF>
 </metadata>
 <defs>
  <style type="text/css">*{stroke-linejoin: round; stroke-linecap: butt}</style>
 </defs>
 <g id="figure_1">
  <g id="patch_1">
   <path d="M 0 252.72 
L 386.64 252.72 
L 386.64 0 
L 0 0 
z
" style="fill: #ffffff"/>
  </g>
  <g id="axes_1">
   <g id="patch_2">
    <path d="M 100.8558 224.9208 
L 295.4502 224.9208 
L 295.4502 30.3264 
L 100.8558 30.3264 
z
" style="fill: #ffffff"/>
   </g>
   <g id="matplotlib.axis_1">
    <g id="xtick_1">
     <g id="line2d_1">
      <defs>
       <path id="m8e7af2d493" d="M 0 0 
L 0 3.5 
" style="stroke: #000000; stroke-width: 0.8"/>
      </defs>
      <g>
       <use xlink:href="#m8e7af2d493" x="100.8558" y="224.9208" style="stroke: #000000; stroke-width: 0.8"/>
      </g>
     </g>
     <g id="text_1">
      <!-- −0.5 -->
      <g transform="translate(88.714394 239.519237) scale(0.1 -0.1)">
       <defs>
        <path id="DejaVuSans-2212" d="M 678 2272 
L 4684 2272 
L 4684 1741 
L 678 1741 
L 678 2272 
z
" transform="scale(0.015625)"/>
        <path id="DejaVuSans-30" d="M 2034 4250 
Q 1547 4250 1301 3770 
Q 1056 3291 1056 2328 
Q 1056 1369 1301 889 
Q 1547 409 2034 409 
Q 2525 409 2770 889 
Q 3016 1369 3016 2328 
Q 3016 3291 2770 3770 
Q 2525 4250 2034 4250 
z
M 2034 4750 
Q 2819 4750 3233 4129 
Q 3647 3509 3647 2328 
Q 3647 1150 3233 529 
Q 2819 -91 2034 -91 
Q 1250 -91 836 529 
Q 422 1150 422 2328 
Q 422 3509 836 4129 
Q 1250 4750 2034 4750 
z
" transform="scale(0.015625)"/>
        <path id="DejaVuSans-2e" d="M 684 794 
L 1344 794 
L 1344 0 
L 684 0 
L 684 794 
z
" transform="scale(0.015625)"/>
        <path id="DejaVuSans-35" d="M 691 4666 
L 3169 4666 
L 3169 4134 
L 1269 4134 
L 1269 2991 
Q 1406 3038 1543 3061 
Q 1681 3084 1819 3084 
Q 2600 3084 3056 2656 
Q 3513 2228 3513 1497 
Q 3513 744 3044 326 
Q 2575 -91 1722 -91 
Q 1428 -91 1123 -41 
Q 819 9 494 109 
L 494 744 
Q 775 591 1075 516 
Q 1375 441 1709 441 
Q 2250 441 2565 725 
Q 2881 1009 2881 1497 
Q 2881 1984 2565 2268 
Q 2250 2553 1709 2553 
Q 1456 2553 1204 2497 
Q 953 2441 691 2322 
L 691 4666 
z
" transform="scale(0.015625)"/>
       </defs>
       <use xlink:href="#DejaVuSans-2212"/>
       <use xlink:href="#DejaVuSans-30" x="83.789062"/>
       <use xlink:href="#DejaVuSans-2e" x="147.412109"/>
       <use xlink:href="#DejaVuSans-35" x="179.199219"/>
      </g>
     </g>
    </g>
    <g id="xtick_2">
     <g id="line2d_2">
      <g>
       <use xlink:href="#m8e7af2d493" x="133.2882" y="224.9208" style="stroke: #000000; stroke-width: 0.8"/>
      </g>
     </g>
     <g id="text_2">
      <!-- 0.0 -->
      <g transform="translate(125.336638 239.519237) scale(0.1 -0.1)">
       <use xlink:href="#DejaVuSans-30"/>
       <use xlink:href="#DejaVuSans-2e" x="63.623047"/>
       <use xlink:href="#DejaVuSans-30" x="95.410156"/>
      </g>
     </g>
    </g>
    <g id="xtick_3">
     <g id="line2d_3">
      <g>
       <use xlink:href="#m8e7af2d493" x="165.7206" y="224.9208" style="stroke: #000000; stroke-width: 0.8"/>
      </g>
     </g>
     <g id="text_3">
      <!-- 0.5 -->
      <g transform="translate(157.769037 239.519237) scale(0.1 -0.1)">
       <use xlink:href="#DejaVuSans-30"/>
       <use xlink:href="#DejaVuSans-2e" x="63.623047"/>
       <use xlink:href="#DejaVuSans-35" x="95.410156"/>
      </g>
     </g>
    </g>
    <g id="xtick_4">
     <g id="line2d_4">
      <g>
       <use xlink:href="#m8e7af2d493" x="198.153" y="224.9208" style="stroke: #000000; stroke-width: 0.8"/>
      </g>
     </g>
     <g id="text_4">
      <!-- 1.0 -->
      <g transform="translate(190.201437 239.519237) scale(0.1 -0.1)">
       <defs>
        <path id="DejaVuSans-31" d="M 794 531 
L 1825 531 
L 1825 4091 
L 703 3866 
L 703 4441 
L 1819 4666 
L 2450 4666 
L 2450 531 
L 3481 531 
L 3481 0 
L 794 0 
L 794 531 
z
" transform="scale(0.015625)"/>
       </defs>
       <use xlink:href="#DejaVuSans-31"/>
       <use xlink:href="#DejaVuSans-2e" x="63.623047"/>
       <use xlink:href="#DejaVuSans-30" x="95.410156"/>
      </g>
     </g>
    </g>
    <g id="xtick_5">
     <g id="line2d_5">
      <g>
       <use xlink:href="#m8e7af2d493" x="230.5854" y="224.9208" style="stroke: #000000; stroke-width: 0.8"/>
      </g>
     </g>
     <g id="text_5">
      <!-- 1.5 -->
      <g transform="translate(222.633837 239.519237) scale(0.1 -0.1)">
       <use xlink:href="#DejaVuSans-31"/>
       <use xlink:href="#DejaVuSans-2e" x="63.623047"/>
       <use xlink:href="#DejaVuSans-35" x="95.410156"/>
      </g>
     </g>
    </g>
    <g id="xtick_6">
     <g id="line2d_6">
      <g>
       <use xlink:href="#m8e7af2d493" x="263.0178" y="224.9208" style="stroke: #000000; stroke-width: 0.8"/>
      </g>
     </g>
     <g id="text_6">
      <!-- 2.0 -->
      <g transform="translate(255.066237 239.519237) scale(0.1 -0.1)">
       <defs>
        <path id="DejaVuSans-32" d="M 1228 531 
L 3431 531 
L 3431 0 
L 469 0 
L 469 531 
Q 828 903 1448 1529 
Q 2069 2156 2228 2338 
Q 2531 2678 2651 2914 
Q 2772 3150 2772 3378 
Q 2772 3750 2511 3984 
Q 2250 4219 1831 4219 
Q 1534 4219 1204 4116 
Q 875 4013 500 3803 
L 500 4441 
Q 881 4594 1212 4672 
Q 1544 4750 1819 4750 
Q 2544 4750 2975 4387 
Q 3406 4025 3406 3419 
Q 3406 3131 3298 2873 
Q 3191 2616 2906 2266 
Q 2828 2175 2409 1742 
Q 1991 1309 1228 531 
z
" transform="scale(0.015625)"/>
       </defs>
       <use xlink:href="#DejaVuSans-32"/>
       <use xlink:href="#DejaVuSans-2e" x="63.623047"/>
       <use xlink:href="#DejaVuSans-30" x="95.410156"/>
      </g>
     </g>
    </g>
    <g id="xtick_7">
     <g id="line2d_7">
      <g>
       <use xlink:href="#m8e7af2d493" x="295.4502" y="224.9208" style="stroke: #000000; stroke-width: 0.8"/>
      </g>
     </g>
     <g id="text_7">
      <!-- 2.5 -->
      <g transform="translate(287.498637 239.519237) scale(0.1 -0.1)">
       <use xlink:href="#DejaVuSans-32"/>
       <use xlink:href="#DejaVuSans-2e" x="63.623047"/>
       <use xlink:href="#DejaVuSans-35" x="95.410156"/>
      </g>
     </g>
    </g>
    <g id="text_8">
     <!-- x(m) -->
     <g transform="translate(186.42175 253.197362) scale(0.1 -0.1)">
      <defs>
       <path id="DejaVuSans-78" d="M 3513 3500 
L 2247 1797 
L 3578 0 
L 2900 0 
L 1881 1375 
L 863 0 
L 184 0 
L 1544 1831 
L 300 3500 
L 978 3500 
L 1906 2253 
L 2834 3500 
L 3513 3500 
z
" transform="scale(0.015625)"/>
       <path id="DejaVuSans-28" d="M 1984 4856 
Q 1566 4138 1362 3434 
Q 1159 2731 1159 2009 
Q 1159 1288 1364 580 
Q 1569 -128 1984 -844 
L 1484 -844 
Q 1016 -109 783 600 
Q 550 1309 550 2009 
Q 550 2706 781 3412 
Q 1013 4119 1484 4856 
L 1984 4856 
z
" transform="scale(0.015625)"/>
       <path id="DejaVuSans-6d" d="M 3328 2828 
Q 3544 3216 3844 3400 
Q 4144 3584 4550 3584 
Q 5097 3584 5394 3201 
Q 5691 2819 5691 2113 
L 5691 0 
L 5113 0 
L 5113 2094 
Q 5113 2597 4934 2840 
Q 4756 3084 4391 3084 
Q 3944 3084 3684 2787 
Q 3425 2491 3425 1978 
L 3425 0 
L 2847 0 
L 2847 2094 
Q 2847 2600 2669 2842 
Q 2491 3084 2119 3084 
Q 1678 3084 1418 2786 
Q 1159 2488 1159 1978 
L 1159 0 
L 581 0 
L 581 3500 
L 1159 3500 
L 1159 2956 
Q 1356 3278 1631 3431 
Q 1906 3584 2284 3584 
Q 2666 3584 2933 3390 
Q 3200 3197 3328 2828 
z
" transform="scale(0.015625)"/>
       <path id="DejaVuSans-29" d="M 513 4856 
L 1013 4856 
Q 1481 4119 1714 3412 
Q 1947 2706 1947 2009 
Q 1947 1309 1714 600 
Q 1481 -109 1013 -844 
L 513 -844 
Q 928 -128 1133 580 
Q 1338 1288 1338 2009 
Q 1338 2731 1133 3434 
Q 928 4138 513 4856 
z
" transform="scale(0.015625)"/>
      </defs>
      <use xlink:href="#DejaVuSans-78"/>
      <use xlink:href="#DejaVuSans-28" x="59.179688"/>
      <use xlink:href="#DejaVuSans-6d" x="98.193359"/>
      <use xlink:href="#DejaVuSans-29" x="195.605469"/>
     </g>
    </g>
   </g>
   <g id="matplotlib.axis_2">
    <g id="ytick_1">
     <g id="line2d_8">
      <defs>
       <path id="mee5eb2d276" d="M 0 0 
L -3.5 0 
" style="stroke: #000000; stroke-width: 0.8"/>
      </defs>
      <g>
       <use xlink:href="#mee5eb2d276" x="100.8558" y="224.9208" style="stroke: #000000; stroke-width: 0.8"/>
      </g>
     </g>
     <g id="text_9">
      <!-- −0.5 -->
      <g transform="translate(69.572988 228.720019) scale(0.1 -0.1)">
       <use xlink:href="#DejaVuSans-2212"/>
       <use xlink:href="#DejaVuSans-30" x="83.789062"/>
       <use xlink:href="#DejaVuSans-2e" x="147.412109"/>
       <use xlink:href="#DejaVuSans-35" x="179.199219"/>
      </g>
     </g>
    </g>
    <g id="ytick_2">
     <g id="line2d_9">
      <g>
       <use xlink:href="#mee5eb2d276" x="100.8558" y="192.4884" style="stroke: #000000; stroke-width: 0.8"/>
      </g>
     </g>
     <g id="text_10">
      <!-- 0.0 -->
      <g transform="translate(77.952675 196.287619) scale(0.1 -0.1)">
       <use xlink:href="#DejaVuSans-30"/>
       <use xlink:href="#DejaVuSans-2e" x="63.623047"/>
       <use xlink:href="#DejaVuSans-30" x="95.410156"/>
      </g>
     </g>
    </g>
    <g id="ytick_3">
     <g id="line2d_10">
      <g>
       <use xlink:href="#mee5eb2d276" x="100.8558" y="160.056" style="stroke: #000000; stroke-width: 0.8"/>
      </g>
     </g>
     <g id="text_11">
      <!-- 0.5 -->
      <g transform="translate(77.952675 163.855219) scale(0.1 -0.1)">
       <use xlink:href="#DejaVuSans-30"/>
       <use xlink:href="#DejaVuSans-2e" x="63.623047"/>
       <use xlink:href="#DejaVuSans-35" x="95.410156"/>
      </g>
     </g>
    </g>
    <g id="ytick_4">
     <g id="line2d_11">
      <g>
       <use xlink:href="#mee5eb2d276" x="100.8558" y="127.6236" style="stroke: #000000; stroke-width: 0.8"/>
      </g>
     </g>
     <g id="text_12">
      <!-- 1.0 -->
      <g transform="translate(77.952675 131.422819) scale(0.1 -0.1)">
       <use xlink:href="#DejaVuSans-31"/>
       <use xlink:href="#DejaVuSans-2e" x="63.623047"/>
       <use xlink:href="#DejaVuSans-30" x="95.410156"/>
      </g>
     </g>
    </g>
    <g id="ytick_5">
     <g id="line2d_12">
      <g>
       <use xlink:href="#mee5eb2d276" x="100.8558" y="95.1912" style="stroke: #000000; stroke-width: 0.8"/>
      </g>
     </g>
     <g id="text_13">
      <!-- 1.5 -->
      <g transform="translate(77.952675 98.990419) scale(0.1 -0.1)">
       <use xlink:href="#DejaVuSans-31"/>
       <use xlink:href="#DejaVuSans-2e" x="63.623047"/>
       <use xlink:href="#DejaVuSans-35" x="95.410156"/>
      </g>
     </g>
    </g>
    <g id="ytick_6">
     <g id="line2d_13">
      <g>
       <use xlink:href="#mee5eb2d276" x="100.8558" y="62.7588" style="stroke: #000000; stroke-width: 0.8"/>
      </g>
     </g>
     <g id="text_14">
      <!-- 2.0 -->
      <g transform="translate(77.952675 66.558019) scale(0.1 -0.1)">
       <use xlink:href="#DejaVuSans-32"/>
       <use xlink:href="#DejaVuSans-2e" x="63.623047"/>
       <use xlink:href="#DejaVuSans-30" x="95.410156"/>
      </g>
     </g>
    </g>
    <g id="ytick_7">
     <g id="line2d_14">
      <g>
       <use xlink:href="#mee5eb2d276" x="100.8558" y="30.3264" style="stroke: #000000; stroke-width: 0.8"/>
      </g>
     </g>
     <g id="text_15">
      <!-- 2.5 -->
      <g transform="translate(77.952675 34.125619) scale(0.1 -0.1)">
       <use xlink:href="#DejaVuSans-32"/>
       <use xlink:href="#DejaVuSans-2e" x="63.623047"/>
       <use xlink:href="#DejaVuSans-35" x="95.410156"/>
      </g>
     </g>
    </g>
    <g id="text_16">
     <!-- y(m) -->
     <g transform="translate(63.4933 139.35485) rotate(-90) scale(0.1 -0.1)">
      <defs>
       <path id="DejaVuSans-79" d="M 2059 -325 
Q 1816 -950 1584 -1140 
Q 1353 -1331 966 -1331 
L 506 -1331 
L 506 -850 
L 844 -850 
Q 1081 -850 1212 -737 
Q 1344 -625 1503 -206 
L 1606 56 
L 191 3500 
L 800 3500 
L 1894 763 
L 2988 3500 
L 3597 3500 
L 2059 -325 
z
" transform="scale(0.015625)"/>
      </defs>
      <use xlink:href="#DejaVuSans-79"/>
      <use xlink:href="#DejaVuSans-28" x="59.179688"/>
      <use xlink:href="#DejaVuSans-6d" x="98.193359"/>
      <use xlink:href="#DejaVuSans-29" x="195.605469"/>
     </g>
    </g>
   </g>
   <g id="line2d_15">
    <path d="M 138.573349 127.593776 
L 147.253742 127.509077 
L 155.714252 127.551318 
L 160.065628 127.577436 
L 162.207349 127.591783 
L 163.602547 127.601286 
L 164.569309 127.607934 
L 165.279781 127.612839 
L 165.823717 127.616601 
L 166.253495 127.619577 
L 166.601616 127.621989 
L 166.889319 127.623984 
L 166.889319 127.623984 
" clip-path="url(#p35a3c73906)" style="fill: none; stroke-dasharray: 2,3.3; stroke-dashoffset: 0; stroke: #1f77b4; stroke-width: 2"/>
   </g>
   <g id="line2d_16">
    <path d="M 133.2882 127.6236 
L 133.2882 127.6236 
L 133.768676 127.621531 
L 138.573349 127.593776 
" clip-path="url(#p35a3c73906)" style="fill: none; stroke: #1f77b4; stroke-width: 2; stroke-linecap: square"/>
   </g>
   <g id="line2d_17">
    <path d="M 198.417246 200.200816 
L 199.909796 191.934077 
L 201.732614 185.496192 
L 202.46222 182.877756 
L 202.878285 181.38781 
L 203.144113 180.435611 
L 203.328756 179.774243 
L 203.464408 179.288351 
L 203.568267 178.916339 
L 203.650328 178.622403 
L 203.716798 178.384315 
L 203.771732 178.187549 
L 203.771732 178.187549 
" clip-path="url(#p35a3c73906)" style="fill: none; stroke-dasharray: 2,3.3; stroke-dashoffset: 0; stroke: #ff7f0e; stroke-width: 2"/>
   </g>
   <g id="line2d_18">
    <path d="M 198.153 205.46136 
L 198.153 205.46136 
L 198.164648 204.981025 
L 198.417246 200.200816 
" clip-path="url(#p35a3c73906)" style="fill: none; stroke: #ff7f0e; stroke-width: 2; stroke-linecap: square"/>
   </g>
   <g id="line2d_19">
    <path d="M 133.288202 95.1912 
L 133.288204 95.191197 
L 133.288206 95.19119 
L 133.288207 95.191181 
L 133.288207 95.191172 
L 133.288208 95.191162 
L 133.288208 95.191154 
L 133.288208 95.191147 
L 133.288207 95.191143 
L 133.288207 95.191141 
L 133.288207 95.19114 
L 133.288206 95.19114 
L 133.288206 95.19114 
" clip-path="url(#p35a3c73906)" style="fill: none; stroke-dasharray: 2,3.3; stroke-dashoffset: 0; stroke: #2ca02c; stroke-width: 2"/>
   </g>
   <g id="line2d_20">
    <path d="M 133.2882 95.1912 
L 133.2882 95.1912 
L 133.2882 95.1912 
L 133.288202 95.1912 
" clip-path="url(#p35a3c73906)" style="fill: none; stroke: #2ca02c; stroke-width: 2; stroke-linecap: square"/>
   </g>
   <g id="line2d_21">
    <path d="M 165.720603 95.19115 
L 165.720578 95.191151 
L 165.72051 95.191138 
L 165.72042 95.191089 
L 165.720347 95.191025 
L 165.7203 95.190971 
L 165.720282 95.190949 
L 165.720291 95.190969 
L 165.720323 95.191016 
L 165.720366 95.191068 
L 165.720404 95.191107 
L 165.720423 95.191127 
L 165.720423 95.191127 
" clip-path="url(#p35a3c73906)" style="fill: none; stroke-dasharray: 2,3.3; stroke-dashoffset: 0; stroke: #d62728; stroke-width: 2"/>
   </g>
   <g id="line2d_22">
    <path d="M 165.7206 95.1912 
L 165.7206 95.1912 
L 165.720601 95.191194 
L 165.720603 95.19115 
" clip-path="url(#p35a3c73906)" style="fill: none; stroke: #d62728; stroke-width: 2; stroke-linecap: square"/>
   </g>
   <g id="line2d_23">
    <path d="M 230.585399 95.191183 
L 230.585403 95.191172 
L 230.585414 95.191163 
L 230.585427 95.191156 
L 230.585438 95.191155 
L 230.585445 95.191156 
L 230.585449 95.191159 
L 230.585449 95.191161 
L 230.585447 95.191163 
L 230.585443 95.191164 
L 230.585439 95.191165 
L 230.585437 95.191164 
L 230.585437 95.191164 
" clip-path="url(#p35a3c73906)" style="fill: none; stroke-dasharray: 2,3.3; stroke-dashoffset: 0; stroke: #9467bd; stroke-width: 2"/>
   </g>
   <g id="line2d_24">
    <path d="M 230.5854 95.1912 
L 230.5854 95.1912 
L 230.5854 95.191198 
L 230.585399 95.191183 
" clip-path="url(#p35a3c73906)" style="fill: none; stroke: #9467bd; stroke-width: 2; stroke-linecap: square"/>
   </g>
   <g id="line2d_25">
    <path d="M 263.017807 95.191203 
L 263.017812 95.191199 
L 263.017815 95.191192 
L 263.017818 95.191181 
L 263.01782 95.191169 
L 263.017821 95.191158 
L 263.017821 95.191147 
L 263.01782 95.191138 
L 263.017818 95.191132 
L 263.017817 95.191129 
L 263.017816 95.191128 
L 263.017815 95.191127 
L 263.017815 95.191127 
" clip-path="url(#p35a3c73906)" style="fill: none; stroke-dasharray: 2,3.3; stroke-dashoffset: 0; stroke: #8c564b; stroke-width: 2"/>
   </g>
   <g id="line2d_26">
    <path d="M 263.0178 95.1912 
L 263.0178 95.1912 
L 263.017801 95.1912 
L 263.017807 95.191203 
" clip-path="url(#p35a3c73906)" style="fill: none; stroke: #8c564b; stroke-width: 2; stroke-linecap: square"/>
   </g>
   <g id="line2d_27">
    <path d="M 133.288203 160.056 
L 133.288205 160.056004 
L 133.288207 160.056013 
L 133.288209 160.056025 
L 133.288211 160.056038 
L 133.288212 160.056053 
L 133.288213 160.056066 
L 133.288213 160.056077 
L 133.288213 160.056086 
L 133.288213 160.05609 
L 133.288213 160.056093 
L 133.288213 160.056093 
L 133.288213 160.056093 
" clip-path="url(#p35a3c73906)" style="fill: none; stroke-dasharray: 2,3.3; stroke-dashoffset: 0; stroke: #e377c2; stroke-width: 2"/>
   </g>
   <g id="line2d_28">
    <path d="M 133.2882 160.056 
L 133.2882 160.056 
L 133.2882 160.056 
L 133.288203 160.056 
" clip-path="url(#p35a3c73906)" style="fill: none; stroke: #e377c2; stroke-width: 2; stroke-linecap: square"/>
   </g>
   <g id="line2d_29">
    <path d="M 165.720599 160.05597 
L 165.720579 160.055909 
L 165.720536 160.055879 
L 165.720484 160.055902 
L 165.720446 160.055956 
L 165.720424 160.056003 
L 165.720418 160.056026 
L 165.720428 160.05603 
L 165.720449 160.056028 
L 165.720475 160.056023 
L 165.720497 160.056018 
L 165.720509 160.056015 
L 165.720509 160.056015 
" clip-path="url(#p35a3c73906)" style="fill: none; stroke-dasharray: 2,3.3; stroke-dashoffset: 0; stroke: #7f7f7f; stroke-width: 2"/>
   </g>
   <g id="line2d_30">
    <path d="M 165.7206 160.056 
L 165.7206 160.056 
L 165.7206 160.055997 
L 165.720599 160.05597 
" clip-path="url(#p35a3c73906)" style="fill: none; stroke: #7f7f7f; stroke-width: 2; stroke-linecap: square"/>
   </g>
   <g id="line2d_31">
    <path d="M 230.585404 160.056019 
L 230.585431 160.055988 
L 230.585496 160.055976 
L 230.585581 160.056008 
L 230.58565 160.056066 
L 230.585694 160.056117 
L 230.58571 160.05614 
L 230.5857 160.056132 
L 230.585669 160.056108 
L 230.585629 160.056081 
L 230.585594 160.05606 
L 230.585576 160.056048 
L 230.585576 160.056048 
" clip-path="url(#p35a3c73906)" style="fill: none; stroke-dasharray: 2,3.3; stroke-dashoffset: 0; stroke: #bcbd22; stroke-width: 2"/>
   </g>
   <g id="line2d_32">
    <path d="M 230.5854 160.056 
L 230.5854 160.056 
L 230.5854 160.056002 
L 230.585404 160.056019 
" clip-path="url(#p35a3c73906)" style="fill: none; stroke: #bcbd22; stroke-width: 2; stroke-linecap: square"/>
   </g>
   <g id="line2d_33">
    <path d="M 263.0178 160.056 
L 263.0178 160.056006 
L 263.017801 160.056015 
L 263.0178 160.056024 
L 263.0178 160.056034 
L 263.017799 160.056043 
L 263.017798 160.056051 
L 263.017798 160.056057 
L 263.017797 160.056061 
L 263.017796 160.056062 
L 263.017796 160.056062 
L 263.017796 160.056062 
L 263.017796 160.056062 
" clip-path="url(#p35a3c73906)" style="fill: none; stroke-dasharray: 2,3.3; stroke-dashoffset: 0; stroke: #17becf; stroke-width: 2"/>
   </g>
   <g id="line2d_34">
    <path d="M 263.0178 160.056 
L 263.0178 160.056 
L 263.0178 160.056 
L 263.0178 160.056 
" clip-path="url(#p35a3c73906)" style="fill: none; stroke: #17becf; stroke-width: 2; stroke-linecap: square"/>
   </g>
   <g id="line2d_35">
    <path d="M 230.585398 62.758783 
L 230.585394 62.75877 
L 230.585386 62.758756 
L 230.585376 62.758745 
L 230.585368 62.758738 
L 230.585362 62.758737 
L 230.585358 62.758739 
L 230.585357 62.758746 
L 230.585358 62.758754 
L 230.58536 62.758763 
L 230.585364 62.75877 
L 230.585366 62.758774 
L 230.585366 62.758774 
" clip-path="url(#p35a3c73906)" style="fill: none; stroke-dasharray: 2,3.3; stroke-dashoffset: 0; stroke: #2f4f4f; stroke-width: 2"/>
   </g>
   <g id="line2d_36">
    <path d="M 230.5854 62.7588 
L 230.5854 62.7588 
L 230.5854 62.758798 
L 230.585398 62.758783 
" clip-path="url(#p35a3c73906)" style="fill: none; stroke: #2f4f4f; stroke-width: 2; stroke-linecap: square"/>
   </g>
   <g id="line2d_37">
    <path d="M 230.585368 30.32646 
L 230.585347 30.326502 
L 230.585329 30.326535 
L 230.585315 30.326559 
L 230.585308 30.326571 
L 230.585306 30.326573 
L 230.585309 30.326565 
L 230.585317 30.32655 
L 230.585326 30.32653 
L 230.585336 30.326512 
L 230.585343 30.3265 
L 230.585346 30.326496 
L 230.585346 30.326496 
" clip-path="url(#p35a3c73906)" style="fill: none; stroke-dasharray: 2,3.3; stroke-dashoffset: 0; stroke: #cd5c5c; stroke-width: 2"/>
   </g>
   <g id="line2d_38">
    <path d="M 230.5854 30.3264 
L 230.5854 30.3264 
L 230.585397 30.326406 
L 230.585368 30.32646 
" clip-path="url(#p35a3c73906)" style="fill: none; stroke: #cd5c5c; stroke-width: 2; stroke-linecap: square"/>
   </g>
   <g id="line2d_39">
    <path clip-path="url(#p35a3c73906)" style="fill: none; stroke-dasharray: 2,3.3; stroke-dashoffset: 0; stroke: #add8e6; stroke-width: 2"/>
   </g>
   <g id="line2d_40">
    <path clip-path="url(#p35a3c73906)" style="fill: none; stroke: #add8e6; stroke-width: 2; stroke-linecap: square"/>
   </g>
   <g id="line2d_41">
    <path d="M 230.585403 192.488407 
L 230.585406 192.488411 
L 230.58541 192.488413 
L 230.585414 192.488414 
L 230.585416 192.488413 
L 230.585417 192.488412 
L 230.585416 192.48841 
L 230.585413 192.488408 
L 230.585409 192.488408 
L 230.585403 192.488409 
L 230.585399 192.488411 
L 230.585396 192.488414 
L 230.585396 192.488414 
" clip-path="url(#p35a3c73906)" style="fill: none; stroke-dasharray: 2,3.3; stroke-dashoffset: 0; stroke: #663399; stroke-width: 2"/>
   </g>
   <g id="line2d_42">
    <path d="M 230.5854 192.4884 
L 230.5854 192.4884 
L 230.5854 192.488401 
L 230.585403 192.488407 
" clip-path="url(#p35a3c73906)" style="fill: none; stroke: #663399; stroke-width: 2; stroke-linecap: square"/>
   </g>
   <g id="line2d_43">
    <path d="M 230.585385 224.920825 
L 230.585374 224.920843 
L 230.585365 224.920858 
L 230.585359 224.92087 
L 230.585356 224.920877 
L 230.585355 224.920879 
L 230.585358 224.920878 
L 230.585363 224.920873 
L 230.585369 224.920865 
L 230.585375 224.920856 
L 230.58538 224.92085 
L 230.585383 224.920847 
L 230.585383 224.920847 
" clip-path="url(#p35a3c73906)" style="fill: none; stroke-dasharray: 2,3.3; stroke-dashoffset: 0; stroke: #8fbc8f; stroke-width: 2"/>
   </g>
   <g id="line2d_44">
    <path d="M 230.5854 224.9208 
L 230.5854 224.9208 
L 230.585398 224.920803 
L 230.585385 224.920825 
" clip-path="url(#p35a3c73906)" style="fill: none; stroke: #8fbc8f; stroke-width: 2; stroke-linecap: square"/>
   </g>
   <g id="line2d_45">
    <path clip-path="url(#p35a3c73906)" style="fill: none; stroke-dasharray: 2,3.3; stroke-dashoffset: 0; stroke: #00ced1; stroke-width: 2"/>
   </g>
   <g id="line2d_46">
    <path clip-path="url(#p35a3c73906)" style="fill: none; stroke: #00ced1; stroke-width: 2; stroke-linecap: square"/>
   </g>
   <g id="line2d_47">
    <path d="M 165.720599 62.758767 
L 165.720604 62.75874 
L 165.720616 62.758714 
L 165.720634 62.758691 
L 165.72065 62.75868 
L 165.720662 62.758679 
L 165.72067 62.758689 
L 165.720675 62.758705 
L 165.720677 62.758724 
L 165.720676 62.75874 
L 165.720674 62.75875 
L 165.720673 62.758752 
L 165.720673 62.758752 
" clip-path="url(#p35a3c73906)" style="fill: none; stroke-dasharray: 2,3.3; stroke-dashoffset: 0; stroke: #6a5acd; stroke-width: 2"/>
   </g>
   <g id="line2d_48">
    <path d="M 165.7206 62.7588 
L 165.7206 62.7588 
L 165.7206 62.758797 
L 165.720599 62.758767 
" clip-path="url(#p35a3c73906)" style="fill: none; stroke: #6a5acd; stroke-width: 2; stroke-linecap: square"/>
   </g>
   <g id="line2d_49">
    <path d="M 165.720603 30.326374 
L 165.720607 30.326328 
L 165.720615 30.326259 
L 165.720625 30.326177 
L 165.720635 30.3261 
L 165.720643 30.326036 
L 165.720648 30.325994 
L 165.720653 30.325982 
L 165.720657 30.326008 
L 165.720662 30.326068 
L 165.720669 30.326142 
L 165.720675 30.326191 
L 165.720675 30.326191 
" clip-path="url(#p35a3c73906)" style="fill: none; stroke-dasharray: 2,3.3; stroke-dashoffset: 0; stroke: #808000; stroke-width: 2"/>
   </g>
   <g id="line2d_50">
    <path d="M 165.7206 30.3264 
L 165.7206 30.3264 
L 165.7206 30.326398 
L 165.720603 30.326374 
" clip-path="url(#p35a3c73906)" style="fill: none; stroke: #808000; stroke-width: 2; stroke-linecap: square"/>
   </g>
   <g id="line2d_51">
    <path clip-path="url(#p35a3c73906)" style="fill: none; stroke-dasharray: 2,3.3; stroke-dashoffset: 0; stroke: #a0522d; stroke-width: 2"/>
   </g>
   <g id="line2d_52">
    <path clip-path="url(#p35a3c73906)" style="fill: none; stroke: #a0522d; stroke-width: 2; stroke-linecap: square"/>
   </g>
   <g id="line2d_53">
    <path d="M 165.720611 192.488452 
L 165.720621 192.48849 
L 165.720631 192.488526 
L 165.720642 192.488556 
L 165.720649 192.488571 
L 165.720652 192.488573 
L 165.720651 192.488564 
L 165.720648 192.488545 
L 165.720642 192.488521 
L 165.720636 192.488494 
L 165.72063 192.488473 
L 165.720626 192.488462 
L 165.720626 192.488462 
" clip-path="url(#p35a3c73906)" style="fill: none; stroke-dasharray: 2,3.3; stroke-dashoffset: 0; stroke: #ff4500; stroke-width: 2"/>
   </g>
   <g id="line2d_54">
    <path d="M 165.7206 192.4884 
L 165.7206 192.4884 
L 165.720601 192.488405 
L 165.720611 192.488452 
" clip-path="url(#p35a3c73906)" style="fill: none; stroke: #ff4500; stroke-width: 2; stroke-linecap: square"/>
   </g>
   <g id="line2d_55">
    <path d="M 165.720621 224.92079 
L 165.720637 224.920781 
L 165.720652 224.92077 
L 165.720665 224.920759 
L 165.720674 224.920749 
L 165.720679 224.920742 
L 165.720679 224.920738 
L 165.720675 224.920737 
L 165.720667 224.920738 
L 165.720659 224.92074 
L 165.720652 224.920743 
L 165.720649 224.920744 
L 165.720649 224.920744 
" clip-path="url(#p35a3c73906)" style="fill: none; stroke-dasharray: 2,3.3; stroke-dashoffset: 0; stroke: #708090; stroke-width: 2"/>
   </g>
   <g id="line2d_56">
    <path d="M 165.7206 224.9208 
L 165.7206 224.9208 
L 165.720602 224.920799 
L 165.720621 224.92079 
" clip-path="url(#p35a3c73906)" style="fill: none; stroke: #708090; stroke-width: 2; stroke-linecap: square"/>
   </g>
   <g id="line2d_57">
    <path clip-path="url(#p35a3c73906)" style="fill: none; stroke-dasharray: 2,3.3; stroke-dashoffset: 0; stroke: #bdb76b; stroke-width: 2"/>
   </g>
   <g id="line2d_58">
    <path clip-path="url(#p35a3c73906)" style="fill: none; stroke: #bdb76b; stroke-width: 2; stroke-linecap: square"/>
   </g>
   <g id="patch_3">
    <path d="M 100.8558 224.9208 
L 100.8558 30.3264 
" style="fill: none; stroke: #000000; stroke-width: 0.8; stroke-linejoin: miter; stroke-linecap: square"/>
   </g>
   <g id="patch_4">
    <path d="M 295.4502 224.9208 
L 295.4502 30.3264 
" style="fill: none; stroke: #000000; stroke-width: 0.8; stroke-linejoin: miter; stroke-linecap: square"/>
   </g>
   <g id="patch_5">
    <path d="M 100.8558 224.9208 
L 295.4502 224.9208 
" style="fill: none; stroke: #000000; stroke-width: 0.8; stroke-linejoin: miter; stroke-linecap: square"/>
   </g>
   <g id="patch_6">
    <path d="M 100.8558 30.3264 
L 295.4502 30.3264 
" style="fill: none; stroke: #000000; stroke-width: 0.8; stroke-linejoin: miter; stroke-linecap: square"/>
   </g>
   <g id="patch_7">
    <path d="M 138.573349 137.323496 
C 141.153701 137.323496 143.628715 136.298311 145.4533 134.473727 
C 147.277884 132.649143 148.303069 130.174128 148.303069 127.593776 
C 148.303069 125.013424 147.277884 122.538409 145.4533 120.713825 
C 143.628715 118.889241 141.153701 117.864056 138.573349 117.864056 
C 135.992997 117.864056 133.517982 118.889241 131.693398 120.713825 
C 129.868813 122.538409 128.843629 125.013424 128.843629 127.593776 
C 128.843629 130.174128 129.868813 132.649143 131.693398 134.473727 
C 133.517982 136.298311 135.992997 137.323496 138.573349 137.323496 
z
" clip-path="url(#p35a3c73906)" style="fill: #1f77b4; stroke: #000000; stroke-linejoin: miter"/>
   </g>
   <g id="patch_8">
    <path d="M 198.417246 209.930536 
C 200.997598 209.930536 203.472613 208.905352 205.297197 207.080767 
C 207.121782 205.256183 208.146966 202.781168 208.146966 200.200816 
C 208.146966 197.620464 207.121782 195.14545 205.297197 193.320865 
C 203.472613 191.496281 200.997598 190.471096 198.417246 190.471096 
C 195.836894 190.471096 193.36188 191.496281 191.537295 193.320865 
C 189.712711 195.14545 188.687526 197.620464 188.687526 200.200816 
C 188.687526 202.781168 189.712711 205.256183 191.537295 207.080767 
C 193.36188 208.905352 195.836894 209.930536 198.417246 209.930536 
z
" clip-path="url(#p35a3c73906)" style="fill: #ff7f0e; stroke: #000000; stroke-linejoin: miter"/>
   </g>
   <g id="patch_9">
    <path d="M 133.288202 104.92092 
C 135.868554 104.92092 138.343569 103.895736 140.168153 102.071151 
C 141.992737 100.246567 143.017922 97.771552 143.017922 95.1912 
C 143.017922 92.610849 141.992737 90.135834 140.168153 88.311249 
C 138.343569 86.486665 135.868554 85.46148 133.288202 85.46148 
C 130.70785 85.46148 128.232835 86.486665 126.408251 88.311249 
C 124.583667 90.135834 123.558482 92.610849 123.558482 95.1912 
C 123.558482 97.771552 124.583667 100.246567 126.408251 102.071151 
C 128.232835 103.895736 130.70785 104.92092 133.288202 104.92092 
z
" clip-path="url(#p35a3c73906)" style="fill: #2ca02c; stroke: #000000; stroke-linejoin: miter"/>
   </g>
   <g id="patch_10">
    <path d="M 165.720603 104.92087 
C 168.300955 104.92087 170.77597 103.895685 172.600554 102.071101 
C 174.425139 100.246516 175.450323 97.771501 175.450323 95.19115 
C 175.450323 92.610798 174.425139 90.135783 172.600554 88.311199 
C 170.77597 86.486614 168.300955 85.46143 165.720603 85.46143 
C 163.140251 85.46143 160.665237 86.486614 158.840652 88.311199 
C 157.016068 90.135783 155.990883 92.610798 155.990883 95.19115 
C 155.990883 97.771501 157.016068 100.246516 158.840652 102.071101 
C 160.665237 103.895685 163.140251 104.92087 165.720603 104.92087 
z
" clip-path="url(#p35a3c73906)" style="fill: #d62728; stroke: #000000; stroke-linejoin: miter"/>
   </g>
   <g id="patch_11">
    <path d="M 230.585399 104.920903 
C 233.165751 104.920903 235.640766 103.895718 237.46535 102.071134 
C 239.289935 100.246549 240.315119 97.771535 240.315119 95.191183 
C 240.315119 92.610831 239.289935 90.135816 237.46535 88.311232 
C 235.640766 86.486647 233.165751 85.461463 230.585399 85.461463 
C 228.005047 85.461463 225.530033 86.486647 223.705448 88.311232 
C 221.880864 90.135816 220.855679 92.610831 220.855679 95.191183 
C 220.855679 97.771535 221.880864 100.246549 223.705448 102.071134 
C 225.530033 103.895718 228.005047 104.920903 230.585399 104.920903 
z
" clip-path="url(#p35a3c73906)" style="fill: #9467bd; stroke: #000000; stroke-linejoin: miter"/>
   </g>
   <g id="patch_12">
    <path d="M 263.017807 104.920923 
C 265.598159 104.920923 268.073173 103.895738 269.897758 102.071154 
C 271.722342 100.246569 272.747527 97.771554 272.747527 95.191203 
C 272.747527 92.610851 271.722342 90.135836 269.897758 88.311252 
C 268.073173 86.486667 265.598159 85.461483 263.017807 85.461483 
C 260.437455 85.461483 257.96244 86.486667 256.137856 88.311252 
C 254.313271 90.135836 253.288087 92.610851 253.288087 95.191203 
C 253.288087 97.771554 254.313271 100.246569 256.137856 102.071154 
C 257.96244 103.895738 260.437455 104.920923 263.017807 104.920923 
z
" clip-path="url(#p35a3c73906)" style="fill: #8c564b; stroke: #000000; stroke-linejoin: miter"/>
   </g>
   <g id="patch_13">
    <path d="M 133.288203 169.78572 
C 135.868555 169.78572 138.343569 168.760536 140.168154 166.935951 
C 141.992738 165.111367 143.017923 162.636352 143.017923 160.056 
C 143.017923 157.475648 141.992738 155.000634 140.168154 153.176049 
C 138.343569 151.351465 135.868555 150.32628 133.288203 150.32628 
C 130.707851 150.32628 128.232836 151.351465 126.408252 153.176049 
C 124.583667 155.000634 123.558483 157.475648 123.558483 160.056 
C 123.558483 162.636352 124.583667 165.111367 126.408252 166.935951 
C 128.232836 168.760536 130.707851 169.78572 133.288203 169.78572 
z
" clip-path="url(#p35a3c73906)" style="fill: #e377c2; stroke: #000000; stroke-linejoin: miter"/>
   </g>
   <g id="patch_14">
    <path d="M 165.720599 169.78569 
C 168.300951 169.78569 170.775966 168.760505 172.60055 166.935921 
C 174.425135 165.111336 175.450319 162.636322 175.450319 160.05597 
C 175.450319 157.475618 174.425135 155.000603 172.60055 153.176019 
C 170.775966 151.351434 168.300951 150.32625 165.720599 150.32625 
C 163.140247 150.32625 160.665233 151.351434 158.840648 153.176019 
C 157.016064 155.000603 155.990879 157.475618 155.990879 160.05597 
C 155.990879 162.636322 157.016064 165.111336 158.840648 166.935921 
C 160.665233 168.760505 163.140247 169.78569 165.720599 169.78569 
z
" clip-path="url(#p35a3c73906)" style="fill: #7f7f7f; stroke: #000000; stroke-linejoin: miter"/>
   </g>
   <g id="patch_15">
    <path d="M 230.585404 169.785739 
C 233.165756 169.785739 235.640771 168.760554 237.465355 166.93597 
C 239.28994 165.111385 240.315124 162.63637 240.315124 160.056019 
C 240.315124 157.475667 239.28994 155.000652 237.465355 153.176068 
C 235.640771 151.351483 233.165756 150.326299 230.585404 150.326299 
C 228.005053 150.326299 225.530038 151.351483 223.705453 153.176068 
C 221.880869 155.000652 220.855684 157.475667 220.855684 160.056019 
C 220.855684 162.63637 221.880869 165.111385 223.705453 166.93597 
C 225.530038 168.760554 228.005053 169.785739 230.585404 169.785739 
z
" clip-path="url(#p35a3c73906)" style="fill: #bcbd22; stroke: #000000; stroke-linejoin: miter"/>
   </g>
   <g id="patch_16">
    <path d="M 263.0178 169.78572 
C 265.598152 169.78572 268.073167 168.760536 269.897751 166.935951 
C 271.722335 165.111367 272.74752 162.636352 272.74752 160.056 
C 272.74752 157.475648 271.722335 155.000634 269.897751 153.176049 
C 268.073167 151.351465 265.598152 150.32628 263.0178 150.32628 
C 260.437448 150.32628 257.962433 151.351465 256.137849 153.176049 
C 254.313265 155.000634 253.28808 157.475648 253.28808 160.056 
C 253.28808 162.636352 254.313265 165.111367 256.137849 166.935951 
C 257.962433 168.760536 260.437448 169.78572 263.0178 169.78572 
z
" clip-path="url(#p35a3c73906)" style="fill: #17becf; stroke: #000000; stroke-linejoin: miter"/>
   </g>
   <g id="patch_17">
    <path d="M 230.585398 72.488503 
C 233.16575 72.488503 235.640765 71.463318 237.465349 69.638734 
C 239.289934 67.81415 240.315118 65.339135 240.315118 62.758783 
C 240.315118 60.178431 239.289934 57.703416 237.465349 55.878832 
C 235.640765 54.054248 233.16575 53.029063 230.585398 53.029063 
C 228.005047 53.029063 225.530032 54.054248 223.705447 55.878832 
C 221.880863 57.703416 220.855678 60.178431 220.855678 62.758783 
C 220.855678 65.339135 221.880863 67.81415 223.705447 69.638734 
C 225.530032 71.463318 228.005047 72.488503 230.585398 72.488503 
z
" clip-path="url(#p35a3c73906)" style="fill: #2f4f4f; stroke: #000000; stroke-linejoin: miter"/>
   </g>
   <g id="patch_18">
    <path d="M 230.585368 40.05618 
C 233.16572 40.05618 235.640735 39.030996 237.465319 37.206411 
C 239.289904 35.381827 240.315088 32.906812 240.315088 30.32646 
C 240.315088 27.746108 239.289904 25.271094 237.465319 23.446509 
C 235.640735 21.621925 233.16572 20.59674 230.585368 20.59674 
C 228.005017 20.59674 225.530002 21.621925 223.705417 23.446509 
C 221.880833 25.271094 220.855648 27.746108 220.855648 30.32646 
C 220.855648 32.906812 221.880833 35.381827 223.705417 37.206411 
C 225.530002 39.030996 228.005017 40.05618 230.585368 40.05618 
z
" clip-path="url(#p35a3c73906)" style="fill: #cd5c5c; stroke: #000000; stroke-linejoin: miter"/>
   </g>
   <g id="patch_19">
    <path d="M 230.585403 7.623719 
C 233.165755 7.623719 235.64077 6.598534 237.465354 4.77395 
C 239.289939 2.949366 240.315123 0.474351 240.315123 -2.106001 
C 240.315123 -4.686353 239.289939 -7.161368 237.465354 -8.985952 
C 235.64077 -10.810536 233.165755 -11.835721 230.585403 -11.835721 
C 228.005052 -11.835721 225.530037 -10.810536 223.705452 -8.985952 
C 221.880868 -7.161368 220.855683 -4.686353 220.855683 -2.106001 
C 220.855683 0.474351 221.880868 2.949366 223.705452 4.77395 
C 225.530037 6.598534 228.005052 7.623719 230.585403 7.623719 
z
" clip-path="url(#p35a3c73906)" style="fill: #add8e6; stroke: #000000; stroke-linejoin: miter"/>
   </g>
   <g id="patch_20">
    <path d="M 230.585403 202.218127 
C 233.165755 202.218127 235.640769 201.192943 237.465354 199.368358 
C 239.289938 197.543774 240.315123 195.068759 240.315123 192.488407 
C 240.315123 189.908055 239.289938 187.433041 237.465354 185.608456 
C 235.640769 183.783872 233.165755 182.758687 230.585403 182.758687 
C 228.005051 182.758687 225.530036 183.783872 223.705452 185.608456 
C 221.880867 187.433041 220.855683 189.908055 220.855683 192.488407 
C 220.855683 195.068759 221.880867 197.543774 223.705452 199.368358 
C 225.530036 201.192943 228.005051 202.218127 230.585403 202.218127 
z
" clip-path="url(#p35a3c73906)" style="fill: #663399; stroke: #000000; stroke-linejoin: miter"/>
   </g>
   <g id="patch_21">
    <path d="M 230.585385 234.650545 
C 233.165737 234.650545 235.640751 233.625361 237.465336 231.800776 
C 239.28992 229.976192 240.315105 227.501177 240.315105 224.920825 
C 240.315105 222.340473 239.28992 219.865459 237.465336 218.040874 
C 235.640751 216.21629 233.165737 215.191105 230.585385 215.191105 
C 228.005033 215.191105 225.530018 216.21629 223.705434 218.040874 
C 221.880849 219.865459 220.855665 222.340473 220.855665 224.920825 
C 220.855665 227.501177 221.880849 229.976192 223.705434 231.800776 
C 225.530018 233.625361 228.005033 234.650545 230.585385 234.650545 
z
" clip-path="url(#p35a3c73906)" style="fill: #8fbc8f; stroke: #000000; stroke-linejoin: miter"/>
   </g>
   <g id="patch_22">
    <path d="M 230.585399 267.082913 
C 233.165751 267.082913 235.640766 266.057728 237.46535 264.233144 
C 239.289935 262.40856 240.315119 259.933545 240.315119 257.353193 
C 240.315119 254.772841 239.289935 252.297826 237.46535 250.473242 
C 235.640766 248.648658 233.165751 247.623473 230.585399 247.623473 
C 228.005048 247.623473 225.530033 248.648658 223.705448 250.473242 
C 221.880864 252.297826 220.855679 254.772841 220.855679 257.353193 
C 220.855679 259.933545 221.880864 262.40856 223.705448 264.233144 
C 225.530033 266.057728 228.005048 267.082913 230.585399 267.082913 
z
" clip-path="url(#p35a3c73906)" style="fill: #00ced1; stroke: #000000; stroke-linejoin: miter"/>
   </g>
   <g id="patch_23">
    <path d="M 165.720599 72.488487 
C 168.300951 72.488487 170.775966 71.463302 172.60055 69.638718 
C 174.425135 67.814134 175.450319 65.339119 175.450319 62.758767 
C 175.450319 60.178415 174.425135 57.7034 172.60055 55.878816 
C 170.775966 54.054232 168.300951 53.029047 165.720599 53.029047 
C 163.140247 53.029047 160.665233 54.054232 158.840648 55.878816 
C 157.016064 57.7034 155.990879 60.178415 155.990879 62.758767 
C 155.990879 65.339119 157.016064 67.814134 158.840648 69.638718 
C 160.665233 71.463302 163.140247 72.488487 165.720599 72.488487 
z
" clip-path="url(#p35a3c73906)" style="fill: #6a5acd; stroke: #000000; stroke-linejoin: miter"/>
   </g>
   <g id="patch_24">
    <path d="M 165.720603 40.056094 
C 168.300955 40.056094 170.77597 39.030909 172.600554 37.206325 
C 174.425138 35.38174 175.450323 32.906725 175.450323 30.326374 
C 175.450323 27.746022 174.425138 25.271007 172.600554 23.446423 
C 170.77597 21.621838 168.300955 20.596654 165.720603 20.596654 
C 163.140251 20.596654 160.665236 21.621838 158.840652 23.446423 
C 157.016068 25.271007 155.990883 27.746022 155.990883 30.326374 
C 155.990883 32.906725 157.016068 35.38174 158.840652 37.206325 
C 160.665236 39.030909 163.140251 40.056094 165.720603 40.056094 
z
" clip-path="url(#p35a3c73906)" style="fill: #808000; stroke: #000000; stroke-linejoin: miter"/>
   </g>
   <g id="patch_25">
    <path d="M 165.720593 7.623722 
C 168.300945 7.623722 170.77596 6.598537 172.600544 4.773953 
C 174.425129 2.949369 175.450313 0.474354 175.450313 -2.105998 
C 175.450313 -4.68635 174.425129 -7.161365 172.600544 -8.985949 
C 170.77596 -10.810533 168.300945 -11.835718 165.720593 -11.835718 
C 163.140241 -11.835718 160.665227 -10.810533 158.840642 -8.985949 
C 157.016058 -7.161365 155.990873 -4.68635 155.990873 -2.105998 
C 155.990873 0.474354 157.016058 2.949369 158.840642 4.773953 
C 160.665227 6.598537 163.140241 7.623722 165.720593 7.623722 
z
" clip-path="url(#p35a3c73906)" style="fill: #a0522d; stroke: #000000; stroke-linejoin: miter"/>
   </g>
   <g id="patch_26">
    <path d="M 165.720611 202.218172 
C 168.300963 202.218172 170.775978 201.192987 172.600562 199.368403 
C 174.425147 197.543818 175.450331 195.068803 175.450331 192.488452 
C 175.450331 189.9081 174.425147 187.433085 172.600562 185.608501 
C 170.775978 183.783916 168.300963 182.758732 165.720611 182.758732 
C 163.140259 182.758732 160.665245 183.783916 158.84066 185.608501 
C 157.016076 187.433085 155.990891 189.9081 155.990891 192.488452 
C 155.990891 195.068803 157.016076 197.543818 158.84066 199.368403 
C 160.665245 201.192987 163.140259 202.218172 165.720611 202.218172 
z
" clip-path="url(#p35a3c73906)" style="fill: #ff4500; stroke: #000000; stroke-linejoin: miter"/>
   </g>
   <g id="patch_27">
    <path d="M 165.720621 234.65051 
C 168.300973 234.65051 170.775987 233.625326 172.600572 231.800741 
C 174.425156 229.976157 175.450341 227.501142 175.450341 224.92079 
C 175.450341 222.340438 174.425156 219.865424 172.600572 218.040839 
C 170.775987 216.216255 168.300973 215.19107 165.720621 215.19107 
C 163.140269 215.19107 160.665254 216.216255 158.84067 218.040839 
C 157.016085 219.865424 155.990901 222.340438 155.990901 224.92079 
C 155.990901 227.501142 157.016085 229.976157 158.84067 231.800741 
C 160.665254 233.625326 163.140269 234.65051 165.720621 234.65051 
z
" clip-path="url(#p35a3c73906)" style="fill: #708090; stroke: #000000; stroke-linejoin: miter"/>
   </g>
   <g id="patch_28">
    <path d="M 165.720599 267.082918 
C 168.300951 267.082918 170.775966 266.057733 172.60055 264.233149 
C 174.425134 262.408564 175.450319 259.933549 175.450319 257.353198 
C 175.450319 254.772846 174.425134 252.297831 172.60055 250.473247 
C 170.775966 248.648662 168.300951 247.623478 165.720599 247.623478 
C 163.140247 247.623478 160.665232 248.648662 158.840648 250.473247 
C 157.016064 252.297831 155.990879 254.772846 155.990879 257.353198 
C 155.990879 259.933549 157.016064 262.408564 158.840648 264.233149 
C 160.665232 266.057733 163.140247 267.082918 165.720599 267.082918 
z
" clip-path="url(#p35a3c73906)" style="fill: #bdb76b; stroke: #000000; stroke-linejoin: miter"/>
   </g>
   <g id="line2d_59">
    <path d="M 263.0178 127.6236 
" clip-path="url(#p35a3c73906)" style="fill: none; stroke: #1f77b4; stroke-width: 1.5; stroke-linecap: square"/>
    <defs>
     <path id="m0401d98703" d="M 0 4.949747 
L 2.969848 0 
L 0 -4.949747 
L -2.969848 0 
z
" style="stroke: #000000; stroke-linejoin: miter"/>
    </defs>
    <g clip-path="url(#p35a3c73906)">
     <use xlink:href="#m0401d98703" x="263.0178" y="127.6236" style="fill: #1f77b4; stroke: #000000; stroke-linejoin: miter"/>
    </g>
   </g>
   <g id="line2d_60">
    <path d="M 263.0178 127.6236 
" clip-path="url(#p35a3c73906)" style="fill: none; stroke: #ff7f0e; stroke-width: 1.5; stroke-linecap: square"/>
    <defs>
     <path id="m99ac5e2111" d="M 0 4.949747 
L 2.969848 0 
L 0 -4.949747 
L -2.969848 0 
z
" style="stroke: #000000; stroke-linejoin: miter"/>
    </defs>
    <g clip-path="url(#p35a3c73906)">
     <use xlink:href="#m99ac5e2111" x="263.0178" y="127.6236" style="fill: #ff7f0e; stroke: #000000; stroke-linejoin: miter"/>
    </g>
   </g>
   <g id="line2d_61">
    <path d="M 133.2882 95.1912 
" clip-path="url(#p35a3c73906)" style="fill: none; stroke: #2ca02c; stroke-width: 1.5; stroke-linecap: square"/>
    <defs>
     <path id="m78a34c4dd9" d="M 0 4.949747 
L 2.969848 0 
L 0 -4.949747 
L -2.969848 0 
z
" style="stroke: #000000; stroke-linejoin: miter"/>
    </defs>
    <g clip-path="url(#p35a3c73906)">
     <use xlink:href="#m78a34c4dd9" x="133.2882" y="95.1912" style="fill: #2ca02c; stroke: #000000; stroke-linejoin: miter"/>
    </g>
   </g>
   <g id="line2d_62">
    <path d="M 165.7206 95.1912 
" clip-path="url(#p35a3c73906)" style="fill: none; stroke: #d62728; stroke-width: 1.5; stroke-linecap: square"/>
    <defs>
     <path id="m84d4be4797" d="M 0 4.949747 
L 2.969848 0 
L 0 -4.949747 
L -2.969848 0 
z
" style="stroke: #000000; stroke-linejoin: miter"/>
    </defs>
    <g clip-path="url(#p35a3c73906)">
     <use xlink:href="#m84d4be4797" x="165.7206" y="95.1912" style="fill: #d62728; stroke: #000000; stroke-linejoin: miter"/>
    </g>
   </g>
   <g id="line2d_63">
    <path d="M 230.5854 95.1912 
" clip-path="url(#p35a3c73906)" style="fill: none; stroke: #9467bd; stroke-width: 1.5; stroke-linecap: square"/>
    <defs>
     <path id="m4135bb760c" d="M 0 4.949747 
L 2.969848 0 
L 0 -4.949747 
L -2.969848 0 
z
" style="stroke: #000000; stroke-linejoin: miter"/>
    </defs>
    <g clip-path="url(#p35a3c73906)">
     <use xlink:href="#m4135bb760c" x="230.5854" y="95.1912" style="fill: #9467bd; stroke: #000000; stroke-linejoin: miter"/>
    </g>
   </g>
   <g id="line2d_64">
    <path d="M 263.0178 95.1912 
" clip-path="url(#p35a3c73906)" style="fill: none; stroke: #8c564b; stroke-width: 1.5; stroke-linecap: square"/>
    <defs>
     <path id="m3d7dc40e29" d="M 0 4.949747 
L 2.969848 0 
L 0 -4.949747 
L -2.969848 0 
z
" style="stroke: #000000; stroke-linejoin: miter"/>
    </defs>
    <g clip-path="url(#p35a3c73906)">
     <use xlink:href="#m3d7dc40e29" x="263.0178" y="95.1912" style="fill: #8c564b; stroke: #000000; stroke-linejoin: miter"/>
    </g>
   </g>
   <g id="line2d_65">
    <path d="M 133.2882 160.056 
" clip-path="url(#p35a3c73906)" style="fill: none; stroke: #e377c2; stroke-width: 1.5; stroke-linecap: square"/>
    <defs>
     <path id="mbf8bda5a89" d="M 0 4.949747 
L 2.969848 0 
L 0 -4.949747 
L -2.969848 0 
z
" style="stroke: #000000; stroke-linejoin: miter"/>
    </defs>
    <g clip-path="url(#p35a3c73906)">
     <use xlink:href="#mbf8bda5a89" x="133.2882" y="160.056" style="fill: #e377c2; stroke: #000000; stroke-linejoin: miter"/>
    </g>
   </g>
   <g id="line2d_66">
    <path d="M 165.7206 160.056 
" clip-path="url(#p35a3c73906)" style="fill: none; stroke: #7f7f7f; stroke-width: 1.5; stroke-linecap: square"/>
    <defs>
     <path id="maf7c04f96b" d="M 0 4.949747 
L 2.969848 0 
L 0 -4.949747 
L -2.969848 0 
z
" style="stroke: #000000; stroke-linejoin: miter"/>
    </defs>
    <g clip-path="url(#p35a3c73906)">
     <use xlink:href="#maf7c04f96b" x="165.7206" y="160.056" style="fill: #7f7f7f; stroke: #000000; stroke-linejoin: miter"/>
    </g>
   </g>
   <g id="line2d_67">
    <path d="M 230.5854 160.056 
" clip-path="url(#p35a3c73906)" style="fill: none; stroke: #bcbd22; stroke-width: 1.5; stroke-linecap: square"/>
    <defs>
     <path id="m00a35434ae" d="M 0 4.949747 
L 2.969848 0 
L 0 -4.949747 
L -2.969848 0 
z
" style="stroke: #000000; stroke-linejoin: miter"/>
    </defs>
    <g clip-path="url(#p35a3c73906)">
     <use xlink:href="#m00a35434ae" x="230.5854" y="160.056" style="fill: #bcbd22; stroke: #000000; stroke-linejoin: miter"/>
    </g>
   </g>
   <g id="line2d_68">
    <path d="M 263.0178 160.056 
" clip-path="url(#p35a3c73906)" style="fill: none; stroke: #17becf; stroke-width: 1.5; stroke-linecap: square"/>
    <defs>
     <path id="me161e702fe" d="M 0 4.949747 
L 2.969848 0 
L 0 -4.949747 
L -2.969848 0 
z
" style="stroke: #000000; stroke-linejoin: miter"/>
    </defs>
    <g clip-path="url(#p35a3c73906)">
     <use xlink:href="#me161e702fe" x="263.0178" y="160.056" style="fill: #17becf; stroke: #000000; stroke-linejoin: miter"/>
    </g>
   </g>
   <g id="line2d_69">
    <path d="M 230.5854 62.7588 
" clip-path="url(#p35a3c73906)" style="fill: none; stroke: #2f4f4f; stroke-width: 1.5; stroke-linecap: square"/>
    <defs>
     <path id="m55aae802d4" d="M 0 4.949747 
L 2.969848 0 
L 0 -4.949747 
L -2.969848 0 
z
" style="stroke: #000000; stroke-linejoin: miter"/>
    </defs>
    <g clip-path="url(#p35a3c73906)">
     <use xlink:href="#m55aae802d4" x="230.5854" y="62.7588" style="fill: #2f4f4f; stroke: #000000; stroke-linejoin: miter"/>
    </g>
   </g>
   <g id="line2d_70">
    <path d="M 230.5854 30.3264 
" clip-path="url(#p35a3c73906)" style="fill: none; stroke: #cd5c5c; stroke-width: 1.5; stroke-linecap: square"/>
    <defs>
     <path id="mb476033a3b" d="M 0 4.949747 
L 2.969848 0 
L 0 -4.949747 
L -2.969848 0 
z
" style="stroke: #000000; stroke-linejoin: miter"/>
    </defs>
    <g clip-path="url(#p35a3c73906)">
     <use xlink:href="#mb476033a3b" x="230.5854" y="30.3264" style="fill: #cd5c5c; stroke: #000000; stroke-linejoin: miter"/>
    </g>
   </g>
   <g id="line2d_71">
    <path clip-path="url(#p35a3c73906)" style="fill: none; stroke: #add8e6; stroke-width: 1.5; stroke-linecap: square"/>
    <defs>
     <path id="ma7ed0db3da" d="M 0 4.949747 
L 2.969848 0 
L 0 -4.949747 
L -2.969848 0 
z
" style="stroke: #000000; stroke-linejoin: miter"/>
    </defs>
    <g clip-path="url(#p35a3c73906)"/>
   </g>
   <g id="line2d_72">
    <path d="M 230.5854 192.4884 
" clip-path="url(#p35a3c73906)" style="fill: none; stroke: #663399; stroke-width: 1.5; stroke-linecap: square"/>
    <defs>
     <path id="m08ec414ddb" d="M 0 4.949747 
L 2.969848 0 
L 0 -4.949747 
L -2.969848 0 
z
" style="stroke: #000000; stroke-linejoin: miter"/>
    </defs>
    <g clip-path="url(#p35a3c73906)">
     <use xlink:href="#m08ec414ddb" x="230.5854" y="192.4884" style="fill: #663399; stroke: #000000; stroke-linejoin: miter"/>
    </g>
   </g>
   <g id="line2d_73">
    <path d="M 230.5854 224.9208 
" clip-path="url(#p35a3c73906)" style="fill: none; stroke: #8fbc8f; stroke-width: 1.5; stroke-linecap: square"/>
    <defs>
     <path id="mcb0de2a168" d="M 0 4.949747 
L 2.969848 0 
L 0 -4.949747 
L -2.969848 0 
z
" style="stroke: #000000; stroke-linejoin: miter"/>
    </defs>
    <g clip-path="url(#p35a3c73906)">
     <use xlink:href="#mcb0de2a168" x="230.5854" y="224.9208" style="fill: #8fbc8f; stroke: #000000; stroke-linejoin: miter"/>
    </g>
   </g>
   <g id="line2d_74">
    <path clip-path="url(#p35a3c73906)" style="fill: none; stroke: #00ced1; stroke-width: 1.5; stroke-linecap: square"/>
    <defs>
     <path id="md99225fb63" d="M 0 4.949747 
L 2.969848 0 
L 0 -4.949747 
L -2.969848 0 
z
" style="stroke: #000000; stroke-linejoin: miter"/>
    </defs>
    <g clip-path="url(#p35a3c73906)">
     <use xlink:href="#md99225fb63" x="230.5854" y="257.3532" style="fill: #00ced1; stroke: #000000; stroke-linejoin: miter"/>
    </g>
   </g>
   <g id="line2d_75">
    <path d="M 165.7206 62.7588 
" clip-path="url(#p35a3c73906)" style="fill: none; stroke: #6a5acd; stroke-width: 1.5; stroke-linecap: square"/>
    <defs>
     <path id="ma1b8d3edfd" d="M 0 4.949747 
L 2.969848 0 
L 0 -4.949747 
L -2.969848 0 
z
" style="stroke: #000000; stroke-linejoin: miter"/>
    </defs>
    <g clip-path="url(#p35a3c73906)">
     <use xlink:href="#ma1b8d3edfd" x="165.7206" y="62.7588" style="fill: #6a5acd; stroke: #000000; stroke-linejoin: miter"/>
    </g>
   </g>
   <g id="line2d_76">
    <path d="M 165.7206 30.3264 
" clip-path="url(#p35a3c73906)" style="fill: none; stroke: #808000; stroke-width: 1.5; stroke-linecap: square"/>
    <defs>
     <path id="m078f3bb38c" d="M 0 4.949747 
L 2.969848 0 
L 0 -4.949747 
L -2.969848 0 
z
" style="stroke: #000000; stroke-linejoin: miter"/>
    </defs>
    <g clip-path="url(#p35a3c73906)">
     <use xlink:href="#m078f3bb38c" x="165.7206" y="30.3264" style="fill: #808000; stroke: #000000; stroke-linejoin: miter"/>
    </g>
   </g>
   <g id="line2d_77">
    <path clip-path="url(#p35a3c73906)" style="fill: none; stroke: #a0522d; stroke-width: 1.5; stroke-linecap: square"/>
    <defs>
     <path id="mac327547c7" d="M 0 4.949747 
L 2.969848 0 
L 0 -4.949747 
L -2.969848 0 
z
" style="stroke: #000000; stroke-linejoin: miter"/>
    </defs>
    <g clip-path="url(#p35a3c73906)"/>
   </g>
   <g id="line2d_78">
    <path d="M 165.7206 192.4884 
" clip-path="url(#p35a3c73906)" style="fill: none; stroke: #ff4500; stroke-width: 1.5; stroke-linecap: square"/>
    <defs>
     <path id="m1b5846bf16" d="M 0 4.949747 
L 2.969848 0 
L 0 -4.949747 
L -2.969848 0 
z
" style="stroke: #000000; stroke-linejoin: miter"/>
    </defs>
    <g clip-path="url(#p35a3c73906)">
     <use xlink:href="#m1b5846bf16" x="165.7206" y="192.4884" style="fill: #ff4500; stroke: #000000; stroke-linejoin: miter"/>
    </g>
   </g>
   <g id="line2d_79">
    <path d="M 165.7206 224.9208 
" clip-path="url(#p35a3c73906)" style="fill: none; stroke: #708090; stroke-width: 1.5; stroke-linecap: square"/>
    <defs>
     <path id="m924a26c159" d="M 0 4.949747 
L 2.969848 0 
L 0 -4.949747 
L -2.969848 0 
z
" style="stroke: #000000; stroke-linejoin: miter"/>
    </defs>
    <g clip-path="url(#p35a3c73906)">
     <use xlink:href="#m924a26c159" x="165.7206" y="224.9208" style="fill: #708090; stroke: #000000; stroke-linejoin: miter"/>
    </g>
   </g>
   <g id="line2d_80">
    <path clip-path="url(#p35a3c73906)" style="fill: none; stroke: #bdb76b; stroke-width: 1.5; stroke-linecap: square"/>
    <defs>
     <path id="m9c8e9fda82" d="M 0 4.949747 
L 2.969848 0 
L 0 -4.949747 
L -2.969848 0 
z
" style="stroke: #000000; stroke-linejoin: miter"/>
    </defs>
    <g clip-path="url(#p35a3c73906)">
     <use xlink:href="#m9c8e9fda82" x="165.7206" y="257.3532" style="fill: #bdb76b; stroke: #000000; stroke-linejoin: miter"/>
    </g>
   </g>
  </g>
 </g>
 <defs>
  <clipPath id="p35a3c73906">
   <rect x="100.8558" y="30.3264" width="194.5944" height="194.5944"/>
  </clipPath>
 </defs>
</svg>
