<?xml version="1.0" encoding="utf-8" standalone="no"?>
<!DOCTYPE svg PUBLIC "-//W3C//DTD SVG 1.1//EN"
  "http://www.w3.org/Graphics/SVG/1.1/DTD/svg11.dtd">
<svg xmlns:xlink="http://www.w3.org/1999/xlink" width="386.64pt" height="252.72pt" viewBox="0 0 386.64 252.72" xmlns="http://www.w3.org/2000/svg" version="1.1">
 <metadata>
  <rdf:RDF xmlns:dc="http://purl.org/dc/elements/1.1/" xmlns:cc="http://creativecommons.org/ns#" xmlns:rdf="http://www.w3.org/1999/02/22-rdf-syntax-ns#">
   <cc:Work>
    <dc:type rdf:resource="http://purl.org/dc/dcmitype/StillImage"/>
    <dc:date>2023-07-11T22:26:53.244232</dc:date>
    <dc:format>image/svg+xml</dc:format>
    <dc:creator>
     <cc:Agent>
      <dc:title>Matplotlib v3.6.2, https://matplotlib.org/</dc:title>
     </cc:Agent>
    </dc:creator>
   </cc:Work>
  </rdf:RDF>
 </metadata>
 <defs>
  <style type="text/css">*{stroke-linejoin: round; stroke-linecap: butt}</style>
 </defs>
 <g id="figure_1">
  <g id="patch_1">
   <path d="M 0 252.72 
L 386.64 252.72 
L 386.64 0 
L 0 0 
z
" style="fill: #ffffff"/>
  </g>
  <g id="axes_1">
   <g id="patch_2">
    <path d="M 100.8558 224.9208 
L 295.4502 224.9208 
L 295.4502 30.3264 
L 100.8558 30.3264 
z
" style="fill: #ffffff"/>
   </g>
   <g id="matplotlib.axis_1">
    <g id="xtick_1">
     <g id="line2d_1">
      <defs>
       <path id="mbb8e9001df" d="M 0 0 
L 0 3.5 
" style="stroke: #000000; stroke-width: 0.8"/>
      </defs>
      <g>
       <use xlink:href="#mbb8e9001df" x="100.8558" y="224.9208" style="stroke: #000000; stroke-width: 0.8"/>
      </g>
     </g>
     <g id="text_1">
      <!-- −0.5 -->
      <g transform="translate(88.714394 239.519237) scale(0.1 -0.1)">
       <defs>
        <path id="DejaVuSans-2212" d="M 678 2272 
L 4684 2272 
L 4684 1741 
L 678 1741 
L 678 2272 
z
" transform="scale(0.015625)"/>
        <path id="DejaVuSans-30" d="M 2034 4250 
Q 1547 4250 1301 3770 
Q 1056 3291 1056 2328 
Q 1056 1369 1301 889 
Q 1547 409 2034 409 
Q 2525 409 2770 889 
Q 3016 1369 3016 2328 
Q 3016 3291 2770 3770 
Q 2525 4250 2034 4250 
z
M 2034 4750 
Q 2819 4750 3233 4129 
Q 3647 3509 3647 2328 
Q 3647 1150 3233 529 
Q 2819 -91 2034 -91 
Q 1250 -91 836 529 
Q 422 1150 422 2328 
Q 422 3509 836 4129 
Q 1250 4750 2034 4750 
z
" transform="scale(0.015625)"/>
        <path id="DejaVuSans-2e" d="M 684 794 
L 1344 794 
L 1344 0 
L 684 0 
L 684 794 
z
" transform="scale(0.015625)"/>
        <path id="DejaVuSans-35" d="M 691 4666 
L 3169 4666 
L 3169 4134 
L 1269 4134 
L 1269 2991 
Q 1406 3038 1543 3061 
Q 1681 3084 1819 3084 
Q 2600 3084 3056 2656 
Q 3513 2228 3513 1497 
Q 3513 744 3044 326 
Q 2575 -91 1722 -91 
Q 1428 -91 1123 -41 
Q 819 9 494 109 
L 494 744 
Q 775 591 1075 516 
Q 1375 441 1709 441 
Q 2250 441 2565 725 
Q 2881 1009 2881 1497 
Q 2881 1984 2565 2268 
Q 2250 2553 1709 2553 
Q 1456 2553 1204 2497 
Q 953 2441 691 2322 
L 691 4666 
z
" transform="scale(0.015625)"/>
       </defs>
       <use xlink:href="#DejaVuSans-2212"/>
       <use xlink:href="#DejaVuSans-30" x="83.789062"/>
       <use xlink:href="#DejaVuSans-2e" x="147.412109"/>
       <use xlink:href="#DejaVuSans-35" x="179.199219"/>
      </g>
     </g>
    </g>
    <g id="xtick_2">
     <g id="line2d_2">
      <g>
       <use xlink:href="#mbb8e9001df" x="133.2882" y="224.9208" style="stroke: #000000; stroke-width: 0.8"/>
      </g>
     </g>
     <g id="text_2">
      <!-- 0.0 -->
      <g transform="translate(125.336638 239.519237) scale(0.1 -0.1)">
       <use xlink:href="#DejaVuSans-30"/>
       <use xlink:href="#DejaVuSans-2e" x="63.623047"/>
       <use xlink:href="#DejaVuSans-30" x="95.410156"/>
      </g>
     </g>
    </g>
    <g id="xtick_3">
     <g id="line2d_3">
      <g>
       <use xlink:href="#mbb8e9001df" x="165.7206" y="224.9208" style="stroke: #000000; stroke-width: 0.8"/>
      </g>
     </g>
     <g id="text_3">
      <!-- 0.5 -->
      <g transform="translate(157.769037 239.519237) scale(0.1 -0.1)">
       <use xlink:href="#DejaVuSans-30"/>
       <use xlink:href="#DejaVuSans-2e" x="63.623047"/>
       <use xlink:href="#DejaVuSans-35" x="95.410156"/>
      </g>
     </g>
    </g>
    <g id="xtick_4">
     <g id="line2d_4">
      <g>
       <use xlink:href="#mbb8e9001df" x="198.153" y="224.9208" style="stroke: #000000; stroke-width: 0.8"/>
      </g>
     </g>
     <g id="text_4">
      <!-- 1.0 -->
      <g transform="translate(190.201437 239.519237) scale(0.1 -0.1)">
       <defs>
        <path id="DejaVuSans-31" d="M 794 531 
L 1825 531 
L 1825 4091 
L 703 3866 
L 703 4441 
L 1819 4666 
L 2450 4666 
L 2450 531 
L 3481 531 
L 3481 0 
L 794 0 
L 794 531 
z
" transform="scale(0.015625)"/>
       </defs>
       <use xlink:href="#DejaVuSans-31"/>
       <use xlink:href="#DejaVuSans-2e" x="63.623047"/>
       <use xlink:href="#DejaVuSans-30" x="95.410156"/>
      </g>
     </g>
    </g>
    <g id="xtick_5">
     <g id="line2d_5">
      <g>
       <use xlink:href="#mbb8e9001df" x="230.5854" y="224.9208" style="stroke: #000000; stroke-width: 0.8"/>
      </g>
     </g>
     <g id="text_5">
      <!-- 1.5 -->
      <g transform="translate(222.633837 239.519237) scale(0.1 -0.1)">
       <use xlink:href="#DejaVuSans-31"/>
       <use xlink:href="#DejaVuSans-2e" x="63.623047"/>
       <use xlink:href="#DejaVuSans-35" x="95.410156"/>
      </g>
     </g>
    </g>
    <g id="xtick_6">
     <g id="line2d_6">
      <g>
       <use xlink:href="#mbb8e9001df" x="263.0178" y="224.9208" style="stroke: #000000; stroke-width: 0.8"/>
      </g>
     </g>
     <g id="text_6">
      <!-- 2.0 -->
      <g transform="translate(255.066237 239.519237) scale(0.1 -0.1)">
       <defs>
        <path id="DejaVuSans-32" d="M 1228 531 
L 3431 531 
L 3431 0 
L 469 0 
L 469 531 
Q 828 903 1448 1529 
Q 2069 2156 2228 2338 
Q 2531 2678 2651 2914 
Q 2772 3150 2772 3378 
Q 2772 3750 2511 3984 
Q 2250 4219 1831 4219 
Q 1534 4219 1204 4116 
Q 875 4013 500 3803 
L 500 4441 
Q 881 4594 1212 4672 
Q 1544 4750 1819 4750 
Q 2544 4750 2975 4387 
Q 3406 4025 3406 3419 
Q 3406 3131 3298 2873 
Q 3191 2616 2906 2266 
Q 2828 2175 2409 1742 
Q 1991 1309 1228 531 
z
" transform="scale(0.015625)"/>
       </defs>
       <use xlink:href="#DejaVuSans-32"/>
       <use xlink:href="#DejaVuSans-2e" x="63.623047"/>
       <use xlink:href="#DejaVuSans-30" x="95.410156"/>
      </g>
     </g>
    </g>
    <g id="xtick_7">
     <g id="line2d_7">
      <g>
       <use xlink:href="#mbb8e9001df" x="295.4502" y="224.9208" style="stroke: #000000; stroke-width: 0.8"/>
      </g>
     </g>
     <g id="text_7">
      <!-- 2.5 -->
      <g transform="translate(287.498637 239.519237) scale(0.1 -0.1)">
       <use xlink:href="#DejaVuSans-32"/>
       <use xlink:href="#DejaVuSans-2e" x="63.623047"/>
       <use xlink:href="#DejaVuSans-35" x="95.410156"/>
      </g>
     </g>
    </g>
    <g id="text_8">
     <!-- x(m) -->
     <g transform="translate(186.42175 253.197362) scale(0.1 -0.1)">
      <defs>
       <path id="DejaVuSans-78" d="M 3513 3500 
L 2247 1797 
L 3578 0 
L 2900 0 
L 1881 1375 
L 863 0 
L 184 0 
L 1544 1831 
L 300 3500 
L 978 3500 
L 1906 2253 
L 2834 3500 
L 3513 3500 
z
" transform="scale(0.015625)"/>
       <path id="DejaVuSans-28" d="M 1984 4856 
Q 1566 4138 1362 3434 
Q 1159 2731 1159 2009 
Q 1159 1288 1364 580 
Q 1569 -128 1984 -844 
L 1484 -844 
Q 1016 -109 783 600 
Q 550 1309 550 2009 
Q 550 2706 781 3412 
Q 1013 4119 1484 4856 
L 1984 4856 
z
" transform="scale(0.015625)"/>
       <path id="DejaVuSans-6d" d="M 3328 2828 
Q 3544 3216 3844 3400 
Q 4144 3584 4550 3584 
Q 5097 3584 5394 3201 
Q 5691 2819 5691 2113 
L 5691 0 
L 5113 0 
L 5113 2094 
Q 5113 2597 4934 2840 
Q 4756 3084 4391 3084 
Q 3944 3084 3684 2787 
Q 3425 2491 3425 1978 
L 3425 0 
L 2847 0 
L 2847 2094 
Q 2847 2600 2669 2842 
Q 2491 3084 2119 3084 
Q 1678 3084 1418 2786 
Q 1159 2488 1159 1978 
L 1159 0 
L 581 0 
L 581 3500 
L 1159 3500 
L 1159 2956 
Q 1356 3278 1631 3431 
Q 1906 3584 2284 3584 
Q 2666 3584 2933 3390 
Q 3200 3197 3328 2828 
z
" transform="scale(0.015625)"/>
       <path id="DejaVuSans-29" d="M 513 4856 
L 1013 4856 
Q 1481 4119 1714 3412 
Q 1947 2706 1947 2009 
Q 1947 1309 1714 600 
Q 1481 -109 1013 -844 
L 513 -844 
Q 928 -128 1133 580 
Q 1338 1288 1338 2009 
Q 1338 2731 1133 3434 
Q 928 4138 513 4856 
z
" transform="scale(0.015625)"/>
      </defs>
      <use xlink:href="#DejaVuSans-78"/>
      <use xlink:href="#DejaVuSans-28" x="59.179688"/>
      <use xlink:href="#DejaVuSans-6d" x="98.193359"/>
      <use xlink:href="#DejaVuSans-29" x="195.605469"/>
     </g>
    </g>
   </g>
   <g id="matplotlib.axis_2">
    <g id="ytick_1">
     <g id="line2d_8">
      <defs>
       <path id="m5f2c325166" d="M 0 0 
L -3.5 0 
" style="stroke: #000000; stroke-width: 0.8"/>
      </defs>
      <g>
       <use xlink:href="#m5f2c325166" x="100.8558" y="224.9208" style="stroke: #000000; stroke-width: 0.8"/>
      </g>
     </g>
     <g id="text_9">
      <!-- −0.5 -->
      <g transform="translate(69.572988 228.720019) scale(0.1 -0.1)">
       <use xlink:href="#DejaVuSans-2212"/>
       <use xlink:href="#DejaVuSans-30" x="83.789062"/>
       <use xlink:href="#DejaVuSans-2e" x="147.412109"/>
       <use xlink:href="#DejaVuSans-35" x="179.199219"/>
      </g>
     </g>
    </g>
    <g id="ytick_2">
     <g id="line2d_9">
      <g>
       <use xlink:href="#m5f2c325166" x="100.8558" y="192.4884" style="stroke: #000000; stroke-width: 0.8"/>
      </g>
     </g>
     <g id="text_10">
      <!-- 0.0 -->
      <g transform="translate(77.952675 196.287619) scale(0.1 -0.1)">
       <use xlink:href="#DejaVuSans-30"/>
       <use xlink:href="#DejaVuSans-2e" x="63.623047"/>
       <use xlink:href="#DejaVuSans-30" x="95.410156"/>
      </g>
     </g>
    </g>
    <g id="ytick_3">
     <g id="line2d_10">
      <g>
       <use xlink:href="#m5f2c325166" x="100.8558" y="160.056" style="stroke: #000000; stroke-width: 0.8"/>
      </g>
     </g>
     <g id="text_11">
      <!-- 0.5 -->
      <g transform="translate(77.952675 163.855219) scale(0.1 -0.1)">
       <use xlink:href="#DejaVuSans-30"/>
       <use xlink:href="#DejaVuSans-2e" x="63.623047"/>
       <use xlink:href="#DejaVuSans-35" x="95.410156"/>
      </g>
     </g>
    </g>
    <g id="ytick_4">
     <g id="line2d_11">
      <g>
       <use xlink:href="#m5f2c325166" x="100.8558" y="127.6236" style="stroke: #000000; stroke-width: 0.8"/>
      </g>
     </g>
     <g id="text_12">
      <!-- 1.0 -->
      <g transform="translate(77.952675 131.422819) scale(0.1 -0.1)">
       <use xlink:href="#DejaVuSans-31"/>
       <use xlink:href="#DejaVuSans-2e" x="63.623047"/>
       <use xlink:href="#DejaVuSans-30" x="95.410156"/>
      </g>
     </g>
    </g>
    <g id="ytick_5">
     <g id="line2d_12">
      <g>
       <use xlink:href="#m5f2c325166" x="100.8558" y="95.1912" style="stroke: #000000; stroke-width: 0.8"/>
      </g>
     </g>
     <g id="text_13">
      <!-- 1.5 -->
      <g transform="translate(77.952675 98.990419) scale(0.1 -0.1)">
       <use xlink:href="#DejaVuSans-31"/>
       <use xlink:href="#DejaVuSans-2e" x="63.623047"/>
       <use xlink:href="#DejaVuSans-35" x="95.410156"/>
      </g>
     </g>
    </g>
    <g id="ytick_6">
     <g id="line2d_13">
      <g>
       <use xlink:href="#m5f2c325166" x="100.8558" y="62.7588" style="stroke: #000000; stroke-width: 0.8"/>
      </g>
     </g>
     <g id="text_14">
      <!-- 2.0 -->
      <g transform="translate(77.952675 66.558019) scale(0.1 -0.1)">
       <use xlink:href="#DejaVuSans-32"/>
       <use xlink:href="#DejaVuSans-2e" x="63.623047"/>
       <use xlink:href="#DejaVuSans-30" x="95.410156"/>
      </g>
     </g>
    </g>
    <g id="ytick_7">
     <g id="line2d_14">
      <g>
       <use xlink:href="#m5f2c325166" x="100.8558" y="30.3264" style="stroke: #000000; stroke-width: 0.8"/>
      </g>
     </g>
     <g id="text_15">
      <!-- 2.5 -->
      <g transform="translate(77.952675 34.125619) scale(0.1 -0.1)">
       <use xlink:href="#DejaVuSans-32"/>
       <use xlink:href="#DejaVuSans-2e" x="63.623047"/>
       <use xlink:href="#DejaVuSans-35" x="95.410156"/>
      </g>
     </g>
    </g>
    <g id="text_16">
     <!-- y(m) -->
     <g transform="translate(63.4933 139.35485) rotate(-90) scale(0.1 -0.1)">
      <defs>
       <path id="DejaVuSans-79" d="M 2059 -325 
Q 1816 -950 1584 -1140 
Q 1353 -1331 966 -1331 
L 506 -1331 
L 506 -850 
L 844 -850 
Q 1081 -850 1212 -737 
Q 1344 -625 1503 -206 
L 1606 56 
L 191 3500 
L 800 3500 
L 1894 763 
L 2988 3500 
L 3597 3500 
L 2059 -325 
z
" transform="scale(0.015625)"/>
      </defs>
      <use xlink:href="#DejaVuSans-79"/>
      <use xlink:href="#DejaVuSans-28" x="59.179688"/>
      <use xlink:href="#DejaVuSans-6d" x="98.193359"/>
      <use xlink:href="#DejaVuSans-29" x="195.605469"/>
     </g>
    </g>
   </g>
   <g id="line2d_15">
    <path d="M 133.2882 127.6236 
L 133.2882 127.6236 
L 133.2882 127.6236 
L 133.2882 127.6236 
L 133.2882 127.6236 
L 133.2882 127.6236 
L 133.2882 127.6236 
L 133.2882 127.6236 
L 133.2882 127.6236 
L 133.2882 127.6236 
L 133.2882 127.6236 
L 133.2882 127.6236 
L 133.2882 127.6236 
" clip-path="url(#p253147261e)" style="fill: none; stroke-dasharray: 2,3.3; stroke-dashoffset: 0; stroke: #1f77b4; stroke-width: 2"/>
   </g>
   <g id="line2d_16">
    <path d="M 133.2882 127.6236 
L 133.2882 127.6236 
" clip-path="url(#p253147261e)" style="fill: none; stroke: #1f77b4; stroke-width: 2; stroke-linecap: square"/>
   </g>
   <g id="line2d_17">
    <path d="M 198.153 205.46136 
L 198.153 205.46136 
L 198.153 205.46136 
L 198.153 205.46136 
L 198.153 205.46136 
L 198.153 205.46136 
L 198.153 205.46136 
L 198.153 205.46136 
L 198.153 205.46136 
L 198.153 205.46136 
L 198.153 205.46136 
L 198.153 205.46136 
L 198.153 205.46136 
" clip-path="url(#p253147261e)" style="fill: none; stroke-dasharray: 2,3.3; stroke-dashoffset: 0; stroke: #ff7f0e; stroke-width: 2"/>
   </g>
   <g id="line2d_18">
    <path d="M 198.153 205.46136 
L 198.153 205.46136 
" clip-path="url(#p253147261e)" style="fill: none; stroke: #ff7f0e; stroke-width: 2; stroke-linecap: square"/>
   </g>
   <g id="line2d_19">
    <path d="M 133.2882 95.1912 
L 133.2882 95.1912 
L 133.2882 95.1912 
L 133.2882 95.1912 
L 133.2882 95.1912 
L 133.2882 95.1912 
L 133.2882 95.1912 
L 133.2882 95.1912 
L 133.2882 95.1912 
L 133.2882 95.1912 
L 133.2882 95.1912 
L 133.2882 95.1912 
L 133.2882 95.1912 
" clip-path="url(#p253147261e)" style="fill: none; stroke-dasharray: 2,3.3; stroke-dashoffset: 0; stroke: #2ca02c; stroke-width: 2"/>
   </g>
   <g id="line2d_20">
    <path d="M 133.2882 95.1912 
L 133.2882 95.1912 
" clip-path="url(#p253147261e)" style="fill: none; stroke: #2ca02c; stroke-width: 2; stroke-linecap: square"/>
   </g>
   <g id="line2d_21">
    <path d="M 165.7206 95.1912 
L 165.7206 95.1912 
L 165.7206 95.1912 
L 165.7206 95.1912 
L 165.7206 95.1912 
L 165.7206 95.1912 
L 165.7206 95.1912 
L 165.7206 95.1912 
L 165.7206 95.1912 
L 165.7206 95.1912 
L 165.7206 95.1912 
L 165.7206 95.1912 
L 165.7206 95.1912 
" clip-path="url(#p253147261e)" style="fill: none; stroke-dasharray: 2,3.3; stroke-dashoffset: 0; stroke: #d62728; stroke-width: 2"/>
   </g>
   <g id="line2d_22">
    <path d="M 165.7206 95.1912 
L 165.7206 95.1912 
" clip-path="url(#p253147261e)" style="fill: none; stroke: #d62728; stroke-width: 2; stroke-linecap: square"/>
   </g>
   <g id="line2d_23">
    <path d="M 230.5854 95.1912 
L 230.5854 95.1912 
L 230.5854 95.1912 
L 230.5854 95.1912 
L 230.5854 95.1912 
L 230.5854 95.1912 
L 230.5854 95.1912 
L 230.5854 95.1912 
L 230.5854 95.1912 
L 230.5854 95.1912 
L 230.5854 95.1912 
L 230.5854 95.1912 
L 230.5854 95.1912 
" clip-path="url(#p253147261e)" style="fill: none; stroke-dasharray: 2,3.3; stroke-dashoffset: 0; stroke: #9467bd; stroke-width: 2"/>
   </g>
   <g id="line2d_24">
    <path d="M 230.5854 95.1912 
L 230.5854 95.1912 
" clip-path="url(#p253147261e)" style="fill: none; stroke: #9467bd; stroke-width: 2; stroke-linecap: square"/>
   </g>
   <g id="line2d_25">
    <path d="M 263.0178 95.1912 
L 263.0178 95.1912 
L 263.0178 95.1912 
L 263.0178 95.1912 
L 263.0178 95.1912 
L 263.0178 95.1912 
L 263.0178 95.1912 
L 263.0178 95.1912 
L 263.0178 95.1912 
L 263.0178 95.1912 
L 263.0178 95.1912 
L 263.0178 95.1912 
L 263.0178 95.1912 
" clip-path="url(#p253147261e)" style="fill: none; stroke-dasharray: 2,3.3; stroke-dashoffset: 0; stroke: #8c564b; stroke-width: 2"/>
   </g>
   <g id="line2d_26">
    <path d="M 263.0178 95.1912 
L 263.0178 95.1912 
" clip-path="url(#p253147261e)" style="fill: none; stroke: #8c564b; stroke-width: 2; stroke-linecap: square"/>
   </g>
   <g id="line2d_27">
    <path d="M 133.2882 160.056 
L 133.2882 160.056 
L 133.2882 160.056 
L 133.2882 160.056 
L 133.2882 160.056 
L 133.2882 160.056 
L 133.2882 160.056 
L 133.2882 160.056 
L 133.2882 160.056 
L 133.2882 160.056 
L 133.2882 160.056 
L 133.2882 160.056 
L 133.2882 160.056 
" clip-path="url(#p253147261e)" style="fill: none; stroke-dasharray: 2,3.3; stroke-dashoffset: 0; stroke: #e377c2; stroke-width: 2"/>
   </g>
   <g id="line2d_28">
    <path d="M 133.2882 160.056 
L 133.2882 160.056 
" clip-path="url(#p253147261e)" style="fill: none; stroke: #e377c2; stroke-width: 2; stroke-linecap: square"/>
   </g>
   <g id="line2d_29">
    <path d="M 165.7206 160.056 
L 165.7206 160.056 
L 165.7206 160.056 
L 165.7206 160.056 
L 165.7206 160.056 
L 165.7206 160.056 
L 165.7206 160.056 
L 165.7206 160.056 
L 165.7206 160.056 
L 165.7206 160.056 
L 165.7206 160.056 
L 165.7206 160.056 
L 165.7206 160.056 
" clip-path="url(#p253147261e)" style="fill: none; stroke-dasharray: 2,3.3; stroke-dashoffset: 0; stroke: #7f7f7f; stroke-width: 2"/>
   </g>
   <g id="line2d_30">
    <path d="M 165.7206 160.056 
L 165.7206 160.056 
" clip-path="url(#p253147261e)" style="fill: none; stroke: #7f7f7f; stroke-width: 2; stroke-linecap: square"/>
   </g>
   <g id="line2d_31">
    <path d="M 230.5854 160.056 
L 230.5854 160.056 
L 230.5854 160.056 
L 230.5854 160.056 
L 230.5854 160.056 
L 230.5854 160.056 
L 230.5854 160.056 
L 230.5854 160.056 
L 230.5854 160.056 
L 230.5854 160.056 
L 230.5854 160.056 
L 230.5854 160.056 
L 230.5854 160.056 
" clip-path="url(#p253147261e)" style="fill: none; stroke-dasharray: 2,3.3; stroke-dashoffset: 0; stroke: #bcbd22; stroke-width: 2"/>
   </g>
   <g id="line2d_32">
    <path d="M 230.5854 160.056 
L 230.5854 160.056 
" clip-path="url(#p253147261e)" style="fill: none; stroke: #bcbd22; stroke-width: 2; stroke-linecap: square"/>
   </g>
   <g id="line2d_33">
    <path d="M 263.0178 160.056 
L 263.0178 160.056 
L 263.0178 160.056 
L 263.0178 160.056 
L 263.0178 160.056 
L 263.0178 160.056 
L 263.0178 160.056 
L 263.0178 160.056 
L 263.0178 160.056 
L 263.0178 160.056 
L 263.0178 160.056 
L 263.0178 160.056 
L 263.0178 160.056 
" clip-path="url(#p253147261e)" style="fill: none; stroke-dasharray: 2,3.3; stroke-dashoffset: 0; stroke: #17becf; stroke-width: 2"/>
   </g>
   <g id="line2d_34">
    <path d="M 263.0178 160.056 
L 263.0178 160.056 
" clip-path="url(#p253147261e)" style="fill: none; stroke: #17becf; stroke-width: 2; stroke-linecap: square"/>
   </g>
   <g id="line2d_35">
    <path d="M 230.5854 62.7588 
L 230.5854 62.7588 
L 230.5854 62.7588 
L 230.5854 62.7588 
L 230.5854 62.7588 
L 230.5854 62.7588 
L 230.5854 62.7588 
L 230.5854 62.7588 
L 230.5854 62.7588 
L 230.5854 62.7588 
L 230.5854 62.7588 
L 230.5854 62.7588 
L 230.5854 62.7588 
" clip-path="url(#p253147261e)" style="fill: none; stroke-dasharray: 2,3.3; stroke-dashoffset: 0; stroke: #2f4f4f; stroke-width: 2"/>
   </g>
   <g id="line2d_36">
    <path d="M 230.5854 62.7588 
L 230.5854 62.7588 
" clip-path="url(#p253147261e)" style="fill: none; stroke: #2f4f4f; stroke-width: 2; stroke-linecap: square"/>
   </g>
   <g id="line2d_37">
    <path d="M 230.5854 30.3264 
L 230.5854 30.3264 
L 230.5854 30.3264 
L 230.5854 30.3264 
L 230.5854 30.3264 
L 230.5854 30.3264 
L 230.5854 30.3264 
L 230.5854 30.3264 
L 230.5854 30.3264 
L 230.5854 30.3264 
L 230.5854 30.3264 
L 230.5854 30.3264 
L 230.5854 30.3264 
" clip-path="url(#p253147261e)" style="fill: none; stroke-dasharray: 2,3.3; stroke-dashoffset: 0; stroke: #cd5c5c; stroke-width: 2"/>
   </g>
   <g id="line2d_38">
    <path d="M 230.5854 30.3264 
L 230.5854 30.3264 
" clip-path="url(#p253147261e)" style="fill: none; stroke: #cd5c5c; stroke-width: 2; stroke-linecap: square"/>
   </g>
   <g id="line2d_39">
    <path clip-path="url(#p253147261e)" style="fill: none; stroke-dasharray: 2,3.3; stroke-dashoffset: 0; stroke: #add8e6; stroke-width: 2"/>
   </g>
   <g id="line2d_40">
    <path clip-path="url(#p253147261e)" style="fill: none; stroke: #add8e6; stroke-width: 2; stroke-linecap: square"/>
   </g>
   <g id="line2d_41">
    <path d="M 230.5854 192.4884 
L 230.5854 192.4884 
L 230.5854 192.4884 
L 230.5854 192.4884 
L 230.5854 192.4884 
L 230.5854 192.4884 
L 230.5854 192.4884 
L 230.5854 192.4884 
L 230.5854 192.4884 
L 230.5854 192.4884 
L 230.5854 192.4884 
L 230.5854 192.4884 
L 230.5854 192.4884 
" clip-path="url(#p253147261e)" style="fill: none; stroke-dasharray: 2,3.3; stroke-dashoffset: 0; stroke: #663399; stroke-width: 2"/>
   </g>
   <g id="line2d_42">
    <path d="M 230.5854 192.4884 
L 230.5854 192.4884 
" clip-path="url(#p253147261e)" style="fill: none; stroke: #663399; stroke-width: 2; stroke-linecap: square"/>
   </g>
   <g id="line2d_43">
    <path d="M 230.5854 224.9208 
L 230.5854 224.9208 
L 230.5854 224.9208 
L 230.5854 224.9208 
L 230.5854 224.9208 
L 230.5854 224.9208 
L 230.5854 224.9208 
L 230.5854 224.9208 
L 230.5854 224.9208 
L 230.5854 224.9208 
L 230.5854 224.9208 
L 230.5854 224.9208 
L 230.5854 224.9208 
" clip-path="url(#p253147261e)" style="fill: none; stroke-dasharray: 2,3.3; stroke-dashoffset: 0; stroke: #8fbc8f; stroke-width: 2"/>
   </g>
   <g id="line2d_44">
    <path d="M 230.5854 224.9208 
L 230.5854 224.9208 
" clip-path="url(#p253147261e)" style="fill: none; stroke: #8fbc8f; stroke-width: 2; stroke-linecap: square"/>
   </g>
   <g id="line2d_45">
    <path clip-path="url(#p253147261e)" style="fill: none; stroke-dasharray: 2,3.3; stroke-dashoffset: 0; stroke: #00ced1; stroke-width: 2"/>
   </g>
   <g id="line2d_46">
    <path clip-path="url(#p253147261e)" style="fill: none; stroke: #00ced1; stroke-width: 2; stroke-linecap: square"/>
   </g>
   <g id="line2d_47">
    <path d="M 165.7206 62.7588 
L 165.7206 62.7588 
L 165.7206 62.7588 
L 165.7206 62.7588 
L 165.7206 62.7588 
L 165.7206 62.7588 
L 165.7206 62.7588 
L 165.7206 62.7588 
L 165.7206 62.7588 
L 165.7206 62.7588 
L 165.7206 62.7588 
L 165.7206 62.7588 
L 165.7206 62.7588 
" clip-path="url(#p253147261e)" style="fill: none; stroke-dasharray: 2,3.3; stroke-dashoffset: 0; stroke: #6a5acd; stroke-width: 2"/>
   </g>
   <g id="line2d_48">
    <path d="M 165.7206 62.7588 
L 165.7206 62.7588 
" clip-path="url(#p253147261e)" style="fill: none; stroke: #6a5acd; stroke-width: 2; stroke-linecap: square"/>
   </g>
   <g id="line2d_49">
    <path d="M 165.7206 30.3264 
L 165.7206 30.3264 
L 165.7206 30.3264 
L 165.7206 30.3264 
L 165.7206 30.3264 
L 165.7206 30.3264 
L 165.7206 30.3264 
L 165.7206 30.3264 
L 165.7206 30.3264 
L 165.7206 30.3264 
L 165.7206 30.3264 
L 165.7206 30.3264 
L 165.7206 30.3264 
" clip-path="url(#p253147261e)" style="fill: none; stroke-dasharray: 2,3.3; stroke-dashoffset: 0; stroke: #808000; stroke-width: 2"/>
   </g>
   <g id="line2d_50">
    <path d="M 165.7206 30.3264 
L 165.7206 30.3264 
" clip-path="url(#p253147261e)" style="fill: none; stroke: #808000; stroke-width: 2; stroke-linecap: square"/>
   </g>
   <g id="line2d_51">
    <path clip-path="url(#p253147261e)" style="fill: none; stroke-dasharray: 2,3.3; stroke-dashoffset: 0; stroke: #a0522d; stroke-width: 2"/>
   </g>
   <g id="line2d_52">
    <path clip-path="url(#p253147261e)" style="fill: none; stroke: #a0522d; stroke-width: 2; stroke-linecap: square"/>
   </g>
   <g id="line2d_53">
    <path d="M 165.7206 192.4884 
L 165.7206 192.4884 
L 165.7206 192.4884 
L 165.7206 192.4884 
L 165.7206 192.4884 
L 165.7206 192.4884 
L 165.7206 192.4884 
L 165.7206 192.4884 
L 165.7206 192.4884 
L 165.7206 192.4884 
L 165.7206 192.4884 
L 165.7206 192.4884 
L 165.7206 192.4884 
" clip-path="url(#p253147261e)" style="fill: none; stroke-dasharray: 2,3.3; stroke-dashoffset: 0; stroke: #ff4500; stroke-width: 2"/>
   </g>
   <g id="line2d_54">
    <path d="M 165.7206 192.4884 
L 165.7206 192.4884 
" clip-path="url(#p253147261e)" style="fill: none; stroke: #ff4500; stroke-width: 2; stroke-linecap: square"/>
   </g>
   <g id="line2d_55">
    <path d="M 165.7206 224.9208 
L 165.7206 224.9208 
L 165.7206 224.9208 
L 165.7206 224.9208 
L 165.7206 224.9208 
L 165.7206 224.9208 
L 165.7206 224.9208 
L 165.7206 224.9208 
L 165.7206 224.9208 
L 165.7206 224.9208 
L 165.7206 224.9208 
L 165.7206 224.9208 
L 165.7206 224.9208 
" clip-path="url(#p253147261e)" style="fill: none; stroke-dasharray: 2,3.3; stroke-dashoffset: 0; stroke: #708090; stroke-width: 2"/>
   </g>
   <g id="line2d_56">
    <path d="M 165.7206 224.9208 
L 165.7206 224.9208 
" clip-path="url(#p253147261e)" style="fill: none; stroke: #708090; stroke-width: 2; stroke-linecap: square"/>
   </g>
   <g id="line2d_57">
    <path clip-path="url(#p253147261e)" style="fill: none; stroke-dasharray: 2,3.3; stroke-dashoffset: 0; stroke: #bdb76b; stroke-width: 2"/>
   </g>
   <g id="line2d_58">
    <path clip-path="url(#p253147261e)" style="fill: none; stroke: #bdb76b; stroke-width: 2; stroke-linecap: square"/>
   </g>
   <g id="patch_3">
    <path d="M 100.8558 224.9208 
L 100.8558 30.3264 
" style="fill: none; stroke: #000000; stroke-width: 0.8; stroke-linejoin: miter; stroke-linecap: square"/>
   </g>
   <g id="patch_4">
    <path d="M 295.4502 224.9208 
L 295.4502 30.3264 
" style="fill: none; stroke: #000000; stroke-width: 0.8; stroke-linejoin: miter; stroke-linecap: square"/>
   </g>
   <g id="patch_5">
    <path d="M 100.8558 224.9208 
L 295.4502 224.9208 
" style="fill: none; stroke: #000000; stroke-width: 0.8; stroke-linejoin: miter; stroke-linecap: square"/>
   </g>
   <g id="patch_6">
    <path d="M 100.8558 30.3264 
L 295.4502 30.3264 
" style="fill: none; stroke: #000000; stroke-width: 0.8; stroke-linejoin: miter; stroke-linecap: square"/>
   </g>
   <g id="patch_7">
    <path d="M 133.2882 137.35332 
C 135.868552 137.35332 138.343567 136.328135 140.168151 134.503551 
C 141.992735 132.678967 143.01792 130.203952 143.01792 127.6236 
C 143.01792 125.043248 141.992735 122.568233 140.168151 120.743649 
C 138.343567 118.919065 135.868552 117.89388 133.2882 117.89388 
C 130.707848 117.89388 128.232833 118.919065 126.408249 120.743649 
C 124.583665 122.568233 123.55848 125.043248 123.55848 127.6236 
C 123.55848 130.203952 124.583665 132.678967 126.408249 134.503551 
C 128.232833 136.328135 130.707848 137.35332 133.2882 137.35332 
z
" clip-path="url(#p253147261e)" style="fill: #1f77b4; stroke: #000000; stroke-linejoin: miter"/>
   </g>
   <g id="patch_8">
    <path d="M 198.153 215.19108 
C 200.733352 215.19108 203.208367 214.165895 205.032951 212.341311 
C 206.857535 210.516727 207.88272 208.041712 207.88272 205.46136 
C 207.88272 202.881008 206.857535 200.405993 205.032951 198.581409 
C 203.208367 196.756825 200.733352 195.73164 198.153 195.73164 
C 195.572648 195.73164 193.097633 196.756825 191.273049 198.581409 
C 189.448465 200.405993 188.42328 202.881008 188.42328 205.46136 
C 188.42328 208.041712 189.448465 210.516727 191.273049 212.341311 
C 193.097633 214.165895 195.572648 215.19108 198.153 215.19108 
z
" clip-path="url(#p253147261e)" style="fill: #ff7f0e; stroke: #000000; stroke-linejoin: miter"/>
   </g>
   <g id="patch_9">
    <path d="M 133.2882 104.92092 
C 135.868552 104.92092 138.343567 103.895735 140.168151 102.071151 
C 141.992735 100.246567 143.01792 97.771552 143.01792 95.1912 
C 143.01792 92.610848 141.992735 90.135833 140.168151 88.311249 
C 138.343567 86.486665 135.868552 85.46148 133.2882 85.46148 
C 130.707848 85.46148 128.232833 86.486665 126.408249 88.311249 
C 124.583665 90.135833 123.55848 92.610848 123.55848 95.1912 
C 123.55848 97.771552 124.583665 100.246567 126.408249 102.071151 
C 128.232833 103.895735 130.707848 104.92092 133.2882 104.92092 
z
" clip-path="url(#p253147261e)" style="fill: #2ca02c; stroke: #000000; stroke-linejoin: miter"/>
   </g>
   <g id="patch_10">
    <path d="M 165.7206 104.92092 
C 168.300952 104.92092 170.775967 103.895735 172.600551 102.071151 
C 174.425135 100.246567 175.45032 97.771552 175.45032 95.1912 
C 175.45032 92.610848 174.425135 90.135833 172.600551 88.311249 
C 170.775967 86.486665 168.300952 85.46148 165.7206 85.46148 
C 163.140248 85.46148 160.665233 86.486665 158.840649 88.311249 
C 157.016065 90.135833 155.99088 92.610848 155.99088 95.1912 
C 155.99088 97.771552 157.016065 100.246567 158.840649 102.071151 
C 160.665233 103.895735 163.140248 104.92092 165.7206 104.92092 
z
" clip-path="url(#p253147261e)" style="fill: #d62728; stroke: #000000; stroke-linejoin: miter"/>
   </g>
   <g id="patch_11">
    <path d="M 230.5854 104.92092 
C 233.165752 104.92092 235.640767 103.895735 237.465351 102.071151 
C 239.289935 100.246567 240.31512 97.771552 240.31512 95.1912 
C 240.31512 92.610848 239.289935 90.135833 237.465351 88.311249 
C 235.640767 86.486665 233.165752 85.46148 230.5854 85.46148 
C 228.005048 85.46148 225.530033 86.486665 223.705449 88.311249 
C 221.880865 90.135833 220.85568 92.610848 220.85568 95.1912 
C 220.85568 97.771552 221.880865 100.246567 223.705449 102.071151 
C 225.530033 103.895735 228.005048 104.92092 230.5854 104.92092 
z
" clip-path="url(#p253147261e)" style="fill: #9467bd; stroke: #000000; stroke-linejoin: miter"/>
   </g>
   <g id="patch_12">
    <path d="M 263.0178 104.92092 
C 265.598152 104.92092 268.073167 103.895735 269.897751 102.071151 
C 271.722335 100.246567 272.74752 97.771552 272.74752 95.1912 
C 272.74752 92.610848 271.722335 90.135833 269.897751 88.311249 
C 268.073167 86.486665 265.598152 85.46148 263.0178 85.46148 
C 260.437448 85.46148 257.962433 86.486665 256.137849 88.311249 
C 254.313265 90.135833 253.28808 92.610848 253.28808 95.1912 
C 253.28808 97.771552 254.313265 100.246567 256.137849 102.071151 
C 257.962433 103.895735 260.437448 104.92092 263.0178 104.92092 
z
" clip-path="url(#p253147261e)" style="fill: #8c564b; stroke: #000000; stroke-linejoin: miter"/>
   </g>
   <g id="patch_13">
    <path d="M 133.2882 169.78572 
C 135.868552 169.78572 138.343567 168.760535 140.168151 166.935951 
C 141.992735 165.111367 143.01792 162.636352 143.01792 160.056 
C 143.01792 157.475648 141.992735 155.000633 140.168151 153.176049 
C 138.343567 151.351465 135.868552 150.32628 133.2882 150.32628 
C 130.707848 150.32628 128.232833 151.351465 126.408249 153.176049 
C 124.583665 155.000633 123.55848 157.475648 123.55848 160.056 
C 123.55848 162.636352 124.583665 165.111367 126.408249 166.935951 
C 128.232833 168.760535 130.707848 169.78572 133.2882 169.78572 
z
" clip-path="url(#p253147261e)" style="fill: #e377c2; stroke: #000000; stroke-linejoin: miter"/>
   </g>
   <g id="patch_14">
    <path d="M 165.7206 169.78572 
C 168.300952 169.78572 170.775967 168.760535 172.600551 166.935951 
C 174.425135 165.111367 175.45032 162.636352 175.45032 160.056 
C 175.45032 157.475648 174.425135 155.000633 172.600551 153.176049 
C 170.775967 151.351465 168.300952 150.32628 165.7206 150.32628 
C 163.140248 150.32628 160.665233 151.351465 158.840649 153.176049 
C 157.016065 155.000633 155.99088 157.475648 155.99088 160.056 
C 155.99088 162.636352 157.016065 165.111367 158.840649 166.935951 
C 160.665233 168.760535 163.140248 169.78572 165.7206 169.78572 
z
" clip-path="url(#p253147261e)" style="fill: #7f7f7f; stroke: #000000; stroke-linejoin: miter"/>
   </g>
   <g id="patch_15">
    <path d="M 230.5854 169.78572 
C 233.165752 169.78572 235.640767 168.760535 237.465351 166.935951 
C 239.289935 165.111367 240.31512 162.636352 240.31512 160.056 
C 240.31512 157.475648 239.289935 155.000633 237.465351 153.176049 
C 235.640767 151.351465 233.165752 150.32628 230.5854 150.32628 
C 228.005048 150.32628 225.530033 151.351465 223.705449 153.176049 
C 221.880865 155.000633 220.85568 157.475648 220.85568 160.056 
C 220.85568 162.636352 221.880865 165.111367 223.705449 166.935951 
C 225.530033 168.760535 228.005048 169.78572 230.5854 169.78572 
z
" clip-path="url(#p253147261e)" style="fill: #bcbd22; stroke: #000000; stroke-linejoin: miter"/>
   </g>
   <g id="patch_16">
    <path d="M 263.0178 169.78572 
C 265.598152 169.78572 268.073167 168.760535 269.897751 166.935951 
C 271.722335 165.111367 272.74752 162.636352 272.74752 160.056 
C 272.74752 157.475648 271.722335 155.000633 269.897751 153.176049 
C 268.073167 151.351465 265.598152 150.32628 263.0178 150.32628 
C 260.437448 150.32628 257.962433 151.351465 256.137849 153.176049 
C 254.313265 155.000633 253.28808 157.475648 253.28808 160.056 
C 253.28808 162.636352 254.313265 165.111367 256.137849 166.935951 
C 257.962433 168.760535 260.437448 169.78572 263.0178 169.78572 
z
" clip-path="url(#p253147261e)" style="fill: #17becf; stroke: #000000; stroke-linejoin: miter"/>
   </g>
   <g id="patch_17">
    <path d="M 230.5854 72.48852 
C 233.165752 72.48852 235.640767 71.463335 237.465351 69.638751 
C 239.289935 67.814167 240.31512 65.339152 240.31512 62.7588 
C 240.31512 60.178448 239.289935 57.703433 237.465351 55.878849 
C 235.640767 54.054265 233.165752 53.02908 230.5854 53.02908 
C 228.005048 53.02908 225.530033 54.054265 223.705449 55.878849 
C 221.880865 57.703433 220.85568 60.178448 220.85568 62.7588 
C 220.85568 65.339152 221.880865 67.814167 223.705449 69.638751 
C 225.530033 71.463335 228.005048 72.48852 230.5854 72.48852 
z
" clip-path="url(#p253147261e)" style="fill: #2f4f4f; stroke: #000000; stroke-linejoin: miter"/>
   </g>
   <g id="patch_18">
    <path d="M 230.5854 40.05612 
C 233.165752 40.05612 235.640767 39.030935 237.465351 37.206351 
C 239.289935 35.381767 240.31512 32.906752 240.31512 30.3264 
C 240.31512 27.746048 239.289935 25.271033 237.465351 23.446449 
C 235.640767 21.621865 233.165752 20.59668 230.5854 20.59668 
C 228.005048 20.59668 225.530033 21.621865 223.705449 23.446449 
C 221.880865 25.271033 220.85568 27.746048 220.85568 30.3264 
C 220.85568 32.906752 221.880865 35.381767 223.705449 37.206351 
C 225.530033 39.030935 228.005048 40.05612 230.5854 40.05612 
z
" clip-path="url(#p253147261e)" style="fill: #cd5c5c; stroke: #000000; stroke-linejoin: miter"/>
   </g>
   <g id="patch_19">
    <path d="M 230.5854 7.62372 
C 233.165752 7.62372 235.640767 6.598535 237.465351 4.773951 
C 239.289935 2.949367 240.31512 0.474352 240.31512 -2.106 
C 240.31512 -4.686352 239.289935 -7.161367 237.465351 -8.985951 
C 235.640767 -10.810535 233.165752 -11.83572 230.5854 -11.83572 
C 228.005048 -11.83572 225.530033 -10.810535 223.705449 -8.985951 
C 221.880865 -7.161367 220.85568 -4.686352 220.85568 -2.106 
C 220.85568 0.474352 221.880865 2.949367 223.705449 4.773951 
C 225.530033 6.598535 228.005048 7.62372 230.5854 7.62372 
z
" clip-path="url(#p253147261e)" style="fill: #add8e6; stroke: #000000; stroke-linejoin: miter"/>
   </g>
   <g id="patch_20">
    <path d="M 230.5854 202.21812 
C 233.165752 202.21812 235.640767 201.192935 237.465351 199.368351 
C 239.289935 197.543767 240.31512 195.068752 240.31512 192.4884 
C 240.31512 189.908048 239.289935 187.433033 237.465351 185.608449 
C 235.640767 183.783865 233.165752 182.75868 230.5854 182.75868 
C 228.005048 182.75868 225.530033 183.783865 223.705449 185.608449 
C 221.880865 187.433033 220.85568 189.908048 220.85568 192.4884 
C 220.85568 195.068752 221.880865 197.543767 223.705449 199.368351 
C 225.530033 201.192935 228.005048 202.21812 230.5854 202.21812 
z
" clip-path="url(#p253147261e)" style="fill: #663399; stroke: #000000; stroke-linejoin: miter"/>
   </g>
   <g id="patch_21">
    <path d="M 230.5854 234.65052 
C 233.165752 234.65052 235.640767 233.625335 237.465351 231.800751 
C 239.289935 229.976167 240.31512 227.501152 240.31512 224.9208 
C 240.31512 222.340448 239.289935 219.865433 237.465351 218.040849 
C 235.640767 216.216265 233.165752 215.19108 230.5854 215.19108 
C 228.005048 215.19108 225.530033 216.216265 223.705449 218.040849 
C 221.880865 219.865433 220.85568 222.340448 220.85568 224.9208 
C 220.85568 227.501152 221.880865 229.976167 223.705449 231.800751 
C 225.530033 233.625335 228.005048 234.65052 230.5854 234.65052 
z
" clip-path="url(#p253147261e)" style="fill: #8fbc8f; stroke: #000000; stroke-linejoin: miter"/>
   </g>
   <g id="patch_22">
    <path d="M 230.5854 267.08292 
C 233.165752 267.08292 235.640767 266.057735 237.465351 264.233151 
C 239.289935 262.408567 240.31512 259.933552 240.31512 257.3532 
C 240.31512 254.772848 239.289935 252.297833 237.465351 250.473249 
C 235.640767 248.648665 233.165752 247.62348 230.5854 247.62348 
C 228.005048 247.62348 225.530033 248.648665 223.705449 250.473249 
C 221.880865 252.297833 220.85568 254.772848 220.85568 257.3532 
C 220.85568 259.933552 221.880865 262.408567 223.705449 264.233151 
C 225.530033 266.057735 228.005048 267.08292 230.5854 267.08292 
z
" clip-path="url(#p253147261e)" style="fill: #00ced1; stroke: #000000; stroke-linejoin: miter"/>
   </g>
   <g id="patch_23">
    <path d="M 165.7206 72.48852 
C 168.300952 72.48852 170.775967 71.463335 172.600551 69.638751 
C 174.425135 67.814167 175.45032 65.339152 175.45032 62.7588 
C 175.45032 60.178448 174.425135 57.703433 172.600551 55.878849 
C 170.775967 54.054265 168.300952 53.02908 165.7206 53.02908 
C 163.140248 53.02908 160.665233 54.054265 158.840649 55.878849 
C 157.016065 57.703433 155.99088 60.178448 155.99088 62.7588 
C 155.99088 65.339152 157.016065 67.814167 158.840649 69.638751 
C 160.665233 71.463335 163.140248 72.48852 165.7206 72.48852 
z
" clip-path="url(#p253147261e)" style="fill: #6a5acd; stroke: #000000; stroke-linejoin: miter"/>
   </g>
   <g id="patch_24">
    <path d="M 165.7206 40.05612 
C 168.300952 40.05612 170.775967 39.030935 172.600551 37.206351 
C 174.425135 35.381767 175.45032 32.906752 175.45032 30.3264 
C 175.45032 27.746048 174.425135 25.271033 172.600551 23.446449 
C 170.775967 21.621865 168.300952 20.59668 165.7206 20.59668 
C 163.140248 20.59668 160.665233 21.621865 158.840649 23.446449 
C 157.016065 25.271033 155.99088 27.746048 155.99088 30.3264 
C 155.99088 32.906752 157.016065 35.381767 158.840649 37.206351 
C 160.665233 39.030935 163.140248 40.05612 165.7206 40.05612 
z
" clip-path="url(#p253147261e)" style="fill: #808000; stroke: #000000; stroke-linejoin: miter"/>
   </g>
   <g id="patch_25">
    <path d="M 165.7206 7.62372 
C 168.300952 7.62372 170.775967 6.598535 172.600551 4.773951 
C 174.425135 2.949367 175.45032 0.474352 175.45032 -2.106 
C 175.45032 -4.686352 174.425135 -7.161367 172.600551 -8.985951 
C 170.775967 -10.810535 168.300952 -11.83572 165.7206 -11.83572 
C 163.140248 -11.83572 160.665233 -10.810535 158.840649 -8.985951 
C 157.016065 -7.161367 155.99088 -4.686352 155.99088 -2.106 
C 155.99088 0.474352 157.016065 2.949367 158.840649 4.773951 
C 160.665233 6.598535 163.140248 7.62372 165.7206 7.62372 
z
" clip-path="url(#p253147261e)" style="fill: #a0522d; stroke: #000000; stroke-linejoin: miter"/>
   </g>
   <g id="patch_26">
    <path d="M 165.7206 202.21812 
C 168.300952 202.21812 170.775967 201.192935 172.600551 199.368351 
C 174.425135 197.543767 175.45032 195.068752 175.45032 192.4884 
C 175.45032 189.908048 174.425135 187.433033 172.600551 185.608449 
C 170.775967 183.783865 168.300952 182.75868 165.7206 182.75868 
C 163.140248 182.75868 160.665233 183.783865 158.840649 185.608449 
C 157.016065 187.433033 155.99088 189.908048 155.99088 192.4884 
C 155.99088 195.068752 157.016065 197.543767 158.840649 199.368351 
C 160.665233 201.192935 163.140248 202.21812 165.7206 202.21812 
z
" clip-path="url(#p253147261e)" style="fill: #ff4500; stroke: #000000; stroke-linejoin: miter"/>
   </g>
   <g id="patch_27">
    <path d="M 165.7206 234.65052 
C 168.300952 234.65052 170.775967 233.625335 172.600551 231.800751 
C 174.425135 229.976167 175.45032 227.501152 175.45032 224.9208 
C 175.45032 222.340448 174.425135 219.865433 172.600551 218.040849 
C 170.775967 216.216265 168.300952 215.19108 165.7206 215.19108 
C 163.140248 215.19108 160.665233 216.216265 158.840649 218.040849 
C 157.016065 219.865433 155.99088 222.340448 155.99088 224.9208 
C 155.99088 227.501152 157.016065 229.976167 158.840649 231.800751 
C 160.665233 233.625335 163.140248 234.65052 165.7206 234.65052 
z
" clip-path="url(#p253147261e)" style="fill: #708090; stroke: #000000; stroke-linejoin: miter"/>
   </g>
   <g id="patch_28">
    <path d="M 165.7206 267.08292 
C 168.300952 267.08292 170.775967 266.057735 172.600551 264.233151 
C 174.425135 262.408567 175.45032 259.933552 175.45032 257.3532 
C 175.45032 254.772848 174.425135 252.297833 172.600551 250.473249 
C 170.775967 248.648665 168.300952 247.62348 165.7206 247.62348 
C 163.140248 247.62348 160.665233 248.648665 158.840649 250.473249 
C 157.016065 252.297833 155.99088 254.772848 155.99088 257.3532 
C 155.99088 259.933552 157.016065 262.408567 158.840649 264.233151 
C 160.665233 266.057735 163.140248 267.08292 165.7206 267.08292 
z
" clip-path="url(#p253147261e)" style="fill: #bdb76b; stroke: #000000; stroke-linejoin: miter"/>
   </g>
   <g id="line2d_59">
    <path d="M 263.0178 127.6236 
" clip-path="url(#p253147261e)" style="fill: none; stroke: #1f77b4; stroke-width: 1.5; stroke-linecap: square"/>
    <defs>
     <path id="mceb5ae8d46" d="M 0 4.949747 
L 2.969848 0 
L 0 -4.949747 
L -2.969848 0 
z
" style="stroke: #000000; stroke-linejoin: miter"/>
    </defs>
    <g clip-path="url(#p253147261e)">
     <use xlink:href="#mceb5ae8d46" x="263.0178" y="127.6236" style="fill: #1f77b4; stroke: #000000; stroke-linejoin: miter"/>
    </g>
   </g>
   <g id="line2d_60">
    <path d="M 263.0178 127.6236 
" clip-path="url(#p253147261e)" style="fill: none; stroke: #ff7f0e; stroke-width: 1.5; stroke-linecap: square"/>
    <defs>
     <path id="m5c52d2b768" d="M 0 4.949747 
L 2.969848 0 
L 0 -4.949747 
L -2.969848 0 
z
" style="stroke: #000000; stroke-linejoin: miter"/>
    </defs>
    <g clip-path="url(#p253147261e)">
     <use xlink:href="#m5c52d2b768" x="263.0178" y="127.6236" style="fill: #ff7f0e; stroke: #000000; stroke-linejoin: miter"/>
    </g>
   </g>
   <g id="line2d_61">
    <path d="M 133.2882 95.1912 
" clip-path="url(#p253147261e)" style="fill: none; stroke: #2ca02c; stroke-width: 1.5; stroke-linecap: square"/>
    <defs>
     <path id="mff37d68a4f" d="M 0 4.949747 
L 2.969848 0 
L 0 -4.949747 
L -2.969848 0 
z
" style="stroke: #000000; stroke-linejoin: miter"/>
    </defs>
    <g clip-path="url(#p253147261e)">
     <use xlink:href="#mff37d68a4f" x="133.2882" y="95.1912" style="fill: #2ca02c; stroke: #000000; stroke-linejoin: miter"/>
    </g>
   </g>
   <g id="line2d_62">
    <path d="M 165.7206 95.1912 
" clip-path="url(#p253147261e)" style="fill: none; stroke: #d62728; stroke-width: 1.5; stroke-linecap: square"/>
    <defs>
     <path id="mc098324024" d="M 0 4.949747 
L 2.969848 0 
L 0 -4.949747 
L -2.969848 0 
z
" style="stroke: #000000; stroke-linejoin: miter"/>
    </defs>
    <g clip-path="url(#p253147261e)">
     <use xlink:href="#mc098324024" x="165.7206" y="95.1912" style="fill: #d62728; stroke: #000000; stroke-linejoin: miter"/>
    </g>
   </g>
   <g id="line2d_63">
    <path d="M 230.5854 95.1912 
" clip-path="url(#p253147261e)" style="fill: none; stroke: #9467bd; stroke-width: 1.5; stroke-linecap: square"/>
    <defs>
     <path id="m5311637345" d="M 0 4.949747 
L 2.969848 0 
L 0 -4.949747 
L -2.969848 0 
z
" style="stroke: #000000; stroke-linejoin: miter"/>
    </defs>
    <g clip-path="url(#p253147261e)">
     <use xlink:href="#m5311637345" x="230.5854" y="95.1912" style="fill: #9467bd; stroke: #000000; stroke-linejoin: miter"/>
    </g>
   </g>
   <g id="line2d_64">
    <path d="M 263.0178 95.1912 
" clip-path="url(#p253147261e)" style="fill: none; stroke: #8c564b; stroke-width: 1.5; stroke-linecap: square"/>
    <defs>
     <path id="mb9263b5cca" d="M 0 4.949747 
L 2.969848 0 
L 0 -4.949747 
L -2.969848 0 
z
" style="stroke: #000000; stroke-linejoin: miter"/>
    </defs>
    <g clip-path="url(#p253147261e)">
     <use xlink:href="#mb9263b5cca" x="263.0178" y="95.1912" style="fill: #8c564b; stroke: #000000; stroke-linejoin: miter"/>
    </g>
   </g>
   <g id="line2d_65">
    <path d="M 133.2882 160.056 
" clip-path="url(#p253147261e)" style="fill: none; stroke: #e377c2; stroke-width: 1.5; stroke-linecap: square"/>
    <defs>
     <path id="m85d85d2cb4" d="M 0 4.949747 
L 2.969848 0 
L 0 -4.949747 
L -2.969848 0 
z
" style="stroke: #000000; stroke-linejoin: miter"/>
    </defs>
    <g clip-path="url(#p253147261e)">
     <use xlink:href="#m85d85d2cb4" x="133.2882" y="160.056" style="fill: #e377c2; stroke: #000000; stroke-linejoin: miter"/>
    </g>
   </g>
   <g id="line2d_66">
    <path d="M 165.7206 160.056 
" clip-path="url(#p253147261e)" style="fill: none; stroke: #7f7f7f; stroke-width: 1.5; stroke-linecap: square"/>
    <defs>
     <path id="ma8be1ab2d1" d="M 0 4.949747 
L 2.969848 0 
L 0 -4.949747 
L -2.969848 0 
z
" style="stroke: #000000; stroke-linejoin: miter"/>
    </defs>
    <g clip-path="url(#p253147261e)">
     <use xlink:href="#ma8be1ab2d1" x="165.7206" y="160.056" style="fill: #7f7f7f; stroke: #000000; stroke-linejoin: miter"/>
    </g>
   </g>
   <g id="line2d_67">
    <path d="M 230.5854 160.056 
" clip-path="url(#p253147261e)" style="fill: none; stroke: #bcbd22; stroke-width: 1.5; stroke-linecap: square"/>
    <defs>
     <path id="m4588b95291" d="M 0 4.949747 
L 2.969848 0 
L 0 -4.949747 
L -2.969848 0 
z
" style="stroke: #000000; stroke-linejoin: miter"/>
    </defs>
    <g clip-path="url(#p253147261e)">
     <use xlink:href="#m4588b95291" x="230.5854" y="160.056" style="fill: #bcbd22; stroke: #000000; stroke-linejoin: miter"/>
    </g>
   </g>
   <g id="line2d_68">
    <path d="M 263.0178 160.056 
" clip-path="url(#p253147261e)" style="fill: none; stroke: #17becf; stroke-width: 1.5; stroke-linecap: square"/>
    <defs>
     <path id="m1d3fd04d82" d="M 0 4.949747 
L 2.969848 0 
L 0 -4.949747 
L -2.969848 0 
z
" style="stroke: #000000; stroke-linejoin: miter"/>
    </defs>
    <g clip-path="url(#p253147261e)">
     <use xlink:href="#m1d3fd04d82" x="263.0178" y="160.056" style="fill: #17becf; stroke: #000000; stroke-linejoin: miter"/>
    </g>
   </g>
   <g id="line2d_69">
    <path d="M 230.5854 62.7588 
" clip-path="url(#p253147261e)" style="fill: none; stroke: #2f4f4f; stroke-width: 1.5; stroke-linecap: square"/>
    <defs>
     <path id="m9c8042f311" d="M 0 4.949747 
L 2.969848 0 
L 0 -4.949747 
L -2.969848 0 
z
" style="stroke: #000000; stroke-linejoin: miter"/>
    </defs>
    <g clip-path="url(#p253147261e)">
     <use xlink:href="#m9c8042f311" x="230.5854" y="62.7588" style="fill: #2f4f4f; stroke: #000000; stroke-linejoin: miter"/>
    </g>
   </g>
   <g id="line2d_70">
    <path d="M 230.5854 30.3264 
" clip-path="url(#p253147261e)" style="fill: none; stroke: #cd5c5c; stroke-width: 1.5; stroke-linecap: square"/>
    <defs>
     <path id="m628e0532a5" d="M 0 4.949747 
L 2.969848 0 
L 0 -4.949747 
L -2.969848 0 
z
" style="stroke: #000000; stroke-linejoin: miter"/>
    </defs>
    <g clip-path="url(#p253147261e)">
     <use xlink:href="#m628e0532a5" x="230.5854" y="30.3264" style="fill: #cd5c5c; stroke: #000000; stroke-linejoin: miter"/>
    </g>
   </g>
   <g id="line2d_71">
    <path clip-path="url(#p253147261e)" style="fill: none; stroke: #add8e6; stroke-width: 1.5; stroke-linecap: square"/>
    <defs>
     <path id="m7b23e200c6" d="M 0 4.949747 
L 2.969848 0 
L 0 -4.949747 
L -2.969848 0 
z
" style="stroke: #000000; stroke-linejoin: miter"/>
    </defs>
    <g clip-path="url(#p253147261e)"/>
   </g>
   <g id="line2d_72">
    <path d="M 230.5854 192.4884 
" clip-path="url(#p253147261e)" style="fill: none; stroke: #663399; stroke-width: 1.5; stroke-linecap: square"/>
    <defs>
     <path id="mf917ca268c" d="M 0 4.949747 
L 2.969848 0 
L 0 -4.949747 
L -2.969848 0 
z
" style="stroke: #000000; stroke-linejoin: miter"/>
    </defs>
    <g clip-path="url(#p253147261e)">
     <use xlink:href="#mf917ca268c" x="230.5854" y="192.4884" style="fill: #663399; stroke: #000000; stroke-linejoin: miter"/>
    </g>
   </g>
   <g id="line2d_73">
    <path d="M 230.5854 224.9208 
" clip-path="url(#p253147261e)" style="fill: none; stroke: #8fbc8f; stroke-width: 1.5; stroke-linecap: square"/>
    <defs>
     <path id="m1445b7f72e" d="M 0 4.949747 
L 2.969848 0 
L 0 -4.949747 
L -2.969848 0 
z
" style="stroke: #000000; stroke-linejoin: miter"/>
    </defs>
    <g clip-path="url(#p253147261e)">
     <use xlink:href="#m1445b7f72e" x="230.5854" y="224.9208" style="fill: #8fbc8f; stroke: #000000; stroke-linejoin: miter"/>
    </g>
   </g>
   <g id="line2d_74">
    <path clip-path="url(#p253147261e)" style="fill: none; stroke: #00ced1; stroke-width: 1.5; stroke-linecap: square"/>
    <defs>
     <path id="m2d305dffbb" d="M 0 4.949747 
L 2.969848 0 
L 0 -4.949747 
L -2.969848 0 
z
" style="stroke: #000000; stroke-linejoin: miter"/>
    </defs>
    <g clip-path="url(#p253147261e)">
     <use xlink:href="#m2d305dffbb" x="230.5854" y="257.3532" style="fill: #00ced1; stroke: #000000; stroke-linejoin: miter"/>
    </g>
   </g>
   <g id="line2d_75">
    <path d="M 165.7206 62.7588 
" clip-path="url(#p253147261e)" style="fill: none; stroke: #6a5acd; stroke-width: 1.5; stroke-linecap: square"/>
    <defs>
     <path id="m6beec0bc00" d="M 0 4.949747 
L 2.969848 0 
L 0 -4.949747 
L -2.969848 0 
z
" style="stroke: #000000; stroke-linejoin: miter"/>
    </defs>
    <g clip-path="url(#p253147261e)">
     <use xlink:href="#m6beec0bc00" x="165.7206" y="62.7588" style="fill: #6a5acd; stroke: #000000; stroke-linejoin: miter"/>
    </g>
   </g>
   <g id="line2d_76">
    <path d="M 165.7206 30.3264 
" clip-path="url(#p253147261e)" style="fill: none; stroke: #808000; stroke-width: 1.5; stroke-linecap: square"/>
    <defs>
     <path id="m8a29c47378" d="M 0 4.949747 
L 2.969848 0 
L 0 -4.949747 
L -2.969848 0 
z
" style="stroke: #000000; stroke-linejoin: miter"/>
    </defs>
    <g clip-path="url(#p253147261e)">
     <use xlink:href="#m8a29c47378" x="165.7206" y="30.3264" style="fill: #808000; stroke: #000000; stroke-linejoin: miter"/>
    </g>
   </g>
   <g id="line2d_77">
    <path clip-path="url(#p253147261e)" style="fill: none; stroke: #a0522d; stroke-width: 1.5; stroke-linecap: square"/>
    <defs>
     <path id="me06cbd40ea" d="M 0 4.949747 
L 2.969848 0 
L 0 -4.949747 
L -2.969848 0 
z
" style="stroke: #000000; stroke-linejoin: miter"/>
    </defs>
    <g clip-path="url(#p253147261e)"/>
   </g>
   <g id="line2d_78">
    <path d="M 165.7206 192.4884 
" clip-path="url(#p253147261e)" style="fill: none; stroke: #ff4500; stroke-width: 1.5; stroke-linecap: square"/>
    <defs>
     <path id="m1bdaf15a6b" d="M 0 4.949747 
L 2.969848 0 
L 0 -4.949747 
L -2.969848 0 
z
" style="stroke: #000000; stroke-linejoin: miter"/>
    </defs>
    <g clip-path="url(#p253147261e)">
     <use xlink:href="#m1bdaf15a6b" x="165.7206" y="192.4884" style="fill: #ff4500; stroke: #000000; stroke-linejoin: miter"/>
    </g>
   </g>
   <g id="line2d_79">
    <path d="M 165.7206 224.9208 
" clip-path="url(#p253147261e)" style="fill: none; stroke: #708090; stroke-width: 1.5; stroke-linecap: square"/>
    <defs>
     <path id="m34f0c4fa39" d="M 0 4.949747 
L 2.969848 0 
L 0 -4.949747 
L -2.969848 0 
z
" style="stroke: #000000; stroke-linejoin: miter"/>
    </defs>
    <g clip-path="url(#p253147261e)">
     <use xlink:href="#m34f0c4fa39" x="165.7206" y="224.9208" style="fill: #708090; stroke: #000000; stroke-linejoin: miter"/>
    </g>
   </g>
   <g id="line2d_80">
    <path clip-path="url(#p253147261e)" style="fill: none; stroke: #bdb76b; stroke-width: 1.5; stroke-linecap: square"/>
    <defs>
     <path id="ma6510f0178" d="M 0 4.949747 
L 2.969848 0 
L 0 -4.949747 
L -2.969848 0 
z
" style="stroke: #000000; stroke-linejoin: miter"/>
    </defs>
    <g clip-path="url(#p253147261e)">
     <use xlink:href="#ma6510f0178" x="165.7206" y="257.3532" style="fill: #bdb76b; stroke: #000000; stroke-linejoin: miter"/>
    </g>
   </g>
  </g>
 </g>
 <defs>
  <clipPath id="p253147261e">
   <rect x="100.8558" y="30.3264" width="194.5944" height="194.5944"/>
  </clipPath>
 </defs>
</svg>
