<?xml version="1.0" encoding="utf-8" standalone="no"?>
<!DOCTYPE svg PUBLIC "-//W3C//DTD SVG 1.1//EN"
  "http://www.w3.org/Graphics/SVG/1.1/DTD/svg11.dtd">
<svg xmlns:xlink="http://www.w3.org/1999/xlink" width="386.64pt" height="252.72pt" viewBox="0 0 386.64 252.72" xmlns="http://www.w3.org/2000/svg" version="1.1">
 <metadata>
  <rdf:RDF xmlns:dc="http://purl.org/dc/elements/1.1/" xmlns:cc="http://creativecommons.org/ns#" xmlns:rdf="http://www.w3.org/1999/02/22-rdf-syntax-ns#">
   <cc:Work>
    <dc:type rdf:resource="http://purl.org/dc/dcmitype/StillImage"/>
    <dc:date>2023-07-11T22:26:58.103010</dc:date>
    <dc:format>image/svg+xml</dc:format>
    <dc:creator>
     <cc:Agent>
      <dc:title>Matplotlib v3.6.2, https://matplotlib.org/</dc:title>
     </cc:Agent>
    </dc:creator>
   </cc:Work>
  </rdf:RDF>
 </metadata>
 <defs>
  <style type="text/css">*{stroke-linejoin: round; stroke-linecap: butt}</style>
 </defs>
 <g id="figure_1">
  <g id="patch_1">
   <path d="M 0 252.72 
L 386.64 252.72 
L 386.64 0 
L 0 0 
z
" style="fill: #ffffff"/>
  </g>
  <g id="axes_1">
   <g id="patch_2">
    <path d="M 100.8558 224.9208 
L 295.4502 224.9208 
L 295.4502 30.3264 
L 100.8558 30.3264 
z
" style="fill: #ffffff"/>
   </g>
   <g id="matplotlib.axis_1">
    <g id="xtick_1">
     <g id="line2d_1">
      <defs>
       <path id="mb94ca4f962" d="M 0 0 
L 0 3.5 
" style="stroke: #000000; stroke-width: 0.8"/>
      </defs>
      <g>
       <use xlink:href="#mb94ca4f962" x="100.8558" y="224.9208" style="stroke: #000000; stroke-width: 0.8"/>
      </g>
     </g>
     <g id="text_1">
      <!-- −0.5 -->
      <g transform="translate(88.714394 239.519237) scale(0.1 -0.1)">
       <defs>
        <path id="DejaVuSans-2212" d="M 678 2272 
L 4684 2272 
L 4684 1741 
L 678 1741 
L 678 2272 
z
" transform="scale(0.015625)"/>
        <path id="DejaVuSans-30" d="M 2034 4250 
Q 1547 4250 1301 3770 
Q 1056 3291 1056 2328 
Q 1056 1369 1301 889 
Q 1547 409 2034 409 
Q 2525 409 2770 889 
Q 3016 1369 3016 2328 
Q 3016 3291 2770 3770 
Q 2525 4250 2034 4250 
z
M 2034 4750 
Q 2819 4750 3233 4129 
Q 3647 3509 3647 2328 
Q 3647 1150 3233 529 
Q 2819 -91 2034 -91 
Q 1250 -91 836 529 
Q 422 1150 422 2328 
Q 422 3509 836 4129 
Q 1250 4750 2034 4750 
z
" transform="scale(0.015625)"/>
        <path id="DejaVuSans-2e" d="M 684 794 
L 1344 794 
L 1344 0 
L 684 0 
L 684 794 
z
" transform="scale(0.015625)"/>
        <path id="DejaVuSans-35" d="M 691 4666 
L 3169 4666 
L 3169 4134 
L 1269 4134 
L 1269 2991 
Q 1406 3038 1543 3061 
Q 1681 3084 1819 3084 
Q 2600 3084 3056 2656 
Q 3513 2228 3513 1497 
Q 3513 744 3044 326 
Q 2575 -91 1722 -91 
Q 1428 -91 1123 -41 
Q 819 9 494 109 
L 494 744 
Q 775 591 1075 516 
Q 1375 441 1709 441 
Q 2250 441 2565 725 
Q 2881 1009 2881 1497 
Q 2881 1984 2565 2268 
Q 2250 2553 1709 2553 
Q 1456 2553 1204 2497 
Q 953 2441 691 2322 
L 691 4666 
z
" transform="scale(0.015625)"/>
       </defs>
       <use xlink:href="#DejaVuSans-2212"/>
       <use xlink:href="#DejaVuSans-30" x="83.789062"/>
       <use xlink:href="#DejaVuSans-2e" x="147.412109"/>
       <use xlink:href="#DejaVuSans-35" x="179.199219"/>
      </g>
     </g>
    </g>
    <g id="xtick_2">
     <g id="line2d_2">
      <g>
       <use xlink:href="#mb94ca4f962" x="133.2882" y="224.9208" style="stroke: #000000; stroke-width: 0.8"/>
      </g>
     </g>
     <g id="text_2">
      <!-- 0.0 -->
      <g transform="translate(125.336638 239.519237) scale(0.1 -0.1)">
       <use xlink:href="#DejaVuSans-30"/>
       <use xlink:href="#DejaVuSans-2e" x="63.623047"/>
       <use xlink:href="#DejaVuSans-30" x="95.410156"/>
      </g>
     </g>
    </g>
    <g id="xtick_3">
     <g id="line2d_3">
      <g>
       <use xlink:href="#mb94ca4f962" x="165.7206" y="224.9208" style="stroke: #000000; stroke-width: 0.8"/>
      </g>
     </g>
     <g id="text_3">
      <!-- 0.5 -->
      <g transform="translate(157.769037 239.519237) scale(0.1 -0.1)">
       <use xlink:href="#DejaVuSans-30"/>
       <use xlink:href="#DejaVuSans-2e" x="63.623047"/>
       <use xlink:href="#DejaVuSans-35" x="95.410156"/>
      </g>
     </g>
    </g>
    <g id="xtick_4">
     <g id="line2d_4">
      <g>
       <use xlink:href="#mb94ca4f962" x="198.153" y="224.9208" style="stroke: #000000; stroke-width: 0.8"/>
      </g>
     </g>
     <g id="text_4">
      <!-- 1.0 -->
      <g transform="translate(190.201437 239.519237) scale(0.1 -0.1)">
       <defs>
        <path id="DejaVuSans-31" d="M 794 531 
L 1825 531 
L 1825 4091 
L 703 3866 
L 703 4441 
L 1819 4666 
L 2450 4666 
L 2450 531 
L 3481 531 
L 3481 0 
L 794 0 
L 794 531 
z
" transform="scale(0.015625)"/>
       </defs>
       <use xlink:href="#DejaVuSans-31"/>
       <use xlink:href="#DejaVuSans-2e" x="63.623047"/>
       <use xlink:href="#DejaVuSans-30" x="95.410156"/>
      </g>
     </g>
    </g>
    <g id="xtick_5">
     <g id="line2d_5">
      <g>
       <use xlink:href="#mb94ca4f962" x="230.5854" y="224.9208" style="stroke: #000000; stroke-width: 0.8"/>
      </g>
     </g>
     <g id="text_5">
      <!-- 1.5 -->
      <g transform="translate(222.633837 239.519237) scale(0.1 -0.1)">
       <use xlink:href="#DejaVuSans-31"/>
       <use xlink:href="#DejaVuSans-2e" x="63.623047"/>
       <use xlink:href="#DejaVuSans-35" x="95.410156"/>
      </g>
     </g>
    </g>
    <g id="xtick_6">
     <g id="line2d_6">
      <g>
       <use xlink:href="#mb94ca4f962" x="263.0178" y="224.9208" style="stroke: #000000; stroke-width: 0.8"/>
      </g>
     </g>
     <g id="text_6">
      <!-- 2.0 -->
      <g transform="translate(255.066237 239.519237) scale(0.1 -0.1)">
       <defs>
        <path id="DejaVuSans-32" d="M 1228 531 
L 3431 531 
L 3431 0 
L 469 0 
L 469 531 
Q 828 903 1448 1529 
Q 2069 2156 2228 2338 
Q 2531 2678 2651 2914 
Q 2772 3150 2772 3378 
Q 2772 3750 2511 3984 
Q 2250 4219 1831 4219 
Q 1534 4219 1204 4116 
Q 875 4013 500 3803 
L 500 4441 
Q 881 4594 1212 4672 
Q 1544 4750 1819 4750 
Q 2544 4750 2975 4387 
Q 3406 4025 3406 3419 
Q 3406 3131 3298 2873 
Q 3191 2616 2906 2266 
Q 2828 2175 2409 1742 
Q 1991 1309 1228 531 
z
" transform="scale(0.015625)"/>
       </defs>
       <use xlink:href="#DejaVuSans-32"/>
       <use xlink:href="#DejaVuSans-2e" x="63.623047"/>
       <use xlink:href="#DejaVuSans-30" x="95.410156"/>
      </g>
     </g>
    </g>
    <g id="xtick_7">
     <g id="line2d_7">
      <g>
       <use xlink:href="#mb94ca4f962" x="295.4502" y="224.9208" style="stroke: #000000; stroke-width: 0.8"/>
      </g>
     </g>
     <g id="text_7">
      <!-- 2.5 -->
      <g transform="translate(287.498637 239.519237) scale(0.1 -0.1)">
       <use xlink:href="#DejaVuSans-32"/>
       <use xlink:href="#DejaVuSans-2e" x="63.623047"/>
       <use xlink:href="#DejaVuSans-35" x="95.410156"/>
      </g>
     </g>
    </g>
    <g id="text_8">
     <!-- x(m) -->
     <g transform="translate(186.42175 253.197362) scale(0.1 -0.1)">
      <defs>
       <path id="DejaVuSans-78" d="M 3513 3500 
L 2247 1797 
L 3578 0 
L 2900 0 
L 1881 1375 
L 863 0 
L 184 0 
L 1544 1831 
L 300 3500 
L 978 3500 
L 1906 2253 
L 2834 3500 
L 3513 3500 
z
" transform="scale(0.015625)"/>
       <path id="DejaVuSans-28" d="M 1984 4856 
Q 1566 4138 1362 3434 
Q 1159 2731 1159 2009 
Q 1159 1288 1364 580 
Q 1569 -128 1984 -844 
L 1484 -844 
Q 1016 -109 783 600 
Q 550 1309 550 2009 
Q 550 2706 781 3412 
Q 1013 4119 1484 4856 
L 1984 4856 
z
" transform="scale(0.015625)"/>
       <path id="DejaVuSans-6d" d="M 3328 2828 
Q 3544 3216 3844 3400 
Q 4144 3584 4550 3584 
Q 5097 3584 5394 3201 
Q 5691 2819 5691 2113 
L 5691 0 
L 5113 0 
L 5113 2094 
Q 5113 2597 4934 2840 
Q 4756 3084 4391 3084 
Q 3944 3084 3684 2787 
Q 3425 2491 3425 1978 
L 3425 0 
L 2847 0 
L 2847 2094 
Q 2847 2600 2669 2842 
Q 2491 3084 2119 3084 
Q 1678 3084 1418 2786 
Q 1159 2488 1159 1978 
L 1159 0 
L 581 0 
L 581 3500 
L 1159 3500 
L 1159 2956 
Q 1356 3278 1631 3431 
Q 1906 3584 2284 3584 
Q 2666 3584 2933 3390 
Q 3200 3197 3328 2828 
z
" transform="scale(0.015625)"/>
       <path id="DejaVuSans-29" d="M 513 4856 
L 1013 4856 
Q 1481 4119 1714 3412 
Q 1947 2706 1947 2009 
Q 1947 1309 1714 600 
Q 1481 -109 1013 -844 
L 513 -844 
Q 928 -128 1133 580 
Q 1338 1288 1338 2009 
Q 1338 2731 1133 3434 
Q 928 4138 513 4856 
z
" transform="scale(0.015625)"/>
      </defs>
      <use xlink:href="#DejaVuSans-78"/>
      <use xlink:href="#DejaVuSans-28" x="59.179688"/>
      <use xlink:href="#DejaVuSans-6d" x="98.193359"/>
      <use xlink:href="#DejaVuSans-29" x="195.605469"/>
     </g>
    </g>
   </g>
   <g id="matplotlib.axis_2">
    <g id="ytick_1">
     <g id="line2d_8">
      <defs>
       <path id="m70c642e2ed" d="M 0 0 
L -3.5 0 
" style="stroke: #000000; stroke-width: 0.8"/>
      </defs>
      <g>
       <use xlink:href="#m70c642e2ed" x="100.8558" y="224.9208" style="stroke: #000000; stroke-width: 0.8"/>
      </g>
     </g>
     <g id="text_9">
      <!-- −0.5 -->
      <g transform="translate(69.572988 228.720019) scale(0.1 -0.1)">
       <use xlink:href="#DejaVuSans-2212"/>
       <use xlink:href="#DejaVuSans-30" x="83.789062"/>
       <use xlink:href="#DejaVuSans-2e" x="147.412109"/>
       <use xlink:href="#DejaVuSans-35" x="179.199219"/>
      </g>
     </g>
    </g>
    <g id="ytick_2">
     <g id="line2d_9">
      <g>
       <use xlink:href="#m70c642e2ed" x="100.8558" y="192.4884" style="stroke: #000000; stroke-width: 0.8"/>
      </g>
     </g>
     <g id="text_10">
      <!-- 0.0 -->
      <g transform="translate(77.952675 196.287619) scale(0.1 -0.1)">
       <use xlink:href="#DejaVuSans-30"/>
       <use xlink:href="#DejaVuSans-2e" x="63.623047"/>
       <use xlink:href="#DejaVuSans-30" x="95.410156"/>
      </g>
     </g>
    </g>
    <g id="ytick_3">
     <g id="line2d_10">
      <g>
       <use xlink:href="#m70c642e2ed" x="100.8558" y="160.056" style="stroke: #000000; stroke-width: 0.8"/>
      </g>
     </g>
     <g id="text_11">
      <!-- 0.5 -->
      <g transform="translate(77.952675 163.855219) scale(0.1 -0.1)">
       <use xlink:href="#DejaVuSans-30"/>
       <use xlink:href="#DejaVuSans-2e" x="63.623047"/>
       <use xlink:href="#DejaVuSans-35" x="95.410156"/>
      </g>
     </g>
    </g>
    <g id="ytick_4">
     <g id="line2d_11">
      <g>
       <use xlink:href="#m70c642e2ed" x="100.8558" y="127.6236" style="stroke: #000000; stroke-width: 0.8"/>
      </g>
     </g>
     <g id="text_12">
      <!-- 1.0 -->
      <g transform="translate(77.952675 131.422819) scale(0.1 -0.1)">
       <use xlink:href="#DejaVuSans-31"/>
       <use xlink:href="#DejaVuSans-2e" x="63.623047"/>
       <use xlink:href="#DejaVuSans-30" x="95.410156"/>
      </g>
     </g>
    </g>
    <g id="ytick_5">
     <g id="line2d_12">
      <g>
       <use xlink:href="#m70c642e2ed" x="100.8558" y="95.1912" style="stroke: #000000; stroke-width: 0.8"/>
      </g>
     </g>
     <g id="text_13">
      <!-- 1.5 -->
      <g transform="translate(77.952675 98.990419) scale(0.1 -0.1)">
       <use xlink:href="#DejaVuSans-31"/>
       <use xlink:href="#DejaVuSans-2e" x="63.623047"/>
       <use xlink:href="#DejaVuSans-35" x="95.410156"/>
      </g>
     </g>
    </g>
    <g id="ytick_6">
     <g id="line2d_13">
      <g>
       <use xlink:href="#m70c642e2ed" x="100.8558" y="62.7588" style="stroke: #000000; stroke-width: 0.8"/>
      </g>
     </g>
     <g id="text_14">
      <!-- 2.0 -->
      <g transform="translate(77.952675 66.558019) scale(0.1 -0.1)">
       <use xlink:href="#DejaVuSans-32"/>
       <use xlink:href="#DejaVuSans-2e" x="63.623047"/>
       <use xlink:href="#DejaVuSans-30" x="95.410156"/>
      </g>
     </g>
    </g>
    <g id="ytick_7">
     <g id="line2d_14">
      <g>
       <use xlink:href="#m70c642e2ed" x="100.8558" y="30.3264" style="stroke: #000000; stroke-width: 0.8"/>
      </g>
     </g>
     <g id="text_15">
      <!-- 2.5 -->
      <g transform="translate(77.952675 34.125619) scale(0.1 -0.1)">
       <use xlink:href="#DejaVuSans-32"/>
       <use xlink:href="#DejaVuSans-2e" x="63.623047"/>
       <use xlink:href="#DejaVuSans-35" x="95.410156"/>
      </g>
     </g>
    </g>
    <g id="text_16">
     <!-- y(m) -->
     <g transform="translate(63.4933 139.35485) rotate(-90) scale(0.1 -0.1)">
      <defs>
       <path id="DejaVuSans-79" d="M 2059 -325 
Q 1816 -950 1584 -1140 
Q 1353 -1331 966 -1331 
L 506 -1331 
L 506 -850 
L 844 -850 
Q 1081 -850 1212 -737 
Q 1344 -625 1503 -206 
L 1606 56 
L 191 3500 
L 800 3500 
L 1894 763 
L 2988 3500 
L 3597 3500 
L 2059 -325 
z
" transform="scale(0.015625)"/>
      </defs>
      <use xlink:href="#DejaVuSans-79"/>
      <use xlink:href="#DejaVuSans-28" x="59.179688"/>
      <use xlink:href="#DejaVuSans-6d" x="98.193359"/>
      <use xlink:href="#DejaVuSans-29" x="195.605469"/>
     </g>
    </g>
   </g>
   <g id="line2d_15">
    <path d="M 263.018077 127.623447 
L 263.017767 127.623618 
L 263.017804 127.623598 
L 263.017801 127.6236 
L 263.01782 127.623597 
L 263.018007 127.623566 
L 263.019379 127.623338 
L 263.025183 127.622373 
L 263.027991 127.621906 
L 263.038708 127.620124 
L 263.037367 127.620347 
L 263.028904 127.621754 
L 263.028904 127.621754 
" clip-path="url(#pc33d8a5950)" style="fill: none; stroke-dasharray: 2,3.3; stroke-dashoffset: 0; stroke: #1f77b4; stroke-width: 2"/>
   </g>
   <g id="line2d_16">
    <path d="M 133.2882 127.6236 
L 133.2882 127.6236 
L 133.768676 127.621531 
L 138.573349 127.593776 
L 147.701648 127.493337 
L 160.673863 127.41217 
L 173.646739 127.459601 
L 186.619963 127.486284 
L 199.592908 127.523189 
L 212.567005 127.607597 
L 225.536461 127.5202 
L 238.341407 126.667687 
L 249.679077 126.428069 
L 257.640665 127.139288 
L 262.299995 127.540144 
L 263.112185 127.634279 
L 263.006673 127.622341 
L 263.019112 127.623748 
L 263.017645 127.623583 
L 263.017818 127.623602 
L 263.017798 127.6236 
L 263.0178 127.6236 
L 263.017798 127.623601 
L 263.017815 127.623585 
L 263.018077 127.623447 
" clip-path="url(#pc33d8a5950)" style="fill: none; stroke: #1f77b4; stroke-width: 2; stroke-linecap: square"/>
   </g>
   <g id="line2d_17">
    <path d="M 241.571722 131.159098 
L 241.575771 131.178661 
L 241.577824 131.182749 
L 241.5792 131.184525 
L 241.580309 131.185466 
L 241.581401 131.186005 
L 241.583735 131.186117 
L 241.588673 131.185664 
L 241.592453 131.185318 
L 241.596244 131.18491 
L 241.599315 131.18458 
L 241.601853 131.184307 
L 241.601853 131.184307 
" clip-path="url(#pc33d8a5950)" style="fill: none; stroke-dasharray: 2,3.3; stroke-dashoffset: 0; stroke: #ff7f0e; stroke-width: 2"/>
   </g>
   <g id="line2d_18">
    <path d="M 198.153 205.46136 
L 198.153 205.46136 
L 198.164648 204.981025 
L 198.417246 200.200816 
L 199.877385 191.454013 
L 201.48243 180.264573 
L 202.738317 169.560811 
L 204.917797 161.07713 
L 207.09932 154.814228 
L 209.379241 150.892168 
L 211.999015 147.096721 
L 218.032057 141.250712 
L 226.183594 137.004547 
L 232.872114 134.000627 
L 237.806064 132.265695 
L 240.06566 131.422425 
L 240.879042 131.192219 
L 241.162835 131.331402 
L 241.412368 131.239806 
L 241.510508 131.207438 
L 241.550795 131.195585 
L 241.568181 131.191014 
L 241.575887 131.189232 
L 241.578358 131.185007 
L 241.571722 131.159098 
" clip-path="url(#pc33d8a5950)" style="fill: none; stroke: #ff7f0e; stroke-width: 2; stroke-linecap: square"/>
   </g>
   <g id="line2d_19">
    <path d="M 133.288218 95.190933 
L 133.288216 95.190934 
L 133.288214 95.190935 
L 133.288212 95.190939 
L 133.28821 95.190946 
L 133.288208 95.190956 
L 133.288206 95.19097 
L 133.288204 95.190987 
L 133.288203 95.191004 
L 133.288202 95.191021 
L 133.288202 95.191033 
L 133.288202 95.191038 
L 133.288202 95.191038 
" clip-path="url(#pc33d8a5950)" style="fill: none; stroke-dasharray: 2,3.3; stroke-dashoffset: 0; stroke: #2ca02c; stroke-width: 2"/>
   </g>
   <g id="line2d_20">
    <path d="M 133.2882 95.1912 
L 133.2882 95.1912 
L 133.2882 95.1912 
L 133.288202 95.1912 
L 133.288204 95.191197 
L 133.288206 95.19119 
L 133.288211 95.191173 
L 133.288216 95.191155 
L 133.288222 95.191135 
L 133.288224 95.191111 
L 133.288228 95.191086 
L 133.28823 95.191064 
L 133.288232 95.191043 
L 133.288235 95.191023 
L 133.288236 95.191005 
L 133.288236 95.19099 
L 133.288235 95.190976 
L 133.288234 95.190965 
L 133.288232 95.190955 
L 133.28823 95.190948 
L 133.288228 95.190942 
L 133.288225 95.190938 
L 133.288223 95.190935 
L 133.288221 95.190934 
L 133.288218 95.190933 
" clip-path="url(#pc33d8a5950)" style="fill: none; stroke: #2ca02c; stroke-width: 2; stroke-linecap: square"/>
   </g>
   <g id="line2d_21">
    <path d="M 165.720672 95.191313 
L 165.720691 95.191326 
L 165.720716 95.191341 
L 165.720741 95.191354 
L 165.720753 95.191356 
L 165.720755 95.191349 
L 165.720747 95.191334 
L 165.720733 95.191312 
L 165.720715 95.191287 
L 165.720696 95.191261 
L 165.720682 95.191239 
L 165.720675 95.191227 
L 165.720675 95.191227 
" clip-path="url(#pc33d8a5950)" style="fill: none; stroke-dasharray: 2,3.3; stroke-dashoffset: 0; stroke: #d62728; stroke-width: 2"/>
   </g>
   <g id="line2d_22">
    <path d="M 165.7206 95.1912 
L 165.7206 95.1912 
L 165.720601 95.191194 
L 165.720603 95.19115 
L 165.720581 95.191153 
L 165.720541 95.191158 
L 165.720483 95.19116 
L 165.720422 95.191125 
L 165.720366 95.191081 
L 165.720311 95.191045 
L 165.720281 95.191024 
L 165.720264 95.191013 
L 165.720261 95.191012 
L 165.720272 95.191017 
L 165.720291 95.191024 
L 165.720326 95.19105 
L 165.720369 95.191085 
L 165.720416 95.191123 
L 165.720464 95.19116 
L 165.720509 95.191195 
L 165.720551 95.191227 
L 165.720588 95.191254 
L 165.720621 95.191278 
L 165.720649 95.191297 
L 165.720672 95.191313 
" clip-path="url(#pc33d8a5950)" style="fill: none; stroke: #d62728; stroke-width: 2; stroke-linecap: square"/>
   </g>
   <g id="line2d_23">
    <path d="M 230.585687 95.190475 
L 230.585682 95.190453 
L 230.585701 95.190442 
L 230.585735 95.190477 
L 230.585753 95.190577 
L 230.58575 95.190709 
L 230.585721 95.190837 
L 230.585671 95.190947 
L 230.58561 95.191041 
L 230.585549 95.191117 
L 230.585504 95.191168 
L 230.585482 95.19119 
L 230.585482 95.19119 
" clip-path="url(#pc33d8a5950)" style="fill: none; stroke-dasharray: 2,3.3; stroke-dashoffset: 0; stroke: #9467bd; stroke-width: 2"/>
   </g>
   <g id="line2d_24">
    <path d="M 230.5854 95.1912 
L 230.5854 95.1912 
L 230.5854 95.191198 
L 230.585399 95.191183 
L 230.585405 95.191174 
L 230.585427 95.191186 
L 230.585443 95.191202 
L 230.585457 95.191257 
L 230.585477 95.191298 
L 230.585509 95.191287 
L 230.585553 95.191222 
L 230.585594 95.19117 
L 230.58563 95.191129 
L 230.585659 95.191094 
L 230.585686 95.191036 
L 230.585704 95.190962 
L 230.585716 95.190885 
L 230.585722 95.190811 
L 230.585723 95.190742 
L 230.585721 95.190679 
L 230.585717 95.190624 
L 230.585711 95.190576 
L 230.585704 95.190535 
L 230.585696 95.190502 
L 230.585687 95.190475 
" clip-path="url(#pc33d8a5950)" style="fill: none; stroke: #9467bd; stroke-width: 2; stroke-linecap: square"/>
   </g>
   <g id="line2d_25">
    <path d="M 263.017772 95.190961 
L 263.017775 95.190965 
L 263.017777 95.190969 
L 263.01778 95.190976 
L 263.017782 95.190987 
L 263.017785 95.191 
L 263.017787 95.191016 
L 263.01779 95.191034 
L 263.017792 95.191052 
L 263.017793 95.191069 
L 263.017794 95.191081 
L 263.017795 95.191087 
L 263.017795 95.191087 
" clip-path="url(#pc33d8a5950)" style="fill: none; stroke-dasharray: 2,3.3; stroke-dashoffset: 0; stroke: #8c564b; stroke-width: 2"/>
   </g>
   <g id="line2d_26">
    <path d="M 263.0178 95.1912 
L 263.0178 95.1912 
L 263.017801 95.1912 
L 263.017807 95.191203 
L 263.017812 95.191199 
L 263.017815 95.191193 
L 263.017817 95.191185 
L 263.017818 95.191173 
L 263.017819 95.191161 
L 263.017818 95.19115 
L 263.017817 95.191135 
L 263.017814 95.191106 
L 263.017803 95.191071 
L 263.017793 95.191044 
L 263.017784 95.191022 
L 263.017777 95.191004 
L 263.017772 95.190989 
L 263.017769 95.190978 
L 263.017766 95.190969 
L 263.017765 95.190963 
L 263.017765 95.190959 
L 263.017766 95.190957 
L 263.017768 95.190957 
L 263.01777 95.190959 
L 263.017772 95.190961 
" clip-path="url(#pc33d8a5950)" style="fill: none; stroke: #8c564b; stroke-width: 2; stroke-linecap: square"/>
   </g>
   <g id="line2d_27">
    <path d="M 133.288229 160.056228 
L 133.288225 160.056232 
L 133.288221 160.056236 
L 133.288217 160.056236 
L 133.288213 160.056234 
L 133.288209 160.056227 
L 133.288206 160.056217 
L 133.288204 160.056204 
L 133.288202 160.056189 
L 133.288201 160.056174 
L 133.2882 160.056163 
L 133.2882 160.056158 
L 133.2882 160.056158 
" clip-path="url(#pc33d8a5950)" style="fill: none; stroke-dasharray: 2,3.3; stroke-dashoffset: 0; stroke: #e377c2; stroke-width: 2"/>
   </g>
   <g id="line2d_28">
    <path d="M 133.2882 160.056 
L 133.2882 160.056 
L 133.2882 160.056 
L 133.288203 160.056 
L 133.288205 160.056004 
L 133.288208 160.056011 
L 133.28821 160.05602 
L 133.288212 160.056031 
L 133.288213 160.056043 
L 133.288215 160.056057 
L 133.288218 160.056072 
L 133.288228 160.056085 
L 133.288237 160.056099 
L 133.288244 160.056114 
L 133.288249 160.056128 
L 133.288252 160.056143 
L 133.288253 160.056156 
L 133.288253 160.056169 
L 133.288251 160.056181 
L 133.288249 160.056191 
L 133.288246 160.056201 
L 133.288242 160.056209 
L 133.288238 160.056217 
L 133.288234 160.056223 
L 133.288229 160.056228 
" clip-path="url(#pc33d8a5950)" style="fill: none; stroke: #e377c2; stroke-width: 2; stroke-linecap: square"/>
   </g>
   <g id="line2d_29">
    <path d="M 165.720624 160.055822 
L 165.720651 160.055827 
L 165.720685 160.055828 
L 165.72072 160.055828 
L 165.720743 160.055835 
L 165.720752 160.055849 
L 165.720751 160.055869 
L 165.720742 160.055894 
L 165.720727 160.055922 
L 165.720709 160.055951 
L 165.720696 160.055977 
L 165.720689 160.055991 
L 165.720689 160.055991 
" clip-path="url(#pc33d8a5950)" style="fill: none; stroke-dasharray: 2,3.3; stroke-dashoffset: 0; stroke: #7f7f7f; stroke-width: 2"/>
   </g>
   <g id="line2d_30">
    <path d="M 165.7206 160.056 
L 165.7206 160.056 
L 165.7206 160.055997 
L 165.720599 160.05597 
L 165.720579 160.055908 
L 165.72054 160.055856 
L 165.720503 160.055767 
L 165.72048 160.055656 
L 165.720446 160.055586 
L 165.720426 160.055548 
L 165.720405 160.055537 
L 165.720398 160.05555 
L 165.720388 160.055578 
L 165.720397 160.055602 
L 165.720396 160.055649 
L 165.720377 160.055687 
L 165.720378 160.055717 
L 165.720394 160.05574 
L 165.72042 160.055758 
L 165.720453 160.055772 
L 165.720489 160.055784 
L 165.720526 160.055795 
L 165.720561 160.055805 
L 165.720594 160.055814 
L 165.720624 160.055822 
" clip-path="url(#pc33d8a5950)" style="fill: none; stroke: #7f7f7f; stroke-width: 2; stroke-linecap: square"/>
   </g>
   <g id="line2d_31">
    <path d="M 230.585643 160.056031 
L 230.585641 160.056031 
L 230.585651 160.05603 
L 230.585662 160.056028 
L 230.585658 160.056024 
L 230.585638 160.05602 
L 230.585605 160.056016 
L 230.585564 160.056012 
L 230.58552 160.056009 
L 230.585479 160.056007 
L 230.585449 160.056005 
L 230.585435 160.056005 
L 230.585435 160.056005 
" clip-path="url(#pc33d8a5950)" style="fill: none; stroke-dasharray: 2,3.3; stroke-dashoffset: 0; stroke: #bcbd22; stroke-width: 2"/>
   </g>
   <g id="line2d_32">
    <path d="M 230.5854 160.056 
L 230.5854 160.056 
L 230.5854 160.056002 
L 230.585404 160.056019 
L 230.585426 160.055987 
L 230.585441 160.055965 
L 230.585453 160.055958 
L 230.585459 160.055962 
L 230.585459 160.055967 
L 230.585467 160.055979 
L 230.585475 160.055991 
L 230.58547 160.056002 
L 230.585459 160.056052 
L 230.585468 160.056053 
L 230.585489 160.056051 
L 230.58552 160.056047 
L 230.585555 160.056044 
L 230.585584 160.056041 
L 230.585606 160.056038 
L 230.585623 160.056036 
L 230.585634 160.056034 
L 230.585641 160.056033 
L 230.585645 160.056032 
L 230.585645 160.056031 
L 230.585643 160.056031 
" clip-path="url(#pc33d8a5950)" style="fill: none; stroke: #bcbd22; stroke-width: 2; stroke-linecap: square"/>
   </g>
   <g id="line2d_33">
    <path d="M 263.017789 160.056229 
L 263.017791 160.056228 
L 263.017793 160.056226 
L 263.017794 160.056222 
L 263.017795 160.056214 
L 263.017796 160.056203 
L 263.017797 160.056189 
L 263.017797 160.056172 
L 263.017798 160.056154 
L 263.017798 160.056138 
L 263.017798 160.056126 
L 263.017798 160.056121 
L 263.017798 160.056121 
" clip-path="url(#pc33d8a5950)" style="fill: none; stroke-dasharray: 2,3.3; stroke-dashoffset: 0; stroke: #17becf; stroke-width: 2"/>
   </g>
   <g id="line2d_34">
    <path d="M 263.0178 160.056 
L 263.0178 160.056 
L 263.0178 160.056 
L 263.0178 160.056 
L 263.0178 160.056006 
L 263.017801 160.056017 
L 263.017802 160.056031 
L 263.017798 160.056043 
L 263.017795 160.056057 
L 263.017792 160.056072 
L 263.017789 160.056089 
L 263.017785 160.056112 
L 263.017783 160.056135 
L 263.01778 160.056158 
L 263.017778 160.056174 
L 263.017777 160.056187 
L 263.017777 160.056198 
L 263.017777 160.056207 
L 263.017778 160.056214 
L 263.017779 160.05622 
L 263.017781 160.056224 
L 263.017783 160.056227 
L 263.017785 160.056229 
L 263.017787 160.056229 
L 263.017789 160.056229 
" clip-path="url(#pc33d8a5950)" style="fill: none; stroke: #17becf; stroke-width: 2; stroke-linecap: square"/>
   </g>
   <g id="line2d_35">
    <path d="M 230.586033 62.758919 
L 230.586061 62.758937 
L 230.58612 62.758961 
L 230.586186 62.758986 
L 230.586211 62.758999 
L 230.586188 62.758998 
L 230.58612 62.758984 
L 230.586018 62.758961 
L 230.585895 62.758931 
L 230.58577 62.758899 
L 230.58567 62.758874 
L 230.585622 62.758861 
L 230.585622 62.758861 
" clip-path="url(#pc33d8a5950)" style="fill: none; stroke-dasharray: 2,3.3; stroke-dashoffset: 0; stroke: #2f4f4f; stroke-width: 2"/>
   </g>
   <g id="line2d_36">
    <path d="M 230.5854 62.7588 
L 230.5854 62.7588 
L 230.5854 62.758798 
L 230.585398 62.758783 
L 230.585395 62.75877 
L 230.585392 62.758761 
L 230.585391 62.758756 
L 230.585392 62.758754 
L 230.585393 62.758755 
L 230.585397 62.758759 
L 230.585416 62.758765 
L 230.585444 62.758771 
L 230.585472 62.758776 
L 230.585495 62.75878 
L 230.585546 62.758771 
L 230.585621 62.758774 
L 230.585706 62.758784 
L 230.585744 62.758792 
L 230.585802 62.758807 
L 230.585867 62.758827 
L 230.585882 62.758841 
L 230.585918 62.758859 
L 230.585969 62.758882 
L 230.586024 62.758905 
L 230.586033 62.758919 
" clip-path="url(#pc33d8a5950)" style="fill: none; stroke: #2f4f4f; stroke-width: 2; stroke-linecap: square"/>
   </g>
   <g id="line2d_37">
    <path d="M 230.585358 30.32653 
L 230.585363 30.326515 
L 230.585367 30.326498 
L 230.58537 30.326479 
L 230.585373 30.32646 
L 230.585376 30.32644 
L 230.585379 30.32642 
L 230.585383 30.326402 
L 230.585387 30.326385 
L 230.58539 30.326373 
L 230.585393 30.326365 
L 230.585394 30.326361 
L 230.585394 30.326361 
" clip-path="url(#pc33d8a5950)" style="fill: none; stroke-dasharray: 2,3.3; stroke-dashoffset: 0; stroke: #cd5c5c; stroke-width: 2"/>
   </g>
   <g id="line2d_38">
    <path d="M 230.5854 30.3264 
L 230.5854 30.3264 
L 230.585397 30.326406 
L 230.585368 30.32646 
L 230.585347 30.326501 
L 230.585328 30.326531 
L 230.585311 30.326561 
L 230.585298 30.326587 
L 230.585288 30.326613 
L 230.585283 30.326639 
L 230.58528 30.326662 
L 230.58528 30.326679 
L 230.585281 30.32669 
L 230.585284 30.326694 
L 230.585289 30.326696 
L 230.585295 30.326687 
L 230.585301 30.326673 
L 230.585306 30.326653 
L 230.585313 30.326633 
L 230.58532 30.326614 
L 230.585329 30.326596 
L 230.585337 30.326578 
L 230.585345 30.326561 
L 230.585351 30.326544 
L 230.585358 30.32653 
" clip-path="url(#pc33d8a5950)" style="fill: none; stroke: #cd5c5c; stroke-width: 2; stroke-linecap: square"/>
   </g>
   <g id="line2d_39">
    <path clip-path="url(#pc33d8a5950)" style="fill: none; stroke-dasharray: 2,3.3; stroke-dashoffset: 0; stroke: #add8e6; stroke-width: 2"/>
   </g>
   <g id="line2d_40">
    <path clip-path="url(#pc33d8a5950)" style="fill: none; stroke: #add8e6; stroke-width: 2; stroke-linecap: square"/>
   </g>
   <g id="line2d_41">
    <path d="M 230.586268 192.488457 
L 230.586331 192.48845 
L 230.586415 192.488441 
L 230.586495 192.48842 
L 230.586515 192.488385 
L 230.586467 192.488348 
L 230.586361 192.488325 
L 230.586209 192.48832 
L 230.586031 192.488328 
L 230.585854 192.488341 
L 230.585717 192.488353 
L 230.585651 192.488359 
L 230.585651 192.488359 
" clip-path="url(#pc33d8a5950)" style="fill: none; stroke-dasharray: 2,3.3; stroke-dashoffset: 0; stroke: #663399; stroke-width: 2"/>
   </g>
   <g id="line2d_42">
    <path d="M 230.5854 192.4884 
L 230.5854 192.4884 
L 230.5854 192.488401 
L 230.585403 192.488407 
L 230.585406 192.488411 
L 230.585406 192.488417 
L 230.585392 192.488421 
L 230.585383 192.488425 
L 230.585389 192.488426 
L 230.585399 192.488429 
L 230.585436 192.488433 
L 230.585469 192.48843 
L 230.585487 192.488434 
L 230.585503 192.488436 
L 230.585517 192.488438 
L 230.585562 192.488431 
L 230.585625 192.488433 
L 230.585699 192.48844 
L 230.585782 192.488448 
L 230.585869 192.488457 
L 230.585957 192.488463 
L 230.586043 192.488466 
L 230.586125 192.488466 
L 230.5862 192.488463 
L 230.586268 192.488457 
" clip-path="url(#pc33d8a5950)" style="fill: none; stroke: #663399; stroke-width: 2; stroke-linecap: square"/>
   </g>
   <g id="line2d_43">
    <path d="M 230.585362 224.920724 
L 230.585367 224.920714 
L 230.585373 224.920703 
L 230.585378 224.920693 
L 230.585384 224.920688 
L 230.585389 224.920689 
L 230.585393 224.920695 
L 230.585397 224.920706 
L 230.585401 224.92072 
L 230.585403 224.920734 
L 230.585404 224.920745 
L 230.585404 224.92075 
L 230.585404 224.92075 
" clip-path="url(#pc33d8a5950)" style="fill: none; stroke-dasharray: 2,3.3; stroke-dashoffset: 0; stroke: #8fbc8f; stroke-width: 2"/>
   </g>
   <g id="line2d_44">
    <path d="M 230.5854 224.9208 
L 230.5854 224.9208 
L 230.585398 224.920803 
L 230.585385 224.920825 
L 230.585374 224.920843 
L 230.585366 224.920859 
L 230.58536 224.920873 
L 230.585355 224.920875 
L 230.58535 224.920871 
L 230.585345 224.920863 
L 230.585339 224.920855 
L 230.585333 224.920853 
L 230.585327 224.920853 
L 230.585323 224.920851 
L 230.585321 224.920846 
L 230.585319 224.920843 
L 230.58532 224.920837 
L 230.585321 224.920829 
L 230.585324 224.92082 
L 230.58533 224.920803 
L 230.585336 224.920785 
L 230.585342 224.920768 
L 230.585349 224.920751 
L 230.585356 224.920735 
L 230.585362 224.920724 
" clip-path="url(#pc33d8a5950)" style="fill: none; stroke: #8fbc8f; stroke-width: 2; stroke-linecap: square"/>
   </g>
   <g id="line2d_45">
    <path clip-path="url(#pc33d8a5950)" style="fill: none; stroke-dasharray: 2,3.3; stroke-dashoffset: 0; stroke: #00ced1; stroke-width: 2"/>
   </g>
   <g id="line2d_46">
    <path clip-path="url(#pc33d8a5950)" style="fill: none; stroke: #00ced1; stroke-width: 2; stroke-linecap: square"/>
   </g>
   <g id="line2d_47">
    <path d="M 165.720612 62.759074 
L 165.720619 62.759085 
L 165.720628 62.759092 
L 165.720637 62.759091 
L 165.720643 62.759075 
L 165.720644 62.759043 
L 165.720643 62.758998 
L 165.720641 62.758943 
L 165.72064 62.758888 
L 165.72064 62.75884 
L 165.720644 62.75881 
L 165.720648 62.758799 
L 165.720648 62.758799 
" clip-path="url(#pc33d8a5950)" style="fill: none; stroke-dasharray: 2,3.3; stroke-dashoffset: 0; stroke: #6a5acd; stroke-width: 2"/>
   </g>
   <g id="line2d_48">
    <path d="M 165.7206 62.7588 
L 165.7206 62.7588 
L 165.7206 62.758797 
L 165.720599 62.758767 
L 165.720603 62.758741 
L 165.720606 62.758721 
L 165.720609 62.758707 
L 165.720611 62.7587 
L 165.72061 62.758699 
L 165.720606 62.758707 
L 165.720599 62.758726 
L 165.72059 62.758749 
L 165.72058 62.758775 
L 165.720571 62.758803 
L 165.720562 62.758831 
L 165.720558 62.758862 
L 165.720558 62.758892 
L 165.720561 62.758923 
L 165.720566 62.758952 
L 165.720572 62.758979 
L 165.72058 62.759004 
L 165.720588 62.759026 
L 165.720596 62.759045 
L 165.720604 62.759061 
L 165.720612 62.759074 
" clip-path="url(#pc33d8a5950)" style="fill: none; stroke: #6a5acd; stroke-width: 2; stroke-linecap: square"/>
   </g>
   <g id="line2d_49">
    <path d="M 165.720619 30.326489 
L 165.72062 30.326476 
L 165.720622 30.326461 
L 165.720622 30.326445 
L 165.720622 30.326429 
L 165.72062 30.326412 
L 165.720617 30.326396 
L 165.720613 30.32638 
L 165.720608 30.326367 
L 165.720604 30.326356 
L 165.720601 30.326351 
L 165.720601 30.32635 
L 165.720601 30.32635 
" clip-path="url(#pc33d8a5950)" style="fill: none; stroke-dasharray: 2,3.3; stroke-dashoffset: 0; stroke: #808000; stroke-width: 2"/>
   </g>
   <g id="line2d_50">
    <path d="M 165.7206 30.3264 
L 165.7206 30.3264 
L 165.7206 30.326398 
L 165.720603 30.326374 
L 165.720607 30.326333 
L 165.720608 30.326303 
L 165.720608 30.326285 
L 165.720609 30.326278 
L 165.720611 30.326286 
L 165.720616 30.326304 
L 165.720622 30.32633 
L 165.720624 30.32636 
L 165.720622 30.326408 
L 165.720619 30.326449 
L 165.720616 30.326482 
L 165.720615 30.326507 
L 165.720614 30.326522 
L 165.720613 30.326532 
L 165.720614 30.326535 
L 165.720614 30.326534 
L 165.720615 30.326529 
L 165.720616 30.326522 
L 165.720617 30.326512 
L 165.720618 30.326501 
L 165.720619 30.326489 
" clip-path="url(#pc33d8a5950)" style="fill: none; stroke: #808000; stroke-width: 2; stroke-linecap: square"/>
   </g>
   <g id="line2d_51">
    <path clip-path="url(#pc33d8a5950)" style="fill: none; stroke-dasharray: 2,3.3; stroke-dashoffset: 0; stroke: #a0522d; stroke-width: 2"/>
   </g>
   <g id="line2d_52">
    <path clip-path="url(#pc33d8a5950)" style="fill: none; stroke: #a0522d; stroke-width: 2; stroke-linecap: square"/>
   </g>
   <g id="line2d_53">
    <path d="M 165.720607 192.488292 
L 165.720615 192.48827 
L 165.720623 192.48825 
L 165.720629 192.488236 
L 165.720632 192.488234 
L 165.720632 192.488244 
L 165.720631 192.488264 
L 165.720627 192.488292 
L 165.720624 192.488324 
L 165.72062 192.488355 
L 165.720617 192.488376 
L 165.720615 192.488386 
L 165.720615 192.488386 
" clip-path="url(#pc33d8a5950)" style="fill: none; stroke-dasharray: 2,3.3; stroke-dashoffset: 0; stroke: #ff4500; stroke-width: 2"/>
   </g>
   <g id="line2d_54">
    <path d="M 165.7206 192.4884 
L 165.7206 192.4884 
L 165.720601 192.488405 
L 165.720611 192.488452 
L 165.720617 192.488491 
L 165.720591 192.488535 
L 165.720574 192.488568 
L 165.720557 192.488592 
L 165.720554 192.48862 
L 165.720547 192.488655 
L 165.720505 192.488686 
L 165.72045 192.488683 
L 165.720421 192.488672 
L 165.720425 192.488655 
L 165.72044 192.488631 
L 165.720459 192.488601 
L 165.720479 192.488566 
L 165.7205 192.488528 
L 165.72052 192.488489 
L 165.720539 192.488451 
L 165.720556 192.488414 
L 165.720572 192.488379 
L 165.720585 192.488346 
L 165.720597 192.488317 
L 165.720607 192.488292 
" clip-path="url(#pc33d8a5950)" style="fill: none; stroke: #ff4500; stroke-width: 2; stroke-linecap: square"/>
   </g>
   <g id="line2d_55">
    <path d="M 165.720643 224.920676 
L 165.720637 224.920685 
L 165.720631 224.920694 
L 165.720626 224.920704 
L 165.72062 224.920716 
L 165.720614 224.92073 
L 165.720609 224.920745 
L 165.720603 224.920761 
L 165.720598 224.920777 
L 165.720595 224.920791 
L 165.720593 224.920799 
L 165.720593 224.920801 
L 165.720593 224.920801 
" clip-path="url(#pc33d8a5950)" style="fill: none; stroke-dasharray: 2,3.3; stroke-dashoffset: 0; stroke: #708090; stroke-width: 2"/>
   </g>
   <g id="line2d_56">
    <path d="M 165.7206 224.9208 
L 165.7206 224.9208 
L 165.720602 224.920799 
L 165.720621 224.92079 
L 165.720636 224.920783 
L 165.720647 224.920788 
L 165.720655 224.920803 
L 165.720661 224.920807 
L 165.720666 224.920806 
L 165.720669 224.920799 
L 165.720672 224.920786 
L 165.720674 224.920768 
L 165.720677 224.920745 
L 165.72068 224.92072 
L 165.72068 224.920698 
L 165.720682 224.920675 
L 165.720682 224.920658 
L 165.720679 224.920647 
L 165.720676 224.920642 
L 165.720671 224.920639 
L 165.720666 224.920642 
L 165.72066 224.920649 
L 165.720655 224.920657 
L 165.720649 224.920666 
L 165.720643 224.920676 
" clip-path="url(#pc33d8a5950)" style="fill: none; stroke: #708090; stroke-width: 2; stroke-linecap: square"/>
   </g>
   <g id="line2d_57">
    <path clip-path="url(#pc33d8a5950)" style="fill: none; stroke-dasharray: 2,3.3; stroke-dashoffset: 0; stroke: #bdb76b; stroke-width: 2"/>
   </g>
   <g id="line2d_58">
    <path clip-path="url(#pc33d8a5950)" style="fill: none; stroke: #bdb76b; stroke-width: 2; stroke-linecap: square"/>
   </g>
   <g id="patch_3">
    <path d="M 100.8558 224.9208 
L 100.8558 30.3264 
" style="fill: none; stroke: #000000; stroke-width: 0.8; stroke-linejoin: miter; stroke-linecap: square"/>
   </g>
   <g id="patch_4">
    <path d="M 295.4502 224.9208 
L 295.4502 30.3264 
" style="fill: none; stroke: #000000; stroke-width: 0.8; stroke-linejoin: miter; stroke-linecap: square"/>
   </g>
   <g id="patch_5">
    <path d="M 100.8558 224.9208 
L 295.4502 224.9208 
" style="fill: none; stroke: #000000; stroke-width: 0.8; stroke-linejoin: miter; stroke-linecap: square"/>
   </g>
   <g id="patch_6">
    <path d="M 100.8558 30.3264 
L 295.4502 30.3264 
" style="fill: none; stroke: #000000; stroke-width: 0.8; stroke-linejoin: miter; stroke-linecap: square"/>
   </g>
   <g id="patch_7">
    <path d="M 263.018077 137.353167 
C 265.598429 137.353167 268.073444 136.327983 269.898028 134.503398 
C 271.722612 132.678814 272.747797 130.203799 272.747797 127.623447 
C 272.747797 125.043096 271.722612 122.568081 269.898028 120.743496 
C 268.073444 118.918912 265.598429 117.893727 263.018077 117.893727 
C 260.437725 117.893727 257.96271 118.918912 256.138126 120.743496 
C 254.313542 122.568081 253.288357 125.043096 253.288357 127.623447 
C 253.288357 130.203799 254.313542 132.678814 256.138126 134.503398 
C 257.96271 136.327983 260.437725 137.353167 263.018077 137.353167 
z
" clip-path="url(#pc33d8a5950)" style="fill: #1f77b4; stroke: #000000; stroke-linejoin: miter"/>
   </g>
   <g id="patch_8">
    <path d="M 241.571722 140.888818 
C 244.152074 140.888818 246.627089 139.863633 248.451673 138.039049 
C 250.276257 136.214464 251.301442 133.73945 251.301442 131.159098 
C 251.301442 128.578746 250.276257 126.103731 248.451673 124.279147 
C 246.627089 122.454562 244.152074 121.429378 241.571722 121.429378 
C 238.99137 121.429378 236.516355 122.454562 234.691771 124.279147 
C 232.867187 126.103731 231.842002 128.578746 231.842002 131.159098 
C 231.842002 133.73945 232.867187 136.214464 234.691771 138.039049 
C 236.516355 139.863633 238.99137 140.888818 241.571722 140.888818 
z
" clip-path="url(#pc33d8a5950)" style="fill: #ff7f0e; stroke: #000000; stroke-linejoin: miter"/>
   </g>
   <g id="patch_9">
    <path d="M 133.288218 104.920653 
C 135.86857 104.920653 138.343585 103.895469 140.168169 102.070884 
C 141.992754 100.2463 143.017938 97.771285 143.017938 95.190933 
C 143.017938 92.610581 141.992754 90.135567 140.168169 88.310982 
C 138.343585 86.486398 135.86857 85.461213 133.288218 85.461213 
C 130.707866 85.461213 128.232852 86.486398 126.408267 88.310982 
C 124.583683 90.135567 123.558498 92.610581 123.558498 95.190933 
C 123.558498 97.771285 124.583683 100.2463 126.408267 102.070884 
C 128.232852 103.895469 130.707866 104.920653 133.288218 104.920653 
z
" clip-path="url(#pc33d8a5950)" style="fill: #2ca02c; stroke: #000000; stroke-linejoin: miter"/>
   </g>
   <g id="patch_10">
    <path d="M 165.720672 104.921033 
C 168.301024 104.921033 170.776038 103.895848 172.600623 102.071264 
C 174.425207 100.24668 175.450392 97.771665 175.450392 95.191313 
C 175.450392 92.610961 174.425207 90.135946 172.600623 88.311362 
C 170.776038 86.486778 168.301024 85.461593 165.720672 85.461593 
C 163.14032 85.461593 160.665305 86.486778 158.840721 88.311362 
C 157.016136 90.135946 155.990952 92.610961 155.990952 95.191313 
C 155.990952 97.771665 157.016136 100.24668 158.840721 102.071264 
C 160.665305 103.895848 163.14032 104.921033 165.720672 104.921033 
z
" clip-path="url(#pc33d8a5950)" style="fill: #d62728; stroke: #000000; stroke-linejoin: miter"/>
   </g>
   <g id="patch_11">
    <path d="M 230.585687 104.920195 
C 233.166039 104.920195 235.641054 103.89501 237.465638 102.070426 
C 239.290223 100.245841 240.315407 97.770827 240.315407 95.190475 
C 240.315407 92.610123 239.290223 90.135108 237.465638 88.310524 
C 235.641054 86.485939 233.166039 85.460755 230.585687 85.460755 
C 228.005335 85.460755 225.530321 86.485939 223.705736 88.310524 
C 221.881152 90.135108 220.855967 92.610123 220.855967 95.190475 
C 220.855967 97.770827 221.881152 100.245841 223.705736 102.070426 
C 225.530321 103.89501 228.005335 104.920195 230.585687 104.920195 
z
" clip-path="url(#pc33d8a5950)" style="fill: #9467bd; stroke: #000000; stroke-linejoin: miter"/>
   </g>
   <g id="patch_12">
    <path d="M 263.017772 104.920681 
C 265.598124 104.920681 268.073139 103.895497 269.897723 102.070912 
C 271.722307 100.246328 272.747492 97.771313 272.747492 95.190961 
C 272.747492 92.610609 271.722307 90.135595 269.897723 88.31101 
C 268.073139 86.486426 265.598124 85.461241 263.017772 85.461241 
C 260.43742 85.461241 257.962405 86.486426 256.137821 88.31101 
C 254.313237 90.135595 253.288052 92.610609 253.288052 95.190961 
C 253.288052 97.771313 254.313237 100.246328 256.137821 102.070912 
C 257.962405 103.895497 260.43742 104.920681 263.017772 104.920681 
z
" clip-path="url(#pc33d8a5950)" style="fill: #8c564b; stroke: #000000; stroke-linejoin: miter"/>
   </g>
   <g id="patch_13">
    <path d="M 133.288229 169.785948 
C 135.868581 169.785948 138.343596 168.760764 140.16818 166.936179 
C 141.992765 165.111595 143.017949 162.63658 143.017949 160.056228 
C 143.017949 157.475876 141.992765 155.000862 140.16818 153.176277 
C 138.343596 151.351693 135.868581 150.326508 133.288229 150.326508 
C 130.707877 150.326508 128.232863 151.351693 126.408278 153.176277 
C 124.583694 155.000862 123.558509 157.475876 123.558509 160.056228 
C 123.558509 162.63658 124.583694 165.111595 126.408278 166.936179 
C 128.232863 168.760764 130.707877 169.785948 133.288229 169.785948 
z
" clip-path="url(#pc33d8a5950)" style="fill: #e377c2; stroke: #000000; stroke-linejoin: miter"/>
   </g>
   <g id="patch_14">
    <path d="M 165.720624 169.785542 
C 168.300976 169.785542 170.775991 168.760357 172.600575 166.935773 
C 174.425159 165.111188 175.450344 162.636174 175.450344 160.055822 
C 175.450344 157.47547 174.425159 155.000455 172.600575 153.175871 
C 170.775991 151.351286 168.300976 150.326102 165.720624 150.326102 
C 163.140272 150.326102 160.665257 151.351286 158.840673 153.175871 
C 157.016089 155.000455 155.990904 157.47547 155.990904 160.055822 
C 155.990904 162.636174 157.016089 165.111188 158.840673 166.935773 
C 160.665257 168.760357 163.140272 169.785542 165.720624 169.785542 
z
" clip-path="url(#pc33d8a5950)" style="fill: #7f7f7f; stroke: #000000; stroke-linejoin: miter"/>
   </g>
   <g id="patch_15">
    <path d="M 230.585643 169.785751 
C 233.165995 169.785751 235.64101 168.760566 237.465594 166.935982 
C 239.290179 165.111398 240.315363 162.636383 240.315363 160.056031 
C 240.315363 157.475679 239.290179 155.000664 237.465594 153.17608 
C 235.64101 151.351496 233.165995 150.326311 230.585643 150.326311 
C 228.005291 150.326311 225.530277 151.351496 223.705692 153.17608 
C 221.881108 155.000664 220.855923 157.475679 220.855923 160.056031 
C 220.855923 162.636383 221.881108 165.111398 223.705692 166.935982 
C 225.530277 168.760566 228.005291 169.785751 230.585643 169.785751 
z
" clip-path="url(#pc33d8a5950)" style="fill: #bcbd22; stroke: #000000; stroke-linejoin: miter"/>
   </g>
   <g id="patch_16">
    <path d="M 263.017789 169.785949 
C 265.598141 169.785949 268.073156 168.760765 269.89774 166.93618 
C 271.722324 165.111596 272.747509 162.636581 272.747509 160.056229 
C 272.747509 157.475877 271.722324 155.000863 269.89774 153.176278 
C 268.073156 151.351694 265.598141 150.326509 263.017789 150.326509 
C 260.437437 150.326509 257.962422 151.351694 256.137838 153.176278 
C 254.313254 155.000863 253.288069 157.475877 253.288069 160.056229 
C 253.288069 162.636581 254.313254 165.111596 256.137838 166.93618 
C 257.962422 168.760765 260.437437 169.785949 263.017789 169.785949 
z
" clip-path="url(#pc33d8a5950)" style="fill: #17becf; stroke: #000000; stroke-linejoin: miter"/>
   </g>
   <g id="patch_17">
    <path d="M 230.586033 72.488639 
C 233.166385 72.488639 235.641399 71.463455 237.465984 69.63887 
C 239.290568 67.814286 240.315753 65.339271 240.315753 62.758919 
C 240.315753 60.178568 239.290568 57.703553 237.465984 55.878969 
C 235.641399 54.054384 233.166385 53.029199 230.586033 53.029199 
C 228.005681 53.029199 225.530666 54.054384 223.706082 55.878969 
C 221.881497 57.703553 220.856313 60.178568 220.856313 62.758919 
C 220.856313 65.339271 221.881497 67.814286 223.706082 69.63887 
C 225.530666 71.463455 228.005681 72.488639 230.586033 72.488639 
z
" clip-path="url(#pc33d8a5950)" style="fill: #2f4f4f; stroke: #000000; stroke-linejoin: miter"/>
   </g>
   <g id="patch_18">
    <path d="M 230.585358 40.05625 
C 233.16571 40.05625 235.640724 39.031065 237.465309 37.206481 
C 239.289893 35.381896 240.315078 32.906881 240.315078 30.32653 
C 240.315078 27.746178 239.289893 25.271163 237.465309 23.446579 
C 235.640724 21.621994 233.16571 20.59681 230.585358 20.59681 
C 228.005006 20.59681 225.529991 21.621994 223.705407 23.446579 
C 221.880822 25.271163 220.855638 27.746178 220.855638 30.32653 
C 220.855638 32.906881 221.880822 35.381896 223.705407 37.206481 
C 225.529991 39.031065 228.005006 40.05625 230.585358 40.05625 
z
" clip-path="url(#pc33d8a5950)" style="fill: #cd5c5c; stroke: #000000; stroke-linejoin: miter"/>
   </g>
   <g id="patch_19">
    <path d="M 230.58623 7.623622 
C 233.166581 7.623622 235.641596 6.598438 237.46618 4.773853 
C 239.290765 2.949269 240.31595 0.474254 240.31595 -2.106098 
C 240.31595 -4.68645 239.290765 -7.161464 237.46618 -8.986049 
C 235.641596 -10.810633 233.166581 -11.835818 230.58623 -11.835818 
C 228.005878 -11.835818 225.530863 -10.810633 223.706279 -8.986049 
C 221.881694 -7.161464 220.85651 -4.68645 220.85651 -2.106098 
C 220.85651 0.474254 221.881694 2.949269 223.706279 4.773853 
C 225.530863 6.598438 228.005878 7.623622 230.58623 7.623622 
z
" clip-path="url(#pc33d8a5950)" style="fill: #add8e6; stroke: #000000; stroke-linejoin: miter"/>
   </g>
   <g id="patch_20">
    <path d="M 230.586268 202.218177 
C 233.16662 202.218177 235.641635 201.192993 237.466219 199.368408 
C 239.290803 197.543824 240.315988 195.068809 240.315988 192.488457 
C 240.315988 189.908105 239.290803 187.433091 237.466219 185.608506 
C 235.641635 183.783922 233.16662 182.758737 230.586268 182.758737 
C 228.005916 182.758737 225.530901 183.783922 223.706317 185.608506 
C 221.881733 187.433091 220.856548 189.908105 220.856548 192.488457 
C 220.856548 195.068809 221.881733 197.543824 223.706317 199.368408 
C 225.530901 201.192993 228.005916 202.218177 230.586268 202.218177 
z
" clip-path="url(#pc33d8a5950)" style="fill: #663399; stroke: #000000; stroke-linejoin: miter"/>
   </g>
   <g id="patch_21">
    <path d="M 230.585362 234.650444 
C 233.165714 234.650444 235.640728 233.625259 237.465313 231.800675 
C 239.289897 229.976091 240.315082 227.501076 240.315082 224.920724 
C 240.315082 222.340372 239.289897 219.865357 237.465313 218.040773 
C 235.640728 216.216189 233.165714 215.191004 230.585362 215.191004 
C 228.00501 215.191004 225.529995 216.216189 223.705411 218.040773 
C 221.880826 219.865357 220.855642 222.340372 220.855642 224.920724 
C 220.855642 227.501076 221.880826 229.976091 223.705411 231.800675 
C 225.529995 233.625259 228.00501 234.650444 230.585362 234.650444 
z
" clip-path="url(#pc33d8a5950)" style="fill: #8fbc8f; stroke: #000000; stroke-linejoin: miter"/>
   </g>
   <g id="patch_22">
    <path d="M 230.586398 267.082958 
C 233.16675 267.082958 235.641764 266.057774 237.466349 264.233189 
C 239.290933 262.408605 240.316118 259.93359 240.316118 257.353238 
C 240.316118 254.772886 239.290933 252.297872 237.466349 250.473287 
C 235.641764 248.648703 233.16675 247.623518 230.586398 247.623518 
C 228.006046 247.623518 225.531031 248.648703 223.706447 250.473287 
C 221.881862 252.297872 220.856678 254.772886 220.856678 257.353238 
C 220.856678 259.93359 221.881862 262.408605 223.706447 264.233189 
C 225.531031 266.057774 228.006046 267.082958 230.586398 267.082958 
z
" clip-path="url(#pc33d8a5950)" style="fill: #00ced1; stroke: #000000; stroke-linejoin: miter"/>
   </g>
   <g id="patch_23">
    <path d="M 165.720612 72.488794 
C 168.300963 72.488794 170.775978 71.46361 172.600563 69.639025 
C 174.425147 67.814441 175.450332 65.339426 175.450332 62.759074 
C 175.450332 60.178723 174.425147 57.703708 172.600563 55.879123 
C 170.775978 54.054539 168.300963 53.029354 165.720612 53.029354 
C 163.14026 53.029354 160.665245 54.054539 158.840661 55.879123 
C 157.016076 57.703708 155.990892 60.178723 155.990892 62.759074 
C 155.990892 65.339426 157.016076 67.814441 158.840661 69.639025 
C 160.665245 71.46361 163.14026 72.488794 165.720612 72.488794 
z
" clip-path="url(#pc33d8a5950)" style="fill: #6a5acd; stroke: #000000; stroke-linejoin: miter"/>
   </g>
   <g id="patch_24">
    <path d="M 165.720619 40.056209 
C 168.300971 40.056209 170.775986 39.031024 172.60057 37.20644 
C 174.425155 35.381855 175.450339 32.906841 175.450339 30.326489 
C 175.450339 27.746137 174.425155 25.271122 172.60057 23.446538 
C 170.775986 21.621953 168.300971 20.596769 165.720619 20.596769 
C 163.140267 20.596769 160.665253 21.621953 158.840668 23.446538 
C 157.016084 25.271122 155.990899 27.746137 155.990899 30.326489 
C 155.990899 32.906841 157.016084 35.381855 158.840668 37.20644 
C 160.665253 39.031024 163.140267 40.056209 165.720619 40.056209 
z
" clip-path="url(#pc33d8a5950)" style="fill: #808000; stroke: #000000; stroke-linejoin: miter"/>
   </g>
   <g id="patch_25">
    <path d="M 165.720577 7.623701 
C 168.300929 7.623701 170.775944 6.598516 172.600528 4.773932 
C 174.425112 2.949347 175.450297 0.474333 175.450297 -2.106019 
C 175.450297 -4.686371 174.425112 -7.161386 172.600528 -8.98597 
C 170.775944 -10.810555 168.300929 -11.835739 165.720577 -11.835739 
C 163.140225 -11.835739 160.66521 -10.810555 158.840626 -8.98597 
C 157.016042 -7.161386 155.990857 -4.686371 155.990857 -2.106019 
C 155.990857 0.474333 157.016042 2.949347 158.840626 4.773932 
C 160.66521 6.598516 163.140225 7.623701 165.720577 7.623701 
z
" clip-path="url(#pc33d8a5950)" style="fill: #a0522d; stroke: #000000; stroke-linejoin: miter"/>
   </g>
   <g id="patch_26">
    <path d="M 165.720607 202.218012 
C 168.300959 202.218012 170.775974 201.192827 172.600558 199.368243 
C 174.425143 197.543659 175.450327 195.068644 175.450327 192.488292 
C 175.450327 189.90794 174.425143 187.432925 172.600558 185.608341 
C 170.775974 183.783757 168.300959 182.758572 165.720607 182.758572 
C 163.140256 182.758572 160.665241 183.783757 158.840656 185.608341 
C 157.016072 187.432925 155.990887 189.90794 155.990887 192.488292 
C 155.990887 195.068644 157.016072 197.543659 158.840656 199.368243 
C 160.665241 201.192827 163.140256 202.218012 165.720607 202.218012 
z
" clip-path="url(#pc33d8a5950)" style="fill: #ff4500; stroke: #000000; stroke-linejoin: miter"/>
   </g>
   <g id="patch_27">
    <path d="M 165.720643 234.650396 
C 168.300995 234.650396 170.776009 233.625211 172.600594 231.800627 
C 174.425178 229.976042 175.450363 227.501027 175.450363 224.920676 
C 175.450363 222.340324 174.425178 219.865309 172.600594 218.040725 
C 170.776009 216.21614 168.300995 215.190956 165.720643 215.190956 
C 163.140291 215.190956 160.665276 216.21614 158.840692 218.040725 
C 157.016107 219.865309 155.990923 222.340324 155.990923 224.920676 
C 155.990923 227.501027 157.016107 229.976042 158.840692 231.800627 
C 160.665276 233.625211 163.140291 234.650396 165.720643 234.650396 
z
" clip-path="url(#pc33d8a5950)" style="fill: #708090; stroke: #000000; stroke-linejoin: miter"/>
   </g>
   <g id="patch_28">
    <path d="M 165.720299 267.082941 
C 168.300651 267.082941 170.775665 266.057757 172.60025 264.233172 
C 174.424834 262.408588 175.450019 259.933573 175.450019 257.353221 
C 175.450019 254.772869 174.424834 252.297855 172.60025 250.47327 
C 170.775665 248.648686 168.300651 247.623501 165.720299 247.623501 
C 163.139947 247.623501 160.664932 248.648686 158.840348 250.47327 
C 157.015763 252.297855 155.990579 254.772869 155.990579 257.353221 
C 155.990579 259.933573 157.015763 262.408588 158.840348 264.233172 
C 160.664932 266.057757 163.139947 267.082941 165.720299 267.082941 
z
" clip-path="url(#pc33d8a5950)" style="fill: #bdb76b; stroke: #000000; stroke-linejoin: miter"/>
   </g>
   <g id="line2d_59">
    <path d="M 263.0178 127.6236 
" clip-path="url(#pc33d8a5950)" style="fill: none; stroke: #1f77b4; stroke-width: 1.5; stroke-linecap: square"/>
    <defs>
     <path id="mc86b5be496" d="M 0 4.949747 
L 2.969848 0 
L 0 -4.949747 
L -2.969848 0 
z
" style="stroke: #000000; stroke-linejoin: miter"/>
    </defs>
    <g clip-path="url(#pc33d8a5950)">
     <use xlink:href="#mc86b5be496" x="263.0178" y="127.6236" style="fill: #1f77b4; stroke: #000000; stroke-linejoin: miter"/>
    </g>
   </g>
   <g id="line2d_60">
    <path d="M 263.0178 127.6236 
" clip-path="url(#pc33d8a5950)" style="fill: none; stroke: #ff7f0e; stroke-width: 1.5; stroke-linecap: square"/>
    <defs>
     <path id="ma626de0235" d="M 0 4.949747 
L 2.969848 0 
L 0 -4.949747 
L -2.969848 0 
z
" style="stroke: #000000; stroke-linejoin: miter"/>
    </defs>
    <g clip-path="url(#pc33d8a5950)">
     <use xlink:href="#ma626de0235" x="263.0178" y="127.6236" style="fill: #ff7f0e; stroke: #000000; stroke-linejoin: miter"/>
    </g>
   </g>
   <g id="line2d_61">
    <path d="M 133.2882 95.1912 
" clip-path="url(#pc33d8a5950)" style="fill: none; stroke: #2ca02c; stroke-width: 1.5; stroke-linecap: square"/>
    <defs>
     <path id="m5fe8b6dac6" d="M 0 4.949747 
L 2.969848 0 
L 0 -4.949747 
L -2.969848 0 
z
" style="stroke: #000000; stroke-linejoin: miter"/>
    </defs>
    <g clip-path="url(#pc33d8a5950)">
     <use xlink:href="#m5fe8b6dac6" x="133.2882" y="95.1912" style="fill: #2ca02c; stroke: #000000; stroke-linejoin: miter"/>
    </g>
   </g>
   <g id="line2d_62">
    <path d="M 165.7206 95.1912 
" clip-path="url(#pc33d8a5950)" style="fill: none; stroke: #d62728; stroke-width: 1.5; stroke-linecap: square"/>
    <defs>
     <path id="medc2f6f4a1" d="M 0 4.949747 
L 2.969848 0 
L 0 -4.949747 
L -2.969848 0 
z
" style="stroke: #000000; stroke-linejoin: miter"/>
    </defs>
    <g clip-path="url(#pc33d8a5950)">
     <use xlink:href="#medc2f6f4a1" x="165.7206" y="95.1912" style="fill: #d62728; stroke: #000000; stroke-linejoin: miter"/>
    </g>
   </g>
   <g id="line2d_63">
    <path d="M 230.5854 95.1912 
" clip-path="url(#pc33d8a5950)" style="fill: none; stroke: #9467bd; stroke-width: 1.5; stroke-linecap: square"/>
    <defs>
     <path id="mad1b031616" d="M 0 4.949747 
L 2.969848 0 
L 0 -4.949747 
L -2.969848 0 
z
" style="stroke: #000000; stroke-linejoin: miter"/>
    </defs>
    <g clip-path="url(#pc33d8a5950)">
     <use xlink:href="#mad1b031616" x="230.5854" y="95.1912" style="fill: #9467bd; stroke: #000000; stroke-linejoin: miter"/>
    </g>
   </g>
   <g id="line2d_64">
    <path d="M 263.0178 95.1912 
" clip-path="url(#pc33d8a5950)" style="fill: none; stroke: #8c564b; stroke-width: 1.5; stroke-linecap: square"/>
    <defs>
     <path id="mb3685f000c" d="M 0 4.949747 
L 2.969848 0 
L 0 -4.949747 
L -2.969848 0 
z
" style="stroke: #000000; stroke-linejoin: miter"/>
    </defs>
    <g clip-path="url(#pc33d8a5950)">
     <use xlink:href="#mb3685f000c" x="263.0178" y="95.1912" style="fill: #8c564b; stroke: #000000; stroke-linejoin: miter"/>
    </g>
   </g>
   <g id="line2d_65">
    <path d="M 133.2882 160.056 
" clip-path="url(#pc33d8a5950)" style="fill: none; stroke: #e377c2; stroke-width: 1.5; stroke-linecap: square"/>
    <defs>
     <path id="m32c10fdc0d" d="M 0 4.949747 
L 2.969848 0 
L 0 -4.949747 
L -2.969848 0 
z
" style="stroke: #000000; stroke-linejoin: miter"/>
    </defs>
    <g clip-path="url(#pc33d8a5950)">
     <use xlink:href="#m32c10fdc0d" x="133.2882" y="160.056" style="fill: #e377c2; stroke: #000000; stroke-linejoin: miter"/>
    </g>
   </g>
   <g id="line2d_66">
    <path d="M 165.7206 160.056 
" clip-path="url(#pc33d8a5950)" style="fill: none; stroke: #7f7f7f; stroke-width: 1.5; stroke-linecap: square"/>
    <defs>
     <path id="m790e7baa6f" d="M 0 4.949747 
L 2.969848 0 
L 0 -4.949747 
L -2.969848 0 
z
" style="stroke: #000000; stroke-linejoin: miter"/>
    </defs>
    <g clip-path="url(#pc33d8a5950)">
     <use xlink:href="#m790e7baa6f" x="165.7206" y="160.056" style="fill: #7f7f7f; stroke: #000000; stroke-linejoin: miter"/>
    </g>
   </g>
   <g id="line2d_67">
    <path d="M 230.5854 160.056 
" clip-path="url(#pc33d8a5950)" style="fill: none; stroke: #bcbd22; stroke-width: 1.5; stroke-linecap: square"/>
    <defs>
     <path id="m2e6cfe7b2e" d="M 0 4.949747 
L 2.969848 0 
L 0 -4.949747 
L -2.969848 0 
z
" style="stroke: #000000; stroke-linejoin: miter"/>
    </defs>
    <g clip-path="url(#pc33d8a5950)">
     <use xlink:href="#m2e6cfe7b2e" x="230.5854" y="160.056" style="fill: #bcbd22; stroke: #000000; stroke-linejoin: miter"/>
    </g>
   </g>
   <g id="line2d_68">
    <path d="M 263.0178 160.056 
" clip-path="url(#pc33d8a5950)" style="fill: none; stroke: #17becf; stroke-width: 1.5; stroke-linecap: square"/>
    <defs>
     <path id="m286a62c5af" d="M 0 4.949747 
L 2.969848 0 
L 0 -4.949747 
L -2.969848 0 
z
" style="stroke: #000000; stroke-linejoin: miter"/>
    </defs>
    <g clip-path="url(#pc33d8a5950)">
     <use xlink:href="#m286a62c5af" x="263.0178" y="160.056" style="fill: #17becf; stroke: #000000; stroke-linejoin: miter"/>
    </g>
   </g>
   <g id="line2d_69">
    <path d="M 230.5854 62.7588 
" clip-path="url(#pc33d8a5950)" style="fill: none; stroke: #2f4f4f; stroke-width: 1.5; stroke-linecap: square"/>
    <defs>
     <path id="mdc70476a90" d="M 0 4.949747 
L 2.969848 0 
L 0 -4.949747 
L -2.969848 0 
z
" style="stroke: #000000; stroke-linejoin: miter"/>
    </defs>
    <g clip-path="url(#pc33d8a5950)">
     <use xlink:href="#mdc70476a90" x="230.5854" y="62.7588" style="fill: #2f4f4f; stroke: #000000; stroke-linejoin: miter"/>
    </g>
   </g>
   <g id="line2d_70">
    <path d="M 230.5854 30.3264 
" clip-path="url(#pc33d8a5950)" style="fill: none; stroke: #cd5c5c; stroke-width: 1.5; stroke-linecap: square"/>
    <defs>
     <path id="m5cae0c9920" d="M 0 4.949747 
L 2.969848 0 
L 0 -4.949747 
L -2.969848 0 
z
" style="stroke: #000000; stroke-linejoin: miter"/>
    </defs>
    <g clip-path="url(#pc33d8a5950)">
     <use xlink:href="#m5cae0c9920" x="230.5854" y="30.3264" style="fill: #cd5c5c; stroke: #000000; stroke-linejoin: miter"/>
    </g>
   </g>
   <g id="line2d_71">
    <path clip-path="url(#pc33d8a5950)" style="fill: none; stroke: #add8e6; stroke-width: 1.5; stroke-linecap: square"/>
    <defs>
     <path id="m6c35bbdd12" d="M 0 4.949747 
L 2.969848 0 
L 0 -4.949747 
L -2.969848 0 
z
" style="stroke: #000000; stroke-linejoin: miter"/>
    </defs>
    <g clip-path="url(#pc33d8a5950)"/>
   </g>
   <g id="line2d_72">
    <path d="M 230.5854 192.4884 
" clip-path="url(#pc33d8a5950)" style="fill: none; stroke: #663399; stroke-width: 1.5; stroke-linecap: square"/>
    <defs>
     <path id="m72b5d39c04" d="M 0 4.949747 
L 2.969848 0 
L 0 -4.949747 
L -2.969848 0 
z
" style="stroke: #000000; stroke-linejoin: miter"/>
    </defs>
    <g clip-path="url(#pc33d8a5950)">
     <use xlink:href="#m72b5d39c04" x="230.5854" y="192.4884" style="fill: #663399; stroke: #000000; stroke-linejoin: miter"/>
    </g>
   </g>
   <g id="line2d_73">
    <path d="M 230.5854 224.9208 
" clip-path="url(#pc33d8a5950)" style="fill: none; stroke: #8fbc8f; stroke-width: 1.5; stroke-linecap: square"/>
    <defs>
     <path id="m5e857a030a" d="M 0 4.949747 
L 2.969848 0 
L 0 -4.949747 
L -2.969848 0 
z
" style="stroke: #000000; stroke-linejoin: miter"/>
    </defs>
    <g clip-path="url(#pc33d8a5950)">
     <use xlink:href="#m5e857a030a" x="230.5854" y="224.9208" style="fill: #8fbc8f; stroke: #000000; stroke-linejoin: miter"/>
    </g>
   </g>
   <g id="line2d_74">
    <path clip-path="url(#pc33d8a5950)" style="fill: none; stroke: #00ced1; stroke-width: 1.5; stroke-linecap: square"/>
    <defs>
     <path id="m9f05ef5554" d="M 0 4.949747 
L 2.969848 0 
L 0 -4.949747 
L -2.969848 0 
z
" style="stroke: #000000; stroke-linejoin: miter"/>
    </defs>
    <g clip-path="url(#pc33d8a5950)">
     <use xlink:href="#m9f05ef5554" x="230.5854" y="257.3532" style="fill: #00ced1; stroke: #000000; stroke-linejoin: miter"/>
    </g>
   </g>
   <g id="line2d_75">
    <path d="M 165.7206 62.7588 
" clip-path="url(#pc33d8a5950)" style="fill: none; stroke: #6a5acd; stroke-width: 1.5; stroke-linecap: square"/>
    <defs>
     <path id="md2cf2bd723" d="M 0 4.949747 
L 2.969848 0 
L 0 -4.949747 
L -2.969848 0 
z
" style="stroke: #000000; stroke-linejoin: miter"/>
    </defs>
    <g clip-path="url(#pc33d8a5950)">
     <use xlink:href="#md2cf2bd723" x="165.7206" y="62.7588" style="fill: #6a5acd; stroke: #000000; stroke-linejoin: miter"/>
    </g>
   </g>
   <g id="line2d_76">
    <path d="M 165.7206 30.3264 
" clip-path="url(#pc33d8a5950)" style="fill: none; stroke: #808000; stroke-width: 1.5; stroke-linecap: square"/>
    <defs>
     <path id="mde42c2b594" d="M 0 4.949747 
L 2.969848 0 
L 0 -4.949747 
L -2.969848 0 
z
" style="stroke: #000000; stroke-linejoin: miter"/>
    </defs>
    <g clip-path="url(#pc33d8a5950)">
     <use xlink:href="#mde42c2b594" x="165.7206" y="30.3264" style="fill: #808000; stroke: #000000; stroke-linejoin: miter"/>
    </g>
   </g>
   <g id="line2d_77">
    <path clip-path="url(#pc33d8a5950)" style="fill: none; stroke: #a0522d; stroke-width: 1.5; stroke-linecap: square"/>
    <defs>
     <path id="mb808f07d4a" d="M 0 4.949747 
L 2.969848 0 
L 0 -4.949747 
L -2.969848 0 
z
" style="stroke: #000000; stroke-linejoin: miter"/>
    </defs>
    <g clip-path="url(#pc33d8a5950)"/>
   </g>
   <g id="line2d_78">
    <path d="M 165.7206 192.4884 
" clip-path="url(#pc33d8a5950)" style="fill: none; stroke: #ff4500; stroke-width: 1.5; stroke-linecap: square"/>
    <defs>
     <path id="m926966f476" d="M 0 4.949747 
L 2.969848 0 
L 0 -4.949747 
L -2.969848 0 
z
" style="stroke: #000000; stroke-linejoin: miter"/>
    </defs>
    <g clip-path="url(#pc33d8a5950)">
     <use xlink:href="#m926966f476" x="165.7206" y="192.4884" style="fill: #ff4500; stroke: #000000; stroke-linejoin: miter"/>
    </g>
   </g>
   <g id="line2d_79">
    <path d="M 165.7206 224.9208 
" clip-path="url(#pc33d8a5950)" style="fill: none; stroke: #708090; stroke-width: 1.5; stroke-linecap: square"/>
    <defs>
     <path id="m0aa959e899" d="M 0 4.949747 
L 2.969848 0 
L 0 -4.949747 
L -2.969848 0 
z
" style="stroke: #000000; stroke-linejoin: miter"/>
    </defs>
    <g clip-path="url(#pc33d8a5950)">
     <use xlink:href="#m0aa959e899" x="165.7206" y="224.9208" style="fill: #708090; stroke: #000000; stroke-linejoin: miter"/>
    </g>
   </g>
   <g id="line2d_80">
    <path clip-path="url(#pc33d8a5950)" style="fill: none; stroke: #bdb76b; stroke-width: 1.5; stroke-linecap: square"/>
    <defs>
     <path id="m416deceea7" d="M 0 4.949747 
L 2.969848 0 
L 0 -4.949747 
L -2.969848 0 
z
" style="stroke: #000000; stroke-linejoin: miter"/>
    </defs>
    <g clip-path="url(#pc33d8a5950)">
     <use xlink:href="#m416deceea7" x="165.7206" y="257.3532" style="fill: #bdb76b; stroke: #000000; stroke-linejoin: miter"/>
    </g>
   </g>
  </g>
 </g>
 <defs>
  <clipPath id="pc33d8a5950">
   <rect x="100.8558" y="30.3264" width="194.5944" height="194.5944"/>
  </clipPath>
 </defs>
</svg>
