<?xml version="1.0" encoding="utf-8" standalone="no"?>
<!DOCTYPE svg PUBLIC "-//W3C//DTD SVG 1.1//EN"
  "http://www.w3.org/Graphics/SVG/1.1/DTD/svg11.dtd">
<svg xmlns:xlink="http://www.w3.org/1999/xlink" width="386.64pt" height="252.72pt" viewBox="0 0 386.64 252.72" xmlns="http://www.w3.org/2000/svg" version="1.1">
 <metadata>
  <rdf:RDF xmlns:dc="http://purl.org/dc/elements/1.1/" xmlns:cc="http://creativecommons.org/ns#" xmlns:rdf="http://www.w3.org/1999/02/22-rdf-syntax-ns#">
   <cc:Work>
    <dc:type rdf:resource="http://purl.org/dc/dcmitype/StillImage"/>
    <dc:date>2023-07-11T22:26:57.676679</dc:date>
    <dc:format>image/svg+xml</dc:format>
    <dc:creator>
     <cc:Agent>
      <dc:title>Matplotlib v3.6.2, https://matplotlib.org/</dc:title>
     </cc:Agent>
    </dc:creator>
   </cc:Work>
  </rdf:RDF>
 </metadata>
 <defs>
  <style type="text/css">*{stroke-linejoin: round; stroke-linecap: butt}</style>
 </defs>
 <g id="figure_1">
  <g id="patch_1">
   <path d="M 0 252.72 
L 386.64 252.72 
L 386.64 0 
L 0 0 
z
" style="fill: #ffffff"/>
  </g>
  <g id="axes_1">
   <g id="patch_2">
    <path d="M 100.8558 224.9208 
L 295.4502 224.9208 
L 295.4502 30.3264 
L 100.8558 30.3264 
z
" style="fill: #ffffff"/>
   </g>
   <g id="matplotlib.axis_1">
    <g id="xtick_1">
     <g id="line2d_1">
      <defs>
       <path id="mafa565d82c" d="M 0 0 
L 0 3.5 
" style="stroke: #000000; stroke-width: 0.8"/>
      </defs>
      <g>
       <use xlink:href="#mafa565d82c" x="100.8558" y="224.9208" style="stroke: #000000; stroke-width: 0.8"/>
      </g>
     </g>
     <g id="text_1">
      <!-- −0.5 -->
      <g transform="translate(88.714394 239.519237) scale(0.1 -0.1)">
       <defs>
        <path id="DejaVuSans-2212" d="M 678 2272 
L 4684 2272 
L 4684 1741 
L 678 1741 
L 678 2272 
z
" transform="scale(0.015625)"/>
        <path id="DejaVuSans-30" d="M 2034 4250 
Q 1547 4250 1301 3770 
Q 1056 3291 1056 2328 
Q 1056 1369 1301 889 
Q 1547 409 2034 409 
Q 2525 409 2770 889 
Q 3016 1369 3016 2328 
Q 3016 3291 2770 3770 
Q 2525 4250 2034 4250 
z
M 2034 4750 
Q 2819 4750 3233 4129 
Q 3647 3509 3647 2328 
Q 3647 1150 3233 529 
Q 2819 -91 2034 -91 
Q 1250 -91 836 529 
Q 422 1150 422 2328 
Q 422 3509 836 4129 
Q 1250 4750 2034 4750 
z
" transform="scale(0.015625)"/>
        <path id="DejaVuSans-2e" d="M 684 794 
L 1344 794 
L 1344 0 
L 684 0 
L 684 794 
z
" transform="scale(0.015625)"/>
        <path id="DejaVuSans-35" d="M 691 4666 
L 3169 4666 
L 3169 4134 
L 1269 4134 
L 1269 2991 
Q 1406 3038 1543 3061 
Q 1681 3084 1819 3084 
Q 2600 3084 3056 2656 
Q 3513 2228 3513 1497 
Q 3513 744 3044 326 
Q 2575 -91 1722 -91 
Q 1428 -91 1123 -41 
Q 819 9 494 109 
L 494 744 
Q 775 591 1075 516 
Q 1375 441 1709 441 
Q 2250 441 2565 725 
Q 2881 1009 2881 1497 
Q 2881 1984 2565 2268 
Q 2250 2553 1709 2553 
Q 1456 2553 1204 2497 
Q 953 2441 691 2322 
L 691 4666 
z
" transform="scale(0.015625)"/>
       </defs>
       <use xlink:href="#DejaVuSans-2212"/>
       <use xlink:href="#DejaVuSans-30" x="83.789062"/>
       <use xlink:href="#DejaVuSans-2e" x="147.412109"/>
       <use xlink:href="#DejaVuSans-35" x="179.199219"/>
      </g>
     </g>
    </g>
    <g id="xtick_2">
     <g id="line2d_2">
      <g>
       <use xlink:href="#mafa565d82c" x="133.2882" y="224.9208" style="stroke: #000000; stroke-width: 0.8"/>
      </g>
     </g>
     <g id="text_2">
      <!-- 0.0 -->
      <g transform="translate(125.336638 239.519237) scale(0.1 -0.1)">
       <use xlink:href="#DejaVuSans-30"/>
       <use xlink:href="#DejaVuSans-2e" x="63.623047"/>
       <use xlink:href="#DejaVuSans-30" x="95.410156"/>
      </g>
     </g>
    </g>
    <g id="xtick_3">
     <g id="line2d_3">
      <g>
       <use xlink:href="#mafa565d82c" x="165.7206" y="224.9208" style="stroke: #000000; stroke-width: 0.8"/>
      </g>
     </g>
     <g id="text_3">
      <!-- 0.5 -->
      <g transform="translate(157.769037 239.519237) scale(0.1 -0.1)">
       <use xlink:href="#DejaVuSans-30"/>
       <use xlink:href="#DejaVuSans-2e" x="63.623047"/>
       <use xlink:href="#DejaVuSans-35" x="95.410156"/>
      </g>
     </g>
    </g>
    <g id="xtick_4">
     <g id="line2d_4">
      <g>
       <use xlink:href="#mafa565d82c" x="198.153" y="224.9208" style="stroke: #000000; stroke-width: 0.8"/>
      </g>
     </g>
     <g id="text_4">
      <!-- 1.0 -->
      <g transform="translate(190.201437 239.519237) scale(0.1 -0.1)">
       <defs>
        <path id="DejaVuSans-31" d="M 794 531 
L 1825 531 
L 1825 4091 
L 703 3866 
L 703 4441 
L 1819 4666 
L 2450 4666 
L 2450 531 
L 3481 531 
L 3481 0 
L 794 0 
L 794 531 
z
" transform="scale(0.015625)"/>
       </defs>
       <use xlink:href="#DejaVuSans-31"/>
       <use xlink:href="#DejaVuSans-2e" x="63.623047"/>
       <use xlink:href="#DejaVuSans-30" x="95.410156"/>
      </g>
     </g>
    </g>
    <g id="xtick_5">
     <g id="line2d_5">
      <g>
       <use xlink:href="#mafa565d82c" x="230.5854" y="224.9208" style="stroke: #000000; stroke-width: 0.8"/>
      </g>
     </g>
     <g id="text_5">
      <!-- 1.5 -->
      <g transform="translate(222.633837 239.519237) scale(0.1 -0.1)">
       <use xlink:href="#DejaVuSans-31"/>
       <use xlink:href="#DejaVuSans-2e" x="63.623047"/>
       <use xlink:href="#DejaVuSans-35" x="95.410156"/>
      </g>
     </g>
    </g>
    <g id="xtick_6">
     <g id="line2d_6">
      <g>
       <use xlink:href="#mafa565d82c" x="263.0178" y="224.9208" style="stroke: #000000; stroke-width: 0.8"/>
      </g>
     </g>
     <g id="text_6">
      <!-- 2.0 -->
      <g transform="translate(255.066237 239.519237) scale(0.1 -0.1)">
       <defs>
        <path id="DejaVuSans-32" d="M 1228 531 
L 3431 531 
L 3431 0 
L 469 0 
L 469 531 
Q 828 903 1448 1529 
Q 2069 2156 2228 2338 
Q 2531 2678 2651 2914 
Q 2772 3150 2772 3378 
Q 2772 3750 2511 3984 
Q 2250 4219 1831 4219 
Q 1534 4219 1204 4116 
Q 875 4013 500 3803 
L 500 4441 
Q 881 4594 1212 4672 
Q 1544 4750 1819 4750 
Q 2544 4750 2975 4387 
Q 3406 4025 3406 3419 
Q 3406 3131 3298 2873 
Q 3191 2616 2906 2266 
Q 2828 2175 2409 1742 
Q 1991 1309 1228 531 
z
" transform="scale(0.015625)"/>
       </defs>
       <use xlink:href="#DejaVuSans-32"/>
       <use xlink:href="#DejaVuSans-2e" x="63.623047"/>
       <use xlink:href="#DejaVuSans-30" x="95.410156"/>
      </g>
     </g>
    </g>
    <g id="xtick_7">
     <g id="line2d_7">
      <g>
       <use xlink:href="#mafa565d82c" x="295.4502" y="224.9208" style="stroke: #000000; stroke-width: 0.8"/>
      </g>
     </g>
     <g id="text_7">
      <!-- 2.5 -->
      <g transform="translate(287.498637 239.519237) scale(0.1 -0.1)">
       <use xlink:href="#DejaVuSans-32"/>
       <use xlink:href="#DejaVuSans-2e" x="63.623047"/>
       <use xlink:href="#DejaVuSans-35" x="95.410156"/>
      </g>
     </g>
    </g>
    <g id="text_8">
     <!-- x(m) -->
     <g transform="translate(186.42175 253.197362) scale(0.1 -0.1)">
      <defs>
       <path id="DejaVuSans-78" d="M 3513 3500 
L 2247 1797 
L 3578 0 
L 2900 0 
L 1881 1375 
L 863 0 
L 184 0 
L 1544 1831 
L 300 3500 
L 978 3500 
L 1906 2253 
L 2834 3500 
L 3513 3500 
z
" transform="scale(0.015625)"/>
       <path id="DejaVuSans-28" d="M 1984 4856 
Q 1566 4138 1362 3434 
Q 1159 2731 1159 2009 
Q 1159 1288 1364 580 
Q 1569 -128 1984 -844 
L 1484 -844 
Q 1016 -109 783 600 
Q 550 1309 550 2009 
Q 550 2706 781 3412 
Q 1013 4119 1484 4856 
L 1984 4856 
z
" transform="scale(0.015625)"/>
       <path id="DejaVuSans-6d" d="M 3328 2828 
Q 3544 3216 3844 3400 
Q 4144 3584 4550 3584 
Q 5097 3584 5394 3201 
Q 5691 2819 5691 2113 
L 5691 0 
L 5113 0 
L 5113 2094 
Q 5113 2597 4934 2840 
Q 4756 3084 4391 3084 
Q 3944 3084 3684 2787 
Q 3425 2491 3425 1978 
L 3425 0 
L 2847 0 
L 2847 2094 
Q 2847 2600 2669 2842 
Q 2491 3084 2119 3084 
Q 1678 3084 1418 2786 
Q 1159 2488 1159 1978 
L 1159 0 
L 581 0 
L 581 3500 
L 1159 3500 
L 1159 2956 
Q 1356 3278 1631 3431 
Q 1906 3584 2284 3584 
Q 2666 3584 2933 3390 
Q 3200 3197 3328 2828 
z
" transform="scale(0.015625)"/>
       <path id="DejaVuSans-29" d="M 513 4856 
L 1013 4856 
Q 1481 4119 1714 3412 
Q 1947 2706 1947 2009 
Q 1947 1309 1714 600 
Q 1481 -109 1013 -844 
L 513 -844 
Q 928 -128 1133 580 
Q 1338 1288 1338 2009 
Q 1338 2731 1133 3434 
Q 928 4138 513 4856 
z
" transform="scale(0.015625)"/>
      </defs>
      <use xlink:href="#DejaVuSans-78"/>
      <use xlink:href="#DejaVuSans-28" x="59.179688"/>
      <use xlink:href="#DejaVuSans-6d" x="98.193359"/>
      <use xlink:href="#DejaVuSans-29" x="195.605469"/>
     </g>
    </g>
   </g>
   <g id="matplotlib.axis_2">
    <g id="ytick_1">
     <g id="line2d_8">
      <defs>
       <path id="m3c6944be4d" d="M 0 0 
L -3.5 0 
" style="stroke: #000000; stroke-width: 0.8"/>
      </defs>
      <g>
       <use xlink:href="#m3c6944be4d" x="100.8558" y="224.9208" style="stroke: #000000; stroke-width: 0.8"/>
      </g>
     </g>
     <g id="text_9">
      <!-- −0.5 -->
      <g transform="translate(69.572988 228.720019) scale(0.1 -0.1)">
       <use xlink:href="#DejaVuSans-2212"/>
       <use xlink:href="#DejaVuSans-30" x="83.789062"/>
       <use xlink:href="#DejaVuSans-2e" x="147.412109"/>
       <use xlink:href="#DejaVuSans-35" x="179.199219"/>
      </g>
     </g>
    </g>
    <g id="ytick_2">
     <g id="line2d_9">
      <g>
       <use xlink:href="#m3c6944be4d" x="100.8558" y="192.4884" style="stroke: #000000; stroke-width: 0.8"/>
      </g>
     </g>
     <g id="text_10">
      <!-- 0.0 -->
      <g transform="translate(77.952675 196.287619) scale(0.1 -0.1)">
       <use xlink:href="#DejaVuSans-30"/>
       <use xlink:href="#DejaVuSans-2e" x="63.623047"/>
       <use xlink:href="#DejaVuSans-30" x="95.410156"/>
      </g>
     </g>
    </g>
    <g id="ytick_3">
     <g id="line2d_10">
      <g>
       <use xlink:href="#m3c6944be4d" x="100.8558" y="160.056" style="stroke: #000000; stroke-width: 0.8"/>
      </g>
     </g>
     <g id="text_11">
      <!-- 0.5 -->
      <g transform="translate(77.952675 163.855219) scale(0.1 -0.1)">
       <use xlink:href="#DejaVuSans-30"/>
       <use xlink:href="#DejaVuSans-2e" x="63.623047"/>
       <use xlink:href="#DejaVuSans-35" x="95.410156"/>
      </g>
     </g>
    </g>
    <g id="ytick_4">
     <g id="line2d_11">
      <g>
       <use xlink:href="#m3c6944be4d" x="100.8558" y="127.6236" style="stroke: #000000; stroke-width: 0.8"/>
      </g>
     </g>
     <g id="text_12">
      <!-- 1.0 -->
      <g transform="translate(77.952675 131.422819) scale(0.1 -0.1)">
       <use xlink:href="#DejaVuSans-31"/>
       <use xlink:href="#DejaVuSans-2e" x="63.623047"/>
       <use xlink:href="#DejaVuSans-30" x="95.410156"/>
      </g>
     </g>
    </g>
    <g id="ytick_5">
     <g id="line2d_12">
      <g>
       <use xlink:href="#m3c6944be4d" x="100.8558" y="95.1912" style="stroke: #000000; stroke-width: 0.8"/>
      </g>
     </g>
     <g id="text_13">
      <!-- 1.5 -->
      <g transform="translate(77.952675 98.990419) scale(0.1 -0.1)">
       <use xlink:href="#DejaVuSans-31"/>
       <use xlink:href="#DejaVuSans-2e" x="63.623047"/>
       <use xlink:href="#DejaVuSans-35" x="95.410156"/>
      </g>
     </g>
    </g>
    <g id="ytick_6">
     <g id="line2d_13">
      <g>
       <use xlink:href="#m3c6944be4d" x="100.8558" y="62.7588" style="stroke: #000000; stroke-width: 0.8"/>
      </g>
     </g>
     <g id="text_14">
      <!-- 2.0 -->
      <g transform="translate(77.952675 66.558019) scale(0.1 -0.1)">
       <use xlink:href="#DejaVuSans-32"/>
       <use xlink:href="#DejaVuSans-2e" x="63.623047"/>
       <use xlink:href="#DejaVuSans-30" x="95.410156"/>
      </g>
     </g>
    </g>
    <g id="ytick_7">
     <g id="line2d_14">
      <g>
       <use xlink:href="#m3c6944be4d" x="100.8558" y="30.3264" style="stroke: #000000; stroke-width: 0.8"/>
      </g>
     </g>
     <g id="text_15">
      <!-- 2.5 -->
      <g transform="translate(77.952675 34.125619) scale(0.1 -0.1)">
       <use xlink:href="#DejaVuSans-32"/>
       <use xlink:href="#DejaVuSans-2e" x="63.623047"/>
       <use xlink:href="#DejaVuSans-35" x="95.410156"/>
      </g>
     </g>
    </g>
    <g id="text_16">
     <!-- y(m) -->
     <g transform="translate(63.4933 139.35485) rotate(-90) scale(0.1 -0.1)">
      <defs>
       <path id="DejaVuSans-79" d="M 2059 -325 
Q 1816 -950 1584 -1140 
Q 1353 -1331 966 -1331 
L 506 -1331 
L 506 -850 
L 844 -850 
Q 1081 -850 1212 -737 
Q 1344 -625 1503 -206 
L 1606 56 
L 191 3500 
L 800 3500 
L 1894 763 
L 2988 3500 
L 3597 3500 
L 2059 -325 
z
" transform="scale(0.015625)"/>
      </defs>
      <use xlink:href="#DejaVuSans-79"/>
      <use xlink:href="#DejaVuSans-28" x="59.179688"/>
      <use xlink:href="#DejaVuSans-6d" x="98.193359"/>
      <use xlink:href="#DejaVuSans-29" x="195.605469"/>
     </g>
    </g>
   </g>
   <g id="line2d_15">
    <path d="M 263.017798 127.623601 
L 263.01778 127.623605 
L 263.017802 127.6236 
L 263.0178 127.6236 
L 263.017802 127.6236 
L 263.017818 127.623597 
L 263.017935 127.623578 
L 263.018618 127.623464 
L 263.021898 127.622919 
L 263.030354 127.621513 
L 263.029962 127.621578 
L 263.050333 127.61819 
L 263.050333 127.61819 
" clip-path="url(#pfbc75d90a6)" style="fill: none; stroke-dasharray: 2,3.3; stroke-dashoffset: 0; stroke: #1f77b4; stroke-width: 2"/>
   </g>
   <g id="line2d_16">
    <path d="M 133.2882 127.6236 
L 133.2882 127.6236 
L 133.768676 127.621531 
L 138.573349 127.593776 
L 147.701648 127.493337 
L 160.673863 127.41217 
L 173.646739 127.459601 
L 186.619963 127.486284 
L 199.592908 127.523189 
L 212.567005 127.607597 
L 225.536461 127.5202 
L 238.341407 126.667687 
L 249.679077 126.428069 
L 257.640665 127.139288 
L 262.299995 127.540144 
L 263.112185 127.634279 
L 263.006673 127.622341 
L 263.019112 127.623748 
L 263.017645 127.623583 
L 263.017818 127.623602 
L 263.017798 127.6236 
L 263.0178 127.6236 
L 263.017798 127.623601 
" clip-path="url(#pfbc75d90a6)" style="fill: none; stroke: #1f77b4; stroke-width: 2; stroke-linecap: square"/>
   </g>
   <g id="line2d_17">
    <path d="M 241.575887 131.189232 
L 241.579333 131.188524 
L 241.580053 131.188356 
L 241.580375 131.188281 
L 241.580556 131.188239 
L 241.580751 131.188199 
L 241.581328 131.188098 
L 241.58287 131.187838 
L 241.58683 131.187178 
L 241.591941 131.186326 
L 241.596069 131.185637 
L 241.599508 131.185064 
L 241.599508 131.185064 
" clip-path="url(#pfbc75d90a6)" style="fill: none; stroke-dasharray: 2,3.3; stroke-dashoffset: 0; stroke: #ff7f0e; stroke-width: 2"/>
   </g>
   <g id="line2d_18">
    <path d="M 198.153 205.46136 
L 198.153 205.46136 
L 198.164648 204.981025 
L 198.417246 200.200816 
L 199.877385 191.454013 
L 201.48243 180.264573 
L 202.738317 169.560811 
L 204.917797 161.07713 
L 207.09932 154.814228 
L 209.379241 150.892168 
L 211.999015 147.096721 
L 218.032057 141.250712 
L 226.183594 137.004547 
L 232.872114 134.000627 
L 237.806064 132.265695 
L 240.06566 131.422425 
L 240.879042 131.192219 
L 241.162835 131.331402 
L 241.412368 131.239806 
L 241.510508 131.207438 
L 241.550795 131.195585 
L 241.568181 131.191014 
L 241.575887 131.189232 
" clip-path="url(#pfbc75d90a6)" style="fill: none; stroke: #ff7f0e; stroke-width: 2; stroke-linecap: square"/>
   </g>
   <g id="line2d_19">
    <path d="M 133.288223 95.190935 
L 133.288221 95.190934 
L 133.288218 95.190933 
L 133.288216 95.190936 
L 133.288213 95.190942 
L 133.288211 95.190951 
L 133.288209 95.190964 
L 133.288207 95.190981 
L 133.288205 95.190998 
L 133.288204 95.191015 
L 133.288203 95.191027 
L 133.288203 95.191033 
L 133.288203 95.191033 
" clip-path="url(#pfbc75d90a6)" style="fill: none; stroke-dasharray: 2,3.3; stroke-dashoffset: 0; stroke: #2ca02c; stroke-width: 2"/>
   </g>
   <g id="line2d_20">
    <path d="M 133.2882 95.1912 
L 133.2882 95.1912 
L 133.2882 95.1912 
L 133.288202 95.1912 
L 133.288204 95.191197 
L 133.288206 95.19119 
L 133.288211 95.191173 
L 133.288216 95.191155 
L 133.288222 95.191135 
L 133.288224 95.191111 
L 133.288228 95.191086 
L 133.28823 95.191064 
L 133.288232 95.191043 
L 133.288235 95.191023 
L 133.288236 95.191005 
L 133.288236 95.19099 
L 133.288235 95.190976 
L 133.288234 95.190965 
L 133.288232 95.190955 
L 133.28823 95.190948 
L 133.288228 95.190942 
L 133.288225 95.190938 
L 133.288223 95.190935 
" clip-path="url(#pfbc75d90a6)" style="fill: none; stroke: #2ca02c; stroke-width: 2; stroke-linecap: square"/>
   </g>
   <g id="line2d_21">
    <path d="M 165.720621 95.191278 
L 165.72065 95.191298 
L 165.720684 95.19132 
L 165.720717 95.191339 
L 165.720738 95.191347 
L 165.720746 95.191344 
L 165.720743 95.191333 
L 165.720733 95.191314 
L 165.720717 95.19129 
L 165.7207 95.191265 
L 165.720686 95.191243 
L 165.720679 95.191232 
L 165.720679 95.191232 
" clip-path="url(#pfbc75d90a6)" style="fill: none; stroke-dasharray: 2,3.3; stroke-dashoffset: 0; stroke: #d62728; stroke-width: 2"/>
   </g>
   <g id="line2d_22">
    <path d="M 165.7206 95.1912 
L 165.7206 95.1912 
L 165.720601 95.191194 
L 165.720603 95.19115 
L 165.720581 95.191153 
L 165.720541 95.191158 
L 165.720483 95.19116 
L 165.720422 95.191125 
L 165.720366 95.191081 
L 165.720311 95.191045 
L 165.720281 95.191024 
L 165.720264 95.191013 
L 165.720261 95.191012 
L 165.720272 95.191017 
L 165.720291 95.191024 
L 165.720326 95.19105 
L 165.720369 95.191085 
L 165.720416 95.191123 
L 165.720464 95.19116 
L 165.720509 95.191195 
L 165.720551 95.191227 
L 165.720588 95.191254 
L 165.720621 95.191278 
" clip-path="url(#pfbc75d90a6)" style="fill: none; stroke: #d62728; stroke-width: 2; stroke-linecap: square"/>
   </g>
   <g id="line2d_23">
    <path d="M 230.585704 95.190535 
L 230.585699 95.190502 
L 230.585717 95.190479 
L 230.58575 95.190501 
L 230.585767 95.19059 
L 230.585761 95.190714 
L 230.58573 95.190837 
L 230.585677 95.190943 
L 230.585614 95.191034 
L 230.585551 95.19111 
L 230.585504 95.191161 
L 230.585482 95.191184 
L 230.585482 95.191184 
" clip-path="url(#pfbc75d90a6)" style="fill: none; stroke-dasharray: 2,3.3; stroke-dashoffset: 0; stroke: #9467bd; stroke-width: 2"/>
   </g>
   <g id="line2d_24">
    <path d="M 230.5854 95.1912 
L 230.5854 95.1912 
L 230.5854 95.191198 
L 230.585399 95.191183 
L 230.585405 95.191174 
L 230.585427 95.191186 
L 230.585443 95.191202 
L 230.585457 95.191257 
L 230.585477 95.191298 
L 230.585509 95.191287 
L 230.585553 95.191222 
L 230.585594 95.19117 
L 230.58563 95.191129 
L 230.585659 95.191094 
L 230.585686 95.191036 
L 230.585704 95.190962 
L 230.585716 95.190885 
L 230.585722 95.190811 
L 230.585723 95.190742 
L 230.585721 95.190679 
L 230.585717 95.190624 
L 230.585711 95.190576 
L 230.585704 95.190535 
" clip-path="url(#pfbc75d90a6)" style="fill: none; stroke: #9467bd; stroke-width: 2; stroke-linecap: square"/>
   </g>
   <g id="line2d_25">
    <path d="M 263.017768 95.190957 
L 263.01777 95.190959 
L 263.017772 95.190962 
L 263.017774 95.190968 
L 263.017776 95.190977 
L 263.017779 95.19099 
L 263.017782 95.191006 
L 263.017784 95.191024 
L 263.017787 95.191044 
L 263.017789 95.191061 
L 263.01779 95.191074 
L 263.017791 95.191079 
L 263.017791 95.191079 
" clip-path="url(#pfbc75d90a6)" style="fill: none; stroke-dasharray: 2,3.3; stroke-dashoffset: 0; stroke: #8c564b; stroke-width: 2"/>
   </g>
   <g id="line2d_26">
    <path d="M 263.0178 95.1912 
L 263.0178 95.1912 
L 263.017801 95.1912 
L 263.017807 95.191203 
L 263.017812 95.191199 
L 263.017815 95.191193 
L 263.017817 95.191185 
L 263.017818 95.191173 
L 263.017819 95.191161 
L 263.017818 95.19115 
L 263.017817 95.191135 
L 263.017814 95.191106 
L 263.017803 95.191071 
L 263.017793 95.191044 
L 263.017784 95.191022 
L 263.017777 95.191004 
L 263.017772 95.190989 
L 263.017769 95.190978 
L 263.017766 95.190969 
L 263.017765 95.190963 
L 263.017765 95.190959 
L 263.017766 95.190957 
L 263.017768 95.190957 
" clip-path="url(#pfbc75d90a6)" style="fill: none; stroke: #8c564b; stroke-width: 2; stroke-linecap: square"/>
   </g>
   <g id="line2d_27">
    <path d="M 133.288238 160.056217 
L 133.288234 160.056223 
L 133.288229 160.056228 
L 133.288225 160.056231 
L 133.288221 160.05623 
L 133.288217 160.056225 
L 133.288213 160.056216 
L 133.28821 160.056204 
L 133.288207 160.056189 
L 133.288205 160.056175 
L 133.288204 160.056165 
L 133.288203 160.05616 
L 133.288203 160.05616 
" clip-path="url(#pfbc75d90a6)" style="fill: none; stroke-dasharray: 2,3.3; stroke-dashoffset: 0; stroke: #e377c2; stroke-width: 2"/>
   </g>
   <g id="line2d_28">
    <path d="M 133.2882 160.056 
L 133.2882 160.056 
L 133.2882 160.056 
L 133.288203 160.056 
L 133.288205 160.056004 
L 133.288208 160.056011 
L 133.28821 160.05602 
L 133.288212 160.056031 
L 133.288213 160.056043 
L 133.288215 160.056057 
L 133.288218 160.056072 
L 133.288228 160.056085 
L 133.288237 160.056099 
L 133.288244 160.056114 
L 133.288249 160.056128 
L 133.288252 160.056143 
L 133.288253 160.056156 
L 133.288253 160.056169 
L 133.288251 160.056181 
L 133.288249 160.056191 
L 133.288246 160.056201 
L 133.288242 160.056209 
L 133.288238 160.056217 
" clip-path="url(#pfbc75d90a6)" style="fill: none; stroke: #e377c2; stroke-width: 2; stroke-linecap: square"/>
   </g>
   <g id="line2d_29">
    <path d="M 165.720561 160.055805 
L 165.720596 160.055813 
L 165.720637 160.055816 
L 165.720681 160.055818 
L 165.720711 160.055828 
L 165.720729 160.055843 
L 165.720736 160.055865 
L 165.720733 160.055891 
L 165.720724 160.055921 
L 165.72071 160.055951 
L 165.720699 160.055978 
L 165.720693 160.055993 
L 165.720693 160.055993 
" clip-path="url(#pfbc75d90a6)" style="fill: none; stroke-dasharray: 2,3.3; stroke-dashoffset: 0; stroke: #7f7f7f; stroke-width: 2"/>
   </g>
   <g id="line2d_30">
    <path d="M 165.7206 160.056 
L 165.7206 160.056 
L 165.7206 160.055997 
L 165.720599 160.05597 
L 165.720579 160.055908 
L 165.72054 160.055856 
L 165.720503 160.055767 
L 165.72048 160.055656 
L 165.720446 160.055586 
L 165.720426 160.055548 
L 165.720405 160.055537 
L 165.720398 160.05555 
L 165.720388 160.055578 
L 165.720397 160.055602 
L 165.720396 160.055649 
L 165.720377 160.055687 
L 165.720378 160.055717 
L 165.720394 160.05574 
L 165.72042 160.055758 
L 165.720453 160.055772 
L 165.720489 160.055784 
L 165.720526 160.055795 
L 165.720561 160.055805 
" clip-path="url(#pfbc75d90a6)" style="fill: none; stroke: #7f7f7f; stroke-width: 2; stroke-linecap: square"/>
   </g>
   <g id="line2d_31">
    <path d="M 230.585645 160.056032 
L 230.585647 160.056031 
L 230.58566 160.056029 
L 230.585674 160.056027 
L 230.585671 160.056023 
L 230.58565 160.056019 
L 230.585616 160.056015 
L 230.585573 160.056011 
L 230.585526 160.056008 
L 230.585483 160.056006 
L 230.585451 160.056005 
L 230.585436 160.056004 
L 230.585436 160.056004 
" clip-path="url(#pfbc75d90a6)" style="fill: none; stroke-dasharray: 2,3.3; stroke-dashoffset: 0; stroke: #bcbd22; stroke-width: 2"/>
   </g>
   <g id="line2d_32">
    <path d="M 230.5854 160.056 
L 230.5854 160.056 
L 230.5854 160.056002 
L 230.585404 160.056019 
L 230.585426 160.055987 
L 230.585441 160.055965 
L 230.585453 160.055958 
L 230.585459 160.055962 
L 230.585459 160.055967 
L 230.585467 160.055979 
L 230.585475 160.055991 
L 230.58547 160.056002 
L 230.585459 160.056052 
L 230.585468 160.056053 
L 230.585489 160.056051 
L 230.58552 160.056047 
L 230.585555 160.056044 
L 230.585584 160.056041 
L 230.585606 160.056038 
L 230.585623 160.056036 
L 230.585634 160.056034 
L 230.585641 160.056033 
L 230.585645 160.056032 
" clip-path="url(#pfbc75d90a6)" style="fill: none; stroke: #bcbd22; stroke-width: 2; stroke-linecap: square"/>
   </g>
   <g id="line2d_33">
    <path d="M 263.017785 160.056229 
L 263.017787 160.056229 
L 263.017789 160.056229 
L 263.01779 160.056225 
L 263.017791 160.056218 
L 263.017793 160.056208 
L 263.017794 160.056194 
L 263.017795 160.056177 
L 263.017795 160.056159 
L 263.017796 160.056143 
L 263.017797 160.056131 
L 263.017797 160.056125 
L 263.017797 160.056125 
" clip-path="url(#pfbc75d90a6)" style="fill: none; stroke-dasharray: 2,3.3; stroke-dashoffset: 0; stroke: #17becf; stroke-width: 2"/>
   </g>
   <g id="line2d_34">
    <path d="M 263.0178 160.056 
L 263.0178 160.056 
L 263.0178 160.056 
L 263.0178 160.056 
L 263.0178 160.056006 
L 263.017801 160.056017 
L 263.017802 160.056031 
L 263.017798 160.056043 
L 263.017795 160.056057 
L 263.017792 160.056072 
L 263.017789 160.056089 
L 263.017785 160.056112 
L 263.017783 160.056135 
L 263.01778 160.056158 
L 263.017778 160.056174 
L 263.017777 160.056187 
L 263.017777 160.056198 
L 263.017777 160.056207 
L 263.017778 160.056214 
L 263.017779 160.05622 
L 263.017781 160.056224 
L 263.017783 160.056227 
L 263.017785 160.056229 
" clip-path="url(#pfbc75d90a6)" style="fill: none; stroke: #17becf; stroke-width: 2; stroke-linecap: square"/>
   </g>
   <g id="line2d_35">
    <path d="M 230.585969 62.758882 
L 230.586034 62.758906 
L 230.586126 62.758938 
L 230.586222 62.758969 
L 230.586266 62.758988 
L 230.586253 62.758992 
L 230.586188 62.758982 
L 230.586082 62.758962 
L 230.585949 62.758934 
L 230.585813 62.758903 
L 230.585703 62.758878 
L 230.58565 62.758866 
L 230.58565 62.758866 
" clip-path="url(#pfbc75d90a6)" style="fill: none; stroke-dasharray: 2,3.3; stroke-dashoffset: 0; stroke: #2f4f4f; stroke-width: 2"/>
   </g>
   <g id="line2d_36">
    <path d="M 230.5854 62.7588 
L 230.5854 62.7588 
L 230.5854 62.758798 
L 230.585398 62.758783 
L 230.585395 62.75877 
L 230.585392 62.758761 
L 230.585391 62.758756 
L 230.585392 62.758754 
L 230.585393 62.758755 
L 230.585397 62.758759 
L 230.585416 62.758765 
L 230.585444 62.758771 
L 230.585472 62.758776 
L 230.585495 62.75878 
L 230.585546 62.758771 
L 230.585621 62.758774 
L 230.585706 62.758784 
L 230.585744 62.758792 
L 230.585802 62.758807 
L 230.585867 62.758827 
L 230.585882 62.758841 
L 230.585918 62.758859 
L 230.585969 62.758882 
" clip-path="url(#pfbc75d90a6)" style="fill: none; stroke: #2f4f4f; stroke-width: 2; stroke-linecap: square"/>
   </g>
   <g id="line2d_37">
    <path d="M 230.585345 30.326561 
L 230.585351 30.326543 
L 230.585356 30.326522 
L 230.58536 30.326499 
L 230.585364 30.326474 
L 230.585368 30.326448 
L 230.585372 30.326424 
L 230.585377 30.3264 
L 230.585383 30.32638 
L 230.585387 30.326365 
L 230.585391 30.326355 
L 230.585392 30.326351 
L 230.585392 30.326351 
" clip-path="url(#pfbc75d90a6)" style="fill: none; stroke-dasharray: 2,3.3; stroke-dashoffset: 0; stroke: #cd5c5c; stroke-width: 2"/>
   </g>
   <g id="line2d_38">
    <path d="M 230.5854 30.3264 
L 230.5854 30.3264 
L 230.585397 30.326406 
L 230.585368 30.32646 
L 230.585347 30.326501 
L 230.585328 30.326531 
L 230.585311 30.326561 
L 230.585298 30.326587 
L 230.585288 30.326613 
L 230.585283 30.326639 
L 230.58528 30.326662 
L 230.58528 30.326679 
L 230.585281 30.32669 
L 230.585284 30.326694 
L 230.585289 30.326696 
L 230.585295 30.326687 
L 230.585301 30.326673 
L 230.585306 30.326653 
L 230.585313 30.326633 
L 230.58532 30.326614 
L 230.585329 30.326596 
L 230.585337 30.326578 
L 230.585345 30.326561 
" clip-path="url(#pfbc75d90a6)" style="fill: none; stroke: #cd5c5c; stroke-width: 2; stroke-linecap: square"/>
   </g>
   <g id="line2d_39">
    <path clip-path="url(#pfbc75d90a6)" style="fill: none; stroke-dasharray: 2,3.3; stroke-dashoffset: 0; stroke: #add8e6; stroke-width: 2"/>
   </g>
   <g id="line2d_40">
    <path clip-path="url(#pfbc75d90a6)" style="fill: none; stroke: #add8e6; stroke-width: 2; stroke-linecap: square"/>
   </g>
   <g id="line2d_41">
    <path d="M 230.586125 192.488466 
L 230.586203 192.488463 
L 230.586303 192.488458 
L 230.586401 192.488439 
L 230.586439 192.488405 
L 230.58641 192.488368 
L 230.586321 192.488342 
L 230.586185 192.488334 
L 230.58602 192.488339 
L 230.585853 192.488349 
L 230.585722 192.488358 
L 230.585659 192.488363 
L 230.585659 192.488363 
" clip-path="url(#pfbc75d90a6)" style="fill: none; stroke-dasharray: 2,3.3; stroke-dashoffset: 0; stroke: #663399; stroke-width: 2"/>
   </g>
   <g id="line2d_42">
    <path d="M 230.5854 192.4884 
L 230.5854 192.4884 
L 230.5854 192.488401 
L 230.585403 192.488407 
L 230.585406 192.488411 
L 230.585406 192.488417 
L 230.585392 192.488421 
L 230.585383 192.488425 
L 230.585389 192.488426 
L 230.585399 192.488429 
L 230.585436 192.488433 
L 230.585469 192.48843 
L 230.585487 192.488434 
L 230.585503 192.488436 
L 230.585517 192.488438 
L 230.585562 192.488431 
L 230.585625 192.488433 
L 230.585699 192.48844 
L 230.585782 192.488448 
L 230.585869 192.488457 
L 230.585957 192.488463 
L 230.586043 192.488466 
L 230.586125 192.488466 
" clip-path="url(#pfbc75d90a6)" style="fill: none; stroke: #663399; stroke-width: 2; stroke-linecap: square"/>
   </g>
   <g id="line2d_43">
    <path d="M 230.585349 224.920751 
L 230.585356 224.920735 
L 230.585364 224.920718 
L 230.585371 224.920704 
L 230.585378 224.920695 
L 230.585384 224.920691 
L 230.58539 224.920694 
L 230.585395 224.920703 
L 230.5854 224.920716 
L 230.585403 224.920729 
L 230.585404 224.92074 
L 230.585405 224.920745 
L 230.585405 224.920745 
" clip-path="url(#pfbc75d90a6)" style="fill: none; stroke-dasharray: 2,3.3; stroke-dashoffset: 0; stroke: #8fbc8f; stroke-width: 2"/>
   </g>
   <g id="line2d_44">
    <path d="M 230.5854 224.9208 
L 230.5854 224.9208 
L 230.585398 224.920803 
L 230.585385 224.920825 
L 230.585374 224.920843 
L 230.585366 224.920859 
L 230.58536 224.920873 
L 230.585355 224.920875 
L 230.58535 224.920871 
L 230.585345 224.920863 
L 230.585339 224.920855 
L 230.585333 224.920853 
L 230.585327 224.920853 
L 230.585323 224.920851 
L 230.585321 224.920846 
L 230.585319 224.920843 
L 230.58532 224.920837 
L 230.585321 224.920829 
L 230.585324 224.92082 
L 230.58533 224.920803 
L 230.585336 224.920785 
L 230.585342 224.920768 
L 230.585349 224.920751 
" clip-path="url(#pfbc75d90a6)" style="fill: none; stroke: #8fbc8f; stroke-width: 2; stroke-linecap: square"/>
   </g>
   <g id="line2d_45">
    <path clip-path="url(#pfbc75d90a6)" style="fill: none; stroke-dasharray: 2,3.3; stroke-dashoffset: 0; stroke: #00ced1; stroke-width: 2"/>
   </g>
   <g id="line2d_46">
    <path clip-path="url(#pfbc75d90a6)" style="fill: none; stroke: #00ced1; stroke-width: 2; stroke-linecap: square"/>
   </g>
   <g id="line2d_47">
    <path d="M 165.720596 62.759045 
L 165.720604 62.759061 
L 165.720614 62.759074 
L 165.720625 62.759078 
L 165.720632 62.759066 
L 165.720636 62.759038 
L 165.720637 62.758996 
L 165.720637 62.758944 
L 165.720637 62.75889 
L 165.720639 62.758843 
L 165.720644 62.758814 
L 165.720648 62.758803 
L 165.720648 62.758803 
" clip-path="url(#pfbc75d90a6)" style="fill: none; stroke-dasharray: 2,3.3; stroke-dashoffset: 0; stroke: #6a5acd; stroke-width: 2"/>
   </g>
   <g id="line2d_48">
    <path d="M 165.7206 62.7588 
L 165.7206 62.7588 
L 165.7206 62.758797 
L 165.720599 62.758767 
L 165.720603 62.758741 
L 165.720606 62.758721 
L 165.720609 62.758707 
L 165.720611 62.7587 
L 165.72061 62.758699 
L 165.720606 62.758707 
L 165.720599 62.758726 
L 165.72059 62.758749 
L 165.72058 62.758775 
L 165.720571 62.758803 
L 165.720562 62.758831 
L 165.720558 62.758862 
L 165.720558 62.758892 
L 165.720561 62.758923 
L 165.720566 62.758952 
L 165.720572 62.758979 
L 165.72058 62.759004 
L 165.720588 62.759026 
L 165.720596 62.759045 
" clip-path="url(#pfbc75d90a6)" style="fill: none; stroke: #6a5acd; stroke-width: 2; stroke-linecap: square"/>
   </g>
   <g id="line2d_49">
    <path d="M 165.720617 30.326512 
L 165.720618 30.326501 
L 165.720619 30.326487 
L 165.72062 30.326472 
L 165.72062 30.326456 
L 165.720618 30.326439 
L 165.720615 30.326421 
L 165.720611 30.326403 
L 165.720607 30.326386 
L 165.720603 30.326373 
L 165.720601 30.326365 
L 165.7206 30.326363 
L 165.7206 30.326363 
" clip-path="url(#pfbc75d90a6)" style="fill: none; stroke-dasharray: 2,3.3; stroke-dashoffset: 0; stroke: #808000; stroke-width: 2"/>
   </g>
   <g id="line2d_50">
    <path d="M 165.7206 30.3264 
L 165.7206 30.3264 
L 165.7206 30.326398 
L 165.720603 30.326374 
L 165.720607 30.326333 
L 165.720608 30.326303 
L 165.720608 30.326285 
L 165.720609 30.326278 
L 165.720611 30.326286 
L 165.720616 30.326304 
L 165.720622 30.32633 
L 165.720624 30.32636 
L 165.720622 30.326408 
L 165.720619 30.326449 
L 165.720616 30.326482 
L 165.720615 30.326507 
L 165.720614 30.326522 
L 165.720613 30.326532 
L 165.720614 30.326535 
L 165.720614 30.326534 
L 165.720615 30.326529 
L 165.720616 30.326522 
L 165.720617 30.326512 
" clip-path="url(#pfbc75d90a6)" style="fill: none; stroke: #808000; stroke-width: 2; stroke-linecap: square"/>
   </g>
   <g id="line2d_51">
    <path clip-path="url(#pfbc75d90a6)" style="fill: none; stroke-dasharray: 2,3.3; stroke-dashoffset: 0; stroke: #a0522d; stroke-width: 2"/>
   </g>
   <g id="line2d_52">
    <path clip-path="url(#pfbc75d90a6)" style="fill: none; stroke: #a0522d; stroke-width: 2; stroke-linecap: square"/>
   </g>
   <g id="line2d_53">
    <path d="M 165.720585 192.488346 
L 165.720598 192.488317 
L 165.72061 192.488291 
L 165.720621 192.48827 
L 165.720629 192.488261 
L 165.720633 192.488264 
L 165.720634 192.488278 
L 165.720633 192.488301 
L 165.720631 192.488328 
L 165.720627 192.488355 
L 165.720624 192.488375 
L 165.720622 192.488384 
L 165.720622 192.488384 
" clip-path="url(#pfbc75d90a6)" style="fill: none; stroke-dasharray: 2,3.3; stroke-dashoffset: 0; stroke: #ff4500; stroke-width: 2"/>
   </g>
   <g id="line2d_54">
    <path d="M 165.7206 192.4884 
L 165.7206 192.4884 
L 165.720601 192.488405 
L 165.720611 192.488452 
L 165.720617 192.488491 
L 165.720591 192.488535 
L 165.720574 192.488568 
L 165.720557 192.488592 
L 165.720554 192.48862 
L 165.720547 192.488655 
L 165.720505 192.488686 
L 165.72045 192.488683 
L 165.720421 192.488672 
L 165.720425 192.488655 
L 165.72044 192.488631 
L 165.720459 192.488601 
L 165.720479 192.488566 
L 165.7205 192.488528 
L 165.72052 192.488489 
L 165.720539 192.488451 
L 165.720556 192.488414 
L 165.720572 192.488379 
L 165.720585 192.488346 
" clip-path="url(#pfbc75d90a6)" style="fill: none; stroke: #ff4500; stroke-width: 2; stroke-linecap: square"/>
   </g>
   <g id="line2d_55">
    <path d="M 165.720655 224.920657 
L 165.720649 224.920666 
L 165.720643 224.920676 
L 165.720636 224.920688 
L 165.72063 224.920702 
L 165.720623 224.920718 
L 165.720616 224.920736 
L 165.720609 224.920755 
L 165.720603 224.920774 
L 165.720598 224.92079 
L 165.720595 224.920799 
L 165.720595 224.920802 
L 165.720595 224.920802 
" clip-path="url(#pfbc75d90a6)" style="fill: none; stroke-dasharray: 2,3.3; stroke-dashoffset: 0; stroke: #708090; stroke-width: 2"/>
   </g>
   <g id="line2d_56">
    <path d="M 165.7206 224.9208 
L 165.7206 224.9208 
L 165.720602 224.920799 
L 165.720621 224.92079 
L 165.720636 224.920783 
L 165.720647 224.920788 
L 165.720655 224.920803 
L 165.720661 224.920807 
L 165.720666 224.920806 
L 165.720669 224.920799 
L 165.720672 224.920786 
L 165.720674 224.920768 
L 165.720677 224.920745 
L 165.72068 224.92072 
L 165.72068 224.920698 
L 165.720682 224.920675 
L 165.720682 224.920658 
L 165.720679 224.920647 
L 165.720676 224.920642 
L 165.720671 224.920639 
L 165.720666 224.920642 
L 165.72066 224.920649 
L 165.720655 224.920657 
" clip-path="url(#pfbc75d90a6)" style="fill: none; stroke: #708090; stroke-width: 2; stroke-linecap: square"/>
   </g>
   <g id="line2d_57">
    <path clip-path="url(#pfbc75d90a6)" style="fill: none; stroke-dasharray: 2,3.3; stroke-dashoffset: 0; stroke: #bdb76b; stroke-width: 2"/>
   </g>
   <g id="line2d_58">
    <path clip-path="url(#pfbc75d90a6)" style="fill: none; stroke: #bdb76b; stroke-width: 2; stroke-linecap: square"/>
   </g>
   <g id="patch_3">
    <path d="M 100.8558 224.9208 
L 100.8558 30.3264 
" style="fill: none; stroke: #000000; stroke-width: 0.8; stroke-linejoin: miter; stroke-linecap: square"/>
   </g>
   <g id="patch_4">
    <path d="M 295.4502 224.9208 
L 295.4502 30.3264 
" style="fill: none; stroke: #000000; stroke-width: 0.8; stroke-linejoin: miter; stroke-linecap: square"/>
   </g>
   <g id="patch_5">
    <path d="M 100.8558 224.9208 
L 295.4502 224.9208 
" style="fill: none; stroke: #000000; stroke-width: 0.8; stroke-linejoin: miter; stroke-linecap: square"/>
   </g>
   <g id="patch_6">
    <path d="M 100.8558 30.3264 
L 295.4502 30.3264 
" style="fill: none; stroke: #000000; stroke-width: 0.8; stroke-linejoin: miter; stroke-linecap: square"/>
   </g>
   <g id="patch_7">
    <path d="M 263.017798 137.353321 
C 265.59815 137.353321 268.073164 136.328136 269.897749 134.503552 
C 271.722333 132.678967 272.747518 130.203953 272.747518 127.623601 
C 272.747518 125.043249 271.722333 122.568234 269.897749 120.74365 
C 268.073164 118.919065 265.59815 117.893881 263.017798 117.893881 
C 260.437446 117.893881 257.962431 118.919065 256.137847 120.74365 
C 254.313262 122.568234 253.288078 125.043249 253.288078 127.623601 
C 253.288078 130.203953 254.313262 132.678967 256.137847 134.503552 
C 257.962431 136.328136 260.437446 137.353321 263.017798 137.353321 
z
" clip-path="url(#pfbc75d90a6)" style="fill: #1f77b4; stroke: #000000; stroke-linejoin: miter"/>
   </g>
   <g id="patch_8">
    <path d="M 241.575887 140.918952 
C 244.156239 140.918952 246.631254 139.893767 248.455838 138.069183 
C 250.280423 136.244598 251.305607 133.769584 251.305607 131.189232 
C 251.305607 128.60888 250.280423 126.133865 248.455838 124.309281 
C 246.631254 122.484696 244.156239 121.459512 241.575887 121.459512 
C 238.995535 121.459512 236.520521 122.484696 234.695936 124.309281 
C 232.871352 126.133865 231.846167 128.60888 231.846167 131.189232 
C 231.846167 133.769584 232.871352 136.244598 234.695936 138.069183 
C 236.520521 139.893767 238.995535 140.918952 241.575887 140.918952 
z
" clip-path="url(#pfbc75d90a6)" style="fill: #ff7f0e; stroke: #000000; stroke-linejoin: miter"/>
   </g>
   <g id="patch_9">
    <path d="M 133.288223 104.920655 
C 135.868575 104.920655 138.34359 103.89547 140.168174 102.070886 
C 141.992758 100.246302 143.017943 97.771287 143.017943 95.190935 
C 143.017943 92.610583 141.992758 90.135568 140.168174 88.310984 
C 138.34359 86.4864 135.868575 85.461215 133.288223 85.461215 
C 130.707871 85.461215 128.232856 86.4864 126.408272 88.310984 
C 124.583688 90.135568 123.558503 92.610583 123.558503 95.190935 
C 123.558503 97.771287 124.583688 100.246302 126.408272 102.070886 
C 128.232856 103.89547 130.707871 104.920655 133.288223 104.920655 
z
" clip-path="url(#pfbc75d90a6)" style="fill: #2ca02c; stroke: #000000; stroke-linejoin: miter"/>
   </g>
   <g id="patch_10">
    <path d="M 165.720621 104.920998 
C 168.300973 104.920998 170.775988 103.895813 172.600572 102.071229 
C 174.425157 100.246645 175.450341 97.77163 175.450341 95.191278 
C 175.450341 92.610926 174.425157 90.135911 172.600572 88.311327 
C 170.775988 86.486743 168.300973 85.461558 165.720621 85.461558 
C 163.140269 85.461558 160.665255 86.486743 158.84067 88.311327 
C 157.016086 90.135911 155.990901 92.610926 155.990901 95.191278 
C 155.990901 97.77163 157.016086 100.246645 158.84067 102.071229 
C 160.665255 103.895813 163.140269 104.920998 165.720621 104.920998 
z
" clip-path="url(#pfbc75d90a6)" style="fill: #d62728; stroke: #000000; stroke-linejoin: miter"/>
   </g>
   <g id="patch_11">
    <path d="M 230.585704 104.920255 
C 233.166056 104.920255 235.64107 103.895071 237.465655 102.070486 
C 239.290239 100.245902 240.315424 97.770887 240.315424 95.190535 
C 240.315424 92.610184 239.290239 90.135169 237.465655 88.310584 
C 235.64107 86.486 233.166056 85.460815 230.585704 85.460815 
C 228.005352 85.460815 225.530337 86.486 223.705753 88.310584 
C 221.881168 90.135169 220.855984 92.610184 220.855984 95.190535 
C 220.855984 97.770887 221.881168 100.245902 223.705753 102.070486 
C 225.530337 103.895071 228.005352 104.920255 230.585704 104.920255 
z
" clip-path="url(#pfbc75d90a6)" style="fill: #9467bd; stroke: #000000; stroke-linejoin: miter"/>
   </g>
   <g id="patch_12">
    <path d="M 263.017768 104.920677 
C 265.598119 104.920677 268.073134 103.895493 269.897719 102.070908 
C 271.722303 100.246324 272.747488 97.771309 272.747488 95.190957 
C 272.747488 92.610605 271.722303 90.135591 269.897719 88.311006 
C 268.073134 86.486422 265.598119 85.461237 263.017768 85.461237 
C 260.437416 85.461237 257.962401 86.486422 256.137817 88.311006 
C 254.313232 90.135591 253.288048 92.610605 253.288048 95.190957 
C 253.288048 97.771309 254.313232 100.246324 256.137817 102.070908 
C 257.962401 103.895493 260.437416 104.920677 263.017768 104.920677 
z
" clip-path="url(#pfbc75d90a6)" style="fill: #8c564b; stroke: #000000; stroke-linejoin: miter"/>
   </g>
   <g id="patch_13">
    <path d="M 133.288238 169.785937 
C 135.86859 169.785937 138.343605 168.760752 140.168189 166.936168 
C 141.992773 165.111583 143.017958 162.636569 143.017958 160.056217 
C 143.017958 157.475865 141.992773 155.00085 140.168189 153.176266 
C 138.343605 151.351681 135.86859 150.326497 133.288238 150.326497 
C 130.707886 150.326497 128.232871 151.351681 126.408287 153.176266 
C 124.583703 155.00085 123.558518 157.475865 123.558518 160.056217 
C 123.558518 162.636569 124.583703 165.111583 126.408287 166.936168 
C 128.232871 168.760752 130.707886 169.785937 133.288238 169.785937 
z
" clip-path="url(#pfbc75d90a6)" style="fill: #e377c2; stroke: #000000; stroke-linejoin: miter"/>
   </g>
   <g id="patch_14">
    <path d="M 165.720561 169.785525 
C 168.300913 169.785525 170.775928 168.760341 172.600512 166.935756 
C 174.425097 165.111172 175.450281 162.636157 175.450281 160.055805 
C 175.450281 157.475453 174.425097 155.000439 172.600512 153.175854 
C 170.775928 151.35127 168.300913 150.326085 165.720561 150.326085 
C 163.14021 150.326085 160.665195 151.35127 158.84061 153.175854 
C 157.016026 155.000439 155.990841 157.475453 155.990841 160.055805 
C 155.990841 162.636157 157.016026 165.111172 158.84061 166.935756 
C 160.665195 168.760341 163.14021 169.785525 165.720561 169.785525 
z
" clip-path="url(#pfbc75d90a6)" style="fill: #7f7f7f; stroke: #000000; stroke-linejoin: miter"/>
   </g>
   <g id="patch_15">
    <path d="M 230.585645 169.785752 
C 233.165997 169.785752 235.641011 168.760567 237.465596 166.935983 
C 239.29018 165.111398 240.315365 162.636384 240.315365 160.056032 
C 240.315365 157.47568 239.29018 155.000665 237.465596 153.176081 
C 235.641011 151.351496 233.165997 150.326312 230.585645 150.326312 
C 228.005293 150.326312 225.530278 151.351496 223.705694 153.176081 
C 221.881109 155.000665 220.855925 157.47568 220.855925 160.056032 
C 220.855925 162.636384 221.881109 165.111398 223.705694 166.935983 
C 225.530278 168.760567 228.005293 169.785752 230.585645 169.785752 
z
" clip-path="url(#pfbc75d90a6)" style="fill: #bcbd22; stroke: #000000; stroke-linejoin: miter"/>
   </g>
   <g id="patch_16">
    <path d="M 263.017785 169.785949 
C 265.598137 169.785949 268.073151 168.760764 269.897736 166.93618 
C 271.72232 165.111595 272.747505 162.636581 272.747505 160.056229 
C 272.747505 157.475877 271.72232 155.000862 269.897736 153.176278 
C 268.073151 151.351693 265.598137 150.326509 263.017785 150.326509 
C 260.437433 150.326509 257.962418 151.351693 256.137834 153.176278 
C 254.313249 155.000862 253.288065 157.475877 253.288065 160.056229 
C 253.288065 162.636581 254.313249 165.111595 256.137834 166.93618 
C 257.962418 168.760764 260.437433 169.785949 263.017785 169.785949 
z
" clip-path="url(#pfbc75d90a6)" style="fill: #17becf; stroke: #000000; stroke-linejoin: miter"/>
   </g>
   <g id="patch_17">
    <path d="M 230.585969 72.488602 
C 233.166321 72.488602 235.641335 71.463417 237.46592 69.638833 
C 239.290504 67.814248 240.315689 65.339233 240.315689 62.758882 
C 240.315689 60.17853 239.290504 57.703515 237.46592 55.878931 
C 235.641335 54.054346 233.166321 53.029162 230.585969 53.029162 
C 228.005617 53.029162 225.530602 54.054346 223.706018 55.878931 
C 221.881433 57.703515 220.856249 60.17853 220.856249 62.758882 
C 220.856249 65.339233 221.881433 67.814248 223.706018 69.638833 
C 225.530602 71.463417 228.005617 72.488602 230.585969 72.488602 
z
" clip-path="url(#pfbc75d90a6)" style="fill: #2f4f4f; stroke: #000000; stroke-linejoin: miter"/>
   </g>
   <g id="patch_18">
    <path d="M 230.585345 40.056281 
C 233.165697 40.056281 235.640711 39.031097 237.465296 37.206512 
C 239.28988 35.381928 240.315065 32.906913 240.315065 30.326561 
C 240.315065 27.746209 239.28988 25.271195 237.465296 23.44661 
C 235.640711 21.622026 233.165697 20.596841 230.585345 20.596841 
C 228.004993 20.596841 225.529978 21.622026 223.705394 23.44661 
C 221.880809 25.271195 220.855625 27.746209 220.855625 30.326561 
C 220.855625 32.906913 221.880809 35.381928 223.705394 37.206512 
C 225.529978 39.031097 228.004993 40.056281 230.585345 40.056281 
z
" clip-path="url(#pfbc75d90a6)" style="fill: #cd5c5c; stroke: #000000; stroke-linejoin: miter"/>
   </g>
   <g id="patch_19">
    <path d="M 230.586143 7.623635 
C 233.166495 7.623635 235.64151 6.59845 237.466094 4.773866 
C 239.290678 2.949282 240.315863 0.474267 240.315863 -2.106085 
C 240.315863 -4.686437 239.290678 -7.161452 237.466094 -8.986036 
C 235.64151 -10.81062 233.166495 -11.835805 230.586143 -11.835805 
C 228.005791 -11.835805 225.530776 -10.81062 223.706192 -8.986036 
C 221.881608 -7.161452 220.856423 -4.686437 220.856423 -2.106085 
C 220.856423 0.474267 221.881608 2.949282 223.706192 4.773866 
C 225.530776 6.59845 228.005791 7.623635 230.586143 7.623635 
z
" clip-path="url(#pfbc75d90a6)" style="fill: #add8e6; stroke: #000000; stroke-linejoin: miter"/>
   </g>
   <g id="patch_20">
    <path d="M 230.586125 202.218186 
C 233.166476 202.218186 235.641491 201.193001 237.466076 199.368417 
C 239.29066 197.543832 240.315845 195.068818 240.315845 192.488466 
C 240.315845 189.908114 239.29066 187.433099 237.466076 185.608515 
C 235.641491 183.78393 233.166476 182.758746 230.586125 182.758746 
C 228.005773 182.758746 225.530758 183.78393 223.706174 185.608515 
C 221.881589 187.433099 220.856405 189.908114 220.856405 192.488466 
C 220.856405 195.068818 221.881589 197.543832 223.706174 199.368417 
C 225.530758 201.193001 228.005773 202.218186 230.586125 202.218186 
z
" clip-path="url(#pfbc75d90a6)" style="fill: #663399; stroke: #000000; stroke-linejoin: miter"/>
   </g>
   <g id="patch_21">
    <path d="M 230.585349 234.650471 
C 233.165701 234.650471 235.640716 233.625286 237.4653 231.800702 
C 239.289885 229.976117 240.315069 227.501103 240.315069 224.920751 
C 240.315069 222.340399 239.289885 219.865384 237.4653 218.0408 
C 235.640716 216.216215 233.165701 215.191031 230.585349 215.191031 
C 228.004998 215.191031 225.529983 216.216215 223.705398 218.0408 
C 221.880814 219.865384 220.855629 222.340399 220.855629 224.920751 
C 220.855629 227.501103 221.880814 229.976117 223.705398 231.800702 
C 225.529983 233.625286 228.004998 234.650471 230.585349 234.650471 
z
" clip-path="url(#pfbc75d90a6)" style="fill: #8fbc8f; stroke: #000000; stroke-linejoin: miter"/>
   </g>
   <g id="patch_22">
    <path d="M 230.586361 267.082942 
C 233.166713 267.082942 235.641728 266.057758 237.466312 264.233173 
C 239.290897 262.408589 240.316081 259.933574 240.316081 257.353222 
C 240.316081 254.77287 239.290897 252.297856 237.466312 250.473271 
C 235.641728 248.648687 233.166713 247.623502 230.586361 247.623502 
C 228.006009 247.623502 225.530995 248.648687 223.70641 250.473271 
C 221.881826 252.297856 220.856641 254.77287 220.856641 257.353222 
C 220.856641 259.933574 221.881826 262.408589 223.70641 264.233173 
C 225.530995 266.057758 228.006009 267.082942 230.586361 267.082942 
z
" clip-path="url(#pfbc75d90a6)" style="fill: #00ced1; stroke: #000000; stroke-linejoin: miter"/>
   </g>
   <g id="patch_23">
    <path d="M 165.720596 72.488765 
C 168.300948 72.488765 170.775963 71.46358 172.600547 69.638996 
C 174.425131 67.814411 175.450316 65.339397 175.450316 62.759045 
C 175.450316 60.178693 174.425131 57.703678 172.600547 55.879094 
C 170.775963 54.054509 168.300948 53.029325 165.720596 53.029325 
C 163.140244 53.029325 160.665229 54.054509 158.840645 55.879094 
C 157.016061 57.703678 155.990876 60.178693 155.990876 62.759045 
C 155.990876 65.339397 157.016061 67.814411 158.840645 69.638996 
C 160.665229 71.46358 163.140244 72.488765 165.720596 72.488765 
z
" clip-path="url(#pfbc75d90a6)" style="fill: #6a5acd; stroke: #000000; stroke-linejoin: miter"/>
   </g>
   <g id="patch_24">
    <path d="M 165.720617 40.056232 
C 168.300969 40.056232 170.775984 39.031047 172.600568 37.206463 
C 174.425152 35.381878 175.450337 32.906864 175.450337 30.326512 
C 175.450337 27.74616 174.425152 25.271145 172.600568 23.446561 
C 170.775984 21.621976 168.300969 20.596792 165.720617 20.596792 
C 163.140265 20.596792 160.66525 21.621976 158.840666 23.446561 
C 157.016082 25.271145 155.990897 27.74616 155.990897 30.326512 
C 155.990897 32.906864 157.016082 35.381878 158.840666 37.206463 
C 160.66525 39.031047 163.140265 40.056232 165.720617 40.056232 
z
" clip-path="url(#pfbc75d90a6)" style="fill: #808000; stroke: #000000; stroke-linejoin: miter"/>
   </g>
   <g id="patch_25">
    <path d="M 165.720577 7.623708 
C 168.300929 7.623708 170.775943 6.598523 172.600528 4.773939 
C 174.425112 2.949354 175.450297 0.47434 175.450297 -2.106012 
C 175.450297 -4.686364 174.425112 -7.161379 172.600528 -8.985963 
C 170.775943 -10.810548 168.300929 -11.835732 165.720577 -11.835732 
C 163.140225 -11.835732 160.66521 -10.810548 158.840626 -8.985963 
C 157.016041 -7.161379 155.990857 -4.686364 155.990857 -2.106012 
C 155.990857 0.47434 157.016041 2.949354 158.840626 4.773939 
C 160.66521 6.598523 163.140225 7.623708 165.720577 7.623708 
z
" clip-path="url(#pfbc75d90a6)" style="fill: #a0522d; stroke: #000000; stroke-linejoin: miter"/>
   </g>
   <g id="patch_26">
    <path d="M 165.720585 202.218066 
C 168.300937 202.218066 170.775952 201.192882 172.600536 199.368297 
C 174.425121 197.543713 175.450305 195.068698 175.450305 192.488346 
C 175.450305 189.907994 174.425121 187.43298 172.600536 185.608395 
C 170.775952 183.783811 168.300937 182.758626 165.720585 182.758626 
C 163.140233 182.758626 160.665219 183.783811 158.840634 185.608395 
C 157.01605 187.43298 155.990865 189.907994 155.990865 192.488346 
C 155.990865 195.068698 157.01605 197.543713 158.840634 199.368297 
C 160.665219 201.192882 163.140233 202.218066 165.720585 202.218066 
z
" clip-path="url(#pfbc75d90a6)" style="fill: #ff4500; stroke: #000000; stroke-linejoin: miter"/>
   </g>
   <g id="patch_27">
    <path d="M 165.720655 234.650377 
C 168.301007 234.650377 170.776021 233.625192 172.600606 231.800608 
C 174.42519 229.976024 175.450375 227.501009 175.450375 224.920657 
C 175.450375 222.340305 174.42519 219.86529 172.600606 218.040706 
C 170.776021 216.216122 168.301007 215.190937 165.720655 215.190937 
C 163.140303 215.190937 160.665288 216.216122 158.840704 218.040706 
C 157.016119 219.86529 155.990935 222.340305 155.990935 224.920657 
C 155.990935 227.501009 157.016119 229.976024 158.840704 231.800608 
C 160.665288 233.625192 163.140303 234.650377 165.720655 234.650377 
z
" clip-path="url(#pfbc75d90a6)" style="fill: #708090; stroke: #000000; stroke-linejoin: miter"/>
   </g>
   <g id="patch_28">
    <path d="M 165.720236 267.082933 
C 168.300588 267.082933 170.775602 266.057748 172.600187 264.233164 
C 174.424771 262.408579 175.449956 259.933565 175.449956 257.353213 
C 175.449956 254.772861 174.424771 252.297846 172.600187 250.473262 
C 170.775602 248.648677 168.300588 247.623493 165.720236 247.623493 
C 163.139884 247.623493 160.664869 248.648677 158.840285 250.473262 
C 157.0157 252.297846 155.990516 254.772861 155.990516 257.353213 
C 155.990516 259.933565 157.0157 262.408579 158.840285 264.233164 
C 160.664869 266.057748 163.139884 267.082933 165.720236 267.082933 
z
" clip-path="url(#pfbc75d90a6)" style="fill: #bdb76b; stroke: #000000; stroke-linejoin: miter"/>
   </g>
   <g id="line2d_59">
    <path d="M 263.0178 127.6236 
" clip-path="url(#pfbc75d90a6)" style="fill: none; stroke: #1f77b4; stroke-width: 1.5; stroke-linecap: square"/>
    <defs>
     <path id="m5a9bab73c1" d="M 0 4.949747 
L 2.969848 0 
L 0 -4.949747 
L -2.969848 0 
z
" style="stroke: #000000; stroke-linejoin: miter"/>
    </defs>
    <g clip-path="url(#pfbc75d90a6)">
     <use xlink:href="#m5a9bab73c1" x="263.0178" y="127.6236" style="fill: #1f77b4; stroke: #000000; stroke-linejoin: miter"/>
    </g>
   </g>
   <g id="line2d_60">
    <path d="M 263.0178 127.6236 
" clip-path="url(#pfbc75d90a6)" style="fill: none; stroke: #ff7f0e; stroke-width: 1.5; stroke-linecap: square"/>
    <defs>
     <path id="m6ecb3f0399" d="M 0 4.949747 
L 2.969848 0 
L 0 -4.949747 
L -2.969848 0 
z
" style="stroke: #000000; stroke-linejoin: miter"/>
    </defs>
    <g clip-path="url(#pfbc75d90a6)">
     <use xlink:href="#m6ecb3f0399" x="263.0178" y="127.6236" style="fill: #ff7f0e; stroke: #000000; stroke-linejoin: miter"/>
    </g>
   </g>
   <g id="line2d_61">
    <path d="M 133.2882 95.1912 
" clip-path="url(#pfbc75d90a6)" style="fill: none; stroke: #2ca02c; stroke-width: 1.5; stroke-linecap: square"/>
    <defs>
     <path id="m0551dbfc09" d="M 0 4.949747 
L 2.969848 0 
L 0 -4.949747 
L -2.969848 0 
z
" style="stroke: #000000; stroke-linejoin: miter"/>
    </defs>
    <g clip-path="url(#pfbc75d90a6)">
     <use xlink:href="#m0551dbfc09" x="133.2882" y="95.1912" style="fill: #2ca02c; stroke: #000000; stroke-linejoin: miter"/>
    </g>
   </g>
   <g id="line2d_62">
    <path d="M 165.7206 95.1912 
" clip-path="url(#pfbc75d90a6)" style="fill: none; stroke: #d62728; stroke-width: 1.5; stroke-linecap: square"/>
    <defs>
     <path id="mf56144ca36" d="M 0 4.949747 
L 2.969848 0 
L 0 -4.949747 
L -2.969848 0 
z
" style="stroke: #000000; stroke-linejoin: miter"/>
    </defs>
    <g clip-path="url(#pfbc75d90a6)">
     <use xlink:href="#mf56144ca36" x="165.7206" y="95.1912" style="fill: #d62728; stroke: #000000; stroke-linejoin: miter"/>
    </g>
   </g>
   <g id="line2d_63">
    <path d="M 230.5854 95.1912 
" clip-path="url(#pfbc75d90a6)" style="fill: none; stroke: #9467bd; stroke-width: 1.5; stroke-linecap: square"/>
    <defs>
     <path id="mac98537286" d="M 0 4.949747 
L 2.969848 0 
L 0 -4.949747 
L -2.969848 0 
z
" style="stroke: #000000; stroke-linejoin: miter"/>
    </defs>
    <g clip-path="url(#pfbc75d90a6)">
     <use xlink:href="#mac98537286" x="230.5854" y="95.1912" style="fill: #9467bd; stroke: #000000; stroke-linejoin: miter"/>
    </g>
   </g>
   <g id="line2d_64">
    <path d="M 263.0178 95.1912 
" clip-path="url(#pfbc75d90a6)" style="fill: none; stroke: #8c564b; stroke-width: 1.5; stroke-linecap: square"/>
    <defs>
     <path id="m04198fb82e" d="M 0 4.949747 
L 2.969848 0 
L 0 -4.949747 
L -2.969848 0 
z
" style="stroke: #000000; stroke-linejoin: miter"/>
    </defs>
    <g clip-path="url(#pfbc75d90a6)">
     <use xlink:href="#m04198fb82e" x="263.0178" y="95.1912" style="fill: #8c564b; stroke: #000000; stroke-linejoin: miter"/>
    </g>
   </g>
   <g id="line2d_65">
    <path d="M 133.2882 160.056 
" clip-path="url(#pfbc75d90a6)" style="fill: none; stroke: #e377c2; stroke-width: 1.5; stroke-linecap: square"/>
    <defs>
     <path id="mc562ab2f82" d="M 0 4.949747 
L 2.969848 0 
L 0 -4.949747 
L -2.969848 0 
z
" style="stroke: #000000; stroke-linejoin: miter"/>
    </defs>
    <g clip-path="url(#pfbc75d90a6)">
     <use xlink:href="#mc562ab2f82" x="133.2882" y="160.056" style="fill: #e377c2; stroke: #000000; stroke-linejoin: miter"/>
    </g>
   </g>
   <g id="line2d_66">
    <path d="M 165.7206 160.056 
" clip-path="url(#pfbc75d90a6)" style="fill: none; stroke: #7f7f7f; stroke-width: 1.5; stroke-linecap: square"/>
    <defs>
     <path id="me2dbc5ffb6" d="M 0 4.949747 
L 2.969848 0 
L 0 -4.949747 
L -2.969848 0 
z
" style="stroke: #000000; stroke-linejoin: miter"/>
    </defs>
    <g clip-path="url(#pfbc75d90a6)">
     <use xlink:href="#me2dbc5ffb6" x="165.7206" y="160.056" style="fill: #7f7f7f; stroke: #000000; stroke-linejoin: miter"/>
    </g>
   </g>
   <g id="line2d_67">
    <path d="M 230.5854 160.056 
" clip-path="url(#pfbc75d90a6)" style="fill: none; stroke: #bcbd22; stroke-width: 1.5; stroke-linecap: square"/>
    <defs>
     <path id="m2dd1558060" d="M 0 4.949747 
L 2.969848 0 
L 0 -4.949747 
L -2.969848 0 
z
" style="stroke: #000000; stroke-linejoin: miter"/>
    </defs>
    <g clip-path="url(#pfbc75d90a6)">
     <use xlink:href="#m2dd1558060" x="230.5854" y="160.056" style="fill: #bcbd22; stroke: #000000; stroke-linejoin: miter"/>
    </g>
   </g>
   <g id="line2d_68">
    <path d="M 263.0178 160.056 
" clip-path="url(#pfbc75d90a6)" style="fill: none; stroke: #17becf; stroke-width: 1.5; stroke-linecap: square"/>
    <defs>
     <path id="m668f174482" d="M 0 4.949747 
L 2.969848 0 
L 0 -4.949747 
L -2.969848 0 
z
" style="stroke: #000000; stroke-linejoin: miter"/>
    </defs>
    <g clip-path="url(#pfbc75d90a6)">
     <use xlink:href="#m668f174482" x="263.0178" y="160.056" style="fill: #17becf; stroke: #000000; stroke-linejoin: miter"/>
    </g>
   </g>
   <g id="line2d_69">
    <path d="M 230.5854 62.7588 
" clip-path="url(#pfbc75d90a6)" style="fill: none; stroke: #2f4f4f; stroke-width: 1.5; stroke-linecap: square"/>
    <defs>
     <path id="m051db71171" d="M 0 4.949747 
L 2.969848 0 
L 0 -4.949747 
L -2.969848 0 
z
" style="stroke: #000000; stroke-linejoin: miter"/>
    </defs>
    <g clip-path="url(#pfbc75d90a6)">
     <use xlink:href="#m051db71171" x="230.5854" y="62.7588" style="fill: #2f4f4f; stroke: #000000; stroke-linejoin: miter"/>
    </g>
   </g>
   <g id="line2d_70">
    <path d="M 230.5854 30.3264 
" clip-path="url(#pfbc75d90a6)" style="fill: none; stroke: #cd5c5c; stroke-width: 1.5; stroke-linecap: square"/>
    <defs>
     <path id="mbe6ee64964" d="M 0 4.949747 
L 2.969848 0 
L 0 -4.949747 
L -2.969848 0 
z
" style="stroke: #000000; stroke-linejoin: miter"/>
    </defs>
    <g clip-path="url(#pfbc75d90a6)">
     <use xlink:href="#mbe6ee64964" x="230.5854" y="30.3264" style="fill: #cd5c5c; stroke: #000000; stroke-linejoin: miter"/>
    </g>
   </g>
   <g id="line2d_71">
    <path clip-path="url(#pfbc75d90a6)" style="fill: none; stroke: #add8e6; stroke-width: 1.5; stroke-linecap: square"/>
    <defs>
     <path id="m8203c99c0b" d="M 0 4.949747 
L 2.969848 0 
L 0 -4.949747 
L -2.969848 0 
z
" style="stroke: #000000; stroke-linejoin: miter"/>
    </defs>
    <g clip-path="url(#pfbc75d90a6)"/>
   </g>
   <g id="line2d_72">
    <path d="M 230.5854 192.4884 
" clip-path="url(#pfbc75d90a6)" style="fill: none; stroke: #663399; stroke-width: 1.5; stroke-linecap: square"/>
    <defs>
     <path id="mbdff6e1e16" d="M 0 4.949747 
L 2.969848 0 
L 0 -4.949747 
L -2.969848 0 
z
" style="stroke: #000000; stroke-linejoin: miter"/>
    </defs>
    <g clip-path="url(#pfbc75d90a6)">
     <use xlink:href="#mbdff6e1e16" x="230.5854" y="192.4884" style="fill: #663399; stroke: #000000; stroke-linejoin: miter"/>
    </g>
   </g>
   <g id="line2d_73">
    <path d="M 230.5854 224.9208 
" clip-path="url(#pfbc75d90a6)" style="fill: none; stroke: #8fbc8f; stroke-width: 1.5; stroke-linecap: square"/>
    <defs>
     <path id="m0143177d4a" d="M 0 4.949747 
L 2.969848 0 
L 0 -4.949747 
L -2.969848 0 
z
" style="stroke: #000000; stroke-linejoin: miter"/>
    </defs>
    <g clip-path="url(#pfbc75d90a6)">
     <use xlink:href="#m0143177d4a" x="230.5854" y="224.9208" style="fill: #8fbc8f; stroke: #000000; stroke-linejoin: miter"/>
    </g>
   </g>
   <g id="line2d_74">
    <path clip-path="url(#pfbc75d90a6)" style="fill: none; stroke: #00ced1; stroke-width: 1.5; stroke-linecap: square"/>
    <defs>
     <path id="m3ee2f9cf21" d="M 0 4.949747 
L 2.969848 0 
L 0 -4.949747 
L -2.969848 0 
z
" style="stroke: #000000; stroke-linejoin: miter"/>
    </defs>
    <g clip-path="url(#pfbc75d90a6)">
     <use xlink:href="#m3ee2f9cf21" x="230.5854" y="257.3532" style="fill: #00ced1; stroke: #000000; stroke-linejoin: miter"/>
    </g>
   </g>
   <g id="line2d_75">
    <path d="M 165.7206 62.7588 
" clip-path="url(#pfbc75d90a6)" style="fill: none; stroke: #6a5acd; stroke-width: 1.5; stroke-linecap: square"/>
    <defs>
     <path id="m0069cb17a8" d="M 0 4.949747 
L 2.969848 0 
L 0 -4.949747 
L -2.969848 0 
z
" style="stroke: #000000; stroke-linejoin: miter"/>
    </defs>
    <g clip-path="url(#pfbc75d90a6)">
     <use xlink:href="#m0069cb17a8" x="165.7206" y="62.7588" style="fill: #6a5acd; stroke: #000000; stroke-linejoin: miter"/>
    </g>
   </g>
   <g id="line2d_76">
    <path d="M 165.7206 30.3264 
" clip-path="url(#pfbc75d90a6)" style="fill: none; stroke: #808000; stroke-width: 1.5; stroke-linecap: square"/>
    <defs>
     <path id="me37f78a1d6" d="M 0 4.949747 
L 2.969848 0 
L 0 -4.949747 
L -2.969848 0 
z
" style="stroke: #000000; stroke-linejoin: miter"/>
    </defs>
    <g clip-path="url(#pfbc75d90a6)">
     <use xlink:href="#me37f78a1d6" x="165.7206" y="30.3264" style="fill: #808000; stroke: #000000; stroke-linejoin: miter"/>
    </g>
   </g>
   <g id="line2d_77">
    <path clip-path="url(#pfbc75d90a6)" style="fill: none; stroke: #a0522d; stroke-width: 1.5; stroke-linecap: square"/>
    <defs>
     <path id="m31ba5cc1b3" d="M 0 4.949747 
L 2.969848 0 
L 0 -4.949747 
L -2.969848 0 
z
" style="stroke: #000000; stroke-linejoin: miter"/>
    </defs>
    <g clip-path="url(#pfbc75d90a6)"/>
   </g>
   <g id="line2d_78">
    <path d="M 165.7206 192.4884 
" clip-path="url(#pfbc75d90a6)" style="fill: none; stroke: #ff4500; stroke-width: 1.5; stroke-linecap: square"/>
    <defs>
     <path id="ma0b6735d19" d="M 0 4.949747 
L 2.969848 0 
L 0 -4.949747 
L -2.969848 0 
z
" style="stroke: #000000; stroke-linejoin: miter"/>
    </defs>
    <g clip-path="url(#pfbc75d90a6)">
     <use xlink:href="#ma0b6735d19" x="165.7206" y="192.4884" style="fill: #ff4500; stroke: #000000; stroke-linejoin: miter"/>
    </g>
   </g>
   <g id="line2d_79">
    <path d="M 165.7206 224.9208 
" clip-path="url(#pfbc75d90a6)" style="fill: none; stroke: #708090; stroke-width: 1.5; stroke-linecap: square"/>
    <defs>
     <path id="m07d4d5b2c0" d="M 0 4.949747 
L 2.969848 0 
L 0 -4.949747 
L -2.969848 0 
z
" style="stroke: #000000; stroke-linejoin: miter"/>
    </defs>
    <g clip-path="url(#pfbc75d90a6)">
     <use xlink:href="#m07d4d5b2c0" x="165.7206" y="224.9208" style="fill: #708090; stroke: #000000; stroke-linejoin: miter"/>
    </g>
   </g>
   <g id="line2d_80">
    <path clip-path="url(#pfbc75d90a6)" style="fill: none; stroke: #bdb76b; stroke-width: 1.5; stroke-linecap: square"/>
    <defs>
     <path id="ma44a20d27f" d="M 0 4.949747 
L 2.969848 0 
L 0 -4.949747 
L -2.969848 0 
z
" style="stroke: #000000; stroke-linejoin: miter"/>
    </defs>
    <g clip-path="url(#pfbc75d90a6)">
     <use xlink:href="#ma44a20d27f" x="165.7206" y="257.3532" style="fill: #bdb76b; stroke: #000000; stroke-linejoin: miter"/>
    </g>
   </g>
  </g>
 </g>
 <defs>
  <clipPath id="pfbc75d90a6">
   <rect x="100.8558" y="30.3264" width="194.5944" height="194.5944"/>
  </clipPath>
 </defs>
</svg>
