<?xml version="1.0" encoding="utf-8" standalone="no"?>
<!DOCTYPE svg PUBLIC "-//W3C//DTD SVG 1.1//EN"
  "http://www.w3.org/Graphics/SVG/1.1/DTD/svg11.dtd">
<svg xmlns:xlink="http://www.w3.org/1999/xlink" width="386.64pt" height="252.72pt" viewBox="0 0 386.64 252.72" xmlns="http://www.w3.org/2000/svg" version="1.1">
 <metadata>
  <rdf:RDF xmlns:dc="http://purl.org/dc/elements/1.1/" xmlns:cc="http://creativecommons.org/ns#" xmlns:rdf="http://www.w3.org/1999/02/22-rdf-syntax-ns#">
   <cc:Work>
    <dc:type rdf:resource="http://purl.org/dc/dcmitype/StillImage"/>
    <dc:date>2023-07-11T22:26:56.616890</dc:date>
    <dc:format>image/svg+xml</dc:format>
    <dc:creator>
     <cc:Agent>
      <dc:title>Matplotlib v3.6.2, https://matplotlib.org/</dc:title>
     </cc:Agent>
    </dc:creator>
   </cc:Work>
  </rdf:RDF>
 </metadata>
 <defs>
  <style type="text/css">*{stroke-linejoin: round; stroke-linecap: butt}</style>
 </defs>
 <g id="figure_1">
  <g id="patch_1">
   <path d="M 0 252.72 
L 386.64 252.72 
L 386.64 0 
L 0 0 
z
" style="fill: #ffffff"/>
  </g>
  <g id="axes_1">
   <g id="patch_2">
    <path d="M 100.8558 224.9208 
L 295.4502 224.9208 
L 295.4502 30.3264 
L 100.8558 30.3264 
z
" style="fill: #ffffff"/>
   </g>
   <g id="matplotlib.axis_1">
    <g id="xtick_1">
     <g id="line2d_1">
      <defs>
       <path id="m8e9c9e883f" d="M 0 0 
L 0 3.5 
" style="stroke: #000000; stroke-width: 0.8"/>
      </defs>
      <g>
       <use xlink:href="#m8e9c9e883f" x="100.8558" y="224.9208" style="stroke: #000000; stroke-width: 0.8"/>
      </g>
     </g>
     <g id="text_1">
      <!-- −0.5 -->
      <g transform="translate(88.714394 239.519237) scale(0.1 -0.1)">
       <defs>
        <path id="DejaVuSans-2212" d="M 678 2272 
L 4684 2272 
L 4684 1741 
L 678 1741 
L 678 2272 
z
" transform="scale(0.015625)"/>
        <path id="DejaVuSans-30" d="M 2034 4250 
Q 1547 4250 1301 3770 
Q 1056 3291 1056 2328 
Q 1056 1369 1301 889 
Q 1547 409 2034 409 
Q 2525 409 2770 889 
Q 3016 1369 3016 2328 
Q 3016 3291 2770 3770 
Q 2525 4250 2034 4250 
z
M 2034 4750 
Q 2819 4750 3233 4129 
Q 3647 3509 3647 2328 
Q 3647 1150 3233 529 
Q 2819 -91 2034 -91 
Q 1250 -91 836 529 
Q 422 1150 422 2328 
Q 422 3509 836 4129 
Q 1250 4750 2034 4750 
z
" transform="scale(0.015625)"/>
        <path id="DejaVuSans-2e" d="M 684 794 
L 1344 794 
L 1344 0 
L 684 0 
L 684 794 
z
" transform="scale(0.015625)"/>
        <path id="DejaVuSans-35" d="M 691 4666 
L 3169 4666 
L 3169 4134 
L 1269 4134 
L 1269 2991 
Q 1406 3038 1543 3061 
Q 1681 3084 1819 3084 
Q 2600 3084 3056 2656 
Q 3513 2228 3513 1497 
Q 3513 744 3044 326 
Q 2575 -91 1722 -91 
Q 1428 -91 1123 -41 
Q 819 9 494 109 
L 494 744 
Q 775 591 1075 516 
Q 1375 441 1709 441 
Q 2250 441 2565 725 
Q 2881 1009 2881 1497 
Q 2881 1984 2565 2268 
Q 2250 2553 1709 2553 
Q 1456 2553 1204 2497 
Q 953 2441 691 2322 
L 691 4666 
z
" transform="scale(0.015625)"/>
       </defs>
       <use xlink:href="#DejaVuSans-2212"/>
       <use xlink:href="#DejaVuSans-30" x="83.789062"/>
       <use xlink:href="#DejaVuSans-2e" x="147.412109"/>
       <use xlink:href="#DejaVuSans-35" x="179.199219"/>
      </g>
     </g>
    </g>
    <g id="xtick_2">
     <g id="line2d_2">
      <g>
       <use xlink:href="#m8e9c9e883f" x="133.2882" y="224.9208" style="stroke: #000000; stroke-width: 0.8"/>
      </g>
     </g>
     <g id="text_2">
      <!-- 0.0 -->
      <g transform="translate(125.336638 239.519237) scale(0.1 -0.1)">
       <use xlink:href="#DejaVuSans-30"/>
       <use xlink:href="#DejaVuSans-2e" x="63.623047"/>
       <use xlink:href="#DejaVuSans-30" x="95.410156"/>
      </g>
     </g>
    </g>
    <g id="xtick_3">
     <g id="line2d_3">
      <g>
       <use xlink:href="#m8e9c9e883f" x="165.7206" y="224.9208" style="stroke: #000000; stroke-width: 0.8"/>
      </g>
     </g>
     <g id="text_3">
      <!-- 0.5 -->
      <g transform="translate(157.769037 239.519237) scale(0.1 -0.1)">
       <use xlink:href="#DejaVuSans-30"/>
       <use xlink:href="#DejaVuSans-2e" x="63.623047"/>
       <use xlink:href="#DejaVuSans-35" x="95.410156"/>
      </g>
     </g>
    </g>
    <g id="xtick_4">
     <g id="line2d_4">
      <g>
       <use xlink:href="#m8e9c9e883f" x="198.153" y="224.9208" style="stroke: #000000; stroke-width: 0.8"/>
      </g>
     </g>
     <g id="text_4">
      <!-- 1.0 -->
      <g transform="translate(190.201437 239.519237) scale(0.1 -0.1)">
       <defs>
        <path id="DejaVuSans-31" d="M 794 531 
L 1825 531 
L 1825 4091 
L 703 3866 
L 703 4441 
L 1819 4666 
L 2450 4666 
L 2450 531 
L 3481 531 
L 3481 0 
L 794 0 
L 794 531 
z
" transform="scale(0.015625)"/>
       </defs>
       <use xlink:href="#DejaVuSans-31"/>
       <use xlink:href="#DejaVuSans-2e" x="63.623047"/>
       <use xlink:href="#DejaVuSans-30" x="95.410156"/>
      </g>
     </g>
    </g>
    <g id="xtick_5">
     <g id="line2d_5">
      <g>
       <use xlink:href="#m8e9c9e883f" x="230.5854" y="224.9208" style="stroke: #000000; stroke-width: 0.8"/>
      </g>
     </g>
     <g id="text_5">
      <!-- 1.5 -->
      <g transform="translate(222.633837 239.519237) scale(0.1 -0.1)">
       <use xlink:href="#DejaVuSans-31"/>
       <use xlink:href="#DejaVuSans-2e" x="63.623047"/>
       <use xlink:href="#DejaVuSans-35" x="95.410156"/>
      </g>
     </g>
    </g>
    <g id="xtick_6">
     <g id="line2d_6">
      <g>
       <use xlink:href="#m8e9c9e883f" x="263.0178" y="224.9208" style="stroke: #000000; stroke-width: 0.8"/>
      </g>
     </g>
     <g id="text_6">
      <!-- 2.0 -->
      <g transform="translate(255.066237 239.519237) scale(0.1 -0.1)">
       <defs>
        <path id="DejaVuSans-32" d="M 1228 531 
L 3431 531 
L 3431 0 
L 469 0 
L 469 531 
Q 828 903 1448 1529 
Q 2069 2156 2228 2338 
Q 2531 2678 2651 2914 
Q 2772 3150 2772 3378 
Q 2772 3750 2511 3984 
Q 2250 4219 1831 4219 
Q 1534 4219 1204 4116 
Q 875 4013 500 3803 
L 500 4441 
Q 881 4594 1212 4672 
Q 1544 4750 1819 4750 
Q 2544 4750 2975 4387 
Q 3406 4025 3406 3419 
Q 3406 3131 3298 2873 
Q 3191 2616 2906 2266 
Q 2828 2175 2409 1742 
Q 1991 1309 1228 531 
z
" transform="scale(0.015625)"/>
       </defs>
       <use xlink:href="#DejaVuSans-32"/>
       <use xlink:href="#DejaVuSans-2e" x="63.623047"/>
       <use xlink:href="#DejaVuSans-30" x="95.410156"/>
      </g>
     </g>
    </g>
    <g id="xtick_7">
     <g id="line2d_7">
      <g>
       <use xlink:href="#m8e9c9e883f" x="295.4502" y="224.9208" style="stroke: #000000; stroke-width: 0.8"/>
      </g>
     </g>
     <g id="text_7">
      <!-- 2.5 -->
      <g transform="translate(287.498637 239.519237) scale(0.1 -0.1)">
       <use xlink:href="#DejaVuSans-32"/>
       <use xlink:href="#DejaVuSans-2e" x="63.623047"/>
       <use xlink:href="#DejaVuSans-35" x="95.410156"/>
      </g>
     </g>
    </g>
    <g id="text_8">
     <!-- x(m) -->
     <g transform="translate(186.42175 253.197362) scale(0.1 -0.1)">
      <defs>
       <path id="DejaVuSans-78" d="M 3513 3500 
L 2247 1797 
L 3578 0 
L 2900 0 
L 1881 1375 
L 863 0 
L 184 0 
L 1544 1831 
L 300 3500 
L 978 3500 
L 1906 2253 
L 2834 3500 
L 3513 3500 
z
" transform="scale(0.015625)"/>
       <path id="DejaVuSans-28" d="M 1984 4856 
Q 1566 4138 1362 3434 
Q 1159 2731 1159 2009 
Q 1159 1288 1364 580 
Q 1569 -128 1984 -844 
L 1484 -844 
Q 1016 -109 783 600 
Q 550 1309 550 2009 
Q 550 2706 781 3412 
Q 1013 4119 1484 4856 
L 1984 4856 
z
" transform="scale(0.015625)"/>
       <path id="DejaVuSans-6d" d="M 3328 2828 
Q 3544 3216 3844 3400 
Q 4144 3584 4550 3584 
Q 5097 3584 5394 3201 
Q 5691 2819 5691 2113 
L 5691 0 
L 5113 0 
L 5113 2094 
Q 5113 2597 4934 2840 
Q 4756 3084 4391 3084 
Q 3944 3084 3684 2787 
Q 3425 2491 3425 1978 
L 3425 0 
L 2847 0 
L 2847 2094 
Q 2847 2600 2669 2842 
Q 2491 3084 2119 3084 
Q 1678 3084 1418 2786 
Q 1159 2488 1159 1978 
L 1159 0 
L 581 0 
L 581 3500 
L 1159 3500 
L 1159 2956 
Q 1356 3278 1631 3431 
Q 1906 3584 2284 3584 
Q 2666 3584 2933 3390 
Q 3200 3197 3328 2828 
z
" transform="scale(0.015625)"/>
       <path id="DejaVuSans-29" d="M 513 4856 
L 1013 4856 
Q 1481 4119 1714 3412 
Q 1947 2706 1947 2009 
Q 1947 1309 1714 600 
Q 1481 -109 1013 -844 
L 513 -844 
Q 928 -128 1133 580 
Q 1338 1288 1338 2009 
Q 1338 2731 1133 3434 
Q 928 4138 513 4856 
z
" transform="scale(0.015625)"/>
      </defs>
      <use xlink:href="#DejaVuSans-78"/>
      <use xlink:href="#DejaVuSans-28" x="59.179688"/>
      <use xlink:href="#DejaVuSans-6d" x="98.193359"/>
      <use xlink:href="#DejaVuSans-29" x="195.605469"/>
     </g>
    </g>
   </g>
   <g id="matplotlib.axis_2">
    <g id="ytick_1">
     <g id="line2d_8">
      <defs>
       <path id="m6d38efeebd" d="M 0 0 
L -3.5 0 
" style="stroke: #000000; stroke-width: 0.8"/>
      </defs>
      <g>
       <use xlink:href="#m6d38efeebd" x="100.8558" y="224.9208" style="stroke: #000000; stroke-width: 0.8"/>
      </g>
     </g>
     <g id="text_9">
      <!-- −0.5 -->
      <g transform="translate(69.572988 228.720019) scale(0.1 -0.1)">
       <use xlink:href="#DejaVuSans-2212"/>
       <use xlink:href="#DejaVuSans-30" x="83.789062"/>
       <use xlink:href="#DejaVuSans-2e" x="147.412109"/>
       <use xlink:href="#DejaVuSans-35" x="179.199219"/>
      </g>
     </g>
    </g>
    <g id="ytick_2">
     <g id="line2d_9">
      <g>
       <use xlink:href="#m6d38efeebd" x="100.8558" y="192.4884" style="stroke: #000000; stroke-width: 0.8"/>
      </g>
     </g>
     <g id="text_10">
      <!-- 0.0 -->
      <g transform="translate(77.952675 196.287619) scale(0.1 -0.1)">
       <use xlink:href="#DejaVuSans-30"/>
       <use xlink:href="#DejaVuSans-2e" x="63.623047"/>
       <use xlink:href="#DejaVuSans-30" x="95.410156"/>
      </g>
     </g>
    </g>
    <g id="ytick_3">
     <g id="line2d_10">
      <g>
       <use xlink:href="#m6d38efeebd" x="100.8558" y="160.056" style="stroke: #000000; stroke-width: 0.8"/>
      </g>
     </g>
     <g id="text_11">
      <!-- 0.5 -->
      <g transform="translate(77.952675 163.855219) scale(0.1 -0.1)">
       <use xlink:href="#DejaVuSans-30"/>
       <use xlink:href="#DejaVuSans-2e" x="63.623047"/>
       <use xlink:href="#DejaVuSans-35" x="95.410156"/>
      </g>
     </g>
    </g>
    <g id="ytick_4">
     <g id="line2d_11">
      <g>
       <use xlink:href="#m6d38efeebd" x="100.8558" y="127.6236" style="stroke: #000000; stroke-width: 0.8"/>
      </g>
     </g>
     <g id="text_12">
      <!-- 1.0 -->
      <g transform="translate(77.952675 131.422819) scale(0.1 -0.1)">
       <use xlink:href="#DejaVuSans-31"/>
       <use xlink:href="#DejaVuSans-2e" x="63.623047"/>
       <use xlink:href="#DejaVuSans-30" x="95.410156"/>
      </g>
     </g>
    </g>
    <g id="ytick_5">
     <g id="line2d_12">
      <g>
       <use xlink:href="#m6d38efeebd" x="100.8558" y="95.1912" style="stroke: #000000; stroke-width: 0.8"/>
      </g>
     </g>
     <g id="text_13">
      <!-- 1.5 -->
      <g transform="translate(77.952675 98.990419) scale(0.1 -0.1)">
       <use xlink:href="#DejaVuSans-31"/>
       <use xlink:href="#DejaVuSans-2e" x="63.623047"/>
       <use xlink:href="#DejaVuSans-35" x="95.410156"/>
      </g>
     </g>
    </g>
    <g id="ytick_6">
     <g id="line2d_13">
      <g>
       <use xlink:href="#m6d38efeebd" x="100.8558" y="62.7588" style="stroke: #000000; stroke-width: 0.8"/>
      </g>
     </g>
     <g id="text_14">
      <!-- 2.0 -->
      <g transform="translate(77.952675 66.558019) scale(0.1 -0.1)">
       <use xlink:href="#DejaVuSans-32"/>
       <use xlink:href="#DejaVuSans-2e" x="63.623047"/>
       <use xlink:href="#DejaVuSans-30" x="95.410156"/>
      </g>
     </g>
    </g>
    <g id="ytick_7">
     <g id="line2d_14">
      <g>
       <use xlink:href="#m6d38efeebd" x="100.8558" y="30.3264" style="stroke: #000000; stroke-width: 0.8"/>
      </g>
     </g>
     <g id="text_15">
      <!-- 2.5 -->
      <g transform="translate(77.952675 34.125619) scale(0.1 -0.1)">
       <use xlink:href="#DejaVuSans-32"/>
       <use xlink:href="#DejaVuSans-2e" x="63.623047"/>
       <use xlink:href="#DejaVuSans-35" x="95.410156"/>
      </g>
     </g>
    </g>
    <g id="text_16">
     <!-- y(m) -->
     <g transform="translate(63.4933 139.35485) rotate(-90) scale(0.1 -0.1)">
      <defs>
       <path id="DejaVuSans-79" d="M 2059 -325 
Q 1816 -950 1584 -1140 
Q 1353 -1331 966 -1331 
L 506 -1331 
L 506 -850 
L 844 -850 
Q 1081 -850 1212 -737 
Q 1344 -625 1503 -206 
L 1606 56 
L 191 3500 
L 800 3500 
L 1894 763 
L 2988 3500 
L 3597 3500 
L 2059 -325 
z
" transform="scale(0.015625)"/>
      </defs>
      <use xlink:href="#DejaVuSans-79"/>
      <use xlink:href="#DejaVuSans-28" x="59.179688"/>
      <use xlink:href="#DejaVuSans-6d" x="98.193359"/>
      <use xlink:href="#DejaVuSans-29" x="195.605469"/>
     </g>
    </g>
   </g>
   <g id="line2d_15">
    <path d="M 263.019112 127.623748 
L 263.017645 127.623583 
L 263.017817 127.623602 
L 263.017798 127.6236 
L 263.0178 127.6236 
L 263.0178 127.6236 
L 263.017801 127.6236 
L 263.017801 127.6236 
L 263.017793 127.623601 
L 263.017811 127.623598 
L 263.01779 127.623602 
L 263.017804 127.623599 
L 263.017804 127.623599 
" clip-path="url(#pbd0496750e)" style="fill: none; stroke-dasharray: 2,3.3; stroke-dashoffset: 0; stroke: #1f77b4; stroke-width: 2"/>
   </g>
   <g id="line2d_16">
    <path d="M 133.2882 127.6236 
L 133.2882 127.6236 
L 133.768676 127.621531 
L 138.573349 127.593776 
L 147.701648 127.493337 
L 160.673863 127.41217 
L 173.646739 127.459601 
L 186.619963 127.486284 
L 199.592908 127.523189 
L 212.567005 127.607597 
L 225.536461 127.5202 
L 238.341407 126.667687 
L 249.679077 126.428069 
L 257.640665 127.139288 
L 262.299995 127.540144 
L 263.112185 127.634279 
L 263.006673 127.622341 
L 263.019112 127.623748 
" clip-path="url(#pbd0496750e)" style="fill: none; stroke: #1f77b4; stroke-width: 2; stroke-linecap: square"/>
   </g>
   <g id="line2d_17">
    <path d="M 241.162835 131.331402 
L 241.407021 131.241343 
L 241.460437 131.221644 
L 241.484608 131.212731 
L 241.498169 131.207727 
L 241.506797 131.20453 
L 241.512837 131.2023 
L 241.517248 131.200667 
L 241.520613 131.199423 
L 241.523278 131.198441 
L 241.525457 131.197642 
L 241.527244 131.196985 
L 241.527244 131.196985 
" clip-path="url(#pbd0496750e)" style="fill: none; stroke-dasharray: 2,3.3; stroke-dashoffset: 0; stroke: #ff7f0e; stroke-width: 2"/>
   </g>
   <g id="line2d_18">
    <path d="M 198.153 205.46136 
L 198.153 205.46136 
L 198.164648 204.981025 
L 198.417246 200.200816 
L 199.877385 191.454013 
L 201.48243 180.264573 
L 202.738317 169.560811 
L 204.917797 161.07713 
L 207.09932 154.814228 
L 209.379241 150.892168 
L 211.999015 147.096721 
L 218.032057 141.250712 
L 226.183594 137.004547 
L 232.872114 134.000627 
L 237.806064 132.265695 
L 240.06566 131.422425 
L 240.879042 131.192219 
L 241.162835 131.331402 
" clip-path="url(#pbd0496750e)" style="fill: none; stroke: #ff7f0e; stroke-width: 2; stroke-linecap: square"/>
   </g>
   <g id="line2d_19">
    <path d="M 133.288234 95.190965 
L 133.288232 95.190955 
L 133.28823 95.190947 
L 133.288227 95.190943 
L 133.288225 95.190944 
L 133.288222 95.190949 
L 133.288219 95.190958 
L 133.288216 95.190971 
L 133.288213 95.190987 
L 133.288211 95.191003 
L 133.28821 95.191015 
L 133.288209 95.191021 
L 133.288209 95.191021 
" clip-path="url(#pbd0496750e)" style="fill: none; stroke-dasharray: 2,3.3; stroke-dashoffset: 0; stroke: #2ca02c; stroke-width: 2"/>
   </g>
   <g id="line2d_20">
    <path d="M 133.2882 95.1912 
L 133.2882 95.1912 
L 133.2882 95.1912 
L 133.288202 95.1912 
L 133.288204 95.191197 
L 133.288206 95.19119 
L 133.288211 95.191173 
L 133.288216 95.191155 
L 133.288222 95.191135 
L 133.288224 95.191111 
L 133.288228 95.191086 
L 133.28823 95.191064 
L 133.288232 95.191043 
L 133.288235 95.191023 
L 133.288236 95.191005 
L 133.288236 95.19099 
L 133.288235 95.190976 
L 133.288234 95.190965 
" clip-path="url(#pbd0496750e)" style="fill: none; stroke: #2ca02c; stroke-width: 2; stroke-linecap: square"/>
   </g>
   <g id="line2d_21">
    <path d="M 165.720416 95.191123 
L 165.720465 95.191161 
L 165.720521 95.191202 
L 165.720579 95.191243 
L 165.720627 95.191272 
L 165.720663 95.191291 
L 165.720686 95.191298 
L 165.7207 95.191296 
L 165.720704 95.191285 
L 165.720702 95.191267 
L 165.720697 95.191249 
L 165.720693 95.191239 
L 165.720693 95.191239 
" clip-path="url(#pbd0496750e)" style="fill: none; stroke-dasharray: 2,3.3; stroke-dashoffset: 0; stroke: #d62728; stroke-width: 2"/>
   </g>
   <g id="line2d_22">
    <path d="M 165.7206 95.1912 
L 165.7206 95.1912 
L 165.720601 95.191194 
L 165.720603 95.19115 
L 165.720581 95.191153 
L 165.720541 95.191158 
L 165.720483 95.19116 
L 165.720422 95.191125 
L 165.720366 95.191081 
L 165.720311 95.191045 
L 165.720281 95.191024 
L 165.720264 95.191013 
L 165.720261 95.191012 
L 165.720272 95.191017 
L 165.720291 95.191024 
L 165.720326 95.19105 
L 165.720369 95.191085 
L 165.720416 95.191123 
" clip-path="url(#pbd0496750e)" style="fill: none; stroke: #d62728; stroke-width: 2; stroke-linecap: square"/>
   </g>
   <g id="line2d_23">
    <path d="M 230.585722 95.190811 
L 230.585726 95.190742 
L 230.585753 95.190682 
L 230.585791 95.190666 
L 230.585809 95.190714 
L 230.5858 95.1908 
L 230.585763 95.190889 
L 230.585703 95.190968 
L 230.585632 95.191039 
L 230.585562 95.191101 
L 230.58551 95.191145 
L 230.585486 95.191165 
L 230.585486 95.191165 
" clip-path="url(#pbd0496750e)" style="fill: none; stroke-dasharray: 2,3.3; stroke-dashoffset: 0; stroke: #9467bd; stroke-width: 2"/>
   </g>
   <g id="line2d_24">
    <path d="M 230.5854 95.1912 
L 230.5854 95.1912 
L 230.5854 95.191198 
L 230.585399 95.191183 
L 230.585405 95.191174 
L 230.585427 95.191186 
L 230.585443 95.191202 
L 230.585457 95.191257 
L 230.585477 95.191298 
L 230.585509 95.191287 
L 230.585553 95.191222 
L 230.585594 95.19117 
L 230.58563 95.191129 
L 230.585659 95.191094 
L 230.585686 95.191036 
L 230.585704 95.190962 
L 230.585716 95.190885 
L 230.585722 95.190811 
" clip-path="url(#pbd0496750e)" style="fill: none; stroke: #9467bd; stroke-width: 2; stroke-linecap: square"/>
   </g>
   <g id="line2d_25">
    <path d="M 263.017769 95.190978 
L 263.017766 95.190969 
L 263.017765 95.190963 
L 263.017764 95.190962 
L 263.017765 95.190965 
L 263.017766 95.190973 
L 263.017768 95.190986 
L 263.017771 95.191003 
L 263.017774 95.191022 
L 263.017776 95.191039 
L 263.017778 95.191052 
L 263.017779 95.191058 
L 263.017779 95.191058 
" clip-path="url(#pbd0496750e)" style="fill: none; stroke-dasharray: 2,3.3; stroke-dashoffset: 0; stroke: #8c564b; stroke-width: 2"/>
   </g>
   <g id="line2d_26">
    <path d="M 263.0178 95.1912 
L 263.0178 95.1912 
L 263.017801 95.1912 
L 263.017807 95.191203 
L 263.017812 95.191199 
L 263.017815 95.191193 
L 263.017817 95.191185 
L 263.017818 95.191173 
L 263.017819 95.191161 
L 263.017818 95.19115 
L 263.017817 95.191135 
L 263.017814 95.191106 
L 263.017803 95.191071 
L 263.017793 95.191044 
L 263.017784 95.191022 
L 263.017777 95.191004 
L 263.017772 95.190989 
L 263.017769 95.190978 
" clip-path="url(#pbd0496750e)" style="fill: none; stroke: #8c564b; stroke-width: 2; stroke-linecap: square"/>
   </g>
   <g id="line2d_27">
    <path d="M 133.288253 160.056169 
L 133.288251 160.056181 
L 133.288249 160.056191 
L 133.288246 160.056199 
L 133.288242 160.056204 
L 133.288238 160.056204 
L 133.288233 160.0562 
L 133.288229 160.056193 
L 133.288225 160.056182 
L 133.288221 160.056171 
L 133.288219 160.056162 
L 133.288218 160.056157 
L 133.288218 160.056157 
" clip-path="url(#pbd0496750e)" style="fill: none; stroke-dasharray: 2,3.3; stroke-dashoffset: 0; stroke: #e377c2; stroke-width: 2"/>
   </g>
   <g id="line2d_28">
    <path d="M 133.2882 160.056 
L 133.2882 160.056 
L 133.2882 160.056 
L 133.288203 160.056 
L 133.288205 160.056004 
L 133.288208 160.056011 
L 133.28821 160.05602 
L 133.288212 160.056031 
L 133.288213 160.056043 
L 133.288215 160.056057 
L 133.288218 160.056072 
L 133.288228 160.056085 
L 133.288237 160.056099 
L 133.288244 160.056114 
L 133.288249 160.056128 
L 133.288252 160.056143 
L 133.288253 160.056156 
L 133.288253 160.056169 
" clip-path="url(#pbd0496750e)" style="fill: none; stroke: #e377c2; stroke-width: 2; stroke-linecap: square"/>
   </g>
   <g id="line2d_29">
    <path d="M 165.720394 160.05574 
L 165.720421 160.055757 
L 165.720466 160.055765 
L 165.72052 160.05577 
L 165.72057 160.055782 
L 165.720614 160.055802 
L 165.72065 160.055829 
L 165.720677 160.055863 
L 165.720695 160.055903 
L 165.720704 160.055946 
L 165.720707 160.055986 
L 165.720708 160.056009 
L 165.720708 160.056009 
" clip-path="url(#pbd0496750e)" style="fill: none; stroke-dasharray: 2,3.3; stroke-dashoffset: 0; stroke: #7f7f7f; stroke-width: 2"/>
   </g>
   <g id="line2d_30">
    <path d="M 165.7206 160.056 
L 165.7206 160.056 
L 165.7206 160.055997 
L 165.720599 160.05597 
L 165.720579 160.055908 
L 165.72054 160.055856 
L 165.720503 160.055767 
L 165.72048 160.055656 
L 165.720446 160.055586 
L 165.720426 160.055548 
L 165.720405 160.055537 
L 165.720398 160.05555 
L 165.720388 160.055578 
L 165.720397 160.055602 
L 165.720396 160.055649 
L 165.720377 160.055687 
L 165.720378 160.055717 
L 165.720394 160.05574 
" clip-path="url(#pbd0496750e)" style="fill: none; stroke: #7f7f7f; stroke-width: 2; stroke-linecap: square"/>
   </g>
   <g id="line2d_31">
    <path d="M 230.585584 160.056041 
L 230.585608 160.056038 
L 230.585641 160.056034 
L 230.585672 160.05603 
L 230.585681 160.056025 
L 230.585667 160.056019 
L 230.585636 160.056014 
L 230.585593 160.05601 
L 230.585544 160.056007 
L 230.585497 160.056005 
L 230.585462 160.056004 
L 230.585446 160.056003 
L 230.585446 160.056003 
" clip-path="url(#pbd0496750e)" style="fill: none; stroke-dasharray: 2,3.3; stroke-dashoffset: 0; stroke: #bcbd22; stroke-width: 2"/>
   </g>
   <g id="line2d_32">
    <path d="M 230.5854 160.056 
L 230.5854 160.056 
L 230.5854 160.056002 
L 230.585404 160.056019 
L 230.585426 160.055987 
L 230.585441 160.055965 
L 230.585453 160.055958 
L 230.585459 160.055962 
L 230.585459 160.055967 
L 230.585467 160.055979 
L 230.585475 160.055991 
L 230.58547 160.056002 
L 230.585459 160.056052 
L 230.585468 160.056053 
L 230.585489 160.056051 
L 230.58552 160.056047 
L 230.585555 160.056044 
L 230.585584 160.056041 
" clip-path="url(#pbd0496750e)" style="fill: none; stroke: #bcbd22; stroke-width: 2; stroke-linecap: square"/>
   </g>
   <g id="line2d_33">
    <path d="M 263.017777 160.056207 
L 263.017778 160.056214 
L 263.017779 160.05622 
L 263.01778 160.056221 
L 263.017781 160.056219 
L 263.017782 160.056212 
L 263.017784 160.0562 
L 263.017786 160.056186 
L 263.017787 160.056169 
L 263.017789 160.056153 
L 263.01779 160.056141 
L 263.01779 160.056135 
L 263.01779 160.056135 
" clip-path="url(#pbd0496750e)" style="fill: none; stroke-dasharray: 2,3.3; stroke-dashoffset: 0; stroke: #17becf; stroke-width: 2"/>
   </g>
   <g id="line2d_34">
    <path d="M 263.0178 160.056 
L 263.0178 160.056 
L 263.0178 160.056 
L 263.0178 160.056 
L 263.0178 160.056006 
L 263.017801 160.056017 
L 263.017802 160.056031 
L 263.017798 160.056043 
L 263.017795 160.056057 
L 263.017792 160.056072 
L 263.017789 160.056089 
L 263.017785 160.056112 
L 263.017783 160.056135 
L 263.01778 160.056158 
L 263.017778 160.056174 
L 263.017777 160.056187 
L 263.017777 160.056198 
L 263.017777 160.056207 
" clip-path="url(#pbd0496750e)" style="fill: none; stroke: #17becf; stroke-width: 2; stroke-linecap: square"/>
   </g>
   <g id="line2d_35">
    <path d="M 230.585744 62.758792 
L 230.585804 62.758807 
L 230.585897 62.758832 
L 230.585999 62.75886 
L 230.58606 62.758883 
L 230.586073 62.758897 
L 230.586041 62.758902 
L 230.585971 62.758898 
L 230.585874 62.758888 
L 230.585769 62.758874 
L 230.585681 62.758861 
L 230.585638 62.758854 
L 230.585638 62.758854 
" clip-path="url(#pbd0496750e)" style="fill: none; stroke-dasharray: 2,3.3; stroke-dashoffset: 0; stroke: #2f4f4f; stroke-width: 2"/>
   </g>
   <g id="line2d_36">
    <path d="M 230.5854 62.7588 
L 230.5854 62.7588 
L 230.5854 62.758798 
L 230.585398 62.758783 
L 230.585395 62.75877 
L 230.585392 62.758761 
L 230.585391 62.758756 
L 230.585392 62.758754 
L 230.585393 62.758755 
L 230.585397 62.758759 
L 230.585416 62.758765 
L 230.585444 62.758771 
L 230.585472 62.758776 
L 230.585495 62.75878 
L 230.585546 62.758771 
L 230.585621 62.758774 
L 230.585706 62.758784 
L 230.585744 62.758792 
" clip-path="url(#pbd0496750e)" style="fill: none; stroke: #2f4f4f; stroke-width: 2; stroke-linecap: square"/>
   </g>
   <g id="line2d_37">
    <path d="M 230.585306 30.326653 
L 230.585313 30.326633 
L 230.58532 30.326614 
L 230.585329 30.326595 
L 230.585339 30.326574 
L 230.58535 30.32655 
L 230.585361 30.326524 
L 230.585372 30.326497 
L 230.585382 30.326471 
L 230.58539 30.326449 
L 230.585395 30.326433 
L 230.585397 30.326426 
L 230.585397 30.326426 
" clip-path="url(#pbd0496750e)" style="fill: none; stroke-dasharray: 2,3.3; stroke-dashoffset: 0; stroke: #cd5c5c; stroke-width: 2"/>
   </g>
   <g id="line2d_38">
    <path d="M 230.5854 30.3264 
L 230.5854 30.3264 
L 230.585397 30.326406 
L 230.585368 30.32646 
L 230.585347 30.326501 
L 230.585328 30.326531 
L 230.585311 30.326561 
L 230.585298 30.326587 
L 230.585288 30.326613 
L 230.585283 30.326639 
L 230.58528 30.326662 
L 230.58528 30.326679 
L 230.585281 30.32669 
L 230.585284 30.326694 
L 230.585289 30.326696 
L 230.585295 30.326687 
L 230.585301 30.326673 
L 230.585306 30.326653 
" clip-path="url(#pbd0496750e)" style="fill: none; stroke: #cd5c5c; stroke-width: 2; stroke-linecap: square"/>
   </g>
   <g id="line2d_39">
    <path clip-path="url(#pbd0496750e)" style="fill: none; stroke-dasharray: 2,3.3; stroke-dashoffset: 0; stroke: #add8e6; stroke-width: 2"/>
   </g>
   <g id="line2d_40">
    <path clip-path="url(#pbd0496750e)" style="fill: none; stroke: #add8e6; stroke-width: 2; stroke-linecap: square"/>
   </g>
   <g id="line2d_41">
    <path d="M 230.585699 192.48844 
L 230.585785 192.488448 
L 230.5859 192.48845 
L 230.586022 192.488433 
L 230.5861 192.488399 
L 230.586124 192.488363 
L 230.586095 192.488341 
L 230.58602 192.488338 
L 230.585914 192.488344 
L 230.585797 192.488354 
L 230.5857 192.488362 
L 230.585652 192.488367 
L 230.585652 192.488367 
" clip-path="url(#pbd0496750e)" style="fill: none; stroke-dasharray: 2,3.3; stroke-dashoffset: 0; stroke: #663399; stroke-width: 2"/>
   </g>
   <g id="line2d_42">
    <path d="M 230.5854 192.4884 
L 230.5854 192.4884 
L 230.5854 192.488401 
L 230.585403 192.488407 
L 230.585406 192.488411 
L 230.585406 192.488417 
L 230.585392 192.488421 
L 230.585383 192.488425 
L 230.585389 192.488426 
L 230.585399 192.488429 
L 230.585436 192.488433 
L 230.585469 192.48843 
L 230.585487 192.488434 
L 230.585503 192.488436 
L 230.585517 192.488438 
L 230.585562 192.488431 
L 230.585625 192.488433 
L 230.585699 192.48844 
" clip-path="url(#pbd0496750e)" style="fill: none; stroke: #663399; stroke-width: 2; stroke-linecap: square"/>
   </g>
   <g id="line2d_43">
    <path d="M 230.585321 224.920829 
L 230.585324 224.920821 
L 230.585327 224.920814 
L 230.58533 224.920809 
L 230.585335 224.920805 
L 230.585341 224.920803 
L 230.585349 224.920803 
L 230.585358 224.920805 
L 230.585368 224.920808 
L 230.585376 224.920812 
L 230.585382 224.920815 
L 230.585385 224.920816 
L 230.585385 224.920816 
" clip-path="url(#pbd0496750e)" style="fill: none; stroke-dasharray: 2,3.3; stroke-dashoffset: 0; stroke: #8fbc8f; stroke-width: 2"/>
   </g>
   <g id="line2d_44">
    <path d="M 230.5854 224.9208 
L 230.5854 224.9208 
L 230.585398 224.920803 
L 230.585385 224.920825 
L 230.585374 224.920843 
L 230.585366 224.920859 
L 230.58536 224.920873 
L 230.585355 224.920875 
L 230.58535 224.920871 
L 230.585345 224.920863 
L 230.585339 224.920855 
L 230.585333 224.920853 
L 230.585327 224.920853 
L 230.585323 224.920851 
L 230.585321 224.920846 
L 230.585319 224.920843 
L 230.58532 224.920837 
L 230.585321 224.920829 
" clip-path="url(#pbd0496750e)" style="fill: none; stroke: #8fbc8f; stroke-width: 2; stroke-linecap: square"/>
   </g>
   <g id="line2d_45">
    <path clip-path="url(#pbd0496750e)" style="fill: none; stroke-dasharray: 2,3.3; stroke-dashoffset: 0; stroke: #00ced1; stroke-width: 2"/>
   </g>
   <g id="line2d_46">
    <path clip-path="url(#pbd0496750e)" style="fill: none; stroke: #00ced1; stroke-width: 2; stroke-linecap: square"/>
   </g>
   <g id="line2d_47">
    <path d="M 165.720561 62.758923 
L 165.720566 62.758952 
L 165.720575 62.758978 
L 165.720585 62.758996 
L 165.720595 62.758999 
L 165.720602 62.758986 
L 165.720609 62.758958 
L 165.720615 62.75892 
L 165.720622 62.758877 
L 165.72063 62.758839 
L 165.720639 62.758815 
L 165.720645 62.758807 
L 165.720645 62.758807 
" clip-path="url(#pbd0496750e)" style="fill: none; stroke-dasharray: 2,3.3; stroke-dashoffset: 0; stroke: #6a5acd; stroke-width: 2"/>
   </g>
   <g id="line2d_48">
    <path d="M 165.7206 62.7588 
L 165.7206 62.7588 
L 165.7206 62.758797 
L 165.720599 62.758767 
L 165.720603 62.758741 
L 165.720606 62.758721 
L 165.720609 62.758707 
L 165.720611 62.7587 
L 165.72061 62.758699 
L 165.720606 62.758707 
L 165.720599 62.758726 
L 165.72059 62.758749 
L 165.72058 62.758775 
L 165.720571 62.758803 
L 165.720562 62.758831 
L 165.720558 62.758862 
L 165.720558 62.758892 
L 165.720561 62.758923 
" clip-path="url(#pbd0496750e)" style="fill: none; stroke: #6a5acd; stroke-width: 2; stroke-linecap: square"/>
   </g>
   <g id="line2d_49">
    <path d="M 165.720613 30.326532 
L 165.720614 30.326535 
L 165.720614 30.326533 
L 165.720614 30.326526 
L 165.720614 30.326513 
L 165.720613 30.326496 
L 165.72061 30.326474 
L 165.720607 30.32645 
L 165.720603 30.326425 
L 165.7206 30.326404 
L 165.720598 30.326391 
L 165.720597 30.326385 
L 165.720597 30.326385 
" clip-path="url(#pbd0496750e)" style="fill: none; stroke-dasharray: 2,3.3; stroke-dashoffset: 0; stroke: #808000; stroke-width: 2"/>
   </g>
   <g id="line2d_50">
    <path d="M 165.7206 30.3264 
L 165.7206 30.3264 
L 165.7206 30.326398 
L 165.720603 30.326374 
L 165.720607 30.326333 
L 165.720608 30.326303 
L 165.720608 30.326285 
L 165.720609 30.326278 
L 165.720611 30.326286 
L 165.720616 30.326304 
L 165.720622 30.32633 
L 165.720624 30.32636 
L 165.720622 30.326408 
L 165.720619 30.326449 
L 165.720616 30.326482 
L 165.720615 30.326507 
L 165.720614 30.326522 
L 165.720613 30.326532 
" clip-path="url(#pbd0496750e)" style="fill: none; stroke: #808000; stroke-width: 2; stroke-linecap: square"/>
   </g>
   <g id="line2d_51">
    <path clip-path="url(#pbd0496750e)" style="fill: none; stroke-dasharray: 2,3.3; stroke-dashoffset: 0; stroke: #a0522d; stroke-width: 2"/>
   </g>
   <g id="line2d_52">
    <path clip-path="url(#pbd0496750e)" style="fill: none; stroke: #a0522d; stroke-width: 2; stroke-linecap: square"/>
   </g>
   <g id="line2d_53">
    <path d="M 165.7205 192.488528 
L 165.72052 192.488489 
L 165.720541 192.488451 
L 165.720561 192.488416 
L 165.720579 192.488388 
L 165.720593 192.488369 
L 165.720605 192.48836 
L 165.720614 192.488359 
L 165.72062 192.488365 
L 165.720623 192.488375 
L 165.720624 192.488382 
L 165.720624 192.488386 
L 165.720624 192.488386 
" clip-path="url(#pbd0496750e)" style="fill: none; stroke-dasharray: 2,3.3; stroke-dashoffset: 0; stroke: #ff4500; stroke-width: 2"/>
   </g>
   <g id="line2d_54">
    <path d="M 165.7206 192.4884 
L 165.7206 192.4884 
L 165.720601 192.488405 
L 165.720611 192.488452 
L 165.720617 192.488491 
L 165.720591 192.488535 
L 165.720574 192.488568 
L 165.720557 192.488592 
L 165.720554 192.48862 
L 165.720547 192.488655 
L 165.720505 192.488686 
L 165.72045 192.488683 
L 165.720421 192.488672 
L 165.720425 192.488655 
L 165.72044 192.488631 
L 165.720459 192.488601 
L 165.720479 192.488566 
L 165.7205 192.488528 
" clip-path="url(#pbd0496750e)" style="fill: none; stroke: #ff4500; stroke-width: 2; stroke-linecap: square"/>
   </g>
   <g id="line2d_55">
    <path d="M 165.720679 224.920647 
L 165.720676 224.920642 
L 165.720672 224.92064 
L 165.720666 224.920643 
L 165.720659 224.920652 
L 165.720651 224.920666 
L 165.720641 224.920686 
L 165.720631 224.92071 
L 165.720621 224.920735 
L 165.720612 224.920757 
L 165.720607 224.920771 
L 165.720605 224.920777 
L 165.720605 224.920777 
" clip-path="url(#pbd0496750e)" style="fill: none; stroke-dasharray: 2,3.3; stroke-dashoffset: 0; stroke: #708090; stroke-width: 2"/>
   </g>
   <g id="line2d_56">
    <path d="M 165.7206 224.9208 
L 165.7206 224.9208 
L 165.720602 224.920799 
L 165.720621 224.92079 
L 165.720636 224.920783 
L 165.720647 224.920788 
L 165.720655 224.920803 
L 165.720661 224.920807 
L 165.720666 224.920806 
L 165.720669 224.920799 
L 165.720672 224.920786 
L 165.720674 224.920768 
L 165.720677 224.920745 
L 165.72068 224.92072 
L 165.72068 224.920698 
L 165.720682 224.920675 
L 165.720682 224.920658 
L 165.720679 224.920647 
" clip-path="url(#pbd0496750e)" style="fill: none; stroke: #708090; stroke-width: 2; stroke-linecap: square"/>
   </g>
   <g id="line2d_57">
    <path clip-path="url(#pbd0496750e)" style="fill: none; stroke-dasharray: 2,3.3; stroke-dashoffset: 0; stroke: #bdb76b; stroke-width: 2"/>
   </g>
   <g id="line2d_58">
    <path clip-path="url(#pbd0496750e)" style="fill: none; stroke: #bdb76b; stroke-width: 2; stroke-linecap: square"/>
   </g>
   <g id="patch_3">
    <path d="M 100.8558 224.9208 
L 100.8558 30.3264 
" style="fill: none; stroke: #000000; stroke-width: 0.8; stroke-linejoin: miter; stroke-linecap: square"/>
   </g>
   <g id="patch_4">
    <path d="M 295.4502 224.9208 
L 295.4502 30.3264 
" style="fill: none; stroke: #000000; stroke-width: 0.8; stroke-linejoin: miter; stroke-linecap: square"/>
   </g>
   <g id="patch_5">
    <path d="M 100.8558 224.9208 
L 295.4502 224.9208 
" style="fill: none; stroke: #000000; stroke-width: 0.8; stroke-linejoin: miter; stroke-linecap: square"/>
   </g>
   <g id="patch_6">
    <path d="M 100.8558 30.3264 
L 295.4502 30.3264 
" style="fill: none; stroke: #000000; stroke-width: 0.8; stroke-linejoin: miter; stroke-linecap: square"/>
   </g>
   <g id="patch_7">
    <path d="M 263.019112 137.353468 
C 265.599464 137.353468 268.074478 136.328284 269.899063 134.503699 
C 271.723647 132.679115 272.748832 130.2041 272.748832 127.623748 
C 272.748832 125.043396 271.723647 122.568382 269.899063 120.743797 
C 268.074478 118.919213 265.599464 117.894028 263.019112 117.894028 
C 260.43876 117.894028 257.963745 118.919213 256.139161 120.743797 
C 254.314576 122.568382 253.289392 125.043396 253.289392 127.623748 
C 253.289392 130.2041 254.314576 132.679115 256.139161 134.503699 
C 257.963745 136.328284 260.43876 137.353468 263.019112 137.353468 
z
" clip-path="url(#pbd0496750e)" style="fill: #1f77b4; stroke: #000000; stroke-linejoin: miter"/>
   </g>
   <g id="patch_8">
    <path d="M 241.162835 141.061122 
C 243.743187 141.061122 246.218201 140.035938 248.042786 138.211353 
C 249.86737 136.386769 250.892555 133.911754 250.892555 131.331402 
C 250.892555 128.75105 249.86737 126.276036 248.042786 124.451451 
C 246.218201 122.626867 243.743187 121.601682 241.162835 121.601682 
C 238.582483 121.601682 236.107468 122.626867 234.282884 124.451451 
C 232.458299 126.276036 231.433115 128.75105 231.433115 131.331402 
C 231.433115 133.911754 232.458299 136.386769 234.282884 138.211353 
C 236.107468 140.035938 238.582483 141.061122 241.162835 141.061122 
z
" clip-path="url(#pbd0496750e)" style="fill: #ff7f0e; stroke: #000000; stroke-linejoin: miter"/>
   </g>
   <g id="patch_9">
    <path d="M 133.288234 104.920685 
C 135.868586 104.920685 138.343601 103.8955 140.168185 102.070916 
C 141.992769 100.246331 143.017954 97.771316 143.017954 95.190965 
C 143.017954 92.610613 141.992769 90.135598 140.168185 88.311014 
C 138.343601 86.486429 135.868586 85.461245 133.288234 85.461245 
C 130.707882 85.461245 128.232867 86.486429 126.408283 88.311014 
C 124.583699 90.135598 123.558514 92.610613 123.558514 95.190965 
C 123.558514 97.771316 124.583699 100.246331 126.408283 102.070916 
C 128.232867 103.8955 130.707882 104.920685 133.288234 104.920685 
z
" clip-path="url(#pbd0496750e)" style="fill: #2ca02c; stroke: #000000; stroke-linejoin: miter"/>
   </g>
   <g id="patch_10">
    <path d="M 165.720416 104.920843 
C 168.300768 104.920843 170.775783 103.895658 172.600367 102.071074 
C 174.424951 100.24649 175.450136 97.771475 175.450136 95.191123 
C 175.450136 92.610771 174.424951 90.135756 172.600367 88.311172 
C 170.775783 86.486588 168.300768 85.461403 165.720416 85.461403 
C 163.140064 85.461403 160.665049 86.486588 158.840465 88.311172 
C 157.015881 90.135756 155.990696 92.610771 155.990696 95.191123 
C 155.990696 97.771475 157.015881 100.24649 158.840465 102.071074 
C 160.665049 103.895658 163.140064 104.920843 165.720416 104.920843 
z
" clip-path="url(#pbd0496750e)" style="fill: #d62728; stroke: #000000; stroke-linejoin: miter"/>
   </g>
   <g id="patch_11">
    <path d="M 230.585722 104.920531 
C 233.166073 104.920531 235.641088 103.895347 237.465673 102.070762 
C 239.290257 100.246178 240.315442 97.771163 240.315442 95.190811 
C 240.315442 92.610459 239.290257 90.135445 237.465673 88.31086 
C 235.641088 86.486276 233.166073 85.461091 230.585722 85.461091 
C 228.00537 85.461091 225.530355 86.486276 223.705771 88.31086 
C 221.881186 90.135445 220.856002 92.610459 220.856002 95.190811 
C 220.856002 97.771163 221.881186 100.246178 223.705771 102.070762 
C 225.530355 103.895347 228.00537 104.920531 230.585722 104.920531 
z
" clip-path="url(#pbd0496750e)" style="fill: #9467bd; stroke: #000000; stroke-linejoin: miter"/>
   </g>
   <g id="patch_12">
    <path d="M 263.017769 104.920698 
C 265.598121 104.920698 268.073135 103.895513 269.89772 102.070929 
C 271.722304 100.246344 272.747489 97.77133 272.747489 95.190978 
C 272.747489 92.610626 271.722304 90.135611 269.89772 88.311027 
C 268.073135 86.486442 265.598121 85.461258 263.017769 85.461258 
C 260.437417 85.461258 257.962402 86.486442 256.137818 88.311027 
C 254.313233 90.135611 253.288049 92.610626 253.288049 95.190978 
C 253.288049 97.77133 254.313233 100.246344 256.137818 102.070929 
C 257.962402 103.895513 260.437417 104.920698 263.017769 104.920698 
z
" clip-path="url(#pbd0496750e)" style="fill: #8c564b; stroke: #000000; stroke-linejoin: miter"/>
   </g>
   <g id="patch_13">
    <path d="M 133.288253 169.785889 
C 135.868605 169.785889 138.343619 168.760704 140.168204 166.93612 
C 141.992788 165.111535 143.017973 162.636521 143.017973 160.056169 
C 143.017973 157.475817 141.992788 155.000802 140.168204 153.176218 
C 138.343619 151.351633 135.868605 150.326449 133.288253 150.326449 
C 130.707901 150.326449 128.232886 151.351633 126.408302 153.176218 
C 124.583717 155.000802 123.558533 157.475817 123.558533 160.056169 
C 123.558533 162.636521 124.583717 165.111535 126.408302 166.93612 
C 128.232886 168.760704 130.707901 169.785889 133.288253 169.785889 
z
" clip-path="url(#pbd0496750e)" style="fill: #e377c2; stroke: #000000; stroke-linejoin: miter"/>
   </g>
   <g id="patch_14">
    <path d="M 165.720394 169.78546 
C 168.300746 169.78546 170.77576 168.760275 172.600345 166.935691 
C 174.424929 165.111106 175.450114 162.636092 175.450114 160.05574 
C 175.450114 157.475388 174.424929 155.000373 172.600345 153.175789 
C 170.77576 151.351204 168.300746 150.32602 165.720394 150.32602 
C 163.140042 150.32602 160.665027 151.351204 158.840443 153.175789 
C 157.015858 155.000373 155.990674 157.475388 155.990674 160.05574 
C 155.990674 162.636092 157.015858 165.111106 158.840443 166.935691 
C 160.665027 168.760275 163.140042 169.78546 165.720394 169.78546 
z
" clip-path="url(#pbd0496750e)" style="fill: #7f7f7f; stroke: #000000; stroke-linejoin: miter"/>
   </g>
   <g id="patch_15">
    <path d="M 230.585584 169.785761 
C 233.165936 169.785761 235.64095 168.760576 237.465535 166.935992 
C 239.290119 165.111408 240.315304 162.636393 240.315304 160.056041 
C 240.315304 157.475689 239.290119 155.000674 237.465535 153.17609 
C 235.64095 151.351506 233.165936 150.326321 230.585584 150.326321 
C 228.005232 150.326321 225.530217 151.351506 223.705633 153.17609 
C 221.881048 155.000674 220.855864 157.475689 220.855864 160.056041 
C 220.855864 162.636393 221.881048 165.111408 223.705633 166.935992 
C 225.530217 168.760576 228.005232 169.785761 230.585584 169.785761 
z
" clip-path="url(#pbd0496750e)" style="fill: #bcbd22; stroke: #000000; stroke-linejoin: miter"/>
   </g>
   <g id="patch_16">
    <path d="M 263.017777 169.785927 
C 265.598129 169.785927 268.073144 168.760742 269.897728 166.936158 
C 271.722312 165.111574 272.747497 162.636559 272.747497 160.056207 
C 272.747497 157.475855 271.722312 155.00084 269.897728 153.176256 
C 268.073144 151.351672 265.598129 150.326487 263.017777 150.326487 
C 260.437425 150.326487 257.96241 151.351672 256.137826 153.176256 
C 254.313242 155.00084 253.288057 157.475855 253.288057 160.056207 
C 253.288057 162.636559 254.313242 165.111574 256.137826 166.936158 
C 257.96241 168.760742 260.437425 169.785927 263.017777 169.785927 
z
" clip-path="url(#pbd0496750e)" style="fill: #17becf; stroke: #000000; stroke-linejoin: miter"/>
   </g>
   <g id="patch_17">
    <path d="M 230.585744 72.488512 
C 233.166096 72.488512 235.641111 71.463327 237.465695 69.638743 
C 239.290279 67.814159 240.315464 65.339144 240.315464 62.758792 
C 240.315464 60.17844 239.290279 57.703425 237.465695 55.878841 
C 235.641111 54.054257 233.166096 53.029072 230.585744 53.029072 
C 228.005392 53.029072 225.530377 54.054257 223.705793 55.878841 
C 221.881209 57.703425 220.856024 60.17844 220.856024 62.758792 
C 220.856024 65.339144 221.881209 67.814159 223.705793 69.638743 
C 225.530377 71.463327 228.005392 72.488512 230.585744 72.488512 
z
" clip-path="url(#pbd0496750e)" style="fill: #2f4f4f; stroke: #000000; stroke-linejoin: miter"/>
   </g>
   <g id="patch_18">
    <path d="M 230.585306 40.056373 
C 233.165658 40.056373 235.640673 39.031188 237.465257 37.206604 
C 239.289841 35.382019 240.315026 32.907005 240.315026 30.326653 
C 240.315026 27.746301 239.289841 25.271286 237.465257 23.446702 
C 235.640673 21.622117 233.165658 20.596933 230.585306 20.596933 
C 228.004954 20.596933 225.529939 21.622117 223.705355 23.446702 
C 221.880771 25.271286 220.855586 27.746301 220.855586 30.326653 
C 220.855586 32.907005 221.880771 35.382019 223.705355 37.206604 
C 225.529939 39.031188 228.004954 40.056373 230.585306 40.056373 
z
" clip-path="url(#pbd0496750e)" style="fill: #cd5c5c; stroke: #000000; stroke-linejoin: miter"/>
   </g>
   <g id="patch_19">
    <path d="M 230.585863 7.623673 
C 233.166215 7.623673 235.641229 6.598488 237.465814 4.773904 
C 239.290398 2.949319 240.315583 0.474305 240.315583 -2.106047 
C 240.315583 -4.686399 239.290398 -7.161414 237.465814 -8.985998 
C 235.641229 -10.810583 233.166215 -11.835767 230.585863 -11.835767 
C 228.005511 -11.835767 225.530496 -10.810583 223.705912 -8.985998 
C 221.881327 -7.161414 220.856143 -4.686399 220.856143 -2.106047 
C 220.856143 0.474305 221.881327 2.949319 223.705912 4.773904 
C 225.530496 6.598488 228.005511 7.623673 230.585863 7.623673 
z
" clip-path="url(#pbd0496750e)" style="fill: #add8e6; stroke: #000000; stroke-linejoin: miter"/>
   </g>
   <g id="patch_20">
    <path d="M 230.585699 202.21816 
C 233.166051 202.21816 235.641066 201.192975 237.46565 199.368391 
C 239.290235 197.543806 240.315419 195.068792 240.315419 192.48844 
C 240.315419 189.908088 239.290235 187.433073 237.46565 185.608489 
C 235.641066 183.783904 233.166051 182.75872 230.585699 182.75872 
C 228.005348 182.75872 225.530333 183.783904 223.705748 185.608489 
C 221.881164 187.433073 220.855979 189.908088 220.855979 192.48844 
C 220.855979 195.068792 221.881164 197.543806 223.705748 199.368391 
C 225.530333 201.192975 228.005348 202.21816 230.585699 202.21816 
z
" clip-path="url(#pbd0496750e)" style="fill: #663399; stroke: #000000; stroke-linejoin: miter"/>
   </g>
   <g id="patch_21">
    <path d="M 230.585321 234.650549 
C 233.165673 234.650549 235.640688 233.625365 237.465272 231.80078 
C 239.289857 229.976196 240.315041 227.501181 240.315041 224.920829 
C 240.315041 222.340478 239.289857 219.865463 237.465272 218.040878 
C 235.640688 216.216294 233.165673 215.191109 230.585321 215.191109 
C 228.00497 215.191109 225.529955 216.216294 223.70537 218.040878 
C 221.880786 219.865463 220.855601 222.340478 220.855601 224.920829 
C 220.855601 227.501181 221.880786 229.976196 223.70537 231.80078 
C 225.529955 233.625365 228.00497 234.650549 230.585321 234.650549 
z
" clip-path="url(#pbd0496750e)" style="fill: #8fbc8f; stroke: #000000; stroke-linejoin: miter"/>
   </g>
   <g id="patch_22">
    <path d="M 230.586186 267.082905 
C 233.166537 267.082905 235.641552 266.057721 237.466137 264.233136 
C 239.290721 262.408552 240.315906 259.933537 240.315906 257.353185 
C 240.315906 254.772834 239.290721 252.297819 237.466137 250.473234 
C 235.641552 248.64865 233.166537 247.623465 230.586186 247.623465 
C 228.005834 247.623465 225.530819 248.64865 223.706235 250.473234 
C 221.88165 252.297819 220.856466 254.772834 220.856466 257.353185 
C 220.856466 259.933537 221.88165 262.408552 223.706235 264.233136 
C 225.530819 266.057721 228.005834 267.082905 230.586186 267.082905 
z
" clip-path="url(#pbd0496750e)" style="fill: #00ced1; stroke: #000000; stroke-linejoin: miter"/>
   </g>
   <g id="patch_23">
    <path d="M 165.720561 72.488643 
C 168.300913 72.488643 170.775927 71.463458 172.600512 69.638874 
C 174.425096 67.814289 175.450281 65.339275 175.450281 62.758923 
C 175.450281 60.178571 174.425096 57.703556 172.600512 55.878972 
C 170.775927 54.054387 168.300913 53.029203 165.720561 53.029203 
C 163.140209 53.029203 160.665194 54.054387 158.84061 55.878972 
C 157.016025 57.703556 155.990841 60.178571 155.990841 62.758923 
C 155.990841 65.339275 157.016025 67.814289 158.84061 69.638874 
C 160.665194 71.463458 163.140209 72.488643 165.720561 72.488643 
z
" clip-path="url(#pbd0496750e)" style="fill: #6a5acd; stroke: #000000; stroke-linejoin: miter"/>
   </g>
   <g id="patch_24">
    <path d="M 165.720613 40.056252 
C 168.300965 40.056252 170.77598 39.031067 172.600564 37.206483 
C 174.425149 35.381898 175.450333 32.906883 175.450333 30.326532 
C 175.450333 27.74618 174.425149 25.271165 172.600564 23.446581 
C 170.77598 21.621996 168.300965 20.596812 165.720613 20.596812 
C 163.140261 20.596812 160.665247 21.621996 158.840662 23.446581 
C 157.016078 25.271165 155.990893 27.74618 155.990893 30.326532 
C 155.990893 32.906883 157.016078 35.381898 158.840662 37.206483 
C 160.665247 39.031067 163.140261 40.056252 165.720613 40.056252 
z
" clip-path="url(#pbd0496750e)" style="fill: #808000; stroke: #000000; stroke-linejoin: miter"/>
   </g>
   <g id="patch_25">
    <path d="M 165.720576 7.623725 
C 168.300928 7.623725 170.775943 6.59854 172.600527 4.773956 
C 174.425111 2.949372 175.450296 0.474357 175.450296 -2.105995 
C 175.450296 -4.686347 174.425111 -7.161362 172.600527 -8.985946 
C 170.775943 -10.81053 168.300928 -11.835715 165.720576 -11.835715 
C 163.140224 -11.835715 160.665209 -10.81053 158.840625 -8.985946 
C 157.016041 -7.161362 155.990856 -4.686347 155.990856 -2.105995 
C 155.990856 0.474357 157.016041 2.949372 158.840625 4.773956 
C 160.665209 6.59854 163.140224 7.623725 165.720576 7.623725 
z
" clip-path="url(#pbd0496750e)" style="fill: #a0522d; stroke: #000000; stroke-linejoin: miter"/>
   </g>
   <g id="patch_26">
    <path d="M 165.7205 202.218248 
C 168.300852 202.218248 170.775867 201.193064 172.600451 199.368479 
C 174.425035 197.543895 175.45022 195.06888 175.45022 192.488528 
C 175.45022 189.908176 174.425035 187.433162 172.600451 185.608577 
C 170.775867 183.783993 168.300852 182.758808 165.7205 182.758808 
C 163.140148 182.758808 160.665133 183.783993 158.840549 185.608577 
C 157.015965 187.433162 155.99078 189.908176 155.99078 192.488528 
C 155.99078 195.06888 157.015965 197.543895 158.840549 199.368479 
C 160.665133 201.193064 163.140148 202.218248 165.7205 202.218248 
z
" clip-path="url(#pbd0496750e)" style="fill: #ff4500; stroke: #000000; stroke-linejoin: miter"/>
   </g>
   <g id="patch_27">
    <path d="M 165.720679 234.650367 
C 168.301031 234.650367 170.776046 233.625183 172.60063 231.800598 
C 174.425215 229.976014 175.450399 227.500999 175.450399 224.920647 
C 175.450399 222.340295 174.425215 219.865281 172.60063 218.040696 
C 170.776046 216.216112 168.301031 215.190927 165.720679 215.190927 
C 163.140327 215.190927 160.665313 216.216112 158.840728 218.040696 
C 157.016144 219.865281 155.990959 222.340295 155.990959 224.920647 
C 155.990959 227.500999 157.016144 229.976014 158.840728 231.800598 
C 160.665313 233.625183 163.140327 234.650367 165.720679 234.650367 
z
" clip-path="url(#pbd0496750e)" style="fill: #708090; stroke: #000000; stroke-linejoin: miter"/>
   </g>
   <g id="patch_28">
    <path d="M 165.720116 267.082911 
C 168.300467 267.082911 170.775482 266.057727 172.600067 264.233142 
C 174.424651 262.408558 175.449836 259.933543 175.449836 257.353191 
C 175.449836 254.772839 174.424651 252.297825 172.600067 250.47324 
C 170.775482 248.648656 168.300467 247.623471 165.720116 247.623471 
C 163.139764 247.623471 160.664749 248.648656 158.840165 250.47324 
C 157.01558 252.297825 155.990396 254.772839 155.990396 257.353191 
C 155.990396 259.933543 157.01558 262.408558 158.840165 264.233142 
C 160.664749 266.057727 163.139764 267.082911 165.720116 267.082911 
z
" clip-path="url(#pbd0496750e)" style="fill: #bdb76b; stroke: #000000; stroke-linejoin: miter"/>
   </g>
   <g id="line2d_59">
    <path d="M 263.0178 127.6236 
" clip-path="url(#pbd0496750e)" style="fill: none; stroke: #1f77b4; stroke-width: 1.5; stroke-linecap: square"/>
    <defs>
     <path id="mf3e1d46ec0" d="M 0 4.949747 
L 2.969848 0 
L 0 -4.949747 
L -2.969848 0 
z
" style="stroke: #000000; stroke-linejoin: miter"/>
    </defs>
    <g clip-path="url(#pbd0496750e)">
     <use xlink:href="#mf3e1d46ec0" x="263.0178" y="127.6236" style="fill: #1f77b4; stroke: #000000; stroke-linejoin: miter"/>
    </g>
   </g>
   <g id="line2d_60">
    <path d="M 263.0178 127.6236 
" clip-path="url(#pbd0496750e)" style="fill: none; stroke: #ff7f0e; stroke-width: 1.5; stroke-linecap: square"/>
    <defs>
     <path id="m611936e07d" d="M 0 4.949747 
L 2.969848 0 
L 0 -4.949747 
L -2.969848 0 
z
" style="stroke: #000000; stroke-linejoin: miter"/>
    </defs>
    <g clip-path="url(#pbd0496750e)">
     <use xlink:href="#m611936e07d" x="263.0178" y="127.6236" style="fill: #ff7f0e; stroke: #000000; stroke-linejoin: miter"/>
    </g>
   </g>
   <g id="line2d_61">
    <path d="M 133.2882 95.1912 
" clip-path="url(#pbd0496750e)" style="fill: none; stroke: #2ca02c; stroke-width: 1.5; stroke-linecap: square"/>
    <defs>
     <path id="md001ae4b54" d="M 0 4.949747 
L 2.969848 0 
L 0 -4.949747 
L -2.969848 0 
z
" style="stroke: #000000; stroke-linejoin: miter"/>
    </defs>
    <g clip-path="url(#pbd0496750e)">
     <use xlink:href="#md001ae4b54" x="133.2882" y="95.1912" style="fill: #2ca02c; stroke: #000000; stroke-linejoin: miter"/>
    </g>
   </g>
   <g id="line2d_62">
    <path d="M 165.7206 95.1912 
" clip-path="url(#pbd0496750e)" style="fill: none; stroke: #d62728; stroke-width: 1.5; stroke-linecap: square"/>
    <defs>
     <path id="m3c35a25f14" d="M 0 4.949747 
L 2.969848 0 
L 0 -4.949747 
L -2.969848 0 
z
" style="stroke: #000000; stroke-linejoin: miter"/>
    </defs>
    <g clip-path="url(#pbd0496750e)">
     <use xlink:href="#m3c35a25f14" x="165.7206" y="95.1912" style="fill: #d62728; stroke: #000000; stroke-linejoin: miter"/>
    </g>
   </g>
   <g id="line2d_63">
    <path d="M 230.5854 95.1912 
" clip-path="url(#pbd0496750e)" style="fill: none; stroke: #9467bd; stroke-width: 1.5; stroke-linecap: square"/>
    <defs>
     <path id="m2ab71b5e9b" d="M 0 4.949747 
L 2.969848 0 
L 0 -4.949747 
L -2.969848 0 
z
" style="stroke: #000000; stroke-linejoin: miter"/>
    </defs>
    <g clip-path="url(#pbd0496750e)">
     <use xlink:href="#m2ab71b5e9b" x="230.5854" y="95.1912" style="fill: #9467bd; stroke: #000000; stroke-linejoin: miter"/>
    </g>
   </g>
   <g id="line2d_64">
    <path d="M 263.0178 95.1912 
" clip-path="url(#pbd0496750e)" style="fill: none; stroke: #8c564b; stroke-width: 1.5; stroke-linecap: square"/>
    <defs>
     <path id="m854850c752" d="M 0 4.949747 
L 2.969848 0 
L 0 -4.949747 
L -2.969848 0 
z
" style="stroke: #000000; stroke-linejoin: miter"/>
    </defs>
    <g clip-path="url(#pbd0496750e)">
     <use xlink:href="#m854850c752" x="263.0178" y="95.1912" style="fill: #8c564b; stroke: #000000; stroke-linejoin: miter"/>
    </g>
   </g>
   <g id="line2d_65">
    <path d="M 133.2882 160.056 
" clip-path="url(#pbd0496750e)" style="fill: none; stroke: #e377c2; stroke-width: 1.5; stroke-linecap: square"/>
    <defs>
     <path id="ma0db795a73" d="M 0 4.949747 
L 2.969848 0 
L 0 -4.949747 
L -2.969848 0 
z
" style="stroke: #000000; stroke-linejoin: miter"/>
    </defs>
    <g clip-path="url(#pbd0496750e)">
     <use xlink:href="#ma0db795a73" x="133.2882" y="160.056" style="fill: #e377c2; stroke: #000000; stroke-linejoin: miter"/>
    </g>
   </g>
   <g id="line2d_66">
    <path d="M 165.7206 160.056 
" clip-path="url(#pbd0496750e)" style="fill: none; stroke: #7f7f7f; stroke-width: 1.5; stroke-linecap: square"/>
    <defs>
     <path id="mafaa9bc081" d="M 0 4.949747 
L 2.969848 0 
L 0 -4.949747 
L -2.969848 0 
z
" style="stroke: #000000; stroke-linejoin: miter"/>
    </defs>
    <g clip-path="url(#pbd0496750e)">
     <use xlink:href="#mafaa9bc081" x="165.7206" y="160.056" style="fill: #7f7f7f; stroke: #000000; stroke-linejoin: miter"/>
    </g>
   </g>
   <g id="line2d_67">
    <path d="M 230.5854 160.056 
" clip-path="url(#pbd0496750e)" style="fill: none; stroke: #bcbd22; stroke-width: 1.5; stroke-linecap: square"/>
    <defs>
     <path id="m47ae9225f3" d="M 0 4.949747 
L 2.969848 0 
L 0 -4.949747 
L -2.969848 0 
z
" style="stroke: #000000; stroke-linejoin: miter"/>
    </defs>
    <g clip-path="url(#pbd0496750e)">
     <use xlink:href="#m47ae9225f3" x="230.5854" y="160.056" style="fill: #bcbd22; stroke: #000000; stroke-linejoin: miter"/>
    </g>
   </g>
   <g id="line2d_68">
    <path d="M 263.0178 160.056 
" clip-path="url(#pbd0496750e)" style="fill: none; stroke: #17becf; stroke-width: 1.5; stroke-linecap: square"/>
    <defs>
     <path id="m721c55d869" d="M 0 4.949747 
L 2.969848 0 
L 0 -4.949747 
L -2.969848 0 
z
" style="stroke: #000000; stroke-linejoin: miter"/>
    </defs>
    <g clip-path="url(#pbd0496750e)">
     <use xlink:href="#m721c55d869" x="263.0178" y="160.056" style="fill: #17becf; stroke: #000000; stroke-linejoin: miter"/>
    </g>
   </g>
   <g id="line2d_69">
    <path d="M 230.5854 62.7588 
" clip-path="url(#pbd0496750e)" style="fill: none; stroke: #2f4f4f; stroke-width: 1.5; stroke-linecap: square"/>
    <defs>
     <path id="mdd990fea73" d="M 0 4.949747 
L 2.969848 0 
L 0 -4.949747 
L -2.969848 0 
z
" style="stroke: #000000; stroke-linejoin: miter"/>
    </defs>
    <g clip-path="url(#pbd0496750e)">
     <use xlink:href="#mdd990fea73" x="230.5854" y="62.7588" style="fill: #2f4f4f; stroke: #000000; stroke-linejoin: miter"/>
    </g>
   </g>
   <g id="line2d_70">
    <path d="M 230.5854 30.3264 
" clip-path="url(#pbd0496750e)" style="fill: none; stroke: #cd5c5c; stroke-width: 1.5; stroke-linecap: square"/>
    <defs>
     <path id="m700c934ff8" d="M 0 4.949747 
L 2.969848 0 
L 0 -4.949747 
L -2.969848 0 
z
" style="stroke: #000000; stroke-linejoin: miter"/>
    </defs>
    <g clip-path="url(#pbd0496750e)">
     <use xlink:href="#m700c934ff8" x="230.5854" y="30.3264" style="fill: #cd5c5c; stroke: #000000; stroke-linejoin: miter"/>
    </g>
   </g>
   <g id="line2d_71">
    <path clip-path="url(#pbd0496750e)" style="fill: none; stroke: #add8e6; stroke-width: 1.5; stroke-linecap: square"/>
    <defs>
     <path id="m362d09dcb7" d="M 0 4.949747 
L 2.969848 0 
L 0 -4.949747 
L -2.969848 0 
z
" style="stroke: #000000; stroke-linejoin: miter"/>
    </defs>
    <g clip-path="url(#pbd0496750e)"/>
   </g>
   <g id="line2d_72">
    <path d="M 230.5854 192.4884 
" clip-path="url(#pbd0496750e)" style="fill: none; stroke: #663399; stroke-width: 1.5; stroke-linecap: square"/>
    <defs>
     <path id="mbf7c8c0832" d="M 0 4.949747 
L 2.969848 0 
L 0 -4.949747 
L -2.969848 0 
z
" style="stroke: #000000; stroke-linejoin: miter"/>
    </defs>
    <g clip-path="url(#pbd0496750e)">
     <use xlink:href="#mbf7c8c0832" x="230.5854" y="192.4884" style="fill: #663399; stroke: #000000; stroke-linejoin: miter"/>
    </g>
   </g>
   <g id="line2d_73">
    <path d="M 230.5854 224.9208 
" clip-path="url(#pbd0496750e)" style="fill: none; stroke: #8fbc8f; stroke-width: 1.5; stroke-linecap: square"/>
    <defs>
     <path id="mea6535abdd" d="M 0 4.949747 
L 2.969848 0 
L 0 -4.949747 
L -2.969848 0 
z
" style="stroke: #000000; stroke-linejoin: miter"/>
    </defs>
    <g clip-path="url(#pbd0496750e)">
     <use xlink:href="#mea6535abdd" x="230.5854" y="224.9208" style="fill: #8fbc8f; stroke: #000000; stroke-linejoin: miter"/>
    </g>
   </g>
   <g id="line2d_74">
    <path clip-path="url(#pbd0496750e)" style="fill: none; stroke: #00ced1; stroke-width: 1.5; stroke-linecap: square"/>
    <defs>
     <path id="m9c6cdb6b4c" d="M 0 4.949747 
L 2.969848 0 
L 0 -4.949747 
L -2.969848 0 
z
" style="stroke: #000000; stroke-linejoin: miter"/>
    </defs>
    <g clip-path="url(#pbd0496750e)">
     <use xlink:href="#m9c6cdb6b4c" x="230.5854" y="257.3532" style="fill: #00ced1; stroke: #000000; stroke-linejoin: miter"/>
    </g>
   </g>
   <g id="line2d_75">
    <path d="M 165.7206 62.7588 
" clip-path="url(#pbd0496750e)" style="fill: none; stroke: #6a5acd; stroke-width: 1.5; stroke-linecap: square"/>
    <defs>
     <path id="m16c68cdb64" d="M 0 4.949747 
L 2.969848 0 
L 0 -4.949747 
L -2.969848 0 
z
" style="stroke: #000000; stroke-linejoin: miter"/>
    </defs>
    <g clip-path="url(#pbd0496750e)">
     <use xlink:href="#m16c68cdb64" x="165.7206" y="62.7588" style="fill: #6a5acd; stroke: #000000; stroke-linejoin: miter"/>
    </g>
   </g>
   <g id="line2d_76">
    <path d="M 165.7206 30.3264 
" clip-path="url(#pbd0496750e)" style="fill: none; stroke: #808000; stroke-width: 1.5; stroke-linecap: square"/>
    <defs>
     <path id="m14f0a2c432" d="M 0 4.949747 
L 2.969848 0 
L 0 -4.949747 
L -2.969848 0 
z
" style="stroke: #000000; stroke-linejoin: miter"/>
    </defs>
    <g clip-path="url(#pbd0496750e)">
     <use xlink:href="#m14f0a2c432" x="165.7206" y="30.3264" style="fill: #808000; stroke: #000000; stroke-linejoin: miter"/>
    </g>
   </g>
   <g id="line2d_77">
    <path clip-path="url(#pbd0496750e)" style="fill: none; stroke: #a0522d; stroke-width: 1.5; stroke-linecap: square"/>
    <defs>
     <path id="mf0d05e9880" d="M 0 4.949747 
L 2.969848 0 
L 0 -4.949747 
L -2.969848 0 
z
" style="stroke: #000000; stroke-linejoin: miter"/>
    </defs>
    <g clip-path="url(#pbd0496750e)"/>
   </g>
   <g id="line2d_78">
    <path d="M 165.7206 192.4884 
" clip-path="url(#pbd0496750e)" style="fill: none; stroke: #ff4500; stroke-width: 1.5; stroke-linecap: square"/>
    <defs>
     <path id="md042b91858" d="M 0 4.949747 
L 2.969848 0 
L 0 -4.949747 
L -2.969848 0 
z
" style="stroke: #000000; stroke-linejoin: miter"/>
    </defs>
    <g clip-path="url(#pbd0496750e)">
     <use xlink:href="#md042b91858" x="165.7206" y="192.4884" style="fill: #ff4500; stroke: #000000; stroke-linejoin: miter"/>
    </g>
   </g>
   <g id="line2d_79">
    <path d="M 165.7206 224.9208 
" clip-path="url(#pbd0496750e)" style="fill: none; stroke: #708090; stroke-width: 1.5; stroke-linecap: square"/>
    <defs>
     <path id="m7d52025929" d="M 0 4.949747 
L 2.969848 0 
L 0 -4.949747 
L -2.969848 0 
z
" style="stroke: #000000; stroke-linejoin: miter"/>
    </defs>
    <g clip-path="url(#pbd0496750e)">
     <use xlink:href="#m7d52025929" x="165.7206" y="224.9208" style="fill: #708090; stroke: #000000; stroke-linejoin: miter"/>
    </g>
   </g>
   <g id="line2d_80">
    <path clip-path="url(#pbd0496750e)" style="fill: none; stroke: #bdb76b; stroke-width: 1.5; stroke-linecap: square"/>
    <defs>
     <path id="mc229796054" d="M 0 4.949747 
L 2.969848 0 
L 0 -4.949747 
L -2.969848 0 
z
" style="stroke: #000000; stroke-linejoin: miter"/>
    </defs>
    <g clip-path="url(#pbd0496750e)">
     <use xlink:href="#mc229796054" x="165.7206" y="257.3532" style="fill: #bdb76b; stroke: #000000; stroke-linejoin: miter"/>
    </g>
   </g>
  </g>
 </g>
 <defs>
  <clipPath id="pbd0496750e">
   <rect x="100.8558" y="30.3264" width="194.5944" height="194.5944"/>
  </clipPath>
 </defs>
</svg>
