<?xml version="1.0" encoding="utf-8" standalone="no"?>
<!DOCTYPE svg PUBLIC "-//W3C//DTD SVG 1.1//EN"
  "http://www.w3.org/Graphics/SVG/1.1/DTD/svg11.dtd">
<svg xmlns:xlink="http://www.w3.org/1999/xlink" width="386.64pt" height="252.72pt" viewBox="0 0 386.64 252.72" xmlns="http://www.w3.org/2000/svg" version="1.1">
 <metadata>
  <rdf:RDF xmlns:dc="http://purl.org/dc/elements/1.1/" xmlns:cc="http://creativecommons.org/ns#" xmlns:rdf="http://www.w3.org/1999/02/22-rdf-syntax-ns#">
   <cc:Work>
    <dc:type rdf:resource="http://purl.org/dc/dcmitype/StillImage"/>
    <dc:date>2023-07-11T22:26:54.708075</dc:date>
    <dc:format>image/svg+xml</dc:format>
    <dc:creator>
     <cc:Agent>
      <dc:title>Matplotlib v3.6.2, https://matplotlib.org/</dc:title>
     </cc:Agent>
    </dc:creator>
   </cc:Work>
  </rdf:RDF>
 </metadata>
 <defs>
  <style type="text/css">*{stroke-linejoin: round; stroke-linecap: butt}</style>
 </defs>
 <g id="figure_1">
  <g id="patch_1">
   <path d="M 0 252.72 
L 386.64 252.72 
L 386.64 0 
L 0 0 
z
" style="fill: #ffffff"/>
  </g>
  <g id="axes_1">
   <g id="patch_2">
    <path d="M 100.8558 224.9208 
L 295.4502 224.9208 
L 295.4502 30.3264 
L 100.8558 30.3264 
z
" style="fill: #ffffff"/>
   </g>
   <g id="matplotlib.axis_1">
    <g id="xtick_1">
     <g id="line2d_1">
      <defs>
       <path id="m33d4a41e87" d="M 0 0 
L 0 3.5 
" style="stroke: #000000; stroke-width: 0.8"/>
      </defs>
      <g>
       <use xlink:href="#m33d4a41e87" x="100.8558" y="224.9208" style="stroke: #000000; stroke-width: 0.8"/>
      </g>
     </g>
     <g id="text_1">
      <!-- −0.5 -->
      <g transform="translate(88.714394 239.519237) scale(0.1 -0.1)">
       <defs>
        <path id="DejaVuSans-2212" d="M 678 2272 
L 4684 2272 
L 4684 1741 
L 678 1741 
L 678 2272 
z
" transform="scale(0.015625)"/>
        <path id="DejaVuSans-30" d="M 2034 4250 
Q 1547 4250 1301 3770 
Q 1056 3291 1056 2328 
Q 1056 1369 1301 889 
Q 1547 409 2034 409 
Q 2525 409 2770 889 
Q 3016 1369 3016 2328 
Q 3016 3291 2770 3770 
Q 2525 4250 2034 4250 
z
M 2034 4750 
Q 2819 4750 3233 4129 
Q 3647 3509 3647 2328 
Q 3647 1150 3233 529 
Q 2819 -91 2034 -91 
Q 1250 -91 836 529 
Q 422 1150 422 2328 
Q 422 3509 836 4129 
Q 1250 4750 2034 4750 
z
" transform="scale(0.015625)"/>
        <path id="DejaVuSans-2e" d="M 684 794 
L 1344 794 
L 1344 0 
L 684 0 
L 684 794 
z
" transform="scale(0.015625)"/>
        <path id="DejaVuSans-35" d="M 691 4666 
L 3169 4666 
L 3169 4134 
L 1269 4134 
L 1269 2991 
Q 1406 3038 1543 3061 
Q 1681 3084 1819 3084 
Q 2600 3084 3056 2656 
Q 3513 2228 3513 1497 
Q 3513 744 3044 326 
Q 2575 -91 1722 -91 
Q 1428 -91 1123 -41 
Q 819 9 494 109 
L 494 744 
Q 775 591 1075 516 
Q 1375 441 1709 441 
Q 2250 441 2565 725 
Q 2881 1009 2881 1497 
Q 2881 1984 2565 2268 
Q 2250 2553 1709 2553 
Q 1456 2553 1204 2497 
Q 953 2441 691 2322 
L 691 4666 
z
" transform="scale(0.015625)"/>
       </defs>
       <use xlink:href="#DejaVuSans-2212"/>
       <use xlink:href="#DejaVuSans-30" x="83.789062"/>
       <use xlink:href="#DejaVuSans-2e" x="147.412109"/>
       <use xlink:href="#DejaVuSans-35" x="179.199219"/>
      </g>
     </g>
    </g>
    <g id="xtick_2">
     <g id="line2d_2">
      <g>
       <use xlink:href="#m33d4a41e87" x="133.2882" y="224.9208" style="stroke: #000000; stroke-width: 0.8"/>
      </g>
     </g>
     <g id="text_2">
      <!-- 0.0 -->
      <g transform="translate(125.336638 239.519237) scale(0.1 -0.1)">
       <use xlink:href="#DejaVuSans-30"/>
       <use xlink:href="#DejaVuSans-2e" x="63.623047"/>
       <use xlink:href="#DejaVuSans-30" x="95.410156"/>
      </g>
     </g>
    </g>
    <g id="xtick_3">
     <g id="line2d_3">
      <g>
       <use xlink:href="#m33d4a41e87" x="165.7206" y="224.9208" style="stroke: #000000; stroke-width: 0.8"/>
      </g>
     </g>
     <g id="text_3">
      <!-- 0.5 -->
      <g transform="translate(157.769037 239.519237) scale(0.1 -0.1)">
       <use xlink:href="#DejaVuSans-30"/>
       <use xlink:href="#DejaVuSans-2e" x="63.623047"/>
       <use xlink:href="#DejaVuSans-35" x="95.410156"/>
      </g>
     </g>
    </g>
    <g id="xtick_4">
     <g id="line2d_4">
      <g>
       <use xlink:href="#m33d4a41e87" x="198.153" y="224.9208" style="stroke: #000000; stroke-width: 0.8"/>
      </g>
     </g>
     <g id="text_4">
      <!-- 1.0 -->
      <g transform="translate(190.201437 239.519237) scale(0.1 -0.1)">
       <defs>
        <path id="DejaVuSans-31" d="M 794 531 
L 1825 531 
L 1825 4091 
L 703 3866 
L 703 4441 
L 1819 4666 
L 2450 4666 
L 2450 531 
L 3481 531 
L 3481 0 
L 794 0 
L 794 531 
z
" transform="scale(0.015625)"/>
       </defs>
       <use xlink:href="#DejaVuSans-31"/>
       <use xlink:href="#DejaVuSans-2e" x="63.623047"/>
       <use xlink:href="#DejaVuSans-30" x="95.410156"/>
      </g>
     </g>
    </g>
    <g id="xtick_5">
     <g id="line2d_5">
      <g>
       <use xlink:href="#m33d4a41e87" x="230.5854" y="224.9208" style="stroke: #000000; stroke-width: 0.8"/>
      </g>
     </g>
     <g id="text_5">
      <!-- 1.5 -->
      <g transform="translate(222.633837 239.519237) scale(0.1 -0.1)">
       <use xlink:href="#DejaVuSans-31"/>
       <use xlink:href="#DejaVuSans-2e" x="63.623047"/>
       <use xlink:href="#DejaVuSans-35" x="95.410156"/>
      </g>
     </g>
    </g>
    <g id="xtick_6">
     <g id="line2d_6">
      <g>
       <use xlink:href="#m33d4a41e87" x="263.0178" y="224.9208" style="stroke: #000000; stroke-width: 0.8"/>
      </g>
     </g>
     <g id="text_6">
      <!-- 2.0 -->
      <g transform="translate(255.066237 239.519237) scale(0.1 -0.1)">
       <defs>
        <path id="DejaVuSans-32" d="M 1228 531 
L 3431 531 
L 3431 0 
L 469 0 
L 469 531 
Q 828 903 1448 1529 
Q 2069 2156 2228 2338 
Q 2531 2678 2651 2914 
Q 2772 3150 2772 3378 
Q 2772 3750 2511 3984 
Q 2250 4219 1831 4219 
Q 1534 4219 1204 4116 
Q 875 4013 500 3803 
L 500 4441 
Q 881 4594 1212 4672 
Q 1544 4750 1819 4750 
Q 2544 4750 2975 4387 
Q 3406 4025 3406 3419 
Q 3406 3131 3298 2873 
Q 3191 2616 2906 2266 
Q 2828 2175 2409 1742 
Q 1991 1309 1228 531 
z
" transform="scale(0.015625)"/>
       </defs>
       <use xlink:href="#DejaVuSans-32"/>
       <use xlink:href="#DejaVuSans-2e" x="63.623047"/>
       <use xlink:href="#DejaVuSans-30" x="95.410156"/>
      </g>
     </g>
    </g>
    <g id="xtick_7">
     <g id="line2d_7">
      <g>
       <use xlink:href="#m33d4a41e87" x="295.4502" y="224.9208" style="stroke: #000000; stroke-width: 0.8"/>
      </g>
     </g>
     <g id="text_7">
      <!-- 2.5 -->
      <g transform="translate(287.498637 239.519237) scale(0.1 -0.1)">
       <use xlink:href="#DejaVuSans-32"/>
       <use xlink:href="#DejaVuSans-2e" x="63.623047"/>
       <use xlink:href="#DejaVuSans-35" x="95.410156"/>
      </g>
     </g>
    </g>
    <g id="text_8">
     <!-- x(m) -->
     <g transform="translate(186.42175 253.197362) scale(0.1 -0.1)">
      <defs>
       <path id="DejaVuSans-78" d="M 3513 3500 
L 2247 1797 
L 3578 0 
L 2900 0 
L 1881 1375 
L 863 0 
L 184 0 
L 1544 1831 
L 300 3500 
L 978 3500 
L 1906 2253 
L 2834 3500 
L 3513 3500 
z
" transform="scale(0.015625)"/>
       <path id="DejaVuSans-28" d="M 1984 4856 
Q 1566 4138 1362 3434 
Q 1159 2731 1159 2009 
Q 1159 1288 1364 580 
Q 1569 -128 1984 -844 
L 1484 -844 
Q 1016 -109 783 600 
Q 550 1309 550 2009 
Q 550 2706 781 3412 
Q 1013 4119 1484 4856 
L 1984 4856 
z
" transform="scale(0.015625)"/>
       <path id="DejaVuSans-6d" d="M 3328 2828 
Q 3544 3216 3844 3400 
Q 4144 3584 4550 3584 
Q 5097 3584 5394 3201 
Q 5691 2819 5691 2113 
L 5691 0 
L 5113 0 
L 5113 2094 
Q 5113 2597 4934 2840 
Q 4756 3084 4391 3084 
Q 3944 3084 3684 2787 
Q 3425 2491 3425 1978 
L 3425 0 
L 2847 0 
L 2847 2094 
Q 2847 2600 2669 2842 
Q 2491 3084 2119 3084 
Q 1678 3084 1418 2786 
Q 1159 2488 1159 1978 
L 1159 0 
L 581 0 
L 581 3500 
L 1159 3500 
L 1159 2956 
Q 1356 3278 1631 3431 
Q 1906 3584 2284 3584 
Q 2666 3584 2933 3390 
Q 3200 3197 3328 2828 
z
" transform="scale(0.015625)"/>
       <path id="DejaVuSans-29" d="M 513 4856 
L 1013 4856 
Q 1481 4119 1714 3412 
Q 1947 2706 1947 2009 
Q 1947 1309 1714 600 
Q 1481 -109 1013 -844 
L 513 -844 
Q 928 -128 1133 580 
Q 1338 1288 1338 2009 
Q 1338 2731 1133 3434 
Q 928 4138 513 4856 
z
" transform="scale(0.015625)"/>
      </defs>
      <use xlink:href="#DejaVuSans-78"/>
      <use xlink:href="#DejaVuSans-28" x="59.179688"/>
      <use xlink:href="#DejaVuSans-6d" x="98.193359"/>
      <use xlink:href="#DejaVuSans-29" x="195.605469"/>
     </g>
    </g>
   </g>
   <g id="matplotlib.axis_2">
    <g id="ytick_1">
     <g id="line2d_8">
      <defs>
       <path id="m4aa3232d7d" d="M 0 0 
L -3.5 0 
" style="stroke: #000000; stroke-width: 0.8"/>
      </defs>
      <g>
       <use xlink:href="#m4aa3232d7d" x="100.8558" y="224.9208" style="stroke: #000000; stroke-width: 0.8"/>
      </g>
     </g>
     <g id="text_9">
      <!-- −0.5 -->
      <g transform="translate(69.572988 228.720019) scale(0.1 -0.1)">
       <use xlink:href="#DejaVuSans-2212"/>
       <use xlink:href="#DejaVuSans-30" x="83.789062"/>
       <use xlink:href="#DejaVuSans-2e" x="147.412109"/>
       <use xlink:href="#DejaVuSans-35" x="179.199219"/>
      </g>
     </g>
    </g>
    <g id="ytick_2">
     <g id="line2d_9">
      <g>
       <use xlink:href="#m4aa3232d7d" x="100.8558" y="192.4884" style="stroke: #000000; stroke-width: 0.8"/>
      </g>
     </g>
     <g id="text_10">
      <!-- 0.0 -->
      <g transform="translate(77.952675 196.287619) scale(0.1 -0.1)">
       <use xlink:href="#DejaVuSans-30"/>
       <use xlink:href="#DejaVuSans-2e" x="63.623047"/>
       <use xlink:href="#DejaVuSans-30" x="95.410156"/>
      </g>
     </g>
    </g>
    <g id="ytick_3">
     <g id="line2d_10">
      <g>
       <use xlink:href="#m4aa3232d7d" x="100.8558" y="160.056" style="stroke: #000000; stroke-width: 0.8"/>
      </g>
     </g>
     <g id="text_11">
      <!-- 0.5 -->
      <g transform="translate(77.952675 163.855219) scale(0.1 -0.1)">
       <use xlink:href="#DejaVuSans-30"/>
       <use xlink:href="#DejaVuSans-2e" x="63.623047"/>
       <use xlink:href="#DejaVuSans-35" x="95.410156"/>
      </g>
     </g>
    </g>
    <g id="ytick_4">
     <g id="line2d_11">
      <g>
       <use xlink:href="#m4aa3232d7d" x="100.8558" y="127.6236" style="stroke: #000000; stroke-width: 0.8"/>
      </g>
     </g>
     <g id="text_12">
      <!-- 1.0 -->
      <g transform="translate(77.952675 131.422819) scale(0.1 -0.1)">
       <use xlink:href="#DejaVuSans-31"/>
       <use xlink:href="#DejaVuSans-2e" x="63.623047"/>
       <use xlink:href="#DejaVuSans-30" x="95.410156"/>
      </g>
     </g>
    </g>
    <g id="ytick_5">
     <g id="line2d_12">
      <g>
       <use xlink:href="#m4aa3232d7d" x="100.8558" y="95.1912" style="stroke: #000000; stroke-width: 0.8"/>
      </g>
     </g>
     <g id="text_13">
      <!-- 1.5 -->
      <g transform="translate(77.952675 98.990419) scale(0.1 -0.1)">
       <use xlink:href="#DejaVuSans-31"/>
       <use xlink:href="#DejaVuSans-2e" x="63.623047"/>
       <use xlink:href="#DejaVuSans-35" x="95.410156"/>
      </g>
     </g>
    </g>
    <g id="ytick_6">
     <g id="line2d_13">
      <g>
       <use xlink:href="#m4aa3232d7d" x="100.8558" y="62.7588" style="stroke: #000000; stroke-width: 0.8"/>
      </g>
     </g>
     <g id="text_14">
      <!-- 2.0 -->
      <g transform="translate(77.952675 66.558019) scale(0.1 -0.1)">
       <use xlink:href="#DejaVuSans-32"/>
       <use xlink:href="#DejaVuSans-2e" x="63.623047"/>
       <use xlink:href="#DejaVuSans-30" x="95.410156"/>
      </g>
     </g>
    </g>
    <g id="ytick_7">
     <g id="line2d_14">
      <g>
       <use xlink:href="#m4aa3232d7d" x="100.8558" y="30.3264" style="stroke: #000000; stroke-width: 0.8"/>
      </g>
     </g>
     <g id="text_15">
      <!-- 2.5 -->
      <g transform="translate(77.952675 34.125619) scale(0.1 -0.1)">
       <use xlink:href="#DejaVuSans-32"/>
       <use xlink:href="#DejaVuSans-2e" x="63.623047"/>
       <use xlink:href="#DejaVuSans-35" x="95.410156"/>
      </g>
     </g>
    </g>
    <g id="text_16">
     <!-- y(m) -->
     <g transform="translate(63.4933 139.35485) rotate(-90) scale(0.1 -0.1)">
      <defs>
       <path id="DejaVuSans-79" d="M 2059 -325 
Q 1816 -950 1584 -1140 
Q 1353 -1331 966 -1331 
L 506 -1331 
L 506 -850 
L 844 -850 
Q 1081 -850 1212 -737 
Q 1344 -625 1503 -206 
L 1606 56 
L 191 3500 
L 800 3500 
L 1894 763 
L 2988 3500 
L 3597 3500 
L 2059 -325 
z
" transform="scale(0.015625)"/>
      </defs>
      <use xlink:href="#DejaVuSans-79"/>
      <use xlink:href="#DejaVuSans-28" x="59.179688"/>
      <use xlink:href="#DejaVuSans-6d" x="98.193359"/>
      <use xlink:href="#DejaVuSans-29" x="195.605469"/>
     </g>
    </g>
   </g>
   <g id="line2d_15">
    <path d="M 199.592908 127.523189 
L 212.567036 127.607194 
L 225.540301 127.618482 
L 238.033021 127.621653 
L 246.260952 127.622905 
L 250.960638 127.62321 
L 254.273175 127.623353 
L 256.702486 127.623433 
L 258.562968 127.623488 
L 260.032965 127.623529 
L 261.223669 127.623562 
L 262.207751 127.623587 
L 262.207751 127.623587 
" clip-path="url(#pc926060cce)" style="fill: none; stroke-dasharray: 2,3.3; stroke-dashoffset: 0; stroke: #1f77b4; stroke-width: 2"/>
   </g>
   <g id="line2d_16">
    <path d="M 133.2882 127.6236 
L 133.2882 127.6236 
L 133.768676 127.621531 
L 138.573349 127.593776 
L 147.701648 127.493337 
L 160.673863 127.41217 
L 173.646739 127.459601 
L 186.619963 127.486284 
L 199.592908 127.523189 
" clip-path="url(#pc926060cce)" style="fill: none; stroke: #1f77b4; stroke-width: 2; stroke-linecap: square"/>
   </g>
   <g id="line2d_17">
    <path d="M 207.09932 154.814228 
L 209.207892 151.023809 
L 209.97568 148.646561 
L 211.365433 145.995411 
L 212.514396 144.134365 
L 213.488435 142.742804 
L 214.28065 141.690939 
L 214.862976 140.917935 
L 215.308843 140.3261 
L 215.661133 139.858479 
L 215.946488 139.479707 
L 216.182319 139.166674 
L 216.182319 139.166674 
" clip-path="url(#pc926060cce)" style="fill: none; stroke-dasharray: 2,3.3; stroke-dashoffset: 0; stroke: #ff7f0e; stroke-width: 2"/>
   </g>
   <g id="line2d_18">
    <path d="M 198.153 205.46136 
L 198.153 205.46136 
L 198.164648 204.981025 
L 198.417246 200.200816 
L 199.877385 191.454013 
L 201.48243 180.264573 
L 202.738317 169.560811 
L 204.917797 161.07713 
L 207.09932 154.814228 
" clip-path="url(#pc926060cce)" style="fill: none; stroke: #ff7f0e; stroke-width: 2; stroke-linecap: square"/>
   </g>
   <g id="line2d_19">
    <path d="M 133.288222 95.191135 
L 133.288224 95.19111 
L 133.288225 95.191079 
L 133.288225 95.191045 
L 133.288226 95.191014 
L 133.288227 95.190988 
L 133.288229 95.190969 
L 133.288232 95.190959 
L 133.288234 95.190957 
L 133.288236 95.190963 
L 133.288237 95.190969 
L 133.288237 95.190973 
L 133.288237 95.190973 
" clip-path="url(#pc926060cce)" style="fill: none; stroke-dasharray: 2,3.3; stroke-dashoffset: 0; stroke: #2ca02c; stroke-width: 2"/>
   </g>
   <g id="line2d_20">
    <path d="M 133.2882 95.1912 
L 133.2882 95.1912 
L 133.2882 95.1912 
L 133.288202 95.1912 
L 133.288204 95.191197 
L 133.288206 95.19119 
L 133.288211 95.191173 
L 133.288216 95.191155 
L 133.288222 95.191135 
" clip-path="url(#pc926060cce)" style="fill: none; stroke: #2ca02c; stroke-width: 2; stroke-linecap: square"/>
   </g>
   <g id="line2d_21">
    <path d="M 165.720366 95.191081 
L 165.720306 95.191043 
L 165.720226 95.19101 
L 165.720149 95.190986 
L 165.720112 95.190981 
L 165.720116 95.190995 
L 165.720156 95.191027 
L 165.720226 95.191073 
L 165.720313 95.191126 
L 165.7204 95.191175 
L 165.720466 95.191207 
L 165.720497 95.19122 
L 165.720497 95.19122 
" clip-path="url(#pc926060cce)" style="fill: none; stroke-dasharray: 2,3.3; stroke-dashoffset: 0; stroke: #d62728; stroke-width: 2"/>
   </g>
   <g id="line2d_22">
    <path d="M 165.7206 95.1912 
L 165.7206 95.1912 
L 165.720601 95.191194 
L 165.720603 95.19115 
L 165.720581 95.191153 
L 165.720541 95.191158 
L 165.720483 95.19116 
L 165.720422 95.191125 
L 165.720366 95.191081 
" clip-path="url(#pc926060cce)" style="fill: none; stroke: #d62728; stroke-width: 2; stroke-linecap: square"/>
   </g>
   <g id="line2d_23">
    <path d="M 230.585477 95.191298 
L 230.585509 95.191295 
L 230.585553 95.191297 
L 230.585596 95.191323 
L 230.585614 95.191355 
L 230.585613 95.191371 
L 230.585597 95.19136 
L 230.58557 95.191326 
L 230.585534 95.191283 
L 230.585496 95.191245 
L 230.585467 95.19122 
L 230.585452 95.191208 
L 230.585452 95.191208 
" clip-path="url(#pc926060cce)" style="fill: none; stroke-dasharray: 2,3.3; stroke-dashoffset: 0; stroke: #9467bd; stroke-width: 2"/>
   </g>
   <g id="line2d_24">
    <path d="M 230.5854 95.1912 
L 230.5854 95.1912 
L 230.5854 95.191198 
L 230.585399 95.191183 
L 230.585405 95.191174 
L 230.585427 95.191186 
L 230.585443 95.191202 
L 230.585457 95.191257 
L 230.585477 95.191298 
" clip-path="url(#pc926060cce)" style="fill: none; stroke: #9467bd; stroke-width: 2; stroke-linecap: square"/>
   </g>
   <g id="line2d_25">
    <path d="M 263.017819 95.191161 
L 263.017818 95.19115 
L 263.017817 95.191138 
L 263.017815 95.191128 
L 263.017814 95.191119 
L 263.017813 95.191112 
L 263.017811 95.191108 
L 263.017809 95.191107 
L 263.017808 95.191108 
L 263.017807 95.191111 
L 263.017806 95.191114 
L 263.017806 95.191115 
L 263.017806 95.191115 
" clip-path="url(#pc926060cce)" style="fill: none; stroke-dasharray: 2,3.3; stroke-dashoffset: 0; stroke: #8c564b; stroke-width: 2"/>
   </g>
   <g id="line2d_26">
    <path d="M 263.0178 95.1912 
L 263.0178 95.1912 
L 263.017801 95.1912 
L 263.017807 95.191203 
L 263.017812 95.191199 
L 263.017815 95.191193 
L 263.017817 95.191185 
L 263.017818 95.191173 
L 263.017819 95.191161 
" clip-path="url(#pc926060cce)" style="fill: none; stroke: #8c564b; stroke-width: 2; stroke-linecap: square"/>
   </g>
   <g id="line2d_27">
    <path d="M 133.288213 160.056043 
L 133.288214 160.056058 
L 133.288215 160.056074 
L 133.288216 160.056091 
L 133.288216 160.056107 
L 133.288215 160.05612 
L 133.288214 160.05613 
L 133.288213 160.056136 
L 133.288212 160.056138 
L 133.288211 160.056136 
L 133.28821 160.056134 
L 133.28821 160.056133 
L 133.28821 160.056133 
" clip-path="url(#pc926060cce)" style="fill: none; stroke-dasharray: 2,3.3; stroke-dashoffset: 0; stroke: #e377c2; stroke-width: 2"/>
   </g>
   <g id="line2d_28">
    <path d="M 133.2882 160.056 
L 133.2882 160.056 
L 133.2882 160.056 
L 133.288203 160.056 
L 133.288205 160.056004 
L 133.288208 160.056011 
L 133.28821 160.05602 
L 133.288212 160.056031 
L 133.288213 160.056043 
" clip-path="url(#pc926060cce)" style="fill: none; stroke: #e377c2; stroke-width: 2; stroke-linecap: square"/>
   </g>
   <g id="line2d_29">
    <path d="M 165.720446 160.055586 
L 165.720428 160.055547 
L 165.720418 160.05552 
L 165.720419 160.055514 
L 165.720432 160.055542 
L 165.720456 160.055598 
L 165.720487 160.055674 
L 165.720521 160.05576 
L 165.720554 160.055846 
L 165.720581 160.055921 
L 165.7206 160.055973 
L 165.720608 160.055998 
L 165.720608 160.055998 
" clip-path="url(#pc926060cce)" style="fill: none; stroke-dasharray: 2,3.3; stroke-dashoffset: 0; stroke: #7f7f7f; stroke-width: 2"/>
   </g>
   <g id="line2d_30">
    <path d="M 165.7206 160.056 
L 165.7206 160.056 
L 165.7206 160.055997 
L 165.720599 160.05597 
L 165.720579 160.055908 
L 165.72054 160.055856 
L 165.720503 160.055767 
L 165.72048 160.055656 
L 165.720446 160.055586 
" clip-path="url(#pc926060cce)" style="fill: none; stroke: #7f7f7f; stroke-width: 2; stroke-linecap: square"/>
   </g>
   <g id="line2d_31">
    <path d="M 230.585459 160.055967 
L 230.585468 160.055979 
L 230.58549 160.055992 
L 230.585519 160.056005 
L 230.585539 160.056017 
L 230.585547 160.056029 
L 230.585545 160.056035 
L 230.585531 160.05603 
L 230.585506 160.05601 
L 230.585477 160.055985 
L 230.585451 160.055963 
L 230.585438 160.055953 
L 230.585438 160.055953 
" clip-path="url(#pc926060cce)" style="fill: none; stroke-dasharray: 2,3.3; stroke-dashoffset: 0; stroke: #bcbd22; stroke-width: 2"/>
   </g>
   <g id="line2d_32">
    <path d="M 230.5854 160.056 
L 230.5854 160.056 
L 230.5854 160.056002 
L 230.585404 160.056019 
L 230.585426 160.055987 
L 230.585441 160.055965 
L 230.585453 160.055958 
L 230.585459 160.055962 
L 230.585459 160.055967 
" clip-path="url(#pc926060cce)" style="fill: none; stroke: #bcbd22; stroke-width: 2; stroke-linecap: square"/>
   </g>
   <g id="line2d_33">
    <path d="M 263.017795 160.056057 
L 263.017792 160.056072 
L 263.01779 160.05609 
L 263.017788 160.056107 
L 263.017787 160.056122 
L 263.017787 160.056135 
L 263.017787 160.056144 
L 263.017788 160.056148 
L 263.017788 160.056148 
L 263.017789 160.056145 
L 263.01779 160.056142 
L 263.01779 160.05614 
L 263.01779 160.05614 
" clip-path="url(#pc926060cce)" style="fill: none; stroke-dasharray: 2,3.3; stroke-dashoffset: 0; stroke: #17becf; stroke-width: 2"/>
   </g>
   <g id="line2d_34">
    <path d="M 263.0178 160.056 
L 263.0178 160.056 
L 263.0178 160.056 
L 263.0178 160.056 
L 263.0178 160.056006 
L 263.017801 160.056017 
L 263.017802 160.056031 
L 263.017798 160.056043 
L 263.017795 160.056057 
" clip-path="url(#pc926060cce)" style="fill: none; stroke: #17becf; stroke-width: 2; stroke-linecap: square"/>
   </g>
   <g id="line2d_35">
    <path d="M 230.585393 62.758755 
L 230.585395 62.758758 
L 230.585398 62.758762 
L 230.585401 62.758766 
L 230.585403 62.758771 
L 230.585404 62.758777 
L 230.585405 62.758782 
L 230.585405 62.758787 
L 230.585404 62.758791 
L 230.585403 62.758794 
L 230.585402 62.758797 
L 230.585402 62.758798 
L 230.585402 62.758798 
" clip-path="url(#pc926060cce)" style="fill: none; stroke-dasharray: 2,3.3; stroke-dashoffset: 0; stroke: #2f4f4f; stroke-width: 2"/>
   </g>
   <g id="line2d_36">
    <path d="M 230.5854 62.7588 
L 230.5854 62.7588 
L 230.5854 62.758798 
L 230.585398 62.758783 
L 230.585395 62.75877 
L 230.585392 62.758761 
L 230.585391 62.758756 
L 230.585392 62.758754 
L 230.585393 62.758755 
" clip-path="url(#pc926060cce)" style="fill: none; stroke: #2f4f4f; stroke-width: 2; stroke-linecap: square"/>
   </g>
   <g id="line2d_37">
    <path d="M 230.585288 30.326613 
L 230.585283 30.326639 
L 230.585279 30.326666 
L 230.58528 30.326689 
L 230.585285 30.326701 
L 230.585295 30.326697 
L 230.585308 30.326679 
L 230.585325 30.326648 
L 230.585342 30.326607 
L 230.585357 30.326564 
L 230.585369 30.326527 
L 230.585374 30.326506 
L 230.585374 30.326506 
" clip-path="url(#pc926060cce)" style="fill: none; stroke-dasharray: 2,3.3; stroke-dashoffset: 0; stroke: #cd5c5c; stroke-width: 2"/>
   </g>
   <g id="line2d_38">
    <path d="M 230.5854 30.3264 
L 230.5854 30.3264 
L 230.585397 30.326406 
L 230.585368 30.32646 
L 230.585347 30.326501 
L 230.585328 30.326531 
L 230.585311 30.326561 
L 230.585298 30.326587 
L 230.585288 30.326613 
" clip-path="url(#pc926060cce)" style="fill: none; stroke: #cd5c5c; stroke-width: 2; stroke-linecap: square"/>
   </g>
   <g id="line2d_39">
    <path clip-path="url(#pc926060cce)" style="fill: none; stroke-dasharray: 2,3.3; stroke-dashoffset: 0; stroke: #add8e6; stroke-width: 2"/>
   </g>
   <g id="line2d_40">
    <path clip-path="url(#pc926060cce)" style="fill: none; stroke: #add8e6; stroke-width: 2; stroke-linecap: square"/>
   </g>
   <g id="line2d_41">
    <path d="M 230.585389 192.488426 
L 230.585395 192.488429 
L 230.585397 192.488435 
L 230.585397 192.48844 
L 230.585396 192.488443 
L 230.585393 192.488443 
L 230.58539 192.488439 
L 230.585386 192.488432 
L 230.585381 192.488423 
L 230.585378 192.488413 
L 230.585377 192.488404 
L 230.585377 192.488397 
L 230.585377 192.488397 
" clip-path="url(#pc926060cce)" style="fill: none; stroke-dasharray: 2,3.3; stroke-dashoffset: 0; stroke: #663399; stroke-width: 2"/>
   </g>
   <g id="line2d_42">
    <path d="M 230.5854 192.4884 
L 230.5854 192.4884 
L 230.5854 192.488401 
L 230.585403 192.488407 
L 230.585406 192.488411 
L 230.585406 192.488417 
L 230.585392 192.488421 
L 230.585383 192.488425 
L 230.585389 192.488426 
" clip-path="url(#pc926060cce)" style="fill: none; stroke: #663399; stroke-width: 2; stroke-linecap: square"/>
   </g>
   <g id="line2d_43">
    <path d="M 230.58535 224.920871 
L 230.585345 224.920863 
L 230.58534 224.920854 
L 230.585335 224.920846 
L 230.585334 224.920838 
L 230.585336 224.920831 
L 230.585341 224.920825 
L 230.585348 224.920821 
L 230.585356 224.920817 
L 230.585364 224.920814 
L 230.585369 224.920812 
L 230.585371 224.920813 
L 230.585371 224.920813 
" clip-path="url(#pc926060cce)" style="fill: none; stroke-dasharray: 2,3.3; stroke-dashoffset: 0; stroke: #8fbc8f; stroke-width: 2"/>
   </g>
   <g id="line2d_44">
    <path d="M 230.5854 224.9208 
L 230.5854 224.9208 
L 230.585398 224.920803 
L 230.585385 224.920825 
L 230.585374 224.920843 
L 230.585366 224.920859 
L 230.58536 224.920873 
L 230.585355 224.920875 
L 230.58535 224.920871 
" clip-path="url(#pc926060cce)" style="fill: none; stroke: #8fbc8f; stroke-width: 2; stroke-linecap: square"/>
   </g>
   <g id="line2d_45">
    <path clip-path="url(#pc926060cce)" style="fill: none; stroke-dasharray: 2,3.3; stroke-dashoffset: 0; stroke: #00ced1; stroke-width: 2"/>
   </g>
   <g id="line2d_46">
    <path clip-path="url(#pc926060cce)" style="fill: none; stroke: #00ced1; stroke-width: 2; stroke-linecap: square"/>
   </g>
   <g id="line2d_47">
    <path d="M 165.72061 62.758699 
L 165.720606 62.758707 
L 165.720598 62.758718 
L 165.72059 62.758732 
L 165.720582 62.758746 
L 165.720577 62.758761 
L 165.720573 62.758772 
L 165.720573 62.758781 
L 165.720576 62.758785 
L 165.72058 62.758788 
L 165.720586 62.758789 
L 165.720589 62.758789 
L 165.720589 62.758789 
" clip-path="url(#pc926060cce)" style="fill: none; stroke-dasharray: 2,3.3; stroke-dashoffset: 0; stroke: #6a5acd; stroke-width: 2"/>
   </g>
   <g id="line2d_48">
    <path d="M 165.7206 62.7588 
L 165.7206 62.7588 
L 165.7206 62.758797 
L 165.720599 62.758767 
L 165.720603 62.758741 
L 165.720606 62.758721 
L 165.720609 62.758707 
L 165.720611 62.7587 
L 165.72061 62.758699 
" clip-path="url(#pc926060cce)" style="fill: none; stroke: #6a5acd; stroke-width: 2; stroke-linecap: square"/>
   </g>
   <g id="line2d_49">
    <path d="M 165.720611 30.326286 
L 165.720617 30.326303 
L 165.720624 30.326323 
L 165.720632 30.326343 
L 165.720639 30.326361 
L 165.720643 30.326376 
L 165.720643 30.326384 
L 165.72064 30.326386 
L 165.720635 30.32638 
L 165.720628 30.32637 
L 165.720621 30.326355 
L 165.720617 30.326344 
L 165.720617 30.326344 
" clip-path="url(#pc926060cce)" style="fill: none; stroke-dasharray: 2,3.3; stroke-dashoffset: 0; stroke: #808000; stroke-width: 2"/>
   </g>
   <g id="line2d_50">
    <path d="M 165.7206 30.3264 
L 165.7206 30.3264 
L 165.7206 30.326398 
L 165.720603 30.326374 
L 165.720607 30.326333 
L 165.720608 30.326303 
L 165.720608 30.326285 
L 165.720609 30.326278 
L 165.720611 30.326286 
" clip-path="url(#pc926060cce)" style="fill: none; stroke: #808000; stroke-width: 2; stroke-linecap: square"/>
   </g>
   <g id="line2d_51">
    <path clip-path="url(#pc926060cce)" style="fill: none; stroke-dasharray: 2,3.3; stroke-dashoffset: 0; stroke: #a0522d; stroke-width: 2"/>
   </g>
   <g id="line2d_52">
    <path clip-path="url(#pc926060cce)" style="fill: none; stroke: #a0522d; stroke-width: 2; stroke-linecap: square"/>
   </g>
   <g id="line2d_53">
    <path d="M 165.720554 192.48862 
L 165.720552 192.488656 
L 165.720558 192.488701 
L 165.720573 192.488742 
L 165.720591 192.488761 
L 165.720612 192.488755 
L 165.720636 192.488724 
L 165.720662 192.488672 
L 165.720686 192.488609 
L 165.720705 192.488547 
L 165.720715 192.488502 
L 165.720719 192.488481 
L 165.720719 192.488481 
" clip-path="url(#pc926060cce)" style="fill: none; stroke-dasharray: 2,3.3; stroke-dashoffset: 0; stroke: #ff4500; stroke-width: 2"/>
   </g>
   <g id="line2d_54">
    <path d="M 165.7206 192.4884 
L 165.7206 192.4884 
L 165.720601 192.488405 
L 165.720611 192.488452 
L 165.720617 192.488491 
L 165.720591 192.488535 
L 165.720574 192.488568 
L 165.720557 192.488592 
L 165.720554 192.48862 
" clip-path="url(#pc926060cce)" style="fill: none; stroke: #ff4500; stroke-width: 2; stroke-linecap: square"/>
   </g>
   <g id="line2d_55">
    <path d="M 165.720666 224.920806 
L 165.720669 224.920799 
L 165.720672 224.920788 
L 165.720673 224.920776 
L 165.720672 224.920765 
L 165.720668 224.920757 
L 165.720661 224.920753 
L 165.720651 224.920754 
L 165.720642 224.920758 
L 165.720632 224.920765 
L 165.720625 224.920774 
L 165.72062 224.920782 
L 165.72062 224.920782 
" clip-path="url(#pc926060cce)" style="fill: none; stroke-dasharray: 2,3.3; stroke-dashoffset: 0; stroke: #708090; stroke-width: 2"/>
   </g>
   <g id="line2d_56">
    <path d="M 165.7206 224.9208 
L 165.7206 224.9208 
L 165.720602 224.920799 
L 165.720621 224.92079 
L 165.720636 224.920783 
L 165.720647 224.920788 
L 165.720655 224.920803 
L 165.720661 224.920807 
L 165.720666 224.920806 
" clip-path="url(#pc926060cce)" style="fill: none; stroke: #708090; stroke-width: 2; stroke-linecap: square"/>
   </g>
   <g id="line2d_57">
    <path clip-path="url(#pc926060cce)" style="fill: none; stroke-dasharray: 2,3.3; stroke-dashoffset: 0; stroke: #bdb76b; stroke-width: 2"/>
   </g>
   <g id="line2d_58">
    <path clip-path="url(#pc926060cce)" style="fill: none; stroke: #bdb76b; stroke-width: 2; stroke-linecap: square"/>
   </g>
   <g id="patch_3">
    <path d="M 100.8558 224.9208 
L 100.8558 30.3264 
" style="fill: none; stroke: #000000; stroke-width: 0.8; stroke-linejoin: miter; stroke-linecap: square"/>
   </g>
   <g id="patch_4">
    <path d="M 295.4502 224.9208 
L 295.4502 30.3264 
" style="fill: none; stroke: #000000; stroke-width: 0.8; stroke-linejoin: miter; stroke-linecap: square"/>
   </g>
   <g id="patch_5">
    <path d="M 100.8558 224.9208 
L 295.4502 224.9208 
" style="fill: none; stroke: #000000; stroke-width: 0.8; stroke-linejoin: miter; stroke-linecap: square"/>
   </g>
   <g id="patch_6">
    <path d="M 100.8558 30.3264 
L 295.4502 30.3264 
" style="fill: none; stroke: #000000; stroke-width: 0.8; stroke-linejoin: miter; stroke-linecap: square"/>
   </g>
   <g id="patch_7">
    <path d="M 199.592908 137.252909 
C 202.17326 137.252909 204.648275 136.227724 206.472859 134.40314 
C 208.297443 132.578556 209.322628 130.103541 209.322628 127.523189 
C 209.322628 124.942837 208.297443 122.467822 206.472859 120.643238 
C 204.648275 118.818654 202.17326 117.793469 199.592908 117.793469 
C 197.012556 117.793469 194.537541 118.818654 192.712957 120.643238 
C 190.888373 122.467822 189.863188 124.942837 189.863188 127.523189 
C 189.863188 130.103541 190.888373 132.578556 192.712957 134.40314 
C 194.537541 136.227724 197.012556 137.252909 199.592908 137.252909 
z
" clip-path="url(#pc926060cce)" style="fill: #1f77b4; stroke: #000000; stroke-linejoin: miter"/>
   </g>
   <g id="patch_8">
    <path d="M 207.09932 164.543948 
C 209.679672 164.543948 212.154687 163.518763 213.979271 161.694179 
C 215.803855 159.869594 216.82904 157.39458 216.82904 154.814228 
C 216.82904 152.233876 215.803855 149.758861 213.979271 147.934277 
C 212.154687 146.109692 209.679672 145.084508 207.09932 145.084508 
C 204.518968 145.084508 202.043953 146.109692 200.219369 147.934277 
C 198.394785 149.758861 197.3696 152.233876 197.3696 154.814228 
C 197.3696 157.39458 198.394785 159.869594 200.219369 161.694179 
C 202.043953 163.518763 204.518968 164.543948 207.09932 164.543948 
z
" clip-path="url(#pc926060cce)" style="fill: #ff7f0e; stroke: #000000; stroke-linejoin: miter"/>
   </g>
   <g id="patch_9">
    <path d="M 133.288222 104.920855 
C 135.868574 104.920855 138.343588 103.895671 140.168173 102.071086 
C 141.992757 100.246502 143.017942 97.771487 143.017942 95.191135 
C 143.017942 92.610783 141.992757 90.135769 140.168173 88.311184 
C 138.343588 86.4866 135.868574 85.461415 133.288222 85.461415 
C 130.70787 85.461415 128.232855 86.4866 126.408271 88.311184 
C 124.583686 90.135769 123.558502 92.610783 123.558502 95.191135 
C 123.558502 97.771487 124.583686 100.246502 126.408271 102.071086 
C 128.232855 103.895671 130.70787 104.920855 133.288222 104.920855 
z
" clip-path="url(#pc926060cce)" style="fill: #2ca02c; stroke: #000000; stroke-linejoin: miter"/>
   </g>
   <g id="patch_10">
    <path d="M 165.720366 104.920801 
C 168.300718 104.920801 170.775732 103.895616 172.600317 102.071032 
C 174.424901 100.246447 175.450086 97.771432 175.450086 95.191081 
C 175.450086 92.610729 174.424901 90.135714 172.600317 88.31113 
C 170.775732 86.486545 168.300718 85.461361 165.720366 85.461361 
C 163.140014 85.461361 160.664999 86.486545 158.840415 88.31113 
C 157.01583 90.135714 155.990646 92.610729 155.990646 95.191081 
C 155.990646 97.771432 157.01583 100.246447 158.840415 102.071032 
C 160.664999 103.895616 163.140014 104.920801 165.720366 104.920801 
z
" clip-path="url(#pc926060cce)" style="fill: #d62728; stroke: #000000; stroke-linejoin: miter"/>
   </g>
   <g id="patch_11">
    <path d="M 230.585477 104.921018 
C 233.165829 104.921018 235.640844 103.895833 237.465428 102.071249 
C 239.290013 100.246664 240.315197 97.77165 240.315197 95.191298 
C 240.315197 92.610946 239.290013 90.135931 237.465428 88.311347 
C 235.640844 86.486762 233.165829 85.461578 230.585477 85.461578 
C 228.005125 85.461578 225.530111 86.486762 223.705526 88.311347 
C 221.880942 90.135931 220.855757 92.610946 220.855757 95.191298 
C 220.855757 97.77165 221.880942 100.246664 223.705526 102.071249 
C 225.530111 103.895833 228.005125 104.921018 230.585477 104.921018 
z
" clip-path="url(#pc926060cce)" style="fill: #9467bd; stroke: #000000; stroke-linejoin: miter"/>
   </g>
   <g id="patch_12">
    <path d="M 263.017819 104.920881 
C 265.59817 104.920881 268.073185 103.895697 269.89777 102.071112 
C 271.722354 100.246528 272.747539 97.771513 272.747539 95.191161 
C 272.747539 92.610809 271.722354 90.135795 269.89777 88.31121 
C 268.073185 86.486626 265.59817 85.461441 263.017819 85.461441 
C 260.437467 85.461441 257.962452 86.486626 256.137868 88.31121 
C 254.313283 90.135795 253.288099 92.610809 253.288099 95.191161 
C 253.288099 97.771513 254.313283 100.246528 256.137868 102.071112 
C 257.962452 103.895697 260.437467 104.920881 263.017819 104.920881 
z
" clip-path="url(#pc926060cce)" style="fill: #8c564b; stroke: #000000; stroke-linejoin: miter"/>
   </g>
   <g id="patch_13">
    <path d="M 133.288213 169.785763 
C 135.868565 169.785763 138.34358 168.760579 140.168164 166.935994 
C 141.992748 165.11141 143.017933 162.636395 143.017933 160.056043 
C 143.017933 157.475691 141.992748 155.000677 140.168164 153.176092 
C 138.34358 151.351508 135.868565 150.326323 133.288213 150.326323 
C 130.707861 150.326323 128.232846 151.351508 126.408262 153.176092 
C 124.583678 155.000677 123.558493 157.475691 123.558493 160.056043 
C 123.558493 162.636395 124.583678 165.11141 126.408262 166.935994 
C 128.232846 168.760579 130.707861 169.785763 133.288213 169.785763 
z
" clip-path="url(#pc926060cce)" style="fill: #e377c2; stroke: #000000; stroke-linejoin: miter"/>
   </g>
   <g id="patch_14">
    <path d="M 165.720446 169.785306 
C 168.300798 169.785306 170.775813 168.760121 172.600397 166.935537 
C 174.424981 165.110952 175.450166 162.635938 175.450166 160.055586 
C 175.450166 157.475234 174.424981 155.000219 172.600397 153.175635 
C 170.775813 151.35105 168.300798 150.325866 165.720446 150.325866 
C 163.140094 150.325866 160.665079 151.35105 158.840495 153.175635 
C 157.015911 155.000219 155.990726 157.475234 155.990726 160.055586 
C 155.990726 162.635938 157.015911 165.110952 158.840495 166.935537 
C 160.665079 168.760121 163.140094 169.785306 165.720446 169.785306 
z
" clip-path="url(#pc926060cce)" style="fill: #7f7f7f; stroke: #000000; stroke-linejoin: miter"/>
   </g>
   <g id="patch_15">
    <path d="M 230.585459 169.785687 
C 233.165811 169.785687 235.640826 168.760502 237.46541 166.935918 
C 239.289995 165.111334 240.315179 162.636319 240.315179 160.055967 
C 240.315179 157.475615 239.289995 155.0006 237.46541 153.176016 
C 235.640826 151.351432 233.165811 150.326247 230.585459 150.326247 
C 228.005108 150.326247 225.530093 151.351432 223.705508 153.176016 
C 221.880924 155.0006 220.855739 157.475615 220.855739 160.055967 
C 220.855739 162.636319 221.880924 165.111334 223.705508 166.935918 
C 225.530093 168.760502 228.005108 169.785687 230.585459 169.785687 
z
" clip-path="url(#pc926060cce)" style="fill: #bcbd22; stroke: #000000; stroke-linejoin: miter"/>
   </g>
   <g id="patch_16">
    <path d="M 263.017795 169.785777 
C 265.598147 169.785777 268.073162 168.760592 269.897746 166.936008 
C 271.72233 165.111424 272.747515 162.636409 272.747515 160.056057 
C 272.747515 157.475705 271.72233 155.00069 269.897746 153.176106 
C 268.073162 151.351522 265.598147 150.326337 263.017795 150.326337 
C 260.437443 150.326337 257.962428 151.351522 256.137844 153.176106 
C 254.31326 155.00069 253.288075 157.475705 253.288075 160.056057 
C 253.288075 162.636409 254.31326 165.111424 256.137844 166.936008 
C 257.962428 168.760592 260.437443 169.785777 263.017795 169.785777 
z
" clip-path="url(#pc926060cce)" style="fill: #17becf; stroke: #000000; stroke-linejoin: miter"/>
   </g>
   <g id="patch_17">
    <path d="M 230.585393 72.488475 
C 233.165745 72.488475 235.64076 71.463291 237.465344 69.638706 
C 239.289929 67.814122 240.315113 65.339107 240.315113 62.758755 
C 240.315113 60.178404 239.289929 57.703389 237.465344 55.878804 
C 235.64076 54.05422 233.165745 53.029035 230.585393 53.029035 
C 228.005041 53.029035 225.530027 54.05422 223.705442 55.878804 
C 221.880858 57.703389 220.855673 60.178404 220.855673 62.758755 
C 220.855673 65.339107 221.880858 67.814122 223.705442 69.638706 
C 225.530027 71.463291 228.005041 72.488475 230.585393 72.488475 
z
" clip-path="url(#pc926060cce)" style="fill: #2f4f4f; stroke: #000000; stroke-linejoin: miter"/>
   </g>
   <g id="patch_18">
    <path d="M 230.585288 40.056333 
C 233.16564 40.056333 235.640655 39.031148 237.465239 37.206564 
C 239.289824 35.381979 240.315008 32.906965 240.315008 30.326613 
C 240.315008 27.746261 239.289824 25.271246 237.465239 23.446662 
C 235.640655 21.622078 233.16564 20.596893 230.585288 20.596893 
C 228.004936 20.596893 225.529922 21.622078 223.705337 23.446662 
C 221.880753 25.271246 220.855568 27.746261 220.855568 30.326613 
C 220.855568 32.906965 221.880753 35.381979 223.705337 37.206564 
C 225.529922 39.031148 228.004936 40.056333 230.585288 40.056333 
z
" clip-path="url(#pc926060cce)" style="fill: #cd5c5c; stroke: #000000; stroke-linejoin: miter"/>
   </g>
   <g id="patch_19">
    <path d="M 230.585411 7.623723 
C 233.165763 7.623723 235.640778 6.598538 237.465362 4.773954 
C 239.289946 2.949369 240.315131 0.474355 240.315131 -2.105997 
C 240.315131 -4.686349 239.289946 -7.161364 237.465362 -8.985948 
C 235.640778 -10.810533 233.165763 -11.835717 230.585411 -11.835717 
C 228.005059 -11.835717 225.530044 -10.810533 223.70546 -8.985948 
C 221.880876 -7.161364 220.855691 -4.686349 220.855691 -2.105997 
C 220.855691 0.474355 221.880876 2.949369 223.70546 4.773954 
C 225.530044 6.598538 228.005059 7.623723 230.585411 7.623723 
z
" clip-path="url(#pc926060cce)" style="fill: #add8e6; stroke: #000000; stroke-linejoin: miter"/>
   </g>
   <g id="patch_20">
    <path d="M 230.585389 202.218146 
C 233.165741 202.218146 235.640756 201.192961 237.46534 199.368377 
C 239.289925 197.543793 240.315109 195.068778 240.315109 192.488426 
C 240.315109 189.908074 239.289925 187.433059 237.46534 185.608475 
C 235.640756 183.783891 233.165741 182.758706 230.585389 182.758706 
C 228.005038 182.758706 225.530023 183.783891 223.705439 185.608475 
C 221.880854 187.433059 220.855669 189.908074 220.855669 192.488426 
C 220.855669 195.068778 221.880854 197.543793 223.705439 199.368377 
C 225.530023 201.192961 228.005038 202.218146 230.585389 202.218146 
z
" clip-path="url(#pc926060cce)" style="fill: #663399; stroke: #000000; stroke-linejoin: miter"/>
   </g>
   <g id="patch_21">
    <path d="M 230.58535 234.650591 
C 233.165702 234.650591 235.640716 233.625406 237.465301 231.800822 
C 239.289885 229.976237 240.31507 227.501223 240.31507 224.920871 
C 240.31507 222.340519 239.289885 219.865504 237.465301 218.04092 
C 235.640716 216.216335 233.165702 215.191151 230.58535 215.191151 
C 228.004998 215.191151 225.529983 216.216335 223.705399 218.04092 
C 221.880814 219.865504 220.85563 222.340519 220.85563 224.920871 
C 220.85563 227.501223 221.880814 229.976237 223.705399 231.800822 
C 225.529983 233.625406 228.004998 234.650591 230.58535 234.650591 
z
" clip-path="url(#pc926060cce)" style="fill: #8fbc8f; stroke: #000000; stroke-linejoin: miter"/>
   </g>
   <g id="patch_22">
    <path d="M 230.585586 267.082909 
C 233.165938 267.082909 235.640953 266.057724 237.465537 264.23314 
C 239.290122 262.408555 240.315306 259.933541 240.315306 257.353189 
C 240.315306 254.772837 239.290122 252.297822 237.465537 250.473238 
C 235.640953 248.648653 233.165938 247.623469 230.585586 247.623469 
C 228.005234 247.623469 225.53022 248.648653 223.705635 250.473238 
C 221.881051 252.297822 220.855866 254.772837 220.855866 257.353189 
C 220.855866 259.933541 221.881051 262.408555 223.705635 264.23314 
C 225.53022 266.057724 228.005234 267.082909 230.585586 267.082909 
z
" clip-path="url(#pc926060cce)" style="fill: #00ced1; stroke: #000000; stroke-linejoin: miter"/>
   </g>
   <g id="patch_23">
    <path d="M 165.72061 72.488419 
C 168.300962 72.488419 170.775976 71.463235 172.600561 69.63865 
C 174.425145 67.814066 175.45033 65.339051 175.45033 62.758699 
C 175.45033 60.178347 174.425145 57.703333 172.600561 55.878748 
C 170.775976 54.054164 168.300962 53.028979 165.72061 53.028979 
C 163.140258 53.028979 160.665243 54.054164 158.840659 55.878748 
C 157.016074 57.703333 155.99089 60.178347 155.99089 62.758699 
C 155.99089 65.339051 157.016074 67.814066 158.840659 69.63865 
C 160.665243 71.463235 163.140258 72.488419 165.72061 72.488419 
z
" clip-path="url(#pc926060cce)" style="fill: #6a5acd; stroke: #000000; stroke-linejoin: miter"/>
   </g>
   <g id="patch_24">
    <path d="M 165.720611 40.056006 
C 168.300963 40.056006 170.775978 39.030821 172.600562 37.206237 
C 174.425146 35.381652 175.450331 32.906638 175.450331 30.326286 
C 175.450331 27.745934 174.425146 25.270919 172.600562 23.446335 
C 170.775978 21.62175 168.300963 20.596566 165.720611 20.596566 
C 163.140259 20.596566 160.665244 21.62175 158.84066 23.446335 
C 157.016076 25.270919 155.990891 27.745934 155.990891 30.326286 
C 155.990891 32.906638 157.016076 35.381652 158.84066 37.206237 
C 160.665244 39.030821 163.140259 40.056006 165.720611 40.056006 
z
" clip-path="url(#pc926060cce)" style="fill: #808000; stroke: #000000; stroke-linejoin: miter"/>
   </g>
   <g id="patch_25">
    <path d="M 165.720576 7.62373 
C 168.300928 7.62373 170.775943 6.598545 172.600527 4.773961 
C 174.425111 2.949376 175.450296 0.474361 175.450296 -2.10599 
C 175.450296 -4.686342 174.425111 -7.161357 172.600527 -8.985941 
C 170.775943 -10.810526 168.300928 -11.83571 165.720576 -11.83571 
C 163.140224 -11.83571 160.665209 -10.810526 158.840625 -8.985941 
C 157.016041 -7.161357 155.990856 -4.686342 155.990856 -2.10599 
C 155.990856 0.474361 157.016041 2.949376 158.840625 4.773961 
C 160.665209 6.598545 163.140224 7.62373 165.720576 7.62373 
z
" clip-path="url(#pc926060cce)" style="fill: #a0522d; stroke: #000000; stroke-linejoin: miter"/>
   </g>
   <g id="patch_26">
    <path d="M 165.720554 202.21834 
C 168.300906 202.21834 170.775921 201.193155 172.600505 199.368571 
C 174.42509 197.543987 175.450274 195.068972 175.450274 192.48862 
C 175.450274 189.908268 174.42509 187.433253 172.600505 185.608669 
C 170.775921 183.784085 168.300906 182.7589 165.720554 182.7589 
C 163.140202 182.7589 160.665188 183.784085 158.840603 185.608669 
C 157.016019 187.433253 155.990834 189.908268 155.990834 192.48862 
C 155.990834 195.068972 157.016019 197.543987 158.840603 199.368571 
C 160.665188 201.193155 163.140202 202.21834 165.720554 202.21834 
z
" clip-path="url(#pc926060cce)" style="fill: #ff4500; stroke: #000000; stroke-linejoin: miter"/>
   </g>
   <g id="patch_27">
    <path d="M 165.720666 234.650526 
C 168.301018 234.650526 170.776032 233.625342 172.600617 231.800757 
C 174.425201 229.976173 175.450386 227.501158 175.450386 224.920806 
C 175.450386 222.340454 174.425201 219.86544 172.600617 218.040855 
C 170.776032 216.216271 168.301018 215.191086 165.720666 215.191086 
C 163.140314 215.191086 160.665299 216.216271 158.840715 218.040855 
C 157.01613 219.86544 155.990946 222.340454 155.990946 224.920806 
C 155.990946 227.501158 157.01613 229.976173 158.840715 231.800757 
C 160.665299 233.625342 163.140314 234.650526 165.720666 234.650526 
z
" clip-path="url(#pc926060cce)" style="fill: #708090; stroke: #000000; stroke-linejoin: miter"/>
   </g>
   <g id="patch_28">
    <path d="M 165.720381 267.082899 
C 168.300733 267.082899 170.775748 266.057715 172.600332 264.23313 
C 174.424917 262.408546 175.450101 259.933531 175.450101 257.353179 
C 175.450101 254.772827 174.424917 252.297813 172.600332 250.473228 
C 170.775748 248.648644 168.300733 247.623459 165.720381 247.623459 
C 163.140029 247.623459 160.665015 248.648644 158.84043 250.473228 
C 157.015846 252.297813 155.990661 254.772827 155.990661 257.353179 
C 155.990661 259.933531 157.015846 262.408546 158.84043 264.23313 
C 160.665015 266.057715 163.140029 267.082899 165.720381 267.082899 
z
" clip-path="url(#pc926060cce)" style="fill: #bdb76b; stroke: #000000; stroke-linejoin: miter"/>
   </g>
   <g id="line2d_59">
    <path d="M 263.0178 127.6236 
" clip-path="url(#pc926060cce)" style="fill: none; stroke: #1f77b4; stroke-width: 1.5; stroke-linecap: square"/>
    <defs>
     <path id="mdfa8debcb0" d="M 0 4.949747 
L 2.969848 0 
L 0 -4.949747 
L -2.969848 0 
z
" style="stroke: #000000; stroke-linejoin: miter"/>
    </defs>
    <g clip-path="url(#pc926060cce)">
     <use xlink:href="#mdfa8debcb0" x="263.0178" y="127.6236" style="fill: #1f77b4; stroke: #000000; stroke-linejoin: miter"/>
    </g>
   </g>
   <g id="line2d_60">
    <path d="M 263.0178 127.6236 
" clip-path="url(#pc926060cce)" style="fill: none; stroke: #ff7f0e; stroke-width: 1.5; stroke-linecap: square"/>
    <defs>
     <path id="mfcb8a234a6" d="M 0 4.949747 
L 2.969848 0 
L 0 -4.949747 
L -2.969848 0 
z
" style="stroke: #000000; stroke-linejoin: miter"/>
    </defs>
    <g clip-path="url(#pc926060cce)">
     <use xlink:href="#mfcb8a234a6" x="263.0178" y="127.6236" style="fill: #ff7f0e; stroke: #000000; stroke-linejoin: miter"/>
    </g>
   </g>
   <g id="line2d_61">
    <path d="M 133.2882 95.1912 
" clip-path="url(#pc926060cce)" style="fill: none; stroke: #2ca02c; stroke-width: 1.5; stroke-linecap: square"/>
    <defs>
     <path id="ma008494a96" d="M 0 4.949747 
L 2.969848 0 
L 0 -4.949747 
L -2.969848 0 
z
" style="stroke: #000000; stroke-linejoin: miter"/>
    </defs>
    <g clip-path="url(#pc926060cce)">
     <use xlink:href="#ma008494a96" x="133.2882" y="95.1912" style="fill: #2ca02c; stroke: #000000; stroke-linejoin: miter"/>
    </g>
   </g>
   <g id="line2d_62">
    <path d="M 165.7206 95.1912 
" clip-path="url(#pc926060cce)" style="fill: none; stroke: #d62728; stroke-width: 1.5; stroke-linecap: square"/>
    <defs>
     <path id="md7bb70dc9d" d="M 0 4.949747 
L 2.969848 0 
L 0 -4.949747 
L -2.969848 0 
z
" style="stroke: #000000; stroke-linejoin: miter"/>
    </defs>
    <g clip-path="url(#pc926060cce)">
     <use xlink:href="#md7bb70dc9d" x="165.7206" y="95.1912" style="fill: #d62728; stroke: #000000; stroke-linejoin: miter"/>
    </g>
   </g>
   <g id="line2d_63">
    <path d="M 230.5854 95.1912 
" clip-path="url(#pc926060cce)" style="fill: none; stroke: #9467bd; stroke-width: 1.5; stroke-linecap: square"/>
    <defs>
     <path id="m9661cf2cc2" d="M 0 4.949747 
L 2.969848 0 
L 0 -4.949747 
L -2.969848 0 
z
" style="stroke: #000000; stroke-linejoin: miter"/>
    </defs>
    <g clip-path="url(#pc926060cce)">
     <use xlink:href="#m9661cf2cc2" x="230.5854" y="95.1912" style="fill: #9467bd; stroke: #000000; stroke-linejoin: miter"/>
    </g>
   </g>
   <g id="line2d_64">
    <path d="M 263.0178 95.1912 
" clip-path="url(#pc926060cce)" style="fill: none; stroke: #8c564b; stroke-width: 1.5; stroke-linecap: square"/>
    <defs>
     <path id="m6989169885" d="M 0 4.949747 
L 2.969848 0 
L 0 -4.949747 
L -2.969848 0 
z
" style="stroke: #000000; stroke-linejoin: miter"/>
    </defs>
    <g clip-path="url(#pc926060cce)">
     <use xlink:href="#m6989169885" x="263.0178" y="95.1912" style="fill: #8c564b; stroke: #000000; stroke-linejoin: miter"/>
    </g>
   </g>
   <g id="line2d_65">
    <path d="M 133.2882 160.056 
" clip-path="url(#pc926060cce)" style="fill: none; stroke: #e377c2; stroke-width: 1.5; stroke-linecap: square"/>
    <defs>
     <path id="meb38d6c3dc" d="M 0 4.949747 
L 2.969848 0 
L 0 -4.949747 
L -2.969848 0 
z
" style="stroke: #000000; stroke-linejoin: miter"/>
    </defs>
    <g clip-path="url(#pc926060cce)">
     <use xlink:href="#meb38d6c3dc" x="133.2882" y="160.056" style="fill: #e377c2; stroke: #000000; stroke-linejoin: miter"/>
    </g>
   </g>
   <g id="line2d_66">
    <path d="M 165.7206 160.056 
" clip-path="url(#pc926060cce)" style="fill: none; stroke: #7f7f7f; stroke-width: 1.5; stroke-linecap: square"/>
    <defs>
     <path id="m2284d774b8" d="M 0 4.949747 
L 2.969848 0 
L 0 -4.949747 
L -2.969848 0 
z
" style="stroke: #000000; stroke-linejoin: miter"/>
    </defs>
    <g clip-path="url(#pc926060cce)">
     <use xlink:href="#m2284d774b8" x="165.7206" y="160.056" style="fill: #7f7f7f; stroke: #000000; stroke-linejoin: miter"/>
    </g>
   </g>
   <g id="line2d_67">
    <path d="M 230.5854 160.056 
" clip-path="url(#pc926060cce)" style="fill: none; stroke: #bcbd22; stroke-width: 1.5; stroke-linecap: square"/>
    <defs>
     <path id="m0de8dfce2e" d="M 0 4.949747 
L 2.969848 0 
L 0 -4.949747 
L -2.969848 0 
z
" style="stroke: #000000; stroke-linejoin: miter"/>
    </defs>
    <g clip-path="url(#pc926060cce)">
     <use xlink:href="#m0de8dfce2e" x="230.5854" y="160.056" style="fill: #bcbd22; stroke: #000000; stroke-linejoin: miter"/>
    </g>
   </g>
   <g id="line2d_68">
    <path d="M 263.0178 160.056 
" clip-path="url(#pc926060cce)" style="fill: none; stroke: #17becf; stroke-width: 1.5; stroke-linecap: square"/>
    <defs>
     <path id="m5699ded9bd" d="M 0 4.949747 
L 2.969848 0 
L 0 -4.949747 
L -2.969848 0 
z
" style="stroke: #000000; stroke-linejoin: miter"/>
    </defs>
    <g clip-path="url(#pc926060cce)">
     <use xlink:href="#m5699ded9bd" x="263.0178" y="160.056" style="fill: #17becf; stroke: #000000; stroke-linejoin: miter"/>
    </g>
   </g>
   <g id="line2d_69">
    <path d="M 230.5854 62.7588 
" clip-path="url(#pc926060cce)" style="fill: none; stroke: #2f4f4f; stroke-width: 1.5; stroke-linecap: square"/>
    <defs>
     <path id="m3da460ef6d" d="M 0 4.949747 
L 2.969848 0 
L 0 -4.949747 
L -2.969848 0 
z
" style="stroke: #000000; stroke-linejoin: miter"/>
    </defs>
    <g clip-path="url(#pc926060cce)">
     <use xlink:href="#m3da460ef6d" x="230.5854" y="62.7588" style="fill: #2f4f4f; stroke: #000000; stroke-linejoin: miter"/>
    </g>
   </g>
   <g id="line2d_70">
    <path d="M 230.5854 30.3264 
" clip-path="url(#pc926060cce)" style="fill: none; stroke: #cd5c5c; stroke-width: 1.5; stroke-linecap: square"/>
    <defs>
     <path id="m983c426e8b" d="M 0 4.949747 
L 2.969848 0 
L 0 -4.949747 
L -2.969848 0 
z
" style="stroke: #000000; stroke-linejoin: miter"/>
    </defs>
    <g clip-path="url(#pc926060cce)">
     <use xlink:href="#m983c426e8b" x="230.5854" y="30.3264" style="fill: #cd5c5c; stroke: #000000; stroke-linejoin: miter"/>
    </g>
   </g>
   <g id="line2d_71">
    <path clip-path="url(#pc926060cce)" style="fill: none; stroke: #add8e6; stroke-width: 1.5; stroke-linecap: square"/>
    <defs>
     <path id="mfa017fb339" d="M 0 4.949747 
L 2.969848 0 
L 0 -4.949747 
L -2.969848 0 
z
" style="stroke: #000000; stroke-linejoin: miter"/>
    </defs>
    <g clip-path="url(#pc926060cce)"/>
   </g>
   <g id="line2d_72">
    <path d="M 230.5854 192.4884 
" clip-path="url(#pc926060cce)" style="fill: none; stroke: #663399; stroke-width: 1.5; stroke-linecap: square"/>
    <defs>
     <path id="mcb7d5a54ee" d="M 0 4.949747 
L 2.969848 0 
L 0 -4.949747 
L -2.969848 0 
z
" style="stroke: #000000; stroke-linejoin: miter"/>
    </defs>
    <g clip-path="url(#pc926060cce)">
     <use xlink:href="#mcb7d5a54ee" x="230.5854" y="192.4884" style="fill: #663399; stroke: #000000; stroke-linejoin: miter"/>
    </g>
   </g>
   <g id="line2d_73">
    <path d="M 230.5854 224.9208 
" clip-path="url(#pc926060cce)" style="fill: none; stroke: #8fbc8f; stroke-width: 1.5; stroke-linecap: square"/>
    <defs>
     <path id="mb5ce0e58bb" d="M 0 4.949747 
L 2.969848 0 
L 0 -4.949747 
L -2.969848 0 
z
" style="stroke: #000000; stroke-linejoin: miter"/>
    </defs>
    <g clip-path="url(#pc926060cce)">
     <use xlink:href="#mb5ce0e58bb" x="230.5854" y="224.9208" style="fill: #8fbc8f; stroke: #000000; stroke-linejoin: miter"/>
    </g>
   </g>
   <g id="line2d_74">
    <path clip-path="url(#pc926060cce)" style="fill: none; stroke: #00ced1; stroke-width: 1.5; stroke-linecap: square"/>
    <defs>
     <path id="me46de137b1" d="M 0 4.949747 
L 2.969848 0 
L 0 -4.949747 
L -2.969848 0 
z
" style="stroke: #000000; stroke-linejoin: miter"/>
    </defs>
    <g clip-path="url(#pc926060cce)">
     <use xlink:href="#me46de137b1" x="230.5854" y="257.3532" style="fill: #00ced1; stroke: #000000; stroke-linejoin: miter"/>
    </g>
   </g>
   <g id="line2d_75">
    <path d="M 165.7206 62.7588 
" clip-path="url(#pc926060cce)" style="fill: none; stroke: #6a5acd; stroke-width: 1.5; stroke-linecap: square"/>
    <defs>
     <path id="md6dd527110" d="M 0 4.949747 
L 2.969848 0 
L 0 -4.949747 
L -2.969848 0 
z
" style="stroke: #000000; stroke-linejoin: miter"/>
    </defs>
    <g clip-path="url(#pc926060cce)">
     <use xlink:href="#md6dd527110" x="165.7206" y="62.7588" style="fill: #6a5acd; stroke: #000000; stroke-linejoin: miter"/>
    </g>
   </g>
   <g id="line2d_76">
    <path d="M 165.7206 30.3264 
" clip-path="url(#pc926060cce)" style="fill: none; stroke: #808000; stroke-width: 1.5; stroke-linecap: square"/>
    <defs>
     <path id="m3a9e7159eb" d="M 0 4.949747 
L 2.969848 0 
L 0 -4.949747 
L -2.969848 0 
z
" style="stroke: #000000; stroke-linejoin: miter"/>
    </defs>
    <g clip-path="url(#pc926060cce)">
     <use xlink:href="#m3a9e7159eb" x="165.7206" y="30.3264" style="fill: #808000; stroke: #000000; stroke-linejoin: miter"/>
    </g>
   </g>
   <g id="line2d_77">
    <path clip-path="url(#pc926060cce)" style="fill: none; stroke: #a0522d; stroke-width: 1.5; stroke-linecap: square"/>
    <defs>
     <path id="m71c852c08b" d="M 0 4.949747 
L 2.969848 0 
L 0 -4.949747 
L -2.969848 0 
z
" style="stroke: #000000; stroke-linejoin: miter"/>
    </defs>
    <g clip-path="url(#pc926060cce)"/>
   </g>
   <g id="line2d_78">
    <path d="M 165.7206 192.4884 
" clip-path="url(#pc926060cce)" style="fill: none; stroke: #ff4500; stroke-width: 1.5; stroke-linecap: square"/>
    <defs>
     <path id="mcbbf053e38" d="M 0 4.949747 
L 2.969848 0 
L 0 -4.949747 
L -2.969848 0 
z
" style="stroke: #000000; stroke-linejoin: miter"/>
    </defs>
    <g clip-path="url(#pc926060cce)">
     <use xlink:href="#mcbbf053e38" x="165.7206" y="192.4884" style="fill: #ff4500; stroke: #000000; stroke-linejoin: miter"/>
    </g>
   </g>
   <g id="line2d_79">
    <path d="M 165.7206 224.9208 
" clip-path="url(#pc926060cce)" style="fill: none; stroke: #708090; stroke-width: 1.5; stroke-linecap: square"/>
    <defs>
     <path id="m4784032481" d="M 0 4.949747 
L 2.969848 0 
L 0 -4.949747 
L -2.969848 0 
z
" style="stroke: #000000; stroke-linejoin: miter"/>
    </defs>
    <g clip-path="url(#pc926060cce)">
     <use xlink:href="#m4784032481" x="165.7206" y="224.9208" style="fill: #708090; stroke: #000000; stroke-linejoin: miter"/>
    </g>
   </g>
   <g id="line2d_80">
    <path clip-path="url(#pc926060cce)" style="fill: none; stroke: #bdb76b; stroke-width: 1.5; stroke-linecap: square"/>
    <defs>
     <path id="mf6da4118f8" d="M 0 4.949747 
L 2.969848 0 
L 0 -4.949747 
L -2.969848 0 
z
" style="stroke: #000000; stroke-linejoin: miter"/>
    </defs>
    <g clip-path="url(#pc926060cce)">
     <use xlink:href="#mf6da4118f8" x="165.7206" y="257.3532" style="fill: #bdb76b; stroke: #000000; stroke-linejoin: miter"/>
    </g>
   </g>
  </g>
 </g>
 <defs>
  <clipPath id="pc926060cce">
   <rect x="100.8558" y="30.3264" width="194.5944" height="194.5944"/>
  </clipPath>
 </defs>
</svg>
