<?xml version="1.0" encoding="utf-8" standalone="no"?>
<!DOCTYPE svg PUBLIC "-//W3C//DTD SVG 1.1//EN"
  "http://www.w3.org/Graphics/SVG/1.1/DTD/svg11.dtd">
<svg xmlns:xlink="http://www.w3.org/1999/xlink" width="386.64pt" height="252.72pt" viewBox="0 0 386.64 252.72" xmlns="http://www.w3.org/2000/svg" version="1.1">
 <metadata>
  <rdf:RDF xmlns:dc="http://purl.org/dc/elements/1.1/" xmlns:cc="http://creativecommons.org/ns#" xmlns:rdf="http://www.w3.org/1999/02/22-rdf-syntax-ns#">
   <cc:Work>
    <dc:type rdf:resource="http://purl.org/dc/dcmitype/StillImage"/>
    <dc:date>2023-07-11T22:26:58.314961</dc:date>
    <dc:format>image/svg+xml</dc:format>
    <dc:creator>
     <cc:Agent>
      <dc:title>Matplotlib v3.6.2, https://matplotlib.org/</dc:title>
     </cc:Agent>
    </dc:creator>
   </cc:Work>
  </rdf:RDF>
 </metadata>
 <defs>
  <style type="text/css">*{stroke-linejoin: round; stroke-linecap: butt}</style>
 </defs>
 <g id="figure_1">
  <g id="patch_1">
   <path d="M 0 252.72 
L 386.64 252.72 
L 386.64 0 
L 0 0 
z
" style="fill: #ffffff"/>
  </g>
  <g id="axes_1">
   <g id="patch_2">
    <path d="M 100.8558 224.9208 
L 295.4502 224.9208 
L 295.4502 30.3264 
L 100.8558 30.3264 
z
" style="fill: #ffffff"/>
   </g>
   <g id="matplotlib.axis_1">
    <g id="xtick_1">
     <g id="line2d_1">
      <defs>
       <path id="m32ecaf57d2" d="M 0 0 
L 0 3.5 
" style="stroke: #000000; stroke-width: 0.8"/>
      </defs>
      <g>
       <use xlink:href="#m32ecaf57d2" x="100.8558" y="224.9208" style="stroke: #000000; stroke-width: 0.8"/>
      </g>
     </g>
     <g id="text_1">
      <!-- −0.5 -->
      <g transform="translate(88.714394 239.519237) scale(0.1 -0.1)">
       <defs>
        <path id="DejaVuSans-2212" d="M 678 2272 
L 4684 2272 
L 4684 1741 
L 678 1741 
L 678 2272 
z
" transform="scale(0.015625)"/>
        <path id="DejaVuSans-30" d="M 2034 4250 
Q 1547 4250 1301 3770 
Q 1056 3291 1056 2328 
Q 1056 1369 1301 889 
Q 1547 409 2034 409 
Q 2525 409 2770 889 
Q 3016 1369 3016 2328 
Q 3016 3291 2770 3770 
Q 2525 4250 2034 4250 
z
M 2034 4750 
Q 2819 4750 3233 4129 
Q 3647 3509 3647 2328 
Q 3647 1150 3233 529 
Q 2819 -91 2034 -91 
Q 1250 -91 836 529 
Q 422 1150 422 2328 
Q 422 3509 836 4129 
Q 1250 4750 2034 4750 
z
" transform="scale(0.015625)"/>
        <path id="DejaVuSans-2e" d="M 684 794 
L 1344 794 
L 1344 0 
L 684 0 
L 684 794 
z
" transform="scale(0.015625)"/>
        <path id="DejaVuSans-35" d="M 691 4666 
L 3169 4666 
L 3169 4134 
L 1269 4134 
L 1269 2991 
Q 1406 3038 1543 3061 
Q 1681 3084 1819 3084 
Q 2600 3084 3056 2656 
Q 3513 2228 3513 1497 
Q 3513 744 3044 326 
Q 2575 -91 1722 -91 
Q 1428 -91 1123 -41 
Q 819 9 494 109 
L 494 744 
Q 775 591 1075 516 
Q 1375 441 1709 441 
Q 2250 441 2565 725 
Q 2881 1009 2881 1497 
Q 2881 1984 2565 2268 
Q 2250 2553 1709 2553 
Q 1456 2553 1204 2497 
Q 953 2441 691 2322 
L 691 4666 
z
" transform="scale(0.015625)"/>
       </defs>
       <use xlink:href="#DejaVuSans-2212"/>
       <use xlink:href="#DejaVuSans-30" x="83.789062"/>
       <use xlink:href="#DejaVuSans-2e" x="147.412109"/>
       <use xlink:href="#DejaVuSans-35" x="179.199219"/>
      </g>
     </g>
    </g>
    <g id="xtick_2">
     <g id="line2d_2">
      <g>
       <use xlink:href="#m32ecaf57d2" x="133.2882" y="224.9208" style="stroke: #000000; stroke-width: 0.8"/>
      </g>
     </g>
     <g id="text_2">
      <!-- 0.0 -->
      <g transform="translate(125.336638 239.519237) scale(0.1 -0.1)">
       <use xlink:href="#DejaVuSans-30"/>
       <use xlink:href="#DejaVuSans-2e" x="63.623047"/>
       <use xlink:href="#DejaVuSans-30" x="95.410156"/>
      </g>
     </g>
    </g>
    <g id="xtick_3">
     <g id="line2d_3">
      <g>
       <use xlink:href="#m32ecaf57d2" x="165.7206" y="224.9208" style="stroke: #000000; stroke-width: 0.8"/>
      </g>
     </g>
     <g id="text_3">
      <!-- 0.5 -->
      <g transform="translate(157.769037 239.519237) scale(0.1 -0.1)">
       <use xlink:href="#DejaVuSans-30"/>
       <use xlink:href="#DejaVuSans-2e" x="63.623047"/>
       <use xlink:href="#DejaVuSans-35" x="95.410156"/>
      </g>
     </g>
    </g>
    <g id="xtick_4">
     <g id="line2d_4">
      <g>
       <use xlink:href="#m32ecaf57d2" x="198.153" y="224.9208" style="stroke: #000000; stroke-width: 0.8"/>
      </g>
     </g>
     <g id="text_4">
      <!-- 1.0 -->
      <g transform="translate(190.201437 239.519237) scale(0.1 -0.1)">
       <defs>
        <path id="DejaVuSans-31" d="M 794 531 
L 1825 531 
L 1825 4091 
L 703 3866 
L 703 4441 
L 1819 4666 
L 2450 4666 
L 2450 531 
L 3481 531 
L 3481 0 
L 794 0 
L 794 531 
z
" transform="scale(0.015625)"/>
       </defs>
       <use xlink:href="#DejaVuSans-31"/>
       <use xlink:href="#DejaVuSans-2e" x="63.623047"/>
       <use xlink:href="#DejaVuSans-30" x="95.410156"/>
      </g>
     </g>
    </g>
    <g id="xtick_5">
     <g id="line2d_5">
      <g>
       <use xlink:href="#m32ecaf57d2" x="230.5854" y="224.9208" style="stroke: #000000; stroke-width: 0.8"/>
      </g>
     </g>
     <g id="text_5">
      <!-- 1.5 -->
      <g transform="translate(222.633837 239.519237) scale(0.1 -0.1)">
       <use xlink:href="#DejaVuSans-31"/>
       <use xlink:href="#DejaVuSans-2e" x="63.623047"/>
       <use xlink:href="#DejaVuSans-35" x="95.410156"/>
      </g>
     </g>
    </g>
    <g id="xtick_6">
     <g id="line2d_6">
      <g>
       <use xlink:href="#m32ecaf57d2" x="263.0178" y="224.9208" style="stroke: #000000; stroke-width: 0.8"/>
      </g>
     </g>
     <g id="text_6">
      <!-- 2.0 -->
      <g transform="translate(255.066237 239.519237) scale(0.1 -0.1)">
       <defs>
        <path id="DejaVuSans-32" d="M 1228 531 
L 3431 531 
L 3431 0 
L 469 0 
L 469 531 
Q 828 903 1448 1529 
Q 2069 2156 2228 2338 
Q 2531 2678 2651 2914 
Q 2772 3150 2772 3378 
Q 2772 3750 2511 3984 
Q 2250 4219 1831 4219 
Q 1534 4219 1204 4116 
Q 875 4013 500 3803 
L 500 4441 
Q 881 4594 1212 4672 
Q 1544 4750 1819 4750 
Q 2544 4750 2975 4387 
Q 3406 4025 3406 3419 
Q 3406 3131 3298 2873 
Q 3191 2616 2906 2266 
Q 2828 2175 2409 1742 
Q 1991 1309 1228 531 
z
" transform="scale(0.015625)"/>
       </defs>
       <use xlink:href="#DejaVuSans-32"/>
       <use xlink:href="#DejaVuSans-2e" x="63.623047"/>
       <use xlink:href="#DejaVuSans-30" x="95.410156"/>
      </g>
     </g>
    </g>
    <g id="xtick_7">
     <g id="line2d_7">
      <g>
       <use xlink:href="#m32ecaf57d2" x="295.4502" y="224.9208" style="stroke: #000000; stroke-width: 0.8"/>
      </g>
     </g>
     <g id="text_7">
      <!-- 2.5 -->
      <g transform="translate(287.498637 239.519237) scale(0.1 -0.1)">
       <use xlink:href="#DejaVuSans-32"/>
       <use xlink:href="#DejaVuSans-2e" x="63.623047"/>
       <use xlink:href="#DejaVuSans-35" x="95.410156"/>
      </g>
     </g>
    </g>
    <g id="text_8">
     <!-- x(m) -->
     <g transform="translate(186.42175 253.197362) scale(0.1 -0.1)">
      <defs>
       <path id="DejaVuSans-78" d="M 3513 3500 
L 2247 1797 
L 3578 0 
L 2900 0 
L 1881 1375 
L 863 0 
L 184 0 
L 1544 1831 
L 300 3500 
L 978 3500 
L 1906 2253 
L 2834 3500 
L 3513 3500 
z
" transform="scale(0.015625)"/>
       <path id="DejaVuSans-28" d="M 1984 4856 
Q 1566 4138 1362 3434 
Q 1159 2731 1159 2009 
Q 1159 1288 1364 580 
Q 1569 -128 1984 -844 
L 1484 -844 
Q 1016 -109 783 600 
Q 550 1309 550 2009 
Q 550 2706 781 3412 
Q 1013 4119 1484 4856 
L 1984 4856 
z
" transform="scale(0.015625)"/>
       <path id="DejaVuSans-6d" d="M 3328 2828 
Q 3544 3216 3844 3400 
Q 4144 3584 4550 3584 
Q 5097 3584 5394 3201 
Q 5691 2819 5691 2113 
L 5691 0 
L 5113 0 
L 5113 2094 
Q 5113 2597 4934 2840 
Q 4756 3084 4391 3084 
Q 3944 3084 3684 2787 
Q 3425 2491 3425 1978 
L 3425 0 
L 2847 0 
L 2847 2094 
Q 2847 2600 2669 2842 
Q 2491 3084 2119 3084 
Q 1678 3084 1418 2786 
Q 1159 2488 1159 1978 
L 1159 0 
L 581 0 
L 581 3500 
L 1159 3500 
L 1159 2956 
Q 1356 3278 1631 3431 
Q 1906 3584 2284 3584 
Q 2666 3584 2933 3390 
Q 3200 3197 3328 2828 
z
" transform="scale(0.015625)"/>
       <path id="DejaVuSans-29" d="M 513 4856 
L 1013 4856 
Q 1481 4119 1714 3412 
Q 1947 2706 1947 2009 
Q 1947 1309 1714 600 
Q 1481 -109 1013 -844 
L 513 -844 
Q 928 -128 1133 580 
Q 1338 1288 1338 2009 
Q 1338 2731 1133 3434 
Q 928 4138 513 4856 
z
" transform="scale(0.015625)"/>
      </defs>
      <use xlink:href="#DejaVuSans-78"/>
      <use xlink:href="#DejaVuSans-28" x="59.179688"/>
      <use xlink:href="#DejaVuSans-6d" x="98.193359"/>
      <use xlink:href="#DejaVuSans-29" x="195.605469"/>
     </g>
    </g>
   </g>
   <g id="matplotlib.axis_2">
    <g id="ytick_1">
     <g id="line2d_8">
      <defs>
       <path id="mfadb7155fd" d="M 0 0 
L -3.5 0 
" style="stroke: #000000; stroke-width: 0.8"/>
      </defs>
      <g>
       <use xlink:href="#mfadb7155fd" x="100.8558" y="224.9208" style="stroke: #000000; stroke-width: 0.8"/>
      </g>
     </g>
     <g id="text_9">
      <!-- −0.5 -->
      <g transform="translate(69.572988 228.720019) scale(0.1 -0.1)">
       <use xlink:href="#DejaVuSans-2212"/>
       <use xlink:href="#DejaVuSans-30" x="83.789062"/>
       <use xlink:href="#DejaVuSans-2e" x="147.412109"/>
       <use xlink:href="#DejaVuSans-35" x="179.199219"/>
      </g>
     </g>
    </g>
    <g id="ytick_2">
     <g id="line2d_9">
      <g>
       <use xlink:href="#mfadb7155fd" x="100.8558" y="192.4884" style="stroke: #000000; stroke-width: 0.8"/>
      </g>
     </g>
     <g id="text_10">
      <!-- 0.0 -->
      <g transform="translate(77.952675 196.287619) scale(0.1 -0.1)">
       <use xlink:href="#DejaVuSans-30"/>
       <use xlink:href="#DejaVuSans-2e" x="63.623047"/>
       <use xlink:href="#DejaVuSans-30" x="95.410156"/>
      </g>
     </g>
    </g>
    <g id="ytick_3">
     <g id="line2d_10">
      <g>
       <use xlink:href="#mfadb7155fd" x="100.8558" y="160.056" style="stroke: #000000; stroke-width: 0.8"/>
      </g>
     </g>
     <g id="text_11">
      <!-- 0.5 -->
      <g transform="translate(77.952675 163.855219) scale(0.1 -0.1)">
       <use xlink:href="#DejaVuSans-30"/>
       <use xlink:href="#DejaVuSans-2e" x="63.623047"/>
       <use xlink:href="#DejaVuSans-35" x="95.410156"/>
      </g>
     </g>
    </g>
    <g id="ytick_4">
     <g id="line2d_11">
      <g>
       <use xlink:href="#mfadb7155fd" x="100.8558" y="127.6236" style="stroke: #000000; stroke-width: 0.8"/>
      </g>
     </g>
     <g id="text_12">
      <!-- 1.0 -->
      <g transform="translate(77.952675 131.422819) scale(0.1 -0.1)">
       <use xlink:href="#DejaVuSans-31"/>
       <use xlink:href="#DejaVuSans-2e" x="63.623047"/>
       <use xlink:href="#DejaVuSans-30" x="95.410156"/>
      </g>
     </g>
    </g>
    <g id="ytick_5">
     <g id="line2d_12">
      <g>
       <use xlink:href="#mfadb7155fd" x="100.8558" y="95.1912" style="stroke: #000000; stroke-width: 0.8"/>
      </g>
     </g>
     <g id="text_13">
      <!-- 1.5 -->
      <g transform="translate(77.952675 98.990419) scale(0.1 -0.1)">
       <use xlink:href="#DejaVuSans-31"/>
       <use xlink:href="#DejaVuSans-2e" x="63.623047"/>
       <use xlink:href="#DejaVuSans-35" x="95.410156"/>
      </g>
     </g>
    </g>
    <g id="ytick_6">
     <g id="line2d_13">
      <g>
       <use xlink:href="#mfadb7155fd" x="100.8558" y="62.7588" style="stroke: #000000; stroke-width: 0.8"/>
      </g>
     </g>
     <g id="text_14">
      <!-- 2.0 -->
      <g transform="translate(77.952675 66.558019) scale(0.1 -0.1)">
       <use xlink:href="#DejaVuSans-32"/>
       <use xlink:href="#DejaVuSans-2e" x="63.623047"/>
       <use xlink:href="#DejaVuSans-30" x="95.410156"/>
      </g>
     </g>
    </g>
    <g id="ytick_7">
     <g id="line2d_14">
      <g>
       <use xlink:href="#mfadb7155fd" x="100.8558" y="30.3264" style="stroke: #000000; stroke-width: 0.8"/>
      </g>
     </g>
     <g id="text_15">
      <!-- 2.5 -->
      <g transform="translate(77.952675 34.125619) scale(0.1 -0.1)">
       <use xlink:href="#DejaVuSans-32"/>
       <use xlink:href="#DejaVuSans-2e" x="63.623047"/>
       <use xlink:href="#DejaVuSans-35" x="95.410156"/>
      </g>
     </g>
    </g>
    <g id="text_16">
     <!-- y(m) -->
     <g transform="translate(63.4933 139.35485) rotate(-90) scale(0.1 -0.1)">
      <defs>
       <path id="DejaVuSans-79" d="M 2059 -325 
Q 1816 -950 1584 -1140 
Q 1353 -1331 966 -1331 
L 506 -1331 
L 506 -850 
L 844 -850 
Q 1081 -850 1212 -737 
Q 1344 -625 1503 -206 
L 1606 56 
L 191 3500 
L 800 3500 
L 1894 763 
L 2988 3500 
L 3597 3500 
L 2059 -325 
z
" transform="scale(0.015625)"/>
      </defs>
      <use xlink:href="#DejaVuSans-79"/>
      <use xlink:href="#DejaVuSans-28" x="59.179688"/>
      <use xlink:href="#DejaVuSans-6d" x="98.193359"/>
      <use xlink:href="#DejaVuSans-29" x="195.605469"/>
     </g>
    </g>
   </g>
   <g id="line2d_15">
    <path d="M 263.017767 127.623618 
L 263.017798 127.623598 
L 263.017801 127.6236 
L 263.017815 127.623598 
L 263.017943 127.623576 
L 263.019361 127.623341 
L 263.024761 127.622443 
L 263.027899 127.621921 
L 263.035366 127.62068 
L 263.036233 127.620536 
L 263.031597 127.621307 
L 263.051667 127.617969 
L 263.051667 127.617969 
" clip-path="url(#p4859c159dd)" style="fill: none; stroke-dasharray: 2,3.3; stroke-dashoffset: 0; stroke: #1f77b4; stroke-width: 2"/>
   </g>
   <g id="line2d_16">
    <path d="M 133.2882 127.6236 
L 133.2882 127.6236 
L 133.768676 127.621531 
L 138.573349 127.593776 
L 147.701648 127.493337 
L 160.673863 127.41217 
L 173.646739 127.459601 
L 186.619963 127.486284 
L 199.592908 127.523189 
L 212.567005 127.607597 
L 225.536461 127.5202 
L 238.341407 126.667687 
L 249.679077 126.428069 
L 257.640665 127.139288 
L 262.299995 127.540144 
L 263.112185 127.634279 
L 263.006673 127.622341 
L 263.019112 127.623748 
L 263.017645 127.623583 
L 263.017818 127.623602 
L 263.017798 127.6236 
L 263.0178 127.6236 
L 263.017798 127.623601 
L 263.017815 127.623585 
L 263.018077 127.623447 
L 263.017767 127.623618 
" clip-path="url(#p4859c159dd)" style="fill: none; stroke: #1f77b4; stroke-width: 2; stroke-linecap: square"/>
   </g>
   <g id="line2d_17">
    <path d="M 241.576011 131.178887 
L 241.579924 131.184725 
L 241.58077 131.186004 
L 241.581347 131.18655 
L 241.581987 131.186802 
L 241.583836 131.186726 
L 241.587921 131.186208 
L 241.590884 131.185836 
L 241.593185 131.185545 
L 241.594994 131.185315 
L 241.596447 131.185131 
L 241.597649 131.184979 
L 241.597649 131.184979 
" clip-path="url(#p4859c159dd)" style="fill: none; stroke-dasharray: 2,3.3; stroke-dashoffset: 0; stroke: #ff7f0e; stroke-width: 2"/>
   </g>
   <g id="line2d_18">
    <path d="M 198.153 205.46136 
L 198.153 205.46136 
L 198.164648 204.981025 
L 198.417246 200.200816 
L 199.877385 191.454013 
L 201.48243 180.264573 
L 202.738317 169.560811 
L 204.917797 161.07713 
L 207.09932 154.814228 
L 209.379241 150.892168 
L 211.999015 147.096721 
L 218.032057 141.250712 
L 226.183594 137.004547 
L 232.872114 134.000627 
L 237.806064 132.265695 
L 240.06566 131.422425 
L 240.879042 131.192219 
L 241.162835 131.331402 
L 241.412368 131.239806 
L 241.510508 131.207438 
L 241.550795 131.195585 
L 241.568181 131.191014 
L 241.575887 131.189232 
L 241.578358 131.185007 
L 241.571722 131.159098 
L 241.576011 131.178887 
" clip-path="url(#p4859c159dd)" style="fill: none; stroke: #ff7f0e; stroke-width: 2; stroke-linecap: square"/>
   </g>
   <g id="line2d_19">
    <path d="M 133.288216 95.190934 
L 133.288214 95.190935 
L 133.288212 95.190937 
L 133.28821 95.190942 
L 133.288208 95.190949 
L 133.288206 95.190959 
L 133.288205 95.190973 
L 133.288203 95.19099 
L 133.288202 95.191007 
L 133.288202 95.191024 
L 133.288201 95.191036 
L 133.288201 95.191041 
L 133.288201 95.191041 
" clip-path="url(#p4859c159dd)" style="fill: none; stroke-dasharray: 2,3.3; stroke-dashoffset: 0; stroke: #2ca02c; stroke-width: 2"/>
   </g>
   <g id="line2d_20">
    <path d="M 133.2882 95.1912 
L 133.2882 95.1912 
L 133.2882 95.1912 
L 133.288202 95.1912 
L 133.288204 95.191197 
L 133.288206 95.19119 
L 133.288211 95.191173 
L 133.288216 95.191155 
L 133.288222 95.191135 
L 133.288224 95.191111 
L 133.288228 95.191086 
L 133.28823 95.191064 
L 133.288232 95.191043 
L 133.288235 95.191023 
L 133.288236 95.191005 
L 133.288236 95.19099 
L 133.288235 95.190976 
L 133.288234 95.190965 
L 133.288232 95.190955 
L 133.28823 95.190948 
L 133.288228 95.190942 
L 133.288225 95.190938 
L 133.288223 95.190935 
L 133.288221 95.190934 
L 133.288218 95.190933 
L 133.288216 95.190934 
" clip-path="url(#p4859c159dd)" style="fill: none; stroke: #2ca02c; stroke-width: 2; stroke-linecap: square"/>
   </g>
   <g id="line2d_21">
    <path d="M 165.72069 95.191325 
L 165.720705 95.191335 
L 165.720726 95.191347 
L 165.720747 95.191357 
L 165.720757 95.191358 
L 165.720756 95.191349 
L 165.720747 95.191333 
L 165.720732 95.191311 
L 165.720713 95.191285 
L 165.720694 95.191259 
L 165.72068 95.191237 
L 165.720673 95.191225 
L 165.720673 95.191225 
" clip-path="url(#p4859c159dd)" style="fill: none; stroke-dasharray: 2,3.3; stroke-dashoffset: 0; stroke: #d62728; stroke-width: 2"/>
   </g>
   <g id="line2d_22">
    <path d="M 165.7206 95.1912 
L 165.7206 95.1912 
L 165.720601 95.191194 
L 165.720603 95.19115 
L 165.720581 95.191153 
L 165.720541 95.191158 
L 165.720483 95.19116 
L 165.720422 95.191125 
L 165.720366 95.191081 
L 165.720311 95.191045 
L 165.720281 95.191024 
L 165.720264 95.191013 
L 165.720261 95.191012 
L 165.720272 95.191017 
L 165.720291 95.191024 
L 165.720326 95.19105 
L 165.720369 95.191085 
L 165.720416 95.191123 
L 165.720464 95.19116 
L 165.720509 95.191195 
L 165.720551 95.191227 
L 165.720588 95.191254 
L 165.720621 95.191278 
L 165.720649 95.191297 
L 165.720672 95.191313 
L 165.72069 95.191325 
" clip-path="url(#p4859c159dd)" style="fill: none; stroke: #d62728; stroke-width: 2; stroke-linecap: square"/>
   </g>
   <g id="line2d_23">
    <path d="M 230.585679 95.190453 
L 230.585674 95.190436 
L 230.585693 95.19043 
L 230.585728 95.19047 
L 230.585748 95.190574 
L 230.585745 95.19071 
L 230.585718 95.190839 
L 230.585669 95.19095 
L 230.585609 95.191044 
L 230.585549 95.19112 
L 230.585504 95.191171 
L 230.585482 95.191193 
L 230.585482 95.191193 
" clip-path="url(#p4859c159dd)" style="fill: none; stroke-dasharray: 2,3.3; stroke-dashoffset: 0; stroke: #9467bd; stroke-width: 2"/>
   </g>
   <g id="line2d_24">
    <path d="M 230.5854 95.1912 
L 230.5854 95.1912 
L 230.5854 95.191198 
L 230.585399 95.191183 
L 230.585405 95.191174 
L 230.585427 95.191186 
L 230.585443 95.191202 
L 230.585457 95.191257 
L 230.585477 95.191298 
L 230.585509 95.191287 
L 230.585553 95.191222 
L 230.585594 95.19117 
L 230.58563 95.191129 
L 230.585659 95.191094 
L 230.585686 95.191036 
L 230.585704 95.190962 
L 230.585716 95.190885 
L 230.585722 95.190811 
L 230.585723 95.190742 
L 230.585721 95.190679 
L 230.585717 95.190624 
L 230.585711 95.190576 
L 230.585704 95.190535 
L 230.585696 95.190502 
L 230.585687 95.190475 
L 230.585679 95.190453 
" clip-path="url(#p4859c159dd)" style="fill: none; stroke: #9467bd; stroke-width: 2; stroke-linecap: square"/>
   </g>
   <g id="line2d_25">
    <path d="M 263.017775 95.190965 
L 263.017778 95.190969 
L 263.01778 95.190974 
L 263.017783 95.190981 
L 263.017785 95.190992 
L 263.017788 95.191005 
L 263.01779 95.19102 
L 263.017792 95.191038 
L 263.017794 95.191056 
L 263.017795 95.191073 
L 263.017796 95.191085 
L 263.017796 95.19109 
L 263.017796 95.19109 
" clip-path="url(#p4859c159dd)" style="fill: none; stroke-dasharray: 2,3.3; stroke-dashoffset: 0; stroke: #8c564b; stroke-width: 2"/>
   </g>
   <g id="line2d_26">
    <path d="M 263.0178 95.1912 
L 263.0178 95.1912 
L 263.017801 95.1912 
L 263.017807 95.191203 
L 263.017812 95.191199 
L 263.017815 95.191193 
L 263.017817 95.191185 
L 263.017818 95.191173 
L 263.017819 95.191161 
L 263.017818 95.19115 
L 263.017817 95.191135 
L 263.017814 95.191106 
L 263.017803 95.191071 
L 263.017793 95.191044 
L 263.017784 95.191022 
L 263.017777 95.191004 
L 263.017772 95.190989 
L 263.017769 95.190978 
L 263.017766 95.190969 
L 263.017765 95.190963 
L 263.017765 95.190959 
L 263.017766 95.190957 
L 263.017768 95.190957 
L 263.01777 95.190959 
L 263.017772 95.190961 
L 263.017775 95.190965 
" clip-path="url(#p4859c159dd)" style="fill: none; stroke: #8c564b; stroke-width: 2; stroke-linecap: square"/>
   </g>
   <g id="line2d_27">
    <path d="M 133.288225 160.056232 
L 133.288221 160.056236 
L 133.288216 160.056238 
L 133.288213 160.056238 
L 133.288209 160.056235 
L 133.288206 160.056228 
L 133.288203 160.056217 
L 133.288201 160.056203 
L 133.2882 160.056188 
L 133.288199 160.056173 
L 133.288198 160.056162 
L 133.288198 160.056157 
L 133.288198 160.056157 
" clip-path="url(#p4859c159dd)" style="fill: none; stroke-dasharray: 2,3.3; stroke-dashoffset: 0; stroke: #e377c2; stroke-width: 2"/>
   </g>
   <g id="line2d_28">
    <path d="M 133.2882 160.056 
L 133.2882 160.056 
L 133.2882 160.056 
L 133.288203 160.056 
L 133.288205 160.056004 
L 133.288208 160.056011 
L 133.28821 160.05602 
L 133.288212 160.056031 
L 133.288213 160.056043 
L 133.288215 160.056057 
L 133.288218 160.056072 
L 133.288228 160.056085 
L 133.288237 160.056099 
L 133.288244 160.056114 
L 133.288249 160.056128 
L 133.288252 160.056143 
L 133.288253 160.056156 
L 133.288253 160.056169 
L 133.288251 160.056181 
L 133.288249 160.056191 
L 133.288246 160.056201 
L 133.288242 160.056209 
L 133.288238 160.056217 
L 133.288234 160.056223 
L 133.288229 160.056228 
L 133.288225 160.056232 
" clip-path="url(#p4859c159dd)" style="fill: none; stroke: #e377c2; stroke-width: 2; stroke-linecap: square"/>
   </g>
   <g id="line2d_29">
    <path d="M 165.72065 160.055828 
L 165.720673 160.055833 
L 165.720703 160.055832 
L 165.720734 160.055832 
L 165.720752 160.055838 
L 165.720758 160.055851 
L 165.720754 160.05587 
L 165.720742 160.055894 
L 165.720725 160.055922 
L 165.720707 160.055951 
L 165.720693 160.055977 
L 165.720686 160.055991 
L 165.720686 160.055991 
" clip-path="url(#p4859c159dd)" style="fill: none; stroke-dasharray: 2,3.3; stroke-dashoffset: 0; stroke: #7f7f7f; stroke-width: 2"/>
   </g>
   <g id="line2d_30">
    <path d="M 165.7206 160.056 
L 165.7206 160.056 
L 165.7206 160.055997 
L 165.720599 160.05597 
L 165.720579 160.055908 
L 165.72054 160.055856 
L 165.720503 160.055767 
L 165.72048 160.055656 
L 165.720446 160.055586 
L 165.720426 160.055548 
L 165.720405 160.055537 
L 165.720398 160.05555 
L 165.720388 160.055578 
L 165.720397 160.055602 
L 165.720396 160.055649 
L 165.720377 160.055687 
L 165.720378 160.055717 
L 165.720394 160.05574 
L 165.72042 160.055758 
L 165.720453 160.055772 
L 165.720489 160.055784 
L 165.720526 160.055795 
L 165.720561 160.055805 
L 165.720594 160.055814 
L 165.720624 160.055822 
L 165.72065 160.055828 
" clip-path="url(#p4859c159dd)" style="fill: none; stroke: #7f7f7f; stroke-width: 2; stroke-linecap: square"/>
   </g>
   <g id="line2d_31">
    <path d="M 230.58564 160.056031 
L 230.585636 160.056032 
L 230.585645 160.056031 
L 230.585656 160.056029 
L 230.585652 160.056025 
L 230.585632 160.056021 
L 230.585601 160.056017 
L 230.585561 160.056013 
L 230.585517 160.05601 
L 230.585477 160.056007 
L 230.585448 160.056006 
L 230.585434 160.056005 
L 230.585434 160.056005 
" clip-path="url(#p4859c159dd)" style="fill: none; stroke-dasharray: 2,3.3; stroke-dashoffset: 0; stroke: #bcbd22; stroke-width: 2"/>
   </g>
   <g id="line2d_32">
    <path d="M 230.5854 160.056 
L 230.5854 160.056 
L 230.5854 160.056002 
L 230.585404 160.056019 
L 230.585426 160.055987 
L 230.585441 160.055965 
L 230.585453 160.055958 
L 230.585459 160.055962 
L 230.585459 160.055967 
L 230.585467 160.055979 
L 230.585475 160.055991 
L 230.58547 160.056002 
L 230.585459 160.056052 
L 230.585468 160.056053 
L 230.585489 160.056051 
L 230.58552 160.056047 
L 230.585555 160.056044 
L 230.585584 160.056041 
L 230.585606 160.056038 
L 230.585623 160.056036 
L 230.585634 160.056034 
L 230.585641 160.056033 
L 230.585645 160.056032 
L 230.585645 160.056031 
L 230.585643 160.056031 
L 230.58564 160.056031 
" clip-path="url(#p4859c159dd)" style="fill: none; stroke: #bcbd22; stroke-width: 2; stroke-linecap: square"/>
   </g>
   <g id="line2d_33">
    <path d="M 263.017791 160.056228 
L 263.017793 160.056227 
L 263.017795 160.056224 
L 263.017796 160.05622 
L 263.017797 160.056212 
L 263.017798 160.0562 
L 263.017798 160.056186 
L 263.017798 160.05617 
L 263.017799 160.056152 
L 263.017799 160.056136 
L 263.017799 160.056124 
L 263.017799 160.056119 
L 263.017799 160.056119 
" clip-path="url(#p4859c159dd)" style="fill: none; stroke-dasharray: 2,3.3; stroke-dashoffset: 0; stroke: #17becf; stroke-width: 2"/>
   </g>
   <g id="line2d_34">
    <path d="M 263.0178 160.056 
L 263.0178 160.056 
L 263.0178 160.056 
L 263.0178 160.056 
L 263.0178 160.056006 
L 263.017801 160.056017 
L 263.017802 160.056031 
L 263.017798 160.056043 
L 263.017795 160.056057 
L 263.017792 160.056072 
L 263.017789 160.056089 
L 263.017785 160.056112 
L 263.017783 160.056135 
L 263.01778 160.056158 
L 263.017778 160.056174 
L 263.017777 160.056187 
L 263.017777 160.056198 
L 263.017777 160.056207 
L 263.017778 160.056214 
L 263.017779 160.05622 
L 263.017781 160.056224 
L 263.017783 160.056227 
L 263.017785 160.056229 
L 263.017787 160.056229 
L 263.017789 160.056229 
L 263.017791 160.056228 
" clip-path="url(#p4859c159dd)" style="fill: none; stroke: #17becf; stroke-width: 2; stroke-linecap: square"/>
   </g>
   <g id="line2d_35">
    <path d="M 230.586058 62.758937 
L 230.5861 62.758956 
L 230.58617 62.758981 
L 230.586245 62.759006 
L 230.586273 62.759018 
L 230.586247 62.759015 
L 230.586173 62.758998 
L 230.586063 62.758972 
L 230.585929 62.758938 
L 230.585793 62.758904 
L 230.585686 62.758876 
L 230.585634 62.758863 
L 230.585634 62.758863 
" clip-path="url(#p4859c159dd)" style="fill: none; stroke-dasharray: 2,3.3; stroke-dashoffset: 0; stroke: #2f4f4f; stroke-width: 2"/>
   </g>
   <g id="line2d_36">
    <path d="M 230.5854 62.7588 
L 230.5854 62.7588 
L 230.5854 62.758798 
L 230.585398 62.758783 
L 230.585395 62.75877 
L 230.585392 62.758761 
L 230.585391 62.758756 
L 230.585392 62.758754 
L 230.585393 62.758755 
L 230.585397 62.758759 
L 230.585416 62.758765 
L 230.585444 62.758771 
L 230.585472 62.758776 
L 230.585495 62.75878 
L 230.585546 62.758771 
L 230.585621 62.758774 
L 230.585706 62.758784 
L 230.585744 62.758792 
L 230.585802 62.758807 
L 230.585867 62.758827 
L 230.585882 62.758841 
L 230.585918 62.758859 
L 230.585969 62.758882 
L 230.586024 62.758905 
L 230.586033 62.758919 
L 230.586058 62.758937 
" clip-path="url(#p4859c159dd)" style="fill: none; stroke: #2f4f4f; stroke-width: 2; stroke-linecap: square"/>
   </g>
   <g id="line2d_37">
    <path d="M 230.585363 30.326515 
L 230.585368 30.326504 
L 230.585374 30.326496 
L 230.585379 30.326489 
L 230.585384 30.326481 
L 230.585389 30.326472 
L 230.585394 30.326462 
L 230.585398 30.32645 
L 230.585401 30.326439 
L 230.585403 30.326428 
L 230.585404 30.326421 
L 230.585404 30.326418 
L 230.585404 30.326418 
" clip-path="url(#p4859c159dd)" style="fill: none; stroke-dasharray: 2,3.3; stroke-dashoffset: 0; stroke: #cd5c5c; stroke-width: 2"/>
   </g>
   <g id="line2d_38">
    <path d="M 230.5854 30.3264 
L 230.5854 30.3264 
L 230.585397 30.326406 
L 230.585368 30.32646 
L 230.585347 30.326501 
L 230.585328 30.326531 
L 230.585311 30.326561 
L 230.585298 30.326587 
L 230.585288 30.326613 
L 230.585283 30.326639 
L 230.58528 30.326662 
L 230.58528 30.326679 
L 230.585281 30.32669 
L 230.585284 30.326694 
L 230.585289 30.326696 
L 230.585295 30.326687 
L 230.585301 30.326673 
L 230.585306 30.326653 
L 230.585313 30.326633 
L 230.58532 30.326614 
L 230.585329 30.326596 
L 230.585337 30.326578 
L 230.585345 30.326561 
L 230.585351 30.326544 
L 230.585358 30.32653 
L 230.585363 30.326515 
" clip-path="url(#p4859c159dd)" style="fill: none; stroke: #cd5c5c; stroke-width: 2; stroke-linecap: square"/>
   </g>
   <g id="line2d_39">
    <path clip-path="url(#p4859c159dd)" style="fill: none; stroke-dasharray: 2,3.3; stroke-dashoffset: 0; stroke: #add8e6; stroke-width: 2"/>
   </g>
   <g id="line2d_40">
    <path clip-path="url(#p4859c159dd)" style="fill: none; stroke: #add8e6; stroke-width: 2; stroke-linecap: square"/>
   </g>
   <g id="line2d_41">
    <path d="M 230.586328 192.48845 
L 230.586383 192.488441 
L 230.586458 192.488431 
L 230.58653 192.488409 
L 230.586541 192.488374 
L 230.586486 192.488338 
L 230.586372 192.488316 
L 230.586214 192.488313 
L 230.586031 192.488323 
L 230.585851 192.488338 
L 230.585712 192.488351 
L 230.585646 192.488357 
L 230.585646 192.488357 
" clip-path="url(#p4859c159dd)" style="fill: none; stroke-dasharray: 2,3.3; stroke-dashoffset: 0; stroke: #663399; stroke-width: 2"/>
   </g>
   <g id="line2d_42">
    <path d="M 230.5854 192.4884 
L 230.5854 192.4884 
L 230.5854 192.488401 
L 230.585403 192.488407 
L 230.585406 192.488411 
L 230.585406 192.488417 
L 230.585392 192.488421 
L 230.585383 192.488425 
L 230.585389 192.488426 
L 230.585399 192.488429 
L 230.585436 192.488433 
L 230.585469 192.48843 
L 230.585487 192.488434 
L 230.585503 192.488436 
L 230.585517 192.488438 
L 230.585562 192.488431 
L 230.585625 192.488433 
L 230.585699 192.48844 
L 230.585782 192.488448 
L 230.585869 192.488457 
L 230.585957 192.488463 
L 230.586043 192.488466 
L 230.586125 192.488466 
L 230.5862 192.488463 
L 230.586268 192.488457 
L 230.586328 192.48845 
" clip-path="url(#p4859c159dd)" style="fill: none; stroke: #663399; stroke-width: 2; stroke-linecap: square"/>
   </g>
   <g id="line2d_43">
    <path d="M 230.585367 224.920714 
L 230.585371 224.920707 
L 230.585374 224.920704 
L 230.585376 224.920706 
L 230.585378 224.920712 
L 230.58538 224.920722 
L 230.585383 224.920736 
L 230.585386 224.920754 
L 230.585389 224.920772 
L 230.585392 224.920788 
L 230.585394 224.9208 
L 230.585395 224.920805 
L 230.585395 224.920805 
" clip-path="url(#p4859c159dd)" style="fill: none; stroke-dasharray: 2,3.3; stroke-dashoffset: 0; stroke: #8fbc8f; stroke-width: 2"/>
   </g>
   <g id="line2d_44">
    <path d="M 230.5854 224.9208 
L 230.5854 224.9208 
L 230.585398 224.920803 
L 230.585385 224.920825 
L 230.585374 224.920843 
L 230.585366 224.920859 
L 230.58536 224.920873 
L 230.585355 224.920875 
L 230.58535 224.920871 
L 230.585345 224.920863 
L 230.585339 224.920855 
L 230.585333 224.920853 
L 230.585327 224.920853 
L 230.585323 224.920851 
L 230.585321 224.920846 
L 230.585319 224.920843 
L 230.58532 224.920837 
L 230.585321 224.920829 
L 230.585324 224.92082 
L 230.58533 224.920803 
L 230.585336 224.920785 
L 230.585342 224.920768 
L 230.585349 224.920751 
L 230.585356 224.920735 
L 230.585362 224.920724 
L 230.585367 224.920714 
" clip-path="url(#p4859c159dd)" style="fill: none; stroke: #8fbc8f; stroke-width: 2; stroke-linecap: square"/>
   </g>
   <g id="line2d_45">
    <path clip-path="url(#p4859c159dd)" style="fill: none; stroke-dasharray: 2,3.3; stroke-dashoffset: 0; stroke: #00ced1; stroke-width: 2"/>
   </g>
   <g id="line2d_46">
    <path clip-path="url(#p4859c159dd)" style="fill: none; stroke: #00ced1; stroke-width: 2; stroke-linecap: square"/>
   </g>
   <g id="line2d_47">
    <path d="M 165.720619 62.759085 
L 165.720625 62.759093 
L 165.720633 62.759098 
L 165.720642 62.759095 
L 165.720646 62.759076 
L 165.720647 62.759043 
L 165.720645 62.758997 
L 165.720642 62.758942 
L 165.72064 62.758886 
L 165.72064 62.758838 
L 165.720643 62.758808 
L 165.720647 62.758798 
L 165.720647 62.758798 
" clip-path="url(#p4859c159dd)" style="fill: none; stroke-dasharray: 2,3.3; stroke-dashoffset: 0; stroke: #6a5acd; stroke-width: 2"/>
   </g>
   <g id="line2d_48">
    <path d="M 165.7206 62.7588 
L 165.7206 62.7588 
L 165.7206 62.758797 
L 165.720599 62.758767 
L 165.720603 62.758741 
L 165.720606 62.758721 
L 165.720609 62.758707 
L 165.720611 62.7587 
L 165.72061 62.758699 
L 165.720606 62.758707 
L 165.720599 62.758726 
L 165.72059 62.758749 
L 165.72058 62.758775 
L 165.720571 62.758803 
L 165.720562 62.758831 
L 165.720558 62.758862 
L 165.720558 62.758892 
L 165.720561 62.758923 
L 165.720566 62.758952 
L 165.720572 62.758979 
L 165.72058 62.759004 
L 165.720588 62.759026 
L 165.720596 62.759045 
L 165.720604 62.759061 
L 165.720612 62.759074 
L 165.720619 62.759085 
" clip-path="url(#p4859c159dd)" style="fill: none; stroke: #6a5acd; stroke-width: 2; stroke-linecap: square"/>
   </g>
   <g id="line2d_49">
    <path d="M 165.72062 30.326476 
L 165.720621 30.326463 
L 165.720623 30.326449 
L 165.720623 30.326434 
L 165.720622 30.326419 
L 165.720621 30.326404 
L 165.720618 30.32639 
L 165.720613 30.326376 
L 165.720609 30.326364 
L 165.720604 30.326356 
L 165.720602 30.326351 
L 165.720601 30.32635 
L 165.720601 30.32635 
" clip-path="url(#p4859c159dd)" style="fill: none; stroke-dasharray: 2,3.3; stroke-dashoffset: 0; stroke: #808000; stroke-width: 2"/>
   </g>
   <g id="line2d_50">
    <path d="M 165.7206 30.3264 
L 165.7206 30.3264 
L 165.7206 30.326398 
L 165.720603 30.326374 
L 165.720607 30.326333 
L 165.720608 30.326303 
L 165.720608 30.326285 
L 165.720609 30.326278 
L 165.720611 30.326286 
L 165.720616 30.326304 
L 165.720622 30.32633 
L 165.720624 30.32636 
L 165.720622 30.326408 
L 165.720619 30.326449 
L 165.720616 30.326482 
L 165.720615 30.326507 
L 165.720614 30.326522 
L 165.720613 30.326532 
L 165.720614 30.326535 
L 165.720614 30.326534 
L 165.720615 30.326529 
L 165.720616 30.326522 
L 165.720617 30.326512 
L 165.720618 30.326501 
L 165.720619 30.326489 
L 165.72062 30.326476 
" clip-path="url(#p4859c159dd)" style="fill: none; stroke: #808000; stroke-width: 2; stroke-linecap: square"/>
   </g>
   <g id="line2d_51">
    <path clip-path="url(#p4859c159dd)" style="fill: none; stroke-dasharray: 2,3.3; stroke-dashoffset: 0; stroke: #a0522d; stroke-width: 2"/>
   </g>
   <g id="line2d_52">
    <path clip-path="url(#p4859c159dd)" style="fill: none; stroke: #a0522d; stroke-width: 2; stroke-linecap: square"/>
   </g>
   <g id="line2d_53">
    <path d="M 165.720615 192.48827 
L 165.720621 192.488251 
L 165.720627 192.488235 
L 165.720632 192.488225 
L 165.720634 192.488226 
L 165.720633 192.488239 
L 165.720631 192.488261 
L 165.720627 192.488292 
L 165.720623 192.488325 
L 165.720619 192.488357 
L 165.720616 192.488379 
L 165.720614 192.488389 
L 165.720614 192.488389 
" clip-path="url(#p4859c159dd)" style="fill: none; stroke-dasharray: 2,3.3; stroke-dashoffset: 0; stroke: #ff4500; stroke-width: 2"/>
   </g>
   <g id="line2d_54">
    <path d="M 165.7206 192.4884 
L 165.7206 192.4884 
L 165.720601 192.488405 
L 165.720611 192.488452 
L 165.720617 192.488491 
L 165.720591 192.488535 
L 165.720574 192.488568 
L 165.720557 192.488592 
L 165.720554 192.48862 
L 165.720547 192.488655 
L 165.720505 192.488686 
L 165.72045 192.488683 
L 165.720421 192.488672 
L 165.720425 192.488655 
L 165.72044 192.488631 
L 165.720459 192.488601 
L 165.720479 192.488566 
L 165.7205 192.488528 
L 165.72052 192.488489 
L 165.720539 192.488451 
L 165.720556 192.488414 
L 165.720572 192.488379 
L 165.720585 192.488346 
L 165.720597 192.488317 
L 165.720607 192.488292 
L 165.720615 192.48827 
" clip-path="url(#p4859c159dd)" style="fill: none; stroke: #ff4500; stroke-width: 2; stroke-linecap: square"/>
   </g>
   <g id="line2d_55">
    <path d="M 165.720637 224.920685 
L 165.720632 224.920695 
L 165.720627 224.920705 
L 165.720621 224.920716 
L 165.720616 224.920728 
L 165.720611 224.920742 
L 165.720606 224.920757 
L 165.720601 224.920773 
L 165.720597 224.920788 
L 165.720594 224.920801 
L 165.720593 224.920808 
L 165.720592 224.92081 
L 165.720592 224.92081 
" clip-path="url(#p4859c159dd)" style="fill: none; stroke-dasharray: 2,3.3; stroke-dashoffset: 0; stroke: #708090; stroke-width: 2"/>
   </g>
   <g id="line2d_56">
    <path d="M 165.7206 224.9208 
L 165.7206 224.9208 
L 165.720602 224.920799 
L 165.720621 224.92079 
L 165.720636 224.920783 
L 165.720647 224.920788 
L 165.720655 224.920803 
L 165.720661 224.920807 
L 165.720666 224.920806 
L 165.720669 224.920799 
L 165.720672 224.920786 
L 165.720674 224.920768 
L 165.720677 224.920745 
L 165.72068 224.92072 
L 165.72068 224.920698 
L 165.720682 224.920675 
L 165.720682 224.920658 
L 165.720679 224.920647 
L 165.720676 224.920642 
L 165.720671 224.920639 
L 165.720666 224.920642 
L 165.72066 224.920649 
L 165.720655 224.920657 
L 165.720649 224.920666 
L 165.720643 224.920676 
L 165.720637 224.920685 
" clip-path="url(#p4859c159dd)" style="fill: none; stroke: #708090; stroke-width: 2; stroke-linecap: square"/>
   </g>
   <g id="line2d_57">
    <path clip-path="url(#p4859c159dd)" style="fill: none; stroke-dasharray: 2,3.3; stroke-dashoffset: 0; stroke: #bdb76b; stroke-width: 2"/>
   </g>
   <g id="line2d_58">
    <path clip-path="url(#p4859c159dd)" style="fill: none; stroke: #bdb76b; stroke-width: 2; stroke-linecap: square"/>
   </g>
   <g id="patch_3">
    <path d="M 100.8558 224.9208 
L 100.8558 30.3264 
" style="fill: none; stroke: #000000; stroke-width: 0.8; stroke-linejoin: miter; stroke-linecap: square"/>
   </g>
   <g id="patch_4">
    <path d="M 295.4502 224.9208 
L 295.4502 30.3264 
" style="fill: none; stroke: #000000; stroke-width: 0.8; stroke-linejoin: miter; stroke-linecap: square"/>
   </g>
   <g id="patch_5">
    <path d="M 100.8558 224.9208 
L 295.4502 224.9208 
" style="fill: none; stroke: #000000; stroke-width: 0.8; stroke-linejoin: miter; stroke-linecap: square"/>
   </g>
   <g id="patch_6">
    <path d="M 100.8558 30.3264 
L 295.4502 30.3264 
" style="fill: none; stroke: #000000; stroke-width: 0.8; stroke-linejoin: miter; stroke-linecap: square"/>
   </g>
   <g id="patch_7">
    <path d="M 263.017767 137.353338 
C 265.598119 137.353338 268.073133 136.328153 269.897718 134.503569 
C 271.722302 132.678985 272.747487 130.20397 272.747487 127.623618 
C 272.747487 125.043266 271.722302 122.568251 269.897718 120.743667 
C 268.073133 118.919083 265.598119 117.893898 263.017767 117.893898 
C 260.437415 117.893898 257.9624 118.919083 256.137816 120.743667 
C 254.313231 122.568251 253.288047 125.043266 253.288047 127.623618 
C 253.288047 130.20397 254.313231 132.678985 256.137816 134.503569 
C 257.9624 136.328153 260.437415 137.353338 263.017767 137.353338 
z
" clip-path="url(#p4859c159dd)" style="fill: #1f77b4; stroke: #000000; stroke-linejoin: miter"/>
   </g>
   <g id="patch_8">
    <path d="M 241.576011 140.908607 
C 244.156363 140.908607 246.631378 139.883422 248.455962 138.058838 
C 250.280546 136.234253 251.305731 133.759239 251.305731 131.178887 
C 251.305731 128.598535 250.280546 126.12352 248.455962 124.298936 
C 246.631378 122.474352 244.156363 121.449167 241.576011 121.449167 
C 238.995659 121.449167 236.520644 122.474352 234.69606 124.298936 
C 232.871476 126.12352 231.846291 128.598535 231.846291 131.178887 
C 231.846291 133.759239 232.871476 136.234253 234.69606 138.058838 
C 236.520644 139.883422 238.995659 140.908607 241.576011 140.908607 
z
" clip-path="url(#p4859c159dd)" style="fill: #ff7f0e; stroke: #000000; stroke-linejoin: miter"/>
   </g>
   <g id="patch_9">
    <path d="M 133.288216 104.920654 
C 135.868568 104.920654 138.343583 103.895469 140.168167 102.070885 
C 141.992751 100.246301 143.017936 97.771286 143.017936 95.190934 
C 143.017936 92.610582 141.992751 90.135567 140.168167 88.310983 
C 138.343583 86.486399 135.868568 85.461214 133.288216 85.461214 
C 130.707864 85.461214 128.232849 86.486399 126.408265 88.310983 
C 124.583681 90.135567 123.558496 92.610582 123.558496 95.190934 
C 123.558496 97.771286 124.583681 100.246301 126.408265 102.070885 
C 128.232849 103.895469 130.707864 104.920654 133.288216 104.920654 
z
" clip-path="url(#p4859c159dd)" style="fill: #2ca02c; stroke: #000000; stroke-linejoin: miter"/>
   </g>
   <g id="patch_10">
    <path d="M 165.72069 104.921045 
C 168.301042 104.921045 170.776057 103.89586 172.600641 102.071276 
C 174.425225 100.246692 175.45041 97.771677 175.45041 95.191325 
C 175.45041 92.610973 174.425225 90.135958 172.600641 88.311374 
C 170.776057 86.48679 168.301042 85.461605 165.72069 85.461605 
C 163.140338 85.461605 160.665323 86.48679 158.840739 88.311374 
C 157.016155 90.135958 155.99097 92.610973 155.99097 95.191325 
C 155.99097 97.771677 157.016155 100.246692 158.840739 102.071276 
C 160.665323 103.89586 163.140338 104.921045 165.72069 104.921045 
z
" clip-path="url(#p4859c159dd)" style="fill: #d62728; stroke: #000000; stroke-linejoin: miter"/>
   </g>
   <g id="patch_11">
    <path d="M 230.585679 104.920173 
C 233.166031 104.920173 235.641046 103.894988 237.46563 102.070404 
C 239.290214 100.24582 240.315399 97.770805 240.315399 95.190453 
C 240.315399 92.610101 239.290214 90.135086 237.46563 88.310502 
C 235.641046 86.485918 233.166031 85.460733 230.585679 85.460733 
C 228.005327 85.460733 225.530312 86.485918 223.705728 88.310502 
C 221.881144 90.135086 220.855959 92.610101 220.855959 95.190453 
C 220.855959 97.770805 221.881144 100.24582 223.705728 102.070404 
C 225.530312 103.894988 228.005327 104.920173 230.585679 104.920173 
z
" clip-path="url(#p4859c159dd)" style="fill: #9467bd; stroke: #000000; stroke-linejoin: miter"/>
   </g>
   <g id="patch_12">
    <path d="M 263.017775 104.920685 
C 265.598127 104.920685 268.073141 103.8955 269.897726 102.070916 
C 271.72231 100.246331 272.747495 97.771317 272.747495 95.190965 
C 272.747495 92.610613 271.72231 90.135598 269.897726 88.311014 
C 268.073141 86.486429 265.598127 85.461245 263.017775 85.461245 
C 260.437423 85.461245 257.962408 86.486429 256.137824 88.311014 
C 254.313239 90.135598 253.288055 92.610613 253.288055 95.190965 
C 253.288055 97.771317 254.313239 100.246331 256.137824 102.070916 
C 257.962408 103.8955 260.437423 104.920685 263.017775 104.920685 
z
" clip-path="url(#p4859c159dd)" style="fill: #8c564b; stroke: #000000; stroke-linejoin: miter"/>
   </g>
   <g id="patch_13">
    <path d="M 133.288225 169.785952 
C 135.868577 169.785952 138.343592 168.760768 140.168176 166.936183 
C 141.99276 165.111599 143.017945 162.636584 143.017945 160.056232 
C 143.017945 157.475881 141.99276 155.000866 140.168176 153.176281 
C 138.343592 151.351697 135.868577 150.326512 133.288225 150.326512 
C 130.707873 150.326512 128.232858 151.351697 126.408274 153.176281 
C 124.58369 155.000866 123.558505 157.475881 123.558505 160.056232 
C 123.558505 162.636584 124.58369 165.111599 126.408274 166.936183 
C 128.232858 168.760768 130.707873 169.785952 133.288225 169.785952 
z
" clip-path="url(#p4859c159dd)" style="fill: #e377c2; stroke: #000000; stroke-linejoin: miter"/>
   </g>
   <g id="patch_14">
    <path d="M 165.72065 169.785548 
C 168.301002 169.785548 170.776016 168.760363 172.600601 166.935779 
C 174.425185 165.111195 175.45037 162.63618 175.45037 160.055828 
C 175.45037 157.475476 174.425185 155.000461 172.600601 153.175877 
C 170.776016 151.351293 168.301002 150.326108 165.72065 150.326108 
C 163.140298 150.326108 160.665283 151.351293 158.840699 153.175877 
C 157.016114 155.000461 155.99093 157.475476 155.99093 160.055828 
C 155.99093 162.63618 157.016114 165.111195 158.840699 166.935779 
C 160.665283 168.760363 163.140298 169.785548 165.72065 169.785548 
z
" clip-path="url(#p4859c159dd)" style="fill: #7f7f7f; stroke: #000000; stroke-linejoin: miter"/>
   </g>
   <g id="patch_15">
    <path d="M 230.58564 169.785751 
C 233.165992 169.785751 235.641006 168.760567 237.465591 166.935982 
C 239.290175 165.111398 240.31536 162.636383 240.31536 160.056031 
C 240.31536 157.475679 239.290175 155.000665 237.465591 153.17608 
C 235.641006 151.351496 233.165992 150.326311 230.58564 150.326311 
C 228.005288 150.326311 225.530273 151.351496 223.705689 153.17608 
C 221.881104 155.000665 220.85592 157.475679 220.85592 160.056031 
C 220.85592 162.636383 221.881104 165.111398 223.705689 166.935982 
C 225.530273 168.760567 228.005288 169.785751 230.58564 169.785751 
z
" clip-path="url(#p4859c159dd)" style="fill: #bcbd22; stroke: #000000; stroke-linejoin: miter"/>
   </g>
   <g id="patch_16">
    <path d="M 263.017791 169.785948 
C 265.598143 169.785948 268.073158 168.760764 269.897742 166.936179 
C 271.722326 165.111595 272.747511 162.63658 272.747511 160.056228 
C 272.747511 157.475876 271.722326 155.000862 269.897742 153.176277 
C 268.073158 151.351693 265.598143 150.326508 263.017791 150.326508 
C 260.437439 150.326508 257.962425 151.351693 256.13784 153.176277 
C 254.313256 155.000862 253.288071 157.475876 253.288071 160.056228 
C 253.288071 162.63658 254.313256 165.111595 256.13784 166.936179 
C 257.962425 168.760764 260.437439 169.785948 263.017791 169.785948 
z
" clip-path="url(#p4859c159dd)" style="fill: #17becf; stroke: #000000; stroke-linejoin: miter"/>
   </g>
   <g id="patch_17">
    <path d="M 230.586058 72.488657 
C 233.16641 72.488657 235.641425 71.463472 237.466009 69.638888 
C 239.290594 67.814303 240.315778 65.339289 240.315778 62.758937 
C 240.315778 60.178585 239.290594 57.70357 237.466009 55.878986 
C 235.641425 54.054401 233.16641 53.029217 230.586058 53.029217 
C 228.005707 53.029217 225.530692 54.054401 223.706107 55.878986 
C 221.881523 57.70357 220.856338 60.178585 220.856338 62.758937 
C 220.856338 65.339289 221.881523 67.814303 223.706107 69.638888 
C 225.530692 71.463472 228.005707 72.488657 230.586058 72.488657 
z
" clip-path="url(#p4859c159dd)" style="fill: #2f4f4f; stroke: #000000; stroke-linejoin: miter"/>
   </g>
   <g id="patch_18">
    <path d="M 230.585363 40.056235 
C 233.165715 40.056235 235.64073 39.031051 237.465314 37.206466 
C 239.289898 35.381882 240.315083 32.906867 240.315083 30.326515 
C 240.315083 27.746163 239.289898 25.271149 237.465314 23.446564 
C 235.64073 21.62198 233.165715 20.596795 230.585363 20.596795 
C 228.005011 20.596795 225.529996 21.62198 223.705412 23.446564 
C 221.880828 25.271149 220.855643 27.746163 220.855643 30.326515 
C 220.855643 32.906867 221.880828 35.381882 223.705412 37.206466 
C 225.529996 39.031051 228.005011 40.056235 230.585363 40.056235 
z
" clip-path="url(#p4859c159dd)" style="fill: #cd5c5c; stroke: #000000; stroke-linejoin: miter"/>
   </g>
   <g id="patch_19">
    <path d="M 230.586266 7.623617 
C 233.166618 7.623617 235.641633 6.598432 237.466217 4.773848 
C 239.290802 2.949263 240.315986 0.474249 240.315986 -2.106103 
C 240.315986 -4.686455 239.290802 -7.16147 237.466217 -8.986054 
C 235.641633 -10.810639 233.166618 -11.835823 230.586266 -11.835823 
C 228.005914 -11.835823 225.5309 -10.810639 223.706315 -8.986054 
C 221.881731 -7.16147 220.856546 -4.686455 220.856546 -2.106103 
C 220.856546 0.474249 221.881731 2.949263 223.706315 4.773848 
C 225.5309 6.598432 228.005914 7.623617 230.586266 7.623617 
z
" clip-path="url(#p4859c159dd)" style="fill: #add8e6; stroke: #000000; stroke-linejoin: miter"/>
   </g>
   <g id="patch_20">
    <path d="M 230.586328 202.21817 
C 233.16668 202.21817 235.641695 201.192985 237.466279 199.368401 
C 239.290863 197.543816 240.316048 195.068801 240.316048 192.48845 
C 240.316048 189.908098 239.290863 187.433083 237.466279 185.608499 
C 235.641695 183.783914 233.16668 182.75873 230.586328 182.75873 
C 228.005976 182.75873 225.530961 183.783914 223.706377 185.608499 
C 221.881793 187.433083 220.856608 189.908098 220.856608 192.48845 
C 220.856608 195.068801 221.881793 197.543816 223.706377 199.368401 
C 225.530961 201.192985 228.005976 202.21817 230.586328 202.21817 
z
" clip-path="url(#p4859c159dd)" style="fill: #663399; stroke: #000000; stroke-linejoin: miter"/>
   </g>
   <g id="patch_21">
    <path d="M 230.585367 234.650434 
C 233.165719 234.650434 235.640734 233.625249 237.465318 231.800665 
C 239.289902 229.976081 240.315087 227.501066 240.315087 224.920714 
C 240.315087 222.340362 239.289902 219.865347 237.465318 218.040763 
C 235.640734 216.216179 233.165719 215.190994 230.585367 215.190994 
C 228.005015 215.190994 225.53 216.216179 223.705416 218.040763 
C 221.880832 219.865347 220.855647 222.340362 220.855647 224.920714 
C 220.855647 227.501066 221.880832 229.976081 223.705416 231.800665 
C 225.53 233.625249 228.005015 234.650434 230.585367 234.650434 
z
" clip-path="url(#p4859c159dd)" style="fill: #8fbc8f; stroke: #000000; stroke-linejoin: miter"/>
   </g>
   <g id="patch_22">
    <path d="M 230.58641 267.082966 
C 233.166762 267.082966 235.641777 266.057781 237.466361 264.233197 
C 239.290945 262.408613 240.31613 259.933598 240.31613 257.353246 
C 240.31613 254.772894 239.290945 252.297879 237.466361 250.473295 
C 235.641777 248.648711 233.166762 247.623526 230.58641 247.623526 
C 228.006058 247.623526 225.531043 248.648711 223.706459 250.473295 
C 221.881875 252.297879 220.85669 254.772894 220.85669 257.353246 
C 220.85669 259.933598 221.881875 262.408613 223.706459 264.233197 
C 225.531043 266.057781 228.006058 267.082966 230.58641 267.082966 
z
" clip-path="url(#p4859c159dd)" style="fill: #00ced1; stroke: #000000; stroke-linejoin: miter"/>
   </g>
   <g id="patch_23">
    <path d="M 165.720619 72.488805 
C 168.300971 72.488805 170.775985 71.46362 172.60057 69.639036 
C 174.425154 67.814452 175.450339 65.339437 175.450339 62.759085 
C 175.450339 60.178733 174.425154 57.703718 172.60057 55.879134 
C 170.775985 54.05455 168.300971 53.029365 165.720619 53.029365 
C 163.140267 53.029365 160.665252 54.05455 158.840668 55.879134 
C 157.016083 57.703718 155.990899 60.178733 155.990899 62.759085 
C 155.990899 65.339437 157.016083 67.814452 158.840668 69.639036 
C 160.665252 71.46362 163.140267 72.488805 165.720619 72.488805 
z
" clip-path="url(#p4859c159dd)" style="fill: #6a5acd; stroke: #000000; stroke-linejoin: miter"/>
   </g>
   <g id="patch_24">
    <path d="M 165.72062 40.056196 
C 168.300972 40.056196 170.775987 39.031011 172.600571 37.206427 
C 174.425156 35.381843 175.45034 32.906828 175.45034 30.326476 
C 175.45034 27.746124 174.425156 25.271109 172.600571 23.446525 
C 170.775987 21.621941 168.300972 20.596756 165.72062 20.596756 
C 163.140268 20.596756 160.665254 21.621941 158.840669 23.446525 
C 157.016085 25.271109 155.9909 27.746124 155.9909 30.326476 
C 155.9909 32.906828 157.016085 35.381843 158.840669 37.206427 
C 160.665254 39.031011 163.140268 40.056196 165.72062 40.056196 
z
" clip-path="url(#p4859c159dd)" style="fill: #808000; stroke: #000000; stroke-linejoin: miter"/>
   </g>
   <g id="patch_25">
    <path d="M 165.720577 7.623697 
C 168.300929 7.623697 170.775944 6.598513 172.600528 4.773928 
C 174.425112 2.949344 175.450297 0.474329 175.450297 -2.106023 
C 175.450297 -4.686374 174.425112 -7.161389 172.600528 -8.985974 
C 170.775944 -10.810558 168.300929 -11.835743 165.720577 -11.835743 
C 163.140225 -11.835743 160.66521 -10.810558 158.840626 -8.985974 
C 157.016042 -7.161389 155.990857 -4.686374 155.990857 -2.106023 
C 155.990857 0.474329 157.016042 2.949344 158.840626 4.773928 
C 160.66521 6.598513 163.140225 7.623697 165.720577 7.623697 
z
" clip-path="url(#p4859c159dd)" style="fill: #a0522d; stroke: #000000; stroke-linejoin: miter"/>
   </g>
   <g id="patch_26">
    <path d="M 165.720615 202.21799 
C 168.300967 202.21799 170.775982 201.192805 172.600566 199.368221 
C 174.425151 197.543636 175.450335 195.068622 175.450335 192.48827 
C 175.450335 189.907918 174.425151 187.432903 172.600566 185.608319 
C 170.775982 183.783734 168.300967 182.75855 165.720615 182.75855 
C 163.140263 182.75855 160.665249 183.783734 158.840664 185.608319 
C 157.01608 187.432903 155.990895 189.907918 155.990895 192.48827 
C 155.990895 195.068622 157.01608 197.543636 158.840664 199.368221 
C 160.665249 201.192805 163.140263 202.21799 165.720615 202.21799 
z
" clip-path="url(#p4859c159dd)" style="fill: #ff4500; stroke: #000000; stroke-linejoin: miter"/>
   </g>
   <g id="patch_27">
    <path d="M 165.720637 234.650405 
C 168.300989 234.650405 170.776004 233.62522 172.600588 231.800636 
C 174.425172 229.976052 175.450357 227.501037 175.450357 224.920685 
C 175.450357 222.340333 174.425172 219.865318 172.600588 218.040734 
C 170.776004 216.21615 168.300989 215.190965 165.720637 215.190965 
C 163.140285 215.190965 160.66527 216.21615 158.840686 218.040734 
C 157.016102 219.865318 155.990917 222.340333 155.990917 224.920685 
C 155.990917 227.501037 157.016102 229.976052 158.840686 231.800636 
C 160.66527 233.62522 163.140285 234.650405 165.720637 234.650405 
z
" clip-path="url(#p4859c159dd)" style="fill: #708090; stroke: #000000; stroke-linejoin: miter"/>
   </g>
   <g id="patch_28">
    <path d="M 165.720331 267.082945 
C 168.300682 267.082945 170.775697 266.05776 172.600282 264.233176 
C 174.424866 262.408592 175.450051 259.933577 175.450051 257.353225 
C 175.450051 254.772873 174.424866 252.297858 172.600282 250.473274 
C 170.775697 248.64869 168.300682 247.623505 165.720331 247.623505 
C 163.139979 247.623505 160.664964 248.64869 158.84038 250.473274 
C 157.015795 252.297858 155.990611 254.772873 155.990611 257.353225 
C 155.990611 259.933577 157.015795 262.408592 158.84038 264.233176 
C 160.664964 266.05776 163.139979 267.082945 165.720331 267.082945 
z
" clip-path="url(#p4859c159dd)" style="fill: #bdb76b; stroke: #000000; stroke-linejoin: miter"/>
   </g>
   <g id="line2d_59">
    <path d="M 263.0178 127.6236 
" clip-path="url(#p4859c159dd)" style="fill: none; stroke: #1f77b4; stroke-width: 1.5; stroke-linecap: square"/>
    <defs>
     <path id="m774425ea7d" d="M 0 4.949747 
L 2.969848 0 
L 0 -4.949747 
L -2.969848 0 
z
" style="stroke: #000000; stroke-linejoin: miter"/>
    </defs>
    <g clip-path="url(#p4859c159dd)">
     <use xlink:href="#m774425ea7d" x="263.0178" y="127.6236" style="fill: #1f77b4; stroke: #000000; stroke-linejoin: miter"/>
    </g>
   </g>
   <g id="line2d_60">
    <path d="M 263.0178 127.6236 
" clip-path="url(#p4859c159dd)" style="fill: none; stroke: #ff7f0e; stroke-width: 1.5; stroke-linecap: square"/>
    <defs>
     <path id="md969f83640" d="M 0 4.949747 
L 2.969848 0 
L 0 -4.949747 
L -2.969848 0 
z
" style="stroke: #000000; stroke-linejoin: miter"/>
    </defs>
    <g clip-path="url(#p4859c159dd)">
     <use xlink:href="#md969f83640" x="263.0178" y="127.6236" style="fill: #ff7f0e; stroke: #000000; stroke-linejoin: miter"/>
    </g>
   </g>
   <g id="line2d_61">
    <path d="M 133.2882 95.1912 
" clip-path="url(#p4859c159dd)" style="fill: none; stroke: #2ca02c; stroke-width: 1.5; stroke-linecap: square"/>
    <defs>
     <path id="m4bc0599758" d="M 0 4.949747 
L 2.969848 0 
L 0 -4.949747 
L -2.969848 0 
z
" style="stroke: #000000; stroke-linejoin: miter"/>
    </defs>
    <g clip-path="url(#p4859c159dd)">
     <use xlink:href="#m4bc0599758" x="133.2882" y="95.1912" style="fill: #2ca02c; stroke: #000000; stroke-linejoin: miter"/>
    </g>
   </g>
   <g id="line2d_62">
    <path d="M 165.7206 95.1912 
" clip-path="url(#p4859c159dd)" style="fill: none; stroke: #d62728; stroke-width: 1.5; stroke-linecap: square"/>
    <defs>
     <path id="mfafc1bbbf5" d="M 0 4.949747 
L 2.969848 0 
L 0 -4.949747 
L -2.969848 0 
z
" style="stroke: #000000; stroke-linejoin: miter"/>
    </defs>
    <g clip-path="url(#p4859c159dd)">
     <use xlink:href="#mfafc1bbbf5" x="165.7206" y="95.1912" style="fill: #d62728; stroke: #000000; stroke-linejoin: miter"/>
    </g>
   </g>
   <g id="line2d_63">
    <path d="M 230.5854 95.1912 
" clip-path="url(#p4859c159dd)" style="fill: none; stroke: #9467bd; stroke-width: 1.5; stroke-linecap: square"/>
    <defs>
     <path id="md7b4335811" d="M 0 4.949747 
L 2.969848 0 
L 0 -4.949747 
L -2.969848 0 
z
" style="stroke: #000000; stroke-linejoin: miter"/>
    </defs>
    <g clip-path="url(#p4859c159dd)">
     <use xlink:href="#md7b4335811" x="230.5854" y="95.1912" style="fill: #9467bd; stroke: #000000; stroke-linejoin: miter"/>
    </g>
   </g>
   <g id="line2d_64">
    <path d="M 263.0178 95.1912 
" clip-path="url(#p4859c159dd)" style="fill: none; stroke: #8c564b; stroke-width: 1.5; stroke-linecap: square"/>
    <defs>
     <path id="maf12510e53" d="M 0 4.949747 
L 2.969848 0 
L 0 -4.949747 
L -2.969848 0 
z
" style="stroke: #000000; stroke-linejoin: miter"/>
    </defs>
    <g clip-path="url(#p4859c159dd)">
     <use xlink:href="#maf12510e53" x="263.0178" y="95.1912" style="fill: #8c564b; stroke: #000000; stroke-linejoin: miter"/>
    </g>
   </g>
   <g id="line2d_65">
    <path d="M 133.2882 160.056 
" clip-path="url(#p4859c159dd)" style="fill: none; stroke: #e377c2; stroke-width: 1.5; stroke-linecap: square"/>
    <defs>
     <path id="m37dc2ad1b3" d="M 0 4.949747 
L 2.969848 0 
L 0 -4.949747 
L -2.969848 0 
z
" style="stroke: #000000; stroke-linejoin: miter"/>
    </defs>
    <g clip-path="url(#p4859c159dd)">
     <use xlink:href="#m37dc2ad1b3" x="133.2882" y="160.056" style="fill: #e377c2; stroke: #000000; stroke-linejoin: miter"/>
    </g>
   </g>
   <g id="line2d_66">
    <path d="M 165.7206 160.056 
" clip-path="url(#p4859c159dd)" style="fill: none; stroke: #7f7f7f; stroke-width: 1.5; stroke-linecap: square"/>
    <defs>
     <path id="m73a2b34901" d="M 0 4.949747 
L 2.969848 0 
L 0 -4.949747 
L -2.969848 0 
z
" style="stroke: #000000; stroke-linejoin: miter"/>
    </defs>
    <g clip-path="url(#p4859c159dd)">
     <use xlink:href="#m73a2b34901" x="165.7206" y="160.056" style="fill: #7f7f7f; stroke: #000000; stroke-linejoin: miter"/>
    </g>
   </g>
   <g id="line2d_67">
    <path d="M 230.5854 160.056 
" clip-path="url(#p4859c159dd)" style="fill: none; stroke: #bcbd22; stroke-width: 1.5; stroke-linecap: square"/>
    <defs>
     <path id="mf629760578" d="M 0 4.949747 
L 2.969848 0 
L 0 -4.949747 
L -2.969848 0 
z
" style="stroke: #000000; stroke-linejoin: miter"/>
    </defs>
    <g clip-path="url(#p4859c159dd)">
     <use xlink:href="#mf629760578" x="230.5854" y="160.056" style="fill: #bcbd22; stroke: #000000; stroke-linejoin: miter"/>
    </g>
   </g>
   <g id="line2d_68">
    <path d="M 263.0178 160.056 
" clip-path="url(#p4859c159dd)" style="fill: none; stroke: #17becf; stroke-width: 1.5; stroke-linecap: square"/>
    <defs>
     <path id="mfa216e1ff2" d="M 0 4.949747 
L 2.969848 0 
L 0 -4.949747 
L -2.969848 0 
z
" style="stroke: #000000; stroke-linejoin: miter"/>
    </defs>
    <g clip-path="url(#p4859c159dd)">
     <use xlink:href="#mfa216e1ff2" x="263.0178" y="160.056" style="fill: #17becf; stroke: #000000; stroke-linejoin: miter"/>
    </g>
   </g>
   <g id="line2d_69">
    <path d="M 230.5854 62.7588 
" clip-path="url(#p4859c159dd)" style="fill: none; stroke: #2f4f4f; stroke-width: 1.5; stroke-linecap: square"/>
    <defs>
     <path id="mfe4171f933" d="M 0 4.949747 
L 2.969848 0 
L 0 -4.949747 
L -2.969848 0 
z
" style="stroke: #000000; stroke-linejoin: miter"/>
    </defs>
    <g clip-path="url(#p4859c159dd)">
     <use xlink:href="#mfe4171f933" x="230.5854" y="62.7588" style="fill: #2f4f4f; stroke: #000000; stroke-linejoin: miter"/>
    </g>
   </g>
   <g id="line2d_70">
    <path d="M 230.5854 30.3264 
" clip-path="url(#p4859c159dd)" style="fill: none; stroke: #cd5c5c; stroke-width: 1.5; stroke-linecap: square"/>
    <defs>
     <path id="m5840ae6f86" d="M 0 4.949747 
L 2.969848 0 
L 0 -4.949747 
L -2.969848 0 
z
" style="stroke: #000000; stroke-linejoin: miter"/>
    </defs>
    <g clip-path="url(#p4859c159dd)">
     <use xlink:href="#m5840ae6f86" x="230.5854" y="30.3264" style="fill: #cd5c5c; stroke: #000000; stroke-linejoin: miter"/>
    </g>
   </g>
   <g id="line2d_71">
    <path clip-path="url(#p4859c159dd)" style="fill: none; stroke: #add8e6; stroke-width: 1.5; stroke-linecap: square"/>
    <defs>
     <path id="md5cd6a827e" d="M 0 4.949747 
L 2.969848 0 
L 0 -4.949747 
L -2.969848 0 
z
" style="stroke: #000000; stroke-linejoin: miter"/>
    </defs>
    <g clip-path="url(#p4859c159dd)"/>
   </g>
   <g id="line2d_72">
    <path d="M 230.5854 192.4884 
" clip-path="url(#p4859c159dd)" style="fill: none; stroke: #663399; stroke-width: 1.5; stroke-linecap: square"/>
    <defs>
     <path id="mefd29cd8ce" d="M 0 4.949747 
L 2.969848 0 
L 0 -4.949747 
L -2.969848 0 
z
" style="stroke: #000000; stroke-linejoin: miter"/>
    </defs>
    <g clip-path="url(#p4859c159dd)">
     <use xlink:href="#mefd29cd8ce" x="230.5854" y="192.4884" style="fill: #663399; stroke: #000000; stroke-linejoin: miter"/>
    </g>
   </g>
   <g id="line2d_73">
    <path d="M 230.5854 224.9208 
" clip-path="url(#p4859c159dd)" style="fill: none; stroke: #8fbc8f; stroke-width: 1.5; stroke-linecap: square"/>
    <defs>
     <path id="m69a35e232e" d="M 0 4.949747 
L 2.969848 0 
L 0 -4.949747 
L -2.969848 0 
z
" style="stroke: #000000; stroke-linejoin: miter"/>
    </defs>
    <g clip-path="url(#p4859c159dd)">
     <use xlink:href="#m69a35e232e" x="230.5854" y="224.9208" style="fill: #8fbc8f; stroke: #000000; stroke-linejoin: miter"/>
    </g>
   </g>
   <g id="line2d_74">
    <path clip-path="url(#p4859c159dd)" style="fill: none; stroke: #00ced1; stroke-width: 1.5; stroke-linecap: square"/>
    <defs>
     <path id="m54d45c5b0a" d="M 0 4.949747 
L 2.969848 0 
L 0 -4.949747 
L -2.969848 0 
z
" style="stroke: #000000; stroke-linejoin: miter"/>
    </defs>
    <g clip-path="url(#p4859c159dd)">
     <use xlink:href="#m54d45c5b0a" x="230.5854" y="257.3532" style="fill: #00ced1; stroke: #000000; stroke-linejoin: miter"/>
    </g>
   </g>
   <g id="line2d_75">
    <path d="M 165.7206 62.7588 
" clip-path="url(#p4859c159dd)" style="fill: none; stroke: #6a5acd; stroke-width: 1.5; stroke-linecap: square"/>
    <defs>
     <path id="mc5ea6060eb" d="M 0 4.949747 
L 2.969848 0 
L 0 -4.949747 
L -2.969848 0 
z
" style="stroke: #000000; stroke-linejoin: miter"/>
    </defs>
    <g clip-path="url(#p4859c159dd)">
     <use xlink:href="#mc5ea6060eb" x="165.7206" y="62.7588" style="fill: #6a5acd; stroke: #000000; stroke-linejoin: miter"/>
    </g>
   </g>
   <g id="line2d_76">
    <path d="M 165.7206 30.3264 
" clip-path="url(#p4859c159dd)" style="fill: none; stroke: #808000; stroke-width: 1.5; stroke-linecap: square"/>
    <defs>
     <path id="m8eb20c3181" d="M 0 4.949747 
L 2.969848 0 
L 0 -4.949747 
L -2.969848 0 
z
" style="stroke: #000000; stroke-linejoin: miter"/>
    </defs>
    <g clip-path="url(#p4859c159dd)">
     <use xlink:href="#m8eb20c3181" x="165.7206" y="30.3264" style="fill: #808000; stroke: #000000; stroke-linejoin: miter"/>
    </g>
   </g>
   <g id="line2d_77">
    <path clip-path="url(#p4859c159dd)" style="fill: none; stroke: #a0522d; stroke-width: 1.5; stroke-linecap: square"/>
    <defs>
     <path id="mdf771a0ebb" d="M 0 4.949747 
L 2.969848 0 
L 0 -4.949747 
L -2.969848 0 
z
" style="stroke: #000000; stroke-linejoin: miter"/>
    </defs>
    <g clip-path="url(#p4859c159dd)"/>
   </g>
   <g id="line2d_78">
    <path d="M 165.7206 192.4884 
" clip-path="url(#p4859c159dd)" style="fill: none; stroke: #ff4500; stroke-width: 1.5; stroke-linecap: square"/>
    <defs>
     <path id="m8293f409ab" d="M 0 4.949747 
L 2.969848 0 
L 0 -4.949747 
L -2.969848 0 
z
" style="stroke: #000000; stroke-linejoin: miter"/>
    </defs>
    <g clip-path="url(#p4859c159dd)">
     <use xlink:href="#m8293f409ab" x="165.7206" y="192.4884" style="fill: #ff4500; stroke: #000000; stroke-linejoin: miter"/>
    </g>
   </g>
   <g id="line2d_79">
    <path d="M 165.7206 224.9208 
" clip-path="url(#p4859c159dd)" style="fill: none; stroke: #708090; stroke-width: 1.5; stroke-linecap: square"/>
    <defs>
     <path id="m42173992b2" d="M 0 4.949747 
L 2.969848 0 
L 0 -4.949747 
L -2.969848 0 
z
" style="stroke: #000000; stroke-linejoin: miter"/>
    </defs>
    <g clip-path="url(#p4859c159dd)">
     <use xlink:href="#m42173992b2" x="165.7206" y="224.9208" style="fill: #708090; stroke: #000000; stroke-linejoin: miter"/>
    </g>
   </g>
   <g id="line2d_80">
    <path clip-path="url(#p4859c159dd)" style="fill: none; stroke: #bdb76b; stroke-width: 1.5; stroke-linecap: square"/>
    <defs>
     <path id="m5019e28b4e" d="M 0 4.949747 
L 2.969848 0 
L 0 -4.949747 
L -2.969848 0 
z
" style="stroke: #000000; stroke-linejoin: miter"/>
    </defs>
    <g clip-path="url(#p4859c159dd)">
     <use xlink:href="#m5019e28b4e" x="165.7206" y="257.3532" style="fill: #bdb76b; stroke: #000000; stroke-linejoin: miter"/>
    </g>
   </g>
  </g>
 </g>
 <defs>
  <clipPath id="p4859c159dd">
   <rect x="100.8558" y="30.3264" width="194.5944" height="194.5944"/>
  </clipPath>
 </defs>
</svg>
