<?xml version="1.0" encoding="utf-8" standalone="no"?>
<!DOCTYPE svg PUBLIC "-//W3C//DTD SVG 1.1//EN"
  "http://www.w3.org/Graphics/SVG/1.1/DTD/svg11.dtd">
<svg xmlns:xlink="http://www.w3.org/1999/xlink" width="386.64pt" height="252.72pt" viewBox="0 0 386.64 252.72" xmlns="http://www.w3.org/2000/svg" version="1.1">
 <metadata>
  <rdf:RDF xmlns:dc="http://purl.org/dc/elements/1.1/" xmlns:cc="http://creativecommons.org/ns#" xmlns:rdf="http://www.w3.org/1999/02/22-rdf-syntax-ns#">
   <cc:Work>
    <dc:type rdf:resource="http://purl.org/dc/dcmitype/StillImage"/>
    <dc:date>2023-07-11T22:26:55.767381</dc:date>
    <dc:format>image/svg+xml</dc:format>
    <dc:creator>
     <cc:Agent>
      <dc:title>Matplotlib v3.6.2, https://matplotlib.org/</dc:title>
     </cc:Agent>
    </dc:creator>
   </cc:Work>
  </rdf:RDF>
 </metadata>
 <defs>
  <style type="text/css">*{stroke-linejoin: round; stroke-linecap: butt}</style>
 </defs>
 <g id="figure_1">
  <g id="patch_1">
   <path d="M 0 252.72 
L 386.64 252.72 
L 386.64 0 
L 0 0 
z
" style="fill: #ffffff"/>
  </g>
  <g id="axes_1">
   <g id="patch_2">
    <path d="M 100.8558 224.9208 
L 295.4502 224.9208 
L 295.4502 30.3264 
L 100.8558 30.3264 
z
" style="fill: #ffffff"/>
   </g>
   <g id="matplotlib.axis_1">
    <g id="xtick_1">
     <g id="line2d_1">
      <defs>
       <path id="m3437824f1f" d="M 0 0 
L 0 3.5 
" style="stroke: #000000; stroke-width: 0.8"/>
      </defs>
      <g>
       <use xlink:href="#m3437824f1f" x="100.8558" y="224.9208" style="stroke: #000000; stroke-width: 0.8"/>
      </g>
     </g>
     <g id="text_1">
      <!-- −0.5 -->
      <g transform="translate(88.714394 239.519237) scale(0.1 -0.1)">
       <defs>
        <path id="DejaVuSans-2212" d="M 678 2272 
L 4684 2272 
L 4684 1741 
L 678 1741 
L 678 2272 
z
" transform="scale(0.015625)"/>
        <path id="DejaVuSans-30" d="M 2034 4250 
Q 1547 4250 1301 3770 
Q 1056 3291 1056 2328 
Q 1056 1369 1301 889 
Q 1547 409 2034 409 
Q 2525 409 2770 889 
Q 3016 1369 3016 2328 
Q 3016 3291 2770 3770 
Q 2525 4250 2034 4250 
z
M 2034 4750 
Q 2819 4750 3233 4129 
Q 3647 3509 3647 2328 
Q 3647 1150 3233 529 
Q 2819 -91 2034 -91 
Q 1250 -91 836 529 
Q 422 1150 422 2328 
Q 422 3509 836 4129 
Q 1250 4750 2034 4750 
z
" transform="scale(0.015625)"/>
        <path id="DejaVuSans-2e" d="M 684 794 
L 1344 794 
L 1344 0 
L 684 0 
L 684 794 
z
" transform="scale(0.015625)"/>
        <path id="DejaVuSans-35" d="M 691 4666 
L 3169 4666 
L 3169 4134 
L 1269 4134 
L 1269 2991 
Q 1406 3038 1543 3061 
Q 1681 3084 1819 3084 
Q 2600 3084 3056 2656 
Q 3513 2228 3513 1497 
Q 3513 744 3044 326 
Q 2575 -91 1722 -91 
Q 1428 -91 1123 -41 
Q 819 9 494 109 
L 494 744 
Q 775 591 1075 516 
Q 1375 441 1709 441 
Q 2250 441 2565 725 
Q 2881 1009 2881 1497 
Q 2881 1984 2565 2268 
Q 2250 2553 1709 2553 
Q 1456 2553 1204 2497 
Q 953 2441 691 2322 
L 691 4666 
z
" transform="scale(0.015625)"/>
       </defs>
       <use xlink:href="#DejaVuSans-2212"/>
       <use xlink:href="#DejaVuSans-30" x="83.789062"/>
       <use xlink:href="#DejaVuSans-2e" x="147.412109"/>
       <use xlink:href="#DejaVuSans-35" x="179.199219"/>
      </g>
     </g>
    </g>
    <g id="xtick_2">
     <g id="line2d_2">
      <g>
       <use xlink:href="#m3437824f1f" x="133.2882" y="224.9208" style="stroke: #000000; stroke-width: 0.8"/>
      </g>
     </g>
     <g id="text_2">
      <!-- 0.0 -->
      <g transform="translate(125.336638 239.519237) scale(0.1 -0.1)">
       <use xlink:href="#DejaVuSans-30"/>
       <use xlink:href="#DejaVuSans-2e" x="63.623047"/>
       <use xlink:href="#DejaVuSans-30" x="95.410156"/>
      </g>
     </g>
    </g>
    <g id="xtick_3">
     <g id="line2d_3">
      <g>
       <use xlink:href="#m3437824f1f" x="165.7206" y="224.9208" style="stroke: #000000; stroke-width: 0.8"/>
      </g>
     </g>
     <g id="text_3">
      <!-- 0.5 -->
      <g transform="translate(157.769037 239.519237) scale(0.1 -0.1)">
       <use xlink:href="#DejaVuSans-30"/>
       <use xlink:href="#DejaVuSans-2e" x="63.623047"/>
       <use xlink:href="#DejaVuSans-35" x="95.410156"/>
      </g>
     </g>
    </g>
    <g id="xtick_4">
     <g id="line2d_4">
      <g>
       <use xlink:href="#m3437824f1f" x="198.153" y="224.9208" style="stroke: #000000; stroke-width: 0.8"/>
      </g>
     </g>
     <g id="text_4">
      <!-- 1.0 -->
      <g transform="translate(190.201437 239.519237) scale(0.1 -0.1)">
       <defs>
        <path id="DejaVuSans-31" d="M 794 531 
L 1825 531 
L 1825 4091 
L 703 3866 
L 703 4441 
L 1819 4666 
L 2450 4666 
L 2450 531 
L 3481 531 
L 3481 0 
L 794 0 
L 794 531 
z
" transform="scale(0.015625)"/>
       </defs>
       <use xlink:href="#DejaVuSans-31"/>
       <use xlink:href="#DejaVuSans-2e" x="63.623047"/>
       <use xlink:href="#DejaVuSans-30" x="95.410156"/>
      </g>
     </g>
    </g>
    <g id="xtick_5">
     <g id="line2d_5">
      <g>
       <use xlink:href="#m3437824f1f" x="230.5854" y="224.9208" style="stroke: #000000; stroke-width: 0.8"/>
      </g>
     </g>
     <g id="text_5">
      <!-- 1.5 -->
      <g transform="translate(222.633837 239.519237) scale(0.1 -0.1)">
       <use xlink:href="#DejaVuSans-31"/>
       <use xlink:href="#DejaVuSans-2e" x="63.623047"/>
       <use xlink:href="#DejaVuSans-35" x="95.410156"/>
      </g>
     </g>
    </g>
    <g id="xtick_6">
     <g id="line2d_6">
      <g>
       <use xlink:href="#m3437824f1f" x="263.0178" y="224.9208" style="stroke: #000000; stroke-width: 0.8"/>
      </g>
     </g>
     <g id="text_6">
      <!-- 2.0 -->
      <g transform="translate(255.066237 239.519237) scale(0.1 -0.1)">
       <defs>
        <path id="DejaVuSans-32" d="M 1228 531 
L 3431 531 
L 3431 0 
L 469 0 
L 469 531 
Q 828 903 1448 1529 
Q 2069 2156 2228 2338 
Q 2531 2678 2651 2914 
Q 2772 3150 2772 3378 
Q 2772 3750 2511 3984 
Q 2250 4219 1831 4219 
Q 1534 4219 1204 4116 
Q 875 4013 500 3803 
L 500 4441 
Q 881 4594 1212 4672 
Q 1544 4750 1819 4750 
Q 2544 4750 2975 4387 
Q 3406 4025 3406 3419 
Q 3406 3131 3298 2873 
Q 3191 2616 2906 2266 
Q 2828 2175 2409 1742 
Q 1991 1309 1228 531 
z
" transform="scale(0.015625)"/>
       </defs>
       <use xlink:href="#DejaVuSans-32"/>
       <use xlink:href="#DejaVuSans-2e" x="63.623047"/>
       <use xlink:href="#DejaVuSans-30" x="95.410156"/>
      </g>
     </g>
    </g>
    <g id="xtick_7">
     <g id="line2d_7">
      <g>
       <use xlink:href="#m3437824f1f" x="295.4502" y="224.9208" style="stroke: #000000; stroke-width: 0.8"/>
      </g>
     </g>
     <g id="text_7">
      <!-- 2.5 -->
      <g transform="translate(287.498637 239.519237) scale(0.1 -0.1)">
       <use xlink:href="#DejaVuSans-32"/>
       <use xlink:href="#DejaVuSans-2e" x="63.623047"/>
       <use xlink:href="#DejaVuSans-35" x="95.410156"/>
      </g>
     </g>
    </g>
    <g id="text_8">
     <!-- x(m) -->
     <g transform="translate(186.42175 253.197362) scale(0.1 -0.1)">
      <defs>
       <path id="DejaVuSans-78" d="M 3513 3500 
L 2247 1797 
L 3578 0 
L 2900 0 
L 1881 1375 
L 863 0 
L 184 0 
L 1544 1831 
L 300 3500 
L 978 3500 
L 1906 2253 
L 2834 3500 
L 3513 3500 
z
" transform="scale(0.015625)"/>
       <path id="DejaVuSans-28" d="M 1984 4856 
Q 1566 4138 1362 3434 
Q 1159 2731 1159 2009 
Q 1159 1288 1364 580 
Q 1569 -128 1984 -844 
L 1484 -844 
Q 1016 -109 783 600 
Q 550 1309 550 2009 
Q 550 2706 781 3412 
Q 1013 4119 1484 4856 
L 1984 4856 
z
" transform="scale(0.015625)"/>
       <path id="DejaVuSans-6d" d="M 3328 2828 
Q 3544 3216 3844 3400 
Q 4144 3584 4550 3584 
Q 5097 3584 5394 3201 
Q 5691 2819 5691 2113 
L 5691 0 
L 5113 0 
L 5113 2094 
Q 5113 2597 4934 2840 
Q 4756 3084 4391 3084 
Q 3944 3084 3684 2787 
Q 3425 2491 3425 1978 
L 3425 0 
L 2847 0 
L 2847 2094 
Q 2847 2600 2669 2842 
Q 2491 3084 2119 3084 
Q 1678 3084 1418 2786 
Q 1159 2488 1159 1978 
L 1159 0 
L 581 0 
L 581 3500 
L 1159 3500 
L 1159 2956 
Q 1356 3278 1631 3431 
Q 1906 3584 2284 3584 
Q 2666 3584 2933 3390 
Q 3200 3197 3328 2828 
z
" transform="scale(0.015625)"/>
       <path id="DejaVuSans-29" d="M 513 4856 
L 1013 4856 
Q 1481 4119 1714 3412 
Q 1947 2706 1947 2009 
Q 1947 1309 1714 600 
Q 1481 -109 1013 -844 
L 513 -844 
Q 928 -128 1133 580 
Q 1338 1288 1338 2009 
Q 1338 2731 1133 3434 
Q 928 4138 513 4856 
z
" transform="scale(0.015625)"/>
      </defs>
      <use xlink:href="#DejaVuSans-78"/>
      <use xlink:href="#DejaVuSans-28" x="59.179688"/>
      <use xlink:href="#DejaVuSans-6d" x="98.193359"/>
      <use xlink:href="#DejaVuSans-29" x="195.605469"/>
     </g>
    </g>
   </g>
   <g id="matplotlib.axis_2">
    <g id="ytick_1">
     <g id="line2d_8">
      <defs>
       <path id="m3ea5f653b1" d="M 0 0 
L -3.5 0 
" style="stroke: #000000; stroke-width: 0.8"/>
      </defs>
      <g>
       <use xlink:href="#m3ea5f653b1" x="100.8558" y="224.9208" style="stroke: #000000; stroke-width: 0.8"/>
      </g>
     </g>
     <g id="text_9">
      <!-- −0.5 -->
      <g transform="translate(69.572988 228.720019) scale(0.1 -0.1)">
       <use xlink:href="#DejaVuSans-2212"/>
       <use xlink:href="#DejaVuSans-30" x="83.789062"/>
       <use xlink:href="#DejaVuSans-2e" x="147.412109"/>
       <use xlink:href="#DejaVuSans-35" x="179.199219"/>
      </g>
     </g>
    </g>
    <g id="ytick_2">
     <g id="line2d_9">
      <g>
       <use xlink:href="#m3ea5f653b1" x="100.8558" y="192.4884" style="stroke: #000000; stroke-width: 0.8"/>
      </g>
     </g>
     <g id="text_10">
      <!-- 0.0 -->
      <g transform="translate(77.952675 196.287619) scale(0.1 -0.1)">
       <use xlink:href="#DejaVuSans-30"/>
       <use xlink:href="#DejaVuSans-2e" x="63.623047"/>
       <use xlink:href="#DejaVuSans-30" x="95.410156"/>
      </g>
     </g>
    </g>
    <g id="ytick_3">
     <g id="line2d_10">
      <g>
       <use xlink:href="#m3ea5f653b1" x="100.8558" y="160.056" style="stroke: #000000; stroke-width: 0.8"/>
      </g>
     </g>
     <g id="text_11">
      <!-- 0.5 -->
      <g transform="translate(77.952675 163.855219) scale(0.1 -0.1)">
       <use xlink:href="#DejaVuSans-30"/>
       <use xlink:href="#DejaVuSans-2e" x="63.623047"/>
       <use xlink:href="#DejaVuSans-35" x="95.410156"/>
      </g>
     </g>
    </g>
    <g id="ytick_4">
     <g id="line2d_11">
      <g>
       <use xlink:href="#m3ea5f653b1" x="100.8558" y="127.6236" style="stroke: #000000; stroke-width: 0.8"/>
      </g>
     </g>
     <g id="text_12">
      <!-- 1.0 -->
      <g transform="translate(77.952675 131.422819) scale(0.1 -0.1)">
       <use xlink:href="#DejaVuSans-31"/>
       <use xlink:href="#DejaVuSans-2e" x="63.623047"/>
       <use xlink:href="#DejaVuSans-30" x="95.410156"/>
      </g>
     </g>
    </g>
    <g id="ytick_5">
     <g id="line2d_12">
      <g>
       <use xlink:href="#m3ea5f653b1" x="100.8558" y="95.1912" style="stroke: #000000; stroke-width: 0.8"/>
      </g>
     </g>
     <g id="text_13">
      <!-- 1.5 -->
      <g transform="translate(77.952675 98.990419) scale(0.1 -0.1)">
       <use xlink:href="#DejaVuSans-31"/>
       <use xlink:href="#DejaVuSans-2e" x="63.623047"/>
       <use xlink:href="#DejaVuSans-35" x="95.410156"/>
      </g>
     </g>
    </g>
    <g id="ytick_6">
     <g id="line2d_13">
      <g>
       <use xlink:href="#m3ea5f653b1" x="100.8558" y="62.7588" style="stroke: #000000; stroke-width: 0.8"/>
      </g>
     </g>
     <g id="text_14">
      <!-- 2.0 -->
      <g transform="translate(77.952675 66.558019) scale(0.1 -0.1)">
       <use xlink:href="#DejaVuSans-32"/>
       <use xlink:href="#DejaVuSans-2e" x="63.623047"/>
       <use xlink:href="#DejaVuSans-30" x="95.410156"/>
      </g>
     </g>
    </g>
    <g id="ytick_7">
     <g id="line2d_14">
      <g>
       <use xlink:href="#m3ea5f653b1" x="100.8558" y="30.3264" style="stroke: #000000; stroke-width: 0.8"/>
      </g>
     </g>
     <g id="text_15">
      <!-- 2.5 -->
      <g transform="translate(77.952675 34.125619) scale(0.1 -0.1)">
       <use xlink:href="#DejaVuSans-32"/>
       <use xlink:href="#DejaVuSans-2e" x="63.623047"/>
       <use xlink:href="#DejaVuSans-35" x="95.410156"/>
      </g>
     </g>
    </g>
    <g id="text_16">
     <!-- y(m) -->
     <g transform="translate(63.4933 139.35485) rotate(-90) scale(0.1 -0.1)">
      <defs>
       <path id="DejaVuSans-79" d="M 2059 -325 
Q 1816 -950 1584 -1140 
Q 1353 -1331 966 -1331 
L 506 -1331 
L 506 -850 
L 844 -850 
Q 1081 -850 1212 -737 
Q 1344 -625 1503 -206 
L 1606 56 
L 191 3500 
L 800 3500 
L 1894 763 
L 2988 3500 
L 3597 3500 
L 2059 -325 
z
" transform="scale(0.015625)"/>
      </defs>
      <use xlink:href="#DejaVuSans-79"/>
      <use xlink:href="#DejaVuSans-28" x="59.179688"/>
      <use xlink:href="#DejaVuSans-6d" x="98.193359"/>
      <use xlink:href="#DejaVuSans-29" x="195.605469"/>
     </g>
    </g>
   </g>
   <g id="line2d_15">
    <path d="M 257.640665 127.139288 
L 262.287337 127.538817 
L 263.012436 127.623704 
L 263.018698 127.622689 
L 263.018144 127.624131 
L 263.016214 127.623307 
L 263.01937 127.623735 
L 263.016928 127.623549 
L 263.018136 127.623616 
L 263.017713 127.623597 
L 263.017812 127.6236 
L 263.017799 127.6236 
L 263.017799 127.6236 
" clip-path="url(#p5039a788be)" style="fill: none; stroke-dasharray: 2,3.3; stroke-dashoffset: 0; stroke: #1f77b4; stroke-width: 2"/>
   </g>
   <g id="line2d_16">
    <path d="M 133.2882 127.6236 
L 133.2882 127.6236 
L 133.768676 127.621531 
L 138.573349 127.593776 
L 147.701648 127.493337 
L 160.673863 127.41217 
L 173.646739 127.459601 
L 186.619963 127.486284 
L 199.592908 127.523189 
L 212.567005 127.607597 
L 225.536461 127.5202 
L 238.341407 126.667687 
L 249.679077 126.428069 
L 257.640665 127.139288 
" clip-path="url(#p5039a788be)" style="fill: none; stroke: #1f77b4; stroke-width: 2; stroke-linecap: square"/>
   </g>
   <g id="line2d_17">
    <path d="M 232.872114 134.000627 
L 237.683235 132.317539 
L 238.937277 131.89641 
L 239.57719 131.693319 
L 239.936919 131.579 
L 240.167104 131.505884 
L 240.326959 131.455104 
L 240.444393 131.417799 
L 240.534301 131.389238 
L 240.60534 131.366671 
L 240.662881 131.348392 
L 240.710435 131.333285 
L 240.710435 131.333285 
" clip-path="url(#p5039a788be)" style="fill: none; stroke-dasharray: 2,3.3; stroke-dashoffset: 0; stroke: #ff7f0e; stroke-width: 2"/>
   </g>
   <g id="line2d_18">
    <path d="M 198.153 205.46136 
L 198.153 205.46136 
L 198.164648 204.981025 
L 198.417246 200.200816 
L 199.877385 191.454013 
L 201.48243 180.264573 
L 202.738317 169.560811 
L 204.917797 161.07713 
L 207.09932 154.814228 
L 209.379241 150.892168 
L 211.999015 147.096721 
L 218.032057 141.250712 
L 226.183594 137.004547 
L 232.872114 134.000627 
" clip-path="url(#p5039a788be)" style="fill: none; stroke: #ff7f0e; stroke-width: 2; stroke-linecap: square"/>
   </g>
   <g id="line2d_19">
    <path d="M 133.288235 95.191023 
L 133.288236 95.191005 
L 133.288236 95.190989 
L 133.288236 95.190978 
L 133.288234 95.190971 
L 133.288232 95.19097 
L 133.28823 95.190973 
L 133.288227 95.190982 
L 133.288224 95.190994 
L 133.288221 95.191008 
L 133.28822 95.191018 
L 133.288219 95.191023 
L 133.288219 95.191023 
" clip-path="url(#p5039a788be)" style="fill: none; stroke-dasharray: 2,3.3; stroke-dashoffset: 0; stroke: #2ca02c; stroke-width: 2"/>
   </g>
   <g id="line2d_20">
    <path d="M 133.2882 95.1912 
L 133.2882 95.1912 
L 133.2882 95.1912 
L 133.288202 95.1912 
L 133.288204 95.191197 
L 133.288206 95.19119 
L 133.288211 95.191173 
L 133.288216 95.191155 
L 133.288222 95.191135 
L 133.288224 95.191111 
L 133.288228 95.191086 
L 133.28823 95.191064 
L 133.288232 95.191043 
L 133.288235 95.191023 
" clip-path="url(#p5039a788be)" style="fill: none; stroke: #2ca02c; stroke-width: 2; stroke-linecap: square"/>
   </g>
   <g id="line2d_21">
    <path d="M 165.720272 95.191017 
L 165.720289 95.191021 
L 165.720299 95.191019 
L 165.72031 95.191018 
L 165.720331 95.191025 
L 165.720362 95.191039 
L 165.720399 95.191059 
L 165.720438 95.191086 
L 165.720477 95.191116 
L 165.72051 95.19115 
L 165.720534 95.191182 
L 165.720544 95.191197 
L 165.720544 95.191197 
" clip-path="url(#p5039a788be)" style="fill: none; stroke-dasharray: 2,3.3; stroke-dashoffset: 0; stroke: #d62728; stroke-width: 2"/>
   </g>
   <g id="line2d_22">
    <path d="M 165.7206 95.1912 
L 165.7206 95.1912 
L 165.720601 95.191194 
L 165.720603 95.19115 
L 165.720581 95.191153 
L 165.720541 95.191158 
L 165.720483 95.19116 
L 165.720422 95.191125 
L 165.720366 95.191081 
L 165.720311 95.191045 
L 165.720281 95.191024 
L 165.720264 95.191013 
L 165.720261 95.191012 
L 165.720272 95.191017 
" clip-path="url(#p5039a788be)" style="fill: none; stroke: #d62728; stroke-width: 2; stroke-linecap: square"/>
   </g>
   <g id="line2d_23">
    <path d="M 230.585659 95.191094 
L 230.58569 95.191039 
L 230.585748 95.191 
L 230.585814 95.191002 
L 230.585849 95.191045 
L 230.585848 95.191103 
L 230.585814 95.191149 
L 230.585752 95.191174 
L 230.585674 95.191184 
L 230.585596 95.191189 
L 230.585536 95.191193 
L 230.585507 95.191195 
L 230.585507 95.191195 
" clip-path="url(#p5039a788be)" style="fill: none; stroke-dasharray: 2,3.3; stroke-dashoffset: 0; stroke: #9467bd; stroke-width: 2"/>
   </g>
   <g id="line2d_24">
    <path d="M 230.5854 95.1912 
L 230.5854 95.1912 
L 230.5854 95.191198 
L 230.585399 95.191183 
L 230.585405 95.191174 
L 230.585427 95.191186 
L 230.585443 95.191202 
L 230.585457 95.191257 
L 230.585477 95.191298 
L 230.585509 95.191287 
L 230.585553 95.191222 
L 230.585594 95.19117 
L 230.58563 95.191129 
L 230.585659 95.191094 
" clip-path="url(#p5039a788be)" style="fill: none; stroke: #9467bd; stroke-width: 2; stroke-linecap: square"/>
   </g>
   <g id="line2d_25">
    <path d="M 263.017793 95.191044 
L 263.017784 95.191022 
L 263.017777 95.191003 
L 263.017771 95.19099 
L 263.017767 95.190982 
L 263.017766 95.19098 
L 263.017766 95.190983 
L 263.017767 95.190992 
L 263.01777 95.191004 
L 263.017772 95.191018 
L 263.017774 95.191028 
L 263.017775 95.191034 
L 263.017775 95.191034 
" clip-path="url(#p5039a788be)" style="fill: none; stroke-dasharray: 2,3.3; stroke-dashoffset: 0; stroke: #8c564b; stroke-width: 2"/>
   </g>
   <g id="line2d_26">
    <path d="M 263.0178 95.1912 
L 263.0178 95.1912 
L 263.017801 95.1912 
L 263.017807 95.191203 
L 263.017812 95.191199 
L 263.017815 95.191193 
L 263.017817 95.191185 
L 263.017818 95.191173 
L 263.017819 95.191161 
L 263.017818 95.19115 
L 263.017817 95.191135 
L 263.017814 95.191106 
L 263.017803 95.191071 
L 263.017793 95.191044 
" clip-path="url(#p5039a788be)" style="fill: none; stroke: #8c564b; stroke-width: 2; stroke-linecap: square"/>
   </g>
   <g id="line2d_27">
    <path d="M 133.288244 160.056114 
L 133.288249 160.056128 
L 133.288252 160.056142 
L 133.288254 160.056154 
L 133.288254 160.056163 
L 133.288252 160.056167 
L 133.288249 160.056168 
L 133.288246 160.056164 
L 133.288242 160.056158 
L 133.288238 160.056149 
L 133.288235 160.056143 
L 133.288234 160.056139 
L 133.288234 160.056139 
" clip-path="url(#p5039a788be)" style="fill: none; stroke-dasharray: 2,3.3; stroke-dashoffset: 0; stroke: #e377c2; stroke-width: 2"/>
   </g>
   <g id="line2d_28">
    <path d="M 133.2882 160.056 
L 133.2882 160.056 
L 133.2882 160.056 
L 133.288203 160.056 
L 133.288205 160.056004 
L 133.288208 160.056011 
L 133.28821 160.05602 
L 133.288212 160.056031 
L 133.288213 160.056043 
L 133.288215 160.056057 
L 133.288218 160.056072 
L 133.288228 160.056085 
L 133.288237 160.056099 
L 133.288244 160.056114 
" clip-path="url(#p5039a788be)" style="fill: none; stroke: #e377c2; stroke-width: 2; stroke-linecap: square"/>
   </g>
   <g id="line2d_29">
    <path d="M 165.720397 160.055602 
L 165.720395 160.055652 
L 165.72037 160.05572 
L 165.720335 160.055799 
L 165.720316 160.055876 
L 165.720314 160.055945 
L 165.720327 160.055999 
L 165.720354 160.056035 
L 165.720389 160.05605 
L 165.720426 160.056045 
L 165.720456 160.05603 
L 165.72047 160.056027 
L 165.72047 160.056027 
" clip-path="url(#p5039a788be)" style="fill: none; stroke-dasharray: 2,3.3; stroke-dashoffset: 0; stroke: #7f7f7f; stroke-width: 2"/>
   </g>
   <g id="line2d_30">
    <path d="M 165.7206 160.056 
L 165.7206 160.056 
L 165.7206 160.055997 
L 165.720599 160.05597 
L 165.720579 160.055908 
L 165.72054 160.055856 
L 165.720503 160.055767 
L 165.72048 160.055656 
L 165.720446 160.055586 
L 165.720426 160.055548 
L 165.720405 160.055537 
L 165.720398 160.05555 
L 165.720388 160.055578 
L 165.720397 160.055602 
" clip-path="url(#p5039a788be)" style="fill: none; stroke: #7f7f7f; stroke-width: 2; stroke-linecap: square"/>
   </g>
   <g id="line2d_31">
    <path d="M 230.585468 160.056053 
L 230.58549 160.056051 
L 230.585531 160.056048 
L 230.585577 160.056045 
L 230.585605 160.056041 
L 230.585612 160.056035 
L 230.585601 160.056029 
L 230.585575 160.056023 
L 230.58554 160.056018 
L 230.585503 160.056013 
L 230.585474 160.05601 
L 230.585459 160.056009 
L 230.585459 160.056009 
" clip-path="url(#p5039a788be)" style="fill: none; stroke-dasharray: 2,3.3; stroke-dashoffset: 0; stroke: #bcbd22; stroke-width: 2"/>
   </g>
   <g id="line2d_32">
    <path d="M 230.5854 160.056 
L 230.5854 160.056 
L 230.5854 160.056002 
L 230.585404 160.056019 
L 230.585426 160.055987 
L 230.585441 160.055965 
L 230.585453 160.055958 
L 230.585459 160.055962 
L 230.585459 160.055967 
L 230.585467 160.055979 
L 230.585475 160.055991 
L 230.58547 160.056002 
L 230.585459 160.056052 
L 230.585468 160.056053 
" clip-path="url(#p5039a788be)" style="fill: none; stroke: #bcbd22; stroke-width: 2; stroke-linecap: square"/>
   </g>
   <g id="line2d_33">
    <path d="M 263.01778 160.056158 
L 263.017778 160.056173 
L 263.017777 160.056183 
L 263.017777 160.056186 
L 263.017777 160.056183 
L 263.017778 160.056174 
L 263.01778 160.056162 
L 263.017782 160.056146 
L 263.017784 160.056129 
L 263.017786 160.056113 
L 263.017787 160.056102 
L 263.017788 160.056097 
L 263.017788 160.056097 
" clip-path="url(#p5039a788be)" style="fill: none; stroke-dasharray: 2,3.3; stroke-dashoffset: 0; stroke: #17becf; stroke-width: 2"/>
   </g>
   <g id="line2d_34">
    <path d="M 263.0178 160.056 
L 263.0178 160.056 
L 263.0178 160.056 
L 263.0178 160.056 
L 263.0178 160.056006 
L 263.017801 160.056017 
L 263.017802 160.056031 
L 263.017798 160.056043 
L 263.017795 160.056057 
L 263.017792 160.056072 
L 263.017789 160.056089 
L 263.017785 160.056112 
L 263.017783 160.056135 
L 263.01778 160.056158 
" clip-path="url(#p5039a788be)" style="fill: none; stroke: #17becf; stroke-width: 2; stroke-linecap: square"/>
   </g>
   <g id="line2d_35">
    <path d="M 230.585495 62.75878 
L 230.585549 62.758771 
L 230.585645 62.758774 
L 230.585765 62.758806 
L 230.585859 62.758857 
L 230.585912 62.7589 
L 230.585923 62.758917 
L 230.585893 62.75891 
L 230.585832 62.758893 
L 230.585754 62.758873 
L 230.585685 62.758857 
L 230.585649 62.758849 
L 230.585649 62.758849 
" clip-path="url(#p5039a788be)" style="fill: none; stroke-dasharray: 2,3.3; stroke-dashoffset: 0; stroke: #2f4f4f; stroke-width: 2"/>
   </g>
   <g id="line2d_36">
    <path d="M 230.5854 62.7588 
L 230.5854 62.7588 
L 230.5854 62.758798 
L 230.585398 62.758783 
L 230.585395 62.75877 
L 230.585392 62.758761 
L 230.585391 62.758756 
L 230.585392 62.758754 
L 230.585393 62.758755 
L 230.585397 62.758759 
L 230.585416 62.758765 
L 230.585444 62.758771 
L 230.585472 62.758776 
L 230.585495 62.75878 
" clip-path="url(#p5039a788be)" style="fill: none; stroke: #2f4f4f; stroke-width: 2; stroke-linecap: square"/>
   </g>
   <g id="line2d_37">
    <path d="M 230.585284 30.326694 
L 230.58529 30.326697 
L 230.585298 30.326702 
L 230.585307 30.326704 
L 230.585319 30.326698 
L 230.585333 30.326681 
L 230.585347 30.326654 
L 230.585361 30.326618 
L 230.585375 30.326575 
L 230.585386 30.326533 
L 230.585395 30.326499 
L 230.585399 30.326481 
L 230.585399 30.326481 
" clip-path="url(#p5039a788be)" style="fill: none; stroke-dasharray: 2,3.3; stroke-dashoffset: 0; stroke: #cd5c5c; stroke-width: 2"/>
   </g>
   <g id="line2d_38">
    <path d="M 230.5854 30.3264 
L 230.5854 30.3264 
L 230.585397 30.326406 
L 230.585368 30.32646 
L 230.585347 30.326501 
L 230.585328 30.326531 
L 230.585311 30.326561 
L 230.585298 30.326587 
L 230.585288 30.326613 
L 230.585283 30.326639 
L 230.58528 30.326662 
L 230.58528 30.326679 
L 230.585281 30.32669 
L 230.585284 30.326694 
" clip-path="url(#p5039a788be)" style="fill: none; stroke: #cd5c5c; stroke-width: 2; stroke-linecap: square"/>
   </g>
   <g id="line2d_39">
    <path clip-path="url(#p5039a788be)" style="fill: none; stroke-dasharray: 2,3.3; stroke-dashoffset: 0; stroke: #add8e6; stroke-width: 2"/>
   </g>
   <g id="line2d_40">
    <path clip-path="url(#p5039a788be)" style="fill: none; stroke: #add8e6; stroke-width: 2; stroke-linecap: square"/>
   </g>
   <g id="line2d_41">
    <path d="M 230.585503 192.488436 
L 230.585513 192.48844 
L 230.585518 192.488445 
L 230.585517 192.488449 
L 230.585509 192.488451 
L 230.585495 192.48845 
L 230.585476 192.488445 
L 230.585454 192.488437 
L 230.585433 192.488426 
L 230.585414 192.488413 
L 230.585402 192.488402 
L 230.585398 192.488395 
L 230.585398 192.488395 
" clip-path="url(#p5039a788be)" style="fill: none; stroke-dasharray: 2,3.3; stroke-dashoffset: 0; stroke: #663399; stroke-width: 2"/>
   </g>
   <g id="line2d_42">
    <path d="M 230.5854 192.4884 
L 230.5854 192.4884 
L 230.5854 192.488401 
L 230.585403 192.488407 
L 230.585406 192.488411 
L 230.585406 192.488417 
L 230.585392 192.488421 
L 230.585383 192.488425 
L 230.585389 192.488426 
L 230.585399 192.488429 
L 230.585436 192.488433 
L 230.585469 192.48843 
L 230.585487 192.488434 
L 230.585503 192.488436 
" clip-path="url(#p5039a788be)" style="fill: none; stroke: #663399; stroke-width: 2; stroke-linecap: square"/>
   </g>
   <g id="line2d_43">
    <path d="M 230.585323 224.920851 
L 230.585321 224.920845 
L 230.58532 224.920839 
L 230.585321 224.920832 
L 230.585324 224.920825 
L 230.58533 224.920819 
L 230.585339 224.920814 
L 230.585349 224.920811 
L 230.585359 224.920809 
L 230.585369 224.920809 
L 230.585376 224.92081 
L 230.58538 224.920811 
L 230.58538 224.920811 
" clip-path="url(#p5039a788be)" style="fill: none; stroke-dasharray: 2,3.3; stroke-dashoffset: 0; stroke: #8fbc8f; stroke-width: 2"/>
   </g>
   <g id="line2d_44">
    <path d="M 230.5854 224.9208 
L 230.5854 224.9208 
L 230.585398 224.920803 
L 230.585385 224.920825 
L 230.585374 224.920843 
L 230.585366 224.920859 
L 230.58536 224.920873 
L 230.585355 224.920875 
L 230.58535 224.920871 
L 230.585345 224.920863 
L 230.585339 224.920855 
L 230.585333 224.920853 
L 230.585327 224.920853 
L 230.585323 224.920851 
" clip-path="url(#p5039a788be)" style="fill: none; stroke: #8fbc8f; stroke-width: 2; stroke-linecap: square"/>
   </g>
   <g id="line2d_45">
    <path clip-path="url(#p5039a788be)" style="fill: none; stroke-dasharray: 2,3.3; stroke-dashoffset: 0; stroke: #00ced1; stroke-width: 2"/>
   </g>
   <g id="line2d_46">
    <path clip-path="url(#p5039a788be)" style="fill: none; stroke: #00ced1; stroke-width: 2; stroke-linecap: square"/>
   </g>
   <g id="line2d_47">
    <path d="M 165.720571 62.758803 
L 165.720561 62.758831 
L 165.720551 62.758859 
L 165.720542 62.758882 
L 165.720537 62.758897 
L 165.720536 62.758901 
L 165.720539 62.758896 
L 165.720546 62.758881 
L 165.720555 62.758861 
L 165.720565 62.758841 
L 165.720573 62.758826 
L 165.720577 62.758819 
L 165.720577 62.758819 
" clip-path="url(#p5039a788be)" style="fill: none; stroke-dasharray: 2,3.3; stroke-dashoffset: 0; stroke: #6a5acd; stroke-width: 2"/>
   </g>
   <g id="line2d_48">
    <path d="M 165.7206 62.7588 
L 165.7206 62.7588 
L 165.7206 62.758797 
L 165.720599 62.758767 
L 165.720603 62.758741 
L 165.720606 62.758721 
L 165.720609 62.758707 
L 165.720611 62.7587 
L 165.72061 62.758699 
L 165.720606 62.758707 
L 165.720599 62.758726 
L 165.72059 62.758749 
L 165.72058 62.758775 
L 165.720571 62.758803 
" clip-path="url(#p5039a788be)" style="fill: none; stroke: #6a5acd; stroke-width: 2; stroke-linecap: square"/>
   </g>
   <g id="line2d_49">
    <path d="M 165.720619 30.326449 
L 165.720616 30.326483 
L 165.720613 30.326515 
L 165.72061 30.326541 
L 165.720607 30.326557 
L 165.720604 30.326564 
L 165.720601 30.326561 
L 165.720598 30.326548 
L 165.720596 30.32653 
L 165.720595 30.326511 
L 165.720595 30.326497 
L 165.720596 30.326492 
L 165.720596 30.326492 
" clip-path="url(#p5039a788be)" style="fill: none; stroke-dasharray: 2,3.3; stroke-dashoffset: 0; stroke: #808000; stroke-width: 2"/>
   </g>
   <g id="line2d_50">
    <path d="M 165.7206 30.3264 
L 165.7206 30.3264 
L 165.7206 30.326398 
L 165.720603 30.326374 
L 165.720607 30.326333 
L 165.720608 30.326303 
L 165.720608 30.326285 
L 165.720609 30.326278 
L 165.720611 30.326286 
L 165.720616 30.326304 
L 165.720622 30.32633 
L 165.720624 30.32636 
L 165.720622 30.326408 
L 165.720619 30.326449 
" clip-path="url(#p5039a788be)" style="fill: none; stroke: #808000; stroke-width: 2; stroke-linecap: square"/>
   </g>
   <g id="line2d_51">
    <path clip-path="url(#p5039a788be)" style="fill: none; stroke-dasharray: 2,3.3; stroke-dashoffset: 0; stroke: #a0522d; stroke-width: 2"/>
   </g>
   <g id="line2d_52">
    <path clip-path="url(#p5039a788be)" style="fill: none; stroke: #a0522d; stroke-width: 2; stroke-linecap: square"/>
   </g>
   <g id="line2d_53">
    <path d="M 165.720425 192.488655 
L 165.720441 192.488632 
L 165.72047 192.488608 
L 165.720507 192.488583 
L 165.720545 192.488556 
L 165.720581 192.488529 
L 165.720612 192.488505 
L 165.720637 192.488485 
L 165.720656 192.488468 
L 165.720668 192.488454 
L 165.720675 192.488442 
L 165.720678 192.488435 
L 165.720678 192.488435 
" clip-path="url(#p5039a788be)" style="fill: none; stroke-dasharray: 2,3.3; stroke-dashoffset: 0; stroke: #ff4500; stroke-width: 2"/>
   </g>
   <g id="line2d_54">
    <path d="M 165.7206 192.4884 
L 165.7206 192.4884 
L 165.720601 192.488405 
L 165.720611 192.488452 
L 165.720617 192.488491 
L 165.720591 192.488535 
L 165.720574 192.488568 
L 165.720557 192.488592 
L 165.720554 192.48862 
L 165.720547 192.488655 
L 165.720505 192.488686 
L 165.72045 192.488683 
L 165.720421 192.488672 
L 165.720425 192.488655 
" clip-path="url(#p5039a788be)" style="fill: none; stroke: #ff4500; stroke-width: 2; stroke-linecap: square"/>
   </g>
   <g id="line2d_55">
    <path d="M 165.72068 224.92072 
L 165.72068 224.920698 
L 165.720678 224.920676 
L 165.720674 224.920655 
L 165.720668 224.920643 
L 165.72066 224.920638 
L 165.720651 224.920642 
L 165.72064 224.920653 
L 165.72063 224.920668 
L 165.720622 224.920685 
L 165.720618 224.920697 
L 165.720616 224.920701 
L 165.720616 224.920701 
" clip-path="url(#p5039a788be)" style="fill: none; stroke-dasharray: 2,3.3; stroke-dashoffset: 0; stroke: #708090; stroke-width: 2"/>
   </g>
   <g id="line2d_56">
    <path d="M 165.7206 224.9208 
L 165.7206 224.9208 
L 165.720602 224.920799 
L 165.720621 224.92079 
L 165.720636 224.920783 
L 165.720647 224.920788 
L 165.720655 224.920803 
L 165.720661 224.920807 
L 165.720666 224.920806 
L 165.720669 224.920799 
L 165.720672 224.920786 
L 165.720674 224.920768 
L 165.720677 224.920745 
L 165.72068 224.92072 
" clip-path="url(#p5039a788be)" style="fill: none; stroke: #708090; stroke-width: 2; stroke-linecap: square"/>
   </g>
   <g id="line2d_57">
    <path clip-path="url(#p5039a788be)" style="fill: none; stroke-dasharray: 2,3.3; stroke-dashoffset: 0; stroke: #bdb76b; stroke-width: 2"/>
   </g>
   <g id="line2d_58">
    <path clip-path="url(#p5039a788be)" style="fill: none; stroke: #bdb76b; stroke-width: 2; stroke-linecap: square"/>
   </g>
   <g id="patch_3">
    <path d="M 100.8558 224.9208 
L 100.8558 30.3264 
" style="fill: none; stroke: #000000; stroke-width: 0.8; stroke-linejoin: miter; stroke-linecap: square"/>
   </g>
   <g id="patch_4">
    <path d="M 295.4502 224.9208 
L 295.4502 30.3264 
" style="fill: none; stroke: #000000; stroke-width: 0.8; stroke-linejoin: miter; stroke-linecap: square"/>
   </g>
   <g id="patch_5">
    <path d="M 100.8558 224.9208 
L 295.4502 224.9208 
" style="fill: none; stroke: #000000; stroke-width: 0.8; stroke-linejoin: miter; stroke-linecap: square"/>
   </g>
   <g id="patch_6">
    <path d="M 100.8558 30.3264 
L 295.4502 30.3264 
" style="fill: none; stroke: #000000; stroke-width: 0.8; stroke-linejoin: miter; stroke-linecap: square"/>
   </g>
   <g id="patch_7">
    <path d="M 257.640665 136.869008 
C 260.221017 136.869008 262.696032 135.843823 264.520616 134.019239 
C 266.345201 132.194654 267.370385 129.71964 267.370385 127.139288 
C 267.370385 124.558936 266.345201 122.083921 264.520616 120.259337 
C 262.696032 118.434752 260.221017 117.409568 257.640665 117.409568 
C 255.060313 117.409568 252.585299 118.434752 250.760714 120.259337 
C 248.93613 122.083921 247.910945 124.558936 247.910945 127.139288 
C 247.910945 129.71964 248.93613 132.194654 250.760714 134.019239 
C 252.585299 135.843823 255.060313 136.869008 257.640665 136.869008 
z
" clip-path="url(#p5039a788be)" style="fill: #1f77b4; stroke: #000000; stroke-linejoin: miter"/>
   </g>
   <g id="patch_8">
    <path d="M 232.872114 143.730347 
C 235.452466 143.730347 237.92748 142.705162 239.752065 140.880578 
C 241.576649 139.055993 242.601834 136.580979 242.601834 134.000627 
C 242.601834 131.420275 241.576649 128.94526 239.752065 127.120676 
C 237.92748 125.296091 235.452466 124.270907 232.872114 124.270907 
C 230.291762 124.270907 227.816747 125.296091 225.992163 127.120676 
C 224.167579 128.94526 223.142394 131.420275 223.142394 134.000627 
C 223.142394 136.580979 224.167579 139.055993 225.992163 140.880578 
C 227.816747 142.705162 230.291762 143.730347 232.872114 143.730347 
z
" clip-path="url(#p5039a788be)" style="fill: #ff7f0e; stroke: #000000; stroke-linejoin: miter"/>
   </g>
   <g id="patch_9">
    <path d="M 133.288235 104.920743 
C 135.868587 104.920743 138.343602 103.895559 140.168186 102.070974 
C 141.99277 100.24639 143.017955 97.771375 143.017955 95.191023 
C 143.017955 92.610671 141.99277 90.135657 140.168186 88.311072 
C 138.343602 86.486488 135.868587 85.461303 133.288235 85.461303 
C 130.707883 85.461303 128.232868 86.486488 126.408284 88.311072 
C 124.5837 90.135657 123.558515 92.610671 123.558515 95.191023 
C 123.558515 97.771375 124.5837 100.24639 126.408284 102.070974 
C 128.232868 103.895559 130.707883 104.920743 133.288235 104.920743 
z
" clip-path="url(#p5039a788be)" style="fill: #2ca02c; stroke: #000000; stroke-linejoin: miter"/>
   </g>
   <g id="patch_10">
    <path d="M 165.720272 104.920737 
C 168.300624 104.920737 170.775639 103.895552 172.600223 102.070968 
C 174.424808 100.246384 175.449992 97.771369 175.449992 95.191017 
C 175.449992 92.610665 174.424808 90.13565 172.600223 88.311066 
C 170.775639 86.486482 168.300624 85.461297 165.720272 85.461297 
C 163.13992 85.461297 160.664906 86.486482 158.840321 88.311066 
C 157.015737 90.13565 155.990552 92.610665 155.990552 95.191017 
C 155.990552 97.771369 157.015737 100.246384 158.840321 102.070968 
C 160.664906 103.895552 163.13992 104.920737 165.720272 104.920737 
z
" clip-path="url(#p5039a788be)" style="fill: #d62728; stroke: #000000; stroke-linejoin: miter"/>
   </g>
   <g id="patch_11">
    <path d="M 230.585659 104.920814 
C 233.166011 104.920814 235.641025 103.895629 237.46561 102.071045 
C 239.290194 100.246461 240.315379 97.771446 240.315379 95.191094 
C 240.315379 92.610742 239.290194 90.135727 237.46561 88.311143 
C 235.641025 86.486559 233.166011 85.461374 230.585659 85.461374 
C 228.005307 85.461374 225.530292 86.486559 223.705708 88.311143 
C 221.881123 90.135727 220.855939 92.610742 220.855939 95.191094 
C 220.855939 97.771446 221.881123 100.246461 223.705708 102.071045 
C 225.530292 103.895629 228.005307 104.920814 230.585659 104.920814 
z
" clip-path="url(#p5039a788be)" style="fill: #9467bd; stroke: #000000; stroke-linejoin: miter"/>
   </g>
   <g id="patch_12">
    <path d="M 263.017793 104.920764 
C 265.598145 104.920764 268.073159 103.895579 269.897744 102.070995 
C 271.722328 100.246411 272.747513 97.771396 272.747513 95.191044 
C 272.747513 92.610692 271.722328 90.135677 269.897744 88.311093 
C 268.073159 86.486509 265.598145 85.461324 263.017793 85.461324 
C 260.437441 85.461324 257.962426 86.486509 256.137842 88.311093 
C 254.313258 90.135677 253.288073 92.610692 253.288073 95.191044 
C 253.288073 97.771396 254.313258 100.246411 256.137842 102.070995 
C 257.962426 103.895579 260.437441 104.920764 263.017793 104.920764 
z
" clip-path="url(#p5039a788be)" style="fill: #8c564b; stroke: #000000; stroke-linejoin: miter"/>
   </g>
   <g id="patch_13">
    <path d="M 133.288244 169.785834 
C 135.868596 169.785834 138.343611 168.760649 140.168195 166.936065 
C 141.99278 165.11148 143.017964 162.636466 143.017964 160.056114 
C 143.017964 157.475762 141.99278 155.000747 140.168195 153.176163 
C 138.343611 151.351578 135.868596 150.326394 133.288244 150.326394 
C 130.707892 150.326394 128.232878 151.351578 126.408293 153.176163 
C 124.583709 155.000747 123.558524 157.475762 123.558524 160.056114 
C 123.558524 162.636466 124.583709 165.11148 126.408293 166.936065 
C 128.232878 168.760649 130.707892 169.785834 133.288244 169.785834 
z
" clip-path="url(#p5039a788be)" style="fill: #e377c2; stroke: #000000; stroke-linejoin: miter"/>
   </g>
   <g id="patch_14">
    <path d="M 165.720397 169.785322 
C 168.300749 169.785322 170.775764 168.760138 172.600348 166.935553 
C 174.424932 165.110969 175.450117 162.635954 175.450117 160.055602 
C 175.450117 157.47525 174.424932 155.000236 172.600348 153.175651 
C 170.775764 151.351067 168.300749 150.325882 165.720397 150.325882 
C 163.140045 150.325882 160.66503 151.351067 158.840446 153.175651 
C 157.015862 155.000236 155.990677 157.47525 155.990677 160.055602 
C 155.990677 162.635954 157.015862 165.110969 158.840446 166.935553 
C 160.66503 168.760138 163.140045 169.785322 165.720397 169.785322 
z
" clip-path="url(#p5039a788be)" style="fill: #7f7f7f; stroke: #000000; stroke-linejoin: miter"/>
   </g>
   <g id="patch_15">
    <path d="M 230.585468 169.785773 
C 233.16582 169.785773 235.640835 168.760588 237.465419 166.936004 
C 239.290004 165.111419 240.315188 162.636405 240.315188 160.056053 
C 240.315188 157.475701 239.290004 155.000686 237.465419 153.176102 
C 235.640835 151.351517 233.16582 150.326333 230.585468 150.326333 
C 228.005116 150.326333 225.530102 151.351517 223.705517 153.176102 
C 221.880933 155.000686 220.855748 157.475701 220.855748 160.056053 
C 220.855748 162.636405 221.880933 165.111419 223.705517 166.936004 
C 225.530102 168.760588 228.005116 169.785773 230.585468 169.785773 
z
" clip-path="url(#p5039a788be)" style="fill: #bcbd22; stroke: #000000; stroke-linejoin: miter"/>
   </g>
   <g id="patch_16">
    <path d="M 263.01778 169.785878 
C 265.598132 169.785878 268.073147 168.760693 269.897731 166.936109 
C 271.722316 165.111524 272.7475 162.636509 272.7475 160.056158 
C 272.7475 157.475806 271.722316 155.000791 269.897731 153.176207 
C 268.073147 151.351622 265.598132 150.326438 263.01778 150.326438 
C 260.437428 150.326438 257.962414 151.351622 256.137829 153.176207 
C 254.313245 155.000791 253.28806 157.475806 253.28806 160.056158 
C 253.28806 162.636509 254.313245 165.111524 256.137829 166.936109 
C 257.962414 168.760693 260.437428 169.785878 263.01778 169.785878 
z
" clip-path="url(#p5039a788be)" style="fill: #17becf; stroke: #000000; stroke-linejoin: miter"/>
   </g>
   <g id="patch_17">
    <path d="M 230.585495 72.4885 
C 233.165847 72.4885 235.640862 71.463315 237.465446 69.638731 
C 239.290031 67.814146 240.315215 65.339131 240.315215 62.75878 
C 240.315215 60.178428 239.290031 57.703413 237.465446 55.878829 
C 235.640862 54.054244 233.165847 53.02906 230.585495 53.02906 
C 228.005143 53.02906 225.530129 54.054244 223.705544 55.878829 
C 221.88096 57.703413 220.855775 60.178428 220.855775 62.75878 
C 220.855775 65.339131 221.88096 67.814146 223.705544 69.638731 
C 225.530129 71.463315 228.005143 72.4885 230.585495 72.4885 
z
" clip-path="url(#p5039a788be)" style="fill: #2f4f4f; stroke: #000000; stroke-linejoin: miter"/>
   </g>
   <g id="patch_18">
    <path d="M 230.585284 40.056414 
C 233.165636 40.056414 235.640651 39.031229 237.465235 37.206645 
C 239.289819 35.38206 240.315004 32.907046 240.315004 30.326694 
C 240.315004 27.746342 239.289819 25.271327 237.465235 23.446743 
C 235.640651 21.622158 233.165636 20.596974 230.585284 20.596974 
C 228.004932 20.596974 225.529917 21.622158 223.705333 23.446743 
C 221.880749 25.271327 220.855564 27.746342 220.855564 30.326694 
C 220.855564 32.907046 221.880749 35.38206 223.705333 37.206645 
C 225.529917 39.031229 228.004932 40.056414 230.585284 40.056414 
z
" clip-path="url(#p5039a788be)" style="fill: #cd5c5c; stroke: #000000; stroke-linejoin: miter"/>
   </g>
   <g id="patch_19">
    <path d="M 230.585614 7.623702 
C 233.165966 7.623702 235.640981 6.598517 237.465565 4.773933 
C 239.29015 2.949348 240.315334 0.474333 240.315334 -2.106018 
C 240.315334 -4.68637 239.29015 -7.161385 237.465565 -8.985969 
C 235.640981 -10.810554 233.165966 -11.835738 230.585614 -11.835738 
C 228.005262 -11.835738 225.530248 -10.810554 223.705663 -8.985969 
C 221.881079 -7.161385 220.855894 -4.68637 220.855894 -2.106018 
C 220.855894 0.474333 221.881079 2.949348 223.705663 4.773933 
C 225.530248 6.598517 228.005262 7.623702 230.585614 7.623702 
z
" clip-path="url(#p5039a788be)" style="fill: #add8e6; stroke: #000000; stroke-linejoin: miter"/>
   </g>
   <g id="patch_20">
    <path d="M 230.585503 202.218156 
C 233.165855 202.218156 235.64087 201.192971 237.465454 199.368387 
C 239.290038 197.543802 240.315223 195.068788 240.315223 192.488436 
C 240.315223 189.908084 239.290038 187.433069 237.465454 185.608485 
C 235.64087 183.7839 233.165855 182.758716 230.585503 182.758716 
C 228.005151 182.758716 225.530136 183.7839 223.705552 185.608485 
C 221.880968 187.433069 220.855783 189.908084 220.855783 192.488436 
C 220.855783 195.068788 221.880968 197.543802 223.705552 199.368387 
C 225.530136 201.192971 228.005151 202.218156 230.585503 202.218156 
z
" clip-path="url(#p5039a788be)" style="fill: #663399; stroke: #000000; stroke-linejoin: miter"/>
   </g>
   <g id="patch_21">
    <path d="M 230.585323 234.650571 
C 233.165675 234.650571 235.64069 233.625386 237.465274 231.800802 
C 239.289858 229.976217 240.315043 227.501203 240.315043 224.920851 
C 240.315043 222.340499 239.289858 219.865484 237.465274 218.0409 
C 235.64069 216.216315 233.165675 215.191131 230.585323 215.191131 
C 228.004971 215.191131 225.529956 216.216315 223.705372 218.0409 
C 221.880788 219.865484 220.855603 222.340499 220.855603 224.920851 
C 220.855603 227.501203 221.880788 229.976217 223.705372 231.800802 
C 225.529956 233.625386 228.004971 234.650571 230.585323 234.650571 
z
" clip-path="url(#p5039a788be)" style="fill: #8fbc8f; stroke: #000000; stroke-linejoin: miter"/>
   </g>
   <g id="patch_22">
    <path d="M 230.58595 267.082893 
C 233.166302 267.082893 235.641317 266.057708 237.465901 264.233124 
C 239.290486 262.40854 240.31567 259.933525 240.31567 257.353173 
C 240.31567 254.772821 239.290486 252.297806 237.465901 250.473222 
C 235.641317 248.648638 233.166302 247.623453 230.58595 247.623453 
C 228.005598 247.623453 225.530584 248.648638 223.705999 250.473222 
C 221.881415 252.297806 220.85623 254.772821 220.85623 257.353173 
C 220.85623 259.933525 221.881415 262.40854 223.705999 264.233124 
C 225.530584 266.057708 228.005598 267.082893 230.58595 267.082893 
z
" clip-path="url(#p5039a788be)" style="fill: #00ced1; stroke: #000000; stroke-linejoin: miter"/>
   </g>
   <g id="patch_23">
    <path d="M 165.720571 72.488523 
C 168.300923 72.488523 170.775937 71.463339 172.600522 69.638754 
C 174.425106 67.81417 175.450291 65.339155 175.450291 62.758803 
C 175.450291 60.178451 174.425106 57.703437 172.600522 55.878852 
C 170.775937 54.054268 168.300923 53.029083 165.720571 53.029083 
C 163.140219 53.029083 160.665204 54.054268 158.84062 55.878852 
C 157.016035 57.703437 155.990851 60.178451 155.990851 62.758803 
C 155.990851 65.339155 157.016035 67.81417 158.84062 69.638754 
C 160.665204 71.463339 163.140219 72.488523 165.720571 72.488523 
z
" clip-path="url(#p5039a788be)" style="fill: #6a5acd; stroke: #000000; stroke-linejoin: miter"/>
   </g>
   <g id="patch_24">
    <path d="M 165.720619 40.056169 
C 168.300971 40.056169 170.775986 39.030984 172.60057 37.2064 
C 174.425154 35.381815 175.450339 32.9068 175.450339 30.326449 
C 175.450339 27.746097 174.425154 25.271082 172.60057 23.446498 
C 170.775986 21.621913 168.300971 20.596729 165.720619 20.596729 
C 163.140267 20.596729 160.665252 21.621913 158.840668 23.446498 
C 157.016084 25.271082 155.990899 27.746097 155.990899 30.326449 
C 155.990899 32.9068 157.016084 35.381815 158.840668 37.2064 
C 160.665252 39.030984 163.140267 40.056169 165.720619 40.056169 
z
" clip-path="url(#p5039a788be)" style="fill: #808000; stroke: #000000; stroke-linejoin: miter"/>
   </g>
   <g id="patch_25">
    <path d="M 165.720576 7.623734 
C 168.300927 7.623734 170.775942 6.598549 172.600527 4.773965 
C 174.425111 2.94938 175.450296 0.474365 175.450296 -2.105986 
C 175.450296 -4.686338 174.425111 -7.161353 172.600527 -8.985937 
C 170.775942 -10.810522 168.300927 -11.835706 165.720576 -11.835706 
C 163.140224 -11.835706 160.665209 -10.810522 158.840625 -8.985937 
C 157.01604 -7.161353 155.990856 -4.686338 155.990856 -2.105986 
C 155.990856 0.474365 157.01604 2.94938 158.840625 4.773965 
C 160.665209 6.598549 163.140224 7.623734 165.720576 7.623734 
z
" clip-path="url(#p5039a788be)" style="fill: #a0522d; stroke: #000000; stroke-linejoin: miter"/>
   </g>
   <g id="patch_26">
    <path d="M 165.720425 202.218375 
C 168.300777 202.218375 170.775791 201.193191 172.600376 199.368606 
C 174.42496 197.544022 175.450145 195.069007 175.450145 192.488655 
C 175.450145 189.908304 174.42496 187.433289 172.600376 185.608704 
C 170.775791 183.78412 168.300777 182.758935 165.720425 182.758935 
C 163.140073 182.758935 160.665058 183.78412 158.840474 185.608704 
C 157.015889 187.433289 155.990705 189.908304 155.990705 192.488655 
C 155.990705 195.069007 157.015889 197.544022 158.840474 199.368606 
C 160.665058 201.193191 163.140073 202.218375 165.720425 202.218375 
z
" clip-path="url(#p5039a788be)" style="fill: #ff4500; stroke: #000000; stroke-linejoin: miter"/>
   </g>
   <g id="patch_27">
    <path d="M 165.72068 234.65044 
C 168.301032 234.65044 170.776046 233.625256 172.600631 231.800671 
C 174.425215 229.976087 175.4504 227.501072 175.4504 224.92072 
C 175.4504 222.340368 174.425215 219.865354 172.600631 218.040769 
C 170.776046 216.216185 168.301032 215.191 165.72068 215.191 
C 163.140328 215.191 160.665313 216.216185 158.840729 218.040769 
C 157.016145 219.865354 155.99096 222.340368 155.99096 224.92072 
C 155.99096 227.501072 157.016145 229.976087 158.840729 231.800671 
C 160.665313 233.625256 163.140328 234.65044 165.72068 234.65044 
z
" clip-path="url(#p5039a788be)" style="fill: #708090; stroke: #000000; stroke-linejoin: miter"/>
   </g>
   <g id="patch_28">
    <path d="M 165.720124 267.0829 
C 168.300476 267.0829 170.775491 266.057715 172.600075 264.233131 
C 174.424659 262.408546 175.449844 259.933532 175.449844 257.35318 
C 175.449844 254.772828 174.424659 252.297813 172.600075 250.473229 
C 170.775491 248.648644 168.300476 247.62346 165.720124 247.62346 
C 163.139772 247.62346 160.664757 248.648644 158.840173 250.473229 
C 157.015589 252.297813 155.990404 254.772828 155.990404 257.35318 
C 155.990404 259.933532 157.015589 262.408546 158.840173 264.233131 
C 160.664757 266.057715 163.139772 267.0829 165.720124 267.0829 
z
" clip-path="url(#p5039a788be)" style="fill: #bdb76b; stroke: #000000; stroke-linejoin: miter"/>
   </g>
   <g id="line2d_59">
    <path d="M 263.0178 127.6236 
" clip-path="url(#p5039a788be)" style="fill: none; stroke: #1f77b4; stroke-width: 1.5; stroke-linecap: square"/>
    <defs>
     <path id="m262afde164" d="M 0 4.949747 
L 2.969848 0 
L 0 -4.949747 
L -2.969848 0 
z
" style="stroke: #000000; stroke-linejoin: miter"/>
    </defs>
    <g clip-path="url(#p5039a788be)">
     <use xlink:href="#m262afde164" x="263.0178" y="127.6236" style="fill: #1f77b4; stroke: #000000; stroke-linejoin: miter"/>
    </g>
   </g>
   <g id="line2d_60">
    <path d="M 263.0178 127.6236 
" clip-path="url(#p5039a788be)" style="fill: none; stroke: #ff7f0e; stroke-width: 1.5; stroke-linecap: square"/>
    <defs>
     <path id="m6705a3283a" d="M 0 4.949747 
L 2.969848 0 
L 0 -4.949747 
L -2.969848 0 
z
" style="stroke: #000000; stroke-linejoin: miter"/>
    </defs>
    <g clip-path="url(#p5039a788be)">
     <use xlink:href="#m6705a3283a" x="263.0178" y="127.6236" style="fill: #ff7f0e; stroke: #000000; stroke-linejoin: miter"/>
    </g>
   </g>
   <g id="line2d_61">
    <path d="M 133.2882 95.1912 
" clip-path="url(#p5039a788be)" style="fill: none; stroke: #2ca02c; stroke-width: 1.5; stroke-linecap: square"/>
    <defs>
     <path id="m3d8af91915" d="M 0 4.949747 
L 2.969848 0 
L 0 -4.949747 
L -2.969848 0 
z
" style="stroke: #000000; stroke-linejoin: miter"/>
    </defs>
    <g clip-path="url(#p5039a788be)">
     <use xlink:href="#m3d8af91915" x="133.2882" y="95.1912" style="fill: #2ca02c; stroke: #000000; stroke-linejoin: miter"/>
    </g>
   </g>
   <g id="line2d_62">
    <path d="M 165.7206 95.1912 
" clip-path="url(#p5039a788be)" style="fill: none; stroke: #d62728; stroke-width: 1.5; stroke-linecap: square"/>
    <defs>
     <path id="m0435568769" d="M 0 4.949747 
L 2.969848 0 
L 0 -4.949747 
L -2.969848 0 
z
" style="stroke: #000000; stroke-linejoin: miter"/>
    </defs>
    <g clip-path="url(#p5039a788be)">
     <use xlink:href="#m0435568769" x="165.7206" y="95.1912" style="fill: #d62728; stroke: #000000; stroke-linejoin: miter"/>
    </g>
   </g>
   <g id="line2d_63">
    <path d="M 230.5854 95.1912 
" clip-path="url(#p5039a788be)" style="fill: none; stroke: #9467bd; stroke-width: 1.5; stroke-linecap: square"/>
    <defs>
     <path id="m5a11ad31a0" d="M 0 4.949747 
L 2.969848 0 
L 0 -4.949747 
L -2.969848 0 
z
" style="stroke: #000000; stroke-linejoin: miter"/>
    </defs>
    <g clip-path="url(#p5039a788be)">
     <use xlink:href="#m5a11ad31a0" x="230.5854" y="95.1912" style="fill: #9467bd; stroke: #000000; stroke-linejoin: miter"/>
    </g>
   </g>
   <g id="line2d_64">
    <path d="M 263.0178 95.1912 
" clip-path="url(#p5039a788be)" style="fill: none; stroke: #8c564b; stroke-width: 1.5; stroke-linecap: square"/>
    <defs>
     <path id="m04f4454db6" d="M 0 4.949747 
L 2.969848 0 
L 0 -4.949747 
L -2.969848 0 
z
" style="stroke: #000000; stroke-linejoin: miter"/>
    </defs>
    <g clip-path="url(#p5039a788be)">
     <use xlink:href="#m04f4454db6" x="263.0178" y="95.1912" style="fill: #8c564b; stroke: #000000; stroke-linejoin: miter"/>
    </g>
   </g>
   <g id="line2d_65">
    <path d="M 133.2882 160.056 
" clip-path="url(#p5039a788be)" style="fill: none; stroke: #e377c2; stroke-width: 1.5; stroke-linecap: square"/>
    <defs>
     <path id="mcca3d8e4fc" d="M 0 4.949747 
L 2.969848 0 
L 0 -4.949747 
L -2.969848 0 
z
" style="stroke: #000000; stroke-linejoin: miter"/>
    </defs>
    <g clip-path="url(#p5039a788be)">
     <use xlink:href="#mcca3d8e4fc" x="133.2882" y="160.056" style="fill: #e377c2; stroke: #000000; stroke-linejoin: miter"/>
    </g>
   </g>
   <g id="line2d_66">
    <path d="M 165.7206 160.056 
" clip-path="url(#p5039a788be)" style="fill: none; stroke: #7f7f7f; stroke-width: 1.5; stroke-linecap: square"/>
    <defs>
     <path id="mf1bf2fd251" d="M 0 4.949747 
L 2.969848 0 
L 0 -4.949747 
L -2.969848 0 
z
" style="stroke: #000000; stroke-linejoin: miter"/>
    </defs>
    <g clip-path="url(#p5039a788be)">
     <use xlink:href="#mf1bf2fd251" x="165.7206" y="160.056" style="fill: #7f7f7f; stroke: #000000; stroke-linejoin: miter"/>
    </g>
   </g>
   <g id="line2d_67">
    <path d="M 230.5854 160.056 
" clip-path="url(#p5039a788be)" style="fill: none; stroke: #bcbd22; stroke-width: 1.5; stroke-linecap: square"/>
    <defs>
     <path id="m991b9bc345" d="M 0 4.949747 
L 2.969848 0 
L 0 -4.949747 
L -2.969848 0 
z
" style="stroke: #000000; stroke-linejoin: miter"/>
    </defs>
    <g clip-path="url(#p5039a788be)">
     <use xlink:href="#m991b9bc345" x="230.5854" y="160.056" style="fill: #bcbd22; stroke: #000000; stroke-linejoin: miter"/>
    </g>
   </g>
   <g id="line2d_68">
    <path d="M 263.0178 160.056 
" clip-path="url(#p5039a788be)" style="fill: none; stroke: #17becf; stroke-width: 1.5; stroke-linecap: square"/>
    <defs>
     <path id="mc11178e4d2" d="M 0 4.949747 
L 2.969848 0 
L 0 -4.949747 
L -2.969848 0 
z
" style="stroke: #000000; stroke-linejoin: miter"/>
    </defs>
    <g clip-path="url(#p5039a788be)">
     <use xlink:href="#mc11178e4d2" x="263.0178" y="160.056" style="fill: #17becf; stroke: #000000; stroke-linejoin: miter"/>
    </g>
   </g>
   <g id="line2d_69">
    <path d="M 230.5854 62.7588 
" clip-path="url(#p5039a788be)" style="fill: none; stroke: #2f4f4f; stroke-width: 1.5; stroke-linecap: square"/>
    <defs>
     <path id="macbbbaef89" d="M 0 4.949747 
L 2.969848 0 
L 0 -4.949747 
L -2.969848 0 
z
" style="stroke: #000000; stroke-linejoin: miter"/>
    </defs>
    <g clip-path="url(#p5039a788be)">
     <use xlink:href="#macbbbaef89" x="230.5854" y="62.7588" style="fill: #2f4f4f; stroke: #000000; stroke-linejoin: miter"/>
    </g>
   </g>
   <g id="line2d_70">
    <path d="M 230.5854 30.3264 
" clip-path="url(#p5039a788be)" style="fill: none; stroke: #cd5c5c; stroke-width: 1.5; stroke-linecap: square"/>
    <defs>
     <path id="mb0eb42acb5" d="M 0 4.949747 
L 2.969848 0 
L 0 -4.949747 
L -2.969848 0 
z
" style="stroke: #000000; stroke-linejoin: miter"/>
    </defs>
    <g clip-path="url(#p5039a788be)">
     <use xlink:href="#mb0eb42acb5" x="230.5854" y="30.3264" style="fill: #cd5c5c; stroke: #000000; stroke-linejoin: miter"/>
    </g>
   </g>
   <g id="line2d_71">
    <path clip-path="url(#p5039a788be)" style="fill: none; stroke: #add8e6; stroke-width: 1.5; stroke-linecap: square"/>
    <defs>
     <path id="m332d3b1a6a" d="M 0 4.949747 
L 2.969848 0 
L 0 -4.949747 
L -2.969848 0 
z
" style="stroke: #000000; stroke-linejoin: miter"/>
    </defs>
    <g clip-path="url(#p5039a788be)"/>
   </g>
   <g id="line2d_72">
    <path d="M 230.5854 192.4884 
" clip-path="url(#p5039a788be)" style="fill: none; stroke: #663399; stroke-width: 1.5; stroke-linecap: square"/>
    <defs>
     <path id="m039425529f" d="M 0 4.949747 
L 2.969848 0 
L 0 -4.949747 
L -2.969848 0 
z
" style="stroke: #000000; stroke-linejoin: miter"/>
    </defs>
    <g clip-path="url(#p5039a788be)">
     <use xlink:href="#m039425529f" x="230.5854" y="192.4884" style="fill: #663399; stroke: #000000; stroke-linejoin: miter"/>
    </g>
   </g>
   <g id="line2d_73">
    <path d="M 230.5854 224.9208 
" clip-path="url(#p5039a788be)" style="fill: none; stroke: #8fbc8f; stroke-width: 1.5; stroke-linecap: square"/>
    <defs>
     <path id="me59f0ecb98" d="M 0 4.949747 
L 2.969848 0 
L 0 -4.949747 
L -2.969848 0 
z
" style="stroke: #000000; stroke-linejoin: miter"/>
    </defs>
    <g clip-path="url(#p5039a788be)">
     <use xlink:href="#me59f0ecb98" x="230.5854" y="224.9208" style="fill: #8fbc8f; stroke: #000000; stroke-linejoin: miter"/>
    </g>
   </g>
   <g id="line2d_74">
    <path clip-path="url(#p5039a788be)" style="fill: none; stroke: #00ced1; stroke-width: 1.5; stroke-linecap: square"/>
    <defs>
     <path id="m02a360e4db" d="M 0 4.949747 
L 2.969848 0 
L 0 -4.949747 
L -2.969848 0 
z
" style="stroke: #000000; stroke-linejoin: miter"/>
    </defs>
    <g clip-path="url(#p5039a788be)">
     <use xlink:href="#m02a360e4db" x="230.5854" y="257.3532" style="fill: #00ced1; stroke: #000000; stroke-linejoin: miter"/>
    </g>
   </g>
   <g id="line2d_75">
    <path d="M 165.7206 62.7588 
" clip-path="url(#p5039a788be)" style="fill: none; stroke: #6a5acd; stroke-width: 1.5; stroke-linecap: square"/>
    <defs>
     <path id="m936cfc4f50" d="M 0 4.949747 
L 2.969848 0 
L 0 -4.949747 
L -2.969848 0 
z
" style="stroke: #000000; stroke-linejoin: miter"/>
    </defs>
    <g clip-path="url(#p5039a788be)">
     <use xlink:href="#m936cfc4f50" x="165.7206" y="62.7588" style="fill: #6a5acd; stroke: #000000; stroke-linejoin: miter"/>
    </g>
   </g>
   <g id="line2d_76">
    <path d="M 165.7206 30.3264 
" clip-path="url(#p5039a788be)" style="fill: none; stroke: #808000; stroke-width: 1.5; stroke-linecap: square"/>
    <defs>
     <path id="m8bf0bdb636" d="M 0 4.949747 
L 2.969848 0 
L 0 -4.949747 
L -2.969848 0 
z
" style="stroke: #000000; stroke-linejoin: miter"/>
    </defs>
    <g clip-path="url(#p5039a788be)">
     <use xlink:href="#m8bf0bdb636" x="165.7206" y="30.3264" style="fill: #808000; stroke: #000000; stroke-linejoin: miter"/>
    </g>
   </g>
   <g id="line2d_77">
    <path clip-path="url(#p5039a788be)" style="fill: none; stroke: #a0522d; stroke-width: 1.5; stroke-linecap: square"/>
    <defs>
     <path id="mf44865127c" d="M 0 4.949747 
L 2.969848 0 
L 0 -4.949747 
L -2.969848 0 
z
" style="stroke: #000000; stroke-linejoin: miter"/>
    </defs>
    <g clip-path="url(#p5039a788be)"/>
   </g>
   <g id="line2d_78">
    <path d="M 165.7206 192.4884 
" clip-path="url(#p5039a788be)" style="fill: none; stroke: #ff4500; stroke-width: 1.5; stroke-linecap: square"/>
    <defs>
     <path id="ma238e7fbfe" d="M 0 4.949747 
L 2.969848 0 
L 0 -4.949747 
L -2.969848 0 
z
" style="stroke: #000000; stroke-linejoin: miter"/>
    </defs>
    <g clip-path="url(#p5039a788be)">
     <use xlink:href="#ma238e7fbfe" x="165.7206" y="192.4884" style="fill: #ff4500; stroke: #000000; stroke-linejoin: miter"/>
    </g>
   </g>
   <g id="line2d_79">
    <path d="M 165.7206 224.9208 
" clip-path="url(#p5039a788be)" style="fill: none; stroke: #708090; stroke-width: 1.5; stroke-linecap: square"/>
    <defs>
     <path id="mc762b2278c" d="M 0 4.949747 
L 2.969848 0 
L 0 -4.949747 
L -2.969848 0 
z
" style="stroke: #000000; stroke-linejoin: miter"/>
    </defs>
    <g clip-path="url(#p5039a788be)">
     <use xlink:href="#mc762b2278c" x="165.7206" y="224.9208" style="fill: #708090; stroke: #000000; stroke-linejoin: miter"/>
    </g>
   </g>
   <g id="line2d_80">
    <path clip-path="url(#p5039a788be)" style="fill: none; stroke: #bdb76b; stroke-width: 1.5; stroke-linecap: square"/>
    <defs>
     <path id="m1c14f2f7e1" d="M 0 4.949747 
L 2.969848 0 
L 0 -4.949747 
L -2.969848 0 
z
" style="stroke: #000000; stroke-linejoin: miter"/>
    </defs>
    <g clip-path="url(#p5039a788be)">
     <use xlink:href="#m1c14f2f7e1" x="165.7206" y="257.3532" style="fill: #bdb76b; stroke: #000000; stroke-linejoin: miter"/>
    </g>
   </g>
  </g>
 </g>
 <defs>
  <clipPath id="p5039a788be">
   <rect x="100.8558" y="30.3264" width="194.5944" height="194.5944"/>
  </clipPath>
 </defs>
</svg>
