<?xml version="1.0" encoding="utf-8" standalone="no"?>
<!DOCTYPE svg PUBLIC "-//W3C//DTD SVG 1.1//EN"
  "http://www.w3.org/Graphics/SVG/1.1/DTD/svg11.dtd">
<svg xmlns:xlink="http://www.w3.org/1999/xlink" width="386.64pt" height="252.72pt" viewBox="0 0 386.64 252.72" xmlns="http://www.w3.org/2000/svg" version="1.1">
 <metadata>
  <rdf:RDF xmlns:dc="http://purl.org/dc/elements/1.1/" xmlns:cc="http://creativecommons.org/ns#" xmlns:rdf="http://www.w3.org/1999/02/22-rdf-syntax-ns#">
   <cc:Work>
    <dc:type rdf:resource="http://purl.org/dc/dcmitype/StillImage"/>
    <dc:date>2023-07-11T22:26:53.435510</dc:date>
    <dc:format>image/svg+xml</dc:format>
    <dc:creator>
     <cc:Agent>
      <dc:title>Matplotlib v3.6.2, https://matplotlib.org/</dc:title>
     </cc:Agent>
    </dc:creator>
   </cc:Work>
  </rdf:RDF>
 </metadata>
 <defs>
  <style type="text/css">*{stroke-linejoin: round; stroke-linecap: butt}</style>
 </defs>
 <g id="figure_1">
  <g id="patch_1">
   <path d="M 0 252.72 
L 386.64 252.72 
L 386.64 0 
L 0 0 
z
" style="fill: #ffffff"/>
  </g>
  <g id="axes_1">
   <g id="patch_2">
    <path d="M 100.8558 224.9208 
L 295.4502 224.9208 
L 295.4502 30.3264 
L 100.8558 30.3264 
z
" style="fill: #ffffff"/>
   </g>
   <g id="matplotlib.axis_1">
    <g id="xtick_1">
     <g id="line2d_1">
      <defs>
       <path id="mf15748608f" d="M 0 0 
L 0 3.5 
" style="stroke: #000000; stroke-width: 0.8"/>
      </defs>
      <g>
       <use xlink:href="#mf15748608f" x="100.8558" y="224.9208" style="stroke: #000000; stroke-width: 0.8"/>
      </g>
     </g>
     <g id="text_1">
      <!-- −0.5 -->
      <g transform="translate(88.714394 239.519237) scale(0.1 -0.1)">
       <defs>
        <path id="DejaVuSans-2212" d="M 678 2272 
L 4684 2272 
L 4684 1741 
L 678 1741 
L 678 2272 
z
" transform="scale(0.015625)"/>
        <path id="DejaVuSans-30" d="M 2034 4250 
Q 1547 4250 1301 3770 
Q 1056 3291 1056 2328 
Q 1056 1369 1301 889 
Q 1547 409 2034 409 
Q 2525 409 2770 889 
Q 3016 1369 3016 2328 
Q 3016 3291 2770 3770 
Q 2525 4250 2034 4250 
z
M 2034 4750 
Q 2819 4750 3233 4129 
Q 3647 3509 3647 2328 
Q 3647 1150 3233 529 
Q 2819 -91 2034 -91 
Q 1250 -91 836 529 
Q 422 1150 422 2328 
Q 422 3509 836 4129 
Q 1250 4750 2034 4750 
z
" transform="scale(0.015625)"/>
        <path id="DejaVuSans-2e" d="M 684 794 
L 1344 794 
L 1344 0 
L 684 0 
L 684 794 
z
" transform="scale(0.015625)"/>
        <path id="DejaVuSans-35" d="M 691 4666 
L 3169 4666 
L 3169 4134 
L 1269 4134 
L 1269 2991 
Q 1406 3038 1543 3061 
Q 1681 3084 1819 3084 
Q 2600 3084 3056 2656 
Q 3513 2228 3513 1497 
Q 3513 744 3044 326 
Q 2575 -91 1722 -91 
Q 1428 -91 1123 -41 
Q 819 9 494 109 
L 494 744 
Q 775 591 1075 516 
Q 1375 441 1709 441 
Q 2250 441 2565 725 
Q 2881 1009 2881 1497 
Q 2881 1984 2565 2268 
Q 2250 2553 1709 2553 
Q 1456 2553 1204 2497 
Q 953 2441 691 2322 
L 691 4666 
z
" transform="scale(0.015625)"/>
       </defs>
       <use xlink:href="#DejaVuSans-2212"/>
       <use xlink:href="#DejaVuSans-30" x="83.789062"/>
       <use xlink:href="#DejaVuSans-2e" x="147.412109"/>
       <use xlink:href="#DejaVuSans-35" x="179.199219"/>
      </g>
     </g>
    </g>
    <g id="xtick_2">
     <g id="line2d_2">
      <g>
       <use xlink:href="#mf15748608f" x="133.2882" y="224.9208" style="stroke: #000000; stroke-width: 0.8"/>
      </g>
     </g>
     <g id="text_2">
      <!-- 0.0 -->
      <g transform="translate(125.336638 239.519237) scale(0.1 -0.1)">
       <use xlink:href="#DejaVuSans-30"/>
       <use xlink:href="#DejaVuSans-2e" x="63.623047"/>
       <use xlink:href="#DejaVuSans-30" x="95.410156"/>
      </g>
     </g>
    </g>
    <g id="xtick_3">
     <g id="line2d_3">
      <g>
       <use xlink:href="#mf15748608f" x="165.7206" y="224.9208" style="stroke: #000000; stroke-width: 0.8"/>
      </g>
     </g>
     <g id="text_3">
      <!-- 0.5 -->
      <g transform="translate(157.769037 239.519237) scale(0.1 -0.1)">
       <use xlink:href="#DejaVuSans-30"/>
       <use xlink:href="#DejaVuSans-2e" x="63.623047"/>
       <use xlink:href="#DejaVuSans-35" x="95.410156"/>
      </g>
     </g>
    </g>
    <g id="xtick_4">
     <g id="line2d_4">
      <g>
       <use xlink:href="#mf15748608f" x="198.153" y="224.9208" style="stroke: #000000; stroke-width: 0.8"/>
      </g>
     </g>
     <g id="text_4">
      <!-- 1.0 -->
      <g transform="translate(190.201437 239.519237) scale(0.1 -0.1)">
       <defs>
        <path id="DejaVuSans-31" d="M 794 531 
L 1825 531 
L 1825 4091 
L 703 3866 
L 703 4441 
L 1819 4666 
L 2450 4666 
L 2450 531 
L 3481 531 
L 3481 0 
L 794 0 
L 794 531 
z
" transform="scale(0.015625)"/>
       </defs>
       <use xlink:href="#DejaVuSans-31"/>
       <use xlink:href="#DejaVuSans-2e" x="63.623047"/>
       <use xlink:href="#DejaVuSans-30" x="95.410156"/>
      </g>
     </g>
    </g>
    <g id="xtick_5">
     <g id="line2d_5">
      <g>
       <use xlink:href="#mf15748608f" x="230.5854" y="224.9208" style="stroke: #000000; stroke-width: 0.8"/>
      </g>
     </g>
     <g id="text_5">
      <!-- 1.5 -->
      <g transform="translate(222.633837 239.519237) scale(0.1 -0.1)">
       <use xlink:href="#DejaVuSans-31"/>
       <use xlink:href="#DejaVuSans-2e" x="63.623047"/>
       <use xlink:href="#DejaVuSans-35" x="95.410156"/>
      </g>
     </g>
    </g>
    <g id="xtick_6">
     <g id="line2d_6">
      <g>
       <use xlink:href="#mf15748608f" x="263.0178" y="224.9208" style="stroke: #000000; stroke-width: 0.8"/>
      </g>
     </g>
     <g id="text_6">
      <!-- 2.0 -->
      <g transform="translate(255.066237 239.519237) scale(0.1 -0.1)">
       <defs>
        <path id="DejaVuSans-32" d="M 1228 531 
L 3431 531 
L 3431 0 
L 469 0 
L 469 531 
Q 828 903 1448 1529 
Q 2069 2156 2228 2338 
Q 2531 2678 2651 2914 
Q 2772 3150 2772 3378 
Q 2772 3750 2511 3984 
Q 2250 4219 1831 4219 
Q 1534 4219 1204 4116 
Q 875 4013 500 3803 
L 500 4441 
Q 881 4594 1212 4672 
Q 1544 4750 1819 4750 
Q 2544 4750 2975 4387 
Q 3406 4025 3406 3419 
Q 3406 3131 3298 2873 
Q 3191 2616 2906 2266 
Q 2828 2175 2409 1742 
Q 1991 1309 1228 531 
z
" transform="scale(0.015625)"/>
       </defs>
       <use xlink:href="#DejaVuSans-32"/>
       <use xlink:href="#DejaVuSans-2e" x="63.623047"/>
       <use xlink:href="#DejaVuSans-30" x="95.410156"/>
      </g>
     </g>
    </g>
    <g id="xtick_7">
     <g id="line2d_7">
      <g>
       <use xlink:href="#mf15748608f" x="295.4502" y="224.9208" style="stroke: #000000; stroke-width: 0.8"/>
      </g>
     </g>
     <g id="text_7">
      <!-- 2.5 -->
      <g transform="translate(287.498637 239.519237) scale(0.1 -0.1)">
       <use xlink:href="#DejaVuSans-32"/>
       <use xlink:href="#DejaVuSans-2e" x="63.623047"/>
       <use xlink:href="#DejaVuSans-35" x="95.410156"/>
      </g>
     </g>
    </g>
    <g id="text_8">
     <!-- x(m) -->
     <g transform="translate(186.42175 253.197362) scale(0.1 -0.1)">
      <defs>
       <path id="DejaVuSans-78" d="M 3513 3500 
L 2247 1797 
L 3578 0 
L 2900 0 
L 1881 1375 
L 863 0 
L 184 0 
L 1544 1831 
L 300 3500 
L 978 3500 
L 1906 2253 
L 2834 3500 
L 3513 3500 
z
" transform="scale(0.015625)"/>
       <path id="DejaVuSans-28" d="M 1984 4856 
Q 1566 4138 1362 3434 
Q 1159 2731 1159 2009 
Q 1159 1288 1364 580 
Q 1569 -128 1984 -844 
L 1484 -844 
Q 1016 -109 783 600 
Q 550 1309 550 2009 
Q 550 2706 781 3412 
Q 1013 4119 1484 4856 
L 1984 4856 
z
" transform="scale(0.015625)"/>
       <path id="DejaVuSans-6d" d="M 3328 2828 
Q 3544 3216 3844 3400 
Q 4144 3584 4550 3584 
Q 5097 3584 5394 3201 
Q 5691 2819 5691 2113 
L 5691 0 
L 5113 0 
L 5113 2094 
Q 5113 2597 4934 2840 
Q 4756 3084 4391 3084 
Q 3944 3084 3684 2787 
Q 3425 2491 3425 1978 
L 3425 0 
L 2847 0 
L 2847 2094 
Q 2847 2600 2669 2842 
Q 2491 3084 2119 3084 
Q 1678 3084 1418 2786 
Q 1159 2488 1159 1978 
L 1159 0 
L 581 0 
L 581 3500 
L 1159 3500 
L 1159 2956 
Q 1356 3278 1631 3431 
Q 1906 3584 2284 3584 
Q 2666 3584 2933 3390 
Q 3200 3197 3328 2828 
z
" transform="scale(0.015625)"/>
       <path id="DejaVuSans-29" d="M 513 4856 
L 1013 4856 
Q 1481 4119 1714 3412 
Q 1947 2706 1947 2009 
Q 1947 1309 1714 600 
Q 1481 -109 1013 -844 
L 513 -844 
Q 928 -128 1133 580 
Q 1338 1288 1338 2009 
Q 1338 2731 1133 3434 
Q 928 4138 513 4856 
z
" transform="scale(0.015625)"/>
      </defs>
      <use xlink:href="#DejaVuSans-78"/>
      <use xlink:href="#DejaVuSans-28" x="59.179688"/>
      <use xlink:href="#DejaVuSans-6d" x="98.193359"/>
      <use xlink:href="#DejaVuSans-29" x="195.605469"/>
     </g>
    </g>
   </g>
   <g id="matplotlib.axis_2">
    <g id="ytick_1">
     <g id="line2d_8">
      <defs>
       <path id="meb7a2d7a0d" d="M 0 0 
L -3.5 0 
" style="stroke: #000000; stroke-width: 0.8"/>
      </defs>
      <g>
       <use xlink:href="#meb7a2d7a0d" x="100.8558" y="224.9208" style="stroke: #000000; stroke-width: 0.8"/>
      </g>
     </g>
     <g id="text_9">
      <!-- −0.5 -->
      <g transform="translate(69.572988 228.720019) scale(0.1 -0.1)">
       <use xlink:href="#DejaVuSans-2212"/>
       <use xlink:href="#DejaVuSans-30" x="83.789062"/>
       <use xlink:href="#DejaVuSans-2e" x="147.412109"/>
       <use xlink:href="#DejaVuSans-35" x="179.199219"/>
      </g>
     </g>
    </g>
    <g id="ytick_2">
     <g id="line2d_9">
      <g>
       <use xlink:href="#meb7a2d7a0d" x="100.8558" y="192.4884" style="stroke: #000000; stroke-width: 0.8"/>
      </g>
     </g>
     <g id="text_10">
      <!-- 0.0 -->
      <g transform="translate(77.952675 196.287619) scale(0.1 -0.1)">
       <use xlink:href="#DejaVuSans-30"/>
       <use xlink:href="#DejaVuSans-2e" x="63.623047"/>
       <use xlink:href="#DejaVuSans-30" x="95.410156"/>
      </g>
     </g>
    </g>
    <g id="ytick_3">
     <g id="line2d_10">
      <g>
       <use xlink:href="#meb7a2d7a0d" x="100.8558" y="160.056" style="stroke: #000000; stroke-width: 0.8"/>
      </g>
     </g>
     <g id="text_11">
      <!-- 0.5 -->
      <g transform="translate(77.952675 163.855219) scale(0.1 -0.1)">
       <use xlink:href="#DejaVuSans-30"/>
       <use xlink:href="#DejaVuSans-2e" x="63.623047"/>
       <use xlink:href="#DejaVuSans-35" x="95.410156"/>
      </g>
     </g>
    </g>
    <g id="ytick_4">
     <g id="line2d_11">
      <g>
       <use xlink:href="#meb7a2d7a0d" x="100.8558" y="127.6236" style="stroke: #000000; stroke-width: 0.8"/>
      </g>
     </g>
     <g id="text_12">
      <!-- 1.0 -->
      <g transform="translate(77.952675 131.422819) scale(0.1 -0.1)">
       <use xlink:href="#DejaVuSans-31"/>
       <use xlink:href="#DejaVuSans-2e" x="63.623047"/>
       <use xlink:href="#DejaVuSans-30" x="95.410156"/>
      </g>
     </g>
    </g>
    <g id="ytick_5">
     <g id="line2d_12">
      <g>
       <use xlink:href="#meb7a2d7a0d" x="100.8558" y="95.1912" style="stroke: #000000; stroke-width: 0.8"/>
      </g>
     </g>
     <g id="text_13">
      <!-- 1.5 -->
      <g transform="translate(77.952675 98.990419) scale(0.1 -0.1)">
       <use xlink:href="#DejaVuSans-31"/>
       <use xlink:href="#DejaVuSans-2e" x="63.623047"/>
       <use xlink:href="#DejaVuSans-35" x="95.410156"/>
      </g>
     </g>
    </g>
    <g id="ytick_6">
     <g id="line2d_13">
      <g>
       <use xlink:href="#meb7a2d7a0d" x="100.8558" y="62.7588" style="stroke: #000000; stroke-width: 0.8"/>
      </g>
     </g>
     <g id="text_14">
      <!-- 2.0 -->
      <g transform="translate(77.952675 66.558019) scale(0.1 -0.1)">
       <use xlink:href="#DejaVuSans-32"/>
       <use xlink:href="#DejaVuSans-2e" x="63.623047"/>
       <use xlink:href="#DejaVuSans-30" x="95.410156"/>
      </g>
     </g>
    </g>
    <g id="ytick_7">
     <g id="line2d_14">
      <g>
       <use xlink:href="#meb7a2d7a0d" x="100.8558" y="30.3264" style="stroke: #000000; stroke-width: 0.8"/>
      </g>
     </g>
     <g id="text_15">
      <!-- 2.5 -->
      <g transform="translate(77.952675 34.125619) scale(0.1 -0.1)">
       <use xlink:href="#DejaVuSans-32"/>
       <use xlink:href="#DejaVuSans-2e" x="63.623047"/>
       <use xlink:href="#DejaVuSans-35" x="95.410156"/>
      </g>
     </g>
    </g>
    <g id="text_16">
     <!-- y(m) -->
     <g transform="translate(63.4933 139.35485) rotate(-90) scale(0.1 -0.1)">
      <defs>
       <path id="DejaVuSans-79" d="M 2059 -325 
Q 1816 -950 1584 -1140 
Q 1353 -1331 966 -1331 
L 506 -1331 
L 506 -850 
L 844 -850 
Q 1081 -850 1212 -737 
Q 1344 -625 1503 -206 
L 1606 56 
L 191 3500 
L 800 3500 
L 1894 763 
L 2988 3500 
L 3597 3500 
L 2059 -325 
z
" transform="scale(0.015625)"/>
      </defs>
      <use xlink:href="#DejaVuSans-79"/>
      <use xlink:href="#DejaVuSans-28" x="59.179688"/>
      <use xlink:href="#DejaVuSans-6d" x="98.193359"/>
      <use xlink:href="#DejaVuSans-29" x="195.605469"/>
     </g>
    </g>
   </g>
   <g id="line2d_15">
    <path d="M 133.768676 127.621531 
L 138.293633 127.606058 
L 144.007193 127.615043 
L 146.272617 127.617883 
L 147.573644 127.619604 
L 148.401231 127.620944 
L 148.975812 127.621677 
L 149.398511 127.622283 
L 149.721726 127.622727 
L 149.97726 127.623076 
L 150.184233 127.623363 
L 150.355238 127.623598 
L 150.355238 127.623598 
" clip-path="url(#pa2596292b3)" style="fill: none; stroke-dasharray: 2,3.3; stroke-dashoffset: 0; stroke: #1f77b4; stroke-width: 2"/>
   </g>
   <g id="line2d_16">
    <path d="M 133.2882 127.6236 
L 133.2882 127.6236 
L 133.768676 127.621531 
" clip-path="url(#pa2596292b3)" style="fill: none; stroke: #1f77b4; stroke-width: 2; stroke-linecap: square"/>
   </g>
   <g id="line2d_17">
    <path d="M 198.164648 204.981025 
L 198.252367 200.421124 
L 198.206474 194.39686 
L 198.187537 191.947456 
L 198.176324 190.589325 
L 198.16938 189.725862 
L 198.164553 189.126329 
L 198.161031 188.685967 
L 198.158323 188.349293 
L 198.156191 188.083267 
L 198.154464 187.867802 
L 198.153035 187.689803 
L 198.153035 187.689803 
" clip-path="url(#pa2596292b3)" style="fill: none; stroke-dasharray: 2,3.3; stroke-dashoffset: 0; stroke: #ff7f0e; stroke-width: 2"/>
   </g>
   <g id="line2d_18">
    <path d="M 198.153 205.46136 
L 198.153 205.46136 
L 198.164648 204.981025 
" clip-path="url(#pa2596292b3)" style="fill: none; stroke: #ff7f0e; stroke-width: 2; stroke-linecap: square"/>
   </g>
   <g id="line2d_19">
    <path d="M 133.2882 95.1912 
L 133.288202 95.191201 
L 133.288205 95.191203 
L 133.288209 95.191204 
L 133.288214 95.191206 
L 133.288218 95.191208 
L 133.288222 95.19121 
L 133.288226 95.191212 
L 133.288229 95.191214 
L 133.288232 95.191215 
L 133.288235 95.191216 
L 133.288238 95.191216 
L 133.288238 95.191216 
" clip-path="url(#pa2596292b3)" style="fill: none; stroke-dasharray: 2,3.3; stroke-dashoffset: 0; stroke: #2ca02c; stroke-width: 2"/>
   </g>
   <g id="line2d_20">
    <path d="M 133.2882 95.1912 
L 133.2882 95.1912 
L 133.2882 95.1912 
" clip-path="url(#pa2596292b3)" style="fill: none; stroke: #2ca02c; stroke-width: 2; stroke-linecap: square"/>
   </g>
   <g id="line2d_21">
    <path d="M 165.720601 95.191194 
L 165.720607 95.19114 
L 165.720619 95.191059 
L 165.720633 95.190987 
L 165.720646 95.19096 
L 165.720658 95.190985 
L 165.720666 95.191022 
L 165.720669 95.191044 
L 165.72067 95.191055 
L 165.720668 95.191063 
L 165.720666 95.191059 
L 165.720667 95.19105 
L 165.720667 95.19105 
" clip-path="url(#pa2596292b3)" style="fill: none; stroke-dasharray: 2,3.3; stroke-dashoffset: 0; stroke: #d62728; stroke-width: 2"/>
   </g>
   <g id="line2d_22">
    <path d="M 165.7206 95.1912 
L 165.7206 95.1912 
L 165.720601 95.191194 
" clip-path="url(#pa2596292b3)" style="fill: none; stroke: #d62728; stroke-width: 2; stroke-linecap: square"/>
   </g>
   <g id="line2d_23">
    <path d="M 230.5854 95.191198 
L 230.585399 95.19118 
L 230.585396 95.19115 
L 230.585393 95.191114 
L 230.585391 95.191079 
L 230.585389 95.191049 
L 230.585387 95.191024 
L 230.585386 95.191004 
L 230.585386 95.190998 
L 230.585386 95.191017 
L 230.585385 95.191058 
L 230.585384 95.191095 
L 230.585384 95.191095 
" clip-path="url(#pa2596292b3)" style="fill: none; stroke-dasharray: 2,3.3; stroke-dashoffset: 0; stroke: #9467bd; stroke-width: 2"/>
   </g>
   <g id="line2d_24">
    <path d="M 230.5854 95.1912 
L 230.5854 95.1912 
L 230.5854 95.191198 
" clip-path="url(#pa2596292b3)" style="fill: none; stroke: #9467bd; stroke-width: 2; stroke-linecap: square"/>
   </g>
   <g id="line2d_25">
    <path d="M 263.017801 95.1912 
L 263.017808 95.191203 
L 263.017822 95.191209 
L 263.01784 95.191215 
L 263.01786 95.191222 
L 263.01788 95.191229 
L 263.017899 95.191236 
L 263.017916 95.191242 
L 263.017931 95.191248 
L 263.017938 95.191252 
L 263.017938 95.191255 
L 263.017934 95.191256 
L 263.017934 95.191256 
" clip-path="url(#pa2596292b3)" style="fill: none; stroke-dasharray: 2,3.3; stroke-dashoffset: 0; stroke: #8c564b; stroke-width: 2"/>
   </g>
   <g id="line2d_26">
    <path d="M 263.0178 95.1912 
L 263.0178 95.1912 
L 263.017801 95.1912 
" clip-path="url(#pa2596292b3)" style="fill: none; stroke: #8c564b; stroke-width: 2; stroke-linecap: square"/>
   </g>
   <g id="line2d_27">
    <path d="M 133.2882 160.056 
L 133.288203 160.056 
L 133.288207 160.056 
L 133.288212 160.056 
L 133.288218 160.055999 
L 133.288224 160.055999 
L 133.288229 160.055999 
L 133.288234 160.055999 
L 133.288238 160.055999 
L 133.288241 160.055999 
L 133.288244 160.055999 
L 133.288246 160.055999 
L 133.288246 160.055999 
" clip-path="url(#pa2596292b3)" style="fill: none; stroke-dasharray: 2,3.3; stroke-dashoffset: 0; stroke: #e377c2; stroke-width: 2"/>
   </g>
   <g id="line2d_28">
    <path d="M 133.2882 160.056 
L 133.2882 160.056 
L 133.2882 160.056 
" clip-path="url(#pa2596292b3)" style="fill: none; stroke: #e377c2; stroke-width: 2; stroke-linecap: square"/>
   </g>
   <g id="line2d_29">
    <path d="M 165.7206 160.055997 
L 165.720601 160.055972 
L 165.720604 160.055925 
L 165.720606 160.055873 
L 165.720608 160.055824 
L 165.72061 160.055785 
L 165.720612 160.055759 
L 165.720612 160.055748 
L 165.720612 160.055749 
L 165.720611 160.05576 
L 165.720608 160.055769 
L 165.720606 160.05577 
L 165.720606 160.05577 
" clip-path="url(#pa2596292b3)" style="fill: none; stroke-dasharray: 2,3.3; stroke-dashoffset: 0; stroke: #7f7f7f; stroke-width: 2"/>
   </g>
   <g id="line2d_30">
    <path d="M 165.7206 160.056 
L 165.7206 160.056 
L 165.7206 160.055997 
" clip-path="url(#pa2596292b3)" style="fill: none; stroke: #7f7f7f; stroke-width: 2; stroke-linecap: square"/>
   </g>
   <g id="line2d_31">
    <path d="M 230.5854 160.056002 
L 230.585402 160.056027 
L 230.585406 160.056068 
L 230.585409 160.056115 
L 230.585413 160.05616 
L 230.585416 160.056197 
L 230.585417 160.056223 
L 230.585416 160.056234 
L 230.585414 160.056231 
L 230.585412 160.056213 
L 230.58541 160.056186 
L 230.585409 160.056165 
L 230.585409 160.056165 
" clip-path="url(#pa2596292b3)" style="fill: none; stroke-dasharray: 2,3.3; stroke-dashoffset: 0; stroke: #bcbd22; stroke-width: 2"/>
   </g>
   <g id="line2d_32">
    <path d="M 230.5854 160.056 
L 230.5854 160.056 
L 230.5854 160.056002 
" clip-path="url(#pa2596292b3)" style="fill: none; stroke: #bcbd22; stroke-width: 2; stroke-linecap: square"/>
   </g>
   <g id="line2d_33">
    <path d="M 263.0178 160.056 
L 263.0178 160.056 
L 263.017801 160.055999 
L 263.017802 160.055999 
L 263.017802 160.055998 
L 263.017804 160.055998 
L 263.017805 160.055997 
L 263.017806 160.055997 
L 263.017807 160.055996 
L 263.017807 160.055996 
L 263.017804 160.055996 
L 263.017801 160.055996 
L 263.017801 160.055996 
" clip-path="url(#pa2596292b3)" style="fill: none; stroke-dasharray: 2,3.3; stroke-dashoffset: 0; stroke: #17becf; stroke-width: 2"/>
   </g>
   <g id="line2d_34">
    <path d="M 263.0178 160.056 
L 263.0178 160.056 
L 263.0178 160.056 
" clip-path="url(#pa2596292b3)" style="fill: none; stroke: #17becf; stroke-width: 2; stroke-linecap: square"/>
   </g>
   <g id="line2d_35">
    <path d="M 230.5854 62.758798 
L 230.585399 62.758782 
L 230.585398 62.758764 
L 230.585399 62.758746 
L 230.5854 62.758733 
L 230.585401 62.758725 
L 230.585403 62.758723 
L 230.585404 62.758726 
L 230.585406 62.758733 
L 230.585407 62.758742 
L 230.585408 62.758751 
L 230.585408 62.758757 
L 230.585408 62.758757 
" clip-path="url(#pa2596292b3)" style="fill: none; stroke-dasharray: 2,3.3; stroke-dashoffset: 0; stroke: #2f4f4f; stroke-width: 2"/>
   </g>
   <g id="line2d_36">
    <path d="M 230.5854 62.7588 
L 230.5854 62.7588 
L 230.5854 62.758798 
" clip-path="url(#pa2596292b3)" style="fill: none; stroke: #2f4f4f; stroke-width: 2; stroke-linecap: square"/>
   </g>
   <g id="line2d_37">
    <path d="M 230.585397 30.326406 
L 230.585366 30.326462 
L 230.585325 30.326513 
L 230.585284 30.326547 
L 230.585248 30.326562 
L 230.585219 30.326555 
L 230.585198 30.326529 
L 230.585186 30.32649 
L 230.585181 30.326443 
L 230.585185 30.326396 
L 230.585194 30.326358 
L 230.585201 30.326335 
L 230.585201 30.326335 
" clip-path="url(#pa2596292b3)" style="fill: none; stroke-dasharray: 2,3.3; stroke-dashoffset: 0; stroke: #cd5c5c; stroke-width: 2"/>
   </g>
   <g id="line2d_38">
    <path d="M 230.5854 30.3264 
L 230.5854 30.3264 
L 230.585397 30.326406 
" clip-path="url(#pa2596292b3)" style="fill: none; stroke: #cd5c5c; stroke-width: 2; stroke-linecap: square"/>
   </g>
   <g id="line2d_39">
    <path clip-path="url(#pa2596292b3)" style="fill: none; stroke-dasharray: 2,3.3; stroke-dashoffset: 0; stroke: #add8e6; stroke-width: 2"/>
   </g>
   <g id="line2d_40">
    <path clip-path="url(#pa2596292b3)" style="fill: none; stroke: #add8e6; stroke-width: 2; stroke-linecap: square"/>
   </g>
   <g id="line2d_41">
    <path d="M 230.5854 192.488401 
L 230.585403 192.488408 
L 230.585408 192.488421 
L 230.585413 192.488436 
L 230.585419 192.488449 
L 230.585423 192.488459 
L 230.585427 192.488465 
L 230.58543 192.488468 
L 230.585431 192.488469 
L 230.585431 192.488469 
L 230.58543 192.488476 
L 230.58543 192.488482 
L 230.58543 192.488482 
" clip-path="url(#pa2596292b3)" style="fill: none; stroke-dasharray: 2,3.3; stroke-dashoffset: 0; stroke: #663399; stroke-width: 2"/>
   </g>
   <g id="line2d_42">
    <path d="M 230.5854 192.4884 
L 230.5854 192.4884 
L 230.5854 192.488401 
" clip-path="url(#pa2596292b3)" style="fill: none; stroke: #663399; stroke-width: 2; stroke-linecap: square"/>
   </g>
   <g id="line2d_43">
    <path d="M 230.585398 224.920803 
L 230.585382 224.920826 
L 230.585344 224.920854 
L 230.585294 224.920878 
L 230.58524 224.920897 
L 230.585184 224.920909 
L 230.585131 224.920914 
L 230.585083 224.920913 
L 230.585045 224.920907 
L 230.585022 224.920898 
L 230.585014 224.920889 
L 230.585013 224.920884 
L 230.585013 224.920884 
" clip-path="url(#pa2596292b3)" style="fill: none; stroke-dasharray: 2,3.3; stroke-dashoffset: 0; stroke: #8fbc8f; stroke-width: 2"/>
   </g>
   <g id="line2d_44">
    <path d="M 230.5854 224.9208 
L 230.5854 224.9208 
L 230.585398 224.920803 
" clip-path="url(#pa2596292b3)" style="fill: none; stroke: #8fbc8f; stroke-width: 2; stroke-linecap: square"/>
   </g>
   <g id="line2d_45">
    <path clip-path="url(#pa2596292b3)" style="fill: none; stroke-dasharray: 2,3.3; stroke-dashoffset: 0; stroke: #00ced1; stroke-width: 2"/>
   </g>
   <g id="line2d_46">
    <path clip-path="url(#pa2596292b3)" style="fill: none; stroke: #00ced1; stroke-width: 2; stroke-linecap: square"/>
   </g>
   <g id="line2d_47">
    <path d="M 165.7206 62.758797 
L 165.720599 62.758766 
L 165.720598 62.758733 
L 165.720598 62.758705 
L 165.720598 62.758687 
L 165.720599 62.758679 
L 165.7206 62.758683 
L 165.720601 62.758695 
L 165.720603 62.758715 
L 165.720604 62.758736 
L 165.720605 62.758756 
L 165.720605 62.758767 
L 165.720605 62.758767 
" clip-path="url(#pa2596292b3)" style="fill: none; stroke-dasharray: 2,3.3; stroke-dashoffset: 0; stroke: #6a5acd; stroke-width: 2"/>
   </g>
   <g id="line2d_48">
    <path d="M 165.7206 62.7588 
L 165.7206 62.7588 
L 165.7206 62.758797 
" clip-path="url(#pa2596292b3)" style="fill: none; stroke: #6a5acd; stroke-width: 2; stroke-linecap: square"/>
   </g>
   <g id="line2d_49">
    <path d="M 165.7206 30.326398 
L 165.720603 30.326372 
L 165.720606 30.326313 
L 165.720606 30.326225 
L 165.720604 30.326124 
L 165.720605 30.326035 
L 165.720614 30.325986 
L 165.720636 30.325996 
L 165.720668 30.326062 
L 165.720704 30.326164 
L 165.720731 30.32626 
L 165.720744 30.326315 
L 165.720744 30.326315 
" clip-path="url(#pa2596292b3)" style="fill: none; stroke-dasharray: 2,3.3; stroke-dashoffset: 0; stroke: #808000; stroke-width: 2"/>
   </g>
   <g id="line2d_50">
    <path d="M 165.7206 30.3264 
L 165.7206 30.3264 
L 165.7206 30.326398 
" clip-path="url(#pa2596292b3)" style="fill: none; stroke: #808000; stroke-width: 2; stroke-linecap: square"/>
   </g>
   <g id="line2d_51">
    <path clip-path="url(#pa2596292b3)" style="fill: none; stroke-dasharray: 2,3.3; stroke-dashoffset: 0; stroke: #a0522d; stroke-width: 2"/>
   </g>
   <g id="line2d_52">
    <path clip-path="url(#pa2596292b3)" style="fill: none; stroke: #a0522d; stroke-width: 2; stroke-linecap: square"/>
   </g>
   <g id="line2d_53">
    <path d="M 165.720601 192.488405 
L 165.720612 192.488457 
L 165.720631 192.488543 
L 165.720654 192.488649 
L 165.720678 192.488759 
L 165.720698 192.48885 
L 165.720709 192.488896 
L 165.720708 192.488873 
L 165.720693 192.488781 
L 165.720669 192.48865 
L 165.720647 192.488533 
L 165.720635 192.488473 
L 165.720635 192.488473 
" clip-path="url(#pa2596292b3)" style="fill: none; stroke-dasharray: 2,3.3; stroke-dashoffset: 0; stroke: #ff4500; stroke-width: 2"/>
   </g>
   <g id="line2d_54">
    <path d="M 165.7206 192.4884 
L 165.7206 192.4884 
L 165.720601 192.488405 
" clip-path="url(#pa2596292b3)" style="fill: none; stroke: #ff4500; stroke-width: 2; stroke-linecap: square"/>
   </g>
   <g id="line2d_55">
    <path d="M 165.720602 224.920799 
L 165.720624 224.920788 
L 165.720667 224.920759 
L 165.720722 224.920709 
L 165.720782 224.920644 
L 165.720841 224.920582 
L 165.72089 224.920544 
L 165.720924 224.920544 
L 165.720941 224.920581 
L 165.720942 224.920642 
L 165.720932 224.920699 
L 165.720925 224.920728 
L 165.720925 224.920728 
" clip-path="url(#pa2596292b3)" style="fill: none; stroke-dasharray: 2,3.3; stroke-dashoffset: 0; stroke: #708090; stroke-width: 2"/>
   </g>
   <g id="line2d_56">
    <path d="M 165.7206 224.9208 
L 165.7206 224.9208 
L 165.720602 224.920799 
" clip-path="url(#pa2596292b3)" style="fill: none; stroke: #708090; stroke-width: 2; stroke-linecap: square"/>
   </g>
   <g id="line2d_57">
    <path clip-path="url(#pa2596292b3)" style="fill: none; stroke-dasharray: 2,3.3; stroke-dashoffset: 0; stroke: #bdb76b; stroke-width: 2"/>
   </g>
   <g id="line2d_58">
    <path clip-path="url(#pa2596292b3)" style="fill: none; stroke: #bdb76b; stroke-width: 2; stroke-linecap: square"/>
   </g>
   <g id="patch_3">
    <path d="M 100.8558 224.9208 
L 100.8558 30.3264 
" style="fill: none; stroke: #000000; stroke-width: 0.8; stroke-linejoin: miter; stroke-linecap: square"/>
   </g>
   <g id="patch_4">
    <path d="M 295.4502 224.9208 
L 295.4502 30.3264 
" style="fill: none; stroke: #000000; stroke-width: 0.8; stroke-linejoin: miter; stroke-linecap: square"/>
   </g>
   <g id="patch_5">
    <path d="M 100.8558 224.9208 
L 295.4502 224.9208 
" style="fill: none; stroke: #000000; stroke-width: 0.8; stroke-linejoin: miter; stroke-linecap: square"/>
   </g>
   <g id="patch_6">
    <path d="M 100.8558 30.3264 
L 295.4502 30.3264 
" style="fill: none; stroke: #000000; stroke-width: 0.8; stroke-linejoin: miter; stroke-linecap: square"/>
   </g>
   <g id="patch_7">
    <path d="M 133.768676 137.351251 
C 136.349027 137.351251 138.824042 136.326066 140.648627 134.501482 
C 142.473211 132.676897 143.498396 130.201883 143.498396 127.621531 
C 143.498396 125.041179 142.473211 122.566164 140.648627 120.74158 
C 138.824042 118.916995 136.349027 117.891811 133.768676 117.891811 
C 131.188324 117.891811 128.713309 118.916995 126.888725 120.74158 
C 125.06414 122.566164 124.038956 125.041179 124.038956 127.621531 
C 124.038956 130.201883 125.06414 132.676897 126.888725 134.501482 
C 128.713309 136.326066 131.188324 137.351251 133.768676 137.351251 
z
" clip-path="url(#pa2596292b3)" style="fill: #1f77b4; stroke: #000000; stroke-linejoin: miter"/>
   </g>
   <g id="patch_8">
    <path d="M 198.164648 214.710745 
C 200.744999 214.710745 203.220014 213.68556 205.044599 211.860976 
C 206.869183 210.036392 207.894368 207.561377 207.894368 204.981025 
C 207.894368 202.400673 206.869183 199.925658 205.044599 198.101074 
C 203.220014 196.27649 200.744999 195.251305 198.164648 195.251305 
C 195.584296 195.251305 193.109281 196.27649 191.284697 198.101074 
C 189.460112 199.925658 188.434928 202.400673 188.434928 204.981025 
C 188.434928 207.561377 189.460112 210.036392 191.284697 211.860976 
C 193.109281 213.68556 195.584296 214.710745 198.164648 214.710745 
z
" clip-path="url(#pa2596292b3)" style="fill: #ff7f0e; stroke: #000000; stroke-linejoin: miter"/>
   </g>
   <g id="patch_9">
    <path d="M 133.2882 104.92092 
C 135.868552 104.92092 138.343567 103.895735 140.168151 102.071151 
C 141.992736 100.246567 143.01792 97.771552 143.01792 95.1912 
C 143.01792 92.610848 141.992736 90.135833 140.168151 88.311249 
C 138.343567 86.486665 135.868552 85.46148 133.2882 85.46148 
C 130.707848 85.46148 128.232834 86.486665 126.408249 88.311249 
C 124.583665 90.135833 123.55848 92.610848 123.55848 95.1912 
C 123.55848 97.771552 124.583665 100.246567 126.408249 102.071151 
C 128.232834 103.895735 130.707848 104.92092 133.2882 104.92092 
z
" clip-path="url(#pa2596292b3)" style="fill: #2ca02c; stroke: #000000; stroke-linejoin: miter"/>
   </g>
   <g id="patch_10">
    <path d="M 165.720601 104.920914 
C 168.300953 104.920914 170.775967 103.89573 172.600552 102.071145 
C 174.425136 100.246561 175.450321 97.771546 175.450321 95.191194 
C 175.450321 92.610842 174.425136 90.135828 172.600552 88.311243 
C 170.775967 86.486659 168.300953 85.461474 165.720601 85.461474 
C 163.140249 85.461474 160.665234 86.486659 158.84065 88.311243 
C 157.016065 90.135828 155.990881 92.610842 155.990881 95.191194 
C 155.990881 97.771546 157.016065 100.246561 158.84065 102.071145 
C 160.665234 103.89573 163.140249 104.920914 165.720601 104.920914 
z
" clip-path="url(#pa2596292b3)" style="fill: #d62728; stroke: #000000; stroke-linejoin: miter"/>
   </g>
   <g id="patch_11">
    <path d="M 230.5854 104.920918 
C 233.165752 104.920918 235.640767 103.895734 237.465351 102.071149 
C 239.289935 100.246565 240.31512 97.77155 240.31512 95.191198 
C 240.31512 92.610846 239.289935 90.135832 237.465351 88.311247 
C 235.640767 86.486663 233.165752 85.461478 230.5854 85.461478 
C 228.005048 85.461478 225.530033 86.486663 223.705449 88.311247 
C 221.880865 90.135832 220.85568 92.610846 220.85568 95.191198 
C 220.85568 97.77155 221.880865 100.246565 223.705449 102.071149 
C 225.530033 103.895734 228.005048 104.920918 230.5854 104.920918 
z
" clip-path="url(#pa2596292b3)" style="fill: #9467bd; stroke: #000000; stroke-linejoin: miter"/>
   </g>
   <g id="patch_12">
    <path d="M 263.017801 104.92092 
C 265.598153 104.92092 268.073167 103.895736 269.897752 102.071151 
C 271.722336 100.246567 272.747521 97.771552 272.747521 95.1912 
C 272.747521 92.610848 271.722336 90.135834 269.897752 88.311249 
C 268.073167 86.486665 265.598153 85.46148 263.017801 85.46148 
C 260.437449 85.46148 257.962434 86.486665 256.13785 88.311249 
C 254.313265 90.135834 253.288081 92.610848 253.288081 95.1912 
C 253.288081 97.771552 254.313265 100.246567 256.13785 102.071151 
C 257.962434 103.895736 260.437449 104.92092 263.017801 104.92092 
z
" clip-path="url(#pa2596292b3)" style="fill: #8c564b; stroke: #000000; stroke-linejoin: miter"/>
   </g>
   <g id="patch_13">
    <path d="M 133.2882 169.78572 
C 135.868552 169.78572 138.343567 168.760535 140.168151 166.935951 
C 141.992736 165.111367 143.01792 162.636352 143.01792 160.056 
C 143.01792 157.475648 141.992736 155.000633 140.168151 153.176049 
C 138.343567 151.351465 135.868552 150.32628 133.2882 150.32628 
C 130.707848 150.32628 128.232834 151.351465 126.408249 153.176049 
C 124.583665 155.000633 123.55848 157.475648 123.55848 160.056 
C 123.55848 162.636352 124.583665 165.111367 126.408249 166.935951 
C 128.232834 168.760535 130.707848 169.78572 133.2882 169.78572 
z
" clip-path="url(#pa2596292b3)" style="fill: #e377c2; stroke: #000000; stroke-linejoin: miter"/>
   </g>
   <g id="patch_14">
    <path d="M 165.7206 169.785717 
C 168.300952 169.785717 170.775967 168.760533 172.600551 166.935948 
C 174.425135 165.111364 175.45032 162.636349 175.45032 160.055997 
C 175.45032 157.475646 174.425135 155.000631 172.600551 153.176046 
C 170.775967 151.351462 168.300952 150.326277 165.7206 150.326277 
C 163.140248 150.326277 160.665233 151.351462 158.840649 153.176046 
C 157.016065 155.000631 155.99088 157.475646 155.99088 160.055997 
C 155.99088 162.636349 157.016065 165.111364 158.840649 166.935948 
C 160.665233 168.760533 163.140248 169.785717 165.7206 169.785717 
z
" clip-path="url(#pa2596292b3)" style="fill: #7f7f7f; stroke: #000000; stroke-linejoin: miter"/>
   </g>
   <g id="patch_15">
    <path d="M 230.5854 169.785722 
C 233.165752 169.785722 235.640767 168.760538 237.465351 166.935953 
C 239.289936 165.111369 240.31512 162.636354 240.31512 160.056002 
C 240.31512 157.475651 239.289936 155.000636 237.465351 153.176051 
C 235.640767 151.351467 233.165752 150.326282 230.5854 150.326282 
C 228.005048 150.326282 225.530034 151.351467 223.705449 153.176051 
C 221.880865 155.000636 220.85568 157.475651 220.85568 160.056002 
C 220.85568 162.636354 221.880865 165.111369 223.705449 166.935953 
C 225.530034 168.760538 228.005048 169.785722 230.5854 169.785722 
z
" clip-path="url(#pa2596292b3)" style="fill: #bcbd22; stroke: #000000; stroke-linejoin: miter"/>
   </g>
   <g id="patch_16">
    <path d="M 263.0178 169.78572 
C 265.598152 169.78572 268.073167 168.760535 269.897751 166.935951 
C 271.722335 165.111367 272.74752 162.636352 272.74752 160.056 
C 272.74752 157.475648 271.722335 155.000633 269.897751 153.176049 
C 268.073167 151.351465 265.598152 150.32628 263.0178 150.32628 
C 260.437448 150.32628 257.962433 151.351465 256.137849 153.176049 
C 254.313265 155.000633 253.28808 157.475648 253.28808 160.056 
C 253.28808 162.636352 254.313265 165.111367 256.137849 166.935951 
C 257.962433 168.760535 260.437448 169.78572 263.0178 169.78572 
z
" clip-path="url(#pa2596292b3)" style="fill: #17becf; stroke: #000000; stroke-linejoin: miter"/>
   </g>
   <g id="patch_17">
    <path d="M 230.5854 72.488518 
C 233.165752 72.488518 235.640767 71.463334 237.465351 69.638749 
C 239.289935 67.814165 240.31512 65.33915 240.31512 62.758798 
C 240.31512 60.178446 239.289935 57.703432 237.465351 55.878847 
C 235.640767 54.054263 233.165752 53.029078 230.5854 53.029078 
C 228.005048 53.029078 225.530033 54.054263 223.705449 55.878847 
C 221.880865 57.703432 220.85568 60.178446 220.85568 62.758798 
C 220.85568 65.33915 221.880865 67.814165 223.705449 69.638749 
C 225.530033 71.463334 228.005048 72.488518 230.5854 72.488518 
z
" clip-path="url(#pa2596292b3)" style="fill: #2f4f4f; stroke: #000000; stroke-linejoin: miter"/>
   </g>
   <g id="patch_18">
    <path d="M 230.585397 40.056126 
C 233.165749 40.056126 235.640763 39.030942 237.465348 37.206357 
C 239.289932 35.381773 240.315117 32.906758 240.315117 30.326406 
C 240.315117 27.746054 239.289932 25.27104 237.465348 23.446455 
C 235.640763 21.621871 233.165749 20.596686 230.585397 20.596686 
C 228.005045 20.596686 225.53003 21.621871 223.705446 23.446455 
C 221.880861 25.27104 220.855677 27.746054 220.855677 30.326406 
C 220.855677 32.906758 221.880861 35.381773 223.705446 37.206357 
C 225.53003 39.030942 228.005045 40.056126 230.585397 40.056126 
z
" clip-path="url(#pa2596292b3)" style="fill: #cd5c5c; stroke: #000000; stroke-linejoin: miter"/>
   </g>
   <g id="patch_19">
    <path d="M 230.5854 7.62372 
C 233.165752 7.62372 235.640767 6.598535 237.465351 4.773951 
C 239.289936 2.949367 240.31512 0.474352 240.31512 -2.106 
C 240.31512 -4.686352 239.289936 -7.161367 237.465351 -8.985951 
C 235.640767 -10.810535 233.165752 -11.83572 230.5854 -11.83572 
C 228.005048 -11.83572 225.530034 -10.810535 223.705449 -8.985951 
C 221.880865 -7.161367 220.85568 -4.686352 220.85568 -2.106 
C 220.85568 0.474352 221.880865 2.949367 223.705449 4.773951 
C 225.530034 6.598535 228.005048 7.62372 230.5854 7.62372 
z
" clip-path="url(#pa2596292b3)" style="fill: #add8e6; stroke: #000000; stroke-linejoin: miter"/>
   </g>
   <g id="patch_20">
    <path d="M 230.5854 202.218121 
C 233.165752 202.218121 235.640767 201.192936 237.465351 199.368352 
C 239.289936 197.543767 240.31512 195.068753 240.31512 192.488401 
C 240.31512 189.908049 239.289936 187.433034 237.465351 185.60845 
C 235.640767 183.783865 233.165752 182.758681 230.5854 182.758681 
C 228.005048 182.758681 225.530034 183.783865 223.705449 185.60845 
C 221.880865 187.433034 220.85568 189.908049 220.85568 192.488401 
C 220.85568 195.068753 221.880865 197.543767 223.705449 199.368352 
C 225.530034 201.192936 228.005048 202.218121 230.5854 202.218121 
z
" clip-path="url(#pa2596292b3)" style="fill: #663399; stroke: #000000; stroke-linejoin: miter"/>
   </g>
   <g id="patch_21">
    <path d="M 230.585398 234.650523 
C 233.16575 234.650523 235.640765 233.625338 237.465349 231.800754 
C 239.289934 229.976169 240.315118 227.501155 240.315118 224.920803 
C 240.315118 222.340451 239.289934 219.865436 237.465349 218.040852 
C 235.640765 216.216267 233.16575 215.191083 230.585398 215.191083 
C 228.005047 215.191083 225.530032 216.216267 223.705447 218.040852 
C 221.880863 219.865436 220.855678 222.340451 220.855678 224.920803 
C 220.855678 227.501155 221.880863 229.976169 223.705447 231.800754 
C 225.530032 233.625338 228.005047 234.650523 230.585398 234.650523 
z
" clip-path="url(#pa2596292b3)" style="fill: #8fbc8f; stroke: #000000; stroke-linejoin: miter"/>
   </g>
   <g id="patch_22">
    <path d="M 230.5854 267.082919 
C 233.165752 267.082919 235.640766 266.057735 237.465351 264.23315 
C 239.289935 262.408566 240.31512 259.933551 240.31512 257.353199 
C 240.31512 254.772847 239.289935 252.297833 237.465351 250.473248 
C 235.640766 248.648664 233.165752 247.623479 230.5854 247.623479 
C 228.005048 247.623479 225.530033 248.648664 223.705449 250.473248 
C 221.880864 252.297833 220.85568 254.772847 220.85568 257.353199 
C 220.85568 259.933551 221.880864 262.408566 223.705449 264.23315 
C 225.530033 266.057735 228.005048 267.082919 230.5854 267.082919 
z
" clip-path="url(#pa2596292b3)" style="fill: #00ced1; stroke: #000000; stroke-linejoin: miter"/>
   </g>
   <g id="patch_23">
    <path d="M 165.7206 72.488517 
C 168.300952 72.488517 170.775967 71.463332 172.600551 69.638748 
C 174.425135 67.814163 175.45032 65.339149 175.45032 62.758797 
C 175.45032 60.178445 174.425135 57.70343 172.600551 55.878846 
C 170.775967 54.054261 168.300952 53.029077 165.7206 53.029077 
C 163.140248 53.029077 160.665233 54.054261 158.840649 55.878846 
C 157.016065 57.70343 155.99088 60.178445 155.99088 62.758797 
C 155.99088 65.339149 157.016065 67.814163 158.840649 69.638748 
C 160.665233 71.463332 163.140248 72.488517 165.7206 72.488517 
z
" clip-path="url(#pa2596292b3)" style="fill: #6a5acd; stroke: #000000; stroke-linejoin: miter"/>
   </g>
   <g id="patch_24">
    <path d="M 165.7206 40.056118 
C 168.300952 40.056118 170.775967 39.030933 172.600551 37.206349 
C 174.425136 35.381764 175.45032 32.906749 175.45032 30.326398 
C 175.45032 27.746046 174.425136 25.271031 172.600551 23.446447 
C 170.775967 21.621862 168.300952 20.596678 165.7206 20.596678 
C 163.140248 20.596678 160.665234 21.621862 158.840649 23.446447 
C 157.016065 25.271031 155.99088 27.746046 155.99088 30.326398 
C 155.99088 32.906749 157.016065 35.381764 158.840649 37.206349 
C 160.665234 39.030933 163.140248 40.056118 165.7206 40.056118 
z
" clip-path="url(#pa2596292b3)" style="fill: #808000; stroke: #000000; stroke-linejoin: miter"/>
   </g>
   <g id="patch_25">
    <path d="M 165.720599 7.62372 
C 168.300951 7.62372 170.775966 6.598536 172.60055 4.773951 
C 174.425135 2.949367 175.450319 0.474352 175.450319 -2.106 
C 175.450319 -4.686352 174.425135 -7.161366 172.60055 -8.985951 
C 170.775966 -10.810535 168.300951 -11.83572 165.720599 -11.83572 
C 163.140247 -11.83572 160.665233 -10.810535 158.840648 -8.985951 
C 157.016064 -7.161366 155.990879 -4.686352 155.990879 -2.106 
C 155.990879 0.474352 157.016064 2.949367 158.840648 4.773951 
C 160.665233 6.598536 163.140247 7.62372 165.720599 7.62372 
z
" clip-path="url(#pa2596292b3)" style="fill: #a0522d; stroke: #000000; stroke-linejoin: miter"/>
   </g>
   <g id="patch_26">
    <path d="M 165.720601 202.218125 
C 168.300953 202.218125 170.775968 201.192941 172.600552 199.368356 
C 174.425136 197.543772 175.450321 195.068757 175.450321 192.488405 
C 175.450321 189.908053 174.425136 187.433039 172.600552 185.608454 
C 170.775968 183.78387 168.300953 182.758685 165.720601 182.758685 
C 163.140249 182.758685 160.665234 183.78387 158.84065 185.608454 
C 157.016066 187.433039 155.990881 189.908053 155.990881 192.488405 
C 155.990881 195.068757 157.016066 197.543772 158.84065 199.368356 
C 160.665234 201.192941 163.140249 202.218125 165.720601 202.218125 
z
" clip-path="url(#pa2596292b3)" style="fill: #ff4500; stroke: #000000; stroke-linejoin: miter"/>
   </g>
   <g id="patch_27">
    <path d="M 165.720602 234.650519 
C 168.300954 234.650519 170.775969 233.625334 172.600553 231.80075 
C 174.425137 229.976166 175.450322 227.501151 175.450322 224.920799 
C 175.450322 222.340447 174.425137 219.865432 172.600553 218.040848 
C 170.775969 216.216264 168.300954 215.191079 165.720602 215.191079 
C 163.14025 215.191079 160.665235 216.216264 158.840651 218.040848 
C 157.016067 219.865432 155.990882 222.340447 155.990882 224.920799 
C 155.990882 227.501151 157.016067 229.976166 158.840651 231.80075 
C 160.665235 233.625334 163.14025 234.650519 165.720602 234.650519 
z
" clip-path="url(#pa2596292b3)" style="fill: #708090; stroke: #000000; stroke-linejoin: miter"/>
   </g>
   <g id="patch_28">
    <path d="M 165.7206 267.08292 
C 168.300952 267.08292 170.775967 266.057735 172.600551 264.233151 
C 174.425135 262.408566 175.45032 259.933552 175.45032 257.3532 
C 175.45032 254.772848 174.425135 252.297833 172.600551 250.473249 
C 170.775967 248.648664 168.300952 247.62348 165.7206 247.62348 
C 163.140248 247.62348 160.665233 248.648664 158.840649 250.473249 
C 157.016065 252.297833 155.99088 254.772848 155.99088 257.3532 
C 155.99088 259.933552 157.016065 262.408566 158.840649 264.233151 
C 160.665233 266.057735 163.140248 267.08292 165.7206 267.08292 
z
" clip-path="url(#pa2596292b3)" style="fill: #bdb76b; stroke: #000000; stroke-linejoin: miter"/>
   </g>
   <g id="line2d_59">
    <path d="M 263.0178 127.6236 
" clip-path="url(#pa2596292b3)" style="fill: none; stroke: #1f77b4; stroke-width: 1.5; stroke-linecap: square"/>
    <defs>
     <path id="m2bda90a4b5" d="M 0 4.949747 
L 2.969848 0 
L 0 -4.949747 
L -2.969848 0 
z
" style="stroke: #000000; stroke-linejoin: miter"/>
    </defs>
    <g clip-path="url(#pa2596292b3)">
     <use xlink:href="#m2bda90a4b5" x="263.0178" y="127.6236" style="fill: #1f77b4; stroke: #000000; stroke-linejoin: miter"/>
    </g>
   </g>
   <g id="line2d_60">
    <path d="M 263.0178 127.6236 
" clip-path="url(#pa2596292b3)" style="fill: none; stroke: #ff7f0e; stroke-width: 1.5; stroke-linecap: square"/>
    <defs>
     <path id="mc2ff7c6b25" d="M 0 4.949747 
L 2.969848 0 
L 0 -4.949747 
L -2.969848 0 
z
" style="stroke: #000000; stroke-linejoin: miter"/>
    </defs>
    <g clip-path="url(#pa2596292b3)">
     <use xlink:href="#mc2ff7c6b25" x="263.0178" y="127.6236" style="fill: #ff7f0e; stroke: #000000; stroke-linejoin: miter"/>
    </g>
   </g>
   <g id="line2d_61">
    <path d="M 133.2882 95.1912 
" clip-path="url(#pa2596292b3)" style="fill: none; stroke: #2ca02c; stroke-width: 1.5; stroke-linecap: square"/>
    <defs>
     <path id="mc853961dff" d="M 0 4.949747 
L 2.969848 0 
L 0 -4.949747 
L -2.969848 0 
z
" style="stroke: #000000; stroke-linejoin: miter"/>
    </defs>
    <g clip-path="url(#pa2596292b3)">
     <use xlink:href="#mc853961dff" x="133.2882" y="95.1912" style="fill: #2ca02c; stroke: #000000; stroke-linejoin: miter"/>
    </g>
   </g>
   <g id="line2d_62">
    <path d="M 165.7206 95.1912 
" clip-path="url(#pa2596292b3)" style="fill: none; stroke: #d62728; stroke-width: 1.5; stroke-linecap: square"/>
    <defs>
     <path id="m89c5e87ef4" d="M 0 4.949747 
L 2.969848 0 
L 0 -4.949747 
L -2.969848 0 
z
" style="stroke: #000000; stroke-linejoin: miter"/>
    </defs>
    <g clip-path="url(#pa2596292b3)">
     <use xlink:href="#m89c5e87ef4" x="165.7206" y="95.1912" style="fill: #d62728; stroke: #000000; stroke-linejoin: miter"/>
    </g>
   </g>
   <g id="line2d_63">
    <path d="M 230.5854 95.1912 
" clip-path="url(#pa2596292b3)" style="fill: none; stroke: #9467bd; stroke-width: 1.5; stroke-linecap: square"/>
    <defs>
     <path id="m519ebf284a" d="M 0 4.949747 
L 2.969848 0 
L 0 -4.949747 
L -2.969848 0 
z
" style="stroke: #000000; stroke-linejoin: miter"/>
    </defs>
    <g clip-path="url(#pa2596292b3)">
     <use xlink:href="#m519ebf284a" x="230.5854" y="95.1912" style="fill: #9467bd; stroke: #000000; stroke-linejoin: miter"/>
    </g>
   </g>
   <g id="line2d_64">
    <path d="M 263.0178 95.1912 
" clip-path="url(#pa2596292b3)" style="fill: none; stroke: #8c564b; stroke-width: 1.5; stroke-linecap: square"/>
    <defs>
     <path id="m946a123c73" d="M 0 4.949747 
L 2.969848 0 
L 0 -4.949747 
L -2.969848 0 
z
" style="stroke: #000000; stroke-linejoin: miter"/>
    </defs>
    <g clip-path="url(#pa2596292b3)">
     <use xlink:href="#m946a123c73" x="263.0178" y="95.1912" style="fill: #8c564b; stroke: #000000; stroke-linejoin: miter"/>
    </g>
   </g>
   <g id="line2d_65">
    <path d="M 133.2882 160.056 
" clip-path="url(#pa2596292b3)" style="fill: none; stroke: #e377c2; stroke-width: 1.5; stroke-linecap: square"/>
    <defs>
     <path id="m1d614ca943" d="M 0 4.949747 
L 2.969848 0 
L 0 -4.949747 
L -2.969848 0 
z
" style="stroke: #000000; stroke-linejoin: miter"/>
    </defs>
    <g clip-path="url(#pa2596292b3)">
     <use xlink:href="#m1d614ca943" x="133.2882" y="160.056" style="fill: #e377c2; stroke: #000000; stroke-linejoin: miter"/>
    </g>
   </g>
   <g id="line2d_66">
    <path d="M 165.7206 160.056 
" clip-path="url(#pa2596292b3)" style="fill: none; stroke: #7f7f7f; stroke-width: 1.5; stroke-linecap: square"/>
    <defs>
     <path id="m33279d3ac0" d="M 0 4.949747 
L 2.969848 0 
L 0 -4.949747 
L -2.969848 0 
z
" style="stroke: #000000; stroke-linejoin: miter"/>
    </defs>
    <g clip-path="url(#pa2596292b3)">
     <use xlink:href="#m33279d3ac0" x="165.7206" y="160.056" style="fill: #7f7f7f; stroke: #000000; stroke-linejoin: miter"/>
    </g>
   </g>
   <g id="line2d_67">
    <path d="M 230.5854 160.056 
" clip-path="url(#pa2596292b3)" style="fill: none; stroke: #bcbd22; stroke-width: 1.5; stroke-linecap: square"/>
    <defs>
     <path id="m8e2b0257c8" d="M 0 4.949747 
L 2.969848 0 
L 0 -4.949747 
L -2.969848 0 
z
" style="stroke: #000000; stroke-linejoin: miter"/>
    </defs>
    <g clip-path="url(#pa2596292b3)">
     <use xlink:href="#m8e2b0257c8" x="230.5854" y="160.056" style="fill: #bcbd22; stroke: #000000; stroke-linejoin: miter"/>
    </g>
   </g>
   <g id="line2d_68">
    <path d="M 263.0178 160.056 
" clip-path="url(#pa2596292b3)" style="fill: none; stroke: #17becf; stroke-width: 1.5; stroke-linecap: square"/>
    <defs>
     <path id="mb3ed8b8ece" d="M 0 4.949747 
L 2.969848 0 
L 0 -4.949747 
L -2.969848 0 
z
" style="stroke: #000000; stroke-linejoin: miter"/>
    </defs>
    <g clip-path="url(#pa2596292b3)">
     <use xlink:href="#mb3ed8b8ece" x="263.0178" y="160.056" style="fill: #17becf; stroke: #000000; stroke-linejoin: miter"/>
    </g>
   </g>
   <g id="line2d_69">
    <path d="M 230.5854 62.7588 
" clip-path="url(#pa2596292b3)" style="fill: none; stroke: #2f4f4f; stroke-width: 1.5; stroke-linecap: square"/>
    <defs>
     <path id="m24aab73c98" d="M 0 4.949747 
L 2.969848 0 
L 0 -4.949747 
L -2.969848 0 
z
" style="stroke: #000000; stroke-linejoin: miter"/>
    </defs>
    <g clip-path="url(#pa2596292b3)">
     <use xlink:href="#m24aab73c98" x="230.5854" y="62.7588" style="fill: #2f4f4f; stroke: #000000; stroke-linejoin: miter"/>
    </g>
   </g>
   <g id="line2d_70">
    <path d="M 230.5854 30.3264 
" clip-path="url(#pa2596292b3)" style="fill: none; stroke: #cd5c5c; stroke-width: 1.5; stroke-linecap: square"/>
    <defs>
     <path id="mc3f99ac3be" d="M 0 4.949747 
L 2.969848 0 
L 0 -4.949747 
L -2.969848 0 
z
" style="stroke: #000000; stroke-linejoin: miter"/>
    </defs>
    <g clip-path="url(#pa2596292b3)">
     <use xlink:href="#mc3f99ac3be" x="230.5854" y="30.3264" style="fill: #cd5c5c; stroke: #000000; stroke-linejoin: miter"/>
    </g>
   </g>
   <g id="line2d_71">
    <path clip-path="url(#pa2596292b3)" style="fill: none; stroke: #add8e6; stroke-width: 1.5; stroke-linecap: square"/>
    <defs>
     <path id="m7bb6d8d1ca" d="M 0 4.949747 
L 2.969848 0 
L 0 -4.949747 
L -2.969848 0 
z
" style="stroke: #000000; stroke-linejoin: miter"/>
    </defs>
    <g clip-path="url(#pa2596292b3)"/>
   </g>
   <g id="line2d_72">
    <path d="M 230.5854 192.4884 
" clip-path="url(#pa2596292b3)" style="fill: none; stroke: #663399; stroke-width: 1.5; stroke-linecap: square"/>
    <defs>
     <path id="m8134363570" d="M 0 4.949747 
L 2.969848 0 
L 0 -4.949747 
L -2.969848 0 
z
" style="stroke: #000000; stroke-linejoin: miter"/>
    </defs>
    <g clip-path="url(#pa2596292b3)">
     <use xlink:href="#m8134363570" x="230.5854" y="192.4884" style="fill: #663399; stroke: #000000; stroke-linejoin: miter"/>
    </g>
   </g>
   <g id="line2d_73">
    <path d="M 230.5854 224.9208 
" clip-path="url(#pa2596292b3)" style="fill: none; stroke: #8fbc8f; stroke-width: 1.5; stroke-linecap: square"/>
    <defs>
     <path id="mcd4bae7651" d="M 0 4.949747 
L 2.969848 0 
L 0 -4.949747 
L -2.969848 0 
z
" style="stroke: #000000; stroke-linejoin: miter"/>
    </defs>
    <g clip-path="url(#pa2596292b3)">
     <use xlink:href="#mcd4bae7651" x="230.5854" y="224.9208" style="fill: #8fbc8f; stroke: #000000; stroke-linejoin: miter"/>
    </g>
   </g>
   <g id="line2d_74">
    <path clip-path="url(#pa2596292b3)" style="fill: none; stroke: #00ced1; stroke-width: 1.5; stroke-linecap: square"/>
    <defs>
     <path id="m887f55e72d" d="M 0 4.949747 
L 2.969848 0 
L 0 -4.949747 
L -2.969848 0 
z
" style="stroke: #000000; stroke-linejoin: miter"/>
    </defs>
    <g clip-path="url(#pa2596292b3)">
     <use xlink:href="#m887f55e72d" x="230.5854" y="257.3532" style="fill: #00ced1; stroke: #000000; stroke-linejoin: miter"/>
    </g>
   </g>
   <g id="line2d_75">
    <path d="M 165.7206 62.7588 
" clip-path="url(#pa2596292b3)" style="fill: none; stroke: #6a5acd; stroke-width: 1.5; stroke-linecap: square"/>
    <defs>
     <path id="mbcf5779e4a" d="M 0 4.949747 
L 2.969848 0 
L 0 -4.949747 
L -2.969848 0 
z
" style="stroke: #000000; stroke-linejoin: miter"/>
    </defs>
    <g clip-path="url(#pa2596292b3)">
     <use xlink:href="#mbcf5779e4a" x="165.7206" y="62.7588" style="fill: #6a5acd; stroke: #000000; stroke-linejoin: miter"/>
    </g>
   </g>
   <g id="line2d_76">
    <path d="M 165.7206 30.3264 
" clip-path="url(#pa2596292b3)" style="fill: none; stroke: #808000; stroke-width: 1.5; stroke-linecap: square"/>
    <defs>
     <path id="m189c19c6c1" d="M 0 4.949747 
L 2.969848 0 
L 0 -4.949747 
L -2.969848 0 
z
" style="stroke: #000000; stroke-linejoin: miter"/>
    </defs>
    <g clip-path="url(#pa2596292b3)">
     <use xlink:href="#m189c19c6c1" x="165.7206" y="30.3264" style="fill: #808000; stroke: #000000; stroke-linejoin: miter"/>
    </g>
   </g>
   <g id="line2d_77">
    <path clip-path="url(#pa2596292b3)" style="fill: none; stroke: #a0522d; stroke-width: 1.5; stroke-linecap: square"/>
    <defs>
     <path id="mf3824e87ea" d="M 0 4.949747 
L 2.969848 0 
L 0 -4.949747 
L -2.969848 0 
z
" style="stroke: #000000; stroke-linejoin: miter"/>
    </defs>
    <g clip-path="url(#pa2596292b3)"/>
   </g>
   <g id="line2d_78">
    <path d="M 165.7206 192.4884 
" clip-path="url(#pa2596292b3)" style="fill: none; stroke: #ff4500; stroke-width: 1.5; stroke-linecap: square"/>
    <defs>
     <path id="m6025f45d68" d="M 0 4.949747 
L 2.969848 0 
L 0 -4.949747 
L -2.969848 0 
z
" style="stroke: #000000; stroke-linejoin: miter"/>
    </defs>
    <g clip-path="url(#pa2596292b3)">
     <use xlink:href="#m6025f45d68" x="165.7206" y="192.4884" style="fill: #ff4500; stroke: #000000; stroke-linejoin: miter"/>
    </g>
   </g>
   <g id="line2d_79">
    <path d="M 165.7206 224.9208 
" clip-path="url(#pa2596292b3)" style="fill: none; stroke: #708090; stroke-width: 1.5; stroke-linecap: square"/>
    <defs>
     <path id="ma08b62a35f" d="M 0 4.949747 
L 2.969848 0 
L 0 -4.949747 
L -2.969848 0 
z
" style="stroke: #000000; stroke-linejoin: miter"/>
    </defs>
    <g clip-path="url(#pa2596292b3)">
     <use xlink:href="#ma08b62a35f" x="165.7206" y="224.9208" style="fill: #708090; stroke: #000000; stroke-linejoin: miter"/>
    </g>
   </g>
   <g id="line2d_80">
    <path clip-path="url(#pa2596292b3)" style="fill: none; stroke: #bdb76b; stroke-width: 1.5; stroke-linecap: square"/>
    <defs>
     <path id="m335ce4ef03" d="M 0 4.949747 
L 2.969848 0 
L 0 -4.949747 
L -2.969848 0 
z
" style="stroke: #000000; stroke-linejoin: miter"/>
    </defs>
    <g clip-path="url(#pa2596292b3)">
     <use xlink:href="#m335ce4ef03" x="165.7206" y="257.3532" style="fill: #bdb76b; stroke: #000000; stroke-linejoin: miter"/>
    </g>
   </g>
  </g>
 </g>
 <defs>
  <clipPath id="pa2596292b3">
   <rect x="100.8558" y="30.3264" width="194.5944" height="194.5944"/>
  </clipPath>
 </defs>
</svg>
