<?xml version="1.0" encoding="utf-8" standalone="no"?>
<!DOCTYPE svg PUBLIC "-//W3C//DTD SVG 1.1//EN"
  "http://www.w3.org/Graphics/SVG/1.1/DTD/svg11.dtd">
<svg xmlns:xlink="http://www.w3.org/1999/xlink" width="386.64pt" height="252.72pt" viewBox="0 0 386.64 252.72" xmlns="http://www.w3.org/2000/svg" version="1.1">
 <metadata>
  <rdf:RDF xmlns:dc="http://purl.org/dc/elements/1.1/" xmlns:cc="http://creativecommons.org/ns#" xmlns:rdf="http://www.w3.org/1999/02/22-rdf-syntax-ns#">
   <cc:Work>
    <dc:type rdf:resource="http://purl.org/dc/dcmitype/StillImage"/>
    <dc:date>2023-07-11T22:26:57.039589</dc:date>
    <dc:format>image/svg+xml</dc:format>
    <dc:creator>
     <cc:Agent>
      <dc:title>Matplotlib v3.6.2, https://matplotlib.org/</dc:title>
     </cc:Agent>
    </dc:creator>
   </cc:Work>
  </rdf:RDF>
 </metadata>
 <defs>
  <style type="text/css">*{stroke-linejoin: round; stroke-linecap: butt}</style>
 </defs>
 <g id="figure_1">
  <g id="patch_1">
   <path d="M 0 252.72 
L 386.64 252.72 
L 386.64 0 
L 0 0 
z
" style="fill: #ffffff"/>
  </g>
  <g id="axes_1">
   <g id="patch_2">
    <path d="M 100.8558 224.9208 
L 295.4502 224.9208 
L 295.4502 30.3264 
L 100.8558 30.3264 
z
" style="fill: #ffffff"/>
   </g>
   <g id="matplotlib.axis_1">
    <g id="xtick_1">
     <g id="line2d_1">
      <defs>
       <path id="m42a288a8bf" d="M 0 0 
L 0 3.5 
" style="stroke: #000000; stroke-width: 0.8"/>
      </defs>
      <g>
       <use xlink:href="#m42a288a8bf" x="100.8558" y="224.9208" style="stroke: #000000; stroke-width: 0.8"/>
      </g>
     </g>
     <g id="text_1">
      <!-- −0.5 -->
      <g transform="translate(88.714394 239.519237) scale(0.1 -0.1)">
       <defs>
        <path id="DejaVuSans-2212" d="M 678 2272 
L 4684 2272 
L 4684 1741 
L 678 1741 
L 678 2272 
z
" transform="scale(0.015625)"/>
        <path id="DejaVuSans-30" d="M 2034 4250 
Q 1547 4250 1301 3770 
Q 1056 3291 1056 2328 
Q 1056 1369 1301 889 
Q 1547 409 2034 409 
Q 2525 409 2770 889 
Q 3016 1369 3016 2328 
Q 3016 3291 2770 3770 
Q 2525 4250 2034 4250 
z
M 2034 4750 
Q 2819 4750 3233 4129 
Q 3647 3509 3647 2328 
Q 3647 1150 3233 529 
Q 2819 -91 2034 -91 
Q 1250 -91 836 529 
Q 422 1150 422 2328 
Q 422 3509 836 4129 
Q 1250 4750 2034 4750 
z
" transform="scale(0.015625)"/>
        <path id="DejaVuSans-2e" d="M 684 794 
L 1344 794 
L 1344 0 
L 684 0 
L 684 794 
z
" transform="scale(0.015625)"/>
        <path id="DejaVuSans-35" d="M 691 4666 
L 3169 4666 
L 3169 4134 
L 1269 4134 
L 1269 2991 
Q 1406 3038 1543 3061 
Q 1681 3084 1819 3084 
Q 2600 3084 3056 2656 
Q 3513 2228 3513 1497 
Q 3513 744 3044 326 
Q 2575 -91 1722 -91 
Q 1428 -91 1123 -41 
Q 819 9 494 109 
L 494 744 
Q 775 591 1075 516 
Q 1375 441 1709 441 
Q 2250 441 2565 725 
Q 2881 1009 2881 1497 
Q 2881 1984 2565 2268 
Q 2250 2553 1709 2553 
Q 1456 2553 1204 2497 
Q 953 2441 691 2322 
L 691 4666 
z
" transform="scale(0.015625)"/>
       </defs>
       <use xlink:href="#DejaVuSans-2212"/>
       <use xlink:href="#DejaVuSans-30" x="83.789062"/>
       <use xlink:href="#DejaVuSans-2e" x="147.412109"/>
       <use xlink:href="#DejaVuSans-35" x="179.199219"/>
      </g>
     </g>
    </g>
    <g id="xtick_2">
     <g id="line2d_2">
      <g>
       <use xlink:href="#m42a288a8bf" x="133.2882" y="224.9208" style="stroke: #000000; stroke-width: 0.8"/>
      </g>
     </g>
     <g id="text_2">
      <!-- 0.0 -->
      <g transform="translate(125.336638 239.519237) scale(0.1 -0.1)">
       <use xlink:href="#DejaVuSans-30"/>
       <use xlink:href="#DejaVuSans-2e" x="63.623047"/>
       <use xlink:href="#DejaVuSans-30" x="95.410156"/>
      </g>
     </g>
    </g>
    <g id="xtick_3">
     <g id="line2d_3">
      <g>
       <use xlink:href="#m42a288a8bf" x="165.7206" y="224.9208" style="stroke: #000000; stroke-width: 0.8"/>
      </g>
     </g>
     <g id="text_3">
      <!-- 0.5 -->
      <g transform="translate(157.769037 239.519237) scale(0.1 -0.1)">
       <use xlink:href="#DejaVuSans-30"/>
       <use xlink:href="#DejaVuSans-2e" x="63.623047"/>
       <use xlink:href="#DejaVuSans-35" x="95.410156"/>
      </g>
     </g>
    </g>
    <g id="xtick_4">
     <g id="line2d_4">
      <g>
       <use xlink:href="#m42a288a8bf" x="198.153" y="224.9208" style="stroke: #000000; stroke-width: 0.8"/>
      </g>
     </g>
     <g id="text_4">
      <!-- 1.0 -->
      <g transform="translate(190.201437 239.519237) scale(0.1 -0.1)">
       <defs>
        <path id="DejaVuSans-31" d="M 794 531 
L 1825 531 
L 1825 4091 
L 703 3866 
L 703 4441 
L 1819 4666 
L 2450 4666 
L 2450 531 
L 3481 531 
L 3481 0 
L 794 0 
L 794 531 
z
" transform="scale(0.015625)"/>
       </defs>
       <use xlink:href="#DejaVuSans-31"/>
       <use xlink:href="#DejaVuSans-2e" x="63.623047"/>
       <use xlink:href="#DejaVuSans-30" x="95.410156"/>
      </g>
     </g>
    </g>
    <g id="xtick_5">
     <g id="line2d_5">
      <g>
       <use xlink:href="#m42a288a8bf" x="230.5854" y="224.9208" style="stroke: #000000; stroke-width: 0.8"/>
      </g>
     </g>
     <g id="text_5">
      <!-- 1.5 -->
      <g transform="translate(222.633837 239.519237) scale(0.1 -0.1)">
       <use xlink:href="#DejaVuSans-31"/>
       <use xlink:href="#DejaVuSans-2e" x="63.623047"/>
       <use xlink:href="#DejaVuSans-35" x="95.410156"/>
      </g>
     </g>
    </g>
    <g id="xtick_6">
     <g id="line2d_6">
      <g>
       <use xlink:href="#m42a288a8bf" x="263.0178" y="224.9208" style="stroke: #000000; stroke-width: 0.8"/>
      </g>
     </g>
     <g id="text_6">
      <!-- 2.0 -->
      <g transform="translate(255.066237 239.519237) scale(0.1 -0.1)">
       <defs>
        <path id="DejaVuSans-32" d="M 1228 531 
L 3431 531 
L 3431 0 
L 469 0 
L 469 531 
Q 828 903 1448 1529 
Q 2069 2156 2228 2338 
Q 2531 2678 2651 2914 
Q 2772 3150 2772 3378 
Q 2772 3750 2511 3984 
Q 2250 4219 1831 4219 
Q 1534 4219 1204 4116 
Q 875 4013 500 3803 
L 500 4441 
Q 881 4594 1212 4672 
Q 1544 4750 1819 4750 
Q 2544 4750 2975 4387 
Q 3406 4025 3406 3419 
Q 3406 3131 3298 2873 
Q 3191 2616 2906 2266 
Q 2828 2175 2409 1742 
Q 1991 1309 1228 531 
z
" transform="scale(0.015625)"/>
       </defs>
       <use xlink:href="#DejaVuSans-32"/>
       <use xlink:href="#DejaVuSans-2e" x="63.623047"/>
       <use xlink:href="#DejaVuSans-30" x="95.410156"/>
      </g>
     </g>
    </g>
    <g id="xtick_7">
     <g id="line2d_7">
      <g>
       <use xlink:href="#m42a288a8bf" x="295.4502" y="224.9208" style="stroke: #000000; stroke-width: 0.8"/>
      </g>
     </g>
     <g id="text_7">
      <!-- 2.5 -->
      <g transform="translate(287.498637 239.519237) scale(0.1 -0.1)">
       <use xlink:href="#DejaVuSans-32"/>
       <use xlink:href="#DejaVuSans-2e" x="63.623047"/>
       <use xlink:href="#DejaVuSans-35" x="95.410156"/>
      </g>
     </g>
    </g>
    <g id="text_8">
     <!-- x(m) -->
     <g transform="translate(186.42175 253.197362) scale(0.1 -0.1)">
      <defs>
       <path id="DejaVuSans-78" d="M 3513 3500 
L 2247 1797 
L 3578 0 
L 2900 0 
L 1881 1375 
L 863 0 
L 184 0 
L 1544 1831 
L 300 3500 
L 978 3500 
L 1906 2253 
L 2834 3500 
L 3513 3500 
z
" transform="scale(0.015625)"/>
       <path id="DejaVuSans-28" d="M 1984 4856 
Q 1566 4138 1362 3434 
Q 1159 2731 1159 2009 
Q 1159 1288 1364 580 
Q 1569 -128 1984 -844 
L 1484 -844 
Q 1016 -109 783 600 
Q 550 1309 550 2009 
Q 550 2706 781 3412 
Q 1013 4119 1484 4856 
L 1984 4856 
z
" transform="scale(0.015625)"/>
       <path id="DejaVuSans-6d" d="M 3328 2828 
Q 3544 3216 3844 3400 
Q 4144 3584 4550 3584 
Q 5097 3584 5394 3201 
Q 5691 2819 5691 2113 
L 5691 0 
L 5113 0 
L 5113 2094 
Q 5113 2597 4934 2840 
Q 4756 3084 4391 3084 
Q 3944 3084 3684 2787 
Q 3425 2491 3425 1978 
L 3425 0 
L 2847 0 
L 2847 2094 
Q 2847 2600 2669 2842 
Q 2491 3084 2119 3084 
Q 1678 3084 1418 2786 
Q 1159 2488 1159 1978 
L 1159 0 
L 581 0 
L 581 3500 
L 1159 3500 
L 1159 2956 
Q 1356 3278 1631 3431 
Q 1906 3584 2284 3584 
Q 2666 3584 2933 3390 
Q 3200 3197 3328 2828 
z
" transform="scale(0.015625)"/>
       <path id="DejaVuSans-29" d="M 513 4856 
L 1013 4856 
Q 1481 4119 1714 3412 
Q 1947 2706 1947 2009 
Q 1947 1309 1714 600 
Q 1481 -109 1013 -844 
L 513 -844 
Q 928 -128 1133 580 
Q 1338 1288 1338 2009 
Q 1338 2731 1133 3434 
Q 928 4138 513 4856 
z
" transform="scale(0.015625)"/>
      </defs>
      <use xlink:href="#DejaVuSans-78"/>
      <use xlink:href="#DejaVuSans-28" x="59.179688"/>
      <use xlink:href="#DejaVuSans-6d" x="98.193359"/>
      <use xlink:href="#DejaVuSans-29" x="195.605469"/>
     </g>
    </g>
   </g>
   <g id="matplotlib.axis_2">
    <g id="ytick_1">
     <g id="line2d_8">
      <defs>
       <path id="m29cb6de900" d="M 0 0 
L -3.5 0 
" style="stroke: #000000; stroke-width: 0.8"/>
      </defs>
      <g>
       <use xlink:href="#m29cb6de900" x="100.8558" y="224.9208" style="stroke: #000000; stroke-width: 0.8"/>
      </g>
     </g>
     <g id="text_9">
      <!-- −0.5 -->
      <g transform="translate(69.572988 228.720019) scale(0.1 -0.1)">
       <use xlink:href="#DejaVuSans-2212"/>
       <use xlink:href="#DejaVuSans-30" x="83.789062"/>
       <use xlink:href="#DejaVuSans-2e" x="147.412109"/>
       <use xlink:href="#DejaVuSans-35" x="179.199219"/>
      </g>
     </g>
    </g>
    <g id="ytick_2">
     <g id="line2d_9">
      <g>
       <use xlink:href="#m29cb6de900" x="100.8558" y="192.4884" style="stroke: #000000; stroke-width: 0.8"/>
      </g>
     </g>
     <g id="text_10">
      <!-- 0.0 -->
      <g transform="translate(77.952675 196.287619) scale(0.1 -0.1)">
       <use xlink:href="#DejaVuSans-30"/>
       <use xlink:href="#DejaVuSans-2e" x="63.623047"/>
       <use xlink:href="#DejaVuSans-30" x="95.410156"/>
      </g>
     </g>
    </g>
    <g id="ytick_3">
     <g id="line2d_10">
      <g>
       <use xlink:href="#m29cb6de900" x="100.8558" y="160.056" style="stroke: #000000; stroke-width: 0.8"/>
      </g>
     </g>
     <g id="text_11">
      <!-- 0.5 -->
      <g transform="translate(77.952675 163.855219) scale(0.1 -0.1)">
       <use xlink:href="#DejaVuSans-30"/>
       <use xlink:href="#DejaVuSans-2e" x="63.623047"/>
       <use xlink:href="#DejaVuSans-35" x="95.410156"/>
      </g>
     </g>
    </g>
    <g id="ytick_4">
     <g id="line2d_11">
      <g>
       <use xlink:href="#m29cb6de900" x="100.8558" y="127.6236" style="stroke: #000000; stroke-width: 0.8"/>
      </g>
     </g>
     <g id="text_12">
      <!-- 1.0 -->
      <g transform="translate(77.952675 131.422819) scale(0.1 -0.1)">
       <use xlink:href="#DejaVuSans-31"/>
       <use xlink:href="#DejaVuSans-2e" x="63.623047"/>
       <use xlink:href="#DejaVuSans-30" x="95.410156"/>
      </g>
     </g>
    </g>
    <g id="ytick_5">
     <g id="line2d_12">
      <g>
       <use xlink:href="#m29cb6de900" x="100.8558" y="95.1912" style="stroke: #000000; stroke-width: 0.8"/>
      </g>
     </g>
     <g id="text_13">
      <!-- 1.5 -->
      <g transform="translate(77.952675 98.990419) scale(0.1 -0.1)">
       <use xlink:href="#DejaVuSans-31"/>
       <use xlink:href="#DejaVuSans-2e" x="63.623047"/>
       <use xlink:href="#DejaVuSans-35" x="95.410156"/>
      </g>
     </g>
    </g>
    <g id="ytick_6">
     <g id="line2d_13">
      <g>
       <use xlink:href="#m29cb6de900" x="100.8558" y="62.7588" style="stroke: #000000; stroke-width: 0.8"/>
      </g>
     </g>
     <g id="text_14">
      <!-- 2.0 -->
      <g transform="translate(77.952675 66.558019) scale(0.1 -0.1)">
       <use xlink:href="#DejaVuSans-32"/>
       <use xlink:href="#DejaVuSans-2e" x="63.623047"/>
       <use xlink:href="#DejaVuSans-30" x="95.410156"/>
      </g>
     </g>
    </g>
    <g id="ytick_7">
     <g id="line2d_14">
      <g>
       <use xlink:href="#m29cb6de900" x="100.8558" y="30.3264" style="stroke: #000000; stroke-width: 0.8"/>
      </g>
     </g>
     <g id="text_15">
      <!-- 2.5 -->
      <g transform="translate(77.952675 34.125619) scale(0.1 -0.1)">
       <use xlink:href="#DejaVuSans-32"/>
       <use xlink:href="#DejaVuSans-2e" x="63.623047"/>
       <use xlink:href="#DejaVuSans-35" x="95.410156"/>
      </g>
     </g>
    </g>
    <g id="text_16">
     <!-- y(m) -->
     <g transform="translate(63.4933 139.35485) rotate(-90) scale(0.1 -0.1)">
      <defs>
       <path id="DejaVuSans-79" d="M 2059 -325 
Q 1816 -950 1584 -1140 
Q 1353 -1331 966 -1331 
L 506 -1331 
L 506 -850 
L 844 -850 
Q 1081 -850 1212 -737 
Q 1344 -625 1503 -206 
L 1606 56 
L 191 3500 
L 800 3500 
L 1894 763 
L 2988 3500 
L 3597 3500 
L 2059 -325 
z
" transform="scale(0.015625)"/>
      </defs>
      <use xlink:href="#DejaVuSans-79"/>
      <use xlink:href="#DejaVuSans-28" x="59.179688"/>
      <use xlink:href="#DejaVuSans-6d" x="98.193359"/>
      <use xlink:href="#DejaVuSans-29" x="195.605469"/>
     </g>
    </g>
   </g>
   <g id="line2d_15">
    <path d="M 263.017818 127.623602 
L 263.017798 127.6236 
L 263.0178 127.6236 
L 263.0178 127.6236 
L 263.0178 127.6236 
L 263.017801 127.6236 
L 263.017807 127.623599 
L 263.017841 127.623593 
L 263.018005 127.623566 
L 263.01868 127.623454 
L 263.021103 127.623051 
L 263.029075 127.621725 
L 263.029075 127.621725 
" clip-path="url(#pc12022dc4f)" style="fill: none; stroke-dasharray: 2,3.3; stroke-dashoffset: 0; stroke: #1f77b4; stroke-width: 2"/>
   </g>
   <g id="line2d_16">
    <path d="M 133.2882 127.6236 
L 133.2882 127.6236 
L 133.768676 127.621531 
L 138.573349 127.593776 
L 147.701648 127.493337 
L 160.673863 127.41217 
L 173.646739 127.459601 
L 186.619963 127.486284 
L 199.592908 127.523189 
L 212.567005 127.607597 
L 225.536461 127.5202 
L 238.341407 126.667687 
L 249.679077 126.428069 
L 257.640665 127.139288 
L 262.299995 127.540144 
L 263.112185 127.634279 
L 263.006673 127.622341 
L 263.019112 127.623748 
L 263.017645 127.623583 
L 263.017818 127.623602 
" clip-path="url(#pc12022dc4f)" style="fill: none; stroke: #1f77b4; stroke-width: 2; stroke-linecap: square"/>
   </g>
   <g id="line2d_17">
    <path d="M 241.510508 131.207438 
L 241.549752 131.195829 
L 241.558339 131.193291 
L 241.562223 131.192143 
L 241.564402 131.191498 
L 241.565798 131.191086 
L 241.566768 131.190799 
L 241.567543 131.190578 
L 241.568579 131.190335 
L 241.570899 131.189894 
L 241.574546 131.189242 
L 241.577545 131.188706 
L 241.577545 131.188706 
" clip-path="url(#pc12022dc4f)" style="fill: none; stroke-dasharray: 2,3.3; stroke-dashoffset: 0; stroke: #ff7f0e; stroke-width: 2"/>
   </g>
   <g id="line2d_18">
    <path d="M 198.153 205.46136 
L 198.153 205.46136 
L 198.164648 204.981025 
L 198.417246 200.200816 
L 199.877385 191.454013 
L 201.48243 180.264573 
L 202.738317 169.560811 
L 204.917797 161.07713 
L 207.09932 154.814228 
L 209.379241 150.892168 
L 211.999015 147.096721 
L 218.032057 141.250712 
L 226.183594 137.004547 
L 232.872114 134.000627 
L 237.806064 132.265695 
L 240.06566 131.422425 
L 240.879042 131.192219 
L 241.162835 131.331402 
L 241.412368 131.239806 
L 241.510508 131.207438 
" clip-path="url(#pc12022dc4f)" style="fill: none; stroke: #ff7f0e; stroke-width: 2; stroke-linecap: square"/>
   </g>
   <g id="line2d_19">
    <path d="M 133.28823 95.190948 
L 133.288228 95.190942 
L 133.288225 95.190938 
L 133.288223 95.190937 
L 133.28822 95.19094 
L 133.288217 95.190947 
L 133.288214 95.190958 
L 133.288212 95.190973 
L 133.28821 95.190991 
L 133.288208 95.191007 
L 133.288207 95.191019 
L 133.288206 95.191025 
L 133.288206 95.191025 
" clip-path="url(#pc12022dc4f)" style="fill: none; stroke-dasharray: 2,3.3; stroke-dashoffset: 0; stroke: #2ca02c; stroke-width: 2"/>
   </g>
   <g id="line2d_20">
    <path d="M 133.2882 95.1912 
L 133.2882 95.1912 
L 133.2882 95.1912 
L 133.288202 95.1912 
L 133.288204 95.191197 
L 133.288206 95.19119 
L 133.288211 95.191173 
L 133.288216 95.191155 
L 133.288222 95.191135 
L 133.288224 95.191111 
L 133.288228 95.191086 
L 133.28823 95.191064 
L 133.288232 95.191043 
L 133.288235 95.191023 
L 133.288236 95.191005 
L 133.288236 95.19099 
L 133.288235 95.190976 
L 133.288234 95.190965 
L 133.288232 95.190955 
L 133.28823 95.190948 
" clip-path="url(#pc12022dc4f)" style="fill: none; stroke: #2ca02c; stroke-width: 2; stroke-linecap: square"/>
   </g>
   <g id="line2d_21">
    <path d="M 165.720509 95.191195 
L 165.720552 95.191227 
L 165.7206 95.191262 
L 165.720648 95.191293 
L 165.720684 95.191312 
L 165.720706 95.19132 
L 165.720717 95.191318 
L 165.720718 95.191307 
L 165.720712 95.191289 
L 165.720701 95.191268 
L 165.720691 95.191248 
L 165.720686 95.191238 
L 165.720686 95.191238 
" clip-path="url(#pc12022dc4f)" style="fill: none; stroke-dasharray: 2,3.3; stroke-dashoffset: 0; stroke: #d62728; stroke-width: 2"/>
   </g>
   <g id="line2d_22">
    <path d="M 165.7206 95.1912 
L 165.7206 95.1912 
L 165.720601 95.191194 
L 165.720603 95.19115 
L 165.720581 95.191153 
L 165.720541 95.191158 
L 165.720483 95.19116 
L 165.720422 95.191125 
L 165.720366 95.191081 
L 165.720311 95.191045 
L 165.720281 95.191024 
L 165.720264 95.191013 
L 165.720261 95.191012 
L 165.720272 95.191017 
L 165.720291 95.191024 
L 165.720326 95.19105 
L 165.720369 95.191085 
L 165.720416 95.191123 
L 165.720464 95.19116 
L 165.720509 95.191195 
" clip-path="url(#pc12022dc4f)" style="fill: none; stroke: #d62728; stroke-width: 2; stroke-linecap: square"/>
   </g>
   <g id="line2d_23">
    <path d="M 230.585721 95.190679 
L 230.58572 95.190624 
L 230.585742 95.190578 
L 230.585776 95.190577 
L 230.585792 95.190643 
L 230.585783 95.190747 
L 230.585748 95.190854 
L 230.585691 95.190948 
L 230.585623 95.191031 
L 230.585556 95.191101 
L 230.585507 95.191149 
L 230.585483 95.191172 
L 230.585483 95.191172 
" clip-path="url(#pc12022dc4f)" style="fill: none; stroke-dasharray: 2,3.3; stroke-dashoffset: 0; stroke: #9467bd; stroke-width: 2"/>
   </g>
   <g id="line2d_24">
    <path d="M 230.5854 95.1912 
L 230.5854 95.1912 
L 230.5854 95.191198 
L 230.585399 95.191183 
L 230.585405 95.191174 
L 230.585427 95.191186 
L 230.585443 95.191202 
L 230.585457 95.191257 
L 230.585477 95.191298 
L 230.585509 95.191287 
L 230.585553 95.191222 
L 230.585594 95.19117 
L 230.58563 95.191129 
L 230.585659 95.191094 
L 230.585686 95.191036 
L 230.585704 95.190962 
L 230.585716 95.190885 
L 230.585722 95.190811 
L 230.585723 95.190742 
L 230.585721 95.190679 
" clip-path="url(#pc12022dc4f)" style="fill: none; stroke: #9467bd; stroke-width: 2; stroke-linecap: square"/>
   </g>
   <g id="line2d_25">
    <path d="M 263.017765 95.190963 
L 263.017765 95.190959 
L 263.017766 95.190958 
L 263.017767 95.19096 
L 263.017768 95.190967 
L 263.01777 95.190977 
L 263.017773 95.190992 
L 263.017776 95.19101 
L 263.017779 95.19103 
L 263.017782 95.191048 
L 263.017783 95.191061 
L 263.017784 95.191067 
L 263.017784 95.191067 
" clip-path="url(#pc12022dc4f)" style="fill: none; stroke-dasharray: 2,3.3; stroke-dashoffset: 0; stroke: #8c564b; stroke-width: 2"/>
   </g>
   <g id="line2d_26">
    <path d="M 263.0178 95.1912 
L 263.0178 95.1912 
L 263.017801 95.1912 
L 263.017807 95.191203 
L 263.017812 95.191199 
L 263.017815 95.191193 
L 263.017817 95.191185 
L 263.017818 95.191173 
L 263.017819 95.191161 
L 263.017818 95.19115 
L 263.017817 95.191135 
L 263.017814 95.191106 
L 263.017803 95.191071 
L 263.017793 95.191044 
L 263.017784 95.191022 
L 263.017777 95.191004 
L 263.017772 95.190989 
L 263.017769 95.190978 
L 263.017766 95.190969 
L 263.017765 95.190963 
" clip-path="url(#pc12022dc4f)" style="fill: none; stroke: #8c564b; stroke-width: 2; stroke-linecap: square"/>
   </g>
   <g id="line2d_27">
    <path d="M 133.288249 160.056191 
L 133.288246 160.056201 
L 133.288242 160.05621 
L 133.288238 160.056215 
L 133.288234 160.056217 
L 133.288229 160.056215 
L 133.288225 160.056209 
L 133.288221 160.056199 
L 133.288217 160.056187 
L 133.288214 160.056174 
L 133.288212 160.056165 
L 133.288211 160.05616 
L 133.288211 160.05616 
" clip-path="url(#pc12022dc4f)" style="fill: none; stroke-dasharray: 2,3.3; stroke-dashoffset: 0; stroke: #e377c2; stroke-width: 2"/>
   </g>
   <g id="line2d_28">
    <path d="M 133.2882 160.056 
L 133.2882 160.056 
L 133.2882 160.056 
L 133.288203 160.056 
L 133.288205 160.056004 
L 133.288208 160.056011 
L 133.28821 160.05602 
L 133.288212 160.056031 
L 133.288213 160.056043 
L 133.288215 160.056057 
L 133.288218 160.056072 
L 133.288228 160.056085 
L 133.288237 160.056099 
L 133.288244 160.056114 
L 133.288249 160.056128 
L 133.288252 160.056143 
L 133.288253 160.056156 
L 133.288253 160.056169 
L 133.288251 160.056181 
L 133.288249 160.056191 
" clip-path="url(#pc12022dc4f)" style="fill: none; stroke: #e377c2; stroke-width: 2; stroke-linecap: square"/>
   </g>
   <g id="line2d_29">
    <path d="M 165.720453 160.055772 
L 165.720491 160.055784 
L 165.720539 160.055789 
L 165.720592 160.055793 
L 165.720636 160.055805 
L 165.720669 160.055823 
L 165.720692 160.055848 
L 165.720705 160.055878 
L 165.72071 160.055913 
L 165.720708 160.055948 
L 165.720704 160.05598 
L 165.720701 160.055998 
L 165.720701 160.055998 
" clip-path="url(#pc12022dc4f)" style="fill: none; stroke-dasharray: 2,3.3; stroke-dashoffset: 0; stroke: #7f7f7f; stroke-width: 2"/>
   </g>
   <g id="line2d_30">
    <path d="M 165.7206 160.056 
L 165.7206 160.056 
L 165.7206 160.055997 
L 165.720599 160.05597 
L 165.720579 160.055908 
L 165.72054 160.055856 
L 165.720503 160.055767 
L 165.72048 160.055656 
L 165.720446 160.055586 
L 165.720426 160.055548 
L 165.720405 160.055537 
L 165.720398 160.05555 
L 165.720388 160.055578 
L 165.720397 160.055602 
L 165.720396 160.055649 
L 165.720377 160.055687 
L 165.720378 160.055717 
L 165.720394 160.05574 
L 165.72042 160.055758 
L 165.720453 160.055772 
" clip-path="url(#pc12022dc4f)" style="fill: none; stroke: #7f7f7f; stroke-width: 2; stroke-linecap: square"/>
   </g>
   <g id="line2d_31">
    <path d="M 230.585623 160.056036 
L 230.585636 160.056034 
L 230.585659 160.056031 
L 230.585681 160.056027 
L 230.585683 160.056023 
L 230.585665 160.056018 
L 230.585631 160.056014 
L 230.585587 160.05601 
L 230.585537 160.056007 
L 230.585491 160.056005 
L 230.585457 160.056004 
L 230.585441 160.056004 
L 230.585441 160.056004 
" clip-path="url(#pc12022dc4f)" style="fill: none; stroke-dasharray: 2,3.3; stroke-dashoffset: 0; stroke: #bcbd22; stroke-width: 2"/>
   </g>
   <g id="line2d_32">
    <path d="M 230.5854 160.056 
L 230.5854 160.056 
L 230.5854 160.056002 
L 230.585404 160.056019 
L 230.585426 160.055987 
L 230.585441 160.055965 
L 230.585453 160.055958 
L 230.585459 160.055962 
L 230.585459 160.055967 
L 230.585467 160.055979 
L 230.585475 160.055991 
L 230.58547 160.056002 
L 230.585459 160.056052 
L 230.585468 160.056053 
L 230.585489 160.056051 
L 230.58552 160.056047 
L 230.585555 160.056044 
L 230.585584 160.056041 
L 230.585606 160.056038 
L 230.585623 160.056036 
" clip-path="url(#pc12022dc4f)" style="fill: none; stroke: #bcbd22; stroke-width: 2; stroke-linecap: square"/>
   </g>
   <g id="line2d_33">
    <path d="M 263.017779 160.05622 
L 263.017781 160.056224 
L 263.017782 160.056227 
L 263.017784 160.056226 
L 263.017785 160.056221 
L 263.017786 160.056212 
L 263.017788 160.056199 
L 263.017789 160.056183 
L 263.017791 160.056166 
L 263.017792 160.056149 
L 263.017793 160.056137 
L 263.017793 160.056132 
L 263.017793 160.056132 
" clip-path="url(#pc12022dc4f)" style="fill: none; stroke-dasharray: 2,3.3; stroke-dashoffset: 0; stroke: #17becf; stroke-width: 2"/>
   </g>
   <g id="line2d_34">
    <path d="M 263.0178 160.056 
L 263.0178 160.056 
L 263.0178 160.056 
L 263.0178 160.056 
L 263.0178 160.056006 
L 263.017801 160.056017 
L 263.017802 160.056031 
L 263.017798 160.056043 
L 263.017795 160.056057 
L 263.017792 160.056072 
L 263.017789 160.056089 
L 263.017785 160.056112 
L 263.017783 160.056135 
L 263.01778 160.056158 
L 263.017778 160.056174 
L 263.017777 160.056187 
L 263.017777 160.056198 
L 263.017777 160.056207 
L 263.017778 160.056214 
L 263.017779 160.05622 
" clip-path="url(#pc12022dc4f)" style="fill: none; stroke: #17becf; stroke-width: 2; stroke-linecap: square"/>
   </g>
   <g id="line2d_35">
    <path d="M 230.585867 62.758827 
L 230.585874 62.758839 
L 230.585825 62.758842 
L 230.585735 62.758836 
L 230.585628 62.758826 
L 230.585519 62.758814 
L 230.585416 62.758799 
L 230.585327 62.758781 
L 230.585258 62.758761 
L 230.585214 62.758739 
L 230.585193 62.75872 
L 230.585186 62.758706 
L 230.585186 62.758706 
" clip-path="url(#pc12022dc4f)" style="fill: none; stroke-dasharray: 2,3.3; stroke-dashoffset: 0; stroke: #2f4f4f; stroke-width: 2"/>
   </g>
   <g id="line2d_36">
    <path d="M 230.5854 62.7588 
L 230.5854 62.7588 
L 230.5854 62.758798 
L 230.585398 62.758783 
L 230.585395 62.75877 
L 230.585392 62.758761 
L 230.585391 62.758756 
L 230.585392 62.758754 
L 230.585393 62.758755 
L 230.585397 62.758759 
L 230.585416 62.758765 
L 230.585444 62.758771 
L 230.585472 62.758776 
L 230.585495 62.75878 
L 230.585546 62.758771 
L 230.585621 62.758774 
L 230.585706 62.758784 
L 230.585744 62.758792 
L 230.585802 62.758807 
L 230.585867 62.758827 
" clip-path="url(#pc12022dc4f)" style="fill: none; stroke: #2f4f4f; stroke-width: 2; stroke-linecap: square"/>
   </g>
   <g id="line2d_37">
    <path d="M 230.58532 30.326614 
L 230.585329 30.326596 
L 230.585338 30.32658 
L 230.585347 30.326564 
L 230.585357 30.326546 
L 230.585366 30.326526 
L 230.585376 30.326504 
L 230.585385 30.326481 
L 230.585392 30.326459 
L 230.585398 30.326441 
L 230.585401 30.326428 
L 230.585403 30.326422 
L 230.585403 30.326422 
" clip-path="url(#pc12022dc4f)" style="fill: none; stroke-dasharray: 2,3.3; stroke-dashoffset: 0; stroke: #cd5c5c; stroke-width: 2"/>
   </g>
   <g id="line2d_38">
    <path d="M 230.5854 30.3264 
L 230.5854 30.3264 
L 230.585397 30.326406 
L 230.585368 30.32646 
L 230.585347 30.326501 
L 230.585328 30.326531 
L 230.585311 30.326561 
L 230.585298 30.326587 
L 230.585288 30.326613 
L 230.585283 30.326639 
L 230.58528 30.326662 
L 230.58528 30.326679 
L 230.585281 30.32669 
L 230.585284 30.326694 
L 230.585289 30.326696 
L 230.585295 30.326687 
L 230.585301 30.326673 
L 230.585306 30.326653 
L 230.585313 30.326633 
L 230.58532 30.326614 
" clip-path="url(#pc12022dc4f)" style="fill: none; stroke: #cd5c5c; stroke-width: 2; stroke-linecap: square"/>
   </g>
   <g id="line2d_39">
    <path clip-path="url(#pc12022dc4f)" style="fill: none; stroke-dasharray: 2,3.3; stroke-dashoffset: 0; stroke: #add8e6; stroke-width: 2"/>
   </g>
   <g id="line2d_40">
    <path clip-path="url(#pc12022dc4f)" style="fill: none; stroke: #add8e6; stroke-width: 2; stroke-linecap: square"/>
   </g>
   <g id="line2d_41">
    <path d="M 230.585869 192.488457 
L 230.58596 192.488463 
L 230.586077 192.488465 
L 230.586195 192.488449 
L 230.58626 192.488416 
L 230.586263 192.488379 
L 230.586209 192.488354 
L 230.586107 192.488346 
L 230.585973 192.48835 
L 230.585832 192.488357 
L 230.585718 192.488364 
L 230.585662 192.488368 
L 230.585662 192.488368 
" clip-path="url(#pc12022dc4f)" style="fill: none; stroke-dasharray: 2,3.3; stroke-dashoffset: 0; stroke: #663399; stroke-width: 2"/>
   </g>
   <g id="line2d_42">
    <path d="M 230.5854 192.4884 
L 230.5854 192.4884 
L 230.5854 192.488401 
L 230.585403 192.488407 
L 230.585406 192.488411 
L 230.585406 192.488417 
L 230.585392 192.488421 
L 230.585383 192.488425 
L 230.585389 192.488426 
L 230.585399 192.488429 
L 230.585436 192.488433 
L 230.585469 192.48843 
L 230.585487 192.488434 
L 230.585503 192.488436 
L 230.585517 192.488438 
L 230.585562 192.488431 
L 230.585625 192.488433 
L 230.585699 192.48844 
L 230.585782 192.488448 
L 230.585869 192.488457 
" clip-path="url(#pc12022dc4f)" style="fill: none; stroke: #663399; stroke-width: 2; stroke-linecap: square"/>
   </g>
   <g id="line2d_43">
    <path d="M 230.58533 224.920803 
L 230.585336 224.920785 
L 230.585342 224.920767 
L 230.58535 224.920749 
L 230.585358 224.920736 
L 230.585366 224.920727 
L 230.585374 224.920724 
L 230.585382 224.920726 
L 230.585389 224.920733 
L 230.585395 224.920741 
L 230.585398 224.920748 
L 230.5854 224.920752 
L 230.5854 224.920752 
" clip-path="url(#pc12022dc4f)" style="fill: none; stroke-dasharray: 2,3.3; stroke-dashoffset: 0; stroke: #8fbc8f; stroke-width: 2"/>
   </g>
   <g id="line2d_44">
    <path d="M 230.5854 224.9208 
L 230.5854 224.9208 
L 230.585398 224.920803 
L 230.585385 224.920825 
L 230.585374 224.920843 
L 230.585366 224.920859 
L 230.58536 224.920873 
L 230.585355 224.920875 
L 230.58535 224.920871 
L 230.585345 224.920863 
L 230.585339 224.920855 
L 230.585333 224.920853 
L 230.585327 224.920853 
L 230.585323 224.920851 
L 230.585321 224.920846 
L 230.585319 224.920843 
L 230.58532 224.920837 
L 230.585321 224.920829 
L 230.585324 224.92082 
L 230.58533 224.920803 
" clip-path="url(#pc12022dc4f)" style="fill: none; stroke: #8fbc8f; stroke-width: 2; stroke-linecap: square"/>
   </g>
   <g id="line2d_45">
    <path clip-path="url(#pc12022dc4f)" style="fill: none; stroke-dasharray: 2,3.3; stroke-dashoffset: 0; stroke: #00ced1; stroke-width: 2"/>
   </g>
   <g id="line2d_46">
    <path clip-path="url(#pc12022dc4f)" style="fill: none; stroke: #00ced1; stroke-width: 2; stroke-linecap: square"/>
   </g>
   <g id="line2d_47">
    <path d="M 165.720572 62.758979 
L 165.72058 62.759004 
L 165.720591 62.759025 
L 165.720602 62.759038 
L 165.720611 62.759034 
L 165.720618 62.759015 
L 165.720622 62.75898 
L 165.720626 62.758935 
L 165.72063 62.758887 
L 165.720635 62.758844 
L 165.720642 62.758817 
L 165.720647 62.758807 
L 165.720647 62.758807 
" clip-path="url(#pc12022dc4f)" style="fill: none; stroke-dasharray: 2,3.3; stroke-dashoffset: 0; stroke: #6a5acd; stroke-width: 2"/>
   </g>
   <g id="line2d_48">
    <path d="M 165.7206 62.7588 
L 165.7206 62.7588 
L 165.7206 62.758797 
L 165.720599 62.758767 
L 165.720603 62.758741 
L 165.720606 62.758721 
L 165.720609 62.758707 
L 165.720611 62.7587 
L 165.72061 62.758699 
L 165.720606 62.758707 
L 165.720599 62.758726 
L 165.72059 62.758749 
L 165.72058 62.758775 
L 165.720571 62.758803 
L 165.720562 62.758831 
L 165.720558 62.758862 
L 165.720558 62.758892 
L 165.720561 62.758923 
L 165.720566 62.758952 
L 165.720572 62.758979 
" clip-path="url(#pc12022dc4f)" style="fill: none; stroke: #6a5acd; stroke-width: 2; stroke-linecap: square"/>
   </g>
   <g id="line2d_49">
    <path d="M 165.720614 30.326534 
L 165.720615 30.326529 
L 165.720616 30.32652 
L 165.720616 30.326508 
L 165.720616 30.326493 
L 165.720615 30.326475 
L 165.720612 30.326454 
L 165.720609 30.326432 
L 165.720605 30.32641 
L 165.720602 30.326393 
L 165.720599 30.326382 
L 165.720599 30.326378 
L 165.720599 30.326378 
" clip-path="url(#pc12022dc4f)" style="fill: none; stroke-dasharray: 2,3.3; stroke-dashoffset: 0; stroke: #808000; stroke-width: 2"/>
   </g>
   <g id="line2d_50">
    <path d="M 165.7206 30.3264 
L 165.7206 30.3264 
L 165.7206 30.326398 
L 165.720603 30.326374 
L 165.720607 30.326333 
L 165.720608 30.326303 
L 165.720608 30.326285 
L 165.720609 30.326278 
L 165.720611 30.326286 
L 165.720616 30.326304 
L 165.720622 30.32633 
L 165.720624 30.32636 
L 165.720622 30.326408 
L 165.720619 30.326449 
L 165.720616 30.326482 
L 165.720615 30.326507 
L 165.720614 30.326522 
L 165.720613 30.326532 
L 165.720614 30.326535 
L 165.720614 30.326534 
" clip-path="url(#pc12022dc4f)" style="fill: none; stroke: #808000; stroke-width: 2; stroke-linecap: square"/>
   </g>
   <g id="line2d_51">
    <path clip-path="url(#pc12022dc4f)" style="fill: none; stroke-dasharray: 2,3.3; stroke-dashoffset: 0; stroke: #a0522d; stroke-width: 2"/>
   </g>
   <g id="line2d_52">
    <path clip-path="url(#pc12022dc4f)" style="fill: none; stroke: #a0522d; stroke-width: 2; stroke-linecap: square"/>
   </g>
   <g id="line2d_53">
    <path d="M 165.720539 192.488451 
L 165.720556 192.488414 
L 165.720574 192.488378 
L 165.72059 192.488347 
L 165.720603 192.488326 
L 165.720613 192.488316 
L 165.72062 192.488317 
L 165.720624 192.488327 
L 165.720626 192.488343 
L 165.720625 192.488361 
L 165.720624 192.488375 
L 165.720623 192.488382 
L 165.720623 192.488382 
" clip-path="url(#pc12022dc4f)" style="fill: none; stroke-dasharray: 2,3.3; stroke-dashoffset: 0; stroke: #ff4500; stroke-width: 2"/>
   </g>
   <g id="line2d_54">
    <path d="M 165.7206 192.4884 
L 165.7206 192.4884 
L 165.720601 192.488405 
L 165.720611 192.488452 
L 165.720617 192.488491 
L 165.720591 192.488535 
L 165.720574 192.488568 
L 165.720557 192.488592 
L 165.720554 192.48862 
L 165.720547 192.488655 
L 165.720505 192.488686 
L 165.72045 192.488683 
L 165.720421 192.488672 
L 165.720425 192.488655 
L 165.72044 192.488631 
L 165.720459 192.488601 
L 165.720479 192.488566 
L 165.7205 192.488528 
L 165.72052 192.488489 
L 165.720539 192.488451 
" clip-path="url(#pc12022dc4f)" style="fill: none; stroke: #ff4500; stroke-width: 2; stroke-linecap: square"/>
   </g>
   <g id="line2d_55">
    <path d="M 165.720671 224.920639 
L 165.720666 224.920642 
L 165.720661 224.920648 
L 165.720654 224.920659 
L 165.720647 224.920674 
L 165.720639 224.920694 
L 165.72063 224.920716 
L 165.720621 224.920741 
L 165.720613 224.920765 
L 165.720606 224.920785 
L 165.720602 224.920797 
L 165.7206 224.920802 
L 165.7206 224.920802 
" clip-path="url(#pc12022dc4f)" style="fill: none; stroke-dasharray: 2,3.3; stroke-dashoffset: 0; stroke: #708090; stroke-width: 2"/>
   </g>
   <g id="line2d_56">
    <path d="M 165.7206 224.9208 
L 165.7206 224.9208 
L 165.720602 224.920799 
L 165.720621 224.92079 
L 165.720636 224.920783 
L 165.720647 224.920788 
L 165.720655 224.920803 
L 165.720661 224.920807 
L 165.720666 224.920806 
L 165.720669 224.920799 
L 165.720672 224.920786 
L 165.720674 224.920768 
L 165.720677 224.920745 
L 165.72068 224.92072 
L 165.72068 224.920698 
L 165.720682 224.920675 
L 165.720682 224.920658 
L 165.720679 224.920647 
L 165.720676 224.920642 
L 165.720671 224.920639 
" clip-path="url(#pc12022dc4f)" style="fill: none; stroke: #708090; stroke-width: 2; stroke-linecap: square"/>
   </g>
   <g id="line2d_57">
    <path clip-path="url(#pc12022dc4f)" style="fill: none; stroke-dasharray: 2,3.3; stroke-dashoffset: 0; stroke: #bdb76b; stroke-width: 2"/>
   </g>
   <g id="line2d_58">
    <path clip-path="url(#pc12022dc4f)" style="fill: none; stroke: #bdb76b; stroke-width: 2; stroke-linecap: square"/>
   </g>
   <g id="patch_3">
    <path d="M 100.8558 224.9208 
L 100.8558 30.3264 
" style="fill: none; stroke: #000000; stroke-width: 0.8; stroke-linejoin: miter; stroke-linecap: square"/>
   </g>
   <g id="patch_4">
    <path d="M 295.4502 224.9208 
L 295.4502 30.3264 
" style="fill: none; stroke: #000000; stroke-width: 0.8; stroke-linejoin: miter; stroke-linecap: square"/>
   </g>
   <g id="patch_5">
    <path d="M 100.8558 224.9208 
L 295.4502 224.9208 
" style="fill: none; stroke: #000000; stroke-width: 0.8; stroke-linejoin: miter; stroke-linecap: square"/>
   </g>
   <g id="patch_6">
    <path d="M 100.8558 30.3264 
L 295.4502 30.3264 
" style="fill: none; stroke: #000000; stroke-width: 0.8; stroke-linejoin: miter; stroke-linecap: square"/>
   </g>
   <g id="patch_7">
    <path d="M 263.017818 137.353322 
C 265.59817 137.353322 268.073185 136.328137 269.897769 134.503553 
C 271.722354 132.678969 272.747538 130.203954 272.747538 127.623602 
C 272.747538 125.04325 271.722354 122.568235 269.897769 120.743651 
C 268.073185 118.919067 265.59817 117.893882 263.017818 117.893882 
C 260.437466 117.893882 257.962452 118.919067 256.137867 120.743651 
C 254.313283 122.568235 253.288098 125.04325 253.288098 127.623602 
C 253.288098 130.203954 254.313283 132.678969 256.137867 134.503553 
C 257.962452 136.328137 260.437466 137.353322 263.017818 137.353322 
z
" clip-path="url(#pc12022dc4f)" style="fill: #1f77b4; stroke: #000000; stroke-linejoin: miter"/>
   </g>
   <g id="patch_8">
    <path d="M 241.510508 140.937158 
C 244.09086 140.937158 246.565874 139.911973 248.390459 138.087389 
C 250.215043 136.262805 251.240228 133.78779 251.240228 131.207438 
C 251.240228 128.627086 250.215043 126.152071 248.390459 124.327487 
C 246.565874 122.502903 244.09086 121.477718 241.510508 121.477718 
C 238.930156 121.477718 236.455141 122.502903 234.630557 124.327487 
C 232.805972 126.152071 231.780788 128.627086 231.780788 131.207438 
C 231.780788 133.78779 232.805972 136.262805 234.630557 138.087389 
C 236.455141 139.911973 238.930156 140.937158 241.510508 140.937158 
z
" clip-path="url(#pc12022dc4f)" style="fill: #ff7f0e; stroke: #000000; stroke-linejoin: miter"/>
   </g>
   <g id="patch_9">
    <path d="M 133.28823 104.920668 
C 135.868582 104.920668 138.343597 103.895483 140.168181 102.070899 
C 141.992765 100.246314 143.01795 97.7713 143.01795 95.190948 
C 143.01795 92.610596 141.992765 90.135581 140.168181 88.310997 
C 138.343597 86.486412 135.868582 85.461228 133.28823 85.461228 
C 130.707878 85.461228 128.232863 86.486412 126.408279 88.310997 
C 124.583695 90.135581 123.55851 92.610596 123.55851 95.190948 
C 123.55851 97.7713 124.583695 100.246314 126.408279 102.070899 
C 128.232863 103.895483 130.707878 104.920668 133.28823 104.920668 
z
" clip-path="url(#pc12022dc4f)" style="fill: #2ca02c; stroke: #000000; stroke-linejoin: miter"/>
   </g>
   <g id="patch_10">
    <path d="M 165.720509 104.920915 
C 168.300861 104.920915 170.775876 103.89573 172.60046 102.071146 
C 174.425044 100.246562 175.450229 97.771547 175.450229 95.191195 
C 175.450229 92.610843 174.425044 90.135828 172.60046 88.311244 
C 170.775876 86.48666 168.300861 85.461475 165.720509 85.461475 
C 163.140157 85.461475 160.665142 86.48666 158.840558 88.311244 
C 157.015974 90.135828 155.990789 92.610843 155.990789 95.191195 
C 155.990789 97.771547 157.015974 100.246562 158.840558 102.071146 
C 160.665142 103.89573 163.140157 104.920915 165.720509 104.920915 
z
" clip-path="url(#pc12022dc4f)" style="fill: #d62728; stroke: #000000; stroke-linejoin: miter"/>
   </g>
   <g id="patch_11">
    <path d="M 230.585721 104.920399 
C 233.166073 104.920399 235.641088 103.895215 237.465672 102.07063 
C 239.290257 100.246046 240.315441 97.771031 240.315441 95.190679 
C 240.315441 92.610327 239.290257 90.135313 237.465672 88.310728 
C 235.641088 86.486144 233.166073 85.460959 230.585721 85.460959 
C 228.00537 85.460959 225.530355 86.486144 223.705771 88.310728 
C 221.881186 90.135313 220.856001 92.610327 220.856001 95.190679 
C 220.856001 97.771031 221.881186 100.246046 223.705771 102.07063 
C 225.530355 103.895215 228.00537 104.920399 230.585721 104.920399 
z
" clip-path="url(#pc12022dc4f)" style="fill: #9467bd; stroke: #000000; stroke-linejoin: miter"/>
   </g>
   <g id="patch_12">
    <path d="M 263.017765 104.920683 
C 265.598117 104.920683 268.073132 103.895498 269.897716 102.070914 
C 271.722301 100.24633 272.747485 97.771315 272.747485 95.190963 
C 272.747485 92.610611 271.722301 90.135596 269.897716 88.311012 
C 268.073132 86.486428 265.598117 85.461243 263.017765 85.461243 
C 260.437413 85.461243 257.962399 86.486428 256.137814 88.311012 
C 254.31323 90.135596 253.288045 92.610611 253.288045 95.190963 
C 253.288045 97.771315 254.31323 100.24633 256.137814 102.070914 
C 257.962399 103.895498 260.437413 104.920683 263.017765 104.920683 
z
" clip-path="url(#pc12022dc4f)" style="fill: #8c564b; stroke: #000000; stroke-linejoin: miter"/>
   </g>
   <g id="patch_13">
    <path d="M 133.288249 169.785911 
C 135.868601 169.785911 138.343616 168.760727 140.1682 166.936142 
C 141.992784 165.111558 143.017969 162.636543 143.017969 160.056191 
C 143.017969 157.475839 141.992784 155.000825 140.1682 153.17624 
C 138.343616 151.351656 135.868601 150.326471 133.288249 150.326471 
C 130.707897 150.326471 128.232882 151.351656 126.408298 153.17624 
C 124.583714 155.000825 123.558529 157.475839 123.558529 160.056191 
C 123.558529 162.636543 124.583714 165.111558 126.408298 166.936142 
C 128.232882 168.760727 130.707897 169.785911 133.288249 169.785911 
z
" clip-path="url(#pc12022dc4f)" style="fill: #e377c2; stroke: #000000; stroke-linejoin: miter"/>
   </g>
   <g id="patch_14">
    <path d="M 165.720453 169.785492 
C 168.300805 169.785492 170.77582 168.760307 172.600404 166.935723 
C 174.424989 165.111139 175.450173 162.636124 175.450173 160.055772 
C 175.450173 157.47542 174.424989 155.000405 172.600404 153.175821 
C 170.77582 151.351237 168.300805 150.326052 165.720453 150.326052 
C 163.140101 150.326052 160.665087 151.351237 158.840502 153.175821 
C 157.015918 155.000405 155.990733 157.47542 155.990733 160.055772 
C 155.990733 162.636124 157.015918 165.111139 158.840502 166.935723 
C 160.665087 168.760307 163.140101 169.785492 165.720453 169.785492 
z
" clip-path="url(#pc12022dc4f)" style="fill: #7f7f7f; stroke: #000000; stroke-linejoin: miter"/>
   </g>
   <g id="patch_15">
    <path d="M 230.585623 169.785756 
C 233.165974 169.785756 235.640989 168.760571 237.465574 166.935987 
C 239.290158 165.111403 240.315343 162.636388 240.315343 160.056036 
C 240.315343 157.475684 239.290158 155.000669 237.465574 153.176085 
C 235.640989 151.351501 233.165974 150.326316 230.585623 150.326316 
C 228.005271 150.326316 225.530256 151.351501 223.705672 153.176085 
C 221.881087 155.000669 220.855903 157.475684 220.855903 160.056036 
C 220.855903 162.636388 221.881087 165.111403 223.705672 166.935987 
C 225.530256 168.760571 228.005271 169.785756 230.585623 169.785756 
z
" clip-path="url(#pc12022dc4f)" style="fill: #bcbd22; stroke: #000000; stroke-linejoin: miter"/>
   </g>
   <g id="patch_16">
    <path d="M 263.017779 169.78594 
C 265.598131 169.78594 268.073146 168.760755 269.89773 166.936171 
C 271.722314 165.111587 272.747499 162.636572 272.747499 160.05622 
C 272.747499 157.475868 271.722314 155.000853 269.89773 153.176269 
C 268.073146 151.351685 265.598131 150.3265 263.017779 150.3265 
C 260.437427 150.3265 257.962413 151.351685 256.137828 153.176269 
C 254.313244 155.000853 253.288059 157.475868 253.288059 160.05622 
C 253.288059 162.636572 254.313244 165.111587 256.137828 166.936171 
C 257.962413 168.760755 260.437427 169.78594 263.017779 169.78594 
z
" clip-path="url(#pc12022dc4f)" style="fill: #17becf; stroke: #000000; stroke-linejoin: miter"/>
   </g>
   <g id="patch_17">
    <path d="M 230.585867 72.488547 
C 233.166219 72.488547 235.641234 71.463362 237.465818 69.638778 
C 239.290402 67.814193 240.315587 65.339178 240.315587 62.758827 
C 240.315587 60.178475 239.290402 57.70346 237.465818 55.878876 
C 235.641234 54.054291 233.166219 53.029107 230.585867 53.029107 
C 228.005515 53.029107 225.5305 54.054291 223.705916 55.878876 
C 221.881332 57.70346 220.856147 60.178475 220.856147 62.758827 
C 220.856147 65.339178 221.881332 67.814193 223.705916 69.638778 
C 225.5305 71.463362 228.005515 72.488547 230.585867 72.488547 
z
" clip-path="url(#pc12022dc4f)" style="fill: #2f4f4f; stroke: #000000; stroke-linejoin: miter"/>
   </g>
   <g id="patch_18">
    <path d="M 230.58532 40.056334 
C 233.165672 40.056334 235.640687 39.031149 237.465271 37.206565 
C 239.289856 35.381981 240.31504 32.906966 240.31504 30.326614 
C 240.31504 27.746262 239.289856 25.271247 237.465271 23.446663 
C 235.640687 21.622079 233.165672 20.596894 230.58532 20.596894 
C 228.004969 20.596894 225.529954 21.622079 223.705369 23.446663 
C 221.880785 25.271247 220.8556 27.746262 220.8556 30.326614 
C 220.8556 32.906966 221.880785 35.381981 223.705369 37.206565 
C 225.529954 39.031149 228.004969 40.056334 230.58532 40.056334 
z
" clip-path="url(#pc12022dc4f)" style="fill: #cd5c5c; stroke: #000000; stroke-linejoin: miter"/>
   </g>
   <g id="patch_19">
    <path d="M 230.585984 7.623657 
C 233.166336 7.623657 235.64135 6.598472 237.465935 4.773888 
C 239.290519 2.949304 240.315704 0.474289 240.315704 -2.106063 
C 240.315704 -4.686415 239.290519 -7.16143 237.465935 -8.986014 
C 235.64135 -10.810598 233.166336 -11.835783 230.585984 -11.835783 
C 228.005632 -11.835783 225.530617 -10.810598 223.706033 -8.986014 
C 221.881448 -7.16143 220.856264 -4.686415 220.856264 -2.106063 
C 220.856264 0.474289 221.881448 2.949304 223.706033 4.773888 
C 225.530617 6.598472 228.005632 7.623657 230.585984 7.623657 
z
" clip-path="url(#pc12022dc4f)" style="fill: #add8e6; stroke: #000000; stroke-linejoin: miter"/>
   </g>
   <g id="patch_20">
    <path d="M 230.585869 202.218177 
C 233.166221 202.218177 235.641236 201.192992 237.46582 199.368408 
C 239.290405 197.543823 240.315589 195.068808 240.315589 192.488457 
C 240.315589 189.908105 239.290405 187.43309 237.46582 185.608506 
C 235.641236 183.783921 233.166221 182.758737 230.585869 182.758737 
C 228.005517 182.758737 225.530503 183.783921 223.705918 185.608506 
C 221.881334 187.43309 220.856149 189.908105 220.856149 192.488457 
C 220.856149 195.068808 221.881334 197.543823 223.705918 199.368408 
C 225.530503 201.192992 228.005517 202.218177 230.585869 202.218177 
z
" clip-path="url(#pc12022dc4f)" style="fill: #663399; stroke: #000000; stroke-linejoin: miter"/>
   </g>
   <g id="patch_21">
    <path d="M 230.58533 234.650523 
C 233.165682 234.650523 235.640696 233.625338 237.465281 231.800754 
C 239.289865 229.97617 240.31505 227.501155 240.31505 224.920803 
C 240.31505 222.340451 239.289865 219.865436 237.465281 218.040852 
C 235.640696 216.216268 233.165682 215.191083 230.58533 215.191083 
C 228.004978 215.191083 225.529963 216.216268 223.705379 218.040852 
C 221.880794 219.865436 220.85561 222.340451 220.85561 224.920803 
C 220.85561 227.501155 221.880794 229.97617 223.705379 231.800754 
C 225.529963 233.625338 228.004978 234.650523 230.58533 234.650523 
z
" clip-path="url(#pc12022dc4f)" style="fill: #8fbc8f; stroke: #000000; stroke-linejoin: miter"/>
   </g>
   <g id="patch_22">
    <path d="M 230.586272 267.082919 
C 233.166623 267.082919 235.641638 266.057734 237.466223 264.23315 
C 239.290807 262.408565 240.315992 259.933551 240.315992 257.353199 
C 240.315992 254.772847 239.290807 252.297832 237.466223 250.473248 
C 235.641638 248.648663 233.166623 247.623479 230.586272 247.623479 
C 228.00592 247.623479 225.530905 248.648663 223.706321 250.473248 
C 221.881736 252.297832 220.856552 254.772847 220.856552 257.353199 
C 220.856552 259.933551 221.881736 262.408565 223.706321 264.23315 
C 225.530905 266.057734 228.00592 267.082919 230.586272 267.082919 
z
" clip-path="url(#pc12022dc4f)" style="fill: #00ced1; stroke: #000000; stroke-linejoin: miter"/>
   </g>
   <g id="patch_23">
    <path d="M 165.720572 72.488699 
C 168.300924 72.488699 170.775939 71.463514 172.600523 69.63893 
C 174.425108 67.814345 175.450292 65.339331 175.450292 62.758979 
C 175.450292 60.178627 174.425108 57.703612 172.600523 55.879028 
C 170.775939 54.054443 168.300924 53.029259 165.720572 53.029259 
C 163.14022 53.029259 160.665206 54.054443 158.840621 55.879028 
C 157.016037 57.703612 155.990852 60.178627 155.990852 62.758979 
C 155.990852 65.339331 157.016037 67.814345 158.840621 69.63893 
C 160.665206 71.463514 163.14022 72.488699 165.720572 72.488699 
z
" clip-path="url(#pc12022dc4f)" style="fill: #6a5acd; stroke: #000000; stroke-linejoin: miter"/>
   </g>
   <g id="patch_24">
    <path d="M 165.720614 40.056254 
C 168.300966 40.056254 170.775981 39.031069 172.600565 37.206485 
C 174.425149 35.3819 175.450334 32.906886 175.450334 30.326534 
C 175.450334 27.746182 174.425149 25.271167 172.600565 23.446583 
C 170.775981 21.621998 168.300966 20.596814 165.720614 20.596814 
C 163.140262 20.596814 160.665247 21.621998 158.840663 23.446583 
C 157.016079 25.271167 155.990894 27.746182 155.990894 30.326534 
C 155.990894 32.906886 157.016079 35.3819 158.840663 37.206485 
C 160.665247 39.031069 163.140262 40.056254 165.720614 40.056254 
z
" clip-path="url(#pc12022dc4f)" style="fill: #808000; stroke: #000000; stroke-linejoin: miter"/>
   </g>
   <g id="patch_25">
    <path d="M 165.720576 7.623718 
C 168.300928 7.623718 170.775943 6.598534 172.600527 4.773949 
C 174.425112 2.949365 175.450296 0.47435 175.450296 -2.106002 
C 175.450296 -4.686353 174.425112 -7.161368 172.600527 -8.985953 
C 170.775943 -10.810537 168.300928 -11.835722 165.720576 -11.835722 
C 163.140224 -11.835722 160.66521 -10.810537 158.840625 -8.985953 
C 157.016041 -7.161368 155.990856 -4.686353 155.990856 -2.106002 
C 155.990856 0.47435 157.016041 2.949365 158.840625 4.773949 
C 160.66521 6.598534 163.140224 7.623718 165.720576 7.623718 
z
" clip-path="url(#pc12022dc4f)" style="fill: #a0522d; stroke: #000000; stroke-linejoin: miter"/>
   </g>
   <g id="patch_26">
    <path d="M 165.720539 202.218171 
C 168.300891 202.218171 170.775905 201.192986 172.60049 199.368402 
C 174.425074 197.543818 175.450259 195.068803 175.450259 192.488451 
C 175.450259 189.908099 174.425074 187.433084 172.60049 185.6085 
C 170.775905 183.783916 168.300891 182.758731 165.720539 182.758731 
C 163.140187 182.758731 160.665172 183.783916 158.840588 185.6085 
C 157.016003 187.433084 155.990819 189.908099 155.990819 192.488451 
C 155.990819 195.068803 157.016003 197.543818 158.840588 199.368402 
C 160.665172 201.192986 163.140187 202.218171 165.720539 202.218171 
z
" clip-path="url(#pc12022dc4f)" style="fill: #ff4500; stroke: #000000; stroke-linejoin: miter"/>
   </g>
   <g id="patch_27">
    <path d="M 165.720671 234.650359 
C 168.301023 234.650359 170.776038 233.625175 172.600622 231.80059 
C 174.425207 229.976006 175.450391 227.500991 175.450391 224.920639 
C 175.450391 222.340288 174.425207 219.865273 172.600622 218.040688 
C 170.776038 216.216104 168.301023 215.190919 165.720671 215.190919 
C 163.140319 215.190919 160.665305 216.216104 158.84072 218.040688 
C 157.016136 219.865273 155.990951 222.340288 155.990951 224.920639 
C 155.990951 227.500991 157.016136 229.976006 158.84072 231.80059 
C 160.665305 233.625175 163.140319 234.650359 165.720671 234.650359 
z
" clip-path="url(#pc12022dc4f)" style="fill: #708090; stroke: #000000; stroke-linejoin: miter"/>
   </g>
   <g id="patch_28">
    <path d="M 165.720153 267.08292 
C 168.300505 267.08292 170.775519 266.057735 172.600104 264.233151 
C 174.424688 262.408566 175.449873 259.933551 175.449873 257.3532 
C 175.449873 254.772848 174.424688 252.297833 172.600104 250.473249 
C 170.775519 248.648664 168.300505 247.62348 165.720153 247.62348 
C 163.139801 247.62348 160.664786 248.648664 158.840202 250.473249 
C 157.015617 252.297833 155.990433 254.772848 155.990433 257.3532 
C 155.990433 259.933551 157.015617 262.408566 158.840202 264.233151 
C 160.664786 266.057735 163.139801 267.08292 165.720153 267.08292 
z
" clip-path="url(#pc12022dc4f)" style="fill: #bdb76b; stroke: #000000; stroke-linejoin: miter"/>
   </g>
   <g id="line2d_59">
    <path d="M 263.0178 127.6236 
" clip-path="url(#pc12022dc4f)" style="fill: none; stroke: #1f77b4; stroke-width: 1.5; stroke-linecap: square"/>
    <defs>
     <path id="mc7063c01f0" d="M 0 4.949747 
L 2.969848 0 
L 0 -4.949747 
L -2.969848 0 
z
" style="stroke: #000000; stroke-linejoin: miter"/>
    </defs>
    <g clip-path="url(#pc12022dc4f)">
     <use xlink:href="#mc7063c01f0" x="263.0178" y="127.6236" style="fill: #1f77b4; stroke: #000000; stroke-linejoin: miter"/>
    </g>
   </g>
   <g id="line2d_60">
    <path d="M 263.0178 127.6236 
" clip-path="url(#pc12022dc4f)" style="fill: none; stroke: #ff7f0e; stroke-width: 1.5; stroke-linecap: square"/>
    <defs>
     <path id="me545a0d585" d="M 0 4.949747 
L 2.969848 0 
L 0 -4.949747 
L -2.969848 0 
z
" style="stroke: #000000; stroke-linejoin: miter"/>
    </defs>
    <g clip-path="url(#pc12022dc4f)">
     <use xlink:href="#me545a0d585" x="263.0178" y="127.6236" style="fill: #ff7f0e; stroke: #000000; stroke-linejoin: miter"/>
    </g>
   </g>
   <g id="line2d_61">
    <path d="M 133.2882 95.1912 
" clip-path="url(#pc12022dc4f)" style="fill: none; stroke: #2ca02c; stroke-width: 1.5; stroke-linecap: square"/>
    <defs>
     <path id="mda488983a4" d="M 0 4.949747 
L 2.969848 0 
L 0 -4.949747 
L -2.969848 0 
z
" style="stroke: #000000; stroke-linejoin: miter"/>
    </defs>
    <g clip-path="url(#pc12022dc4f)">
     <use xlink:href="#mda488983a4" x="133.2882" y="95.1912" style="fill: #2ca02c; stroke: #000000; stroke-linejoin: miter"/>
    </g>
   </g>
   <g id="line2d_62">
    <path d="M 165.7206 95.1912 
" clip-path="url(#pc12022dc4f)" style="fill: none; stroke: #d62728; stroke-width: 1.5; stroke-linecap: square"/>
    <defs>
     <path id="m5c3e9429ea" d="M 0 4.949747 
L 2.969848 0 
L 0 -4.949747 
L -2.969848 0 
z
" style="stroke: #000000; stroke-linejoin: miter"/>
    </defs>
    <g clip-path="url(#pc12022dc4f)">
     <use xlink:href="#m5c3e9429ea" x="165.7206" y="95.1912" style="fill: #d62728; stroke: #000000; stroke-linejoin: miter"/>
    </g>
   </g>
   <g id="line2d_63">
    <path d="M 230.5854 95.1912 
" clip-path="url(#pc12022dc4f)" style="fill: none; stroke: #9467bd; stroke-width: 1.5; stroke-linecap: square"/>
    <defs>
     <path id="m993208055a" d="M 0 4.949747 
L 2.969848 0 
L 0 -4.949747 
L -2.969848 0 
z
" style="stroke: #000000; stroke-linejoin: miter"/>
    </defs>
    <g clip-path="url(#pc12022dc4f)">
     <use xlink:href="#m993208055a" x="230.5854" y="95.1912" style="fill: #9467bd; stroke: #000000; stroke-linejoin: miter"/>
    </g>
   </g>
   <g id="line2d_64">
    <path d="M 263.0178 95.1912 
" clip-path="url(#pc12022dc4f)" style="fill: none; stroke: #8c564b; stroke-width: 1.5; stroke-linecap: square"/>
    <defs>
     <path id="m35901bf382" d="M 0 4.949747 
L 2.969848 0 
L 0 -4.949747 
L -2.969848 0 
z
" style="stroke: #000000; stroke-linejoin: miter"/>
    </defs>
    <g clip-path="url(#pc12022dc4f)">
     <use xlink:href="#m35901bf382" x="263.0178" y="95.1912" style="fill: #8c564b; stroke: #000000; stroke-linejoin: miter"/>
    </g>
   </g>
   <g id="line2d_65">
    <path d="M 133.2882 160.056 
" clip-path="url(#pc12022dc4f)" style="fill: none; stroke: #e377c2; stroke-width: 1.5; stroke-linecap: square"/>
    <defs>
     <path id="mcb30b39cd2" d="M 0 4.949747 
L 2.969848 0 
L 0 -4.949747 
L -2.969848 0 
z
" style="stroke: #000000; stroke-linejoin: miter"/>
    </defs>
    <g clip-path="url(#pc12022dc4f)">
     <use xlink:href="#mcb30b39cd2" x="133.2882" y="160.056" style="fill: #e377c2; stroke: #000000; stroke-linejoin: miter"/>
    </g>
   </g>
   <g id="line2d_66">
    <path d="M 165.7206 160.056 
" clip-path="url(#pc12022dc4f)" style="fill: none; stroke: #7f7f7f; stroke-width: 1.5; stroke-linecap: square"/>
    <defs>
     <path id="md1d41afe8a" d="M 0 4.949747 
L 2.969848 0 
L 0 -4.949747 
L -2.969848 0 
z
" style="stroke: #000000; stroke-linejoin: miter"/>
    </defs>
    <g clip-path="url(#pc12022dc4f)">
     <use xlink:href="#md1d41afe8a" x="165.7206" y="160.056" style="fill: #7f7f7f; stroke: #000000; stroke-linejoin: miter"/>
    </g>
   </g>
   <g id="line2d_67">
    <path d="M 230.5854 160.056 
" clip-path="url(#pc12022dc4f)" style="fill: none; stroke: #bcbd22; stroke-width: 1.5; stroke-linecap: square"/>
    <defs>
     <path id="m0b1f6c81bd" d="M 0 4.949747 
L 2.969848 0 
L 0 -4.949747 
L -2.969848 0 
z
" style="stroke: #000000; stroke-linejoin: miter"/>
    </defs>
    <g clip-path="url(#pc12022dc4f)">
     <use xlink:href="#m0b1f6c81bd" x="230.5854" y="160.056" style="fill: #bcbd22; stroke: #000000; stroke-linejoin: miter"/>
    </g>
   </g>
   <g id="line2d_68">
    <path d="M 263.0178 160.056 
" clip-path="url(#pc12022dc4f)" style="fill: none; stroke: #17becf; stroke-width: 1.5; stroke-linecap: square"/>
    <defs>
     <path id="m3dc47a969f" d="M 0 4.949747 
L 2.969848 0 
L 0 -4.949747 
L -2.969848 0 
z
" style="stroke: #000000; stroke-linejoin: miter"/>
    </defs>
    <g clip-path="url(#pc12022dc4f)">
     <use xlink:href="#m3dc47a969f" x="263.0178" y="160.056" style="fill: #17becf; stroke: #000000; stroke-linejoin: miter"/>
    </g>
   </g>
   <g id="line2d_69">
    <path d="M 230.5854 62.7588 
" clip-path="url(#pc12022dc4f)" style="fill: none; stroke: #2f4f4f; stroke-width: 1.5; stroke-linecap: square"/>
    <defs>
     <path id="m4a1237a930" d="M 0 4.949747 
L 2.969848 0 
L 0 -4.949747 
L -2.969848 0 
z
" style="stroke: #000000; stroke-linejoin: miter"/>
    </defs>
    <g clip-path="url(#pc12022dc4f)">
     <use xlink:href="#m4a1237a930" x="230.5854" y="62.7588" style="fill: #2f4f4f; stroke: #000000; stroke-linejoin: miter"/>
    </g>
   </g>
   <g id="line2d_70">
    <path d="M 230.5854 30.3264 
" clip-path="url(#pc12022dc4f)" style="fill: none; stroke: #cd5c5c; stroke-width: 1.5; stroke-linecap: square"/>
    <defs>
     <path id="mf2db417a63" d="M 0 4.949747 
L 2.969848 0 
L 0 -4.949747 
L -2.969848 0 
z
" style="stroke: #000000; stroke-linejoin: miter"/>
    </defs>
    <g clip-path="url(#pc12022dc4f)">
     <use xlink:href="#mf2db417a63" x="230.5854" y="30.3264" style="fill: #cd5c5c; stroke: #000000; stroke-linejoin: miter"/>
    </g>
   </g>
   <g id="line2d_71">
    <path clip-path="url(#pc12022dc4f)" style="fill: none; stroke: #add8e6; stroke-width: 1.5; stroke-linecap: square"/>
    <defs>
     <path id="m8ec41d4569" d="M 0 4.949747 
L 2.969848 0 
L 0 -4.949747 
L -2.969848 0 
z
" style="stroke: #000000; stroke-linejoin: miter"/>
    </defs>
    <g clip-path="url(#pc12022dc4f)"/>
   </g>
   <g id="line2d_72">
    <path d="M 230.5854 192.4884 
" clip-path="url(#pc12022dc4f)" style="fill: none; stroke: #663399; stroke-width: 1.5; stroke-linecap: square"/>
    <defs>
     <path id="m8caa50748b" d="M 0 4.949747 
L 2.969848 0 
L 0 -4.949747 
L -2.969848 0 
z
" style="stroke: #000000; stroke-linejoin: miter"/>
    </defs>
    <g clip-path="url(#pc12022dc4f)">
     <use xlink:href="#m8caa50748b" x="230.5854" y="192.4884" style="fill: #663399; stroke: #000000; stroke-linejoin: miter"/>
    </g>
   </g>
   <g id="line2d_73">
    <path d="M 230.5854 224.9208 
" clip-path="url(#pc12022dc4f)" style="fill: none; stroke: #8fbc8f; stroke-width: 1.5; stroke-linecap: square"/>
    <defs>
     <path id="m0b5358306c" d="M 0 4.949747 
L 2.969848 0 
L 0 -4.949747 
L -2.969848 0 
z
" style="stroke: #000000; stroke-linejoin: miter"/>
    </defs>
    <g clip-path="url(#pc12022dc4f)">
     <use xlink:href="#m0b5358306c" x="230.5854" y="224.9208" style="fill: #8fbc8f; stroke: #000000; stroke-linejoin: miter"/>
    </g>
   </g>
   <g id="line2d_74">
    <path clip-path="url(#pc12022dc4f)" style="fill: none; stroke: #00ced1; stroke-width: 1.5; stroke-linecap: square"/>
    <defs>
     <path id="mfccb3ccbf1" d="M 0 4.949747 
L 2.969848 0 
L 0 -4.949747 
L -2.969848 0 
z
" style="stroke: #000000; stroke-linejoin: miter"/>
    </defs>
    <g clip-path="url(#pc12022dc4f)">
     <use xlink:href="#mfccb3ccbf1" x="230.5854" y="257.3532" style="fill: #00ced1; stroke: #000000; stroke-linejoin: miter"/>
    </g>
   </g>
   <g id="line2d_75">
    <path d="M 165.7206 62.7588 
" clip-path="url(#pc12022dc4f)" style="fill: none; stroke: #6a5acd; stroke-width: 1.5; stroke-linecap: square"/>
    <defs>
     <path id="m903facf8d3" d="M 0 4.949747 
L 2.969848 0 
L 0 -4.949747 
L -2.969848 0 
z
" style="stroke: #000000; stroke-linejoin: miter"/>
    </defs>
    <g clip-path="url(#pc12022dc4f)">
     <use xlink:href="#m903facf8d3" x="165.7206" y="62.7588" style="fill: #6a5acd; stroke: #000000; stroke-linejoin: miter"/>
    </g>
   </g>
   <g id="line2d_76">
    <path d="M 165.7206 30.3264 
" clip-path="url(#pc12022dc4f)" style="fill: none; stroke: #808000; stroke-width: 1.5; stroke-linecap: square"/>
    <defs>
     <path id="ma6feb993a6" d="M 0 4.949747 
L 2.969848 0 
L 0 -4.949747 
L -2.969848 0 
z
" style="stroke: #000000; stroke-linejoin: miter"/>
    </defs>
    <g clip-path="url(#pc12022dc4f)">
     <use xlink:href="#ma6feb993a6" x="165.7206" y="30.3264" style="fill: #808000; stroke: #000000; stroke-linejoin: miter"/>
    </g>
   </g>
   <g id="line2d_77">
    <path clip-path="url(#pc12022dc4f)" style="fill: none; stroke: #a0522d; stroke-width: 1.5; stroke-linecap: square"/>
    <defs>
     <path id="m5c903c14e3" d="M 0 4.949747 
L 2.969848 0 
L 0 -4.949747 
L -2.969848 0 
z
" style="stroke: #000000; stroke-linejoin: miter"/>
    </defs>
    <g clip-path="url(#pc12022dc4f)"/>
   </g>
   <g id="line2d_78">
    <path d="M 165.7206 192.4884 
" clip-path="url(#pc12022dc4f)" style="fill: none; stroke: #ff4500; stroke-width: 1.5; stroke-linecap: square"/>
    <defs>
     <path id="mdfbb0c579f" d="M 0 4.949747 
L 2.969848 0 
L 0 -4.949747 
L -2.969848 0 
z
" style="stroke: #000000; stroke-linejoin: miter"/>
    </defs>
    <g clip-path="url(#pc12022dc4f)">
     <use xlink:href="#mdfbb0c579f" x="165.7206" y="192.4884" style="fill: #ff4500; stroke: #000000; stroke-linejoin: miter"/>
    </g>
   </g>
   <g id="line2d_79">
    <path d="M 165.7206 224.9208 
" clip-path="url(#pc12022dc4f)" style="fill: none; stroke: #708090; stroke-width: 1.5; stroke-linecap: square"/>
    <defs>
     <path id="md01f73aecf" d="M 0 4.949747 
L 2.969848 0 
L 0 -4.949747 
L -2.969848 0 
z
" style="stroke: #000000; stroke-linejoin: miter"/>
    </defs>
    <g clip-path="url(#pc12022dc4f)">
     <use xlink:href="#md01f73aecf" x="165.7206" y="224.9208" style="fill: #708090; stroke: #000000; stroke-linejoin: miter"/>
    </g>
   </g>
   <g id="line2d_80">
    <path clip-path="url(#pc12022dc4f)" style="fill: none; stroke: #bdb76b; stroke-width: 1.5; stroke-linecap: square"/>
    <defs>
     <path id="m617cc6284f" d="M 0 4.949747 
L 2.969848 0 
L 0 -4.949747 
L -2.969848 0 
z
" style="stroke: #000000; stroke-linejoin: miter"/>
    </defs>
    <g clip-path="url(#pc12022dc4f)">
     <use xlink:href="#m617cc6284f" x="165.7206" y="257.3532" style="fill: #bdb76b; stroke: #000000; stroke-linejoin: miter"/>
    </g>
   </g>
  </g>
 </g>
 <defs>
  <clipPath id="pc12022dc4f">
   <rect x="100.8558" y="30.3264" width="194.5944" height="194.5944"/>
  </clipPath>
 </defs>
</svg>
