<?xml version="1.0" encoding="utf-8" standalone="no"?>
<!DOCTYPE svg PUBLIC "-//W3C//DTD SVG 1.1//EN"
  "http://www.w3.org/Graphics/SVG/1.1/DTD/svg11.dtd">
<svg xmlns:xlink="http://www.w3.org/1999/xlink" width="386.64pt" height="252.72pt" viewBox="0 0 386.64 252.72" xmlns="http://www.w3.org/2000/svg" version="1.1">
 <metadata>
  <rdf:RDF xmlns:dc="http://purl.org/dc/elements/1.1/" xmlns:cc="http://creativecommons.org/ns#" xmlns:rdf="http://www.w3.org/1999/02/22-rdf-syntax-ns#">
   <cc:Work>
    <dc:type rdf:resource="http://purl.org/dc/dcmitype/StillImage"/>
    <dc:date>2023-07-11T22:26:55.558758</dc:date>
    <dc:format>image/svg+xml</dc:format>
    <dc:creator>
     <cc:Agent>
      <dc:title>Matplotlib v3.6.2, https://matplotlib.org/</dc:title>
     </cc:Agent>
    </dc:creator>
   </cc:Work>
  </rdf:RDF>
 </metadata>
 <defs>
  <style type="text/css">*{stroke-linejoin: round; stroke-linecap: butt}</style>
 </defs>
 <g id="figure_1">
  <g id="patch_1">
   <path d="M 0 252.72 
L 386.64 252.72 
L 386.64 0 
L 0 0 
z
" style="fill: #ffffff"/>
  </g>
  <g id="axes_1">
   <g id="patch_2">
    <path d="M 100.8558 224.9208 
L 295.4502 224.9208 
L 295.4502 30.3264 
L 100.8558 30.3264 
z
" style="fill: #ffffff"/>
   </g>
   <g id="matplotlib.axis_1">
    <g id="xtick_1">
     <g id="line2d_1">
      <defs>
       <path id="m3c8fc73851" d="M 0 0 
L 0 3.5 
" style="stroke: #000000; stroke-width: 0.8"/>
      </defs>
      <g>
       <use xlink:href="#m3c8fc73851" x="100.8558" y="224.9208" style="stroke: #000000; stroke-width: 0.8"/>
      </g>
     </g>
     <g id="text_1">
      <!-- −0.5 -->
      <g transform="translate(88.714394 239.519237) scale(0.1 -0.1)">
       <defs>
        <path id="DejaVuSans-2212" d="M 678 2272 
L 4684 2272 
L 4684 1741 
L 678 1741 
L 678 2272 
z
" transform="scale(0.015625)"/>
        <path id="DejaVuSans-30" d="M 2034 4250 
Q 1547 4250 1301 3770 
Q 1056 3291 1056 2328 
Q 1056 1369 1301 889 
Q 1547 409 2034 409 
Q 2525 409 2770 889 
Q 3016 1369 3016 2328 
Q 3016 3291 2770 3770 
Q 2525 4250 2034 4250 
z
M 2034 4750 
Q 2819 4750 3233 4129 
Q 3647 3509 3647 2328 
Q 3647 1150 3233 529 
Q 2819 -91 2034 -91 
Q 1250 -91 836 529 
Q 422 1150 422 2328 
Q 422 3509 836 4129 
Q 1250 4750 2034 4750 
z
" transform="scale(0.015625)"/>
        <path id="DejaVuSans-2e" d="M 684 794 
L 1344 794 
L 1344 0 
L 684 0 
L 684 794 
z
" transform="scale(0.015625)"/>
        <path id="DejaVuSans-35" d="M 691 4666 
L 3169 4666 
L 3169 4134 
L 1269 4134 
L 1269 2991 
Q 1406 3038 1543 3061 
Q 1681 3084 1819 3084 
Q 2600 3084 3056 2656 
Q 3513 2228 3513 1497 
Q 3513 744 3044 326 
Q 2575 -91 1722 -91 
Q 1428 -91 1123 -41 
Q 819 9 494 109 
L 494 744 
Q 775 591 1075 516 
Q 1375 441 1709 441 
Q 2250 441 2565 725 
Q 2881 1009 2881 1497 
Q 2881 1984 2565 2268 
Q 2250 2553 1709 2553 
Q 1456 2553 1204 2497 
Q 953 2441 691 2322 
L 691 4666 
z
" transform="scale(0.015625)"/>
       </defs>
       <use xlink:href="#DejaVuSans-2212"/>
       <use xlink:href="#DejaVuSans-30" x="83.789062"/>
       <use xlink:href="#DejaVuSans-2e" x="147.412109"/>
       <use xlink:href="#DejaVuSans-35" x="179.199219"/>
      </g>
     </g>
    </g>
    <g id="xtick_2">
     <g id="line2d_2">
      <g>
       <use xlink:href="#m3c8fc73851" x="133.2882" y="224.9208" style="stroke: #000000; stroke-width: 0.8"/>
      </g>
     </g>
     <g id="text_2">
      <!-- 0.0 -->
      <g transform="translate(125.336638 239.519237) scale(0.1 -0.1)">
       <use xlink:href="#DejaVuSans-30"/>
       <use xlink:href="#DejaVuSans-2e" x="63.623047"/>
       <use xlink:href="#DejaVuSans-30" x="95.410156"/>
      </g>
     </g>
    </g>
    <g id="xtick_3">
     <g id="line2d_3">
      <g>
       <use xlink:href="#m3c8fc73851" x="165.7206" y="224.9208" style="stroke: #000000; stroke-width: 0.8"/>
      </g>
     </g>
     <g id="text_3">
      <!-- 0.5 -->
      <g transform="translate(157.769037 239.519237) scale(0.1 -0.1)">
       <use xlink:href="#DejaVuSans-30"/>
       <use xlink:href="#DejaVuSans-2e" x="63.623047"/>
       <use xlink:href="#DejaVuSans-35" x="95.410156"/>
      </g>
     </g>
    </g>
    <g id="xtick_4">
     <g id="line2d_4">
      <g>
       <use xlink:href="#m3c8fc73851" x="198.153" y="224.9208" style="stroke: #000000; stroke-width: 0.8"/>
      </g>
     </g>
     <g id="text_4">
      <!-- 1.0 -->
      <g transform="translate(190.201437 239.519237) scale(0.1 -0.1)">
       <defs>
        <path id="DejaVuSans-31" d="M 794 531 
L 1825 531 
L 1825 4091 
L 703 3866 
L 703 4441 
L 1819 4666 
L 2450 4666 
L 2450 531 
L 3481 531 
L 3481 0 
L 794 0 
L 794 531 
z
" transform="scale(0.015625)"/>
       </defs>
       <use xlink:href="#DejaVuSans-31"/>
       <use xlink:href="#DejaVuSans-2e" x="63.623047"/>
       <use xlink:href="#DejaVuSans-30" x="95.410156"/>
      </g>
     </g>
    </g>
    <g id="xtick_5">
     <g id="line2d_5">
      <g>
       <use xlink:href="#m3c8fc73851" x="230.5854" y="224.9208" style="stroke: #000000; stroke-width: 0.8"/>
      </g>
     </g>
     <g id="text_5">
      <!-- 1.5 -->
      <g transform="translate(222.633837 239.519237) scale(0.1 -0.1)">
       <use xlink:href="#DejaVuSans-31"/>
       <use xlink:href="#DejaVuSans-2e" x="63.623047"/>
       <use xlink:href="#DejaVuSans-35" x="95.410156"/>
      </g>
     </g>
    </g>
    <g id="xtick_6">
     <g id="line2d_6">
      <g>
       <use xlink:href="#m3c8fc73851" x="263.0178" y="224.9208" style="stroke: #000000; stroke-width: 0.8"/>
      </g>
     </g>
     <g id="text_6">
      <!-- 2.0 -->
      <g transform="translate(255.066237 239.519237) scale(0.1 -0.1)">
       <defs>
        <path id="DejaVuSans-32" d="M 1228 531 
L 3431 531 
L 3431 0 
L 469 0 
L 469 531 
Q 828 903 1448 1529 
Q 2069 2156 2228 2338 
Q 2531 2678 2651 2914 
Q 2772 3150 2772 3378 
Q 2772 3750 2511 3984 
Q 2250 4219 1831 4219 
Q 1534 4219 1204 4116 
Q 875 4013 500 3803 
L 500 4441 
Q 881 4594 1212 4672 
Q 1544 4750 1819 4750 
Q 2544 4750 2975 4387 
Q 3406 4025 3406 3419 
Q 3406 3131 3298 2873 
Q 3191 2616 2906 2266 
Q 2828 2175 2409 1742 
Q 1991 1309 1228 531 
z
" transform="scale(0.015625)"/>
       </defs>
       <use xlink:href="#DejaVuSans-32"/>
       <use xlink:href="#DejaVuSans-2e" x="63.623047"/>
       <use xlink:href="#DejaVuSans-30" x="95.410156"/>
      </g>
     </g>
    </g>
    <g id="xtick_7">
     <g id="line2d_7">
      <g>
       <use xlink:href="#m3c8fc73851" x="295.4502" y="224.9208" style="stroke: #000000; stroke-width: 0.8"/>
      </g>
     </g>
     <g id="text_7">
      <!-- 2.5 -->
      <g transform="translate(287.498637 239.519237) scale(0.1 -0.1)">
       <use xlink:href="#DejaVuSans-32"/>
       <use xlink:href="#DejaVuSans-2e" x="63.623047"/>
       <use xlink:href="#DejaVuSans-35" x="95.410156"/>
      </g>
     </g>
    </g>
    <g id="text_8">
     <!-- x(m) -->
     <g transform="translate(186.42175 253.197362) scale(0.1 -0.1)">
      <defs>
       <path id="DejaVuSans-78" d="M 3513 3500 
L 2247 1797 
L 3578 0 
L 2900 0 
L 1881 1375 
L 863 0 
L 184 0 
L 1544 1831 
L 300 3500 
L 978 3500 
L 1906 2253 
L 2834 3500 
L 3513 3500 
z
" transform="scale(0.015625)"/>
       <path id="DejaVuSans-28" d="M 1984 4856 
Q 1566 4138 1362 3434 
Q 1159 2731 1159 2009 
Q 1159 1288 1364 580 
Q 1569 -128 1984 -844 
L 1484 -844 
Q 1016 -109 783 600 
Q 550 1309 550 2009 
Q 550 2706 781 3412 
Q 1013 4119 1484 4856 
L 1984 4856 
z
" transform="scale(0.015625)"/>
       <path id="DejaVuSans-6d" d="M 3328 2828 
Q 3544 3216 3844 3400 
Q 4144 3584 4550 3584 
Q 5097 3584 5394 3201 
Q 5691 2819 5691 2113 
L 5691 0 
L 5113 0 
L 5113 2094 
Q 5113 2597 4934 2840 
Q 4756 3084 4391 3084 
Q 3944 3084 3684 2787 
Q 3425 2491 3425 1978 
L 3425 0 
L 2847 0 
L 2847 2094 
Q 2847 2600 2669 2842 
Q 2491 3084 2119 3084 
Q 1678 3084 1418 2786 
Q 1159 2488 1159 1978 
L 1159 0 
L 581 0 
L 581 3500 
L 1159 3500 
L 1159 2956 
Q 1356 3278 1631 3431 
Q 1906 3584 2284 3584 
Q 2666 3584 2933 3390 
Q 3200 3197 3328 2828 
z
" transform="scale(0.015625)"/>
       <path id="DejaVuSans-29" d="M 513 4856 
L 1013 4856 
Q 1481 4119 1714 3412 
Q 1947 2706 1947 2009 
Q 1947 1309 1714 600 
Q 1481 -109 1013 -844 
L 513 -844 
Q 928 -128 1133 580 
Q 1338 1288 1338 2009 
Q 1338 2731 1133 3434 
Q 928 4138 513 4856 
z
" transform="scale(0.015625)"/>
      </defs>
      <use xlink:href="#DejaVuSans-78"/>
      <use xlink:href="#DejaVuSans-28" x="59.179688"/>
      <use xlink:href="#DejaVuSans-6d" x="98.193359"/>
      <use xlink:href="#DejaVuSans-29" x="195.605469"/>
     </g>
    </g>
   </g>
   <g id="matplotlib.axis_2">
    <g id="ytick_1">
     <g id="line2d_8">
      <defs>
       <path id="me29d91cc45" d="M 0 0 
L -3.5 0 
" style="stroke: #000000; stroke-width: 0.8"/>
      </defs>
      <g>
       <use xlink:href="#me29d91cc45" x="100.8558" y="224.9208" style="stroke: #000000; stroke-width: 0.8"/>
      </g>
     </g>
     <g id="text_9">
      <!-- −0.5 -->
      <g transform="translate(69.572988 228.720019) scale(0.1 -0.1)">
       <use xlink:href="#DejaVuSans-2212"/>
       <use xlink:href="#DejaVuSans-30" x="83.789062"/>
       <use xlink:href="#DejaVuSans-2e" x="147.412109"/>
       <use xlink:href="#DejaVuSans-35" x="179.199219"/>
      </g>
     </g>
    </g>
    <g id="ytick_2">
     <g id="line2d_9">
      <g>
       <use xlink:href="#me29d91cc45" x="100.8558" y="192.4884" style="stroke: #000000; stroke-width: 0.8"/>
      </g>
     </g>
     <g id="text_10">
      <!-- 0.0 -->
      <g transform="translate(77.952675 196.287619) scale(0.1 -0.1)">
       <use xlink:href="#DejaVuSans-30"/>
       <use xlink:href="#DejaVuSans-2e" x="63.623047"/>
       <use xlink:href="#DejaVuSans-30" x="95.410156"/>
      </g>
     </g>
    </g>
    <g id="ytick_3">
     <g id="line2d_10">
      <g>
       <use xlink:href="#me29d91cc45" x="100.8558" y="160.056" style="stroke: #000000; stroke-width: 0.8"/>
      </g>
     </g>
     <g id="text_11">
      <!-- 0.5 -->
      <g transform="translate(77.952675 163.855219) scale(0.1 -0.1)">
       <use xlink:href="#DejaVuSans-30"/>
       <use xlink:href="#DejaVuSans-2e" x="63.623047"/>
       <use xlink:href="#DejaVuSans-35" x="95.410156"/>
      </g>
     </g>
    </g>
    <g id="ytick_4">
     <g id="line2d_11">
      <g>
       <use xlink:href="#me29d91cc45" x="100.8558" y="127.6236" style="stroke: #000000; stroke-width: 0.8"/>
      </g>
     </g>
     <g id="text_12">
      <!-- 1.0 -->
      <g transform="translate(77.952675 131.422819) scale(0.1 -0.1)">
       <use xlink:href="#DejaVuSans-31"/>
       <use xlink:href="#DejaVuSans-2e" x="63.623047"/>
       <use xlink:href="#DejaVuSans-30" x="95.410156"/>
      </g>
     </g>
    </g>
    <g id="ytick_5">
     <g id="line2d_12">
      <g>
       <use xlink:href="#me29d91cc45" x="100.8558" y="95.1912" style="stroke: #000000; stroke-width: 0.8"/>
      </g>
     </g>
     <g id="text_13">
      <!-- 1.5 -->
      <g transform="translate(77.952675 98.990419) scale(0.1 -0.1)">
       <use xlink:href="#DejaVuSans-31"/>
       <use xlink:href="#DejaVuSans-2e" x="63.623047"/>
       <use xlink:href="#DejaVuSans-35" x="95.410156"/>
      </g>
     </g>
    </g>
    <g id="ytick_6">
     <g id="line2d_13">
      <g>
       <use xlink:href="#me29d91cc45" x="100.8558" y="62.7588" style="stroke: #000000; stroke-width: 0.8"/>
      </g>
     </g>
     <g id="text_14">
      <!-- 2.0 -->
      <g transform="translate(77.952675 66.558019) scale(0.1 -0.1)">
       <use xlink:href="#DejaVuSans-32"/>
       <use xlink:href="#DejaVuSans-2e" x="63.623047"/>
       <use xlink:href="#DejaVuSans-30" x="95.410156"/>
      </g>
     </g>
    </g>
    <g id="ytick_7">
     <g id="line2d_14">
      <g>
       <use xlink:href="#me29d91cc45" x="100.8558" y="30.3264" style="stroke: #000000; stroke-width: 0.8"/>
      </g>
     </g>
     <g id="text_15">
      <!-- 2.5 -->
      <g transform="translate(77.952675 34.125619) scale(0.1 -0.1)">
       <use xlink:href="#DejaVuSans-32"/>
       <use xlink:href="#DejaVuSans-2e" x="63.623047"/>
       <use xlink:href="#DejaVuSans-35" x="95.410156"/>
      </g>
     </g>
    </g>
    <g id="text_16">
     <!-- y(m) -->
     <g transform="translate(63.4933 139.35485) rotate(-90) scale(0.1 -0.1)">
      <defs>
       <path id="DejaVuSans-79" d="M 2059 -325 
Q 1816 -950 1584 -1140 
Q 1353 -1331 966 -1331 
L 506 -1331 
L 506 -850 
L 844 -850 
Q 1081 -850 1212 -737 
Q 1344 -625 1503 -206 
L 1606 56 
L 191 3500 
L 800 3500 
L 1894 763 
L 2988 3500 
L 3597 3500 
L 2059 -325 
z
" transform="scale(0.015625)"/>
      </defs>
      <use xlink:href="#DejaVuSans-79"/>
      <use xlink:href="#DejaVuSans-28" x="59.179688"/>
      <use xlink:href="#DejaVuSans-6d" x="98.193359"/>
      <use xlink:href="#DejaVuSans-29" x="195.605469"/>
     </g>
    </g>
   </g>
   <g id="line2d_15">
    <path d="M 249.679077 126.428069 
L 257.516609 127.130598 
L 261.208301 127.461451 
L 262.314204 127.56055 
L 262.973894 127.619666 
L 263.01374 127.623236 
L 263.017306 127.623556 
L 263.017723 127.623593 
L 263.017786 127.623599 
L 263.017797 127.6236 
L 263.017799 127.6236 
L 263.0178 127.6236 
L 263.0178 127.6236 
" clip-path="url(#p1ff085d241)" style="fill: none; stroke-dasharray: 2,3.3; stroke-dashoffset: 0; stroke: #1f77b4; stroke-width: 2"/>
   </g>
   <g id="line2d_16">
    <path d="M 133.2882 127.6236 
L 133.2882 127.6236 
L 133.768676 127.621531 
L 138.573349 127.593776 
L 147.701648 127.493337 
L 160.673863 127.41217 
L 173.646739 127.459601 
L 186.619963 127.486284 
L 199.592908 127.523189 
L 212.567005 127.607597 
L 225.536461 127.5202 
L 238.341407 126.667687 
L 249.679077 126.428069 
" clip-path="url(#p1ff085d241)" style="fill: none; stroke: #1f77b4; stroke-width: 2; stroke-linecap: square"/>
   </g>
   <g id="line2d_17">
    <path d="M 226.183594 137.004547 
L 232.624412 134.073321 
L 235.47858 132.96173 
L 236.960995 132.448144 
L 237.874767 132.139709 
L 238.458107 131.942078 
L 238.863363 131.804606 
L 239.161014 131.703583 
L 239.388935 131.626208 
L 239.569042 131.565062 
L 239.714932 131.51553 
L 239.83551 131.474589 
L 239.83551 131.474589 
" clip-path="url(#p1ff085d241)" style="fill: none; stroke-dasharray: 2,3.3; stroke-dashoffset: 0; stroke: #ff7f0e; stroke-width: 2"/>
   </g>
   <g id="line2d_18">
    <path d="M 198.153 205.46136 
L 198.153 205.46136 
L 198.164648 204.981025 
L 198.417246 200.200816 
L 199.877385 191.454013 
L 201.48243 180.264573 
L 202.738317 169.560811 
L 204.917797 161.07713 
L 207.09932 154.814228 
L 209.379241 150.892168 
L 211.999015 147.096721 
L 218.032057 141.250712 
L 226.183594 137.004547 
" clip-path="url(#p1ff085d241)" style="fill: none; stroke: #ff7f0e; stroke-width: 2; stroke-linecap: square"/>
   </g>
   <g id="line2d_19">
    <path d="M 133.288232 95.191043 
L 133.288235 95.191023 
L 133.288237 95.191002 
L 133.288238 95.190984 
L 133.288238 95.19097 
L 133.288237 95.190961 
L 133.288234 95.190957 
L 133.28823 95.190959 
L 133.288226 95.190965 
L 133.288223 95.190975 
L 133.28822 95.190983 
L 133.288219 95.190987 
L 133.288219 95.190987 
" clip-path="url(#p1ff085d241)" style="fill: none; stroke-dasharray: 2,3.3; stroke-dashoffset: 0; stroke: #2ca02c; stroke-width: 2"/>
   </g>
   <g id="line2d_20">
    <path d="M 133.2882 95.1912 
L 133.2882 95.1912 
L 133.2882 95.1912 
L 133.288202 95.1912 
L 133.288204 95.191197 
L 133.288206 95.19119 
L 133.288211 95.191173 
L 133.288216 95.191155 
L 133.288222 95.191135 
L 133.288224 95.191111 
L 133.288228 95.191086 
L 133.28823 95.191064 
L 133.288232 95.191043 
" clip-path="url(#p1ff085d241)" style="fill: none; stroke: #2ca02c; stroke-width: 2; stroke-linecap: square"/>
   </g>
   <g id="line2d_21">
    <path d="M 165.720261 95.191012 
L 165.720272 95.191017 
L 165.720289 95.191024 
L 165.720314 95.191035 
L 165.720349 95.191052 
L 165.720392 95.191075 
L 165.720439 95.191101 
L 165.720486 95.191129 
L 165.720529 95.191157 
L 165.720563 95.191183 
L 165.720585 95.191203 
L 165.720596 95.191213 
L 165.720596 95.191213 
" clip-path="url(#p1ff085d241)" style="fill: none; stroke-dasharray: 2,3.3; stroke-dashoffset: 0; stroke: #d62728; stroke-width: 2"/>
   </g>
   <g id="line2d_22">
    <path d="M 165.7206 95.1912 
L 165.7206 95.1912 
L 165.720601 95.191194 
L 165.720603 95.19115 
L 165.720581 95.191153 
L 165.720541 95.191158 
L 165.720483 95.19116 
L 165.720422 95.191125 
L 165.720366 95.191081 
L 165.720311 95.191045 
L 165.720281 95.191024 
L 165.720264 95.191013 
L 165.720261 95.191012 
" clip-path="url(#p1ff085d241)" style="fill: none; stroke: #d62728; stroke-width: 2; stroke-linecap: square"/>
   </g>
   <g id="line2d_23">
    <path d="M 230.58563 95.191129 
L 230.585659 95.191097 
L 230.585691 95.191068 
L 230.585717 95.191046 
L 230.585717 95.191041 
L 230.585694 95.19105 
L 230.585653 95.191068 
L 230.585602 95.191093 
L 230.585547 95.191121 
L 230.585496 95.191147 
L 230.58546 95.191165 
L 230.585442 95.191174 
L 230.585442 95.191174 
" clip-path="url(#p1ff085d241)" style="fill: none; stroke-dasharray: 2,3.3; stroke-dashoffset: 0; stroke: #9467bd; stroke-width: 2"/>
   </g>
   <g id="line2d_24">
    <path d="M 230.5854 95.1912 
L 230.5854 95.1912 
L 230.5854 95.191198 
L 230.585399 95.191183 
L 230.585405 95.191174 
L 230.585427 95.191186 
L 230.585443 95.191202 
L 230.585457 95.191257 
L 230.585477 95.191298 
L 230.585509 95.191287 
L 230.585553 95.191222 
L 230.585594 95.19117 
L 230.58563 95.191129 
" clip-path="url(#p1ff085d241)" style="fill: none; stroke: #9467bd; stroke-width: 2; stroke-linecap: square"/>
   </g>
   <g id="line2d_25">
    <path d="M 263.017803 95.191071 
L 263.017793 95.191044 
L 263.017785 95.191025 
L 263.01778 95.191014 
L 263.017776 95.191009 
L 263.017775 95.191012 
L 263.017775 95.191021 
L 263.017776 95.191034 
L 263.017778 95.19105 
L 263.01778 95.191065 
L 263.017782 95.191076 
L 263.017783 95.191082 
L 263.017783 95.191082 
" clip-path="url(#p1ff085d241)" style="fill: none; stroke-dasharray: 2,3.3; stroke-dashoffset: 0; stroke: #8c564b; stroke-width: 2"/>
   </g>
   <g id="line2d_26">
    <path d="M 263.0178 95.1912 
L 263.0178 95.1912 
L 263.017801 95.1912 
L 263.017807 95.191203 
L 263.017812 95.191199 
L 263.017815 95.191193 
L 263.017817 95.191185 
L 263.017818 95.191173 
L 263.017819 95.191161 
L 263.017818 95.19115 
L 263.017817 95.191135 
L 263.017814 95.191106 
L 263.017803 95.191071 
" clip-path="url(#p1ff085d241)" style="fill: none; stroke: #8c564b; stroke-width: 2; stroke-linecap: square"/>
   </g>
   <g id="line2d_27">
    <path d="M 133.288237 160.056099 
L 133.288244 160.056114 
L 133.288251 160.056131 
L 133.288255 160.056147 
L 133.288256 160.056161 
L 133.288256 160.056171 
L 133.288253 160.056178 
L 133.288249 160.056181 
L 133.288244 160.056179 
L 133.288239 160.056175 
L 133.288235 160.05617 
L 133.288234 160.056167 
L 133.288234 160.056167 
" clip-path="url(#p1ff085d241)" style="fill: none; stroke-dasharray: 2,3.3; stroke-dashoffset: 0; stroke: #e377c2; stroke-width: 2"/>
   </g>
   <g id="line2d_28">
    <path d="M 133.2882 160.056 
L 133.2882 160.056 
L 133.2882 160.056 
L 133.288203 160.056 
L 133.288205 160.056004 
L 133.288208 160.056011 
L 133.28821 160.05602 
L 133.288212 160.056031 
L 133.288213 160.056043 
L 133.288215 160.056057 
L 133.288218 160.056072 
L 133.288228 160.056085 
L 133.288237 160.056099 
" clip-path="url(#p1ff085d241)" style="fill: none; stroke: #e377c2; stroke-width: 2; stroke-linecap: square"/>
   </g>
   <g id="line2d_29">
    <path d="M 165.720388 160.055578 
L 165.720402 160.055598 
L 165.720452 160.055609 
L 165.720525 160.055619 
L 165.720596 160.055643 
L 165.720659 160.05568 
L 165.720712 160.055731 
L 165.720753 160.055798 
L 165.720781 160.055877 
L 165.720796 160.055963 
L 165.720802 160.056043 
L 165.720806 160.056093 
L 165.720806 160.056093 
" clip-path="url(#p1ff085d241)" style="fill: none; stroke-dasharray: 2,3.3; stroke-dashoffset: 0; stroke: #7f7f7f; stroke-width: 2"/>
   </g>
   <g id="line2d_30">
    <path d="M 165.7206 160.056 
L 165.7206 160.056 
L 165.7206 160.055997 
L 165.720599 160.05597 
L 165.720579 160.055908 
L 165.72054 160.055856 
L 165.720503 160.055767 
L 165.72048 160.055656 
L 165.720446 160.055586 
L 165.720426 160.055548 
L 165.720405 160.055537 
L 165.720398 160.05555 
L 165.720388 160.055578 
" clip-path="url(#p1ff085d241)" style="fill: none; stroke: #7f7f7f; stroke-width: 2; stroke-linecap: square"/>
   </g>
   <g id="line2d_31">
    <path d="M 230.585459 160.056052 
L 230.585471 160.056055 
L 230.585513 160.056083 
L 230.58557 160.056155 
L 230.585613 160.056238 
L 230.585634 160.056302 
L 230.585633 160.056319 
L 230.585611 160.056282 
L 230.585574 160.056213 
L 230.585531 160.05614 
L 230.585496 160.056087 
L 230.585478 160.056061 
L 230.585478 160.056061 
" clip-path="url(#p1ff085d241)" style="fill: none; stroke-dasharray: 2,3.3; stroke-dashoffset: 0; stroke: #bcbd22; stroke-width: 2"/>
   </g>
   <g id="line2d_32">
    <path d="M 230.5854 160.056 
L 230.5854 160.056 
L 230.5854 160.056002 
L 230.585404 160.056019 
L 230.585426 160.055987 
L 230.585441 160.055965 
L 230.585453 160.055958 
L 230.585459 160.055962 
L 230.585459 160.055967 
L 230.585467 160.055979 
L 230.585475 160.055991 
L 230.58547 160.056002 
L 230.585459 160.056052 
" clip-path="url(#p1ff085d241)" style="fill: none; stroke: #bcbd22; stroke-width: 2; stroke-linecap: square"/>
   </g>
   <g id="line2d_33">
    <path d="M 263.017783 160.056135 
L 263.017781 160.056158 
L 263.01778 160.05618 
L 263.017781 160.056198 
L 263.017783 160.056211 
L 263.017785 160.056219 
L 263.017788 160.056222 
L 263.017789 160.056219 
L 263.017791 160.056211 
L 263.017791 160.0562 
L 263.017791 160.056191 
L 263.017791 160.056187 
L 263.017791 160.056187 
" clip-path="url(#p1ff085d241)" style="fill: none; stroke-dasharray: 2,3.3; stroke-dashoffset: 0; stroke: #17becf; stroke-width: 2"/>
   </g>
   <g id="line2d_34">
    <path d="M 263.0178 160.056 
L 263.0178 160.056 
L 263.0178 160.056 
L 263.0178 160.056 
L 263.0178 160.056006 
L 263.017801 160.056017 
L 263.017802 160.056031 
L 263.017798 160.056043 
L 263.017795 160.056057 
L 263.017792 160.056072 
L 263.017789 160.056089 
L 263.017785 160.056112 
L 263.017783 160.056135 
" clip-path="url(#p1ff085d241)" style="fill: none; stroke: #17becf; stroke-width: 2; stroke-linecap: square"/>
   </g>
   <g id="line2d_35">
    <path d="M 230.585472 62.758776 
L 230.585492 62.758781 
L 230.585505 62.758785 
L 230.585511 62.758789 
L 230.585508 62.758792 
L 230.585498 62.758795 
L 230.585482 62.758798 
L 230.585462 62.7588 
L 230.58544 62.7588 
L 230.58542 62.758799 
L 230.585405 62.758797 
L 230.585398 62.758795 
L 230.585398 62.758795 
" clip-path="url(#p1ff085d241)" style="fill: none; stroke-dasharray: 2,3.3; stroke-dashoffset: 0; stroke: #2f4f4f; stroke-width: 2"/>
   </g>
   <g id="line2d_36">
    <path d="M 230.5854 62.7588 
L 230.5854 62.7588 
L 230.5854 62.758798 
L 230.585398 62.758783 
L 230.585395 62.75877 
L 230.585392 62.758761 
L 230.585391 62.758756 
L 230.585392 62.758754 
L 230.585393 62.758755 
L 230.585397 62.758759 
L 230.585416 62.758765 
L 230.585444 62.758771 
L 230.585472 62.758776 
" clip-path="url(#p1ff085d241)" style="fill: none; stroke: #2f4f4f; stroke-width: 2; stroke-linecap: square"/>
   </g>
   <g id="line2d_37">
    <path d="M 230.585281 30.32669 
L 230.585284 30.326693 
L 230.585286 30.326691 
L 230.585291 30.326681 
L 230.585298 30.326662 
L 230.585308 30.326633 
L 230.585321 30.326596 
L 230.585336 30.326554 
L 230.58535 30.326513 
L 230.585363 30.326478 
L 230.585371 30.326453 
L 230.585375 30.326442 
L 230.585375 30.326442 
" clip-path="url(#p1ff085d241)" style="fill: none; stroke-dasharray: 2,3.3; stroke-dashoffset: 0; stroke: #cd5c5c; stroke-width: 2"/>
   </g>
   <g id="line2d_38">
    <path d="M 230.5854 30.3264 
L 230.5854 30.3264 
L 230.585397 30.326406 
L 230.585368 30.32646 
L 230.585347 30.326501 
L 230.585328 30.326531 
L 230.585311 30.326561 
L 230.585298 30.326587 
L 230.585288 30.326613 
L 230.585283 30.326639 
L 230.58528 30.326662 
L 230.58528 30.326679 
L 230.585281 30.32669 
" clip-path="url(#p1ff085d241)" style="fill: none; stroke: #cd5c5c; stroke-width: 2; stroke-linecap: square"/>
   </g>
   <g id="line2d_39">
    <path clip-path="url(#p1ff085d241)" style="fill: none; stroke-dasharray: 2,3.3; stroke-dashoffset: 0; stroke: #add8e6; stroke-width: 2"/>
   </g>
   <g id="line2d_40">
    <path clip-path="url(#p1ff085d241)" style="fill: none; stroke: #add8e6; stroke-width: 2; stroke-linecap: square"/>
   </g>
   <g id="line2d_41">
    <path d="M 230.585487 192.488434 
L 230.585504 192.488435 
L 230.585523 192.488435 
L 230.58554 192.488432 
L 230.585548 192.488427 
L 230.585544 192.48842 
L 230.585531 192.488413 
L 230.58551 192.488405 
L 230.585485 192.488399 
L 230.58546 192.488394 
L 230.585441 192.488391 
L 230.585431 192.488389 
L 230.585431 192.488389 
" clip-path="url(#p1ff085d241)" style="fill: none; stroke-dasharray: 2,3.3; stroke-dashoffset: 0; stroke: #663399; stroke-width: 2"/>
   </g>
   <g id="line2d_42">
    <path d="M 230.5854 192.4884 
L 230.5854 192.4884 
L 230.5854 192.488401 
L 230.585403 192.488407 
L 230.585406 192.488411 
L 230.585406 192.488417 
L 230.585392 192.488421 
L 230.585383 192.488425 
L 230.585389 192.488426 
L 230.585399 192.488429 
L 230.585436 192.488433 
L 230.585469 192.48843 
L 230.585487 192.488434 
" clip-path="url(#p1ff085d241)" style="fill: none; stroke: #663399; stroke-width: 2; stroke-linecap: square"/>
   </g>
   <g id="line2d_43">
    <path d="M 230.585327 224.920853 
L 230.585323 224.920851 
L 230.585319 224.920849 
L 230.585317 224.920847 
L 230.585318 224.920844 
L 230.585323 224.920841 
L 230.58533 224.920838 
L 230.585339 224.920835 
L 230.58535 224.920833 
L 230.585361 224.920832 
L 230.585369 224.920832 
L 230.585373 224.920832 
L 230.585373 224.920832 
" clip-path="url(#p1ff085d241)" style="fill: none; stroke-dasharray: 2,3.3; stroke-dashoffset: 0; stroke: #8fbc8f; stroke-width: 2"/>
   </g>
   <g id="line2d_44">
    <path d="M 230.5854 224.9208 
L 230.5854 224.9208 
L 230.585398 224.920803 
L 230.585385 224.920825 
L 230.585374 224.920843 
L 230.585366 224.920859 
L 230.58536 224.920873 
L 230.585355 224.920875 
L 230.58535 224.920871 
L 230.585345 224.920863 
L 230.585339 224.920855 
L 230.585333 224.920853 
L 230.585327 224.920853 
" clip-path="url(#p1ff085d241)" style="fill: none; stroke: #8fbc8f; stroke-width: 2; stroke-linecap: square"/>
   </g>
   <g id="line2d_45">
    <path clip-path="url(#p1ff085d241)" style="fill: none; stroke-dasharray: 2,3.3; stroke-dashoffset: 0; stroke: #00ced1; stroke-width: 2"/>
   </g>
   <g id="line2d_46">
    <path clip-path="url(#p1ff085d241)" style="fill: none; stroke: #00ced1; stroke-width: 2; stroke-linecap: square"/>
   </g>
   <g id="line2d_47">
    <path d="M 165.72058 62.758775 
L 165.720571 62.758803 
L 165.72056 62.758832 
L 165.72055 62.758857 
L 165.720544 62.758873 
L 165.720542 62.758881 
L 165.720544 62.758879 
L 165.720549 62.758868 
L 165.720557 62.758852 
L 165.720566 62.758834 
L 165.720574 62.758821 
L 165.720577 62.758815 
L 165.720577 62.758815 
" clip-path="url(#p1ff085d241)" style="fill: none; stroke-dasharray: 2,3.3; stroke-dashoffset: 0; stroke: #6a5acd; stroke-width: 2"/>
   </g>
   <g id="line2d_48">
    <path d="M 165.7206 62.7588 
L 165.7206 62.7588 
L 165.7206 62.758797 
L 165.720599 62.758767 
L 165.720603 62.758741 
L 165.720606 62.758721 
L 165.720609 62.758707 
L 165.720611 62.7587 
L 165.72061 62.758699 
L 165.720606 62.758707 
L 165.720599 62.758726 
L 165.72059 62.758749 
L 165.72058 62.758775 
" clip-path="url(#p1ff085d241)" style="fill: none; stroke: #6a5acd; stroke-width: 2; stroke-linecap: square"/>
   </g>
   <g id="line2d_49">
    <path d="M 165.720622 30.326408 
L 165.720619 30.326449 
L 165.720616 30.326485 
L 165.720613 30.326516 
L 165.720609 30.326537 
L 165.720606 30.326547 
L 165.720603 30.326548 
L 165.7206 30.32654 
L 165.720598 30.326525 
L 165.720598 30.32651 
L 165.720598 30.326499 
L 165.720599 30.326494 
L 165.720599 30.326494 
" clip-path="url(#p1ff085d241)" style="fill: none; stroke-dasharray: 2,3.3; stroke-dashoffset: 0; stroke: #808000; stroke-width: 2"/>
   </g>
   <g id="line2d_50">
    <path d="M 165.7206 30.3264 
L 165.7206 30.3264 
L 165.7206 30.326398 
L 165.720603 30.326374 
L 165.720607 30.326333 
L 165.720608 30.326303 
L 165.720608 30.326285 
L 165.720609 30.326278 
L 165.720611 30.326286 
L 165.720616 30.326304 
L 165.720622 30.32633 
L 165.720624 30.32636 
L 165.720622 30.326408 
" clip-path="url(#p1ff085d241)" style="fill: none; stroke: #808000; stroke-width: 2; stroke-linecap: square"/>
   </g>
   <g id="line2d_51">
    <path clip-path="url(#p1ff085d241)" style="fill: none; stroke-dasharray: 2,3.3; stroke-dashoffset: 0; stroke: #a0522d; stroke-width: 2"/>
   </g>
   <g id="line2d_52">
    <path clip-path="url(#p1ff085d241)" style="fill: none; stroke: #a0522d; stroke-width: 2; stroke-linecap: square"/>
   </g>
   <g id="line2d_53">
    <path d="M 165.720421 192.488672 
L 165.720427 192.488657 
L 165.720468 192.488646 
L 165.720533 192.488639 
L 165.720599 192.488625 
L 165.72066 192.488608 
L 165.720712 192.488589 
L 165.720751 192.488569 
L 165.720777 192.488546 
L 165.720791 192.488521 
L 165.720796 192.488495 
L 165.7208 192.488478 
L 165.7208 192.488478 
" clip-path="url(#p1ff085d241)" style="fill: none; stroke-dasharray: 2,3.3; stroke-dashoffset: 0; stroke: #ff4500; stroke-width: 2"/>
   </g>
   <g id="line2d_54">
    <path d="M 165.7206 192.4884 
L 165.7206 192.4884 
L 165.720601 192.488405 
L 165.720611 192.488452 
L 165.720617 192.488491 
L 165.720591 192.488535 
L 165.720574 192.488568 
L 165.720557 192.488592 
L 165.720554 192.48862 
L 165.720547 192.488655 
L 165.720505 192.488686 
L 165.72045 192.488683 
L 165.720421 192.488672 
" clip-path="url(#p1ff085d241)" style="fill: none; stroke: #ff4500; stroke-width: 2; stroke-linecap: square"/>
   </g>
   <g id="line2d_55">
    <path d="M 165.720677 224.920745 
L 165.72068 224.92072 
L 165.720685 224.920696 
L 165.720688 224.920678 
L 165.720689 224.920667 
L 165.720686 224.920666 
L 165.720679 224.920676 
L 165.720667 224.920696 
L 165.720654 224.920723 
L 165.72064 224.920753 
L 165.720627 224.920781 
L 165.72062 224.920799 
L 165.72062 224.920799 
" clip-path="url(#p1ff085d241)" style="fill: none; stroke-dasharray: 2,3.3; stroke-dashoffset: 0; stroke: #708090; stroke-width: 2"/>
   </g>
   <g id="line2d_56">
    <path d="M 165.7206 224.9208 
L 165.7206 224.9208 
L 165.720602 224.920799 
L 165.720621 224.92079 
L 165.720636 224.920783 
L 165.720647 224.920788 
L 165.720655 224.920803 
L 165.720661 224.920807 
L 165.720666 224.920806 
L 165.720669 224.920799 
L 165.720672 224.920786 
L 165.720674 224.920768 
L 165.720677 224.920745 
" clip-path="url(#p1ff085d241)" style="fill: none; stroke: #708090; stroke-width: 2; stroke-linecap: square"/>
   </g>
   <g id="line2d_57">
    <path clip-path="url(#p1ff085d241)" style="fill: none; stroke-dasharray: 2,3.3; stroke-dashoffset: 0; stroke: #bdb76b; stroke-width: 2"/>
   </g>
   <g id="line2d_58">
    <path clip-path="url(#p1ff085d241)" style="fill: none; stroke: #bdb76b; stroke-width: 2; stroke-linecap: square"/>
   </g>
   <g id="patch_3">
    <path d="M 100.8558 224.9208 
L 100.8558 30.3264 
" style="fill: none; stroke: #000000; stroke-width: 0.8; stroke-linejoin: miter; stroke-linecap: square"/>
   </g>
   <g id="patch_4">
    <path d="M 295.4502 224.9208 
L 295.4502 30.3264 
" style="fill: none; stroke: #000000; stroke-width: 0.8; stroke-linejoin: miter; stroke-linecap: square"/>
   </g>
   <g id="patch_5">
    <path d="M 100.8558 224.9208 
L 295.4502 224.9208 
" style="fill: none; stroke: #000000; stroke-width: 0.8; stroke-linejoin: miter; stroke-linecap: square"/>
   </g>
   <g id="patch_6">
    <path d="M 100.8558 30.3264 
L 295.4502 30.3264 
" style="fill: none; stroke: #000000; stroke-width: 0.8; stroke-linejoin: miter; stroke-linecap: square"/>
   </g>
   <g id="patch_7">
    <path d="M 249.679077 136.157789 
C 252.259429 136.157789 254.734443 135.132604 256.559028 133.30802 
C 258.383612 131.483435 259.408797 129.008421 259.408797 126.428069 
C 259.408797 123.847717 258.383612 121.372702 256.559028 119.548118 
C 254.734443 117.723533 252.259429 116.698349 249.679077 116.698349 
C 247.098725 116.698349 244.62371 117.723533 242.799126 119.548118 
C 240.974542 121.372702 239.949357 123.847717 239.949357 126.428069 
C 239.949357 129.008421 240.974542 131.483435 242.799126 133.30802 
C 244.62371 135.132604 247.098725 136.157789 249.679077 136.157789 
z
" clip-path="url(#p1ff085d241)" style="fill: #1f77b4; stroke: #000000; stroke-linejoin: miter"/>
   </g>
   <g id="patch_8">
    <path d="M 226.183594 146.734267 
C 228.763946 146.734267 231.238961 145.709083 233.063545 143.884498 
C 234.888129 142.059914 235.913314 139.584899 235.913314 137.004547 
C 235.913314 134.424196 234.888129 131.949181 233.063545 130.124596 
C 231.238961 128.300012 228.763946 127.274827 226.183594 127.274827 
C 223.603242 127.274827 221.128227 128.300012 219.303643 130.124596 
C 217.479059 131.949181 216.453874 134.424196 216.453874 137.004547 
C 216.453874 139.584899 217.479059 142.059914 219.303643 143.884498 
C 221.128227 145.709083 223.603242 146.734267 226.183594 146.734267 
z
" clip-path="url(#p1ff085d241)" style="fill: #ff7f0e; stroke: #000000; stroke-linejoin: miter"/>
   </g>
   <g id="patch_9">
    <path d="M 133.288232 104.920763 
C 135.868584 104.920763 138.343599 103.895579 140.168183 102.070994 
C 141.992767 100.24641 143.017952 97.771395 143.017952 95.191043 
C 143.017952 92.610691 141.992767 90.135677 140.168183 88.311092 
C 138.343599 86.486508 135.868584 85.461323 133.288232 85.461323 
C 130.70788 85.461323 128.232865 86.486508 126.408281 88.311092 
C 124.583697 90.135677 123.558512 92.610691 123.558512 95.191043 
C 123.558512 97.771395 124.583697 100.24641 126.408281 102.070994 
C 128.232865 103.895579 130.70788 104.920763 133.288232 104.920763 
z
" clip-path="url(#p1ff085d241)" style="fill: #2ca02c; stroke: #000000; stroke-linejoin: miter"/>
   </g>
   <g id="patch_10">
    <path d="M 165.720261 104.920732 
C 168.300613 104.920732 170.775627 103.895548 172.600212 102.070963 
C 174.424796 100.246379 175.449981 97.771364 175.449981 95.191012 
C 175.449981 92.61066 174.424796 90.135646 172.600212 88.311061 
C 170.775627 86.486477 168.300613 85.461292 165.720261 85.461292 
C 163.139909 85.461292 160.664894 86.486477 158.84031 88.311061 
C 157.015725 90.135646 155.990541 92.61066 155.990541 95.191012 
C 155.990541 97.771364 157.015725 100.246379 158.84031 102.070963 
C 160.664894 103.895548 163.139909 104.920732 165.720261 104.920732 
z
" clip-path="url(#p1ff085d241)" style="fill: #d62728; stroke: #000000; stroke-linejoin: miter"/>
   </g>
   <g id="patch_11">
    <path d="M 230.58563 104.920849 
C 233.165982 104.920849 235.640997 103.895665 237.465581 102.07108 
C 239.290166 100.246496 240.31535 97.771481 240.31535 95.191129 
C 240.31535 92.610778 239.290166 90.135763 237.465581 88.311178 
C 235.640997 86.486594 233.165982 85.461409 230.58563 85.461409 
C 228.005278 85.461409 225.530264 86.486594 223.705679 88.311178 
C 221.881095 90.135763 220.85591 92.610778 220.85591 95.191129 
C 220.85591 97.771481 221.881095 100.246496 223.705679 102.07108 
C 225.530264 103.895665 228.005278 104.920849 230.58563 104.920849 
z
" clip-path="url(#p1ff085d241)" style="fill: #9467bd; stroke: #000000; stroke-linejoin: miter"/>
   </g>
   <g id="patch_12">
    <path d="M 263.017803 104.920791 
C 265.598155 104.920791 268.073169 103.895606 269.897754 102.071022 
C 271.722338 100.246438 272.747523 97.771423 272.747523 95.191071 
C 272.747523 92.610719 271.722338 90.135704 269.897754 88.31112 
C 268.073169 86.486536 265.598155 85.461351 263.017803 85.461351 
C 260.437451 85.461351 257.962436 86.486536 256.137852 88.31112 
C 254.313267 90.135704 253.288083 92.610719 253.288083 95.191071 
C 253.288083 97.771423 254.313267 100.246438 256.137852 102.071022 
C 257.962436 103.895606 260.437451 104.920791 263.017803 104.920791 
z
" clip-path="url(#p1ff085d241)" style="fill: #8c564b; stroke: #000000; stroke-linejoin: miter"/>
   </g>
   <g id="patch_13">
    <path d="M 133.288237 169.785819 
C 135.868588 169.785819 138.343603 168.760634 140.168188 166.93605 
C 141.992772 165.111465 143.017957 162.636451 143.017957 160.056099 
C 143.017957 157.475747 141.992772 155.000732 140.168188 153.176148 
C 138.343603 151.351563 135.868588 150.326379 133.288237 150.326379 
C 130.707885 150.326379 128.23287 151.351563 126.408286 153.176148 
C 124.583701 155.000732 123.558517 157.475747 123.558517 160.056099 
C 123.558517 162.636451 124.583701 165.111465 126.408286 166.93605 
C 128.23287 168.760634 130.707885 169.785819 133.288237 169.785819 
z
" clip-path="url(#p1ff085d241)" style="fill: #e377c2; stroke: #000000; stroke-linejoin: miter"/>
   </g>
   <g id="patch_14">
    <path d="M 165.720388 169.785298 
C 168.30074 169.785298 170.775754 168.760113 172.600339 166.935529 
C 174.424923 165.110945 175.450108 162.63593 175.450108 160.055578 
C 175.450108 157.475226 174.424923 155.000211 172.600339 153.175627 
C 170.775754 151.351043 168.30074 150.325858 165.720388 150.325858 
C 163.140036 150.325858 160.665021 151.351043 158.840437 153.175627 
C 157.015852 155.000211 155.990668 157.475226 155.990668 160.055578 
C 155.990668 162.63593 157.015852 165.110945 158.840437 166.935529 
C 160.665021 168.760113 163.140036 169.785298 165.720388 169.785298 
z
" clip-path="url(#p1ff085d241)" style="fill: #7f7f7f; stroke: #000000; stroke-linejoin: miter"/>
   </g>
   <g id="patch_15">
    <path d="M 230.585459 169.785772 
C 233.165811 169.785772 235.640826 168.760587 237.46541 166.936003 
C 239.289995 165.111418 240.315179 162.636404 240.315179 160.056052 
C 240.315179 157.4757 239.289995 155.000685 237.46541 153.176101 
C 235.640826 151.351516 233.165811 150.326332 230.585459 150.326332 
C 228.005107 150.326332 225.530093 151.351516 223.705508 153.176101 
C 221.880924 155.000685 220.855739 157.4757 220.855739 160.056052 
C 220.855739 162.636404 221.880924 165.111418 223.705508 166.936003 
C 225.530093 168.760587 228.005107 169.785772 230.585459 169.785772 
z
" clip-path="url(#p1ff085d241)" style="fill: #bcbd22; stroke: #000000; stroke-linejoin: miter"/>
   </g>
   <g id="patch_16">
    <path d="M 263.017783 169.785855 
C 265.598135 169.785855 268.07315 168.76067 269.897734 166.936086 
C 271.722319 165.111502 272.747503 162.636487 272.747503 160.056135 
C 272.747503 157.475783 271.722319 155.000769 269.897734 153.176184 
C 268.07315 151.3516 265.598135 150.326415 263.017783 150.326415 
C 260.437431 150.326415 257.962417 151.3516 256.137832 153.176184 
C 254.313248 155.000769 253.288063 157.475783 253.288063 160.056135 
C 253.288063 162.636487 254.313248 165.111502 256.137832 166.936086 
C 257.962417 168.76067 260.437431 169.785855 263.017783 169.785855 
z
" clip-path="url(#p1ff085d241)" style="fill: #17becf; stroke: #000000; stroke-linejoin: miter"/>
   </g>
   <g id="patch_17">
    <path d="M 230.585472 72.488496 
C 233.165824 72.488496 235.640839 71.463312 237.465423 69.638727 
C 239.290007 67.814143 240.315192 65.339128 240.315192 62.758776 
C 240.315192 60.178424 239.290007 57.70341 237.465423 55.878825 
C 235.640839 54.054241 233.165824 53.029056 230.585472 53.029056 
C 228.00512 53.029056 225.530105 54.054241 223.705521 55.878825 
C 221.880937 57.70341 220.855752 60.178424 220.855752 62.758776 
C 220.855752 65.339128 221.880937 67.814143 223.705521 69.638727 
C 225.530105 71.463312 228.00512 72.488496 230.585472 72.488496 
z
" clip-path="url(#p1ff085d241)" style="fill: #2f4f4f; stroke: #000000; stroke-linejoin: miter"/>
   </g>
   <g id="patch_18">
    <path d="M 230.585281 40.05641 
C 233.165633 40.05641 235.640648 39.031225 237.465232 37.206641 
C 239.289816 35.382057 240.315001 32.907042 240.315001 30.32669 
C 240.315001 27.746338 239.289816 25.271323 237.465232 23.446739 
C 235.640648 21.622155 233.165633 20.59697 230.585281 20.59697 
C 228.004929 20.59697 225.529914 21.622155 223.70533 23.446739 
C 221.880746 25.271323 220.855561 27.746338 220.855561 30.32669 
C 220.855561 32.907042 221.880746 35.382057 223.70533 37.206641 
C 225.529914 39.031225 228.004929 40.05641 230.585281 40.05641 
z
" clip-path="url(#p1ff085d241)" style="fill: #cd5c5c; stroke: #000000; stroke-linejoin: miter"/>
   </g>
   <g id="patch_19">
    <path d="M 230.585558 7.623707 
C 233.16591 7.623707 235.640924 6.598523 237.465509 4.773938 
C 239.290093 2.949354 240.315278 0.474339 240.315278 -2.106013 
C 240.315278 -4.686364 239.290093 -7.161379 237.465509 -8.985964 
C 235.640924 -10.810548 233.16591 -11.835733 230.585558 -11.835733 
C 228.005206 -11.835733 225.530191 -10.810548 223.705607 -8.985964 
C 221.881022 -7.161379 220.855838 -4.686364 220.855838 -2.106013 
C 220.855838 0.474339 221.881022 2.949354 223.705607 4.773938 
C 225.530191 6.598523 228.005206 7.623707 230.585558 7.623707 
z
" clip-path="url(#p1ff085d241)" style="fill: #add8e6; stroke: #000000; stroke-linejoin: miter"/>
   </g>
   <g id="patch_20">
    <path d="M 230.585487 202.218154 
C 233.165839 202.218154 235.640853 201.192969 237.465438 199.368385 
C 239.290022 197.5438 240.315207 195.068786 240.315207 192.488434 
C 240.315207 189.908082 239.290022 187.433067 237.465438 185.608483 
C 235.640853 183.783898 233.165839 182.758714 230.585487 182.758714 
C 228.005135 182.758714 225.53012 183.783898 223.705536 185.608483 
C 221.880951 187.433067 220.855767 189.908082 220.855767 192.488434 
C 220.855767 195.068786 221.880951 197.5438 223.705536 199.368385 
C 225.53012 201.192969 228.005135 202.218154 230.585487 202.218154 
z
" clip-path="url(#p1ff085d241)" style="fill: #663399; stroke: #000000; stroke-linejoin: miter"/>
   </g>
   <g id="patch_21">
    <path d="M 230.585327 234.650573 
C 233.165679 234.650573 235.640694 233.625389 237.465278 231.800804 
C 239.289862 229.97622 240.315047 227.501205 240.315047 224.920853 
C 240.315047 222.340501 239.289862 219.865487 237.465278 218.040902 
C 235.640694 216.216318 233.165679 215.191133 230.585327 215.191133 
C 228.004975 215.191133 225.52996 216.216318 223.705376 218.040902 
C 221.880792 219.865487 220.855607 222.340501 220.855607 224.920853 
C 220.855607 227.501205 221.880792 229.97622 223.705376 231.800804 
C 225.52996 233.625389 228.004975 234.650573 230.585327 234.650573 
z
" clip-path="url(#p1ff085d241)" style="fill: #8fbc8f; stroke: #000000; stroke-linejoin: miter"/>
   </g>
   <g id="patch_22">
    <path d="M 230.58588 267.082894 
C 233.166231 267.082894 235.641246 266.057709 237.465831 264.233125 
C 239.290415 262.408541 240.3156 259.933526 240.3156 257.353174 
C 240.3156 254.772822 239.290415 252.297807 237.465831 250.473223 
C 235.641246 248.648639 233.166231 247.623454 230.58588 247.623454 
C 228.005528 247.623454 225.530513 248.648639 223.705929 250.473223 
C 221.881344 252.297807 220.85616 254.772822 220.85616 257.353174 
C 220.85616 259.933526 221.881344 262.408541 223.705929 264.233125 
C 225.530513 266.057709 228.005528 267.082894 230.58588 267.082894 
z
" clip-path="url(#p1ff085d241)" style="fill: #00ced1; stroke: #000000; stroke-linejoin: miter"/>
   </g>
   <g id="patch_23">
    <path d="M 165.72058 72.488495 
C 168.300932 72.488495 170.775947 71.463311 172.600531 69.638726 
C 174.425115 67.814142 175.4503 65.339127 175.4503 62.758775 
C 175.4503 60.178424 174.425115 57.703409 172.600531 55.878825 
C 170.775947 54.05424 168.300932 53.029055 165.72058 53.029055 
C 163.140228 53.029055 160.665214 54.05424 158.840629 55.878825 
C 157.016045 57.703409 155.99086 60.178424 155.99086 62.758775 
C 155.99086 65.339127 157.016045 67.814142 158.840629 69.638726 
C 160.665214 71.463311 163.140228 72.488495 165.72058 72.488495 
z
" clip-path="url(#p1ff085d241)" style="fill: #6a5acd; stroke: #000000; stroke-linejoin: miter"/>
   </g>
   <g id="patch_24">
    <path d="M 165.720622 40.056128 
C 168.300974 40.056128 170.775989 39.030943 172.600573 37.206359 
C 174.425157 35.381775 175.450342 32.90676 175.450342 30.326408 
C 175.450342 27.746056 174.425157 25.271041 172.600573 23.446457 
C 170.775989 21.621873 168.300974 20.596688 165.720622 20.596688 
C 163.14027 20.596688 160.665255 21.621873 158.840671 23.446457 
C 157.016087 25.271041 155.990902 27.746056 155.990902 30.326408 
C 155.990902 32.90676 157.016087 35.381775 158.840671 37.206359 
C 160.665255 39.030943 163.14027 40.056128 165.720622 40.056128 
z
" clip-path="url(#p1ff085d241)" style="fill: #808000; stroke: #000000; stroke-linejoin: miter"/>
   </g>
   <g id="patch_25">
    <path d="M 165.720575 7.623734 
C 168.300927 7.623734 170.775942 6.598549 172.600526 4.773965 
C 174.425111 2.94938 175.450295 0.474366 175.450295 -2.105986 
C 175.450295 -4.686338 174.425111 -7.161353 172.600526 -8.985937 
C 170.775942 -10.810522 168.300927 -11.835706 165.720575 -11.835706 
C 163.140223 -11.835706 160.665209 -10.810522 158.840624 -8.985937 
C 157.01604 -7.161353 155.990855 -4.686338 155.990855 -2.105986 
C 155.990855 0.474366 157.01604 2.94938 158.840624 4.773965 
C 160.665209 6.598549 163.140223 7.623734 165.720575 7.623734 
z
" clip-path="url(#p1ff085d241)" style="fill: #a0522d; stroke: #000000; stroke-linejoin: miter"/>
   </g>
   <g id="patch_26">
    <path d="M 165.720421 202.218392 
C 168.300773 202.218392 170.775788 201.193207 172.600372 199.368623 
C 174.424957 197.544039 175.450141 195.069024 175.450141 192.488672 
C 175.450141 189.90832 174.424957 187.433305 172.600372 185.608721 
C 170.775788 183.784137 168.300773 182.758952 165.720421 182.758952 
C 163.140069 182.758952 160.665055 183.784137 158.84047 185.608721 
C 157.015886 187.433305 155.990701 189.90832 155.990701 192.488672 
C 155.990701 195.069024 157.015886 197.544039 158.84047 199.368623 
C 160.665055 201.193207 163.140069 202.218392 165.720421 202.218392 
z
" clip-path="url(#p1ff085d241)" style="fill: #ff4500; stroke: #000000; stroke-linejoin: miter"/>
   </g>
   <g id="patch_27">
    <path d="M 165.720677 234.650465 
C 168.301029 234.650465 170.776043 233.62528 172.600628 231.800696 
C 174.425212 229.976112 175.450397 227.501097 175.450397 224.920745 
C 175.450397 222.340393 174.425212 219.865379 172.600628 218.040794 
C 170.776043 216.21621 168.301029 215.191025 165.720677 215.191025 
C 163.140325 215.191025 160.66531 216.21621 158.840726 218.040794 
C 157.016141 219.865379 155.990957 222.340393 155.990957 224.920745 
C 155.990957 227.501097 157.016141 229.976112 158.840726 231.800696 
C 160.66531 233.62528 163.140325 234.650465 165.720677 234.650465 
z
" clip-path="url(#p1ff085d241)" style="fill: #708090; stroke: #000000; stroke-linejoin: miter"/>
   </g>
   <g id="patch_28">
    <path d="M 165.720151 267.082899 
C 168.300502 267.082899 170.775517 266.057714 172.600102 264.23313 
C 174.424686 262.408546 175.449871 259.933531 175.449871 257.353179 
C 175.449871 254.772827 174.424686 252.297812 172.600102 250.473228 
C 170.775517 248.648644 168.300502 247.623459 165.720151 247.623459 
C 163.139799 247.623459 160.664784 248.648644 158.8402 250.473228 
C 157.015615 252.297812 155.990431 254.772827 155.990431 257.353179 
C 155.990431 259.933531 157.015615 262.408546 158.8402 264.23313 
C 160.664784 266.057714 163.139799 267.082899 165.720151 267.082899 
z
" clip-path="url(#p1ff085d241)" style="fill: #bdb76b; stroke: #000000; stroke-linejoin: miter"/>
   </g>
   <g id="line2d_59">
    <path d="M 263.0178 127.6236 
" clip-path="url(#p1ff085d241)" style="fill: none; stroke: #1f77b4; stroke-width: 1.5; stroke-linecap: square"/>
    <defs>
     <path id="m638443ef63" d="M 0 4.949747 
L 2.969848 0 
L 0 -4.949747 
L -2.969848 0 
z
" style="stroke: #000000; stroke-linejoin: miter"/>
    </defs>
    <g clip-path="url(#p1ff085d241)">
     <use xlink:href="#m638443ef63" x="263.0178" y="127.6236" style="fill: #1f77b4; stroke: #000000; stroke-linejoin: miter"/>
    </g>
   </g>
   <g id="line2d_60">
    <path d="M 263.0178 127.6236 
" clip-path="url(#p1ff085d241)" style="fill: none; stroke: #ff7f0e; stroke-width: 1.5; stroke-linecap: square"/>
    <defs>
     <path id="mf8b27149cc" d="M 0 4.949747 
L 2.969848 0 
L 0 -4.949747 
L -2.969848 0 
z
" style="stroke: #000000; stroke-linejoin: miter"/>
    </defs>
    <g clip-path="url(#p1ff085d241)">
     <use xlink:href="#mf8b27149cc" x="263.0178" y="127.6236" style="fill: #ff7f0e; stroke: #000000; stroke-linejoin: miter"/>
    </g>
   </g>
   <g id="line2d_61">
    <path d="M 133.2882 95.1912 
" clip-path="url(#p1ff085d241)" style="fill: none; stroke: #2ca02c; stroke-width: 1.5; stroke-linecap: square"/>
    <defs>
     <path id="m886b702fcb" d="M 0 4.949747 
L 2.969848 0 
L 0 -4.949747 
L -2.969848 0 
z
" style="stroke: #000000; stroke-linejoin: miter"/>
    </defs>
    <g clip-path="url(#p1ff085d241)">
     <use xlink:href="#m886b702fcb" x="133.2882" y="95.1912" style="fill: #2ca02c; stroke: #000000; stroke-linejoin: miter"/>
    </g>
   </g>
   <g id="line2d_62">
    <path d="M 165.7206 95.1912 
" clip-path="url(#p1ff085d241)" style="fill: none; stroke: #d62728; stroke-width: 1.5; stroke-linecap: square"/>
    <defs>
     <path id="m19995cd97d" d="M 0 4.949747 
L 2.969848 0 
L 0 -4.949747 
L -2.969848 0 
z
" style="stroke: #000000; stroke-linejoin: miter"/>
    </defs>
    <g clip-path="url(#p1ff085d241)">
     <use xlink:href="#m19995cd97d" x="165.7206" y="95.1912" style="fill: #d62728; stroke: #000000; stroke-linejoin: miter"/>
    </g>
   </g>
   <g id="line2d_63">
    <path d="M 230.5854 95.1912 
" clip-path="url(#p1ff085d241)" style="fill: none; stroke: #9467bd; stroke-width: 1.5; stroke-linecap: square"/>
    <defs>
     <path id="m88e99e6511" d="M 0 4.949747 
L 2.969848 0 
L 0 -4.949747 
L -2.969848 0 
z
" style="stroke: #000000; stroke-linejoin: miter"/>
    </defs>
    <g clip-path="url(#p1ff085d241)">
     <use xlink:href="#m88e99e6511" x="230.5854" y="95.1912" style="fill: #9467bd; stroke: #000000; stroke-linejoin: miter"/>
    </g>
   </g>
   <g id="line2d_64">
    <path d="M 263.0178 95.1912 
" clip-path="url(#p1ff085d241)" style="fill: none; stroke: #8c564b; stroke-width: 1.5; stroke-linecap: square"/>
    <defs>
     <path id="m563cfee9d3" d="M 0 4.949747 
L 2.969848 0 
L 0 -4.949747 
L -2.969848 0 
z
" style="stroke: #000000; stroke-linejoin: miter"/>
    </defs>
    <g clip-path="url(#p1ff085d241)">
     <use xlink:href="#m563cfee9d3" x="263.0178" y="95.1912" style="fill: #8c564b; stroke: #000000; stroke-linejoin: miter"/>
    </g>
   </g>
   <g id="line2d_65">
    <path d="M 133.2882 160.056 
" clip-path="url(#p1ff085d241)" style="fill: none; stroke: #e377c2; stroke-width: 1.5; stroke-linecap: square"/>
    <defs>
     <path id="mb7d7dd582b" d="M 0 4.949747 
L 2.969848 0 
L 0 -4.949747 
L -2.969848 0 
z
" style="stroke: #000000; stroke-linejoin: miter"/>
    </defs>
    <g clip-path="url(#p1ff085d241)">
     <use xlink:href="#mb7d7dd582b" x="133.2882" y="160.056" style="fill: #e377c2; stroke: #000000; stroke-linejoin: miter"/>
    </g>
   </g>
   <g id="line2d_66">
    <path d="M 165.7206 160.056 
" clip-path="url(#p1ff085d241)" style="fill: none; stroke: #7f7f7f; stroke-width: 1.5; stroke-linecap: square"/>
    <defs>
     <path id="meda7ef1f76" d="M 0 4.949747 
L 2.969848 0 
L 0 -4.949747 
L -2.969848 0 
z
" style="stroke: #000000; stroke-linejoin: miter"/>
    </defs>
    <g clip-path="url(#p1ff085d241)">
     <use xlink:href="#meda7ef1f76" x="165.7206" y="160.056" style="fill: #7f7f7f; stroke: #000000; stroke-linejoin: miter"/>
    </g>
   </g>
   <g id="line2d_67">
    <path d="M 230.5854 160.056 
" clip-path="url(#p1ff085d241)" style="fill: none; stroke: #bcbd22; stroke-width: 1.5; stroke-linecap: square"/>
    <defs>
     <path id="me9a7baac0a" d="M 0 4.949747 
L 2.969848 0 
L 0 -4.949747 
L -2.969848 0 
z
" style="stroke: #000000; stroke-linejoin: miter"/>
    </defs>
    <g clip-path="url(#p1ff085d241)">
     <use xlink:href="#me9a7baac0a" x="230.5854" y="160.056" style="fill: #bcbd22; stroke: #000000; stroke-linejoin: miter"/>
    </g>
   </g>
   <g id="line2d_68">
    <path d="M 263.0178 160.056 
" clip-path="url(#p1ff085d241)" style="fill: none; stroke: #17becf; stroke-width: 1.5; stroke-linecap: square"/>
    <defs>
     <path id="m7ab5e6d2b8" d="M 0 4.949747 
L 2.969848 0 
L 0 -4.949747 
L -2.969848 0 
z
" style="stroke: #000000; stroke-linejoin: miter"/>
    </defs>
    <g clip-path="url(#p1ff085d241)">
     <use xlink:href="#m7ab5e6d2b8" x="263.0178" y="160.056" style="fill: #17becf; stroke: #000000; stroke-linejoin: miter"/>
    </g>
   </g>
   <g id="line2d_69">
    <path d="M 230.5854 62.7588 
" clip-path="url(#p1ff085d241)" style="fill: none; stroke: #2f4f4f; stroke-width: 1.5; stroke-linecap: square"/>
    <defs>
     <path id="m2579a27e03" d="M 0 4.949747 
L 2.969848 0 
L 0 -4.949747 
L -2.969848 0 
z
" style="stroke: #000000; stroke-linejoin: miter"/>
    </defs>
    <g clip-path="url(#p1ff085d241)">
     <use xlink:href="#m2579a27e03" x="230.5854" y="62.7588" style="fill: #2f4f4f; stroke: #000000; stroke-linejoin: miter"/>
    </g>
   </g>
   <g id="line2d_70">
    <path d="M 230.5854 30.3264 
" clip-path="url(#p1ff085d241)" style="fill: none; stroke: #cd5c5c; stroke-width: 1.5; stroke-linecap: square"/>
    <defs>
     <path id="me8c6ebeb71" d="M 0 4.949747 
L 2.969848 0 
L 0 -4.949747 
L -2.969848 0 
z
" style="stroke: #000000; stroke-linejoin: miter"/>
    </defs>
    <g clip-path="url(#p1ff085d241)">
     <use xlink:href="#me8c6ebeb71" x="230.5854" y="30.3264" style="fill: #cd5c5c; stroke: #000000; stroke-linejoin: miter"/>
    </g>
   </g>
   <g id="line2d_71">
    <path clip-path="url(#p1ff085d241)" style="fill: none; stroke: #add8e6; stroke-width: 1.5; stroke-linecap: square"/>
    <defs>
     <path id="mc0aeb7da92" d="M 0 4.949747 
L 2.969848 0 
L 0 -4.949747 
L -2.969848 0 
z
" style="stroke: #000000; stroke-linejoin: miter"/>
    </defs>
    <g clip-path="url(#p1ff085d241)"/>
   </g>
   <g id="line2d_72">
    <path d="M 230.5854 192.4884 
" clip-path="url(#p1ff085d241)" style="fill: none; stroke: #663399; stroke-width: 1.5; stroke-linecap: square"/>
    <defs>
     <path id="mc5e4e4d4c2" d="M 0 4.949747 
L 2.969848 0 
L 0 -4.949747 
L -2.969848 0 
z
" style="stroke: #000000; stroke-linejoin: miter"/>
    </defs>
    <g clip-path="url(#p1ff085d241)">
     <use xlink:href="#mc5e4e4d4c2" x="230.5854" y="192.4884" style="fill: #663399; stroke: #000000; stroke-linejoin: miter"/>
    </g>
   </g>
   <g id="line2d_73">
    <path d="M 230.5854 224.9208 
" clip-path="url(#p1ff085d241)" style="fill: none; stroke: #8fbc8f; stroke-width: 1.5; stroke-linecap: square"/>
    <defs>
     <path id="m5597be4b96" d="M 0 4.949747 
L 2.969848 0 
L 0 -4.949747 
L -2.969848 0 
z
" style="stroke: #000000; stroke-linejoin: miter"/>
    </defs>
    <g clip-path="url(#p1ff085d241)">
     <use xlink:href="#m5597be4b96" x="230.5854" y="224.9208" style="fill: #8fbc8f; stroke: #000000; stroke-linejoin: miter"/>
    </g>
   </g>
   <g id="line2d_74">
    <path clip-path="url(#p1ff085d241)" style="fill: none; stroke: #00ced1; stroke-width: 1.5; stroke-linecap: square"/>
    <defs>
     <path id="me222506471" d="M 0 4.949747 
L 2.969848 0 
L 0 -4.949747 
L -2.969848 0 
z
" style="stroke: #000000; stroke-linejoin: miter"/>
    </defs>
    <g clip-path="url(#p1ff085d241)">
     <use xlink:href="#me222506471" x="230.5854" y="257.3532" style="fill: #00ced1; stroke: #000000; stroke-linejoin: miter"/>
    </g>
   </g>
   <g id="line2d_75">
    <path d="M 165.7206 62.7588 
" clip-path="url(#p1ff085d241)" style="fill: none; stroke: #6a5acd; stroke-width: 1.5; stroke-linecap: square"/>
    <defs>
     <path id="m6807be8601" d="M 0 4.949747 
L 2.969848 0 
L 0 -4.949747 
L -2.969848 0 
z
" style="stroke: #000000; stroke-linejoin: miter"/>
    </defs>
    <g clip-path="url(#p1ff085d241)">
     <use xlink:href="#m6807be8601" x="165.7206" y="62.7588" style="fill: #6a5acd; stroke: #000000; stroke-linejoin: miter"/>
    </g>
   </g>
   <g id="line2d_76">
    <path d="M 165.7206 30.3264 
" clip-path="url(#p1ff085d241)" style="fill: none; stroke: #808000; stroke-width: 1.5; stroke-linecap: square"/>
    <defs>
     <path id="m8a2c82dede" d="M 0 4.949747 
L 2.969848 0 
L 0 -4.949747 
L -2.969848 0 
z
" style="stroke: #000000; stroke-linejoin: miter"/>
    </defs>
    <g clip-path="url(#p1ff085d241)">
     <use xlink:href="#m8a2c82dede" x="165.7206" y="30.3264" style="fill: #808000; stroke: #000000; stroke-linejoin: miter"/>
    </g>
   </g>
   <g id="line2d_77">
    <path clip-path="url(#p1ff085d241)" style="fill: none; stroke: #a0522d; stroke-width: 1.5; stroke-linecap: square"/>
    <defs>
     <path id="ma8f91b1e51" d="M 0 4.949747 
L 2.969848 0 
L 0 -4.949747 
L -2.969848 0 
z
" style="stroke: #000000; stroke-linejoin: miter"/>
    </defs>
    <g clip-path="url(#p1ff085d241)"/>
   </g>
   <g id="line2d_78">
    <path d="M 165.7206 192.4884 
" clip-path="url(#p1ff085d241)" style="fill: none; stroke: #ff4500; stroke-width: 1.5; stroke-linecap: square"/>
    <defs>
     <path id="mf771df56b7" d="M 0 4.949747 
L 2.969848 0 
L 0 -4.949747 
L -2.969848 0 
z
" style="stroke: #000000; stroke-linejoin: miter"/>
    </defs>
    <g clip-path="url(#p1ff085d241)">
     <use xlink:href="#mf771df56b7" x="165.7206" y="192.4884" style="fill: #ff4500; stroke: #000000; stroke-linejoin: miter"/>
    </g>
   </g>
   <g id="line2d_79">
    <path d="M 165.7206 224.9208 
" clip-path="url(#p1ff085d241)" style="fill: none; stroke: #708090; stroke-width: 1.5; stroke-linecap: square"/>
    <defs>
     <path id="m1785c945c0" d="M 0 4.949747 
L 2.969848 0 
L 0 -4.949747 
L -2.969848 0 
z
" style="stroke: #000000; stroke-linejoin: miter"/>
    </defs>
    <g clip-path="url(#p1ff085d241)">
     <use xlink:href="#m1785c945c0" x="165.7206" y="224.9208" style="fill: #708090; stroke: #000000; stroke-linejoin: miter"/>
    </g>
   </g>
   <g id="line2d_80">
    <path clip-path="url(#p1ff085d241)" style="fill: none; stroke: #bdb76b; stroke-width: 1.5; stroke-linecap: square"/>
    <defs>
     <path id="m562411556d" d="M 0 4.949747 
L 2.969848 0 
L 0 -4.949747 
L -2.969848 0 
z
" style="stroke: #000000; stroke-linejoin: miter"/>
    </defs>
    <g clip-path="url(#p1ff085d241)">
     <use xlink:href="#m562411556d" x="165.7206" y="257.3532" style="fill: #bdb76b; stroke: #000000; stroke-linejoin: miter"/>
    </g>
   </g>
  </g>
 </g>
 <defs>
  <clipPath id="p1ff085d241">
   <rect x="100.8558" y="30.3264" width="194.5944" height="194.5944"/>
  </clipPath>
 </defs>
</svg>
