<?xml version="1.0" encoding="utf-8" standalone="no"?>
<!DOCTYPE svg PUBLIC "-//W3C//DTD SVG 1.1//EN"
  "http://www.w3.org/Graphics/SVG/1.1/DTD/svg11.dtd">
<svg xmlns:xlink="http://www.w3.org/1999/xlink" width="386.64pt" height="252.72pt" viewBox="0 0 386.64 252.72" xmlns="http://www.w3.org/2000/svg" version="1.1">
 <metadata>
  <rdf:RDF xmlns:dc="http://purl.org/dc/elements/1.1/" xmlns:cc="http://creativecommons.org/ns#" xmlns:rdf="http://www.w3.org/1999/02/22-rdf-syntax-ns#">
   <cc:Work>
    <dc:type rdf:resource="http://purl.org/dc/dcmitype/StillImage"/>
    <dc:date>2023-07-11T22:26:54.488542</dc:date>
    <dc:format>image/svg+xml</dc:format>
    <dc:creator>
     <cc:Agent>
      <dc:title>Matplotlib v3.6.2, https://matplotlib.org/</dc:title>
     </cc:Agent>
    </dc:creator>
   </cc:Work>
  </rdf:RDF>
 </metadata>
 <defs>
  <style type="text/css">*{stroke-linejoin: round; stroke-linecap: butt}</style>
 </defs>
 <g id="figure_1">
  <g id="patch_1">
   <path d="M 0 252.72 
L 386.64 252.72 
L 386.64 0 
L 0 0 
z
" style="fill: #ffffff"/>
  </g>
  <g id="axes_1">
   <g id="patch_2">
    <path d="M 100.8558 224.9208 
L 295.4502 224.9208 
L 295.4502 30.3264 
L 100.8558 30.3264 
z
" style="fill: #ffffff"/>
   </g>
   <g id="matplotlib.axis_1">
    <g id="xtick_1">
     <g id="line2d_1">
      <defs>
       <path id="m0cb7624e05" d="M 0 0 
L 0 3.5 
" style="stroke: #000000; stroke-width: 0.8"/>
      </defs>
      <g>
       <use xlink:href="#m0cb7624e05" x="100.8558" y="224.9208" style="stroke: #000000; stroke-width: 0.8"/>
      </g>
     </g>
     <g id="text_1">
      <!-- −0.5 -->
      <g transform="translate(88.714394 239.519237) scale(0.1 -0.1)">
       <defs>
        <path id="DejaVuSans-2212" d="M 678 2272 
L 4684 2272 
L 4684 1741 
L 678 1741 
L 678 2272 
z
" transform="scale(0.015625)"/>
        <path id="DejaVuSans-30" d="M 2034 4250 
Q 1547 4250 1301 3770 
Q 1056 3291 1056 2328 
Q 1056 1369 1301 889 
Q 1547 409 2034 409 
Q 2525 409 2770 889 
Q 3016 1369 3016 2328 
Q 3016 3291 2770 3770 
Q 2525 4250 2034 4250 
z
M 2034 4750 
Q 2819 4750 3233 4129 
Q 3647 3509 3647 2328 
Q 3647 1150 3233 529 
Q 2819 -91 2034 -91 
Q 1250 -91 836 529 
Q 422 1150 422 2328 
Q 422 3509 836 4129 
Q 1250 4750 2034 4750 
z
" transform="scale(0.015625)"/>
        <path id="DejaVuSans-2e" d="M 684 794 
L 1344 794 
L 1344 0 
L 684 0 
L 684 794 
z
" transform="scale(0.015625)"/>
        <path id="DejaVuSans-35" d="M 691 4666 
L 3169 4666 
L 3169 4134 
L 1269 4134 
L 1269 2991 
Q 1406 3038 1543 3061 
Q 1681 3084 1819 3084 
Q 2600 3084 3056 2656 
Q 3513 2228 3513 1497 
Q 3513 744 3044 326 
Q 2575 -91 1722 -91 
Q 1428 -91 1123 -41 
Q 819 9 494 109 
L 494 744 
Q 775 591 1075 516 
Q 1375 441 1709 441 
Q 2250 441 2565 725 
Q 2881 1009 2881 1497 
Q 2881 1984 2565 2268 
Q 2250 2553 1709 2553 
Q 1456 2553 1204 2497 
Q 953 2441 691 2322 
L 691 4666 
z
" transform="scale(0.015625)"/>
       </defs>
       <use xlink:href="#DejaVuSans-2212"/>
       <use xlink:href="#DejaVuSans-30" x="83.789062"/>
       <use xlink:href="#DejaVuSans-2e" x="147.412109"/>
       <use xlink:href="#DejaVuSans-35" x="179.199219"/>
      </g>
     </g>
    </g>
    <g id="xtick_2">
     <g id="line2d_2">
      <g>
       <use xlink:href="#m0cb7624e05" x="133.2882" y="224.9208" style="stroke: #000000; stroke-width: 0.8"/>
      </g>
     </g>
     <g id="text_2">
      <!-- 0.0 -->
      <g transform="translate(125.336638 239.519237) scale(0.1 -0.1)">
       <use xlink:href="#DejaVuSans-30"/>
       <use xlink:href="#DejaVuSans-2e" x="63.623047"/>
       <use xlink:href="#DejaVuSans-30" x="95.410156"/>
      </g>
     </g>
    </g>
    <g id="xtick_3">
     <g id="line2d_3">
      <g>
       <use xlink:href="#m0cb7624e05" x="165.7206" y="224.9208" style="stroke: #000000; stroke-width: 0.8"/>
      </g>
     </g>
     <g id="text_3">
      <!-- 0.5 -->
      <g transform="translate(157.769037 239.519237) scale(0.1 -0.1)">
       <use xlink:href="#DejaVuSans-30"/>
       <use xlink:href="#DejaVuSans-2e" x="63.623047"/>
       <use xlink:href="#DejaVuSans-35" x="95.410156"/>
      </g>
     </g>
    </g>
    <g id="xtick_4">
     <g id="line2d_4">
      <g>
       <use xlink:href="#m0cb7624e05" x="198.153" y="224.9208" style="stroke: #000000; stroke-width: 0.8"/>
      </g>
     </g>
     <g id="text_4">
      <!-- 1.0 -->
      <g transform="translate(190.201437 239.519237) scale(0.1 -0.1)">
       <defs>
        <path id="DejaVuSans-31" d="M 794 531 
L 1825 531 
L 1825 4091 
L 703 3866 
L 703 4441 
L 1819 4666 
L 2450 4666 
L 2450 531 
L 3481 531 
L 3481 0 
L 794 0 
L 794 531 
z
" transform="scale(0.015625)"/>
       </defs>
       <use xlink:href="#DejaVuSans-31"/>
       <use xlink:href="#DejaVuSans-2e" x="63.623047"/>
       <use xlink:href="#DejaVuSans-30" x="95.410156"/>
      </g>
     </g>
    </g>
    <g id="xtick_5">
     <g id="line2d_5">
      <g>
       <use xlink:href="#m0cb7624e05" x="230.5854" y="224.9208" style="stroke: #000000; stroke-width: 0.8"/>
      </g>
     </g>
     <g id="text_5">
      <!-- 1.5 -->
      <g transform="translate(222.633837 239.519237) scale(0.1 -0.1)">
       <use xlink:href="#DejaVuSans-31"/>
       <use xlink:href="#DejaVuSans-2e" x="63.623047"/>
       <use xlink:href="#DejaVuSans-35" x="95.410156"/>
      </g>
     </g>
    </g>
    <g id="xtick_6">
     <g id="line2d_6">
      <g>
       <use xlink:href="#m0cb7624e05" x="263.0178" y="224.9208" style="stroke: #000000; stroke-width: 0.8"/>
      </g>
     </g>
     <g id="text_6">
      <!-- 2.0 -->
      <g transform="translate(255.066237 239.519237) scale(0.1 -0.1)">
       <defs>
        <path id="DejaVuSans-32" d="M 1228 531 
L 3431 531 
L 3431 0 
L 469 0 
L 469 531 
Q 828 903 1448 1529 
Q 2069 2156 2228 2338 
Q 2531 2678 2651 2914 
Q 2772 3150 2772 3378 
Q 2772 3750 2511 3984 
Q 2250 4219 1831 4219 
Q 1534 4219 1204 4116 
Q 875 4013 500 3803 
L 500 4441 
Q 881 4594 1212 4672 
Q 1544 4750 1819 4750 
Q 2544 4750 2975 4387 
Q 3406 4025 3406 3419 
Q 3406 3131 3298 2873 
Q 3191 2616 2906 2266 
Q 2828 2175 2409 1742 
Q 1991 1309 1228 531 
z
" transform="scale(0.015625)"/>
       </defs>
       <use xlink:href="#DejaVuSans-32"/>
       <use xlink:href="#DejaVuSans-2e" x="63.623047"/>
       <use xlink:href="#DejaVuSans-30" x="95.410156"/>
      </g>
     </g>
    </g>
    <g id="xtick_7">
     <g id="line2d_7">
      <g>
       <use xlink:href="#m0cb7624e05" x="295.4502" y="224.9208" style="stroke: #000000; stroke-width: 0.8"/>
      </g>
     </g>
     <g id="text_7">
      <!-- 2.5 -->
      <g transform="translate(287.498637 239.519237) scale(0.1 -0.1)">
       <use xlink:href="#DejaVuSans-32"/>
       <use xlink:href="#DejaVuSans-2e" x="63.623047"/>
       <use xlink:href="#DejaVuSans-35" x="95.410156"/>
      </g>
     </g>
    </g>
    <g id="text_8">
     <!-- x(m) -->
     <g transform="translate(186.42175 253.197362) scale(0.1 -0.1)">
      <defs>
       <path id="DejaVuSans-78" d="M 3513 3500 
L 2247 1797 
L 3578 0 
L 2900 0 
L 1881 1375 
L 863 0 
L 184 0 
L 1544 1831 
L 300 3500 
L 978 3500 
L 1906 2253 
L 2834 3500 
L 3513 3500 
z
" transform="scale(0.015625)"/>
       <path id="DejaVuSans-28" d="M 1984 4856 
Q 1566 4138 1362 3434 
Q 1159 2731 1159 2009 
Q 1159 1288 1364 580 
Q 1569 -128 1984 -844 
L 1484 -844 
Q 1016 -109 783 600 
Q 550 1309 550 2009 
Q 550 2706 781 3412 
Q 1013 4119 1484 4856 
L 1984 4856 
z
" transform="scale(0.015625)"/>
       <path id="DejaVuSans-6d" d="M 3328 2828 
Q 3544 3216 3844 3400 
Q 4144 3584 4550 3584 
Q 5097 3584 5394 3201 
Q 5691 2819 5691 2113 
L 5691 0 
L 5113 0 
L 5113 2094 
Q 5113 2597 4934 2840 
Q 4756 3084 4391 3084 
Q 3944 3084 3684 2787 
Q 3425 2491 3425 1978 
L 3425 0 
L 2847 0 
L 2847 2094 
Q 2847 2600 2669 2842 
Q 2491 3084 2119 3084 
Q 1678 3084 1418 2786 
Q 1159 2488 1159 1978 
L 1159 0 
L 581 0 
L 581 3500 
L 1159 3500 
L 1159 2956 
Q 1356 3278 1631 3431 
Q 1906 3584 2284 3584 
Q 2666 3584 2933 3390 
Q 3200 3197 3328 2828 
z
" transform="scale(0.015625)"/>
       <path id="DejaVuSans-29" d="M 513 4856 
L 1013 4856 
Q 1481 4119 1714 3412 
Q 1947 2706 1947 2009 
Q 1947 1309 1714 600 
Q 1481 -109 1013 -844 
L 513 -844 
Q 928 -128 1133 580 
Q 1338 1288 1338 2009 
Q 1338 2731 1133 3434 
Q 928 4138 513 4856 
z
" transform="scale(0.015625)"/>
      </defs>
      <use xlink:href="#DejaVuSans-78"/>
      <use xlink:href="#DejaVuSans-28" x="59.179688"/>
      <use xlink:href="#DejaVuSans-6d" x="98.193359"/>
      <use xlink:href="#DejaVuSans-29" x="195.605469"/>
     </g>
    </g>
   </g>
   <g id="matplotlib.axis_2">
    <g id="ytick_1">
     <g id="line2d_8">
      <defs>
       <path id="m3242545f0f" d="M 0 0 
L -3.5 0 
" style="stroke: #000000; stroke-width: 0.8"/>
      </defs>
      <g>
       <use xlink:href="#m3242545f0f" x="100.8558" y="224.9208" style="stroke: #000000; stroke-width: 0.8"/>
      </g>
     </g>
     <g id="text_9">
      <!-- −0.5 -->
      <g transform="translate(69.572988 228.720019) scale(0.1 -0.1)">
       <use xlink:href="#DejaVuSans-2212"/>
       <use xlink:href="#DejaVuSans-30" x="83.789062"/>
       <use xlink:href="#DejaVuSans-2e" x="147.412109"/>
       <use xlink:href="#DejaVuSans-35" x="179.199219"/>
      </g>
     </g>
    </g>
    <g id="ytick_2">
     <g id="line2d_9">
      <g>
       <use xlink:href="#m3242545f0f" x="100.8558" y="192.4884" style="stroke: #000000; stroke-width: 0.8"/>
      </g>
     </g>
     <g id="text_10">
      <!-- 0.0 -->
      <g transform="translate(77.952675 196.287619) scale(0.1 -0.1)">
       <use xlink:href="#DejaVuSans-30"/>
       <use xlink:href="#DejaVuSans-2e" x="63.623047"/>
       <use xlink:href="#DejaVuSans-30" x="95.410156"/>
      </g>
     </g>
    </g>
    <g id="ytick_3">
     <g id="line2d_10">
      <g>
       <use xlink:href="#m3242545f0f" x="100.8558" y="160.056" style="stroke: #000000; stroke-width: 0.8"/>
      </g>
     </g>
     <g id="text_11">
      <!-- 0.5 -->
      <g transform="translate(77.952675 163.855219) scale(0.1 -0.1)">
       <use xlink:href="#DejaVuSans-30"/>
       <use xlink:href="#DejaVuSans-2e" x="63.623047"/>
       <use xlink:href="#DejaVuSans-35" x="95.410156"/>
      </g>
     </g>
    </g>
    <g id="ytick_4">
     <g id="line2d_11">
      <g>
       <use xlink:href="#m3242545f0f" x="100.8558" y="127.6236" style="stroke: #000000; stroke-width: 0.8"/>
      </g>
     </g>
     <g id="text_12">
      <!-- 1.0 -->
      <g transform="translate(77.952675 131.422819) scale(0.1 -0.1)">
       <use xlink:href="#DejaVuSans-31"/>
       <use xlink:href="#DejaVuSans-2e" x="63.623047"/>
       <use xlink:href="#DejaVuSans-30" x="95.410156"/>
      </g>
     </g>
    </g>
    <g id="ytick_5">
     <g id="line2d_12">
      <g>
       <use xlink:href="#m3242545f0f" x="100.8558" y="95.1912" style="stroke: #000000; stroke-width: 0.8"/>
      </g>
     </g>
     <g id="text_13">
      <!-- 1.5 -->
      <g transform="translate(77.952675 98.990419) scale(0.1 -0.1)">
       <use xlink:href="#DejaVuSans-31"/>
       <use xlink:href="#DejaVuSans-2e" x="63.623047"/>
       <use xlink:href="#DejaVuSans-35" x="95.410156"/>
      </g>
     </g>
    </g>
    <g id="ytick_6">
     <g id="line2d_13">
      <g>
       <use xlink:href="#m3242545f0f" x="100.8558" y="62.7588" style="stroke: #000000; stroke-width: 0.8"/>
      </g>
     </g>
     <g id="text_14">
      <!-- 2.0 -->
      <g transform="translate(77.952675 66.558019) scale(0.1 -0.1)">
       <use xlink:href="#DejaVuSans-32"/>
       <use xlink:href="#DejaVuSans-2e" x="63.623047"/>
       <use xlink:href="#DejaVuSans-30" x="95.410156"/>
      </g>
     </g>
    </g>
    <g id="ytick_7">
     <g id="line2d_14">
      <g>
       <use xlink:href="#m3242545f0f" x="100.8558" y="30.3264" style="stroke: #000000; stroke-width: 0.8"/>
      </g>
     </g>
     <g id="text_15">
      <!-- 2.5 -->
      <g transform="translate(77.952675 34.125619) scale(0.1 -0.1)">
       <use xlink:href="#DejaVuSans-32"/>
       <use xlink:href="#DejaVuSans-2e" x="63.623047"/>
       <use xlink:href="#DejaVuSans-35" x="95.410156"/>
      </g>
     </g>
    </g>
    <g id="text_16">
     <!-- y(m) -->
     <g transform="translate(63.4933 139.35485) rotate(-90) scale(0.1 -0.1)">
      <defs>
       <path id="DejaVuSans-79" d="M 2059 -325 
Q 1816 -950 1584 -1140 
Q 1353 -1331 966 -1331 
L 506 -1331 
L 506 -850 
L 844 -850 
Q 1081 -850 1212 -737 
Q 1344 -625 1503 -206 
L 1606 56 
L 191 3500 
L 800 3500 
L 1894 763 
L 2988 3500 
L 3597 3500 
L 2059 -325 
z
" transform="scale(0.015625)"/>
      </defs>
      <use xlink:href="#DejaVuSans-79"/>
      <use xlink:href="#DejaVuSans-28" x="59.179688"/>
      <use xlink:href="#DejaVuSans-6d" x="98.193359"/>
      <use xlink:href="#DejaVuSans-29" x="195.605469"/>
     </g>
    </g>
   </g>
   <g id="line2d_15">
    <path d="M 186.619963 127.486284 
L 199.59275 127.516253 
L 212.475116 127.546428 
L 224.153466 127.572678 
L 231.610027 127.590617 
L 235.896068 127.600148 
L 238.914004 127.607156 
L 241.127612 127.612196 
L 242.822933 127.61608 
L 244.162358 127.619133 
L 245.247338 127.621611 
L 246.144015 127.623655 
L 246.144015 127.623655 
" clip-path="url(#p48cec2eb39)" style="fill: none; stroke-dasharray: 2,3.3; stroke-dashoffset: 0; stroke: #1f77b4; stroke-width: 2"/>
   </g>
   <g id="line2d_16">
    <path d="M 133.2882 127.6236 
L 133.2882 127.6236 
L 133.768676 127.621531 
L 138.573349 127.593776 
L 147.701648 127.493337 
L 160.673863 127.41217 
L 173.646739 127.459601 
L 186.619963 127.486284 
" clip-path="url(#p48cec2eb39)" style="fill: none; stroke: #1f77b4; stroke-width: 2; stroke-linecap: square"/>
   </g>
   <g id="line2d_17">
    <path d="M 204.917797 161.07713 
L 206.95051 154.988842 
L 207.832041 152.754311 
L 208.185288 151.859268 
L 208.501934 151.022272 
L 208.79459 150.301415 
L 209.051419 149.710229 
L 209.263974 149.240024 
L 209.426711 148.880041 
L 209.555254 148.595676 
L 209.659376 148.365339 
L 209.745426 148.174985 
L 209.745426 148.174985 
" clip-path="url(#p48cec2eb39)" style="fill: none; stroke-dasharray: 2,3.3; stroke-dashoffset: 0; stroke: #ff7f0e; stroke-width: 2"/>
   </g>
   <g id="line2d_18">
    <path d="M 198.153 205.46136 
L 198.153 205.46136 
L 198.164648 204.981025 
L 198.417246 200.200816 
L 199.877385 191.454013 
L 201.48243 180.264573 
L 202.738317 169.560811 
L 204.917797 161.07713 
" clip-path="url(#p48cec2eb39)" style="fill: none; stroke: #ff7f0e; stroke-width: 2; stroke-linecap: square"/>
   </g>
   <g id="line2d_19">
    <path d="M 133.288216 95.191155 
L 133.288222 95.191135 
L 133.288227 95.191113 
L 133.28823 95.19109 
L 133.288233 95.191068 
L 133.288233 95.191049 
L 133.288232 95.191034 
L 133.288231 95.191024 
L 133.288228 95.191019 
L 133.288225 95.19102 
L 133.288224 95.191022 
L 133.288223 95.191023 
L 133.288223 95.191023 
" clip-path="url(#p48cec2eb39)" style="fill: none; stroke-dasharray: 2,3.3; stroke-dashoffset: 0; stroke: #2ca02c; stroke-width: 2"/>
   </g>
   <g id="line2d_20">
    <path d="M 133.2882 95.1912 
L 133.2882 95.1912 
L 133.2882 95.1912 
L 133.288202 95.1912 
L 133.288204 95.191197 
L 133.288206 95.19119 
L 133.288211 95.191173 
L 133.288216 95.191155 
" clip-path="url(#p48cec2eb39)" style="fill: none; stroke: #2ca02c; stroke-width: 2; stroke-linecap: square"/>
   </g>
   <g id="line2d_21">
    <path d="M 165.720422 95.191125 
L 165.720364 95.19108 
L 165.720294 95.191046 
L 165.720228 95.19104 
L 165.720201 95.191066 
L 165.720207 95.1911 
L 165.720241 95.191127 
L 165.720297 95.191145 
L 165.720367 95.191161 
L 165.720438 95.191176 
L 165.720492 95.191186 
L 165.720518 95.191191 
L 165.720518 95.191191 
" clip-path="url(#p48cec2eb39)" style="fill: none; stroke-dasharray: 2,3.3; stroke-dashoffset: 0; stroke: #d62728; stroke-width: 2"/>
   </g>
   <g id="line2d_22">
    <path d="M 165.7206 95.1912 
L 165.7206 95.1912 
L 165.720601 95.191194 
L 165.720603 95.19115 
L 165.720581 95.191153 
L 165.720541 95.191158 
L 165.720483 95.19116 
L 165.720422 95.191125 
" clip-path="url(#p48cec2eb39)" style="fill: none; stroke: #d62728; stroke-width: 2; stroke-linecap: square"/>
   </g>
   <g id="line2d_23">
    <path d="M 230.585457 95.191257 
L 230.585478 95.191303 
L 230.585513 95.191348 
L 230.585552 95.191386 
L 230.585576 95.191401 
L 230.585583 95.191395 
L 230.585574 95.191374 
L 230.585551 95.19134 
L 230.58552 95.191301 
L 230.585485 95.191264 
L 230.585458 95.191236 
L 230.585444 95.191223 
L 230.585444 95.191223 
" clip-path="url(#p48cec2eb39)" style="fill: none; stroke-dasharray: 2,3.3; stroke-dashoffset: 0; stroke: #9467bd; stroke-width: 2"/>
   </g>
   <g id="line2d_24">
    <path d="M 230.5854 95.1912 
L 230.5854 95.1912 
L 230.5854 95.191198 
L 230.585399 95.191183 
L 230.585405 95.191174 
L 230.585427 95.191186 
L 230.585443 95.191202 
L 230.585457 95.191257 
" clip-path="url(#p48cec2eb39)" style="fill: none; stroke: #9467bd; stroke-width: 2; stroke-linecap: square"/>
   </g>
   <g id="line2d_25">
    <path d="M 263.017818 95.191173 
L 263.017819 95.191161 
L 263.017819 95.191148 
L 263.017818 95.191136 
L 263.017817 95.191124 
L 263.017817 95.191115 
L 263.017816 95.191108 
L 263.017814 95.191104 
L 263.017813 95.191104 
L 263.017812 95.191105 
L 263.017811 95.191107 
L 263.01781 95.191108 
L 263.01781 95.191108 
" clip-path="url(#p48cec2eb39)" style="fill: none; stroke-dasharray: 2,3.3; stroke-dashoffset: 0; stroke: #8c564b; stroke-width: 2"/>
   </g>
   <g id="line2d_26">
    <path d="M 263.0178 95.1912 
L 263.0178 95.1912 
L 263.017801 95.1912 
L 263.017807 95.191203 
L 263.017812 95.191199 
L 263.017815 95.191193 
L 263.017817 95.191185 
L 263.017818 95.191173 
" clip-path="url(#p48cec2eb39)" style="fill: none; stroke: #8c564b; stroke-width: 2; stroke-linecap: square"/>
   </g>
   <g id="line2d_27">
    <path d="M 133.288212 160.056031 
L 133.288213 160.056043 
L 133.288214 160.056058 
L 133.288214 160.056074 
L 133.288214 160.056088 
L 133.288214 160.056101 
L 133.288213 160.056111 
L 133.288212 160.056117 
L 133.288211 160.056119 
L 133.28821 160.056118 
L 133.288209 160.056116 
L 133.288208 160.056115 
L 133.288208 160.056115 
" clip-path="url(#p48cec2eb39)" style="fill: none; stroke-dasharray: 2,3.3; stroke-dashoffset: 0; stroke: #e377c2; stroke-width: 2"/>
   </g>
   <g id="line2d_28">
    <path d="M 133.2882 160.056 
L 133.2882 160.056 
L 133.2882 160.056 
L 133.288203 160.056 
L 133.288205 160.056004 
L 133.288208 160.056011 
L 133.28821 160.05602 
L 133.288212 160.056031 
" clip-path="url(#p48cec2eb39)" style="fill: none; stroke: #e377c2; stroke-width: 2; stroke-linecap: square"/>
   </g>
   <g id="line2d_29">
    <path d="M 165.72048 160.055656 
L 165.720441 160.055585 
L 165.720376 160.05554 
L 165.720304 160.055528 
L 165.72026 160.055555 
L 165.720249 160.055615 
L 165.720268 160.055698 
L 165.720312 160.055794 
L 165.720371 160.055889 
L 165.720434 160.055972 
L 165.720484 160.05603 
L 165.720509 160.056059 
L 165.720509 160.056059 
" clip-path="url(#p48cec2eb39)" style="fill: none; stroke-dasharray: 2,3.3; stroke-dashoffset: 0; stroke: #7f7f7f; stroke-width: 2"/>
   </g>
   <g id="line2d_30">
    <path d="M 165.7206 160.056 
L 165.7206 160.056 
L 165.7206 160.055997 
L 165.720599 160.05597 
L 165.720579 160.055908 
L 165.72054 160.055856 
L 165.720503 160.055767 
L 165.72048 160.055656 
" clip-path="url(#p48cec2eb39)" style="fill: none; stroke: #7f7f7f; stroke-width: 2; stroke-linecap: square"/>
   </g>
   <g id="line2d_31">
    <path d="M 230.585459 160.055962 
L 230.585458 160.055966 
L 230.585455 160.055971 
L 230.585449 160.055975 
L 230.58544 160.05598 
L 230.58543 160.055985 
L 230.585421 160.055989 
L 230.585414 160.055993 
L 230.585411 160.055997 
L 230.585411 160.056 
L 230.585411 160.056002 
L 230.585411 160.056003 
L 230.585411 160.056003 
" clip-path="url(#p48cec2eb39)" style="fill: none; stroke-dasharray: 2,3.3; stroke-dashoffset: 0; stroke: #bcbd22; stroke-width: 2"/>
   </g>
   <g id="line2d_32">
    <path d="M 230.5854 160.056 
L 230.5854 160.056 
L 230.5854 160.056002 
L 230.585404 160.056019 
L 230.585426 160.055987 
L 230.585441 160.055965 
L 230.585453 160.055958 
L 230.585459 160.055962 
" clip-path="url(#p48cec2eb39)" style="fill: none; stroke: #bcbd22; stroke-width: 2; stroke-linecap: square"/>
   </g>
   <g id="line2d_33">
    <path d="M 263.017798 160.056043 
L 263.017795 160.056057 
L 263.017792 160.056075 
L 263.01779 160.056093 
L 263.017788 160.05611 
L 263.017787 160.056125 
L 263.017786 160.056137 
L 263.017786 160.056145 
L 263.017787 160.056148 
L 263.017787 160.056148 
L 263.017788 160.056146 
L 263.017788 160.056145 
L 263.017788 160.056145 
" clip-path="url(#p48cec2eb39)" style="fill: none; stroke-dasharray: 2,3.3; stroke-dashoffset: 0; stroke: #17becf; stroke-width: 2"/>
   </g>
   <g id="line2d_34">
    <path d="M 263.0178 160.056 
L 263.0178 160.056 
L 263.0178 160.056 
L 263.0178 160.056 
L 263.0178 160.056006 
L 263.017801 160.056017 
L 263.017802 160.056031 
L 263.017798 160.056043 
" clip-path="url(#p48cec2eb39)" style="fill: none; stroke: #17becf; stroke-width: 2; stroke-linecap: square"/>
   </g>
   <g id="line2d_35">
    <path d="M 230.585392 62.758754 
L 230.585393 62.758755 
L 230.585396 62.758758 
L 230.585399 62.758761 
L 230.585401 62.758765 
L 230.585403 62.758771 
L 230.585404 62.758776 
L 230.585405 62.758782 
L 230.585404 62.758787 
L 230.585403 62.758791 
L 230.585402 62.758794 
L 230.585402 62.758796 
L 230.585402 62.758796 
" clip-path="url(#p48cec2eb39)" style="fill: none; stroke-dasharray: 2,3.3; stroke-dashoffset: 0; stroke: #2f4f4f; stroke-width: 2"/>
   </g>
   <g id="line2d_36">
    <path d="M 230.5854 62.7588 
L 230.5854 62.7588 
L 230.5854 62.758798 
L 230.585398 62.758783 
L 230.585395 62.75877 
L 230.585392 62.758761 
L 230.585391 62.758756 
L 230.585392 62.758754 
" clip-path="url(#p48cec2eb39)" style="fill: none; stroke: #2f4f4f; stroke-width: 2; stroke-linecap: square"/>
   </g>
   <g id="line2d_37">
    <path d="M 230.585298 30.326587 
L 230.585288 30.326613 
L 230.585281 30.326639 
L 230.585278 30.326661 
L 230.585279 30.326671 
L 230.585286 30.326668 
L 230.585298 30.326652 
L 230.585314 30.326623 
L 230.585331 30.326585 
L 230.585347 30.326545 
L 230.585359 30.32651 
L 230.585366 30.32649 
L 230.585366 30.32649 
" clip-path="url(#p48cec2eb39)" style="fill: none; stroke-dasharray: 2,3.3; stroke-dashoffset: 0; stroke: #cd5c5c; stroke-width: 2"/>
   </g>
   <g id="line2d_38">
    <path d="M 230.5854 30.3264 
L 230.5854 30.3264 
L 230.585397 30.326406 
L 230.585368 30.32646 
L 230.585347 30.326501 
L 230.585328 30.326531 
L 230.585311 30.326561 
L 230.585298 30.326587 
" clip-path="url(#p48cec2eb39)" style="fill: none; stroke: #cd5c5c; stroke-width: 2; stroke-linecap: square"/>
   </g>
   <g id="line2d_39">
    <path clip-path="url(#p48cec2eb39)" style="fill: none; stroke-dasharray: 2,3.3; stroke-dashoffset: 0; stroke: #add8e6; stroke-width: 2"/>
   </g>
   <g id="line2d_40">
    <path clip-path="url(#p48cec2eb39)" style="fill: none; stroke: #add8e6; stroke-width: 2; stroke-linecap: square"/>
   </g>
   <g id="line2d_41">
    <path d="M 230.585383 192.488425 
L 230.585391 192.488425 
L 230.585413 192.488419 
L 230.585442 192.488409 
L 230.585467 192.488398 
L 230.585484 192.488386 
L 230.585492 192.488376 
L 230.585491 192.488368 
L 230.585481 192.488363 
L 230.585466 192.488362 
L 230.585452 192.488362 
L 230.585446 192.488362 
L 230.585446 192.488362 
" clip-path="url(#p48cec2eb39)" style="fill: none; stroke-dasharray: 2,3.3; stroke-dashoffset: 0; stroke: #663399; stroke-width: 2"/>
   </g>
   <g id="line2d_42">
    <path d="M 230.5854 192.4884 
L 230.5854 192.4884 
L 230.5854 192.488401 
L 230.585403 192.488407 
L 230.585406 192.488411 
L 230.585406 192.488417 
L 230.585392 192.488421 
L 230.585383 192.488425 
" clip-path="url(#p48cec2eb39)" style="fill: none; stroke: #663399; stroke-width: 2; stroke-linecap: square"/>
   </g>
   <g id="line2d_43">
    <path d="M 230.585355 224.920875 
L 230.58535 224.920871 
L 230.585344 224.920867 
L 230.58534 224.920862 
L 230.585338 224.920856 
L 230.58534 224.92085 
L 230.585344 224.920844 
L 230.585351 224.920839 
L 230.585358 224.920833 
L 230.585365 224.920827 
L 230.58537 224.920823 
L 230.585372 224.920823 
L 230.585372 224.920823 
" clip-path="url(#p48cec2eb39)" style="fill: none; stroke-dasharray: 2,3.3; stroke-dashoffset: 0; stroke: #8fbc8f; stroke-width: 2"/>
   </g>
   <g id="line2d_44">
    <path d="M 230.5854 224.9208 
L 230.5854 224.9208 
L 230.585398 224.920803 
L 230.585385 224.920825 
L 230.585374 224.920843 
L 230.585366 224.920859 
L 230.58536 224.920873 
L 230.585355 224.920875 
" clip-path="url(#p48cec2eb39)" style="fill: none; stroke: #8fbc8f; stroke-width: 2; stroke-linecap: square"/>
   </g>
   <g id="line2d_45">
    <path clip-path="url(#p48cec2eb39)" style="fill: none; stroke-dasharray: 2,3.3; stroke-dashoffset: 0; stroke: #00ced1; stroke-width: 2"/>
   </g>
   <g id="line2d_46">
    <path clip-path="url(#p48cec2eb39)" style="fill: none; stroke: #00ced1; stroke-width: 2; stroke-linecap: square"/>
   </g>
   <g id="line2d_47">
    <path d="M 165.720611 62.7587 
L 165.72061 62.758699 
L 165.720608 62.758701 
L 165.720605 62.758706 
L 165.720602 62.758714 
L 165.7206 62.758726 
L 165.720598 62.75874 
L 165.720597 62.758753 
L 165.720597 62.758765 
L 165.720598 62.758776 
L 165.720599 62.758783 
L 165.720599 62.758787 
L 165.720599 62.758787 
" clip-path="url(#p48cec2eb39)" style="fill: none; stroke-dasharray: 2,3.3; stroke-dashoffset: 0; stroke: #6a5acd; stroke-width: 2"/>
   </g>
   <g id="line2d_48">
    <path d="M 165.7206 62.7588 
L 165.7206 62.7588 
L 165.7206 62.758797 
L 165.720599 62.758767 
L 165.720603 62.758741 
L 165.720606 62.758721 
L 165.720609 62.758707 
L 165.720611 62.7587 
" clip-path="url(#p48cec2eb39)" style="fill: none; stroke: #6a5acd; stroke-width: 2; stroke-linecap: square"/>
   </g>
   <g id="line2d_49">
    <path d="M 165.720609 30.326278 
L 165.720611 30.326286 
L 165.720613 30.326302 
L 165.720615 30.326323 
L 165.720616 30.326346 
L 165.720615 30.326369 
L 165.720614 30.326388 
L 165.720611 30.326402 
L 165.720609 30.32641 
L 165.720606 30.326412 
L 165.720604 30.326407 
L 165.720602 30.326402 
L 165.720602 30.326402 
" clip-path="url(#p48cec2eb39)" style="fill: none; stroke-dasharray: 2,3.3; stroke-dashoffset: 0; stroke: #808000; stroke-width: 2"/>
   </g>
   <g id="line2d_50">
    <path d="M 165.7206 30.3264 
L 165.7206 30.3264 
L 165.7206 30.326398 
L 165.720603 30.326374 
L 165.720607 30.326333 
L 165.720608 30.326303 
L 165.720608 30.326285 
L 165.720609 30.326278 
" clip-path="url(#p48cec2eb39)" style="fill: none; stroke: #808000; stroke-width: 2; stroke-linecap: square"/>
   </g>
   <g id="line2d_51">
    <path clip-path="url(#p48cec2eb39)" style="fill: none; stroke-dasharray: 2,3.3; stroke-dashoffset: 0; stroke: #a0522d; stroke-width: 2"/>
   </g>
   <g id="line2d_52">
    <path clip-path="url(#p48cec2eb39)" style="fill: none; stroke: #a0522d; stroke-width: 2; stroke-linecap: square"/>
   </g>
   <g id="line2d_53">
    <path d="M 165.720557 192.488592 
L 165.720557 192.48862 
L 165.720578 192.488659 
L 165.720615 192.488696 
L 165.720651 192.488716 
L 165.720685 192.488715 
L 165.720713 192.488695 
L 165.720735 192.488661 
L 165.720749 192.488619 
L 165.720753 192.488577 
L 165.72075 192.488547 
L 165.720747 192.488531 
L 165.720747 192.488531 
" clip-path="url(#p48cec2eb39)" style="fill: none; stroke-dasharray: 2,3.3; stroke-dashoffset: 0; stroke: #ff4500; stroke-width: 2"/>
   </g>
   <g id="line2d_54">
    <path d="M 165.7206 192.4884 
L 165.7206 192.4884 
L 165.720601 192.488405 
L 165.720611 192.488452 
L 165.720617 192.488491 
L 165.720591 192.488535 
L 165.720574 192.488568 
L 165.720557 192.488592 
" clip-path="url(#p48cec2eb39)" style="fill: none; stroke: #ff4500; stroke-width: 2; stroke-linecap: square"/>
   </g>
   <g id="line2d_55">
    <path d="M 165.720661 224.920807 
L 165.720666 224.920807 
L 165.72067 224.920805 
L 165.720673 224.920804 
L 165.720672 224.920802 
L 165.720669 224.920801 
L 165.720663 224.920801 
L 165.720654 224.920803 
L 165.720645 224.920804 
L 165.720636 224.920806 
L 165.720629 224.92081 
L 165.720626 224.920813 
L 165.720626 224.920813 
" clip-path="url(#p48cec2eb39)" style="fill: none; stroke-dasharray: 2,3.3; stroke-dashoffset: 0; stroke: #708090; stroke-width: 2"/>
   </g>
   <g id="line2d_56">
    <path d="M 165.7206 224.9208 
L 165.7206 224.9208 
L 165.720602 224.920799 
L 165.720621 224.92079 
L 165.720636 224.920783 
L 165.720647 224.920788 
L 165.720655 224.920803 
L 165.720661 224.920807 
" clip-path="url(#p48cec2eb39)" style="fill: none; stroke: #708090; stroke-width: 2; stroke-linecap: square"/>
   </g>
   <g id="line2d_57">
    <path clip-path="url(#p48cec2eb39)" style="fill: none; stroke-dasharray: 2,3.3; stroke-dashoffset: 0; stroke: #bdb76b; stroke-width: 2"/>
   </g>
   <g id="line2d_58">
    <path clip-path="url(#p48cec2eb39)" style="fill: none; stroke: #bdb76b; stroke-width: 2; stroke-linecap: square"/>
   </g>
   <g id="patch_3">
    <path d="M 100.8558 224.9208 
L 100.8558 30.3264 
" style="fill: none; stroke: #000000; stroke-width: 0.8; stroke-linejoin: miter; stroke-linecap: square"/>
   </g>
   <g id="patch_4">
    <path d="M 295.4502 224.9208 
L 295.4502 30.3264 
" style="fill: none; stroke: #000000; stroke-width: 0.8; stroke-linejoin: miter; stroke-linecap: square"/>
   </g>
   <g id="patch_5">
    <path d="M 100.8558 224.9208 
L 295.4502 224.9208 
" style="fill: none; stroke: #000000; stroke-width: 0.8; stroke-linejoin: miter; stroke-linecap: square"/>
   </g>
   <g id="patch_6">
    <path d="M 100.8558 30.3264 
L 295.4502 30.3264 
" style="fill: none; stroke: #000000; stroke-width: 0.8; stroke-linejoin: miter; stroke-linecap: square"/>
   </g>
   <g id="patch_7">
    <path d="M 186.619963 137.216004 
C 189.200315 137.216004 191.67533 136.190819 193.499914 134.366235 
C 195.324498 132.541651 196.349683 130.066636 196.349683 127.486284 
C 196.349683 124.905932 195.324498 122.430917 193.499914 120.606333 
C 191.67533 118.781749 189.200315 117.756564 186.619963 117.756564 
C 184.039611 117.756564 181.564596 118.781749 179.740012 120.606333 
C 177.915428 122.430917 176.890243 124.905932 176.890243 127.486284 
C 176.890243 130.066636 177.915428 132.541651 179.740012 134.366235 
C 181.564596 136.190819 184.039611 137.216004 186.619963 137.216004 
z
" clip-path="url(#p48cec2eb39)" style="fill: #1f77b4; stroke: #000000; stroke-linejoin: miter"/>
   </g>
   <g id="patch_8">
    <path d="M 204.917797 170.80685 
C 207.498149 170.80685 209.973163 169.781665 211.797748 167.957081 
C 213.622332 166.132496 214.647517 163.657482 214.647517 161.07713 
C 214.647517 158.496778 213.622332 156.021763 211.797748 154.197179 
C 209.973163 152.372595 207.498149 151.34741 204.917797 151.34741 
C 202.337445 151.34741 199.86243 152.372595 198.037846 154.197179 
C 196.213261 156.021763 195.188077 158.496778 195.188077 161.07713 
C 195.188077 163.657482 196.213261 166.132496 198.037846 167.957081 
C 199.86243 169.781665 202.337445 170.80685 204.917797 170.80685 
z
" clip-path="url(#p48cec2eb39)" style="fill: #ff7f0e; stroke: #000000; stroke-linejoin: miter"/>
   </g>
   <g id="patch_9">
    <path d="M 133.288216 104.920875 
C 135.868568 104.920875 138.343583 103.89569 140.168167 102.071106 
C 141.992752 100.246522 143.017936 97.771507 143.017936 95.191155 
C 143.017936 92.610803 141.992752 90.135788 140.168167 88.311204 
C 138.343583 86.48662 135.868568 85.461435 133.288216 85.461435 
C 130.707864 85.461435 128.23285 86.48662 126.408265 88.311204 
C 124.583681 90.135788 123.558496 92.610803 123.558496 95.191155 
C 123.558496 97.771507 124.583681 100.246522 126.408265 102.071106 
C 128.23285 103.89569 130.707864 104.920875 133.288216 104.920875 
z
" clip-path="url(#p48cec2eb39)" style="fill: #2ca02c; stroke: #000000; stroke-linejoin: miter"/>
   </g>
   <g id="patch_10">
    <path d="M 165.720422 104.920845 
C 168.300774 104.920845 170.775789 103.89566 172.600373 102.071076 
C 174.424957 100.246491 175.450142 97.771477 175.450142 95.191125 
C 175.450142 92.610773 174.424957 90.135758 172.600373 88.311174 
C 170.775789 86.486589 168.300774 85.461405 165.720422 85.461405 
C 163.14007 85.461405 160.665055 86.486589 158.840471 88.311174 
C 157.015887 90.135758 155.990702 92.610773 155.990702 95.191125 
C 155.990702 97.771477 157.015887 100.246491 158.840471 102.071076 
C 160.665055 103.89566 163.14007 104.920845 165.720422 104.920845 
z
" clip-path="url(#p48cec2eb39)" style="fill: #d62728; stroke: #000000; stroke-linejoin: miter"/>
   </g>
   <g id="patch_11">
    <path d="M 230.585457 104.920977 
C 233.165809 104.920977 235.640824 103.895792 237.465408 102.071208 
C 239.289992 100.246623 240.315177 97.771609 240.315177 95.191257 
C 240.315177 92.610905 239.289992 90.13589 237.465408 88.311306 
C 235.640824 86.486722 233.165809 85.461537 230.585457 85.461537 
C 228.005105 85.461537 225.53009 86.486722 223.705506 88.311306 
C 221.880922 90.13589 220.855737 92.610905 220.855737 95.191257 
C 220.855737 97.771609 221.880922 100.246623 223.705506 102.071208 
C 225.53009 103.895792 228.005105 104.920977 230.585457 104.920977 
z
" clip-path="url(#p48cec2eb39)" style="fill: #9467bd; stroke: #000000; stroke-linejoin: miter"/>
   </g>
   <g id="patch_12">
    <path d="M 263.017818 104.920893 
C 265.59817 104.920893 268.073185 103.895709 269.897769 102.071124 
C 271.722354 100.24654 272.747538 97.771525 272.747538 95.191173 
C 272.747538 92.610821 271.722354 90.135807 269.897769 88.311222 
C 268.073185 86.486638 265.59817 85.461453 263.017818 85.461453 
C 260.437466 85.461453 257.962452 86.486638 256.137867 88.311222 
C 254.313283 90.135807 253.288098 92.610821 253.288098 95.191173 
C 253.288098 97.771525 254.313283 100.24654 256.137867 102.071124 
C 257.962452 103.895709 260.437466 104.920893 263.017818 104.920893 
z
" clip-path="url(#p48cec2eb39)" style="fill: #8c564b; stroke: #000000; stroke-linejoin: miter"/>
   </g>
   <g id="patch_13">
    <path d="M 133.288212 169.785751 
C 135.868564 169.785751 138.343578 168.760566 140.168163 166.935982 
C 141.992747 165.111397 143.017932 162.636382 143.017932 160.056031 
C 143.017932 157.475679 141.992747 155.000664 140.168163 153.17608 
C 138.343578 151.351495 135.868564 150.326311 133.288212 150.326311 
C 130.70786 150.326311 128.232845 151.351495 126.408261 153.17608 
C 124.583676 155.000664 123.558492 157.475679 123.558492 160.056031 
C 123.558492 162.636382 124.583676 165.111397 126.408261 166.935982 
C 128.232845 168.760566 130.70786 169.785751 133.288212 169.785751 
z
" clip-path="url(#p48cec2eb39)" style="fill: #e377c2; stroke: #000000; stroke-linejoin: miter"/>
   </g>
   <g id="patch_14">
    <path d="M 165.72048 169.785376 
C 168.300832 169.785376 170.775846 168.760191 172.600431 166.935607 
C 174.425015 165.111023 175.4502 162.636008 175.4502 160.055656 
C 175.4502 157.475304 174.425015 155.000289 172.600431 153.175705 
C 170.775846 151.351121 168.300832 150.325936 165.72048 150.325936 
C 163.140128 150.325936 160.665113 151.351121 158.840529 153.175705 
C 157.015944 155.000289 155.99076 157.475304 155.99076 160.055656 
C 155.99076 162.636008 157.015944 165.111023 158.840529 166.935607 
C 160.665113 168.760191 163.140128 169.785376 165.72048 169.785376 
z
" clip-path="url(#p48cec2eb39)" style="fill: #7f7f7f; stroke: #000000; stroke-linejoin: miter"/>
   </g>
   <g id="patch_15">
    <path d="M 230.585459 169.785682 
C 233.165811 169.785682 235.640825 168.760497 237.46541 166.935913 
C 239.289994 165.111329 240.315179 162.636314 240.315179 160.055962 
C 240.315179 157.47561 239.289994 155.000595 237.46541 153.176011 
C 235.640825 151.351427 233.165811 150.326242 230.585459 150.326242 
C 228.005107 150.326242 225.530092 151.351427 223.705508 153.176011 
C 221.880923 155.000595 220.855739 157.47561 220.855739 160.055962 
C 220.855739 162.636314 221.880923 165.111329 223.705508 166.935913 
C 225.530092 168.760497 228.005107 169.785682 230.585459 169.785682 
z
" clip-path="url(#p48cec2eb39)" style="fill: #bcbd22; stroke: #000000; stroke-linejoin: miter"/>
   </g>
   <g id="patch_16">
    <path d="M 263.017798 169.785763 
C 265.59815 169.785763 268.073165 168.760578 269.897749 166.935994 
C 271.722334 165.11141 272.747518 162.636395 272.747518 160.056043 
C 272.747518 157.475691 271.722334 155.000676 269.897749 153.176092 
C 268.073165 151.351508 265.59815 150.326323 263.017798 150.326323 
C 260.437446 150.326323 257.962432 151.351508 256.137847 153.176092 
C 254.313263 155.000676 253.288078 157.475691 253.288078 160.056043 
C 253.288078 162.636395 254.313263 165.11141 256.137847 166.935994 
C 257.962432 168.760578 260.437446 169.785763 263.017798 169.785763 
z
" clip-path="url(#p48cec2eb39)" style="fill: #17becf; stroke: #000000; stroke-linejoin: miter"/>
   </g>
   <g id="patch_17">
    <path d="M 230.585392 72.488474 
C 233.165744 72.488474 235.640758 71.46329 237.465343 69.638705 
C 239.289927 67.814121 240.315112 65.339106 240.315112 62.758754 
C 240.315112 60.178403 239.289927 57.703388 237.465343 55.878803 
C 235.640758 54.054219 233.165744 53.029034 230.585392 53.029034 
C 228.00504 53.029034 225.530025 54.054219 223.705441 55.878803 
C 221.880856 57.703388 220.855672 60.178403 220.855672 62.758754 
C 220.855672 65.339106 221.880856 67.814121 223.705441 69.638705 
C 225.530025 71.46329 228.00504 72.488474 230.585392 72.488474 
z
" clip-path="url(#p48cec2eb39)" style="fill: #2f4f4f; stroke: #000000; stroke-linejoin: miter"/>
   </g>
   <g id="patch_18">
    <path d="M 230.585298 40.056307 
C 233.16565 40.056307 235.640664 39.031122 237.465249 37.206538 
C 239.289833 35.381954 240.315018 32.906939 240.315018 30.326587 
C 240.315018 27.746235 239.289833 25.27122 237.465249 23.446636 
C 235.640664 21.622052 233.16565 20.596867 230.585298 20.596867 
C 228.004946 20.596867 225.529931 21.622052 223.705347 23.446636 
C 221.880762 25.27122 220.855578 27.746235 220.855578 30.326587 
C 220.855578 32.906939 221.880762 35.381954 223.705347 37.206538 
C 225.529931 39.031122 228.004946 40.056307 230.585298 40.056307 
z
" clip-path="url(#p48cec2eb39)" style="fill: #cd5c5c; stroke: #000000; stroke-linejoin: miter"/>
   </g>
   <g id="patch_19">
    <path d="M 230.585409 7.623723 
C 233.16576 7.623723 235.640775 6.598538 237.46536 4.773954 
C 239.289944 2.94937 240.315129 0.474355 240.315129 -2.105997 
C 240.315129 -4.686349 239.289944 -7.161364 237.46536 -8.985948 
C 235.640775 -10.810532 233.16576 -11.835717 230.585409 -11.835717 
C 228.005057 -11.835717 225.530042 -10.810532 223.705458 -8.985948 
C 221.880873 -7.161364 220.855689 -4.686349 220.855689 -2.105997 
C 220.855689 0.474355 221.880873 2.94937 223.705458 4.773954 
C 225.530042 6.598538 228.005057 7.623723 230.585409 7.623723 
z
" clip-path="url(#p48cec2eb39)" style="fill: #add8e6; stroke: #000000; stroke-linejoin: miter"/>
   </g>
   <g id="patch_20">
    <path d="M 230.585383 202.218145 
C 233.165735 202.218145 235.64075 201.19296 237.465334 199.368376 
C 239.289918 197.543792 240.315103 195.068777 240.315103 192.488425 
C 240.315103 189.908073 239.289918 187.433058 237.465334 185.608474 
C 235.64075 183.78389 233.165735 182.758705 230.585383 182.758705 
C 228.005031 182.758705 225.530016 183.78389 223.705432 185.608474 
C 221.880848 187.433058 220.855663 189.908073 220.855663 192.488425 
C 220.855663 195.068777 221.880848 197.543792 223.705432 199.368376 
C 225.530016 201.19296 228.005031 202.218145 230.585383 202.218145 
z
" clip-path="url(#p48cec2eb39)" style="fill: #663399; stroke: #000000; stroke-linejoin: miter"/>
   </g>
   <g id="patch_21">
    <path d="M 230.585355 234.650595 
C 233.165707 234.650595 235.640721 233.62541 237.465306 231.800826 
C 239.28989 229.976241 240.315075 227.501226 240.315075 224.920875 
C 240.315075 222.340523 239.28989 219.865508 237.465306 218.040924 
C 235.640721 216.216339 233.165707 215.191155 230.585355 215.191155 
C 228.005003 215.191155 225.529988 216.216339 223.705404 218.040924 
C 221.880819 219.865508 220.855635 222.340523 220.855635 224.920875 
C 220.855635 227.501226 221.880819 229.976241 223.705404 231.800826 
C 225.529988 233.62541 228.005003 234.650595 230.585355 234.650595 
z
" clip-path="url(#p48cec2eb39)" style="fill: #8fbc8f; stroke: #000000; stroke-linejoin: miter"/>
   </g>
   <g id="patch_22">
    <path d="M 230.585531 267.082907 
C 233.165883 267.082907 235.640898 266.057723 237.465482 264.233138 
C 239.290066 262.408554 240.315251 259.933539 240.315251 257.353187 
C 240.315251 254.772836 239.290066 252.297821 237.465482 250.473236 
C 235.640898 248.648652 233.165883 247.623467 230.585531 247.623467 
C 228.005179 247.623467 225.530164 248.648652 223.70558 250.473236 
C 221.880996 252.297821 220.855811 254.772836 220.855811 257.353187 
C 220.855811 259.933539 221.880996 262.408554 223.70558 264.233138 
C 225.530164 266.057723 228.005179 267.082907 230.585531 267.082907 
z
" clip-path="url(#p48cec2eb39)" style="fill: #00ced1; stroke: #000000; stroke-linejoin: miter"/>
   </g>
   <g id="patch_23">
    <path d="M 165.720611 72.48842 
C 168.300962 72.48842 170.775977 71.463235 172.600562 69.638651 
C 174.425146 67.814066 175.450331 65.339052 175.450331 62.7587 
C 175.450331 60.178348 174.425146 57.703333 172.600562 55.878749 
C 170.775977 54.054164 168.300962 53.02898 165.720611 53.02898 
C 163.140259 53.02898 160.665244 54.054164 158.84066 55.878749 
C 157.016075 57.703333 155.990891 60.178348 155.990891 62.7587 
C 155.990891 65.339052 157.016075 67.814066 158.84066 69.638651 
C 160.665244 71.463235 163.140259 72.48842 165.720611 72.48842 
z
" clip-path="url(#p48cec2eb39)" style="fill: #6a5acd; stroke: #000000; stroke-linejoin: miter"/>
   </g>
   <g id="patch_24">
    <path d="M 165.720609 40.055998 
C 168.300961 40.055998 170.775976 39.030813 172.60056 37.206229 
C 174.425144 35.381645 175.450329 32.90663 175.450329 30.326278 
C 175.450329 27.745926 174.425144 25.270911 172.60056 23.446327 
C 170.775976 21.621743 168.300961 20.596558 165.720609 20.596558 
C 163.140257 20.596558 160.665242 21.621743 158.840658 23.446327 
C 157.016074 25.270911 155.990889 27.745926 155.990889 30.326278 
C 155.990889 32.90663 157.016074 35.381645 158.840658 37.206229 
C 160.665242 39.030813 163.140257 40.055998 165.720609 40.055998 
z
" clip-path="url(#p48cec2eb39)" style="fill: #808000; stroke: #000000; stroke-linejoin: miter"/>
   </g>
   <g id="patch_25">
    <path d="M 165.720578 7.623728 
C 168.30093 7.623728 170.775945 6.598544 172.600529 4.773959 
C 174.425113 2.949375 175.450298 0.47436 175.450298 -2.105992 
C 175.450298 -4.686343 174.425113 -7.161358 172.600529 -8.985943 
C 170.775945 -10.810527 168.30093 -11.835712 165.720578 -11.835712 
C 163.140226 -11.835712 160.665211 -10.810527 158.840627 -8.985943 
C 157.016043 -7.161358 155.990858 -4.686343 155.990858 -2.105992 
C 155.990858 0.47436 157.016043 2.949375 158.840627 4.773959 
C 160.665211 6.598544 163.140226 7.623728 165.720578 7.623728 
z
" clip-path="url(#p48cec2eb39)" style="fill: #a0522d; stroke: #000000; stroke-linejoin: miter"/>
   </g>
   <g id="patch_26">
    <path d="M 165.720557 202.218312 
C 168.300909 202.218312 170.775924 201.193127 172.600508 199.368543 
C 174.425092 197.543959 175.450277 195.068944 175.450277 192.488592 
C 175.450277 189.90824 174.425092 187.433225 172.600508 185.608641 
C 170.775924 183.784057 168.300909 182.758872 165.720557 182.758872 
C 163.140205 182.758872 160.66519 183.784057 158.840606 185.608641 
C 157.016022 187.433225 155.990837 189.90824 155.990837 192.488592 
C 155.990837 195.068944 157.016022 197.543959 158.840606 199.368543 
C 160.66519 201.193127 163.140205 202.218312 165.720557 202.218312 
z
" clip-path="url(#p48cec2eb39)" style="fill: #ff4500; stroke: #000000; stroke-linejoin: miter"/>
   </g>
   <g id="patch_27">
    <path d="M 165.720661 234.650527 
C 168.301013 234.650527 170.776028 233.625342 172.600612 231.800758 
C 174.425196 229.976174 175.450381 227.501159 175.450381 224.920807 
C 175.450381 222.340455 174.425196 219.86544 172.600612 218.040856 
C 170.776028 216.216272 168.301013 215.191087 165.720661 215.191087 
C 163.140309 215.191087 160.665294 216.216272 158.84071 218.040856 
C 157.016126 219.86544 155.990941 222.340455 155.990941 224.920807 
C 155.990941 227.501159 157.016126 229.976174 158.84071 231.800758 
C 160.665294 233.625342 163.140309 234.650527 165.720661 234.650527 
z
" clip-path="url(#p48cec2eb39)" style="fill: #708090; stroke: #000000; stroke-linejoin: miter"/>
   </g>
   <g id="patch_28">
    <path d="M 165.720442 267.082901 
C 168.300794 267.082901 170.775809 266.057716 172.600393 264.233132 
C 174.424978 262.408548 175.450162 259.933533 175.450162 257.353181 
C 175.450162 254.772829 174.424978 252.297814 172.600393 250.47323 
C 170.775809 248.648646 168.300794 247.623461 165.720442 247.623461 
C 163.140091 247.623461 160.665076 248.648646 158.840491 250.47323 
C 157.015907 252.297814 155.990722 254.772829 155.990722 257.353181 
C 155.990722 259.933533 157.015907 262.408548 158.840491 264.233132 
C 160.665076 266.057716 163.140091 267.082901 165.720442 267.082901 
z
" clip-path="url(#p48cec2eb39)" style="fill: #bdb76b; stroke: #000000; stroke-linejoin: miter"/>
   </g>
   <g id="line2d_59">
    <path d="M 263.0178 127.6236 
" clip-path="url(#p48cec2eb39)" style="fill: none; stroke: #1f77b4; stroke-width: 1.5; stroke-linecap: square"/>
    <defs>
     <path id="mf710e7f56e" d="M 0 4.949747 
L 2.969848 0 
L 0 -4.949747 
L -2.969848 0 
z
" style="stroke: #000000; stroke-linejoin: miter"/>
    </defs>
    <g clip-path="url(#p48cec2eb39)">
     <use xlink:href="#mf710e7f56e" x="263.0178" y="127.6236" style="fill: #1f77b4; stroke: #000000; stroke-linejoin: miter"/>
    </g>
   </g>
   <g id="line2d_60">
    <path d="M 263.0178 127.6236 
" clip-path="url(#p48cec2eb39)" style="fill: none; stroke: #ff7f0e; stroke-width: 1.5; stroke-linecap: square"/>
    <defs>
     <path id="mea48d6c874" d="M 0 4.949747 
L 2.969848 0 
L 0 -4.949747 
L -2.969848 0 
z
" style="stroke: #000000; stroke-linejoin: miter"/>
    </defs>
    <g clip-path="url(#p48cec2eb39)">
     <use xlink:href="#mea48d6c874" x="263.0178" y="127.6236" style="fill: #ff7f0e; stroke: #000000; stroke-linejoin: miter"/>
    </g>
   </g>
   <g id="line2d_61">
    <path d="M 133.2882 95.1912 
" clip-path="url(#p48cec2eb39)" style="fill: none; stroke: #2ca02c; stroke-width: 1.5; stroke-linecap: square"/>
    <defs>
     <path id="m47f0fa4c9f" d="M 0 4.949747 
L 2.969848 0 
L 0 -4.949747 
L -2.969848 0 
z
" style="stroke: #000000; stroke-linejoin: miter"/>
    </defs>
    <g clip-path="url(#p48cec2eb39)">
     <use xlink:href="#m47f0fa4c9f" x="133.2882" y="95.1912" style="fill: #2ca02c; stroke: #000000; stroke-linejoin: miter"/>
    </g>
   </g>
   <g id="line2d_62">
    <path d="M 165.7206 95.1912 
" clip-path="url(#p48cec2eb39)" style="fill: none; stroke: #d62728; stroke-width: 1.5; stroke-linecap: square"/>
    <defs>
     <path id="m6b6b78670f" d="M 0 4.949747 
L 2.969848 0 
L 0 -4.949747 
L -2.969848 0 
z
" style="stroke: #000000; stroke-linejoin: miter"/>
    </defs>
    <g clip-path="url(#p48cec2eb39)">
     <use xlink:href="#m6b6b78670f" x="165.7206" y="95.1912" style="fill: #d62728; stroke: #000000; stroke-linejoin: miter"/>
    </g>
   </g>
   <g id="line2d_63">
    <path d="M 230.5854 95.1912 
" clip-path="url(#p48cec2eb39)" style="fill: none; stroke: #9467bd; stroke-width: 1.5; stroke-linecap: square"/>
    <defs>
     <path id="me7719b37ff" d="M 0 4.949747 
L 2.969848 0 
L 0 -4.949747 
L -2.969848 0 
z
" style="stroke: #000000; stroke-linejoin: miter"/>
    </defs>
    <g clip-path="url(#p48cec2eb39)">
     <use xlink:href="#me7719b37ff" x="230.5854" y="95.1912" style="fill: #9467bd; stroke: #000000; stroke-linejoin: miter"/>
    </g>
   </g>
   <g id="line2d_64">
    <path d="M 263.0178 95.1912 
" clip-path="url(#p48cec2eb39)" style="fill: none; stroke: #8c564b; stroke-width: 1.5; stroke-linecap: square"/>
    <defs>
     <path id="m3f74fe3107" d="M 0 4.949747 
L 2.969848 0 
L 0 -4.949747 
L -2.969848 0 
z
" style="stroke: #000000; stroke-linejoin: miter"/>
    </defs>
    <g clip-path="url(#p48cec2eb39)">
     <use xlink:href="#m3f74fe3107" x="263.0178" y="95.1912" style="fill: #8c564b; stroke: #000000; stroke-linejoin: miter"/>
    </g>
   </g>
   <g id="line2d_65">
    <path d="M 133.2882 160.056 
" clip-path="url(#p48cec2eb39)" style="fill: none; stroke: #e377c2; stroke-width: 1.5; stroke-linecap: square"/>
    <defs>
     <path id="mdc4205ef5c" d="M 0 4.949747 
L 2.969848 0 
L 0 -4.949747 
L -2.969848 0 
z
" style="stroke: #000000; stroke-linejoin: miter"/>
    </defs>
    <g clip-path="url(#p48cec2eb39)">
     <use xlink:href="#mdc4205ef5c" x="133.2882" y="160.056" style="fill: #e377c2; stroke: #000000; stroke-linejoin: miter"/>
    </g>
   </g>
   <g id="line2d_66">
    <path d="M 165.7206 160.056 
" clip-path="url(#p48cec2eb39)" style="fill: none; stroke: #7f7f7f; stroke-width: 1.5; stroke-linecap: square"/>
    <defs>
     <path id="m275f814bed" d="M 0 4.949747 
L 2.969848 0 
L 0 -4.949747 
L -2.969848 0 
z
" style="stroke: #000000; stroke-linejoin: miter"/>
    </defs>
    <g clip-path="url(#p48cec2eb39)">
     <use xlink:href="#m275f814bed" x="165.7206" y="160.056" style="fill: #7f7f7f; stroke: #000000; stroke-linejoin: miter"/>
    </g>
   </g>
   <g id="line2d_67">
    <path d="M 230.5854 160.056 
" clip-path="url(#p48cec2eb39)" style="fill: none; stroke: #bcbd22; stroke-width: 1.5; stroke-linecap: square"/>
    <defs>
     <path id="m1e2acddc49" d="M 0 4.949747 
L 2.969848 0 
L 0 -4.949747 
L -2.969848 0 
z
" style="stroke: #000000; stroke-linejoin: miter"/>
    </defs>
    <g clip-path="url(#p48cec2eb39)">
     <use xlink:href="#m1e2acddc49" x="230.5854" y="160.056" style="fill: #bcbd22; stroke: #000000; stroke-linejoin: miter"/>
    </g>
   </g>
   <g id="line2d_68">
    <path d="M 263.0178 160.056 
" clip-path="url(#p48cec2eb39)" style="fill: none; stroke: #17becf; stroke-width: 1.5; stroke-linecap: square"/>
    <defs>
     <path id="m9c04096aac" d="M 0 4.949747 
L 2.969848 0 
L 0 -4.949747 
L -2.969848 0 
z
" style="stroke: #000000; stroke-linejoin: miter"/>
    </defs>
    <g clip-path="url(#p48cec2eb39)">
     <use xlink:href="#m9c04096aac" x="263.0178" y="160.056" style="fill: #17becf; stroke: #000000; stroke-linejoin: miter"/>
    </g>
   </g>
   <g id="line2d_69">
    <path d="M 230.5854 62.7588 
" clip-path="url(#p48cec2eb39)" style="fill: none; stroke: #2f4f4f; stroke-width: 1.5; stroke-linecap: square"/>
    <defs>
     <path id="mabf69d8a85" d="M 0 4.949747 
L 2.969848 0 
L 0 -4.949747 
L -2.969848 0 
z
" style="stroke: #000000; stroke-linejoin: miter"/>
    </defs>
    <g clip-path="url(#p48cec2eb39)">
     <use xlink:href="#mabf69d8a85" x="230.5854" y="62.7588" style="fill: #2f4f4f; stroke: #000000; stroke-linejoin: miter"/>
    </g>
   </g>
   <g id="line2d_70">
    <path d="M 230.5854 30.3264 
" clip-path="url(#p48cec2eb39)" style="fill: none; stroke: #cd5c5c; stroke-width: 1.5; stroke-linecap: square"/>
    <defs>
     <path id="m4cf41e4103" d="M 0 4.949747 
L 2.969848 0 
L 0 -4.949747 
L -2.969848 0 
z
" style="stroke: #000000; stroke-linejoin: miter"/>
    </defs>
    <g clip-path="url(#p48cec2eb39)">
     <use xlink:href="#m4cf41e4103" x="230.5854" y="30.3264" style="fill: #cd5c5c; stroke: #000000; stroke-linejoin: miter"/>
    </g>
   </g>
   <g id="line2d_71">
    <path clip-path="url(#p48cec2eb39)" style="fill: none; stroke: #add8e6; stroke-width: 1.5; stroke-linecap: square"/>
    <defs>
     <path id="m26ab3d55bb" d="M 0 4.949747 
L 2.969848 0 
L 0 -4.949747 
L -2.969848 0 
z
" style="stroke: #000000; stroke-linejoin: miter"/>
    </defs>
    <g clip-path="url(#p48cec2eb39)"/>
   </g>
   <g id="line2d_72">
    <path d="M 230.5854 192.4884 
" clip-path="url(#p48cec2eb39)" style="fill: none; stroke: #663399; stroke-width: 1.5; stroke-linecap: square"/>
    <defs>
     <path id="m2b8cb118ac" d="M 0 4.949747 
L 2.969848 0 
L 0 -4.949747 
L -2.969848 0 
z
" style="stroke: #000000; stroke-linejoin: miter"/>
    </defs>
    <g clip-path="url(#p48cec2eb39)">
     <use xlink:href="#m2b8cb118ac" x="230.5854" y="192.4884" style="fill: #663399; stroke: #000000; stroke-linejoin: miter"/>
    </g>
   </g>
   <g id="line2d_73">
    <path d="M 230.5854 224.9208 
" clip-path="url(#p48cec2eb39)" style="fill: none; stroke: #8fbc8f; stroke-width: 1.5; stroke-linecap: square"/>
    <defs>
     <path id="m94f8c2e492" d="M 0 4.949747 
L 2.969848 0 
L 0 -4.949747 
L -2.969848 0 
z
" style="stroke: #000000; stroke-linejoin: miter"/>
    </defs>
    <g clip-path="url(#p48cec2eb39)">
     <use xlink:href="#m94f8c2e492" x="230.5854" y="224.9208" style="fill: #8fbc8f; stroke: #000000; stroke-linejoin: miter"/>
    </g>
   </g>
   <g id="line2d_74">
    <path clip-path="url(#p48cec2eb39)" style="fill: none; stroke: #00ced1; stroke-width: 1.5; stroke-linecap: square"/>
    <defs>
     <path id="m7c626cc11f" d="M 0 4.949747 
L 2.969848 0 
L 0 -4.949747 
L -2.969848 0 
z
" style="stroke: #000000; stroke-linejoin: miter"/>
    </defs>
    <g clip-path="url(#p48cec2eb39)">
     <use xlink:href="#m7c626cc11f" x="230.5854" y="257.3532" style="fill: #00ced1; stroke: #000000; stroke-linejoin: miter"/>
    </g>
   </g>
   <g id="line2d_75">
    <path d="M 165.7206 62.7588 
" clip-path="url(#p48cec2eb39)" style="fill: none; stroke: #6a5acd; stroke-width: 1.5; stroke-linecap: square"/>
    <defs>
     <path id="m132408a16b" d="M 0 4.949747 
L 2.969848 0 
L 0 -4.949747 
L -2.969848 0 
z
" style="stroke: #000000; stroke-linejoin: miter"/>
    </defs>
    <g clip-path="url(#p48cec2eb39)">
     <use xlink:href="#m132408a16b" x="165.7206" y="62.7588" style="fill: #6a5acd; stroke: #000000; stroke-linejoin: miter"/>
    </g>
   </g>
   <g id="line2d_76">
    <path d="M 165.7206 30.3264 
" clip-path="url(#p48cec2eb39)" style="fill: none; stroke: #808000; stroke-width: 1.5; stroke-linecap: square"/>
    <defs>
     <path id="mf3f19b1e70" d="M 0 4.949747 
L 2.969848 0 
L 0 -4.949747 
L -2.969848 0 
z
" style="stroke: #000000; stroke-linejoin: miter"/>
    </defs>
    <g clip-path="url(#p48cec2eb39)">
     <use xlink:href="#mf3f19b1e70" x="165.7206" y="30.3264" style="fill: #808000; stroke: #000000; stroke-linejoin: miter"/>
    </g>
   </g>
   <g id="line2d_77">
    <path clip-path="url(#p48cec2eb39)" style="fill: none; stroke: #a0522d; stroke-width: 1.5; stroke-linecap: square"/>
    <defs>
     <path id="m909906e7e0" d="M 0 4.949747 
L 2.969848 0 
L 0 -4.949747 
L -2.969848 0 
z
" style="stroke: #000000; stroke-linejoin: miter"/>
    </defs>
    <g clip-path="url(#p48cec2eb39)"/>
   </g>
   <g id="line2d_78">
    <path d="M 165.7206 192.4884 
" clip-path="url(#p48cec2eb39)" style="fill: none; stroke: #ff4500; stroke-width: 1.5; stroke-linecap: square"/>
    <defs>
     <path id="m988dac58e7" d="M 0 4.949747 
L 2.969848 0 
L 0 -4.949747 
L -2.969848 0 
z
" style="stroke: #000000; stroke-linejoin: miter"/>
    </defs>
    <g clip-path="url(#p48cec2eb39)">
     <use xlink:href="#m988dac58e7" x="165.7206" y="192.4884" style="fill: #ff4500; stroke: #000000; stroke-linejoin: miter"/>
    </g>
   </g>
   <g id="line2d_79">
    <path d="M 165.7206 224.9208 
" clip-path="url(#p48cec2eb39)" style="fill: none; stroke: #708090; stroke-width: 1.5; stroke-linecap: square"/>
    <defs>
     <path id="m5475754c23" d="M 0 4.949747 
L 2.969848 0 
L 0 -4.949747 
L -2.969848 0 
z
" style="stroke: #000000; stroke-linejoin: miter"/>
    </defs>
    <g clip-path="url(#p48cec2eb39)">
     <use xlink:href="#m5475754c23" x="165.7206" y="224.9208" style="fill: #708090; stroke: #000000; stroke-linejoin: miter"/>
    </g>
   </g>
   <g id="line2d_80">
    <path clip-path="url(#p48cec2eb39)" style="fill: none; stroke: #bdb76b; stroke-width: 1.5; stroke-linecap: square"/>
    <defs>
     <path id="ma29dbee8ed" d="M 0 4.949747 
L 2.969848 0 
L 0 -4.949747 
L -2.969848 0 
z
" style="stroke: #000000; stroke-linejoin: miter"/>
    </defs>
    <g clip-path="url(#p48cec2eb39)">
     <use xlink:href="#ma29dbee8ed" x="165.7206" y="257.3532" style="fill: #bdb76b; stroke: #000000; stroke-linejoin: miter"/>
    </g>
   </g>
  </g>
 </g>
 <defs>
  <clipPath id="p48cec2eb39">
   <rect x="100.8558" y="30.3264" width="194.5944" height="194.5944"/>
  </clipPath>
 </defs>
</svg>
