<?xml version="1.0" encoding="utf-8" standalone="no"?>
<!DOCTYPE svg PUBLIC "-//W3C//DTD SVG 1.1//EN"
  "http://www.w3.org/Graphics/SVG/1.1/DTD/svg11.dtd">
<svg xmlns:xlink="http://www.w3.org/1999/xlink" width="386.64pt" height="252.72pt" viewBox="0 0 386.64 252.72" xmlns="http://www.w3.org/2000/svg" version="1.1">
 <metadata>
  <rdf:RDF xmlns:dc="http://purl.org/dc/elements/1.1/" xmlns:cc="http://creativecommons.org/ns#" xmlns:rdf="http://www.w3.org/1999/02/22-rdf-syntax-ns#">
   <cc:Work>
    <dc:type rdf:resource="http://purl.org/dc/dcmitype/StillImage"/>
    <dc:date>2023-07-11T22:26:54.915520</dc:date>
    <dc:format>image/svg+xml</dc:format>
    <dc:creator>
     <cc:Agent>
      <dc:title>Matplotlib v3.6.2, https://matplotlib.org/</dc:title>
     </cc:Agent>
    </dc:creator>
   </cc:Work>
  </rdf:RDF>
 </metadata>
 <defs>
  <style type="text/css">*{stroke-linejoin: round; stroke-linecap: butt}</style>
 </defs>
 <g id="figure_1">
  <g id="patch_1">
   <path d="M 0 252.72 
L 386.64 252.72 
L 386.64 0 
L 0 0 
z
" style="fill: #ffffff"/>
  </g>
  <g id="axes_1">
   <g id="patch_2">
    <path d="M 100.8558 224.9208 
L 295.4502 224.9208 
L 295.4502 30.3264 
L 100.8558 30.3264 
z
" style="fill: #ffffff"/>
   </g>
   <g id="matplotlib.axis_1">
    <g id="xtick_1">
     <g id="line2d_1">
      <defs>
       <path id="m25abf7c25e" d="M 0 0 
L 0 3.5 
" style="stroke: #000000; stroke-width: 0.8"/>
      </defs>
      <g>
       <use xlink:href="#m25abf7c25e" x="100.8558" y="224.9208" style="stroke: #000000; stroke-width: 0.8"/>
      </g>
     </g>
     <g id="text_1">
      <!-- −0.5 -->
      <g transform="translate(88.714394 239.519237) scale(0.1 -0.1)">
       <defs>
        <path id="DejaVuSans-2212" d="M 678 2272 
L 4684 2272 
L 4684 1741 
L 678 1741 
L 678 2272 
z
" transform="scale(0.015625)"/>
        <path id="DejaVuSans-30" d="M 2034 4250 
Q 1547 4250 1301 3770 
Q 1056 3291 1056 2328 
Q 1056 1369 1301 889 
Q 1547 409 2034 409 
Q 2525 409 2770 889 
Q 3016 1369 3016 2328 
Q 3016 3291 2770 3770 
Q 2525 4250 2034 4250 
z
M 2034 4750 
Q 2819 4750 3233 4129 
Q 3647 3509 3647 2328 
Q 3647 1150 3233 529 
Q 2819 -91 2034 -91 
Q 1250 -91 836 529 
Q 422 1150 422 2328 
Q 422 3509 836 4129 
Q 1250 4750 2034 4750 
z
" transform="scale(0.015625)"/>
        <path id="DejaVuSans-2e" d="M 684 794 
L 1344 794 
L 1344 0 
L 684 0 
L 684 794 
z
" transform="scale(0.015625)"/>
        <path id="DejaVuSans-35" d="M 691 4666 
L 3169 4666 
L 3169 4134 
L 1269 4134 
L 1269 2991 
Q 1406 3038 1543 3061 
Q 1681 3084 1819 3084 
Q 2600 3084 3056 2656 
Q 3513 2228 3513 1497 
Q 3513 744 3044 326 
Q 2575 -91 1722 -91 
Q 1428 -91 1123 -41 
Q 819 9 494 109 
L 494 744 
Q 775 591 1075 516 
Q 1375 441 1709 441 
Q 2250 441 2565 725 
Q 2881 1009 2881 1497 
Q 2881 1984 2565 2268 
Q 2250 2553 1709 2553 
Q 1456 2553 1204 2497 
Q 953 2441 691 2322 
L 691 4666 
z
" transform="scale(0.015625)"/>
       </defs>
       <use xlink:href="#DejaVuSans-2212"/>
       <use xlink:href="#DejaVuSans-30" x="83.789062"/>
       <use xlink:href="#DejaVuSans-2e" x="147.412109"/>
       <use xlink:href="#DejaVuSans-35" x="179.199219"/>
      </g>
     </g>
    </g>
    <g id="xtick_2">
     <g id="line2d_2">
      <g>
       <use xlink:href="#m25abf7c25e" x="133.2882" y="224.9208" style="stroke: #000000; stroke-width: 0.8"/>
      </g>
     </g>
     <g id="text_2">
      <!-- 0.0 -->
      <g transform="translate(125.336638 239.519237) scale(0.1 -0.1)">
       <use xlink:href="#DejaVuSans-30"/>
       <use xlink:href="#DejaVuSans-2e" x="63.623047"/>
       <use xlink:href="#DejaVuSans-30" x="95.410156"/>
      </g>
     </g>
    </g>
    <g id="xtick_3">
     <g id="line2d_3">
      <g>
       <use xlink:href="#m25abf7c25e" x="165.7206" y="224.9208" style="stroke: #000000; stroke-width: 0.8"/>
      </g>
     </g>
     <g id="text_3">
      <!-- 0.5 -->
      <g transform="translate(157.769037 239.519237) scale(0.1 -0.1)">
       <use xlink:href="#DejaVuSans-30"/>
       <use xlink:href="#DejaVuSans-2e" x="63.623047"/>
       <use xlink:href="#DejaVuSans-35" x="95.410156"/>
      </g>
     </g>
    </g>
    <g id="xtick_4">
     <g id="line2d_4">
      <g>
       <use xlink:href="#m25abf7c25e" x="198.153" y="224.9208" style="stroke: #000000; stroke-width: 0.8"/>
      </g>
     </g>
     <g id="text_4">
      <!-- 1.0 -->
      <g transform="translate(190.201437 239.519237) scale(0.1 -0.1)">
       <defs>
        <path id="DejaVuSans-31" d="M 794 531 
L 1825 531 
L 1825 4091 
L 703 3866 
L 703 4441 
L 1819 4666 
L 2450 4666 
L 2450 531 
L 3481 531 
L 3481 0 
L 794 0 
L 794 531 
z
" transform="scale(0.015625)"/>
       </defs>
       <use xlink:href="#DejaVuSans-31"/>
       <use xlink:href="#DejaVuSans-2e" x="63.623047"/>
       <use xlink:href="#DejaVuSans-30" x="95.410156"/>
      </g>
     </g>
    </g>
    <g id="xtick_5">
     <g id="line2d_5">
      <g>
       <use xlink:href="#m25abf7c25e" x="230.5854" y="224.9208" style="stroke: #000000; stroke-width: 0.8"/>
      </g>
     </g>
     <g id="text_5">
      <!-- 1.5 -->
      <g transform="translate(222.633837 239.519237) scale(0.1 -0.1)">
       <use xlink:href="#DejaVuSans-31"/>
       <use xlink:href="#DejaVuSans-2e" x="63.623047"/>
       <use xlink:href="#DejaVuSans-35" x="95.410156"/>
      </g>
     </g>
    </g>
    <g id="xtick_6">
     <g id="line2d_6">
      <g>
       <use xlink:href="#m25abf7c25e" x="263.0178" y="224.9208" style="stroke: #000000; stroke-width: 0.8"/>
      </g>
     </g>
     <g id="text_6">
      <!-- 2.0 -->
      <g transform="translate(255.066237 239.519237) scale(0.1 -0.1)">
       <defs>
        <path id="DejaVuSans-32" d="M 1228 531 
L 3431 531 
L 3431 0 
L 469 0 
L 469 531 
Q 828 903 1448 1529 
Q 2069 2156 2228 2338 
Q 2531 2678 2651 2914 
Q 2772 3150 2772 3378 
Q 2772 3750 2511 3984 
Q 2250 4219 1831 4219 
Q 1534 4219 1204 4116 
Q 875 4013 500 3803 
L 500 4441 
Q 881 4594 1212 4672 
Q 1544 4750 1819 4750 
Q 2544 4750 2975 4387 
Q 3406 4025 3406 3419 
Q 3406 3131 3298 2873 
Q 3191 2616 2906 2266 
Q 2828 2175 2409 1742 
Q 1991 1309 1228 531 
z
" transform="scale(0.015625)"/>
       </defs>
       <use xlink:href="#DejaVuSans-32"/>
       <use xlink:href="#DejaVuSans-2e" x="63.623047"/>
       <use xlink:href="#DejaVuSans-30" x="95.410156"/>
      </g>
     </g>
    </g>
    <g id="xtick_7">
     <g id="line2d_7">
      <g>
       <use xlink:href="#m25abf7c25e" x="295.4502" y="224.9208" style="stroke: #000000; stroke-width: 0.8"/>
      </g>
     </g>
     <g id="text_7">
      <!-- 2.5 -->
      <g transform="translate(287.498637 239.519237) scale(0.1 -0.1)">
       <use xlink:href="#DejaVuSans-32"/>
       <use xlink:href="#DejaVuSans-2e" x="63.623047"/>
       <use xlink:href="#DejaVuSans-35" x="95.410156"/>
      </g>
     </g>
    </g>
    <g id="text_8">
     <!-- x(m) -->
     <g transform="translate(186.42175 253.197362) scale(0.1 -0.1)">
      <defs>
       <path id="DejaVuSans-78" d="M 3513 3500 
L 2247 1797 
L 3578 0 
L 2900 0 
L 1881 1375 
L 863 0 
L 184 0 
L 1544 1831 
L 300 3500 
L 978 3500 
L 1906 2253 
L 2834 3500 
L 3513 3500 
z
" transform="scale(0.015625)"/>
       <path id="DejaVuSans-28" d="M 1984 4856 
Q 1566 4138 1362 3434 
Q 1159 2731 1159 2009 
Q 1159 1288 1364 580 
Q 1569 -128 1984 -844 
L 1484 -844 
Q 1016 -109 783 600 
Q 550 1309 550 2009 
Q 550 2706 781 3412 
Q 1013 4119 1484 4856 
L 1984 4856 
z
" transform="scale(0.015625)"/>
       <path id="DejaVuSans-6d" d="M 3328 2828 
Q 3544 3216 3844 3400 
Q 4144 3584 4550 3584 
Q 5097 3584 5394 3201 
Q 5691 2819 5691 2113 
L 5691 0 
L 5113 0 
L 5113 2094 
Q 5113 2597 4934 2840 
Q 4756 3084 4391 3084 
Q 3944 3084 3684 2787 
Q 3425 2491 3425 1978 
L 3425 0 
L 2847 0 
L 2847 2094 
Q 2847 2600 2669 2842 
Q 2491 3084 2119 3084 
Q 1678 3084 1418 2786 
Q 1159 2488 1159 1978 
L 1159 0 
L 581 0 
L 581 3500 
L 1159 3500 
L 1159 2956 
Q 1356 3278 1631 3431 
Q 1906 3584 2284 3584 
Q 2666 3584 2933 3390 
Q 3200 3197 3328 2828 
z
" transform="scale(0.015625)"/>
       <path id="DejaVuSans-29" d="M 513 4856 
L 1013 4856 
Q 1481 4119 1714 3412 
Q 1947 2706 1947 2009 
Q 1947 1309 1714 600 
Q 1481 -109 1013 -844 
L 513 -844 
Q 928 -128 1133 580 
Q 1338 1288 1338 2009 
Q 1338 2731 1133 3434 
Q 928 4138 513 4856 
z
" transform="scale(0.015625)"/>
      </defs>
      <use xlink:href="#DejaVuSans-78"/>
      <use xlink:href="#DejaVuSans-28" x="59.179688"/>
      <use xlink:href="#DejaVuSans-6d" x="98.193359"/>
      <use xlink:href="#DejaVuSans-29" x="195.605469"/>
     </g>
    </g>
   </g>
   <g id="matplotlib.axis_2">
    <g id="ytick_1">
     <g id="line2d_8">
      <defs>
       <path id="m3cff83a1a6" d="M 0 0 
L -3.5 0 
" style="stroke: #000000; stroke-width: 0.8"/>
      </defs>
      <g>
       <use xlink:href="#m3cff83a1a6" x="100.8558" y="224.9208" style="stroke: #000000; stroke-width: 0.8"/>
      </g>
     </g>
     <g id="text_9">
      <!-- −0.5 -->
      <g transform="translate(69.572988 228.720019) scale(0.1 -0.1)">
       <use xlink:href="#DejaVuSans-2212"/>
       <use xlink:href="#DejaVuSans-30" x="83.789062"/>
       <use xlink:href="#DejaVuSans-2e" x="147.412109"/>
       <use xlink:href="#DejaVuSans-35" x="179.199219"/>
      </g>
     </g>
    </g>
    <g id="ytick_2">
     <g id="line2d_9">
      <g>
       <use xlink:href="#m3cff83a1a6" x="100.8558" y="192.4884" style="stroke: #000000; stroke-width: 0.8"/>
      </g>
     </g>
     <g id="text_10">
      <!-- 0.0 -->
      <g transform="translate(77.952675 196.287619) scale(0.1 -0.1)">
       <use xlink:href="#DejaVuSans-30"/>
       <use xlink:href="#DejaVuSans-2e" x="63.623047"/>
       <use xlink:href="#DejaVuSans-30" x="95.410156"/>
      </g>
     </g>
    </g>
    <g id="ytick_3">
     <g id="line2d_10">
      <g>
       <use xlink:href="#m3cff83a1a6" x="100.8558" y="160.056" style="stroke: #000000; stroke-width: 0.8"/>
      </g>
     </g>
     <g id="text_11">
      <!-- 0.5 -->
      <g transform="translate(77.952675 163.855219) scale(0.1 -0.1)">
       <use xlink:href="#DejaVuSans-30"/>
       <use xlink:href="#DejaVuSans-2e" x="63.623047"/>
       <use xlink:href="#DejaVuSans-35" x="95.410156"/>
      </g>
     </g>
    </g>
    <g id="ytick_4">
     <g id="line2d_11">
      <g>
       <use xlink:href="#m3cff83a1a6" x="100.8558" y="127.6236" style="stroke: #000000; stroke-width: 0.8"/>
      </g>
     </g>
     <g id="text_12">
      <!-- 1.0 -->
      <g transform="translate(77.952675 131.422819) scale(0.1 -0.1)">
       <use xlink:href="#DejaVuSans-31"/>
       <use xlink:href="#DejaVuSans-2e" x="63.623047"/>
       <use xlink:href="#DejaVuSans-30" x="95.410156"/>
      </g>
     </g>
    </g>
    <g id="ytick_5">
     <g id="line2d_12">
      <g>
       <use xlink:href="#m3cff83a1a6" x="100.8558" y="95.1912" style="stroke: #000000; stroke-width: 0.8"/>
      </g>
     </g>
     <g id="text_13">
      <!-- 1.5 -->
      <g transform="translate(77.952675 98.990419) scale(0.1 -0.1)">
       <use xlink:href="#DejaVuSans-31"/>
       <use xlink:href="#DejaVuSans-2e" x="63.623047"/>
       <use xlink:href="#DejaVuSans-35" x="95.410156"/>
      </g>
     </g>
    </g>
    <g id="ytick_6">
     <g id="line2d_13">
      <g>
       <use xlink:href="#m3cff83a1a6" x="100.8558" y="62.7588" style="stroke: #000000; stroke-width: 0.8"/>
      </g>
     </g>
     <g id="text_14">
      <!-- 2.0 -->
      <g transform="translate(77.952675 66.558019) scale(0.1 -0.1)">
       <use xlink:href="#DejaVuSans-32"/>
       <use xlink:href="#DejaVuSans-2e" x="63.623047"/>
       <use xlink:href="#DejaVuSans-30" x="95.410156"/>
      </g>
     </g>
    </g>
    <g id="ytick_7">
     <g id="line2d_14">
      <g>
       <use xlink:href="#m3cff83a1a6" x="100.8558" y="30.3264" style="stroke: #000000; stroke-width: 0.8"/>
      </g>
     </g>
     <g id="text_15">
      <!-- 2.5 -->
      <g transform="translate(77.952675 34.125619) scale(0.1 -0.1)">
       <use xlink:href="#DejaVuSans-32"/>
       <use xlink:href="#DejaVuSans-2e" x="63.623047"/>
       <use xlink:href="#DejaVuSans-35" x="95.410156"/>
      </g>
     </g>
    </g>
    <g id="text_16">
     <!-- y(m) -->
     <g transform="translate(63.4933 139.35485) rotate(-90) scale(0.1 -0.1)">
      <defs>
       <path id="DejaVuSans-79" d="M 2059 -325 
Q 1816 -950 1584 -1140 
Q 1353 -1331 966 -1331 
L 506 -1331 
L 506 -850 
L 844 -850 
Q 1081 -850 1212 -737 
Q 1344 -625 1503 -206 
L 1606 56 
L 191 3500 
L 800 3500 
L 1894 763 
L 2988 3500 
L 3597 3500 
L 2059 -325 
z
" transform="scale(0.015625)"/>
      </defs>
      <use xlink:href="#DejaVuSans-79"/>
      <use xlink:href="#DejaVuSans-28" x="59.179688"/>
      <use xlink:href="#DejaVuSans-6d" x="98.193359"/>
      <use xlink:href="#DejaVuSans-29" x="195.605469"/>
     </g>
    </g>
   </g>
   <g id="line2d_15">
    <path d="M 212.567005 127.607597 
L 225.539986 127.622055 
L 238.126087 127.624648 
L 247.137576 127.624331 
L 252.092353 127.624223 
L 255.233054 127.624068 
L 257.416187 127.62393 
L 259.020197 127.623842 
L 260.248214 127.623769 
L 261.218472 127.623709 
L 262.004421 127.623662 
L 262.653943 127.623622 
L 262.653943 127.623622 
" clip-path="url(#pc8e57d4664)" style="fill: none; stroke-dasharray: 2,3.3; stroke-dashoffset: 0; stroke: #1f77b4; stroke-width: 2"/>
   </g>
   <g id="line2d_16">
    <path d="M 133.2882 127.6236 
L 133.2882 127.6236 
L 133.768676 127.621531 
L 138.573349 127.593776 
L 147.701648 127.493337 
L 160.673863 127.41217 
L 173.646739 127.459601 
L 186.619963 127.486284 
L 199.592908 127.523189 
L 212.567005 127.607597 
" clip-path="url(#pc8e57d4664)" style="fill: none; stroke: #1f77b4; stroke-width: 2; stroke-linecap: square"/>
   </g>
   <g id="line2d_17">
    <path d="M 209.379241 150.892168 
L 211.753848 147.205699 
L 215.297535 142.312704 
L 218.743569 138.845295 
L 221.217248 136.939303 
L 223.126131 135.729226 
L 224.512197 134.956998 
L 225.560721 134.426392 
L 226.37118 134.030072 
L 227.011544 133.716931 
L 227.530239 133.463287 
L 227.958913 133.253664 
L 227.958913 133.253664 
" clip-path="url(#pc8e57d4664)" style="fill: none; stroke-dasharray: 2,3.3; stroke-dashoffset: 0; stroke: #ff7f0e; stroke-width: 2"/>
   </g>
   <g id="line2d_18">
    <path d="M 198.153 205.46136 
L 198.153 205.46136 
L 198.164648 204.981025 
L 198.417246 200.200816 
L 199.877385 191.454013 
L 201.48243 180.264573 
L 202.738317 169.560811 
L 204.917797 161.07713 
L 207.09932 154.814228 
L 209.379241 150.892168 
" clip-path="url(#pc8e57d4664)" style="fill: none; stroke: #ff7f0e; stroke-width: 2; stroke-linecap: square"/>
   </g>
   <g id="line2d_19">
    <path d="M 133.288224 95.191111 
L 133.288228 95.191086 
L 133.28823 95.191058 
L 133.288231 95.19103 
L 133.28823 95.191005 
L 133.288228 95.190983 
L 133.288226 95.190967 
L 133.288222 95.190957 
L 133.288219 95.190954 
L 133.288216 95.190957 
L 133.288214 95.190961 
L 133.288213 95.190963 
L 133.288213 95.190963 
" clip-path="url(#pc8e57d4664)" style="fill: none; stroke-dasharray: 2,3.3; stroke-dashoffset: 0; stroke: #2ca02c; stroke-width: 2"/>
   </g>
   <g id="line2d_20">
    <path d="M 133.2882 95.1912 
L 133.2882 95.1912 
L 133.2882 95.1912 
L 133.288202 95.1912 
L 133.288204 95.191197 
L 133.288206 95.19119 
L 133.288211 95.191173 
L 133.288216 95.191155 
L 133.288222 95.191135 
L 133.288224 95.191111 
" clip-path="url(#pc8e57d4664)" style="fill: none; stroke: #2ca02c; stroke-width: 2; stroke-linecap: square"/>
   </g>
   <g id="line2d_21">
    <path d="M 165.720311 95.191045 
L 165.72028 95.191023 
L 165.72026 95.191007 
L 165.720255 95.190999 
L 165.720273 95.191005 
L 165.72031 95.191024 
L 165.720361 95.191051 
L 165.720418 95.191085 
L 165.720475 95.191121 
L 165.720525 95.191156 
L 165.720559 95.191182 
L 165.720576 95.191196 
L 165.720576 95.191196 
" clip-path="url(#pc8e57d4664)" style="fill: none; stroke-dasharray: 2,3.3; stroke-dashoffset: 0; stroke: #d62728; stroke-width: 2"/>
   </g>
   <g id="line2d_22">
    <path d="M 165.7206 95.1912 
L 165.7206 95.1912 
L 165.720601 95.191194 
L 165.720603 95.19115 
L 165.720581 95.191153 
L 165.720541 95.191158 
L 165.720483 95.19116 
L 165.720422 95.191125 
L 165.720366 95.191081 
L 165.720311 95.191045 
" clip-path="url(#pc8e57d4664)" style="fill: none; stroke: #d62728; stroke-width: 2; stroke-linecap: square"/>
   </g>
   <g id="line2d_23">
    <path d="M 230.585509 95.191287 
L 230.585557 95.191222 
L 230.585637 95.191174 
L 230.585725 95.191183 
L 230.585777 95.191232 
L 230.585796 95.191282 
L 230.585781 95.191299 
L 230.585739 95.191281 
L 230.585677 95.191248 
L 230.585609 95.19122 
L 230.585555 95.191202 
L 230.585528 95.191194 
L 230.585528 95.191194 
" clip-path="url(#pc8e57d4664)" style="fill: none; stroke-dasharray: 2,3.3; stroke-dashoffset: 0; stroke: #9467bd; stroke-width: 2"/>
   </g>
   <g id="line2d_24">
    <path d="M 230.5854 95.1912 
L 230.5854 95.1912 
L 230.5854 95.191198 
L 230.585399 95.191183 
L 230.585405 95.191174 
L 230.585427 95.191186 
L 230.585443 95.191202 
L 230.585457 95.191257 
L 230.585477 95.191298 
L 230.585509 95.191287 
" clip-path="url(#pc8e57d4664)" style="fill: none; stroke: #9467bd; stroke-width: 2; stroke-linecap: square"/>
   </g>
   <g id="line2d_25">
    <path d="M 263.017818 95.19115 
L 263.017817 95.191137 
L 263.017816 95.191123 
L 263.017814 95.191111 
L 263.017812 95.191101 
L 263.017809 95.191094 
L 263.017807 95.19109 
L 263.017805 95.191089 
L 263.017803 95.191091 
L 263.017802 95.191096 
L 263.017801 95.191099 
L 263.0178 95.191101 
L 263.0178 95.191101 
" clip-path="url(#pc8e57d4664)" style="fill: none; stroke-dasharray: 2,3.3; stroke-dashoffset: 0; stroke: #8c564b; stroke-width: 2"/>
   </g>
   <g id="line2d_26">
    <path d="M 263.0178 95.1912 
L 263.0178 95.1912 
L 263.017801 95.1912 
L 263.017807 95.191203 
L 263.017812 95.191199 
L 263.017815 95.191193 
L 263.017817 95.191185 
L 263.017818 95.191173 
L 263.017819 95.191161 
L 263.017818 95.19115 
" clip-path="url(#pc8e57d4664)" style="fill: none; stroke: #8c564b; stroke-width: 2; stroke-linecap: square"/>
   </g>
   <g id="line2d_27">
    <path d="M 133.288215 160.056057 
L 133.288217 160.056073 
L 133.288219 160.056091 
L 133.288221 160.056108 
L 133.288222 160.056125 
L 133.288222 160.05614 
L 133.288221 160.056151 
L 133.28822 160.056158 
L 133.288219 160.056161 
L 133.288217 160.05616 
L 133.288216 160.056157 
L 133.288216 160.056156 
L 133.288216 160.056156 
" clip-path="url(#pc8e57d4664)" style="fill: none; stroke-dasharray: 2,3.3; stroke-dashoffset: 0; stroke: #e377c2; stroke-width: 2"/>
   </g>
   <g id="line2d_28">
    <path d="M 133.2882 160.056 
L 133.2882 160.056 
L 133.2882 160.056 
L 133.288203 160.056 
L 133.288205 160.056004 
L 133.288208 160.056011 
L 133.28821 160.05602 
L 133.288212 160.056031 
L 133.288213 160.056043 
L 133.288215 160.056057 
" clip-path="url(#pc8e57d4664)" style="fill: none; stroke: #e377c2; stroke-width: 2; stroke-linecap: square"/>
   </g>
   <g id="line2d_29">
    <path d="M 165.720426 160.055548 
L 165.720401 160.055535 
L 165.720362 160.055527 
L 165.720321 160.055531 
L 165.720304 160.055564 
L 165.72031 160.05562 
L 165.720337 160.055693 
L 165.720379 160.055773 
L 165.720431 160.055853 
L 165.720482 160.055921 
L 165.720521 160.055967 
L 165.720541 160.055988 
L 165.720541 160.055988 
" clip-path="url(#pc8e57d4664)" style="fill: none; stroke-dasharray: 2,3.3; stroke-dashoffset: 0; stroke: #7f7f7f; stroke-width: 2"/>
   </g>
   <g id="line2d_30">
    <path d="M 165.7206 160.056 
L 165.7206 160.056 
L 165.7206 160.055997 
L 165.720599 160.05597 
L 165.720579 160.055908 
L 165.72054 160.055856 
L 165.720503 160.055767 
L 165.72048 160.055656 
L 165.720446 160.055586 
L 165.720426 160.055548 
" clip-path="url(#pc8e57d4664)" style="fill: none; stroke: #7f7f7f; stroke-width: 2; stroke-linecap: square"/>
   </g>
   <g id="line2d_31">
    <path d="M 230.585467 160.055979 
L 230.585477 160.055992 
L 230.585493 160.056003 
L 230.585509 160.056012 
L 230.585517 160.056017 
L 230.585514 160.05602 
L 230.585503 160.056019 
L 230.585486 160.056012 
L 230.585464 160.056 
L 230.585443 160.055992 
L 230.585427 160.055989 
L 230.585419 160.055987 
L 230.585419 160.055987 
" clip-path="url(#pc8e57d4664)" style="fill: none; stroke-dasharray: 2,3.3; stroke-dashoffset: 0; stroke: #bcbd22; stroke-width: 2"/>
   </g>
   <g id="line2d_32">
    <path d="M 230.5854 160.056 
L 230.5854 160.056 
L 230.5854 160.056002 
L 230.585404 160.056019 
L 230.585426 160.055987 
L 230.585441 160.055965 
L 230.585453 160.055958 
L 230.585459 160.055962 
L 230.585459 160.055967 
L 230.585467 160.055979 
" clip-path="url(#pc8e57d4664)" style="fill: none; stroke: #bcbd22; stroke-width: 2; stroke-linecap: square"/>
   </g>
   <g id="line2d_33">
    <path d="M 263.017792 160.056072 
L 263.01779 160.056088 
L 263.017787 160.056103 
L 263.017786 160.056116 
L 263.017785 160.056125 
L 263.017787 160.05613 
L 263.017789 160.056132 
L 263.017792 160.05613 
L 263.017795 160.056124 
L 263.017798 160.056117 
L 263.017799 160.056112 
L 263.0178 160.056109 
L 263.0178 160.056109 
" clip-path="url(#pc8e57d4664)" style="fill: none; stroke-dasharray: 2,3.3; stroke-dashoffset: 0; stroke: #17becf; stroke-width: 2"/>
   </g>
   <g id="line2d_34">
    <path d="M 263.0178 160.056 
L 263.0178 160.056 
L 263.0178 160.056 
L 263.0178 160.056 
L 263.0178 160.056006 
L 263.017801 160.056017 
L 263.017802 160.056031 
L 263.017798 160.056043 
L 263.017795 160.056057 
L 263.017792 160.056072 
" clip-path="url(#pc8e57d4664)" style="fill: none; stroke: #17becf; stroke-width: 2; stroke-linecap: square"/>
   </g>
   <g id="line2d_35">
    <path d="M 230.585397 62.758759 
L 230.585417 62.758765 
L 230.585454 62.758778 
L 230.5855 62.758795 
L 230.585537 62.758811 
L 230.585561 62.758826 
L 230.585571 62.758838 
L 230.585567 62.758848 
L 230.585552 62.758855 
L 230.58553 62.758858 
L 230.58551 62.758857 
L 230.5855 62.758857 
L 230.5855 62.758857 
" clip-path="url(#pc8e57d4664)" style="fill: none; stroke-dasharray: 2,3.3; stroke-dashoffset: 0; stroke: #2f4f4f; stroke-width: 2"/>
   </g>
   <g id="line2d_36">
    <path d="M 230.5854 62.7588 
L 230.5854 62.7588 
L 230.5854 62.758798 
L 230.585398 62.758783 
L 230.585395 62.75877 
L 230.585392 62.758761 
L 230.585391 62.758756 
L 230.585392 62.758754 
L 230.585393 62.758755 
L 230.585397 62.758759 
" clip-path="url(#pc8e57d4664)" style="fill: none; stroke: #2f4f4f; stroke-width: 2; stroke-linecap: square"/>
   </g>
   <g id="line2d_37">
    <path d="M 230.585283 30.326639 
L 230.58528 30.326662 
L 230.585279 30.326684 
L 230.585281 30.3267 
L 230.585286 30.326703 
L 230.585297 30.326693 
L 230.58531 30.32667 
L 230.585326 30.326634 
L 230.585343 30.326592 
L 230.585358 30.326549 
L 230.585369 30.326513 
L 230.585374 30.326493 
L 230.585374 30.326493 
" clip-path="url(#pc8e57d4664)" style="fill: none; stroke-dasharray: 2,3.3; stroke-dashoffset: 0; stroke: #cd5c5c; stroke-width: 2"/>
   </g>
   <g id="line2d_38">
    <path d="M 230.5854 30.3264 
L 230.5854 30.3264 
L 230.585397 30.326406 
L 230.585368 30.32646 
L 230.585347 30.326501 
L 230.585328 30.326531 
L 230.585311 30.326561 
L 230.585298 30.326587 
L 230.585288 30.326613 
L 230.585283 30.326639 
" clip-path="url(#pc8e57d4664)" style="fill: none; stroke: #cd5c5c; stroke-width: 2; stroke-linecap: square"/>
   </g>
   <g id="line2d_39">
    <path clip-path="url(#pc8e57d4664)" style="fill: none; stroke-dasharray: 2,3.3; stroke-dashoffset: 0; stroke: #add8e6; stroke-width: 2"/>
   </g>
   <g id="line2d_40">
    <path clip-path="url(#pc8e57d4664)" style="fill: none; stroke: #add8e6; stroke-width: 2; stroke-linecap: square"/>
   </g>
   <g id="line2d_41">
    <path d="M 230.585399 192.488429 
L 230.58544 192.488434 
L 230.585517 192.488434 
L 230.585611 192.488429 
L 230.58569 192.488422 
L 230.585741 192.488412 
L 230.585764 192.488399 
L 230.585758 192.488383 
L 230.585728 192.488367 
L 230.58568 192.488353 
L 230.585632 192.488344 
L 230.585606 192.488342 
L 230.585606 192.488342 
" clip-path="url(#pc8e57d4664)" style="fill: none; stroke-dasharray: 2,3.3; stroke-dashoffset: 0; stroke: #663399; stroke-width: 2"/>
   </g>
   <g id="line2d_42">
    <path d="M 230.5854 192.4884 
L 230.5854 192.4884 
L 230.5854 192.488401 
L 230.585403 192.488407 
L 230.585406 192.488411 
L 230.585406 192.488417 
L 230.585392 192.488421 
L 230.585383 192.488425 
L 230.585389 192.488426 
L 230.585399 192.488429 
" clip-path="url(#pc8e57d4664)" style="fill: none; stroke: #663399; stroke-width: 2; stroke-linecap: square"/>
   </g>
   <g id="line2d_43">
    <path d="M 230.585345 224.920863 
L 230.585339 224.920855 
L 230.585334 224.920851 
L 230.585329 224.920849 
L 230.585327 224.920848 
L 230.585329 224.920849 
L 230.585334 224.920849 
L 230.585342 224.920848 
L 230.58535 224.920843 
L 230.585357 224.920836 
L 230.585362 224.920829 
L 230.585364 224.920825 
L 230.585364 224.920825 
" clip-path="url(#pc8e57d4664)" style="fill: none; stroke-dasharray: 2,3.3; stroke-dashoffset: 0; stroke: #8fbc8f; stroke-width: 2"/>
   </g>
   <g id="line2d_44">
    <path d="M 230.5854 224.9208 
L 230.5854 224.9208 
L 230.585398 224.920803 
L 230.585385 224.920825 
L 230.585374 224.920843 
L 230.585366 224.920859 
L 230.58536 224.920873 
L 230.585355 224.920875 
L 230.58535 224.920871 
L 230.585345 224.920863 
" clip-path="url(#pc8e57d4664)" style="fill: none; stroke: #8fbc8f; stroke-width: 2; stroke-linecap: square"/>
   </g>
   <g id="line2d_45">
    <path clip-path="url(#pc8e57d4664)" style="fill: none; stroke-dasharray: 2,3.3; stroke-dashoffset: 0; stroke: #00ced1; stroke-width: 2"/>
   </g>
   <g id="line2d_46">
    <path clip-path="url(#pc8e57d4664)" style="fill: none; stroke: #00ced1; stroke-width: 2; stroke-linecap: square"/>
   </g>
   <g id="line2d_47">
    <path d="M 165.720606 62.758707 
L 165.720598 62.758726 
L 165.720588 62.758749 
L 165.720576 62.758773 
L 165.720566 62.758793 
L 165.720558 62.758806 
L 165.720554 62.758812 
L 165.720554 62.75881 
L 165.720559 62.758802 
L 165.720569 62.758795 
L 165.720581 62.758791 
L 165.720589 62.758793 
L 165.720589 62.758793 
" clip-path="url(#pc8e57d4664)" style="fill: none; stroke-dasharray: 2,3.3; stroke-dashoffset: 0; stroke: #6a5acd; stroke-width: 2"/>
   </g>
   <g id="line2d_48">
    <path d="M 165.7206 62.7588 
L 165.7206 62.7588 
L 165.7206 62.758797 
L 165.720599 62.758767 
L 165.720603 62.758741 
L 165.720606 62.758721 
L 165.720609 62.758707 
L 165.720611 62.7587 
L 165.72061 62.758699 
L 165.720606 62.758707 
" clip-path="url(#pc8e57d4664)" style="fill: none; stroke: #6a5acd; stroke-width: 2; stroke-linecap: square"/>
   </g>
   <g id="line2d_49">
    <path d="M 165.720616 30.326304 
L 165.720622 30.32633 
L 165.720628 30.326362 
L 165.720633 30.326395 
L 165.720636 30.326425 
L 165.720636 30.326449 
L 165.720635 30.326465 
L 165.720631 30.326472 
L 165.720626 30.326471 
L 165.720621 30.326463 
L 165.720616 30.326451 
L 165.720613 30.326442 
L 165.720613 30.326442 
" clip-path="url(#pc8e57d4664)" style="fill: none; stroke-dasharray: 2,3.3; stroke-dashoffset: 0; stroke: #808000; stroke-width: 2"/>
   </g>
   <g id="line2d_50">
    <path d="M 165.7206 30.3264 
L 165.7206 30.3264 
L 165.7206 30.326398 
L 165.720603 30.326374 
L 165.720607 30.326333 
L 165.720608 30.326303 
L 165.720608 30.326285 
L 165.720609 30.326278 
L 165.720611 30.326286 
L 165.720616 30.326304 
" clip-path="url(#pc8e57d4664)" style="fill: none; stroke: #808000; stroke-width: 2; stroke-linecap: square"/>
   </g>
   <g id="line2d_51">
    <path clip-path="url(#pc8e57d4664)" style="fill: none; stroke-dasharray: 2,3.3; stroke-dashoffset: 0; stroke: #a0522d; stroke-width: 2"/>
   </g>
   <g id="line2d_52">
    <path clip-path="url(#pc8e57d4664)" style="fill: none; stroke: #a0522d; stroke-width: 2; stroke-linecap: square"/>
   </g>
   <g id="line2d_53">
    <path d="M 165.720547 192.488655 
L 165.720504 192.488689 
L 165.720436 192.488714 
L 165.720362 192.488721 
L 165.720308 192.488706 
L 165.720283 192.488666 
L 165.72029 192.488603 
L 165.72033 192.488521 
L 165.720392 192.488434 
L 165.72046 192.488362 
L 165.720515 192.488326 
L 165.720542 192.488318 
L 165.720542 192.488318 
" clip-path="url(#pc8e57d4664)" style="fill: none; stroke-dasharray: 2,3.3; stroke-dashoffset: 0; stroke: #ff4500; stroke-width: 2"/>
   </g>
   <g id="line2d_54">
    <path d="M 165.7206 192.4884 
L 165.7206 192.4884 
L 165.720601 192.488405 
L 165.720611 192.488452 
L 165.720617 192.488491 
L 165.720591 192.488535 
L 165.720574 192.488568 
L 165.720557 192.488592 
L 165.720554 192.48862 
L 165.720547 192.488655 
" clip-path="url(#pc8e57d4664)" style="fill: none; stroke: #ff4500; stroke-width: 2; stroke-linecap: square"/>
   </g>
   <g id="line2d_55">
    <path d="M 165.720669 224.920799 
L 165.720672 224.920786 
L 165.720674 224.92077 
L 165.720675 224.920754 
L 165.720674 224.920741 
L 165.720669 224.920732 
L 165.720662 224.920729 
L 165.720652 224.920732 
L 165.720642 224.920739 
L 165.720632 224.920751 
L 165.720624 224.920764 
L 165.720619 224.920773 
L 165.720619 224.920773 
" clip-path="url(#pc8e57d4664)" style="fill: none; stroke-dasharray: 2,3.3; stroke-dashoffset: 0; stroke: #708090; stroke-width: 2"/>
   </g>
   <g id="line2d_56">
    <path d="M 165.7206 224.9208 
L 165.7206 224.9208 
L 165.720602 224.920799 
L 165.720621 224.92079 
L 165.720636 224.920783 
L 165.720647 224.920788 
L 165.720655 224.920803 
L 165.720661 224.920807 
L 165.720666 224.920806 
L 165.720669 224.920799 
" clip-path="url(#pc8e57d4664)" style="fill: none; stroke: #708090; stroke-width: 2; stroke-linecap: square"/>
   </g>
   <g id="line2d_57">
    <path clip-path="url(#pc8e57d4664)" style="fill: none; stroke-dasharray: 2,3.3; stroke-dashoffset: 0; stroke: #bdb76b; stroke-width: 2"/>
   </g>
   <g id="line2d_58">
    <path clip-path="url(#pc8e57d4664)" style="fill: none; stroke: #bdb76b; stroke-width: 2; stroke-linecap: square"/>
   </g>
   <g id="patch_3">
    <path d="M 100.8558 224.9208 
L 100.8558 30.3264 
" style="fill: none; stroke: #000000; stroke-width: 0.8; stroke-linejoin: miter; stroke-linecap: square"/>
   </g>
   <g id="patch_4">
    <path d="M 295.4502 224.9208 
L 295.4502 30.3264 
" style="fill: none; stroke: #000000; stroke-width: 0.8; stroke-linejoin: miter; stroke-linecap: square"/>
   </g>
   <g id="patch_5">
    <path d="M 100.8558 224.9208 
L 295.4502 224.9208 
" style="fill: none; stroke: #000000; stroke-width: 0.8; stroke-linejoin: miter; stroke-linecap: square"/>
   </g>
   <g id="patch_6">
    <path d="M 100.8558 30.3264 
L 295.4502 30.3264 
" style="fill: none; stroke: #000000; stroke-width: 0.8; stroke-linejoin: miter; stroke-linecap: square"/>
   </g>
   <g id="patch_7">
    <path d="M 212.567005 137.337317 
C 215.147357 137.337317 217.622372 136.312132 219.446956 134.487548 
C 221.27154 132.662963 222.296725 130.187949 222.296725 127.607597 
C 222.296725 125.027245 221.27154 122.55223 219.446956 120.727646 
C 217.622372 118.903061 215.147357 117.877877 212.567005 117.877877 
C 209.986653 117.877877 207.511638 118.903061 205.687054 120.727646 
C 203.86247 122.55223 202.837285 125.027245 202.837285 127.607597 
C 202.837285 130.187949 203.86247 132.662963 205.687054 134.487548 
C 207.511638 136.312132 209.986653 137.337317 212.567005 137.337317 
z
" clip-path="url(#pc8e57d4664)" style="fill: #1f77b4; stroke: #000000; stroke-linejoin: miter"/>
   </g>
   <g id="patch_8">
    <path d="M 209.379241 160.621888 
C 211.959593 160.621888 214.434608 159.596703 216.259192 157.772119 
C 218.083776 155.947535 219.108961 153.47252 219.108961 150.892168 
C 219.108961 148.311816 218.083776 145.836801 216.259192 144.012217 
C 214.434608 142.187633 211.959593 141.162448 209.379241 141.162448 
C 206.798889 141.162448 204.323874 142.187633 202.49929 144.012217 
C 200.674706 145.836801 199.649521 148.311816 199.649521 150.892168 
C 199.649521 153.47252 200.674706 155.947535 202.49929 157.772119 
C 204.323874 159.596703 206.798889 160.621888 209.379241 160.621888 
z
" clip-path="url(#pc8e57d4664)" style="fill: #ff7f0e; stroke: #000000; stroke-linejoin: miter"/>
   </g>
   <g id="patch_9">
    <path d="M 133.288224 104.920831 
C 135.868576 104.920831 138.343591 103.895646 140.168175 102.071062 
C 141.99276 100.246478 143.017944 97.771463 143.017944 95.191111 
C 143.017944 92.610759 141.99276 90.135744 140.168175 88.31116 
C 138.343591 86.486576 135.868576 85.461391 133.288224 85.461391 
C 130.707873 85.461391 128.232858 86.486576 126.408273 88.31116 
C 124.583689 90.135744 123.558504 92.610759 123.558504 95.191111 
C 123.558504 97.771463 124.583689 100.246478 126.408273 102.071062 
C 128.232858 103.895646 130.707873 104.920831 133.288224 104.920831 
z
" clip-path="url(#pc8e57d4664)" style="fill: #2ca02c; stroke: #000000; stroke-linejoin: miter"/>
   </g>
   <g id="patch_10">
    <path d="M 165.720311 104.920765 
C 168.300663 104.920765 170.775678 103.89558 172.600262 102.070996 
C 174.424846 100.246412 175.450031 97.771397 175.450031 95.191045 
C 175.450031 92.610693 174.424846 90.135678 172.600262 88.311094 
C 170.775678 86.48651 168.300663 85.461325 165.720311 85.461325 
C 163.139959 85.461325 160.664944 86.48651 158.84036 88.311094 
C 157.015776 90.135678 155.990591 92.610693 155.990591 95.191045 
C 155.990591 97.771397 157.015776 100.246412 158.84036 102.070996 
C 160.664944 103.89558 163.139959 104.920765 165.720311 104.920765 
z
" clip-path="url(#pc8e57d4664)" style="fill: #d62728; stroke: #000000; stroke-linejoin: miter"/>
   </g>
   <g id="patch_11">
    <path d="M 230.585509 104.921007 
C 233.165861 104.921007 235.640876 103.895823 237.46546 102.071238 
C 239.290044 100.246654 240.315229 97.771639 240.315229 95.191287 
C 240.315229 92.610935 239.290044 90.135921 237.46546 88.311336 
C 235.640876 86.486752 233.165861 85.461567 230.585509 85.461567 
C 228.005157 85.461567 225.530142 86.486752 223.705558 88.311336 
C 221.880974 90.135921 220.855789 92.610935 220.855789 95.191287 
C 220.855789 97.771639 221.880974 100.246654 223.705558 102.071238 
C 225.530142 103.895823 228.005157 104.921007 230.585509 104.921007 
z
" clip-path="url(#pc8e57d4664)" style="fill: #9467bd; stroke: #000000; stroke-linejoin: miter"/>
   </g>
   <g id="patch_12">
    <path d="M 263.017818 104.92087 
C 265.59817 104.92087 268.073184 103.895685 269.897769 102.071101 
C 271.722353 100.246516 272.747538 97.771502 272.747538 95.19115 
C 272.747538 92.610798 271.722353 90.135783 269.897769 88.311199 
C 268.073184 86.486614 265.59817 85.46143 263.017818 85.46143 
C 260.437466 85.46143 257.962451 86.486614 256.137867 88.311199 
C 254.313283 90.135783 253.288098 92.610798 253.288098 95.19115 
C 253.288098 97.771502 254.313283 100.246516 256.137867 102.071101 
C 257.962451 103.895685 260.437466 104.92087 263.017818 104.92087 
z
" clip-path="url(#pc8e57d4664)" style="fill: #8c564b; stroke: #000000; stroke-linejoin: miter"/>
   </g>
   <g id="patch_13">
    <path d="M 133.288215 169.785777 
C 135.868566 169.785777 138.343581 168.760593 140.168166 166.936008 
C 141.99275 165.111424 143.017935 162.636409 143.017935 160.056057 
C 143.017935 157.475706 141.99275 155.000691 140.168166 153.176106 
C 138.343581 151.351522 135.868566 150.326337 133.288215 150.326337 
C 130.707863 150.326337 128.232848 151.351522 126.408264 153.176106 
C 124.583679 155.000691 123.558495 157.475706 123.558495 160.056057 
C 123.558495 162.636409 124.583679 165.111424 126.408264 166.936008 
C 128.232848 168.760593 130.707863 169.785777 133.288215 169.785777 
z
" clip-path="url(#pc8e57d4664)" style="fill: #e377c2; stroke: #000000; stroke-linejoin: miter"/>
   </g>
   <g id="patch_14">
    <path d="M 165.720426 169.785268 
C 168.300778 169.785268 170.775793 168.760083 172.600377 166.935499 
C 174.424962 165.110915 175.450146 162.6359 175.450146 160.055548 
C 175.450146 157.475196 174.424962 155.000181 172.600377 153.175597 
C 170.775793 151.351013 168.300778 150.325828 165.720426 150.325828 
C 163.140074 150.325828 160.66506 151.351013 158.840475 153.175597 
C 157.015891 155.000181 155.990706 157.475196 155.990706 160.055548 
C 155.990706 162.6359 157.015891 165.110915 158.840475 166.935499 
C 160.66506 168.760083 163.140074 169.785268 165.720426 169.785268 
z
" clip-path="url(#pc8e57d4664)" style="fill: #7f7f7f; stroke: #000000; stroke-linejoin: miter"/>
   </g>
   <g id="patch_15">
    <path d="M 230.585467 169.785699 
C 233.165819 169.785699 235.640833 168.760514 237.465418 166.93593 
C 239.290002 165.111346 240.315187 162.636331 240.315187 160.055979 
C 240.315187 157.475627 239.290002 155.000612 237.465418 153.176028 
C 235.640833 151.351444 233.165819 150.326259 230.585467 150.326259 
C 228.005115 150.326259 225.5301 151.351444 223.705516 153.176028 
C 221.880931 155.000612 220.855747 157.475627 220.855747 160.055979 
C 220.855747 162.636331 221.880931 165.111346 223.705516 166.93593 
C 225.5301 168.760514 228.005115 169.785699 230.585467 169.785699 
z
" clip-path="url(#pc8e57d4664)" style="fill: #bcbd22; stroke: #000000; stroke-linejoin: miter"/>
   </g>
   <g id="patch_16">
    <path d="M 263.017792 169.785792 
C 265.598144 169.785792 268.073159 168.760608 269.897743 166.936023 
C 271.722327 165.111439 272.747512 162.636424 272.747512 160.056072 
C 272.747512 157.47572 271.722327 155.000706 269.897743 153.176121 
C 268.073159 151.351537 265.598144 150.326352 263.017792 150.326352 
C 260.43744 150.326352 257.962425 151.351537 256.137841 153.176121 
C 254.313257 155.000706 253.288072 157.47572 253.288072 160.056072 
C 253.288072 162.636424 254.313257 165.111439 256.137841 166.936023 
C 257.962425 168.760608 260.43744 169.785792 263.017792 169.785792 
z
" clip-path="url(#pc8e57d4664)" style="fill: #17becf; stroke: #000000; stroke-linejoin: miter"/>
   </g>
   <g id="patch_17">
    <path d="M 230.585397 72.488479 
C 233.165749 72.488479 235.640764 71.463294 237.465348 69.63871 
C 239.289932 67.814125 240.315117 65.339111 240.315117 62.758759 
C 240.315117 60.178407 239.289932 57.703392 237.465348 55.878808 
C 235.640764 54.054223 233.165749 53.029039 230.585397 53.029039 
C 228.005045 53.029039 225.53003 54.054223 223.705446 55.878808 
C 221.880862 57.703392 220.855677 60.178407 220.855677 62.758759 
C 220.855677 65.339111 221.880862 67.814125 223.705446 69.63871 
C 225.53003 71.463294 228.005045 72.488479 230.585397 72.488479 
z
" clip-path="url(#pc8e57d4664)" style="fill: #2f4f4f; stroke: #000000; stroke-linejoin: miter"/>
   </g>
   <g id="patch_18">
    <path d="M 230.585283 40.056359 
C 233.165635 40.056359 235.640649 39.031174 237.465234 37.20659 
C 239.289818 35.382005 240.315003 32.906991 240.315003 30.326639 
C 240.315003 27.746287 239.289818 25.271272 237.465234 23.446688 
C 235.640649 21.622103 233.165635 20.596919 230.585283 20.596919 
C 228.004931 20.596919 225.529916 21.622103 223.705332 23.446688 
C 221.880747 25.271272 220.855563 27.746287 220.855563 30.326639 
C 220.855563 32.906991 221.880747 35.382005 223.705332 37.20659 
C 225.529916 39.031174 228.004931 40.056359 230.585283 40.056359 
z
" clip-path="url(#pc8e57d4664)" style="fill: #cd5c5c; stroke: #000000; stroke-linejoin: miter"/>
   </g>
   <g id="patch_19">
    <path d="M 230.585431 7.623721 
C 233.165782 7.623721 235.640797 6.598536 237.465382 4.773952 
C 239.289966 2.949367 240.315151 0.474353 240.315151 -2.105999 
C 240.315151 -4.686351 239.289966 -7.161366 237.465382 -8.98595 
C 235.640797 -10.810535 233.165782 -11.835719 230.585431 -11.835719 
C 228.005079 -11.835719 225.530064 -10.810535 223.70548 -8.98595 
C 221.880895 -7.161366 220.855711 -4.686351 220.855711 -2.105999 
C 220.855711 0.474353 221.880895 2.949367 223.70548 4.773952 
C 225.530064 6.598536 228.005079 7.623721 230.585431 7.623721 
z
" clip-path="url(#pc8e57d4664)" style="fill: #add8e6; stroke: #000000; stroke-linejoin: miter"/>
   </g>
   <g id="patch_20">
    <path d="M 230.585399 202.218149 
C 233.165751 202.218149 235.640765 201.192965 237.46535 199.36838 
C 239.289934 197.543796 240.315119 195.068781 240.315119 192.488429 
C 240.315119 189.908077 239.289934 187.433063 237.46535 185.608478 
C 235.640765 183.783894 233.165751 182.758709 230.585399 182.758709 
C 228.005047 182.758709 225.530032 183.783894 223.705448 185.608478 
C 221.880863 187.433063 220.855679 189.908077 220.855679 192.488429 
C 220.855679 195.068781 221.880863 197.543796 223.705448 199.36838 
C 225.530032 201.192965 228.005047 202.218149 230.585399 202.218149 
z
" clip-path="url(#pc8e57d4664)" style="fill: #663399; stroke: #000000; stroke-linejoin: miter"/>
   </g>
   <g id="patch_21">
    <path d="M 230.585345 234.650583 
C 233.165697 234.650583 235.640711 233.625398 237.465296 231.800814 
C 239.28988 229.976229 240.315065 227.501215 240.315065 224.920863 
C 240.315065 222.340511 239.28988 219.865496 237.465296 218.040912 
C 235.640711 216.216327 233.165697 215.191143 230.585345 215.191143 
C 228.004993 215.191143 225.529978 216.216327 223.705394 218.040912 
C 221.880809 219.865496 220.855625 222.340511 220.855625 224.920863 
C 220.855625 227.501215 221.880809 229.976229 223.705394 231.800814 
C 225.529978 233.625398 228.004993 234.650583 230.585345 234.650583 
z
" clip-path="url(#pc8e57d4664)" style="fill: #8fbc8f; stroke: #000000; stroke-linejoin: miter"/>
   </g>
   <g id="patch_22">
    <path d="M 230.585652 267.082907 
C 233.166004 267.082907 235.641019 266.057722 237.465603 264.233138 
C 239.290188 262.408554 240.315372 259.933539 240.315372 257.353187 
C 240.315372 254.772835 239.290188 252.29782 237.465603 250.473236 
C 235.641019 248.648652 233.166004 247.623467 230.585652 247.623467 
C 228.005301 247.623467 225.530286 248.648652 223.705701 250.473236 
C 221.881117 252.29782 220.855932 254.772835 220.855932 257.353187 
C 220.855932 259.933539 221.881117 262.408554 223.705701 264.233138 
C 225.530286 266.057722 228.005301 267.082907 230.585652 267.082907 
z
" clip-path="url(#pc8e57d4664)" style="fill: #00ced1; stroke: #000000; stroke-linejoin: miter"/>
   </g>
   <g id="patch_23">
    <path d="M 165.720606 72.488427 
C 168.300958 72.488427 170.775972 71.463243 172.600557 69.638658 
C 174.425141 67.814074 175.450326 65.339059 175.450326 62.758707 
C 175.450326 60.178355 174.425141 57.703341 172.600557 55.878756 
C 170.775972 54.054172 168.300958 53.028987 165.720606 53.028987 
C 163.140254 53.028987 160.665239 54.054172 158.840655 55.878756 
C 157.01607 57.703341 155.990886 60.178355 155.990886 62.758707 
C 155.990886 65.339059 157.01607 67.814074 158.840655 69.638658 
C 160.665239 71.463243 163.140254 72.488427 165.720606 72.488427 
z
" clip-path="url(#pc8e57d4664)" style="fill: #6a5acd; stroke: #000000; stroke-linejoin: miter"/>
   </g>
   <g id="patch_24">
    <path d="M 165.720616 40.056024 
C 168.300968 40.056024 170.775983 39.030839 172.600567 37.206255 
C 174.425152 35.38167 175.450336 32.906656 175.450336 30.326304 
C 175.450336 27.745952 174.425152 25.270937 172.600567 23.446353 
C 170.775983 21.621768 168.300968 20.596584 165.720616 20.596584 
C 163.140265 20.596584 160.66525 21.621768 158.840665 23.446353 
C 157.016081 25.270937 155.990896 27.745952 155.990896 30.326304 
C 155.990896 32.906656 157.016081 35.38167 158.840665 37.206255 
C 160.66525 39.030839 163.140265 40.056024 165.720616 40.056024 
z
" clip-path="url(#pc8e57d4664)" style="fill: #808000; stroke: #000000; stroke-linejoin: miter"/>
   </g>
   <g id="patch_25">
    <path d="M 165.720575 7.623731 
C 168.300927 7.623731 170.775942 6.598546 172.600526 4.773962 
C 174.42511 2.949377 175.450295 0.474363 175.450295 -2.105989 
C 175.450295 -4.686341 174.42511 -7.161356 172.600526 -8.98594 
C 170.775942 -10.810525 168.300927 -11.835709 165.720575 -11.835709 
C 163.140223 -11.835709 160.665208 -10.810525 158.840624 -8.98594 
C 157.01604 -7.161356 155.990855 -4.686341 155.990855 -2.105989 
C 155.990855 0.474363 157.01604 2.949377 158.840624 4.773962 
C 160.665208 6.598546 163.140223 7.623731 165.720575 7.623731 
z
" clip-path="url(#pc8e57d4664)" style="fill: #a0522d; stroke: #000000; stroke-linejoin: miter"/>
   </g>
   <g id="patch_26">
    <path d="M 165.720547 202.218375 
C 168.300899 202.218375 170.775914 201.193191 172.600498 199.368606 
C 174.425082 197.544022 175.450267 195.069007 175.450267 192.488655 
C 175.450267 189.908303 174.425082 187.433289 172.600498 185.608704 
C 170.775914 183.78412 168.300899 182.758935 165.720547 182.758935 
C 163.140195 182.758935 160.66518 183.78412 158.840596 185.608704 
C 157.016012 187.433289 155.990827 189.908303 155.990827 192.488655 
C 155.990827 195.069007 157.016012 197.544022 158.840596 199.368606 
C 160.66518 201.193191 163.140195 202.218375 165.720547 202.218375 
z
" clip-path="url(#pc8e57d4664)" style="fill: #ff4500; stroke: #000000; stroke-linejoin: miter"/>
   </g>
   <g id="patch_27">
    <path d="M 165.720669 234.650519 
C 168.301021 234.650519 170.776036 233.625334 172.60062 231.80075 
C 174.425205 229.976166 175.450389 227.501151 175.450389 224.920799 
C 175.450389 222.340447 174.425205 219.865432 172.60062 218.040848 
C 170.776036 216.216264 168.301021 215.191079 165.720669 215.191079 
C 163.140317 215.191079 160.665303 216.216264 158.840718 218.040848 
C 157.016134 219.865432 155.990949 222.340447 155.990949 224.920799 
C 155.990949 227.501151 157.016134 229.976166 158.840718 231.80075 
C 160.665303 233.625334 163.140317 234.650519 165.720669 234.650519 
z
" clip-path="url(#pc8e57d4664)" style="fill: #708090; stroke: #000000; stroke-linejoin: miter"/>
   </g>
   <g id="patch_28">
    <path d="M 165.720314 267.082899 
C 168.300666 267.082899 170.775681 266.057714 172.600265 264.23313 
C 174.424849 262.408545 175.450034 259.93353 175.450034 257.353179 
C 175.450034 254.772827 174.424849 252.297812 172.600265 250.473228 
C 170.775681 248.648643 168.300666 247.623459 165.720314 247.623459 
C 163.139962 247.623459 160.664947 248.648643 158.840363 250.473228 
C 157.015779 252.297812 155.990594 254.772827 155.990594 257.353179 
C 155.990594 259.93353 157.015779 262.408545 158.840363 264.23313 
C 160.664947 266.057714 163.139962 267.082899 165.720314 267.082899 
z
" clip-path="url(#pc8e57d4664)" style="fill: #bdb76b; stroke: #000000; stroke-linejoin: miter"/>
   </g>
   <g id="line2d_59">
    <path d="M 263.0178 127.6236 
" clip-path="url(#pc8e57d4664)" style="fill: none; stroke: #1f77b4; stroke-width: 1.5; stroke-linecap: square"/>
    <defs>
     <path id="mb05398d6dc" d="M 0 4.949747 
L 2.969848 0 
L 0 -4.949747 
L -2.969848 0 
z
" style="stroke: #000000; stroke-linejoin: miter"/>
    </defs>
    <g clip-path="url(#pc8e57d4664)">
     <use xlink:href="#mb05398d6dc" x="263.0178" y="127.6236" style="fill: #1f77b4; stroke: #000000; stroke-linejoin: miter"/>
    </g>
   </g>
   <g id="line2d_60">
    <path d="M 263.0178 127.6236 
" clip-path="url(#pc8e57d4664)" style="fill: none; stroke: #ff7f0e; stroke-width: 1.5; stroke-linecap: square"/>
    <defs>
     <path id="m8323b00aa3" d="M 0 4.949747 
L 2.969848 0 
L 0 -4.949747 
L -2.969848 0 
z
" style="stroke: #000000; stroke-linejoin: miter"/>
    </defs>
    <g clip-path="url(#pc8e57d4664)">
     <use xlink:href="#m8323b00aa3" x="263.0178" y="127.6236" style="fill: #ff7f0e; stroke: #000000; stroke-linejoin: miter"/>
    </g>
   </g>
   <g id="line2d_61">
    <path d="M 133.2882 95.1912 
" clip-path="url(#pc8e57d4664)" style="fill: none; stroke: #2ca02c; stroke-width: 1.5; stroke-linecap: square"/>
    <defs>
     <path id="m2c59223ad1" d="M 0 4.949747 
L 2.969848 0 
L 0 -4.949747 
L -2.969848 0 
z
" style="stroke: #000000; stroke-linejoin: miter"/>
    </defs>
    <g clip-path="url(#pc8e57d4664)">
     <use xlink:href="#m2c59223ad1" x="133.2882" y="95.1912" style="fill: #2ca02c; stroke: #000000; stroke-linejoin: miter"/>
    </g>
   </g>
   <g id="line2d_62">
    <path d="M 165.7206 95.1912 
" clip-path="url(#pc8e57d4664)" style="fill: none; stroke: #d62728; stroke-width: 1.5; stroke-linecap: square"/>
    <defs>
     <path id="mfb29dede9b" d="M 0 4.949747 
L 2.969848 0 
L 0 -4.949747 
L -2.969848 0 
z
" style="stroke: #000000; stroke-linejoin: miter"/>
    </defs>
    <g clip-path="url(#pc8e57d4664)">
     <use xlink:href="#mfb29dede9b" x="165.7206" y="95.1912" style="fill: #d62728; stroke: #000000; stroke-linejoin: miter"/>
    </g>
   </g>
   <g id="line2d_63">
    <path d="M 230.5854 95.1912 
" clip-path="url(#pc8e57d4664)" style="fill: none; stroke: #9467bd; stroke-width: 1.5; stroke-linecap: square"/>
    <defs>
     <path id="ma24b7330d3" d="M 0 4.949747 
L 2.969848 0 
L 0 -4.949747 
L -2.969848 0 
z
" style="stroke: #000000; stroke-linejoin: miter"/>
    </defs>
    <g clip-path="url(#pc8e57d4664)">
     <use xlink:href="#ma24b7330d3" x="230.5854" y="95.1912" style="fill: #9467bd; stroke: #000000; stroke-linejoin: miter"/>
    </g>
   </g>
   <g id="line2d_64">
    <path d="M 263.0178 95.1912 
" clip-path="url(#pc8e57d4664)" style="fill: none; stroke: #8c564b; stroke-width: 1.5; stroke-linecap: square"/>
    <defs>
     <path id="m78a690482d" d="M 0 4.949747 
L 2.969848 0 
L 0 -4.949747 
L -2.969848 0 
z
" style="stroke: #000000; stroke-linejoin: miter"/>
    </defs>
    <g clip-path="url(#pc8e57d4664)">
     <use xlink:href="#m78a690482d" x="263.0178" y="95.1912" style="fill: #8c564b; stroke: #000000; stroke-linejoin: miter"/>
    </g>
   </g>
   <g id="line2d_65">
    <path d="M 133.2882 160.056 
" clip-path="url(#pc8e57d4664)" style="fill: none; stroke: #e377c2; stroke-width: 1.5; stroke-linecap: square"/>
    <defs>
     <path id="mf9680e5e34" d="M 0 4.949747 
L 2.969848 0 
L 0 -4.949747 
L -2.969848 0 
z
" style="stroke: #000000; stroke-linejoin: miter"/>
    </defs>
    <g clip-path="url(#pc8e57d4664)">
     <use xlink:href="#mf9680e5e34" x="133.2882" y="160.056" style="fill: #e377c2; stroke: #000000; stroke-linejoin: miter"/>
    </g>
   </g>
   <g id="line2d_66">
    <path d="M 165.7206 160.056 
" clip-path="url(#pc8e57d4664)" style="fill: none; stroke: #7f7f7f; stroke-width: 1.5; stroke-linecap: square"/>
    <defs>
     <path id="m0b7528edde" d="M 0 4.949747 
L 2.969848 0 
L 0 -4.949747 
L -2.969848 0 
z
" style="stroke: #000000; stroke-linejoin: miter"/>
    </defs>
    <g clip-path="url(#pc8e57d4664)">
     <use xlink:href="#m0b7528edde" x="165.7206" y="160.056" style="fill: #7f7f7f; stroke: #000000; stroke-linejoin: miter"/>
    </g>
   </g>
   <g id="line2d_67">
    <path d="M 230.5854 160.056 
" clip-path="url(#pc8e57d4664)" style="fill: none; stroke: #bcbd22; stroke-width: 1.5; stroke-linecap: square"/>
    <defs>
     <path id="m8a8b842b9b" d="M 0 4.949747 
L 2.969848 0 
L 0 -4.949747 
L -2.969848 0 
z
" style="stroke: #000000; stroke-linejoin: miter"/>
    </defs>
    <g clip-path="url(#pc8e57d4664)">
     <use xlink:href="#m8a8b842b9b" x="230.5854" y="160.056" style="fill: #bcbd22; stroke: #000000; stroke-linejoin: miter"/>
    </g>
   </g>
   <g id="line2d_68">
    <path d="M 263.0178 160.056 
" clip-path="url(#pc8e57d4664)" style="fill: none; stroke: #17becf; stroke-width: 1.5; stroke-linecap: square"/>
    <defs>
     <path id="me364bd7b63" d="M 0 4.949747 
L 2.969848 0 
L 0 -4.949747 
L -2.969848 0 
z
" style="stroke: #000000; stroke-linejoin: miter"/>
    </defs>
    <g clip-path="url(#pc8e57d4664)">
     <use xlink:href="#me364bd7b63" x="263.0178" y="160.056" style="fill: #17becf; stroke: #000000; stroke-linejoin: miter"/>
    </g>
   </g>
   <g id="line2d_69">
    <path d="M 230.5854 62.7588 
" clip-path="url(#pc8e57d4664)" style="fill: none; stroke: #2f4f4f; stroke-width: 1.5; stroke-linecap: square"/>
    <defs>
     <path id="m320871c809" d="M 0 4.949747 
L 2.969848 0 
L 0 -4.949747 
L -2.969848 0 
z
" style="stroke: #000000; stroke-linejoin: miter"/>
    </defs>
    <g clip-path="url(#pc8e57d4664)">
     <use xlink:href="#m320871c809" x="230.5854" y="62.7588" style="fill: #2f4f4f; stroke: #000000; stroke-linejoin: miter"/>
    </g>
   </g>
   <g id="line2d_70">
    <path d="M 230.5854 30.3264 
" clip-path="url(#pc8e57d4664)" style="fill: none; stroke: #cd5c5c; stroke-width: 1.5; stroke-linecap: square"/>
    <defs>
     <path id="m77ea24cb10" d="M 0 4.949747 
L 2.969848 0 
L 0 -4.949747 
L -2.969848 0 
z
" style="stroke: #000000; stroke-linejoin: miter"/>
    </defs>
    <g clip-path="url(#pc8e57d4664)">
     <use xlink:href="#m77ea24cb10" x="230.5854" y="30.3264" style="fill: #cd5c5c; stroke: #000000; stroke-linejoin: miter"/>
    </g>
   </g>
   <g id="line2d_71">
    <path clip-path="url(#pc8e57d4664)" style="fill: none; stroke: #add8e6; stroke-width: 1.5; stroke-linecap: square"/>
    <defs>
     <path id="m14f055801c" d="M 0 4.949747 
L 2.969848 0 
L 0 -4.949747 
L -2.969848 0 
z
" style="stroke: #000000; stroke-linejoin: miter"/>
    </defs>
    <g clip-path="url(#pc8e57d4664)"/>
   </g>
   <g id="line2d_72">
    <path d="M 230.5854 192.4884 
" clip-path="url(#pc8e57d4664)" style="fill: none; stroke: #663399; stroke-width: 1.5; stroke-linecap: square"/>
    <defs>
     <path id="macf263452d" d="M 0 4.949747 
L 2.969848 0 
L 0 -4.949747 
L -2.969848 0 
z
" style="stroke: #000000; stroke-linejoin: miter"/>
    </defs>
    <g clip-path="url(#pc8e57d4664)">
     <use xlink:href="#macf263452d" x="230.5854" y="192.4884" style="fill: #663399; stroke: #000000; stroke-linejoin: miter"/>
    </g>
   </g>
   <g id="line2d_73">
    <path d="M 230.5854 224.9208 
" clip-path="url(#pc8e57d4664)" style="fill: none; stroke: #8fbc8f; stroke-width: 1.5; stroke-linecap: square"/>
    <defs>
     <path id="m248b565c71" d="M 0 4.949747 
L 2.969848 0 
L 0 -4.949747 
L -2.969848 0 
z
" style="stroke: #000000; stroke-linejoin: miter"/>
    </defs>
    <g clip-path="url(#pc8e57d4664)">
     <use xlink:href="#m248b565c71" x="230.5854" y="224.9208" style="fill: #8fbc8f; stroke: #000000; stroke-linejoin: miter"/>
    </g>
   </g>
   <g id="line2d_74">
    <path clip-path="url(#pc8e57d4664)" style="fill: none; stroke: #00ced1; stroke-width: 1.5; stroke-linecap: square"/>
    <defs>
     <path id="m4b17a32e51" d="M 0 4.949747 
L 2.969848 0 
L 0 -4.949747 
L -2.969848 0 
z
" style="stroke: #000000; stroke-linejoin: miter"/>
    </defs>
    <g clip-path="url(#pc8e57d4664)">
     <use xlink:href="#m4b17a32e51" x="230.5854" y="257.3532" style="fill: #00ced1; stroke: #000000; stroke-linejoin: miter"/>
    </g>
   </g>
   <g id="line2d_75">
    <path d="M 165.7206 62.7588 
" clip-path="url(#pc8e57d4664)" style="fill: none; stroke: #6a5acd; stroke-width: 1.5; stroke-linecap: square"/>
    <defs>
     <path id="m70182a67b2" d="M 0 4.949747 
L 2.969848 0 
L 0 -4.949747 
L -2.969848 0 
z
" style="stroke: #000000; stroke-linejoin: miter"/>
    </defs>
    <g clip-path="url(#pc8e57d4664)">
     <use xlink:href="#m70182a67b2" x="165.7206" y="62.7588" style="fill: #6a5acd; stroke: #000000; stroke-linejoin: miter"/>
    </g>
   </g>
   <g id="line2d_76">
    <path d="M 165.7206 30.3264 
" clip-path="url(#pc8e57d4664)" style="fill: none; stroke: #808000; stroke-width: 1.5; stroke-linecap: square"/>
    <defs>
     <path id="mc857c454aa" d="M 0 4.949747 
L 2.969848 0 
L 0 -4.949747 
L -2.969848 0 
z
" style="stroke: #000000; stroke-linejoin: miter"/>
    </defs>
    <g clip-path="url(#pc8e57d4664)">
     <use xlink:href="#mc857c454aa" x="165.7206" y="30.3264" style="fill: #808000; stroke: #000000; stroke-linejoin: miter"/>
    </g>
   </g>
   <g id="line2d_77">
    <path clip-path="url(#pc8e57d4664)" style="fill: none; stroke: #a0522d; stroke-width: 1.5; stroke-linecap: square"/>
    <defs>
     <path id="mfd48178aaa" d="M 0 4.949747 
L 2.969848 0 
L 0 -4.949747 
L -2.969848 0 
z
" style="stroke: #000000; stroke-linejoin: miter"/>
    </defs>
    <g clip-path="url(#pc8e57d4664)"/>
   </g>
   <g id="line2d_78">
    <path d="M 165.7206 192.4884 
" clip-path="url(#pc8e57d4664)" style="fill: none; stroke: #ff4500; stroke-width: 1.5; stroke-linecap: square"/>
    <defs>
     <path id="mc76def8192" d="M 0 4.949747 
L 2.969848 0 
L 0 -4.949747 
L -2.969848 0 
z
" style="stroke: #000000; stroke-linejoin: miter"/>
    </defs>
    <g clip-path="url(#pc8e57d4664)">
     <use xlink:href="#mc76def8192" x="165.7206" y="192.4884" style="fill: #ff4500; stroke: #000000; stroke-linejoin: miter"/>
    </g>
   </g>
   <g id="line2d_79">
    <path d="M 165.7206 224.9208 
" clip-path="url(#pc8e57d4664)" style="fill: none; stroke: #708090; stroke-width: 1.5; stroke-linecap: square"/>
    <defs>
     <path id="m4b8db41d28" d="M 0 4.949747 
L 2.969848 0 
L 0 -4.949747 
L -2.969848 0 
z
" style="stroke: #000000; stroke-linejoin: miter"/>
    </defs>
    <g clip-path="url(#pc8e57d4664)">
     <use xlink:href="#m4b8db41d28" x="165.7206" y="224.9208" style="fill: #708090; stroke: #000000; stroke-linejoin: miter"/>
    </g>
   </g>
   <g id="line2d_80">
    <path clip-path="url(#pc8e57d4664)" style="fill: none; stroke: #bdb76b; stroke-width: 1.5; stroke-linecap: square"/>
    <defs>
     <path id="m59ca50dfc8" d="M 0 4.949747 
L 2.969848 0 
L 0 -4.949747 
L -2.969848 0 
z
" style="stroke: #000000; stroke-linejoin: miter"/>
    </defs>
    <g clip-path="url(#pc8e57d4664)">
     <use xlink:href="#m59ca50dfc8" x="165.7206" y="257.3532" style="fill: #bdb76b; stroke: #000000; stroke-linejoin: miter"/>
    </g>
   </g>
  </g>
 </g>
 <defs>
  <clipPath id="pc8e57d4664">
   <rect x="100.8558" y="30.3264" width="194.5944" height="194.5944"/>
  </clipPath>
 </defs>
</svg>
