<?xml version="1.0" encoding="utf-8" standalone="no"?>
<!DOCTYPE svg PUBLIC "-//W3C//DTD SVG 1.1//EN"
  "http://www.w3.org/Graphics/SVG/1.1/DTD/svg11.dtd">
<svg xmlns:xlink="http://www.w3.org/1999/xlink" width="386.64pt" height="252.72pt" viewBox="0 0 386.64 252.72" xmlns="http://www.w3.org/2000/svg" version="1.1">
 <metadata>
  <rdf:RDF xmlns:dc="http://purl.org/dc/elements/1.1/" xmlns:cc="http://creativecommons.org/ns#" xmlns:rdf="http://www.w3.org/1999/02/22-rdf-syntax-ns#">
   <cc:Work>
    <dc:type rdf:resource="http://purl.org/dc/dcmitype/StillImage"/>
    <dc:date>2023-07-11T22:26:56.403752</dc:date>
    <dc:format>image/svg+xml</dc:format>
    <dc:creator>
     <cc:Agent>
      <dc:title>Matplotlib v3.6.2, https://matplotlib.org/</dc:title>
     </cc:Agent>
    </dc:creator>
   </cc:Work>
  </rdf:RDF>
 </metadata>
 <defs>
  <style type="text/css">*{stroke-linejoin: round; stroke-linecap: butt}</style>
 </defs>
 <g id="figure_1">
  <g id="patch_1">
   <path d="M 0 252.72 
L 386.64 252.72 
L 386.64 0 
L 0 0 
z
" style="fill: #ffffff"/>
  </g>
  <g id="axes_1">
   <g id="patch_2">
    <path d="M 100.8558 224.9208 
L 295.4502 224.9208 
L 295.4502 30.3264 
L 100.8558 30.3264 
z
" style="fill: #ffffff"/>
   </g>
   <g id="matplotlib.axis_1">
    <g id="xtick_1">
     <g id="line2d_1">
      <defs>
       <path id="m608ed6c6f2" d="M 0 0 
L 0 3.5 
" style="stroke: #000000; stroke-width: 0.8"/>
      </defs>
      <g>
       <use xlink:href="#m608ed6c6f2" x="100.8558" y="224.9208" style="stroke: #000000; stroke-width: 0.8"/>
      </g>
     </g>
     <g id="text_1">
      <!-- −0.5 -->
      <g transform="translate(88.714394 239.519237) scale(0.1 -0.1)">
       <defs>
        <path id="DejaVuSans-2212" d="M 678 2272 
L 4684 2272 
L 4684 1741 
L 678 1741 
L 678 2272 
z
" transform="scale(0.015625)"/>
        <path id="DejaVuSans-30" d="M 2034 4250 
Q 1547 4250 1301 3770 
Q 1056 3291 1056 2328 
Q 1056 1369 1301 889 
Q 1547 409 2034 409 
Q 2525 409 2770 889 
Q 3016 1369 3016 2328 
Q 3016 3291 2770 3770 
Q 2525 4250 2034 4250 
z
M 2034 4750 
Q 2819 4750 3233 4129 
Q 3647 3509 3647 2328 
Q 3647 1150 3233 529 
Q 2819 -91 2034 -91 
Q 1250 -91 836 529 
Q 422 1150 422 2328 
Q 422 3509 836 4129 
Q 1250 4750 2034 4750 
z
" transform="scale(0.015625)"/>
        <path id="DejaVuSans-2e" d="M 684 794 
L 1344 794 
L 1344 0 
L 684 0 
L 684 794 
z
" transform="scale(0.015625)"/>
        <path id="DejaVuSans-35" d="M 691 4666 
L 3169 4666 
L 3169 4134 
L 1269 4134 
L 1269 2991 
Q 1406 3038 1543 3061 
Q 1681 3084 1819 3084 
Q 2600 3084 3056 2656 
Q 3513 2228 3513 1497 
Q 3513 744 3044 326 
Q 2575 -91 1722 -91 
Q 1428 -91 1123 -41 
Q 819 9 494 109 
L 494 744 
Q 775 591 1075 516 
Q 1375 441 1709 441 
Q 2250 441 2565 725 
Q 2881 1009 2881 1497 
Q 2881 1984 2565 2268 
Q 2250 2553 1709 2553 
Q 1456 2553 1204 2497 
Q 953 2441 691 2322 
L 691 4666 
z
" transform="scale(0.015625)"/>
       </defs>
       <use xlink:href="#DejaVuSans-2212"/>
       <use xlink:href="#DejaVuSans-30" x="83.789062"/>
       <use xlink:href="#DejaVuSans-2e" x="147.412109"/>
       <use xlink:href="#DejaVuSans-35" x="179.199219"/>
      </g>
     </g>
    </g>
    <g id="xtick_2">
     <g id="line2d_2">
      <g>
       <use xlink:href="#m608ed6c6f2" x="133.2882" y="224.9208" style="stroke: #000000; stroke-width: 0.8"/>
      </g>
     </g>
     <g id="text_2">
      <!-- 0.0 -->
      <g transform="translate(125.336638 239.519237) scale(0.1 -0.1)">
       <use xlink:href="#DejaVuSans-30"/>
       <use xlink:href="#DejaVuSans-2e" x="63.623047"/>
       <use xlink:href="#DejaVuSans-30" x="95.410156"/>
      </g>
     </g>
    </g>
    <g id="xtick_3">
     <g id="line2d_3">
      <g>
       <use xlink:href="#m608ed6c6f2" x="165.7206" y="224.9208" style="stroke: #000000; stroke-width: 0.8"/>
      </g>
     </g>
     <g id="text_3">
      <!-- 0.5 -->
      <g transform="translate(157.769037 239.519237) scale(0.1 -0.1)">
       <use xlink:href="#DejaVuSans-30"/>
       <use xlink:href="#DejaVuSans-2e" x="63.623047"/>
       <use xlink:href="#DejaVuSans-35" x="95.410156"/>
      </g>
     </g>
    </g>
    <g id="xtick_4">
     <g id="line2d_4">
      <g>
       <use xlink:href="#m608ed6c6f2" x="198.153" y="224.9208" style="stroke: #000000; stroke-width: 0.8"/>
      </g>
     </g>
     <g id="text_4">
      <!-- 1.0 -->
      <g transform="translate(190.201437 239.519237) scale(0.1 -0.1)">
       <defs>
        <path id="DejaVuSans-31" d="M 794 531 
L 1825 531 
L 1825 4091 
L 703 3866 
L 703 4441 
L 1819 4666 
L 2450 4666 
L 2450 531 
L 3481 531 
L 3481 0 
L 794 0 
L 794 531 
z
" transform="scale(0.015625)"/>
       </defs>
       <use xlink:href="#DejaVuSans-31"/>
       <use xlink:href="#DejaVuSans-2e" x="63.623047"/>
       <use xlink:href="#DejaVuSans-30" x="95.410156"/>
      </g>
     </g>
    </g>
    <g id="xtick_5">
     <g id="line2d_5">
      <g>
       <use xlink:href="#m608ed6c6f2" x="230.5854" y="224.9208" style="stroke: #000000; stroke-width: 0.8"/>
      </g>
     </g>
     <g id="text_5">
      <!-- 1.5 -->
      <g transform="translate(222.633837 239.519237) scale(0.1 -0.1)">
       <use xlink:href="#DejaVuSans-31"/>
       <use xlink:href="#DejaVuSans-2e" x="63.623047"/>
       <use xlink:href="#DejaVuSans-35" x="95.410156"/>
      </g>
     </g>
    </g>
    <g id="xtick_6">
     <g id="line2d_6">
      <g>
       <use xlink:href="#m608ed6c6f2" x="263.0178" y="224.9208" style="stroke: #000000; stroke-width: 0.8"/>
      </g>
     </g>
     <g id="text_6">
      <!-- 2.0 -->
      <g transform="translate(255.066237 239.519237) scale(0.1 -0.1)">
       <defs>
        <path id="DejaVuSans-32" d="M 1228 531 
L 3431 531 
L 3431 0 
L 469 0 
L 469 531 
Q 828 903 1448 1529 
Q 2069 2156 2228 2338 
Q 2531 2678 2651 2914 
Q 2772 3150 2772 3378 
Q 2772 3750 2511 3984 
Q 2250 4219 1831 4219 
Q 1534 4219 1204 4116 
Q 875 4013 500 3803 
L 500 4441 
Q 881 4594 1212 4672 
Q 1544 4750 1819 4750 
Q 2544 4750 2975 4387 
Q 3406 4025 3406 3419 
Q 3406 3131 3298 2873 
Q 3191 2616 2906 2266 
Q 2828 2175 2409 1742 
Q 1991 1309 1228 531 
z
" transform="scale(0.015625)"/>
       </defs>
       <use xlink:href="#DejaVuSans-32"/>
       <use xlink:href="#DejaVuSans-2e" x="63.623047"/>
       <use xlink:href="#DejaVuSans-30" x="95.410156"/>
      </g>
     </g>
    </g>
    <g id="xtick_7">
     <g id="line2d_7">
      <g>
       <use xlink:href="#m608ed6c6f2" x="295.4502" y="224.9208" style="stroke: #000000; stroke-width: 0.8"/>
      </g>
     </g>
     <g id="text_7">
      <!-- 2.5 -->
      <g transform="translate(287.498637 239.519237) scale(0.1 -0.1)">
       <use xlink:href="#DejaVuSans-32"/>
       <use xlink:href="#DejaVuSans-2e" x="63.623047"/>
       <use xlink:href="#DejaVuSans-35" x="95.410156"/>
      </g>
     </g>
    </g>
    <g id="text_8">
     <!-- x(m) -->
     <g transform="translate(186.42175 253.197362) scale(0.1 -0.1)">
      <defs>
       <path id="DejaVuSans-78" d="M 3513 3500 
L 2247 1797 
L 3578 0 
L 2900 0 
L 1881 1375 
L 863 0 
L 184 0 
L 1544 1831 
L 300 3500 
L 978 3500 
L 1906 2253 
L 2834 3500 
L 3513 3500 
z
" transform="scale(0.015625)"/>
       <path id="DejaVuSans-28" d="M 1984 4856 
Q 1566 4138 1362 3434 
Q 1159 2731 1159 2009 
Q 1159 1288 1364 580 
Q 1569 -128 1984 -844 
L 1484 -844 
Q 1016 -109 783 600 
Q 550 1309 550 2009 
Q 550 2706 781 3412 
Q 1013 4119 1484 4856 
L 1984 4856 
z
" transform="scale(0.015625)"/>
       <path id="DejaVuSans-6d" d="M 3328 2828 
Q 3544 3216 3844 3400 
Q 4144 3584 4550 3584 
Q 5097 3584 5394 3201 
Q 5691 2819 5691 2113 
L 5691 0 
L 5113 0 
L 5113 2094 
Q 5113 2597 4934 2840 
Q 4756 3084 4391 3084 
Q 3944 3084 3684 2787 
Q 3425 2491 3425 1978 
L 3425 0 
L 2847 0 
L 2847 2094 
Q 2847 2600 2669 2842 
Q 2491 3084 2119 3084 
Q 1678 3084 1418 2786 
Q 1159 2488 1159 1978 
L 1159 0 
L 581 0 
L 581 3500 
L 1159 3500 
L 1159 2956 
Q 1356 3278 1631 3431 
Q 1906 3584 2284 3584 
Q 2666 3584 2933 3390 
Q 3200 3197 3328 2828 
z
" transform="scale(0.015625)"/>
       <path id="DejaVuSans-29" d="M 513 4856 
L 1013 4856 
Q 1481 4119 1714 3412 
Q 1947 2706 1947 2009 
Q 1947 1309 1714 600 
Q 1481 -109 1013 -844 
L 513 -844 
Q 928 -128 1133 580 
Q 1338 1288 1338 2009 
Q 1338 2731 1133 3434 
Q 928 4138 513 4856 
z
" transform="scale(0.015625)"/>
      </defs>
      <use xlink:href="#DejaVuSans-78"/>
      <use xlink:href="#DejaVuSans-28" x="59.179688"/>
      <use xlink:href="#DejaVuSans-6d" x="98.193359"/>
      <use xlink:href="#DejaVuSans-29" x="195.605469"/>
     </g>
    </g>
   </g>
   <g id="matplotlib.axis_2">
    <g id="ytick_1">
     <g id="line2d_8">
      <defs>
       <path id="m2627ad38c6" d="M 0 0 
L -3.5 0 
" style="stroke: #000000; stroke-width: 0.8"/>
      </defs>
      <g>
       <use xlink:href="#m2627ad38c6" x="100.8558" y="224.9208" style="stroke: #000000; stroke-width: 0.8"/>
      </g>
     </g>
     <g id="text_9">
      <!-- −0.5 -->
      <g transform="translate(69.572988 228.720019) scale(0.1 -0.1)">
       <use xlink:href="#DejaVuSans-2212"/>
       <use xlink:href="#DejaVuSans-30" x="83.789062"/>
       <use xlink:href="#DejaVuSans-2e" x="147.412109"/>
       <use xlink:href="#DejaVuSans-35" x="179.199219"/>
      </g>
     </g>
    </g>
    <g id="ytick_2">
     <g id="line2d_9">
      <g>
       <use xlink:href="#m2627ad38c6" x="100.8558" y="192.4884" style="stroke: #000000; stroke-width: 0.8"/>
      </g>
     </g>
     <g id="text_10">
      <!-- 0.0 -->
      <g transform="translate(77.952675 196.287619) scale(0.1 -0.1)">
       <use xlink:href="#DejaVuSans-30"/>
       <use xlink:href="#DejaVuSans-2e" x="63.623047"/>
       <use xlink:href="#DejaVuSans-30" x="95.410156"/>
      </g>
     </g>
    </g>
    <g id="ytick_3">
     <g id="line2d_10">
      <g>
       <use xlink:href="#m2627ad38c6" x="100.8558" y="160.056" style="stroke: #000000; stroke-width: 0.8"/>
      </g>
     </g>
     <g id="text_11">
      <!-- 0.5 -->
      <g transform="translate(77.952675 163.855219) scale(0.1 -0.1)">
       <use xlink:href="#DejaVuSans-30"/>
       <use xlink:href="#DejaVuSans-2e" x="63.623047"/>
       <use xlink:href="#DejaVuSans-35" x="95.410156"/>
      </g>
     </g>
    </g>
    <g id="ytick_4">
     <g id="line2d_11">
      <g>
       <use xlink:href="#m2627ad38c6" x="100.8558" y="127.6236" style="stroke: #000000; stroke-width: 0.8"/>
      </g>
     </g>
     <g id="text_12">
      <!-- 1.0 -->
      <g transform="translate(77.952675 131.422819) scale(0.1 -0.1)">
       <use xlink:href="#DejaVuSans-31"/>
       <use xlink:href="#DejaVuSans-2e" x="63.623047"/>
       <use xlink:href="#DejaVuSans-30" x="95.410156"/>
      </g>
     </g>
    </g>
    <g id="ytick_5">
     <g id="line2d_12">
      <g>
       <use xlink:href="#m2627ad38c6" x="100.8558" y="95.1912" style="stroke: #000000; stroke-width: 0.8"/>
      </g>
     </g>
     <g id="text_13">
      <!-- 1.5 -->
      <g transform="translate(77.952675 98.990419) scale(0.1 -0.1)">
       <use xlink:href="#DejaVuSans-31"/>
       <use xlink:href="#DejaVuSans-2e" x="63.623047"/>
       <use xlink:href="#DejaVuSans-35" x="95.410156"/>
      </g>
     </g>
    </g>
    <g id="ytick_6">
     <g id="line2d_13">
      <g>
       <use xlink:href="#m2627ad38c6" x="100.8558" y="62.7588" style="stroke: #000000; stroke-width: 0.8"/>
      </g>
     </g>
     <g id="text_14">
      <!-- 2.0 -->
      <g transform="translate(77.952675 66.558019) scale(0.1 -0.1)">
       <use xlink:href="#DejaVuSans-32"/>
       <use xlink:href="#DejaVuSans-2e" x="63.623047"/>
       <use xlink:href="#DejaVuSans-30" x="95.410156"/>
      </g>
     </g>
    </g>
    <g id="ytick_7">
     <g id="line2d_14">
      <g>
       <use xlink:href="#m2627ad38c6" x="100.8558" y="30.3264" style="stroke: #000000; stroke-width: 0.8"/>
      </g>
     </g>
     <g id="text_15">
      <!-- 2.5 -->
      <g transform="translate(77.952675 34.125619) scale(0.1 -0.1)">
       <use xlink:href="#DejaVuSans-32"/>
       <use xlink:href="#DejaVuSans-2e" x="63.623047"/>
       <use xlink:href="#DejaVuSans-35" x="95.410156"/>
      </g>
     </g>
    </g>
    <g id="text_16">
     <!-- y(m) -->
     <g transform="translate(63.4933 139.35485) rotate(-90) scale(0.1 -0.1)">
      <defs>
       <path id="DejaVuSans-79" d="M 2059 -325 
Q 1816 -950 1584 -1140 
Q 1353 -1331 966 -1331 
L 506 -1331 
L 506 -850 
L 844 -850 
Q 1081 -850 1212 -737 
Q 1344 -625 1503 -206 
L 1606 56 
L 191 3500 
L 800 3500 
L 1894 763 
L 2988 3500 
L 3597 3500 
L 2059 -325 
z
" transform="scale(0.015625)"/>
      </defs>
      <use xlink:href="#DejaVuSans-79"/>
      <use xlink:href="#DejaVuSans-28" x="59.179688"/>
      <use xlink:href="#DejaVuSans-6d" x="98.193359"/>
      <use xlink:href="#DejaVuSans-29" x="195.605469"/>
     </g>
    </g>
   </g>
   <g id="line2d_15">
    <path d="M 263.006673 127.622341 
L 263.019114 127.623748 
L 263.017659 127.623584 
L 263.017813 127.623602 
L 263.017794 127.6236 
L 263.017795 127.6236 
L 263.01782 127.623597 
L 263.017899 127.623585 
L 263.017971 127.623574 
L 263.017768 127.623607 
L 263.016965 127.623739 
L 263.018339 127.623514 
L 263.018339 127.623514 
" clip-path="url(#paa1525653c)" style="fill: none; stroke-dasharray: 2,3.3; stroke-dashoffset: 0; stroke: #1f77b4; stroke-width: 2"/>
   </g>
   <g id="line2d_16">
    <path d="M 133.2882 127.6236 
L 133.2882 127.6236 
L 133.768676 127.621531 
L 138.573349 127.593776 
L 147.701648 127.493337 
L 160.673863 127.41217 
L 173.646739 127.459601 
L 186.619963 127.486284 
L 199.592908 127.523189 
L 212.567005 127.607597 
L 225.536461 127.5202 
L 238.341407 126.667687 
L 249.679077 126.428069 
L 257.640665 127.139288 
L 262.299995 127.540144 
L 263.112185 127.634279 
L 263.006673 127.622341 
" clip-path="url(#paa1525653c)" style="fill: none; stroke: #1f77b4; stroke-width: 2; stroke-linecap: square"/>
   </g>
   <g id="line2d_17">
    <path d="M 240.879042 131.192219 
L 241.149299 131.333716 
L 241.286533 131.262331 
L 241.352136 131.243551 
L 241.389701 131.231364 
L 241.413915 131.223815 
L 241.430814 131.218583 
L 241.443262 131.214743 
L 241.452803 131.211805 
L 241.460348 131.209484 
L 241.466461 131.207604 
L 241.471518 131.206051 
L 241.471518 131.206051 
" clip-path="url(#paa1525653c)" style="fill: none; stroke-dasharray: 2,3.3; stroke-dashoffset: 0; stroke: #ff7f0e; stroke-width: 2"/>
   </g>
   <g id="line2d_18">
    <path d="M 198.153 205.46136 
L 198.153 205.46136 
L 198.164648 204.981025 
L 198.417246 200.200816 
L 199.877385 191.454013 
L 201.48243 180.264573 
L 202.738317 169.560811 
L 204.917797 161.07713 
L 207.09932 154.814228 
L 209.379241 150.892168 
L 211.999015 147.096721 
L 218.032057 141.250712 
L 226.183594 137.004547 
L 232.872114 134.000627 
L 237.806064 132.265695 
L 240.06566 131.422425 
L 240.879042 131.192219 
" clip-path="url(#paa1525653c)" style="fill: none; stroke: #ff7f0e; stroke-width: 2; stroke-linecap: square"/>
   </g>
   <g id="line2d_19">
    <path d="M 133.288235 95.190976 
L 133.288234 95.190965 
L 133.288232 95.190955 
L 133.28823 95.190949 
L 133.288227 95.190948 
L 133.288224 95.190951 
L 133.288221 95.190959 
L 133.288218 95.190972 
L 133.288215 95.190987 
L 133.288213 95.191002 
L 133.288212 95.191014 
L 133.288211 95.191019 
L 133.288211 95.191019 
" clip-path="url(#paa1525653c)" style="fill: none; stroke-dasharray: 2,3.3; stroke-dashoffset: 0; stroke: #2ca02c; stroke-width: 2"/>
   </g>
   <g id="line2d_20">
    <path d="M 133.2882 95.1912 
L 133.2882 95.1912 
L 133.2882 95.1912 
L 133.288202 95.1912 
L 133.288204 95.191197 
L 133.288206 95.19119 
L 133.288211 95.191173 
L 133.288216 95.191155 
L 133.288222 95.191135 
L 133.288224 95.191111 
L 133.288228 95.191086 
L 133.28823 95.191064 
L 133.288232 95.191043 
L 133.288235 95.191023 
L 133.288236 95.191005 
L 133.288236 95.19099 
L 133.288235 95.190976 
" clip-path="url(#paa1525653c)" style="fill: none; stroke: #2ca02c; stroke-width: 2; stroke-linecap: square"/>
   </g>
   <g id="line2d_21">
    <path d="M 165.720369 95.191085 
L 165.720417 95.191124 
L 165.720476 95.191168 
L 165.720539 95.191212 
L 165.720594 95.191247 
L 165.720637 95.191272 
L 165.720669 95.191285 
L 165.720691 95.191288 
L 165.720702 95.191281 
L 165.720704 95.191266 
L 165.720702 95.191248 
L 165.720701 95.191236 
L 165.720701 95.191236 
" clip-path="url(#paa1525653c)" style="fill: none; stroke-dasharray: 2,3.3; stroke-dashoffset: 0; stroke: #d62728; stroke-width: 2"/>
   </g>
   <g id="line2d_22">
    <path d="M 165.7206 95.1912 
L 165.7206 95.1912 
L 165.720601 95.191194 
L 165.720603 95.19115 
L 165.720581 95.191153 
L 165.720541 95.191158 
L 165.720483 95.19116 
L 165.720422 95.191125 
L 165.720366 95.191081 
L 165.720311 95.191045 
L 165.720281 95.191024 
L 165.720264 95.191013 
L 165.720261 95.191012 
L 165.720272 95.191017 
L 165.720291 95.191024 
L 165.720326 95.19105 
L 165.720369 95.191085 
" clip-path="url(#paa1525653c)" style="fill: none; stroke: #d62728; stroke-width: 2; stroke-linecap: square"/>
   </g>
   <g id="line2d_23">
    <path d="M 230.585716 95.190885 
L 230.585725 95.190811 
L 230.585755 95.190746 
L 230.585796 95.190723 
L 230.585816 95.190763 
L 230.585807 95.190838 
L 230.585769 95.190916 
L 230.585709 95.190985 
L 230.585636 95.191048 
L 230.585565 95.191104 
L 230.585512 95.191144 
L 230.585487 95.191163 
L 230.585487 95.191163 
" clip-path="url(#paa1525653c)" style="fill: none; stroke-dasharray: 2,3.3; stroke-dashoffset: 0; stroke: #9467bd; stroke-width: 2"/>
   </g>
   <g id="line2d_24">
    <path d="M 230.5854 95.1912 
L 230.5854 95.1912 
L 230.5854 95.191198 
L 230.585399 95.191183 
L 230.585405 95.191174 
L 230.585427 95.191186 
L 230.585443 95.191202 
L 230.585457 95.191257 
L 230.585477 95.191298 
L 230.585509 95.191287 
L 230.585553 95.191222 
L 230.585594 95.19117 
L 230.58563 95.191129 
L 230.585659 95.191094 
L 230.585686 95.191036 
L 230.585704 95.190962 
L 230.585716 95.190885 
" clip-path="url(#paa1525653c)" style="fill: none; stroke: #9467bd; stroke-width: 2; stroke-linecap: square"/>
   </g>
   <g id="line2d_25">
    <path d="M 263.017772 95.190989 
L 263.017769 95.190978 
L 263.017766 95.190969 
L 263.017764 95.190965 
L 263.017764 95.190967 
L 263.017764 95.190973 
L 263.017766 95.190985 
L 263.017768 95.191 
L 263.017771 95.191018 
L 263.017774 95.191036 
L 263.017776 95.191049 
L 263.017777 95.191055 
L 263.017777 95.191055 
" clip-path="url(#paa1525653c)" style="fill: none; stroke-dasharray: 2,3.3; stroke-dashoffset: 0; stroke: #8c564b; stroke-width: 2"/>
   </g>
   <g id="line2d_26">
    <path d="M 263.0178 95.1912 
L 263.0178 95.1912 
L 263.017801 95.1912 
L 263.017807 95.191203 
L 263.017812 95.191199 
L 263.017815 95.191193 
L 263.017817 95.191185 
L 263.017818 95.191173 
L 263.017819 95.191161 
L 263.017818 95.19115 
L 263.017817 95.191135 
L 263.017814 95.191106 
L 263.017803 95.191071 
L 263.017793 95.191044 
L 263.017784 95.191022 
L 263.017777 95.191004 
L 263.017772 95.190989 
" clip-path="url(#paa1525653c)" style="fill: none; stroke: #8c564b; stroke-width: 2; stroke-linecap: square"/>
   </g>
   <g id="line2d_27">
    <path d="M 133.288253 160.056156 
L 133.288253 160.056169 
L 133.288251 160.056181 
L 133.288249 160.05619 
L 133.288246 160.056195 
L 133.288242 160.056197 
L 133.288238 160.056194 
L 133.288233 160.056188 
L 133.288229 160.056178 
L 133.288225 160.056168 
L 133.288223 160.056159 
L 133.288222 160.056155 
L 133.288222 160.056155 
" clip-path="url(#paa1525653c)" style="fill: none; stroke-dasharray: 2,3.3; stroke-dashoffset: 0; stroke: #e377c2; stroke-width: 2"/>
   </g>
   <g id="line2d_28">
    <path d="M 133.2882 160.056 
L 133.2882 160.056 
L 133.2882 160.056 
L 133.288203 160.056 
L 133.288205 160.056004 
L 133.288208 160.056011 
L 133.28821 160.05602 
L 133.288212 160.056031 
L 133.288213 160.056043 
L 133.288215 160.056057 
L 133.288218 160.056072 
L 133.288228 160.056085 
L 133.288237 160.056099 
L 133.288244 160.056114 
L 133.288249 160.056128 
L 133.288252 160.056143 
L 133.288253 160.056156 
" clip-path="url(#paa1525653c)" style="fill: none; stroke: #e377c2; stroke-width: 2; stroke-linecap: square"/>
   </g>
   <g id="line2d_29">
    <path d="M 165.720378 160.055717 
L 165.720395 160.055739 
L 165.72043 160.055752 
L 165.720478 160.055761 
L 165.720527 160.055777 
L 165.720573 160.055799 
L 165.720614 160.055828 
L 165.720648 160.055864 
L 165.720674 160.055905 
L 165.72069 160.055949 
L 165.720698 160.05599 
L 165.720701 160.056015 
L 165.720701 160.056015 
" clip-path="url(#paa1525653c)" style="fill: none; stroke-dasharray: 2,3.3; stroke-dashoffset: 0; stroke: #7f7f7f; stroke-width: 2"/>
   </g>
   <g id="line2d_30">
    <path d="M 165.7206 160.056 
L 165.7206 160.056 
L 165.7206 160.055997 
L 165.720599 160.05597 
L 165.720579 160.055908 
L 165.72054 160.055856 
L 165.720503 160.055767 
L 165.72048 160.055656 
L 165.720446 160.055586 
L 165.720426 160.055548 
L 165.720405 160.055537 
L 165.720398 160.05555 
L 165.720388 160.055578 
L 165.720397 160.055602 
L 165.720396 160.055649 
L 165.720377 160.055687 
L 165.720378 160.055717 
" clip-path="url(#paa1525653c)" style="fill: none; stroke: #7f7f7f; stroke-width: 2; stroke-linecap: square"/>
   </g>
   <g id="line2d_31">
    <path d="M 230.585555 160.056044 
L 230.585585 160.056041 
L 230.585624 160.056037 
L 230.585661 160.056032 
L 230.585674 160.056026 
L 230.585664 160.056021 
L 230.585636 160.056015 
L 230.585594 160.056011 
L 230.585546 160.056007 
L 230.585499 160.056005 
L 230.585465 160.056003 
L 230.585448 160.056003 
L 230.585448 160.056003 
" clip-path="url(#paa1525653c)" style="fill: none; stroke-dasharray: 2,3.3; stroke-dashoffset: 0; stroke: #bcbd22; stroke-width: 2"/>
   </g>
   <g id="line2d_32">
    <path d="M 230.5854 160.056 
L 230.5854 160.056 
L 230.5854 160.056002 
L 230.585404 160.056019 
L 230.585426 160.055987 
L 230.585441 160.055965 
L 230.585453 160.055958 
L 230.585459 160.055962 
L 230.585459 160.055967 
L 230.585467 160.055979 
L 230.585475 160.055991 
L 230.58547 160.056002 
L 230.585459 160.056052 
L 230.585468 160.056053 
L 230.585489 160.056051 
L 230.58552 160.056047 
L 230.585555 160.056044 
" clip-path="url(#paa1525653c)" style="fill: none; stroke: #bcbd22; stroke-width: 2; stroke-linecap: square"/>
   </g>
   <g id="line2d_33">
    <path d="M 263.017777 160.056198 
L 263.017777 160.056207 
L 263.017777 160.056214 
L 263.017778 160.056217 
L 263.017779 160.056216 
L 263.01778 160.05621 
L 263.017782 160.0562 
L 263.017784 160.056186 
L 263.017785 160.05617 
L 263.017787 160.056154 
L 263.017788 160.056142 
L 263.017789 160.056137 
L 263.017789 160.056137 
" clip-path="url(#paa1525653c)" style="fill: none; stroke-dasharray: 2,3.3; stroke-dashoffset: 0; stroke: #17becf; stroke-width: 2"/>
   </g>
   <g id="line2d_34">
    <path d="M 263.0178 160.056 
L 263.0178 160.056 
L 263.0178 160.056 
L 263.0178 160.056 
L 263.0178 160.056006 
L 263.017801 160.056017 
L 263.017802 160.056031 
L 263.017798 160.056043 
L 263.017795 160.056057 
L 263.017792 160.056072 
L 263.017789 160.056089 
L 263.017785 160.056112 
L 263.017783 160.056135 
L 263.01778 160.056158 
L 263.017778 160.056174 
L 263.017777 160.056187 
L 263.017777 160.056198 
" clip-path="url(#paa1525653c)" style="fill: none; stroke: #17becf; stroke-width: 2; stroke-linecap: square"/>
   </g>
   <g id="line2d_35">
    <path d="M 230.585706 62.758784 
L 230.585736 62.75879 
L 230.585712 62.758788 
L 230.585649 62.75878 
L 230.585568 62.758772 
L 230.585482 62.758765 
L 230.5854 62.758758 
L 230.585327 62.75875 
L 230.58527 62.75874 
L 230.585233 62.758728 
L 230.585216 62.758715 
L 230.585209 62.758704 
L 230.585209 62.758704 
" clip-path="url(#paa1525653c)" style="fill: none; stroke-dasharray: 2,3.3; stroke-dashoffset: 0; stroke: #2f4f4f; stroke-width: 2"/>
   </g>
   <g id="line2d_36">
    <path d="M 230.5854 62.7588 
L 230.5854 62.7588 
L 230.5854 62.758798 
L 230.585398 62.758783 
L 230.585395 62.75877 
L 230.585392 62.758761 
L 230.585391 62.758756 
L 230.585392 62.758754 
L 230.585393 62.758755 
L 230.585397 62.758759 
L 230.585416 62.758765 
L 230.585444 62.758771 
L 230.585472 62.758776 
L 230.585495 62.75878 
L 230.585546 62.758771 
L 230.585621 62.758774 
L 230.585706 62.758784 
" clip-path="url(#paa1525653c)" style="fill: none; stroke: #2f4f4f; stroke-width: 2; stroke-linecap: square"/>
   </g>
   <g id="line2d_37">
    <path d="M 230.585301 30.326673 
L 230.585306 30.326652 
L 230.585309 30.326623 
L 230.585312 30.326586 
L 230.585317 30.326546 
L 230.585324 30.326503 
L 230.585334 30.326461 
L 230.585345 30.326423 
L 230.585356 30.326393 
L 230.585365 30.326376 
L 230.58537 30.326368 
L 230.585372 30.326367 
L 230.585372 30.326367 
" clip-path="url(#paa1525653c)" style="fill: none; stroke-dasharray: 2,3.3; stroke-dashoffset: 0; stroke: #cd5c5c; stroke-width: 2"/>
   </g>
   <g id="line2d_38">
    <path d="M 230.5854 30.3264 
L 230.5854 30.3264 
L 230.585397 30.326406 
L 230.585368 30.32646 
L 230.585347 30.326501 
L 230.585328 30.326531 
L 230.585311 30.326561 
L 230.585298 30.326587 
L 230.585288 30.326613 
L 230.585283 30.326639 
L 230.58528 30.326662 
L 230.58528 30.326679 
L 230.585281 30.32669 
L 230.585284 30.326694 
L 230.585289 30.326696 
L 230.585295 30.326687 
L 230.585301 30.326673 
" clip-path="url(#paa1525653c)" style="fill: none; stroke: #cd5c5c; stroke-width: 2; stroke-linecap: square"/>
   </g>
   <g id="line2d_39">
    <path clip-path="url(#paa1525653c)" style="fill: none; stroke-dasharray: 2,3.3; stroke-dashoffset: 0; stroke: #add8e6; stroke-width: 2"/>
   </g>
   <g id="line2d_40">
    <path clip-path="url(#paa1525653c)" style="fill: none; stroke: #add8e6; stroke-width: 2; stroke-linecap: square"/>
   </g>
   <g id="line2d_41">
    <path d="M 230.585625 192.488433 
L 230.585702 192.488439 
L 230.585811 192.488438 
L 230.585931 192.488416 
L 230.586013 192.488379 
L 230.586045 192.488343 
L 230.586028 192.488324 
L 230.585968 192.488324 
L 230.585877 192.488334 
L 230.585774 192.488346 
L 230.585687 192.488357 
L 230.585643 192.488363 
L 230.585643 192.488363 
" clip-path="url(#paa1525653c)" style="fill: none; stroke-dasharray: 2,3.3; stroke-dashoffset: 0; stroke: #663399; stroke-width: 2"/>
   </g>
   <g id="line2d_42">
    <path d="M 230.5854 192.4884 
L 230.5854 192.4884 
L 230.5854 192.488401 
L 230.585403 192.488407 
L 230.585406 192.488411 
L 230.585406 192.488417 
L 230.585392 192.488421 
L 230.585383 192.488425 
L 230.585389 192.488426 
L 230.585399 192.488429 
L 230.585436 192.488433 
L 230.585469 192.48843 
L 230.585487 192.488434 
L 230.585503 192.488436 
L 230.585517 192.488438 
L 230.585562 192.488431 
L 230.585625 192.488433 
" clip-path="url(#paa1525653c)" style="fill: none; stroke: #663399; stroke-width: 2; stroke-linecap: square"/>
   </g>
   <g id="line2d_43">
    <path d="M 230.58532 224.920837 
L 230.585321 224.92083 
L 230.585323 224.920824 
L 230.585325 224.92082 
L 230.58533 224.920816 
L 230.585336 224.920815 
L 230.585344 224.920814 
L 230.585353 224.920816 
L 230.585363 224.920818 
L 230.585372 224.920821 
L 230.585379 224.920823 
L 230.585382 224.920824 
L 230.585382 224.920824 
" clip-path="url(#paa1525653c)" style="fill: none; stroke-dasharray: 2,3.3; stroke-dashoffset: 0; stroke: #8fbc8f; stroke-width: 2"/>
   </g>
   <g id="line2d_44">
    <path d="M 230.5854 224.9208 
L 230.5854 224.9208 
L 230.585398 224.920803 
L 230.585385 224.920825 
L 230.585374 224.920843 
L 230.585366 224.920859 
L 230.58536 224.920873 
L 230.585355 224.920875 
L 230.58535 224.920871 
L 230.585345 224.920863 
L 230.585339 224.920855 
L 230.585333 224.920853 
L 230.585327 224.920853 
L 230.585323 224.920851 
L 230.585321 224.920846 
L 230.585319 224.920843 
L 230.58532 224.920837 
" clip-path="url(#paa1525653c)" style="fill: none; stroke: #8fbc8f; stroke-width: 2; stroke-linecap: square"/>
   </g>
   <g id="line2d_45">
    <path clip-path="url(#paa1525653c)" style="fill: none; stroke-dasharray: 2,3.3; stroke-dashoffset: 0; stroke: #00ced1; stroke-width: 2"/>
   </g>
   <g id="line2d_46">
    <path clip-path="url(#paa1525653c)" style="fill: none; stroke: #00ced1; stroke-width: 2; stroke-linecap: square"/>
   </g>
   <g id="line2d_47">
    <path d="M 165.720558 62.758892 
L 165.720561 62.758923 
L 165.720568 62.75895 
L 165.720578 62.75897 
L 165.720588 62.758976 
L 165.720596 62.758966 
L 165.720604 62.758942 
L 165.720611 62.758908 
L 165.72062 62.758868 
L 165.720629 62.758834 
L 165.720639 62.758812 
L 165.720646 62.758805 
L 165.720646 62.758805 
" clip-path="url(#paa1525653c)" style="fill: none; stroke-dasharray: 2,3.3; stroke-dashoffset: 0; stroke: #6a5acd; stroke-width: 2"/>
   </g>
   <g id="line2d_48">
    <path d="M 165.7206 62.7588 
L 165.7206 62.7588 
L 165.7206 62.758797 
L 165.720599 62.758767 
L 165.720603 62.758741 
L 165.720606 62.758721 
L 165.720609 62.758707 
L 165.720611 62.7587 
L 165.72061 62.758699 
L 165.720606 62.758707 
L 165.720599 62.758726 
L 165.72059 62.758749 
L 165.72058 62.758775 
L 165.720571 62.758803 
L 165.720562 62.758831 
L 165.720558 62.758862 
L 165.720558 62.758892 
" clip-path="url(#paa1525653c)" style="fill: none; stroke: #6a5acd; stroke-width: 2; stroke-linecap: square"/>
   </g>
   <g id="line2d_49">
    <path d="M 165.720614 30.326522 
L 165.720613 30.326532 
L 165.720613 30.326536 
L 165.720613 30.326535 
L 165.720612 30.326527 
L 165.720611 30.326513 
L 165.720609 30.326494 
L 165.720605 30.32647 
L 165.720602 30.326445 
L 165.720598 30.326423 
L 165.720596 30.326408 
L 165.720596 30.326402 
L 165.720596 30.326402 
" clip-path="url(#paa1525653c)" style="fill: none; stroke-dasharray: 2,3.3; stroke-dashoffset: 0; stroke: #808000; stroke-width: 2"/>
   </g>
   <g id="line2d_50">
    <path d="M 165.7206 30.3264 
L 165.7206 30.3264 
L 165.7206 30.326398 
L 165.720603 30.326374 
L 165.720607 30.326333 
L 165.720608 30.326303 
L 165.720608 30.326285 
L 165.720609 30.326278 
L 165.720611 30.326286 
L 165.720616 30.326304 
L 165.720622 30.32633 
L 165.720624 30.32636 
L 165.720622 30.326408 
L 165.720619 30.326449 
L 165.720616 30.326482 
L 165.720615 30.326507 
L 165.720614 30.326522 
" clip-path="url(#paa1525653c)" style="fill: none; stroke: #808000; stroke-width: 2; stroke-linecap: square"/>
   </g>
   <g id="line2d_51">
    <path clip-path="url(#paa1525653c)" style="fill: none; stroke-dasharray: 2,3.3; stroke-dashoffset: 0; stroke: #a0522d; stroke-width: 2"/>
   </g>
   <g id="line2d_52">
    <path clip-path="url(#paa1525653c)" style="fill: none; stroke: #a0522d; stroke-width: 2; stroke-linecap: square"/>
   </g>
   <g id="line2d_53">
    <path d="M 165.720479 192.488566 
L 165.7205 192.488528 
L 165.720522 192.48849 
L 165.720544 192.488455 
L 165.720565 192.488425 
L 165.720582 192.488402 
L 165.720597 192.488387 
L 165.720608 192.488381 
L 165.720617 192.488381 
L 165.720622 192.488385 
L 165.720625 192.488389 
L 165.720625 192.488391 
L 165.720625 192.488391 
" clip-path="url(#paa1525653c)" style="fill: none; stroke-dasharray: 2,3.3; stroke-dashoffset: 0; stroke: #ff4500; stroke-width: 2"/>
   </g>
   <g id="line2d_54">
    <path d="M 165.7206 192.4884 
L 165.7206 192.4884 
L 165.720601 192.488405 
L 165.720611 192.488452 
L 165.720617 192.488491 
L 165.720591 192.488535 
L 165.720574 192.488568 
L 165.720557 192.488592 
L 165.720554 192.48862 
L 165.720547 192.488655 
L 165.720505 192.488686 
L 165.72045 192.488683 
L 165.720421 192.488672 
L 165.720425 192.488655 
L 165.72044 192.488631 
L 165.720459 192.488601 
L 165.720479 192.488566 
" clip-path="url(#paa1525653c)" style="fill: none; stroke: #ff4500; stroke-width: 2; stroke-linecap: square"/>
   </g>
   <g id="line2d_55">
    <path d="M 165.720682 224.920658 
L 165.720679 224.920647 
L 165.720676 224.920641 
L 165.720672 224.92064 
L 165.720665 224.920646 
L 165.720657 224.920659 
L 165.720647 224.920677 
L 165.720636 224.920701 
L 165.720626 224.920726 
L 165.720617 224.920748 
L 165.720611 224.920763 
L 165.720609 224.920769 
L 165.720609 224.920769 
" clip-path="url(#paa1525653c)" style="fill: none; stroke-dasharray: 2,3.3; stroke-dashoffset: 0; stroke: #708090; stroke-width: 2"/>
   </g>
   <g id="line2d_56">
    <path d="M 165.7206 224.9208 
L 165.7206 224.9208 
L 165.720602 224.920799 
L 165.720621 224.92079 
L 165.720636 224.920783 
L 165.720647 224.920788 
L 165.720655 224.920803 
L 165.720661 224.920807 
L 165.720666 224.920806 
L 165.720669 224.920799 
L 165.720672 224.920786 
L 165.720674 224.920768 
L 165.720677 224.920745 
L 165.72068 224.92072 
L 165.72068 224.920698 
L 165.720682 224.920675 
L 165.720682 224.920658 
" clip-path="url(#paa1525653c)" style="fill: none; stroke: #708090; stroke-width: 2; stroke-linecap: square"/>
   </g>
   <g id="line2d_57">
    <path clip-path="url(#paa1525653c)" style="fill: none; stroke-dasharray: 2,3.3; stroke-dashoffset: 0; stroke: #bdb76b; stroke-width: 2"/>
   </g>
   <g id="line2d_58">
    <path clip-path="url(#paa1525653c)" style="fill: none; stroke: #bdb76b; stroke-width: 2; stroke-linecap: square"/>
   </g>
   <g id="patch_3">
    <path d="M 100.8558 224.9208 
L 100.8558 30.3264 
" style="fill: none; stroke: #000000; stroke-width: 0.8; stroke-linejoin: miter; stroke-linecap: square"/>
   </g>
   <g id="patch_4">
    <path d="M 295.4502 224.9208 
L 295.4502 30.3264 
" style="fill: none; stroke: #000000; stroke-width: 0.8; stroke-linejoin: miter; stroke-linecap: square"/>
   </g>
   <g id="patch_5">
    <path d="M 100.8558 224.9208 
L 295.4502 224.9208 
" style="fill: none; stroke: #000000; stroke-width: 0.8; stroke-linejoin: miter; stroke-linecap: square"/>
   </g>
   <g id="patch_6">
    <path d="M 100.8558 30.3264 
L 295.4502 30.3264 
" style="fill: none; stroke: #000000; stroke-width: 0.8; stroke-linejoin: miter; stroke-linecap: square"/>
   </g>
   <g id="patch_7">
    <path d="M 263.006673 137.352061 
C 265.587024 137.352061 268.062039 136.326876 269.886624 134.502292 
C 271.711208 132.677708 272.736393 130.202693 272.736393 127.622341 
C 272.736393 125.041989 271.711208 122.566974 269.886624 120.74239 
C 268.062039 118.917806 265.587024 117.892621 263.006673 117.892621 
C 260.426321 117.892621 257.951306 118.917806 256.126722 120.74239 
C 254.302137 122.566974 253.276953 125.041989 253.276953 127.622341 
C 253.276953 130.202693 254.302137 132.677708 256.126722 134.502292 
C 257.951306 136.326876 260.426321 137.352061 263.006673 137.352061 
z
" clip-path="url(#paa1525653c)" style="fill: #1f77b4; stroke: #000000; stroke-linejoin: miter"/>
   </g>
   <g id="patch_8">
    <path d="M 240.879042 140.921939 
C 243.459394 140.921939 245.934408 139.896755 247.758993 138.07217 
C 249.583577 136.247586 250.608762 133.772571 250.608762 131.192219 
C 250.608762 128.611867 249.583577 126.136853 247.758993 124.312268 
C 245.934408 122.487684 243.459394 121.462499 240.879042 121.462499 
C 238.29869 121.462499 235.823675 122.487684 233.999091 124.312268 
C 232.174507 126.136853 231.149322 128.611867 231.149322 131.192219 
C 231.149322 133.772571 232.174507 136.247586 233.999091 138.07217 
C 235.823675 139.896755 238.29869 140.921939 240.879042 140.921939 
z
" clip-path="url(#paa1525653c)" style="fill: #ff7f0e; stroke: #000000; stroke-linejoin: miter"/>
   </g>
   <g id="patch_9">
    <path d="M 133.288235 104.920696 
C 135.868587 104.920696 138.343602 103.895511 140.168186 102.070927 
C 141.992771 100.246343 143.017955 97.771328 143.017955 95.190976 
C 143.017955 92.610624 141.992771 90.135609 140.168186 88.311025 
C 138.343602 86.486441 135.868587 85.461256 133.288235 85.461256 
C 130.707883 85.461256 128.232869 86.486441 126.408284 88.311025 
C 124.5837 90.135609 123.558515 92.610624 123.558515 95.190976 
C 123.558515 97.771328 124.5837 100.246343 126.408284 102.070927 
C 128.232869 103.895511 130.707883 104.920696 133.288235 104.920696 
z
" clip-path="url(#paa1525653c)" style="fill: #2ca02c; stroke: #000000; stroke-linejoin: miter"/>
   </g>
   <g id="patch_10">
    <path d="M 165.720369 104.920805 
C 168.300721 104.920805 170.775736 103.89562 172.60032 102.071036 
C 174.424904 100.246452 175.450089 97.771437 175.450089 95.191085 
C 175.450089 92.610733 174.424904 90.135718 172.60032 88.311134 
C 170.775736 86.48655 168.300721 85.461365 165.720369 85.461365 
C 163.140017 85.461365 160.665002 86.48655 158.840418 88.311134 
C 157.015834 90.135718 155.990649 92.610733 155.990649 95.191085 
C 155.990649 97.771437 157.015834 100.246452 158.840418 102.071036 
C 160.665002 103.89562 163.140017 104.920805 165.720369 104.920805 
z
" clip-path="url(#paa1525653c)" style="fill: #d62728; stroke: #000000; stroke-linejoin: miter"/>
   </g>
   <g id="patch_11">
    <path d="M 230.585716 104.920605 
C 233.166068 104.920605 235.641082 103.895421 237.465667 102.070836 
C 239.290251 100.246252 240.315436 97.771237 240.315436 95.190885 
C 240.315436 92.610533 239.290251 90.135519 237.465667 88.310934 
C 235.641082 86.48635 233.166068 85.461165 230.585716 85.461165 
C 228.005364 85.461165 225.530349 86.48635 223.705765 88.310934 
C 221.88118 90.135519 220.855996 92.610533 220.855996 95.190885 
C 220.855996 97.771237 221.88118 100.246252 223.705765 102.070836 
C 225.530349 103.895421 228.005364 104.920605 230.585716 104.920605 
z
" clip-path="url(#paa1525653c)" style="fill: #9467bd; stroke: #000000; stroke-linejoin: miter"/>
   </g>
   <g id="patch_12">
    <path d="M 263.017772 104.920709 
C 265.598124 104.920709 268.073139 103.895524 269.897723 102.07094 
C 271.722308 100.246356 272.747492 97.771341 272.747492 95.190989 
C 272.747492 92.610637 271.722308 90.135622 269.897723 88.311038 
C 268.073139 86.486454 265.598124 85.461269 263.017772 85.461269 
C 260.43742 85.461269 257.962406 86.486454 256.137821 88.311038 
C 254.313237 90.135622 253.288052 92.610637 253.288052 95.190989 
C 253.288052 97.771341 254.313237 100.246356 256.137821 102.07094 
C 257.962406 103.895524 260.43742 104.920709 263.017772 104.920709 
z
" clip-path="url(#paa1525653c)" style="fill: #8c564b; stroke: #000000; stroke-linejoin: miter"/>
   </g>
   <g id="patch_13">
    <path d="M 133.288253 169.785876 
C 135.868605 169.785876 138.34362 168.760691 140.168204 166.936107 
C 141.992788 165.111523 143.017973 162.636508 143.017973 160.056156 
C 143.017973 157.475804 141.992788 155.000789 140.168204 153.176205 
C 138.34362 151.351621 135.868605 150.326436 133.288253 150.326436 
C 130.707901 150.326436 128.232886 151.351621 126.408302 153.176205 
C 124.583718 155.000789 123.558533 157.475804 123.558533 160.056156 
C 123.558533 162.636508 124.583718 165.111523 126.408302 166.936107 
C 128.232886 168.760691 130.707901 169.785876 133.288253 169.785876 
z
" clip-path="url(#paa1525653c)" style="fill: #e377c2; stroke: #000000; stroke-linejoin: miter"/>
   </g>
   <g id="patch_14">
    <path d="M 165.720378 169.785437 
C 168.300729 169.785437 170.775744 168.760252 172.600329 166.935668 
C 174.424913 165.111083 175.450098 162.636069 175.450098 160.055717 
C 175.450098 157.475365 174.424913 155.00035 172.600329 153.175766 
C 170.775744 151.351181 168.300729 150.325997 165.720378 150.325997 
C 163.140026 150.325997 160.665011 151.351181 158.840427 153.175766 
C 157.015842 155.00035 155.990658 157.475365 155.990658 160.055717 
C 155.990658 162.636069 157.015842 165.111083 158.840427 166.935668 
C 160.665011 168.760252 163.140026 169.785437 165.720378 169.785437 
z
" clip-path="url(#paa1525653c)" style="fill: #7f7f7f; stroke: #000000; stroke-linejoin: miter"/>
   </g>
   <g id="patch_15">
    <path d="M 230.585555 169.785764 
C 233.165907 169.785764 235.640922 168.760579 237.465506 166.935995 
C 239.29009 165.111411 240.315275 162.636396 240.315275 160.056044 
C 240.315275 157.475692 239.29009 155.000677 237.465506 153.176093 
C 235.640922 151.351509 233.165907 150.326324 230.585555 150.326324 
C 228.005203 150.326324 225.530188 151.351509 223.705604 153.176093 
C 221.88102 155.000677 220.855835 157.475692 220.855835 160.056044 
C 220.855835 162.636396 221.88102 165.111411 223.705604 166.935995 
C 225.530188 168.760579 228.005203 169.785764 230.585555 169.785764 
z
" clip-path="url(#paa1525653c)" style="fill: #bcbd22; stroke: #000000; stroke-linejoin: miter"/>
   </g>
   <g id="patch_16">
    <path d="M 263.017777 169.785918 
C 265.598129 169.785918 268.073143 168.760733 269.897728 166.936149 
C 271.722312 165.111565 272.747497 162.63655 272.747497 160.056198 
C 272.747497 157.475846 271.722312 155.000831 269.897728 153.176247 
C 268.073143 151.351663 265.598129 150.326478 263.017777 150.326478 
C 260.437425 150.326478 257.96241 151.351663 256.137826 153.176247 
C 254.313241 155.000831 253.288057 157.475846 253.288057 160.056198 
C 253.288057 162.63655 254.313241 165.111565 256.137826 166.936149 
C 257.96241 168.760733 260.437425 169.785918 263.017777 169.785918 
z
" clip-path="url(#paa1525653c)" style="fill: #17becf; stroke: #000000; stroke-linejoin: miter"/>
   </g>
   <g id="patch_17">
    <path d="M 230.585706 72.488504 
C 233.166058 72.488504 235.641073 71.46332 237.465657 69.638735 
C 239.290242 67.814151 240.315426 65.339136 240.315426 62.758784 
C 240.315426 60.178432 239.290242 57.703418 237.465657 55.878833 
C 235.641073 54.054249 233.166058 53.029064 230.585706 53.029064 
C 228.005354 53.029064 225.53034 54.054249 223.705755 55.878833 
C 221.881171 57.703418 220.855986 60.178432 220.855986 62.758784 
C 220.855986 65.339136 221.881171 67.814151 223.705755 69.638735 
C 225.53034 71.46332 228.005354 72.488504 230.585706 72.488504 
z
" clip-path="url(#paa1525653c)" style="fill: #2f4f4f; stroke: #000000; stroke-linejoin: miter"/>
   </g>
   <g id="patch_18">
    <path d="M 230.585301 40.056393 
C 233.165653 40.056393 235.640667 39.031208 237.465252 37.206624 
C 239.289836 35.38204 240.315021 32.907025 240.315021 30.326673 
C 240.315021 27.746321 239.289836 25.271306 237.465252 23.446722 
C 235.640667 21.622138 233.165653 20.596953 230.585301 20.596953 
C 228.004949 20.596953 225.529934 21.622138 223.70535 23.446722 
C 221.880766 25.271306 220.855581 27.746321 220.855581 30.326673 
C 220.855581 32.907025 221.880766 35.38204 223.70535 37.206624 
C 225.529934 39.031208 228.004949 40.056393 230.585301 40.056393 
z
" clip-path="url(#paa1525653c)" style="fill: #cd5c5c; stroke: #000000; stroke-linejoin: miter"/>
   </g>
   <g id="patch_19">
    <path d="M 230.5858 7.62368 
C 233.166152 7.62368 235.641167 6.598496 237.465751 4.773911 
C 239.290335 2.949327 240.31552 0.474312 240.31552 -2.10604 
C 240.31552 -4.686391 239.290335 -7.161406 237.465751 -8.985991 
C 235.641167 -10.810575 233.166152 -11.83576 230.5858 -11.83576 
C 228.005448 -11.83576 225.530433 -10.810575 223.705849 -8.985991 
C 221.881265 -7.161406 220.85608 -4.686391 220.85608 -2.10604 
C 220.85608 0.474312 221.881265 2.949327 223.705849 4.773911 
C 225.530433 6.598496 228.005448 7.62368 230.5858 7.62368 
z
" clip-path="url(#paa1525653c)" style="fill: #add8e6; stroke: #000000; stroke-linejoin: miter"/>
   </g>
   <g id="patch_20">
    <path d="M 230.585625 202.218153 
C 233.165977 202.218153 235.640991 201.192968 237.465576 199.368384 
C 239.29016 197.543799 240.315345 195.068784 240.315345 192.488433 
C 240.315345 189.908081 239.29016 187.433066 237.465576 185.608482 
C 235.640991 183.783897 233.165977 182.758713 230.585625 182.758713 
C 228.005273 182.758713 225.530258 183.783897 223.705674 185.608482 
C 221.881089 187.433066 220.855905 189.908081 220.855905 192.488433 
C 220.855905 195.068784 221.881089 197.543799 223.705674 199.368384 
C 225.530258 201.192968 228.005273 202.218153 230.585625 202.218153 
z
" clip-path="url(#paa1525653c)" style="fill: #663399; stroke: #000000; stroke-linejoin: miter"/>
   </g>
   <g id="patch_21">
    <path d="M 230.58532 234.650557 
C 233.165672 234.650557 235.640686 233.625372 237.465271 231.800788 
C 239.289855 229.976203 240.31504 227.501189 240.31504 224.920837 
C 240.31504 222.340485 239.289855 219.86547 237.465271 218.040886 
C 235.640686 216.216302 233.165672 215.191117 230.58532 215.191117 
C 228.004968 215.191117 225.529953 216.216302 223.705369 218.040886 
C 221.880784 219.86547 220.8556 222.340485 220.8556 224.920837 
C 220.8556 227.501189 221.880784 229.976203 223.705369 231.800788 
C 225.529953 233.625372 228.004968 234.650557 230.58532 234.650557 
z
" clip-path="url(#paa1525653c)" style="fill: #8fbc8f; stroke: #000000; stroke-linejoin: miter"/>
   </g>
   <g id="patch_22">
    <path d="M 230.586134 267.0829 
C 233.166486 267.0829 235.641501 266.057715 237.466085 264.233131 
C 239.29067 262.408547 240.315854 259.933532 240.315854 257.35318 
C 240.315854 254.772828 239.29067 252.297814 237.466085 250.473229 
C 235.641501 248.648645 233.166486 247.62346 230.586134 247.62346 
C 228.005783 247.62346 225.530768 248.648645 223.706183 250.473229 
C 221.881599 252.297814 220.856414 254.772828 220.856414 257.35318 
C 220.856414 259.933532 221.881599 262.408547 223.706183 264.233131 
C 225.530768 266.057715 228.005783 267.0829 230.586134 267.0829 
z
" clip-path="url(#paa1525653c)" style="fill: #00ced1; stroke: #000000; stroke-linejoin: miter"/>
   </g>
   <g id="patch_23">
    <path d="M 165.720558 72.488612 
C 168.30091 72.488612 170.775925 71.463428 172.600509 69.638843 
C 174.425093 67.814259 175.450278 65.339244 175.450278 62.758892 
C 175.450278 60.17854 174.425093 57.703526 172.600509 55.878941 
C 170.775925 54.054357 168.30091 53.029172 165.720558 53.029172 
C 163.140206 53.029172 160.665191 54.054357 158.840607 55.878941 
C 157.016023 57.703526 155.990838 60.17854 155.990838 62.758892 
C 155.990838 65.339244 157.016023 67.814259 158.840607 69.638843 
C 160.665191 71.463428 163.140206 72.488612 165.720558 72.488612 
z
" clip-path="url(#paa1525653c)" style="fill: #6a5acd; stroke: #000000; stroke-linejoin: miter"/>
   </g>
   <g id="patch_24">
    <path d="M 165.720614 40.056242 
C 168.300966 40.056242 170.77598 39.031058 172.600565 37.206473 
C 174.425149 35.381889 175.450334 32.906874 175.450334 30.326522 
C 175.450334 27.74617 174.425149 25.271156 172.600565 23.446571 
C 170.77598 21.621987 168.300966 20.596802 165.720614 20.596802 
C 163.140262 20.596802 160.665247 21.621987 158.840663 23.446571 
C 157.016078 25.271156 155.990894 27.74617 155.990894 30.326522 
C 155.990894 32.906874 157.016078 35.381889 158.840663 37.206473 
C 160.665247 39.031058 163.140262 40.056242 165.720614 40.056242 
z
" clip-path="url(#paa1525653c)" style="fill: #808000; stroke: #000000; stroke-linejoin: miter"/>
   </g>
   <g id="patch_25">
    <path d="M 165.720576 7.623728 
C 168.300928 7.623728 170.775943 6.598543 172.600527 4.773959 
C 174.425111 2.949375 175.450296 0.47436 175.450296 -2.105992 
C 175.450296 -4.686344 174.425111 -7.161359 172.600527 -8.985943 
C 170.775943 -10.810527 168.300928 -11.835712 165.720576 -11.835712 
C 163.140224 -11.835712 160.665209 -10.810527 158.840625 -8.985943 
C 157.016041 -7.161359 155.990856 -4.686344 155.990856 -2.105992 
C 155.990856 0.47436 157.016041 2.949375 158.840625 4.773959 
C 160.665209 6.598543 163.140224 7.623728 165.720576 7.623728 
z
" clip-path="url(#paa1525653c)" style="fill: #a0522d; stroke: #000000; stroke-linejoin: miter"/>
   </g>
   <g id="patch_26">
    <path d="M 165.720479 202.218286 
C 168.300831 202.218286 170.775846 201.193101 172.60043 199.368517 
C 174.425015 197.543933 175.450199 195.068918 175.450199 192.488566 
C 175.450199 189.908214 174.425015 187.433199 172.60043 185.608615 
C 170.775846 183.784031 168.300831 182.758846 165.720479 182.758846 
C 163.140127 182.758846 160.665113 183.784031 158.840528 185.608615 
C 157.015944 187.433199 155.990759 189.908214 155.990759 192.488566 
C 155.990759 195.068918 157.015944 197.543933 158.840528 199.368517 
C 160.665113 201.193101 163.140127 202.218286 165.720479 202.218286 
z
" clip-path="url(#paa1525653c)" style="fill: #ff4500; stroke: #000000; stroke-linejoin: miter"/>
   </g>
   <g id="patch_27">
    <path d="M 165.720682 234.650378 
C 168.301034 234.650378 170.776048 233.625193 172.600633 231.800609 
C 174.425217 229.976025 175.450402 227.50101 175.450402 224.920658 
C 175.450402 222.340306 174.425217 219.865291 172.600633 218.040707 
C 170.776048 216.216123 168.301034 215.190938 165.720682 215.190938 
C 163.14033 215.190938 160.665315 216.216123 158.840731 218.040707 
C 157.016146 219.865291 155.990962 222.340306 155.990962 224.920658 
C 155.990962 227.50101 157.016146 229.976025 158.840731 231.800609 
C 160.665315 233.625193 163.14033 234.650378 165.720682 234.650378 
z
" clip-path="url(#paa1525653c)" style="fill: #708090; stroke: #000000; stroke-linejoin: miter"/>
   </g>
   <g id="patch_28">
    <path d="M 165.720106 267.082907 
C 168.300457 267.082907 170.775472 266.057723 172.600057 264.233138 
C 174.424641 262.408554 175.449826 259.933539 175.449826 257.353187 
C 175.449826 254.772836 174.424641 252.297821 172.600057 250.473237 
C 170.775472 248.648652 168.300457 247.623467 165.720106 247.623467 
C 163.139754 247.623467 160.664739 248.648652 158.840155 250.473237 
C 157.01557 252.297821 155.990386 254.772836 155.990386 257.353187 
C 155.990386 259.933539 157.01557 262.408554 158.840155 264.233138 
C 160.664739 266.057723 163.139754 267.082907 165.720106 267.082907 
z
" clip-path="url(#paa1525653c)" style="fill: #bdb76b; stroke: #000000; stroke-linejoin: miter"/>
   </g>
   <g id="line2d_59">
    <path d="M 263.0178 127.6236 
" clip-path="url(#paa1525653c)" style="fill: none; stroke: #1f77b4; stroke-width: 1.5; stroke-linecap: square"/>
    <defs>
     <path id="mdf5b994ac8" d="M 0 4.949747 
L 2.969848 0 
L 0 -4.949747 
L -2.969848 0 
z
" style="stroke: #000000; stroke-linejoin: miter"/>
    </defs>
    <g clip-path="url(#paa1525653c)">
     <use xlink:href="#mdf5b994ac8" x="263.0178" y="127.6236" style="fill: #1f77b4; stroke: #000000; stroke-linejoin: miter"/>
    </g>
   </g>
   <g id="line2d_60">
    <path d="M 263.0178 127.6236 
" clip-path="url(#paa1525653c)" style="fill: none; stroke: #ff7f0e; stroke-width: 1.5; stroke-linecap: square"/>
    <defs>
     <path id="m45730e2cc9" d="M 0 4.949747 
L 2.969848 0 
L 0 -4.949747 
L -2.969848 0 
z
" style="stroke: #000000; stroke-linejoin: miter"/>
    </defs>
    <g clip-path="url(#paa1525653c)">
     <use xlink:href="#m45730e2cc9" x="263.0178" y="127.6236" style="fill: #ff7f0e; stroke: #000000; stroke-linejoin: miter"/>
    </g>
   </g>
   <g id="line2d_61">
    <path d="M 133.2882 95.1912 
" clip-path="url(#paa1525653c)" style="fill: none; stroke: #2ca02c; stroke-width: 1.5; stroke-linecap: square"/>
    <defs>
     <path id="m9679b34deb" d="M 0 4.949747 
L 2.969848 0 
L 0 -4.949747 
L -2.969848 0 
z
" style="stroke: #000000; stroke-linejoin: miter"/>
    </defs>
    <g clip-path="url(#paa1525653c)">
     <use xlink:href="#m9679b34deb" x="133.2882" y="95.1912" style="fill: #2ca02c; stroke: #000000; stroke-linejoin: miter"/>
    </g>
   </g>
   <g id="line2d_62">
    <path d="M 165.7206 95.1912 
" clip-path="url(#paa1525653c)" style="fill: none; stroke: #d62728; stroke-width: 1.5; stroke-linecap: square"/>
    <defs>
     <path id="m76bbb29eef" d="M 0 4.949747 
L 2.969848 0 
L 0 -4.949747 
L -2.969848 0 
z
" style="stroke: #000000; stroke-linejoin: miter"/>
    </defs>
    <g clip-path="url(#paa1525653c)">
     <use xlink:href="#m76bbb29eef" x="165.7206" y="95.1912" style="fill: #d62728; stroke: #000000; stroke-linejoin: miter"/>
    </g>
   </g>
   <g id="line2d_63">
    <path d="M 230.5854 95.1912 
" clip-path="url(#paa1525653c)" style="fill: none; stroke: #9467bd; stroke-width: 1.5; stroke-linecap: square"/>
    <defs>
     <path id="m27c150c6a0" d="M 0 4.949747 
L 2.969848 0 
L 0 -4.949747 
L -2.969848 0 
z
" style="stroke: #000000; stroke-linejoin: miter"/>
    </defs>
    <g clip-path="url(#paa1525653c)">
     <use xlink:href="#m27c150c6a0" x="230.5854" y="95.1912" style="fill: #9467bd; stroke: #000000; stroke-linejoin: miter"/>
    </g>
   </g>
   <g id="line2d_64">
    <path d="M 263.0178 95.1912 
" clip-path="url(#paa1525653c)" style="fill: none; stroke: #8c564b; stroke-width: 1.5; stroke-linecap: square"/>
    <defs>
     <path id="m9a246e2442" d="M 0 4.949747 
L 2.969848 0 
L 0 -4.949747 
L -2.969848 0 
z
" style="stroke: #000000; stroke-linejoin: miter"/>
    </defs>
    <g clip-path="url(#paa1525653c)">
     <use xlink:href="#m9a246e2442" x="263.0178" y="95.1912" style="fill: #8c564b; stroke: #000000; stroke-linejoin: miter"/>
    </g>
   </g>
   <g id="line2d_65">
    <path d="M 133.2882 160.056 
" clip-path="url(#paa1525653c)" style="fill: none; stroke: #e377c2; stroke-width: 1.5; stroke-linecap: square"/>
    <defs>
     <path id="m60b9c4232f" d="M 0 4.949747 
L 2.969848 0 
L 0 -4.949747 
L -2.969848 0 
z
" style="stroke: #000000; stroke-linejoin: miter"/>
    </defs>
    <g clip-path="url(#paa1525653c)">
     <use xlink:href="#m60b9c4232f" x="133.2882" y="160.056" style="fill: #e377c2; stroke: #000000; stroke-linejoin: miter"/>
    </g>
   </g>
   <g id="line2d_66">
    <path d="M 165.7206 160.056 
" clip-path="url(#paa1525653c)" style="fill: none; stroke: #7f7f7f; stroke-width: 1.5; stroke-linecap: square"/>
    <defs>
     <path id="me4fc0d4d6c" d="M 0 4.949747 
L 2.969848 0 
L 0 -4.949747 
L -2.969848 0 
z
" style="stroke: #000000; stroke-linejoin: miter"/>
    </defs>
    <g clip-path="url(#paa1525653c)">
     <use xlink:href="#me4fc0d4d6c" x="165.7206" y="160.056" style="fill: #7f7f7f; stroke: #000000; stroke-linejoin: miter"/>
    </g>
   </g>
   <g id="line2d_67">
    <path d="M 230.5854 160.056 
" clip-path="url(#paa1525653c)" style="fill: none; stroke: #bcbd22; stroke-width: 1.5; stroke-linecap: square"/>
    <defs>
     <path id="mcaa7c27204" d="M 0 4.949747 
L 2.969848 0 
L 0 -4.949747 
L -2.969848 0 
z
" style="stroke: #000000; stroke-linejoin: miter"/>
    </defs>
    <g clip-path="url(#paa1525653c)">
     <use xlink:href="#mcaa7c27204" x="230.5854" y="160.056" style="fill: #bcbd22; stroke: #000000; stroke-linejoin: miter"/>
    </g>
   </g>
   <g id="line2d_68">
    <path d="M 263.0178 160.056 
" clip-path="url(#paa1525653c)" style="fill: none; stroke: #17becf; stroke-width: 1.5; stroke-linecap: square"/>
    <defs>
     <path id="m547062036c" d="M 0 4.949747 
L 2.969848 0 
L 0 -4.949747 
L -2.969848 0 
z
" style="stroke: #000000; stroke-linejoin: miter"/>
    </defs>
    <g clip-path="url(#paa1525653c)">
     <use xlink:href="#m547062036c" x="263.0178" y="160.056" style="fill: #17becf; stroke: #000000; stroke-linejoin: miter"/>
    </g>
   </g>
   <g id="line2d_69">
    <path d="M 230.5854 62.7588 
" clip-path="url(#paa1525653c)" style="fill: none; stroke: #2f4f4f; stroke-width: 1.5; stroke-linecap: square"/>
    <defs>
     <path id="m536783865d" d="M 0 4.949747 
L 2.969848 0 
L 0 -4.949747 
L -2.969848 0 
z
" style="stroke: #000000; stroke-linejoin: miter"/>
    </defs>
    <g clip-path="url(#paa1525653c)">
     <use xlink:href="#m536783865d" x="230.5854" y="62.7588" style="fill: #2f4f4f; stroke: #000000; stroke-linejoin: miter"/>
    </g>
   </g>
   <g id="line2d_70">
    <path d="M 230.5854 30.3264 
" clip-path="url(#paa1525653c)" style="fill: none; stroke: #cd5c5c; stroke-width: 1.5; stroke-linecap: square"/>
    <defs>
     <path id="m0fa26338be" d="M 0 4.949747 
L 2.969848 0 
L 0 -4.949747 
L -2.969848 0 
z
" style="stroke: #000000; stroke-linejoin: miter"/>
    </defs>
    <g clip-path="url(#paa1525653c)">
     <use xlink:href="#m0fa26338be" x="230.5854" y="30.3264" style="fill: #cd5c5c; stroke: #000000; stroke-linejoin: miter"/>
    </g>
   </g>
   <g id="line2d_71">
    <path clip-path="url(#paa1525653c)" style="fill: none; stroke: #add8e6; stroke-width: 1.5; stroke-linecap: square"/>
    <defs>
     <path id="m647ff4a6e3" d="M 0 4.949747 
L 2.969848 0 
L 0 -4.949747 
L -2.969848 0 
z
" style="stroke: #000000; stroke-linejoin: miter"/>
    </defs>
    <g clip-path="url(#paa1525653c)"/>
   </g>
   <g id="line2d_72">
    <path d="M 230.5854 192.4884 
" clip-path="url(#paa1525653c)" style="fill: none; stroke: #663399; stroke-width: 1.5; stroke-linecap: square"/>
    <defs>
     <path id="m7ca676c61a" d="M 0 4.949747 
L 2.969848 0 
L 0 -4.949747 
L -2.969848 0 
z
" style="stroke: #000000; stroke-linejoin: miter"/>
    </defs>
    <g clip-path="url(#paa1525653c)">
     <use xlink:href="#m7ca676c61a" x="230.5854" y="192.4884" style="fill: #663399; stroke: #000000; stroke-linejoin: miter"/>
    </g>
   </g>
   <g id="line2d_73">
    <path d="M 230.5854 224.9208 
" clip-path="url(#paa1525653c)" style="fill: none; stroke: #8fbc8f; stroke-width: 1.5; stroke-linecap: square"/>
    <defs>
     <path id="mf2a26d455d" d="M 0 4.949747 
L 2.969848 0 
L 0 -4.949747 
L -2.969848 0 
z
" style="stroke: #000000; stroke-linejoin: miter"/>
    </defs>
    <g clip-path="url(#paa1525653c)">
     <use xlink:href="#mf2a26d455d" x="230.5854" y="224.9208" style="fill: #8fbc8f; stroke: #000000; stroke-linejoin: miter"/>
    </g>
   </g>
   <g id="line2d_74">
    <path clip-path="url(#paa1525653c)" style="fill: none; stroke: #00ced1; stroke-width: 1.5; stroke-linecap: square"/>
    <defs>
     <path id="me6d8a4bcd5" d="M 0 4.949747 
L 2.969848 0 
L 0 -4.949747 
L -2.969848 0 
z
" style="stroke: #000000; stroke-linejoin: miter"/>
    </defs>
    <g clip-path="url(#paa1525653c)">
     <use xlink:href="#me6d8a4bcd5" x="230.5854" y="257.3532" style="fill: #00ced1; stroke: #000000; stroke-linejoin: miter"/>
    </g>
   </g>
   <g id="line2d_75">
    <path d="M 165.7206 62.7588 
" clip-path="url(#paa1525653c)" style="fill: none; stroke: #6a5acd; stroke-width: 1.5; stroke-linecap: square"/>
    <defs>
     <path id="mbed9308a49" d="M 0 4.949747 
L 2.969848 0 
L 0 -4.949747 
L -2.969848 0 
z
" style="stroke: #000000; stroke-linejoin: miter"/>
    </defs>
    <g clip-path="url(#paa1525653c)">
     <use xlink:href="#mbed9308a49" x="165.7206" y="62.7588" style="fill: #6a5acd; stroke: #000000; stroke-linejoin: miter"/>
    </g>
   </g>
   <g id="line2d_76">
    <path d="M 165.7206 30.3264 
" clip-path="url(#paa1525653c)" style="fill: none; stroke: #808000; stroke-width: 1.5; stroke-linecap: square"/>
    <defs>
     <path id="m6220dcb8fd" d="M 0 4.949747 
L 2.969848 0 
L 0 -4.949747 
L -2.969848 0 
z
" style="stroke: #000000; stroke-linejoin: miter"/>
    </defs>
    <g clip-path="url(#paa1525653c)">
     <use xlink:href="#m6220dcb8fd" x="165.7206" y="30.3264" style="fill: #808000; stroke: #000000; stroke-linejoin: miter"/>
    </g>
   </g>
   <g id="line2d_77">
    <path clip-path="url(#paa1525653c)" style="fill: none; stroke: #a0522d; stroke-width: 1.5; stroke-linecap: square"/>
    <defs>
     <path id="m0eb1512015" d="M 0 4.949747 
L 2.969848 0 
L 0 -4.949747 
L -2.969848 0 
z
" style="stroke: #000000; stroke-linejoin: miter"/>
    </defs>
    <g clip-path="url(#paa1525653c)"/>
   </g>
   <g id="line2d_78">
    <path d="M 165.7206 192.4884 
" clip-path="url(#paa1525653c)" style="fill: none; stroke: #ff4500; stroke-width: 1.5; stroke-linecap: square"/>
    <defs>
     <path id="mca6d28e38c" d="M 0 4.949747 
L 2.969848 0 
L 0 -4.949747 
L -2.969848 0 
z
" style="stroke: #000000; stroke-linejoin: miter"/>
    </defs>
    <g clip-path="url(#paa1525653c)">
     <use xlink:href="#mca6d28e38c" x="165.7206" y="192.4884" style="fill: #ff4500; stroke: #000000; stroke-linejoin: miter"/>
    </g>
   </g>
   <g id="line2d_79">
    <path d="M 165.7206 224.9208 
" clip-path="url(#paa1525653c)" style="fill: none; stroke: #708090; stroke-width: 1.5; stroke-linecap: square"/>
    <defs>
     <path id="m470b8a3399" d="M 0 4.949747 
L 2.969848 0 
L 0 -4.949747 
L -2.969848 0 
z
" style="stroke: #000000; stroke-linejoin: miter"/>
    </defs>
    <g clip-path="url(#paa1525653c)">
     <use xlink:href="#m470b8a3399" x="165.7206" y="224.9208" style="fill: #708090; stroke: #000000; stroke-linejoin: miter"/>
    </g>
   </g>
   <g id="line2d_80">
    <path clip-path="url(#paa1525653c)" style="fill: none; stroke: #bdb76b; stroke-width: 1.5; stroke-linecap: square"/>
    <defs>
     <path id="m55a2667454" d="M 0 4.949747 
L 2.969848 0 
L 0 -4.949747 
L -2.969848 0 
z
" style="stroke: #000000; stroke-linejoin: miter"/>
    </defs>
    <g clip-path="url(#paa1525653c)">
     <use xlink:href="#m55a2667454" x="165.7206" y="257.3532" style="fill: #bdb76b; stroke: #000000; stroke-linejoin: miter"/>
    </g>
   </g>
  </g>
 </g>
 <defs>
  <clipPath id="paa1525653c">
   <rect x="100.8558" y="30.3264" width="194.5944" height="194.5944"/>
  </clipPath>
 </defs>
</svg>
